%TF.GenerationSoftware,KiCad,Pcbnew,7.0.1*%
%TF.CreationDate,2023-06-24T00:20:46-07:00*%
%TF.ProjectId,Weather_Balloon_Payload_HW,57656174-6865-4725-9f42-616c6c6f6f6e,rev?*%
%TF.SameCoordinates,PX68e7780PY8583b00*%
%TF.FileFunction,Copper,L4,Bot*%
%TF.FilePolarity,Positive*%
%FSLAX46Y46*%
G04 Gerber Fmt 4.6, Leading zero omitted, Abs format (unit mm)*
G04 Created by KiCad (PCBNEW 7.0.1) date 2023-06-24 00:20:46*
%MOMM*%
%LPD*%
G01*
G04 APERTURE LIST*
G04 Aperture macros list*
%AMRoundRect*
0 Rectangle with rounded corners*
0 $1 Rounding radius*
0 $2 $3 $4 $5 $6 $7 $8 $9 X,Y pos of 4 corners*
0 Add a 4 corners polygon primitive as box body*
4,1,4,$2,$3,$4,$5,$6,$7,$8,$9,$2,$3,0*
0 Add four circle primitives for the rounded corners*
1,1,$1+$1,$2,$3*
1,1,$1+$1,$4,$5*
1,1,$1+$1,$6,$7*
1,1,$1+$1,$8,$9*
0 Add four rect primitives between the rounded corners*
20,1,$1+$1,$2,$3,$4,$5,0*
20,1,$1+$1,$4,$5,$6,$7,0*
20,1,$1+$1,$6,$7,$8,$9,0*
20,1,$1+$1,$8,$9,$2,$3,0*%
G04 Aperture macros list end*
%TA.AperFunction,ComponentPad*%
%ADD10R,1.700000X1.700000*%
%TD*%
%TA.AperFunction,ComponentPad*%
%ADD11O,1.700000X1.700000*%
%TD*%
%TA.AperFunction,ComponentPad*%
%ADD12RoundRect,0.250000X-1.550000X0.650000X-1.550000X-0.650000X1.550000X-0.650000X1.550000X0.650000X0*%
%TD*%
%TA.AperFunction,ComponentPad*%
%ADD13O,3.600000X1.800000*%
%TD*%
%TA.AperFunction,SMDPad,CuDef*%
%ADD14R,4.900000X1.350000*%
%TD*%
%TA.AperFunction,SMDPad,CuDef*%
%ADD15C,2.500000*%
%TD*%
%TA.AperFunction,ViaPad*%
%ADD16C,0.600000*%
%TD*%
%TA.AperFunction,ViaPad*%
%ADD17C,0.900000*%
%TD*%
%TA.AperFunction,ViaPad*%
%ADD18C,1.000000*%
%TD*%
%TA.AperFunction,Conductor*%
%ADD19C,0.250000*%
%TD*%
%TA.AperFunction,Conductor*%
%ADD20C,0.750000*%
%TD*%
%TA.AperFunction,Conductor*%
%ADD21C,0.500000*%
%TD*%
%TA.AperFunction,Conductor*%
%ADD22C,0.293000*%
%TD*%
%TA.AperFunction,Conductor*%
%ADD23C,0.350000*%
%TD*%
G04 APERTURE END LIST*
D10*
%TO.P,JP2,1,A*%
%TO.N,+3V0*%
X46060000Y75550000D03*
D11*
%TO.P,JP2,2,B*%
%TO.N,/Power/5P0_EN_NFET_G*%
X48600000Y75550000D03*
%TD*%
D12*
%TO.P,J1,1,Pin_1*%
%TO.N,/Power/BATT_VIN*%
X4832500Y77350000D03*
D13*
%TO.P,J1,2,Pin_2*%
%TO.N,GND*%
X4832500Y73540000D03*
%TD*%
D14*
%TO.P,J8,2,Ext*%
%TO.N,GND*%
X97407500Y68675000D03*
X97407500Y74325000D03*
%TD*%
D10*
%TO.P,J10,1,Pin_1*%
%TO.N,+5V*%
X2000000Y64190000D03*
D11*
%TO.P,J10,2,Pin_2*%
%TO.N,/Microcontroller/BUZZ_LED_LOW*%
X2000000Y61650000D03*
%TD*%
D10*
%TO.P,J3,1,Pin_1*%
%TO.N,+3V0*%
X2000000Y33370000D03*
D11*
%TO.P,J3,2,Pin_2*%
%TO.N,/Microcontroller/SWDIO*%
X2000000Y30830000D03*
%TO.P,J3,3,Pin_3*%
%TO.N,/Microcontroller/SWDCLK*%
X2000000Y28290000D03*
%TO.P,J3,4,Pin_4*%
%TO.N,GND*%
X2000000Y25750000D03*
%TD*%
D10*
%TO.P,JP3,1,A*%
%TO.N,GND*%
X23750000Y71190000D03*
D11*
%TO.P,JP3,2,B*%
%TO.N,/Power/UVLO_RSTB*%
X23750000Y68650000D03*
%TD*%
D10*
%TO.P,JP1,1,A*%
%TO.N,+3V0*%
X50110000Y86350000D03*
D11*
%TO.P,JP1,2,B*%
%TO.N,/Power/PA_EN_NFET_G*%
X52650000Y86350000D03*
%TD*%
D15*
%TO.P,ANT1,1,A*%
%TO.N,/GPS and Barometer/GPS_ANT_CONN*%
X87050000Y20900000D03*
%TD*%
D10*
%TO.P,J2,1,Pin_1*%
%TO.N,+3V0*%
X2000000Y56515000D03*
D11*
%TO.P,J2,2,Pin_2*%
%TO.N,GND*%
X2000000Y53975000D03*
%TO.P,J2,3,Pin_3*%
%TO.N,I2C_SCL*%
X2000000Y51435000D03*
%TO.P,J2,4,Pin_4*%
%TO.N,I2C_SDA*%
X2000000Y48895000D03*
%TO.P,J2,5,Pin_5*%
%TO.N,TSNS_EXT_ALERT*%
X2000000Y46355000D03*
%TO.P,J2,6,Pin_6*%
%TO.N,/GPS and Barometer/TSNS_EXT_A0*%
X2000000Y43815000D03*
%TO.P,J2,7,Pin_7*%
%TO.N,/GPS and Barometer/TSNS_EXT_A1*%
X2000000Y41275000D03*
%TO.P,J2,8,Pin_8*%
%TO.N,/GPS and Barometer/TSNS_EXT_A2*%
X2000000Y38735000D03*
%TD*%
D10*
%TO.P,J4,1,Pin_1*%
%TO.N,+3V0*%
X2000000Y20370000D03*
D11*
%TO.P,J4,2,Pin_2*%
%TO.N,/Microcontroller/DBG_TX*%
X2000000Y17830000D03*
%TO.P,J4,3,Pin_3*%
%TO.N,/Microcontroller/DBG_RX*%
X2000000Y15290000D03*
%TO.P,J4,4,Pin_4*%
%TO.N,GND*%
X2000000Y12750000D03*
%TD*%
D16*
%TO.N,GND*%
X68800000Y3600000D03*
X40350000Y6400000D03*
X56739340Y52889340D03*
X31700000Y52730000D03*
X37770000Y32500000D03*
X62700000Y75212500D03*
X54400000Y57700000D03*
X67200000Y5700000D03*
X54400000Y60700000D03*
X61950000Y77362500D03*
X62700000Y77812500D03*
X84400000Y67750000D03*
X60925000Y41312500D03*
X74400000Y57700000D03*
X58200000Y31300000D03*
X57039340Y49489340D03*
X55575000Y39362500D03*
X22200000Y49542500D03*
X63500000Y77562500D03*
X49550000Y56000000D03*
X94450000Y68700000D03*
X74650000Y81100000D03*
X60850000Y54000000D03*
X59550000Y48550000D03*
X64050000Y76912500D03*
X82750000Y67750000D03*
X79150000Y82400000D03*
X75750000Y61100000D03*
X13130000Y68500000D03*
X30800000Y70950000D03*
X66150000Y78262500D03*
X77000000Y56850000D03*
X76550000Y79816668D03*
X70850000Y81050000D03*
X14950000Y73600000D03*
X79950000Y42200000D03*
X44400000Y3800000D03*
X65400000Y75212500D03*
X72050000Y50150000D03*
X53900000Y67900000D03*
X92400000Y73050000D03*
X58200000Y46750000D03*
X31250000Y43700000D03*
X19550000Y51330000D03*
X39000000Y50350000D03*
X92500000Y54479166D03*
X56500000Y70100000D03*
X70750000Y65100000D03*
X93850000Y58300000D03*
X91700000Y53862500D03*
X30072300Y65250000D03*
X79250000Y79816668D03*
X67300000Y6800000D03*
X34237500Y71750000D03*
X34950000Y88300000D03*
X51605000Y37000000D03*
X50700000Y47600000D03*
X31550000Y70950000D03*
X78400000Y82100000D03*
X77350000Y80050000D03*
X69075000Y46312500D03*
X69050000Y50150000D03*
X61150000Y50200000D03*
X88600000Y53550000D03*
X76550000Y78950000D03*
X37500000Y39050000D03*
X18650000Y64000000D03*
X56500000Y73950000D03*
X74400000Y59433332D03*
X77100000Y58566666D03*
X32637500Y68800000D03*
X55400000Y48600000D03*
X64800000Y51750000D03*
X17230000Y64000000D03*
X39637500Y73750000D03*
X13800000Y32300000D03*
X92500000Y55345832D03*
X30072300Y64500000D03*
X57800000Y13400000D03*
X82040000Y73950000D03*
X79250000Y81550000D03*
X58200000Y73950000D03*
X67300000Y4600000D03*
X56000000Y72100000D03*
X91700000Y55112500D03*
X54400000Y73000000D03*
X52000000Y48450000D03*
X41150000Y56800000D03*
X18950000Y39887500D03*
X87450000Y68250000D03*
X76300000Y60450000D03*
X93300000Y43450000D03*
X16800000Y16350000D03*
X20500000Y76850000D03*
X75250000Y57150000D03*
X94100000Y67000000D03*
X75750000Y56500000D03*
X80300000Y82950000D03*
X78350000Y47400000D03*
X79400000Y54800000D03*
X82650000Y75150000D03*
X77900000Y76650000D03*
X53500000Y48450000D03*
X75750000Y58600000D03*
X94100000Y66350000D03*
X97400000Y75550000D03*
X38200000Y47600000D03*
X77350000Y81300000D03*
X93100000Y73050000D03*
X91700000Y56362500D03*
X28150000Y55530000D03*
X59400000Y85500000D03*
X89800000Y53612500D03*
X27150000Y54400000D03*
X76300000Y59200000D03*
X66050000Y50150000D03*
X77100000Y59433332D03*
X64550000Y78362500D03*
X60100000Y55550000D03*
X57425000Y36612500D03*
X37670000Y27500000D03*
X60900000Y73100000D03*
X56725000Y39362500D03*
X8800000Y37500000D03*
X71750000Y81050000D03*
X29350000Y39600000D03*
X51050000Y67850000D03*
X56850000Y1950000D03*
X18800000Y74350000D03*
X97400000Y67450000D03*
X79400000Y45650000D03*
X52100000Y50100000D03*
X76550000Y81550000D03*
X44750000Y61700000D03*
X61950000Y23850000D03*
X63350000Y50100000D03*
X90600000Y68250000D03*
X63900000Y22600000D03*
X64050000Y75662500D03*
X55189340Y51339340D03*
X75750000Y59850000D03*
X92400000Y52762500D03*
X76300000Y57950000D03*
X75200000Y60450000D03*
X34237500Y85300000D03*
X65300000Y78662500D03*
X75200000Y59200000D03*
X64050000Y74412500D03*
X94100000Y48000000D03*
X65400000Y76079168D03*
X30087500Y78000000D03*
X61000000Y79750000D03*
X62400000Y66800000D03*
X91150000Y57012500D03*
X72000000Y47950000D03*
X63850000Y33212500D03*
X39587500Y87300000D03*
X11150000Y40650000D03*
X77800000Y53200000D03*
X94650000Y44350000D03*
X44750000Y60200000D03*
X78550000Y46300000D03*
X77350000Y78800000D03*
X52050000Y46700000D03*
X59300000Y14400000D03*
X58289340Y54439340D03*
X27987500Y35650000D03*
X61950000Y78262500D03*
X77550000Y46300000D03*
X19200000Y76850000D03*
X50975000Y34650000D03*
X63725000Y39462500D03*
X77900000Y80650000D03*
X56950000Y31300000D03*
X83250000Y65150000D03*
X37687500Y87300000D03*
X97400000Y69950000D03*
X30087500Y84500000D03*
X64925000Y49462500D03*
X64050000Y72912500D03*
X91150000Y52412500D03*
X75800000Y79400000D03*
X59951809Y57959860D03*
X88050000Y65150000D03*
X46150000Y48000000D03*
X95300000Y46550000D03*
X62550000Y60150000D03*
X23750000Y26600000D03*
X77900000Y82750000D03*
X70300000Y6800000D03*
X15500000Y37600000D03*
X89300000Y51950000D03*
X74400000Y60300000D03*
X66150000Y77362500D03*
X94100000Y54700000D03*
X73800000Y51750000D03*
X38637500Y88100000D03*
X76550000Y80683334D03*
X75850000Y53550000D03*
X76100000Y51500000D03*
X77400000Y48450000D03*
X70250000Y45650000D03*
X44750000Y60950000D03*
X41500000Y59400000D03*
X53500000Y56250000D03*
X79250000Y78950000D03*
X77100000Y57700000D03*
X34237500Y87300000D03*
X31250000Y46300000D03*
X60175000Y46212500D03*
X30072300Y63000000D03*
X32637500Y82200000D03*
X75000000Y50400000D03*
X91150000Y55762500D03*
X36850000Y46750000D03*
X18450000Y32500000D03*
X44050000Y53550000D03*
X13650000Y72350000D03*
X65400000Y77812500D03*
X89800000Y56212500D03*
X59950000Y62350000D03*
X91150000Y54512500D03*
X17050000Y17700000D03*
X61950000Y75662500D03*
X13050000Y35200000D03*
X23600000Y74150000D03*
X65800000Y64350000D03*
X56500000Y65700000D03*
X23400000Y76800000D03*
X56000000Y64850000D03*
X92500000Y56212500D03*
X90650000Y53062500D03*
X11430000Y66150000D03*
X46000000Y71400000D03*
X75200000Y57950000D03*
X79250000Y80683334D03*
X30072300Y63750000D03*
X94100000Y52100000D03*
X74500000Y56850000D03*
X78300000Y88900000D03*
X89900000Y52762500D03*
X97400000Y73100000D03*
X54400000Y63700000D03*
X95700000Y50550000D03*
X64050000Y79012500D03*
X16900000Y77650000D03*
X62550000Y57950000D03*
X59950000Y60150000D03*
X63775000Y41712500D03*
X64600000Y77562500D03*
X60750000Y65700000D03*
X46250000Y56800000D03*
X41650000Y900000D03*
X63550000Y78362500D03*
X89000000Y68250000D03*
X94450000Y74300000D03*
X73750000Y81100000D03*
X58539340Y50989340D03*
X80000000Y80250000D03*
X48850000Y48000000D03*
X30087500Y77250000D03*
X50700000Y45850000D03*
X27100000Y56600000D03*
X89800000Y54479166D03*
X38687500Y74550000D03*
X62925000Y46112500D03*
X78450000Y80050000D03*
X42200000Y53550000D03*
X27350000Y83550000D03*
X90600000Y55112500D03*
X42250000Y59400000D03*
X60450000Y63850000D03*
X34237500Y73750000D03*
X70950000Y4950000D03*
X77400000Y82100000D03*
X60139340Y52589340D03*
X49050000Y53550000D03*
X62700000Y76945834D03*
X62050000Y55850000D03*
X66150000Y75662500D03*
X62550000Y62350000D03*
X77600000Y55300000D03*
X62800000Y78662500D03*
X44500000Y56000000D03*
X76650000Y82400000D03*
X93850000Y56700000D03*
X95700000Y47550000D03*
X58450000Y76400000D03*
X66075000Y79362500D03*
X83950000Y65150000D03*
X10500000Y32100000D03*
X75800000Y82000000D03*
X38200000Y45850000D03*
X67500000Y64350000D03*
X30837500Y84600000D03*
X38900000Y53550000D03*
X71850000Y66400000D03*
X73150000Y57600000D03*
X39450000Y56000000D03*
X78450000Y81300000D03*
X63500000Y75062500D03*
X28950000Y69500000D03*
X30087500Y76500000D03*
X56250000Y76400000D03*
X22700000Y76800000D03*
X57350000Y73200000D03*
X75750000Y62600000D03*
X54650000Y55100000D03*
X90100000Y65150000D03*
X47100000Y56000000D03*
X14730000Y62200000D03*
X62750000Y51700000D03*
X64600000Y75062500D03*
X45200000Y56000000D03*
X64600000Y76312500D03*
X61950000Y76512500D03*
X54400000Y71250000D03*
X61500000Y48300000D03*
X53901809Y65709860D03*
X66900000Y77962500D03*
X52150000Y56000000D03*
X12800000Y76000000D03*
X89800000Y55345832D03*
X63500000Y76312500D03*
X14200000Y76000000D03*
X17450000Y17000000D03*
X74400000Y58566666D03*
X75800000Y80250000D03*
X91150000Y58512500D03*
X56100000Y1950000D03*
X73900000Y56200000D03*
X85550000Y65850000D03*
X61150000Y24850000D03*
X56700000Y82250000D03*
X91650000Y53062500D03*
X76250000Y57150000D03*
X67800000Y51750000D03*
X90600000Y53862500D03*
X60100000Y79750000D03*
X29300000Y54430000D03*
X51300000Y56800000D03*
X40750000Y59400000D03*
X90600000Y56362500D03*
X78350000Y49500000D03*
X78450000Y78800000D03*
X42000000Y56000000D03*
X92350000Y67700000D03*
X62050000Y63650000D03*
X77900000Y78150000D03*
X37770000Y30000000D03*
X92500000Y53612500D03*
X80000000Y82000000D03*
X40450000Y2200000D03*
X54050000Y50100000D03*
X13500000Y76000000D03*
X33350000Y38950000D03*
X12300000Y59650000D03*
X77900000Y79400000D03*
X62500000Y65100000D03*
X80000000Y81100000D03*
X66650000Y63600000D03*
X50250000Y56000000D03*
X70800000Y51750000D03*
X20800000Y36150000D03*
X64875000Y39462500D03*
X56000000Y56400000D03*
X66150000Y76512500D03*
X30087500Y78750000D03*
X95700000Y55750000D03*
X18800000Y75050000D03*
X56000000Y62400000D03*
X31587500Y84600000D03*
X40600000Y50350000D03*
X22000000Y76800000D03*
X60925000Y43412500D03*
X77100000Y60300000D03*
X80000000Y79400000D03*
X40200000Y56000000D03*
X93300000Y45300000D03*
X82040000Y73250000D03*
X41650000Y3500000D03*
X79950000Y43300000D03*
X37737500Y73750000D03*
X95700000Y53550000D03*
X70350000Y4350000D03*
X30050000Y70850000D03*
X53900000Y70100000D03*
X47200000Y53500000D03*
X65400000Y76945834D03*
X62700000Y76079168D03*
X94100000Y49300000D03*
X62600000Y33162500D03*
X56000000Y59400000D03*
X52300000Y53650000D03*
X75800000Y81100000D03*
X56500000Y67900000D03*
%TO.N,+3V0*%
X35137500Y78500000D03*
X11570000Y45635000D03*
X56000000Y7000000D03*
X35137500Y76600000D03*
X50110000Y79200000D03*
X36137500Y77550000D03*
X30550000Y36850000D03*
X81550000Y41400000D03*
D17*
X19000000Y20250000D03*
D16*
X84650000Y48350000D03*
X11850000Y43800000D03*
X24700000Y26550000D03*
X28037500Y36600000D03*
X9800000Y29150000D03*
X11700000Y17200000D03*
X22850000Y19950000D03*
X60275000Y26375000D03*
X14700000Y36000000D03*
X37137500Y77550000D03*
X18000000Y39937500D03*
X84650000Y42950000D03*
X13800000Y31350000D03*
X56900000Y7000000D03*
X36137500Y76600000D03*
X38137500Y77550000D03*
X53205000Y37730000D03*
X72600000Y7200000D03*
X72600000Y4250000D03*
X57850000Y7000000D03*
X90650000Y50200000D03*
X23800000Y57300000D03*
X56000000Y7900000D03*
X38137500Y76600000D03*
X57850000Y7900000D03*
X39137500Y77550000D03*
X39700000Y8400000D03*
X28600000Y79050000D03*
X37137500Y76600000D03*
X35137500Y77550000D03*
D18*
X67587500Y34562500D03*
D16*
X73537500Y48837500D03*
X39137500Y76600000D03*
X45250000Y2200000D03*
X56900000Y7900000D03*
X28600000Y81950000D03*
X60600000Y31150000D03*
X32500000Y51130000D03*
X19350000Y43400000D03*
D18*
X67825000Y36625000D03*
D16*
X51562500Y40962500D03*
%TO.N,+8V*%
X24050000Y82750000D03*
X61900000Y83250000D03*
X24050000Y81750000D03*
X24900000Y82750000D03*
X62700000Y83250000D03*
X61900000Y84050000D03*
X62700000Y84050000D03*
X23200000Y81750000D03*
X24900000Y81750000D03*
X24900000Y80750000D03*
X24050000Y80750000D03*
X63500000Y83250000D03*
%TO.N,+5V*%
X38250000Y63000000D03*
X42850000Y63050000D03*
X44550000Y63050000D03*
X37400000Y63850000D03*
D18*
X35150000Y65000000D03*
D16*
X37400000Y63000000D03*
X28750000Y71500000D03*
X43700000Y63050000D03*
X38250000Y63850000D03*
D18*
X8050000Y64920000D03*
D16*
X39100000Y63000000D03*
X26200000Y71500000D03*
X43700000Y63900000D03*
X39100000Y63850000D03*
X42850000Y63900000D03*
%TO.N,V-5P0*%
X49700000Y63300000D03*
X65062500Y80900000D03*
X83450000Y50700000D03*
X68750000Y53800000D03*
X65062500Y81700000D03*
X84200000Y49900000D03*
X68000000Y54600000D03*
X65812500Y81700000D03*
X84200000Y50700000D03*
X83450000Y49900000D03*
X65812500Y80900000D03*
X68000000Y53800000D03*
X49700000Y60400000D03*
X49700000Y61366668D03*
X68750000Y54600000D03*
X49700000Y62333334D03*
%TO.N,/Power/UVLO_RSTB*%
X32437500Y84012500D03*
X32487500Y70500000D03*
X17550000Y70300000D03*
X26200000Y79850000D03*
X12900000Y70000000D03*
%TO.N,I2C_SCL*%
X21600000Y41500000D03*
X15800000Y44150000D03*
X47100000Y26050000D03*
X47100000Y40850000D03*
X66200000Y26375000D03*
%TO.N,I2C_SDA*%
X65875000Y25125000D03*
X48050000Y40050000D03*
X48050000Y25200000D03*
X20200000Y41500000D03*
X16900000Y41500000D03*
%TO.N,TSNS_EXT_ALERT*%
X18000000Y27600000D03*
X5750000Y29650000D03*
X9650000Y46355000D03*
%TO.N,/GPS and Barometer/TSNS_EXT_A0*%
X9250000Y43800000D03*
%TO.N,/GPS and Barometer/TSNS_EXT_A1*%
X9000000Y41300000D03*
%TO.N,/GPS and Barometer/TSNS_EXT_A2*%
X9050000Y40000000D03*
%TO.N,/Microcontroller/SWDIO*%
X30400000Y35700000D03*
%TO.N,/Microcontroller/SWDCLK*%
X3800000Y37350000D03*
X24600000Y39250000D03*
%TO.N,/Microcontroller/DBG_TX*%
X23000000Y24400000D03*
%TO.N,/Microcontroller/DBG_RX*%
X23850000Y23450000D03*
%TO.N,SPI_MOSI*%
X59400000Y33750000D03*
X20600000Y30400000D03*
%TO.N,SPI_SCLK*%
X52000000Y26900000D03*
X19150000Y27450000D03*
X14850000Y16850000D03*
X17900000Y13800000D03*
X52000000Y26900000D03*
%TO.N,SD_DET*%
X19200000Y42250000D03*
X7850000Y42250000D03*
%TO.N,UART_MCU_GPS*%
X48950000Y35750000D03*
X30400000Y33950000D03*
%TO.N,UART_GPS_MCU*%
X30400000Y34850000D03*
X49900000Y36900000D03*
%TO.N,TSNS_INT_ALERT*%
X15850000Y25300000D03*
X37050000Y24650000D03*
%TO.N,/LO Generator/PLL_CLK*%
X55800000Y33700000D03*
X58200000Y33700000D03*
%TO.N,PLL_CE*%
X56000000Y29300000D03*
X21600000Y30400000D03*
%TO.N,PLL_LE*%
X55650000Y35600000D03*
X19400000Y33000000D03*
X60575000Y34450000D03*
%TO.N,5P0_EN*%
X14800000Y58100000D03*
X48150000Y67950000D03*
X39050000Y58100000D03*
X40850000Y67950000D03*
%TO.N,PA_EN*%
X51750000Y57950000D03*
X15700000Y59000000D03*
%TO.N,PLL_MUXOUT*%
X48800000Y42200000D03*
X22600000Y42200000D03*
%TO.N,GPS_PPS*%
X51450000Y21950000D03*
X14250000Y22500000D03*
%TO.N,GPS_EXTINT*%
X15050000Y21650000D03*
X50550000Y21100000D03*
%TO.N,GPS_RESETB*%
X49500000Y22600000D03*
X21100000Y22600000D03*
%TO.N,/GPS and Barometer/GPS_ANT_CONN*%
X70250000Y5700000D03*
%TO.N,/Microcontroller/HRTIM_CHC1*%
X35400000Y33950000D03*
X28650000Y30200000D03*
%TD*%
D19*
%TO.N,+3V0*%
X28600000Y79050000D02*
X28600000Y81950000D01*
D20*
%TO.N,+5V*%
X33800000Y66350000D02*
X13600000Y66350000D01*
X13600000Y66350000D02*
X12170000Y64920000D01*
X35150000Y65000000D02*
X33800000Y66350000D01*
X12170000Y64920000D02*
X8050000Y64920000D01*
D19*
X26200000Y71500000D02*
X28750000Y71500000D01*
D21*
%TO.N,V-5P0*%
X76600000Y52650000D02*
X72250000Y52650000D01*
X72250000Y52650000D02*
X71100000Y53800000D01*
D20*
X68000000Y54600000D02*
X65700000Y56900000D01*
X50950000Y59150000D02*
X49700000Y60400000D01*
X56950000Y56900000D02*
X54700000Y59150000D01*
D21*
X78550000Y50700000D02*
X76600000Y52650000D01*
X71100000Y53800000D02*
X68750000Y53800000D01*
D20*
X59250000Y81300000D02*
X65412500Y81300000D01*
D21*
X83450000Y50700000D02*
X78550000Y50700000D01*
D20*
X54700000Y59150000D02*
X50950000Y59150000D01*
X49700000Y71750000D02*
X59250000Y81300000D01*
X65700000Y56900000D02*
X56950000Y56900000D01*
X49700000Y63300000D02*
X49700000Y71750000D01*
X65412500Y81300000D02*
X65812500Y81700000D01*
X49700000Y60400000D02*
X49700000Y63300000D01*
D19*
%TO.N,/Power/UVLO_RSTB*%
X26800000Y80450000D02*
X26200000Y79850000D01*
X17550000Y70300000D02*
X15500000Y70300000D01*
X15500000Y70300000D02*
X15200000Y70000000D01*
X15200000Y70000000D02*
X12900000Y70000000D01*
X28400000Y83100000D02*
X26800000Y81500000D01*
X32487500Y70500000D02*
X30637500Y68650000D01*
X30637500Y68650000D02*
X23750000Y68650000D01*
X32437500Y84012500D02*
X31525000Y83100000D01*
X31525000Y83100000D02*
X28400000Y83100000D01*
X26800000Y81500000D02*
X26800000Y80450000D01*
%TO.N,I2C_SCL*%
X61525000Y26375000D02*
X66200000Y26375000D01*
X47100000Y26050000D02*
X58625000Y26050000D01*
X19850000Y44150000D02*
X20300000Y43700000D01*
X15800000Y44150000D02*
X19850000Y44150000D01*
X31450000Y40850000D02*
X30800000Y41500000D01*
X59725000Y27150000D02*
X60750000Y27150000D01*
X20300000Y42800000D02*
X21600000Y41500000D01*
X20300000Y43700000D02*
X20300000Y42800000D01*
X58625000Y26050000D02*
X59725000Y27150000D01*
X30800000Y41500000D02*
X21600000Y41500000D01*
X47100000Y40850000D02*
X31450000Y40850000D01*
X60750000Y27150000D02*
X61525000Y26375000D01*
%TO.N,I2C_SDA*%
X48050000Y25200000D02*
X60200000Y25200000D01*
X60600000Y25600000D02*
X61650000Y25600000D01*
X61650000Y25600000D02*
X62125000Y25125000D01*
X20950000Y40750000D02*
X20200000Y41500000D01*
X62125000Y25125000D02*
X65875000Y25125000D01*
X2005000Y48900000D02*
X2000000Y48895000D01*
X60200000Y25200000D02*
X60600000Y25600000D01*
X48050000Y40050000D02*
X31200000Y40050000D01*
X30500000Y40750000D02*
X20950000Y40750000D01*
X31200000Y40050000D02*
X30500000Y40750000D01*
X20200000Y41500000D02*
X16900000Y41500000D01*
%TO.N,TSNS_EXT_ALERT*%
X7800000Y27600000D02*
X5750000Y29650000D01*
X9650000Y46355000D02*
X2000000Y46355000D01*
X18000000Y27600000D02*
X7800000Y27600000D01*
%TO.N,/GPS and Barometer/TSNS_EXT_A0*%
X9250000Y43800000D02*
X2015000Y43800000D01*
X2015000Y43800000D02*
X2000000Y43815000D01*
%TO.N,/GPS and Barometer/TSNS_EXT_A1*%
X8975000Y41275000D02*
X9000000Y41300000D01*
X2000000Y41275000D02*
X8975000Y41275000D01*
%TO.N,/GPS and Barometer/TSNS_EXT_A2*%
X5935000Y38735000D02*
X2000000Y38735000D01*
X7200000Y40000000D02*
X5935000Y38735000D01*
X9050000Y40000000D02*
X7200000Y40000000D01*
%TO.N,/Microcontroller/SWDIO*%
X28500000Y34800000D02*
X18750000Y34800000D01*
X12770000Y30830000D02*
X2000000Y30830000D01*
X29400000Y35700000D02*
X28500000Y34800000D01*
X18750000Y34800000D02*
X14500000Y30550000D01*
X13050000Y30550000D02*
X12770000Y30830000D01*
X14500000Y30550000D02*
X13050000Y30550000D01*
X30400000Y35700000D02*
X29400000Y35700000D01*
%TO.N,/Microcontroller/SWDCLK*%
X7450000Y38550000D02*
X6250000Y37350000D01*
X24600000Y39250000D02*
X23900000Y38550000D01*
X23900000Y38550000D02*
X7450000Y38550000D01*
X6250000Y37350000D02*
X3800000Y37350000D01*
%TO.N,/Microcontroller/DBG_TX*%
X4830000Y17830000D02*
X2000000Y17830000D01*
X11400000Y24400000D02*
X4830000Y17830000D01*
X23000000Y24400000D02*
X11400000Y24400000D01*
%TO.N,/Microcontroller/DBG_RX*%
X12300000Y23450000D02*
X23850000Y23450000D01*
X4140000Y15290000D02*
X12300000Y23450000D01*
X2000000Y15290000D02*
X4140000Y15290000D01*
%TO.N,SPI_MOSI*%
X26250000Y29700000D02*
X27500000Y28450000D01*
X57250000Y28450000D02*
X59400000Y30600000D01*
X21300000Y29700000D02*
X26250000Y29700000D01*
X20600000Y30400000D02*
X21300000Y29700000D01*
X27500000Y28450000D02*
X57250000Y28450000D01*
X59400000Y30600000D02*
X59400000Y33750000D01*
%TO.N,SPI_SCLK*%
X28400000Y27450000D02*
X28975000Y26875000D01*
X19150000Y27450000D02*
X28400000Y27450000D01*
X17900000Y13800000D02*
X14850000Y16850000D01*
X28975000Y26875000D02*
X51975000Y26875000D01*
X51975000Y26875000D02*
X52000000Y26900000D01*
%TO.N,SD_DET*%
X19200000Y42250000D02*
X7850000Y42250000D01*
D22*
%TO.N,UART_MCU_GPS*%
X32150000Y33950000D02*
X30400000Y33950000D01*
X33950000Y35750000D02*
X32150000Y33950000D01*
X48950000Y35750000D02*
X33950000Y35750000D01*
%TO.N,UART_GPS_MCU*%
X33450000Y36900000D02*
X31400000Y34850000D01*
X49900000Y36900000D02*
X33450000Y36900000D01*
X31400000Y34850000D02*
X30400000Y34850000D01*
D19*
%TO.N,TSNS_INT_ALERT*%
X37050000Y24650000D02*
X24550000Y24650000D01*
X23900000Y25300000D02*
X15850000Y25300000D01*
X24550000Y24650000D02*
X23900000Y25300000D01*
%TO.N,/LO Generator/PLL_CLK*%
X58200000Y33700000D02*
X55800000Y33700000D01*
%TO.N,PLL_CE*%
X28050000Y29300000D02*
X26950000Y30400000D01*
X26950000Y30400000D02*
X21600000Y30400000D01*
X56000000Y29300000D02*
X28050000Y29300000D01*
%TO.N,PLL_LE*%
X60025000Y35000000D02*
X60575000Y34450000D01*
X55650000Y35600000D02*
X56200000Y35050000D01*
X19400000Y33000000D02*
X32850000Y33000000D01*
X32850000Y33000000D02*
X34700000Y34850000D01*
X34700000Y34850000D02*
X50000000Y34850000D01*
X56200000Y35050000D02*
X56250000Y35000000D01*
X50000000Y34850000D02*
X50750000Y35600000D01*
X56250000Y35000000D02*
X60025000Y35000000D01*
X50750000Y35600000D02*
X55650000Y35600000D01*
D22*
%TO.N,5P0_EN*%
X48150000Y67950000D02*
X40850000Y67950000D01*
D19*
X39050000Y58100000D02*
X14800000Y58100000D01*
%TO.N,PA_EN*%
X39450000Y59000000D02*
X40500000Y57950000D01*
X15700000Y59000000D02*
X39450000Y59000000D01*
X40500000Y57950000D02*
X51750000Y57950000D01*
%TO.N,PLL_MUXOUT*%
X22600000Y42200000D02*
X48800000Y42200000D01*
%TO.N,GPS_PPS*%
X19800000Y22500000D02*
X20350000Y21950000D01*
X14250000Y22500000D02*
X19800000Y22500000D01*
X20350000Y21950000D02*
X51450000Y21950000D01*
%TO.N,GPS_EXTINT*%
X15050000Y21650000D02*
X19450000Y21650000D01*
X19450000Y21650000D02*
X20000000Y21100000D01*
X20000000Y21100000D02*
X50550000Y21100000D01*
%TO.N,GPS_RESETB*%
X21100000Y22600000D02*
X49500000Y22600000D01*
D23*
%TO.N,/GPS and Barometer/GPS_ANT_CONN*%
X75200000Y5700000D02*
X87050000Y17550000D01*
X87050000Y17550000D02*
X87050000Y20000000D01*
X70250000Y5700000D02*
X75200000Y5700000D01*
D19*
%TO.N,/Microcontroller/HRTIM_CHC1*%
X35400000Y33950000D02*
X31650000Y30200000D01*
X31650000Y30200000D02*
X28650000Y30200000D01*
%TD*%
%TA.AperFunction,Conductor*%
%TO.N,GND*%
G36*
X29724300Y35210297D02*
G01*
X29768724Y35170940D01*
X29789770Y35115447D01*
X29782616Y35056529D01*
X29763763Y35006819D01*
X29744721Y34850001D01*
X29763763Y34693182D01*
X29819780Y34545477D01*
X29871574Y34470440D01*
X29891018Y34424803D01*
X29891018Y34375197D01*
X29871574Y34329560D01*
X29819780Y34254524D01*
X29763763Y34106819D01*
X29744721Y33950001D01*
X29763763Y33793182D01*
X29820541Y33643471D01*
X29827695Y33584553D01*
X29806649Y33529060D01*
X29762225Y33489703D01*
X29704599Y33475500D01*
X19891264Y33475500D01*
X19847294Y33483558D01*
X19809039Y33506683D01*
X19772241Y33539282D01*
X19772240Y33539283D01*
X19702302Y33575990D01*
X19632364Y33612697D01*
X19478985Y33650500D01*
X19321015Y33650500D01*
X19167635Y33612697D01*
X19027761Y33539284D01*
X18909515Y33434529D01*
X18819780Y33304524D01*
X18763763Y33156819D01*
X18744721Y33000000D01*
X18763763Y32843182D01*
X18819780Y32695477D01*
X18909515Y32565472D01*
X18909516Y32565471D01*
X18909517Y32565470D01*
X19027760Y32460717D01*
X19167635Y32387304D01*
X19321015Y32349500D01*
X19478985Y32349500D01*
X19632365Y32387304D01*
X19772240Y32460717D01*
X19801611Y32486737D01*
X19809039Y32493317D01*
X19847294Y32516442D01*
X19891264Y32524500D01*
X32785541Y32524500D01*
X32811899Y32521667D01*
X32815729Y32520833D01*
X32862575Y32524185D01*
X32871422Y32524500D01*
X32884011Y32524500D01*
X32896485Y32526294D01*
X32905269Y32527239D01*
X32952115Y32530589D01*
X32954488Y32531475D01*
X32955778Y32531955D01*
X32981465Y32538512D01*
X32985342Y32539069D01*
X32985344Y32539071D01*
X33002994Y32541607D01*
X33003640Y32537108D01*
X33037253Y32542195D01*
X33099867Y32515222D01*
X33138759Y32459227D01*
X33142171Y32391136D01*
X33109073Y32331533D01*
X31489360Y30711819D01*
X31449132Y30684939D01*
X31401679Y30675500D01*
X29141264Y30675500D01*
X29097294Y30683558D01*
X29059039Y30706683D01*
X29022241Y30739282D01*
X29022240Y30739283D01*
X28912349Y30796959D01*
X28882364Y30812697D01*
X28728985Y30850500D01*
X28571015Y30850500D01*
X28417635Y30812697D01*
X28277761Y30739284D01*
X28159515Y30634529D01*
X28069780Y30504524D01*
X28013763Y30356819D01*
X28006767Y30299203D01*
X27980115Y30236211D01*
X27924120Y30196933D01*
X27855817Y30193319D01*
X27795990Y30226469D01*
X27331808Y30690651D01*
X27315174Y30711292D01*
X27313055Y30714589D01*
X27277565Y30745341D01*
X27271086Y30751373D01*
X27262180Y30760279D01*
X27252093Y30767830D01*
X27245214Y30773373D01*
X27209718Y30804130D01*
X27209716Y30804131D01*
X27206150Y30805760D01*
X27183369Y30819278D01*
X27180231Y30821627D01*
X27145636Y30834530D01*
X27136219Y30838043D01*
X27128045Y30841429D01*
X27119181Y30845477D01*
X27108183Y30850500D01*
X27085343Y30860931D01*
X27084654Y30861030D01*
X27081458Y30861490D01*
X27055781Y30868044D01*
X27052115Y30869412D01*
X27005275Y30872763D01*
X26996491Y30873707D01*
X26984012Y30875500D01*
X26984011Y30875500D01*
X26971422Y30875500D01*
X26962575Y30875816D01*
X26915729Y30879167D01*
X26915728Y30879167D01*
X26911900Y30878334D01*
X26885541Y30875500D01*
X22091264Y30875500D01*
X22047294Y30883558D01*
X22009039Y30906683D01*
X21972241Y30939282D01*
X21972240Y30939283D01*
X21902302Y30975990D01*
X21832364Y31012697D01*
X21678985Y31050500D01*
X21521015Y31050500D01*
X21367635Y31012697D01*
X21227758Y30939282D01*
X21182224Y30898943D01*
X21129673Y30871363D01*
X21070323Y30871363D01*
X21017773Y30898945D01*
X20972240Y30939283D01*
X20902302Y30975990D01*
X20832364Y31012697D01*
X20678985Y31050500D01*
X20521015Y31050500D01*
X20367635Y31012697D01*
X20227761Y30939284D01*
X20109515Y30834529D01*
X20019780Y30704524D01*
X19963763Y30556819D01*
X19944721Y30400000D01*
X19963763Y30243182D01*
X20019780Y30095477D01*
X20109515Y29965472D01*
X20109516Y29965471D01*
X20109517Y29965470D01*
X20227760Y29860717D01*
X20367635Y29787304D01*
X20521015Y29749500D01*
X20526679Y29749500D01*
X20574132Y29740061D01*
X20614360Y29713181D01*
X20918190Y29409352D01*
X20934822Y29388714D01*
X20936945Y29385411D01*
X20955600Y29369247D01*
X20972447Y29354649D01*
X20978928Y29348614D01*
X20987818Y29339723D01*
X20997905Y29332172D01*
X21004776Y29326635D01*
X21040282Y29295870D01*
X21043838Y29294246D01*
X21066641Y29280716D01*
X21069771Y29278373D01*
X21069772Y29278373D01*
X21069773Y29278372D01*
X21101439Y29266562D01*
X21113765Y29261964D01*
X21121932Y29258582D01*
X21164658Y29239069D01*
X21168534Y29238512D01*
X21194216Y29231958D01*
X21197885Y29230589D01*
X21244719Y29227240D01*
X21253511Y29226295D01*
X21265989Y29224500D01*
X21278587Y29224500D01*
X21287433Y29224185D01*
X21334270Y29220834D01*
X21334270Y29220835D01*
X21334271Y29220834D01*
X21338096Y29221666D01*
X21364454Y29224500D01*
X26001679Y29224500D01*
X26049132Y29215061D01*
X26089360Y29188181D01*
X27118193Y28159348D01*
X27134827Y28138707D01*
X27146584Y28120413D01*
X27144815Y28119277D01*
X27162289Y28094491D01*
X27169931Y28035368D01*
X27149099Y27979510D01*
X27104607Y27939831D01*
X27046739Y27925500D01*
X19641264Y27925500D01*
X19597294Y27933558D01*
X19559039Y27956683D01*
X19523108Y27988514D01*
X19522240Y27989283D01*
X19436030Y28034530D01*
X19382364Y28062697D01*
X19228985Y28100500D01*
X19071015Y28100500D01*
X18917635Y28062697D01*
X18777758Y27989282D01*
X18723640Y27941338D01*
X18661304Y27911760D01*
X18592810Y27920077D01*
X18539364Y27963714D01*
X18490484Y28034529D01*
X18479516Y28044246D01*
X18372240Y28139283D01*
X18334004Y28159351D01*
X18232364Y28212697D01*
X18078985Y28250500D01*
X17921015Y28250500D01*
X17767635Y28212697D01*
X17627758Y28139282D01*
X17590961Y28106683D01*
X17552706Y28083558D01*
X17508736Y28075500D01*
X8048321Y28075500D01*
X8000868Y28084939D01*
X7960640Y28111819D01*
X6922458Y29150001D01*
X9144721Y29150001D01*
X9163763Y28993182D01*
X9219780Y28845477D01*
X9309515Y28715472D01*
X9309516Y28715471D01*
X9309517Y28715470D01*
X9427760Y28610717D01*
X9567635Y28537304D01*
X9721015Y28499500D01*
X9878985Y28499500D01*
X10032365Y28537304D01*
X10172240Y28610717D01*
X10290483Y28715470D01*
X10380220Y28845477D01*
X10436237Y28993182D01*
X10455278Y29150000D01*
X10436237Y29306818D01*
X10380220Y29454523D01*
X10290483Y29584530D01*
X10172240Y29689283D01*
X10126707Y29713181D01*
X10032364Y29762697D01*
X9878985Y29800500D01*
X9721015Y29800500D01*
X9567635Y29762697D01*
X9427761Y29689284D01*
X9309515Y29584529D01*
X9219780Y29454524D01*
X9163763Y29306819D01*
X9144721Y29150001D01*
X6922458Y29150001D01*
X6433160Y29639299D01*
X6409354Y29672697D01*
X6397745Y29712034D01*
X6395014Y29734529D01*
X6386237Y29806818D01*
X6330220Y29954523D01*
X6269023Y30043182D01*
X6240484Y30084529D01*
X6213347Y30108570D01*
X6180481Y30137686D01*
X6146768Y30186528D01*
X6139614Y30245446D01*
X6160660Y30300940D01*
X6205084Y30340296D01*
X6262710Y30354500D01*
X12521679Y30354500D01*
X12569132Y30345061D01*
X12609360Y30318181D01*
X12668193Y30259348D01*
X12684825Y30238709D01*
X12686945Y30235411D01*
X12722451Y30204646D01*
X12728914Y30198627D01*
X12737815Y30189725D01*
X12737818Y30189723D01*
X12737820Y30189721D01*
X12747905Y30182172D01*
X12754787Y30176626D01*
X12790282Y30145870D01*
X12793842Y30144244D01*
X12816633Y30130723D01*
X12819774Y30128371D01*
X12863772Y30111961D01*
X12871944Y30108576D01*
X12914658Y30089069D01*
X12918522Y30088514D01*
X12944220Y30081955D01*
X12947885Y30080588D01*
X12994730Y30077238D01*
X13003511Y30076295D01*
X13015989Y30074500D01*
X13028574Y30074500D01*
X13037420Y30074184D01*
X13084271Y30070833D01*
X13088101Y30071667D01*
X13114459Y30074500D01*
X14435541Y30074500D01*
X14461899Y30071667D01*
X14465729Y30070833D01*
X14512575Y30074185D01*
X14521422Y30074500D01*
X14534011Y30074500D01*
X14546485Y30076294D01*
X14555269Y30077239D01*
X14602115Y30080589D01*
X14604488Y30081475D01*
X14605778Y30081955D01*
X14631465Y30088512D01*
X14635342Y30089069D01*
X14678072Y30108585D01*
X14686207Y30111955D01*
X14730226Y30128371D01*
X14733361Y30130719D01*
X14756153Y30144243D01*
X14759718Y30145870D01*
X14795203Y30176620D01*
X14802084Y30182165D01*
X14812180Y30189721D01*
X14817771Y30195312D01*
X14821083Y30198624D01*
X14827566Y30204660D01*
X14863052Y30235408D01*
X14863052Y30235409D01*
X14863055Y30235411D01*
X14865173Y30238708D01*
X14881806Y30259348D01*
X18910639Y34288181D01*
X18950868Y34315061D01*
X18998321Y34324500D01*
X28435541Y34324500D01*
X28461899Y34321667D01*
X28465729Y34320833D01*
X28512575Y34324185D01*
X28521422Y34324500D01*
X28534011Y34324500D01*
X28546485Y34326294D01*
X28555269Y34327239D01*
X28602115Y34330589D01*
X28604488Y34331475D01*
X28605778Y34331955D01*
X28631465Y34338512D01*
X28635342Y34339069D01*
X28678072Y34358585D01*
X28686207Y34361955D01*
X28730226Y34378371D01*
X28733361Y34380719D01*
X28756153Y34394243D01*
X28759718Y34395870D01*
X28795203Y34426620D01*
X28802084Y34432165D01*
X28812180Y34439721D01*
X28816705Y34444246D01*
X28821083Y34448624D01*
X28827566Y34454660D01*
X28863052Y34485408D01*
X28863052Y34485409D01*
X28863055Y34485411D01*
X28865173Y34488708D01*
X28881803Y34509346D01*
X29560639Y35188181D01*
X29600868Y35215061D01*
X29648321Y35224500D01*
X29666674Y35224500D01*
X29724300Y35210297D01*
G37*
%TD.AperFunction*%
%TA.AperFunction,Conductor*%
G36*
X55202706Y35116442D02*
G01*
X55240961Y35093317D01*
X55246759Y35088181D01*
X55277760Y35060717D01*
X55417635Y34987304D01*
X55571015Y34949500D01*
X55576680Y34949500D01*
X55624133Y34940061D01*
X55664361Y34913181D01*
X55833483Y34744059D01*
X55833488Y34744053D01*
X55839720Y34737821D01*
X55839721Y34737820D01*
X55868197Y34709344D01*
X55884824Y34688711D01*
X55886945Y34685411D01*
X55922451Y34654646D01*
X55928914Y34648627D01*
X55937815Y34639725D01*
X55937818Y34639723D01*
X55937820Y34639721D01*
X55947916Y34632163D01*
X55954787Y34626626D01*
X55990282Y34595870D01*
X55993588Y34594361D01*
X55993840Y34594245D01*
X56016635Y34580720D01*
X56019773Y34578371D01*
X56063760Y34561966D01*
X56071940Y34558579D01*
X56081877Y34554041D01*
X56083524Y34553288D01*
X56107520Y34534093D01*
X56130090Y34531698D01*
X56130102Y34531860D01*
X56147885Y34530589D01*
X56147886Y34530588D01*
X56194732Y34527238D01*
X56203525Y34526292D01*
X56215986Y34524500D01*
X56215989Y34524500D01*
X56228574Y34524500D01*
X56237420Y34524185D01*
X56284271Y34520833D01*
X56288100Y34521667D01*
X56314459Y34524500D01*
X57868107Y34524500D01*
X57930970Y34507384D01*
X57976479Y34460762D01*
X57992071Y34397504D01*
X57973441Y34335073D01*
X57925734Y34290705D01*
X57877611Y34265447D01*
X57827758Y34239282D01*
X57790961Y34206683D01*
X57752706Y34183558D01*
X57708736Y34175500D01*
X56291264Y34175500D01*
X56247294Y34183558D01*
X56209039Y34206683D01*
X56172241Y34239282D01*
X56172240Y34239283D01*
X56079074Y34288181D01*
X56049847Y34303521D01*
X56031347Y34320231D01*
X56002334Y34320098D01*
X55878985Y34350500D01*
X55721015Y34350500D01*
X55567635Y34312697D01*
X55427761Y34239284D01*
X55309515Y34134529D01*
X55219780Y34004524D01*
X55163763Y33856819D01*
X55144721Y33700001D01*
X55163763Y33543182D01*
X55219780Y33395477D01*
X55309515Y33265472D01*
X55309516Y33265471D01*
X55309517Y33265470D01*
X55427760Y33160717D01*
X55567635Y33087304D01*
X55721015Y33049500D01*
X55878985Y33049500D01*
X56032365Y33087304D01*
X56172240Y33160717D01*
X56195187Y33181047D01*
X56209039Y33193317D01*
X56247294Y33216442D01*
X56291264Y33224500D01*
X57708736Y33224500D01*
X57752706Y33216442D01*
X57790961Y33193317D01*
X57818435Y33168978D01*
X57827760Y33160717D01*
X57967635Y33087304D01*
X58121015Y33049500D01*
X58278985Y33049500D01*
X58432365Y33087304D01*
X58572240Y33160717D01*
X58690483Y33265470D01*
X58698451Y33277015D01*
X58745545Y33317729D01*
X58806491Y33330427D01*
X58865928Y33311906D01*
X58908872Y33266834D01*
X58924500Y33206572D01*
X58924500Y30848321D01*
X58915061Y30800868D01*
X58888181Y30760640D01*
X57089360Y28961819D01*
X57049132Y28934939D01*
X57001679Y28925500D01*
X56733326Y28925500D01*
X56675700Y28939703D01*
X56631276Y28979060D01*
X56610230Y29034553D01*
X56617384Y29093471D01*
X56620709Y29102238D01*
X56636237Y29143182D01*
X56655278Y29300000D01*
X56636237Y29456818D01*
X56580220Y29604523D01*
X56490483Y29734530D01*
X56372240Y29839283D01*
X56348469Y29851759D01*
X56232364Y29912697D01*
X56078985Y29950500D01*
X55921015Y29950500D01*
X55767635Y29912697D01*
X55627758Y29839282D01*
X55590961Y29806683D01*
X55552706Y29783558D01*
X55508736Y29775500D01*
X32197320Y29775500D01*
X32141025Y29789015D01*
X32097002Y29826615D01*
X32074847Y29880102D01*
X32079389Y29937818D01*
X32109639Y29987181D01*
X35385640Y33263181D01*
X35425868Y33290061D01*
X35473321Y33299500D01*
X35478985Y33299500D01*
X35632365Y33337304D01*
X35772240Y33410717D01*
X35890483Y33515470D01*
X35980220Y33645477D01*
X36036237Y33793182D01*
X36055278Y33950000D01*
X36036237Y34106818D01*
X36010189Y34175500D01*
X35998422Y34206529D01*
X35991268Y34265447D01*
X36012314Y34320940D01*
X36056738Y34360297D01*
X36114364Y34374500D01*
X49935541Y34374500D01*
X49961899Y34371667D01*
X49965729Y34370833D01*
X50012575Y34374185D01*
X50021422Y34374500D01*
X50034011Y34374500D01*
X50046485Y34376294D01*
X50055269Y34377239D01*
X50102115Y34380589D01*
X50104488Y34381475D01*
X50105778Y34381955D01*
X50131465Y34388512D01*
X50135342Y34389069D01*
X50178072Y34408585D01*
X50186207Y34411955D01*
X50230226Y34428371D01*
X50233361Y34430719D01*
X50256153Y34444243D01*
X50259718Y34445870D01*
X50295203Y34476620D01*
X50302084Y34482165D01*
X50312180Y34489721D01*
X50312184Y34489725D01*
X50321083Y34498624D01*
X50327566Y34504660D01*
X50363052Y34535408D01*
X50363052Y34535409D01*
X50363055Y34535411D01*
X50365173Y34538708D01*
X50381803Y34559346D01*
X50910639Y35088181D01*
X50950868Y35115061D01*
X50998321Y35124500D01*
X55158736Y35124500D01*
X55202706Y35116442D01*
G37*
%TD.AperFunction*%
%TA.AperFunction,Conductor*%
G36*
X94610320Y89484398D02*
G01*
X94655382Y89441517D01*
X94673951Y89382148D01*
X94661354Y89321233D01*
X94620760Y89274100D01*
X94438952Y89148037D01*
X94160157Y88905236D01*
X93909758Y88633230D01*
X93690806Y88335337D01*
X93505956Y88015165D01*
X93357447Y87676597D01*
X93247085Y87323752D01*
X93176209Y86960909D01*
X93160518Y86771539D01*
X93145679Y86592461D01*
X93155866Y86222897D01*
X93206646Y85856697D01*
X93297403Y85498305D01*
X93297405Y85498300D01*
X93427032Y85152080D01*
X93427036Y85152073D01*
X93593969Y84822203D01*
X93796179Y84512698D01*
X94031209Y84227317D01*
X94296206Y83969524D01*
X94587955Y83742446D01*
X94893671Y83554523D01*
X94902918Y83548839D01*
X95187401Y83414589D01*
X95237258Y83391061D01*
X95321910Y83362000D01*
X95586927Y83271019D01*
X95947691Y83190170D01*
X96315145Y83149500D01*
X96315148Y83149500D01*
X96592344Y83149500D01*
X96592349Y83149500D01*
X96869143Y83164771D01*
X97233805Y83225623D01*
X97589560Y83326220D01*
X97932089Y83465344D01*
X98257234Y83641303D01*
X98561049Y83851964D01*
X98839846Y84094768D01*
X99090240Y84366769D01*
X99253788Y84589283D01*
X99276085Y84619619D01*
X99323699Y84658612D01*
X99384195Y84669911D01*
X99442673Y84650732D01*
X99484728Y84605800D01*
X99500000Y84546182D01*
X99500000Y75424000D01*
X99483387Y75362000D01*
X99438000Y75316613D01*
X99376000Y75300000D01*
X97557500Y75300000D01*
X97557500Y73350001D01*
X99376000Y73350001D01*
X99438000Y73333388D01*
X99483387Y73288001D01*
X99500000Y73226001D01*
X99500000Y69774000D01*
X99483387Y69712000D01*
X99438000Y69666613D01*
X99376000Y69650000D01*
X97557500Y69650000D01*
X97557500Y67700001D01*
X99376000Y67700001D01*
X99438000Y67683388D01*
X99483387Y67638001D01*
X99500000Y67576001D01*
X99500000Y5450476D01*
X99484064Y5389664D01*
X99440352Y5344482D01*
X99380100Y5326544D01*
X99318794Y5340460D01*
X99272192Y5382654D01*
X99203825Y5487297D01*
X99157800Y5543182D01*
X98968791Y5772683D01*
X98703794Y6030476D01*
X98412045Y6257554D01*
X98200966Y6387304D01*
X98097081Y6451162D01*
X97762743Y6608939D01*
X97413072Y6728982D01*
X97052308Y6809831D01*
X96684855Y6850500D01*
X96684852Y6850500D01*
X96407651Y6850500D01*
X96176989Y6837775D01*
X96130856Y6835229D01*
X95766190Y6774377D01*
X95410441Y6673781D01*
X95067910Y6534657D01*
X94742762Y6358696D01*
X94438952Y6148037D01*
X94160157Y5905236D01*
X93909758Y5633230D01*
X93690806Y5335337D01*
X93505956Y5015165D01*
X93357447Y4676597D01*
X93247085Y4323752D01*
X93176209Y3960909D01*
X93164715Y3822196D01*
X93145679Y3592461D01*
X93155866Y3222897D01*
X93206646Y2856697D01*
X93297403Y2498305D01*
X93297405Y2498300D01*
X93427032Y2152080D01*
X93556888Y1895477D01*
X93593969Y1822203D01*
X93796179Y1512698D01*
X94031209Y1227317D01*
X94296206Y969524D01*
X94587955Y742446D01*
X94608793Y729637D01*
X94652584Y683617D01*
X94667839Y621950D01*
X94650553Y560820D01*
X94605263Y516273D01*
X94543856Y500000D01*
X48562708Y500000D01*
X48499390Y517385D01*
X48453826Y564665D01*
X48438793Y628582D01*
X48458505Y691215D01*
X48507436Y735000D01*
X48515436Y738984D01*
X48528952Y745714D01*
X48676920Y857454D01*
X48801837Y994481D01*
X48899448Y1152128D01*
X48966429Y1325027D01*
X49000500Y1507290D01*
X49000500Y1600000D01*
X49000500Y1657583D01*
X49000500Y4250000D01*
X71944721Y4250000D01*
X71963763Y4093182D01*
X72019780Y3945477D01*
X72109515Y3815472D01*
X72109516Y3815471D01*
X72109517Y3815470D01*
X72227760Y3710717D01*
X72367635Y3637304D01*
X72521015Y3599500D01*
X72678985Y3599500D01*
X72832365Y3637304D01*
X72972240Y3710717D01*
X73090483Y3815470D01*
X73180220Y3945477D01*
X73236237Y4093182D01*
X73255278Y4250000D01*
X73236237Y4406818D01*
X73180220Y4554523D01*
X73090483Y4684530D01*
X72972240Y4789283D01*
X72958994Y4796235D01*
X72832364Y4862697D01*
X72678985Y4900500D01*
X72521015Y4900500D01*
X72367635Y4862697D01*
X72227761Y4789284D01*
X72109515Y4684529D01*
X72019780Y4554524D01*
X71963763Y4406819D01*
X71944721Y4250000D01*
X49000500Y4250000D01*
X49000500Y5700000D01*
X69594721Y5700000D01*
X69613763Y5543182D01*
X69669780Y5395477D01*
X69759515Y5265472D01*
X69759516Y5265471D01*
X69759517Y5265470D01*
X69877760Y5160717D01*
X70017635Y5087304D01*
X70171015Y5049500D01*
X70328985Y5049500D01*
X70482365Y5087304D01*
X70621438Y5160297D01*
X70679064Y5174500D01*
X75188890Y5174500D01*
X75193123Y5174429D01*
X75254245Y5172340D01*
X75254245Y5172341D01*
X75254246Y5172340D01*
X75276636Y5177797D01*
X75292070Y5181559D01*
X75304532Y5183927D01*
X75343111Y5189229D01*
X75358392Y5195868D01*
X75378421Y5202603D01*
X75394594Y5206543D01*
X75428531Y5225626D01*
X75439879Y5231263D01*
X75475609Y5246781D01*
X75488521Y5257287D01*
X75506008Y5269187D01*
X75512291Y5272721D01*
X75520512Y5277342D01*
X75548043Y5304875D01*
X75557458Y5313372D01*
X75587665Y5337946D01*
X75597269Y5351553D01*
X75610881Y5367713D01*
X87413769Y17170601D01*
X87416755Y17173487D01*
X87461469Y17215245D01*
X87481696Y17248508D01*
X87488828Y17258989D01*
X87512365Y17290025D01*
X87518474Y17305520D01*
X87527877Y17324451D01*
X87536526Y17338672D01*
X87547029Y17376162D01*
X87551065Y17388168D01*
X87565359Y17424411D01*
X87567061Y17440972D01*
X87571010Y17461750D01*
X87571129Y17462172D01*
X87575500Y17477772D01*
X87575500Y17516696D01*
X87576150Y17529377D01*
X87580132Y17568111D01*
X87577303Y17584518D01*
X87575500Y17605587D01*
X87575500Y18776000D01*
X87592113Y18838000D01*
X87637500Y18883387D01*
X87699500Y18900000D01*
X87950000Y18900000D01*
X89050000Y20000000D01*
X89050000Y21800000D01*
X87950000Y22900000D01*
X86150000Y22900000D01*
X86149999Y22900000D01*
X85050000Y21800001D01*
X85050000Y21800000D01*
X85050000Y20000000D01*
X86150000Y18900000D01*
X86400500Y18900000D01*
X86462500Y18883387D01*
X86507887Y18838000D01*
X86524500Y18776000D01*
X86524500Y17819032D01*
X86515061Y17771579D01*
X86488181Y17731351D01*
X75018650Y6261819D01*
X74978422Y6234939D01*
X74930969Y6225500D01*
X70679064Y6225500D01*
X70621438Y6239704D01*
X70553614Y6275301D01*
X70482364Y6312697D01*
X70328985Y6350500D01*
X70171015Y6350500D01*
X70017635Y6312697D01*
X69877761Y6239284D01*
X69759515Y6134529D01*
X69669780Y6004524D01*
X69613763Y5856819D01*
X69594721Y5700000D01*
X49000500Y5700000D01*
X49000500Y7000000D01*
X55344721Y7000000D01*
X55363763Y6843182D01*
X55419780Y6695477D01*
X55509515Y6565472D01*
X55509516Y6565471D01*
X55509517Y6565470D01*
X55627760Y6460717D01*
X55767635Y6387304D01*
X55921015Y6349500D01*
X56078985Y6349500D01*
X56232365Y6387304D01*
X56372240Y6460717D01*
X56372242Y6460719D01*
X56385570Y6467714D01*
X56386233Y6466450D01*
X56420325Y6484342D01*
X56479675Y6484342D01*
X56513766Y6466450D01*
X56514430Y6467714D01*
X56527758Y6460719D01*
X56527760Y6460717D01*
X56667635Y6387304D01*
X56821015Y6349500D01*
X56978985Y6349500D01*
X57132366Y6387304D01*
X57180510Y6412573D01*
X57272240Y6460717D01*
X57285338Y6472322D01*
X57292773Y6478907D01*
X57345325Y6506489D01*
X57404675Y6506489D01*
X57457227Y6478907D01*
X57469862Y6467714D01*
X57477760Y6460717D01*
X57495973Y6451158D01*
X57617633Y6387304D01*
X57771015Y6349500D01*
X57928985Y6349500D01*
X58082365Y6387304D01*
X58222240Y6460717D01*
X58340483Y6565470D01*
X58430220Y6695477D01*
X58486237Y6843182D01*
X58505278Y7000000D01*
X58486237Y7156818D01*
X58469860Y7200001D01*
X71944721Y7200001D01*
X71963763Y7043182D01*
X72019780Y6895477D01*
X72109515Y6765472D01*
X72109516Y6765471D01*
X72109517Y6765470D01*
X72227760Y6660717D01*
X72367635Y6587304D01*
X72521015Y6549500D01*
X72678985Y6549500D01*
X72832365Y6587304D01*
X72972240Y6660717D01*
X73090483Y6765470D01*
X73180220Y6895477D01*
X73236237Y7043182D01*
X73255278Y7200000D01*
X73236237Y7356818D01*
X73180220Y7504523D01*
X73090483Y7634530D01*
X72972240Y7739283D01*
X72880745Y7787304D01*
X72832364Y7812697D01*
X72678985Y7850500D01*
X72521015Y7850500D01*
X72367635Y7812697D01*
X72227761Y7739284D01*
X72109515Y7634529D01*
X72019780Y7504524D01*
X71963763Y7356819D01*
X71944721Y7200001D01*
X58469860Y7200001D01*
X58430220Y7304523D01*
X58378425Y7379562D01*
X58358982Y7425197D01*
X58358982Y7474803D01*
X58378426Y7520440D01*
X58383038Y7527124D01*
X58430220Y7595477D01*
X58486237Y7743182D01*
X58505278Y7900000D01*
X58486237Y8056818D01*
X58430220Y8204523D01*
X58340483Y8334530D01*
X58222240Y8439283D01*
X58208994Y8446236D01*
X58082364Y8512697D01*
X57928985Y8550500D01*
X57771015Y8550500D01*
X57617633Y8512697D01*
X57477762Y8439285D01*
X57457226Y8421092D01*
X57404674Y8393512D01*
X57345326Y8393512D01*
X57292774Y8421092D01*
X57278710Y8433551D01*
X57272240Y8439283D01*
X57272238Y8439284D01*
X57272237Y8439285D01*
X57132366Y8512697D01*
X56978985Y8550500D01*
X56821015Y8550500D01*
X56667633Y8512697D01*
X56514429Y8432287D01*
X56513765Y8433551D01*
X56479672Y8415659D01*
X56420328Y8415659D01*
X56386234Y8433551D01*
X56385571Y8432287D01*
X56232366Y8512697D01*
X56078985Y8550500D01*
X55921015Y8550500D01*
X55767635Y8512697D01*
X55627761Y8439284D01*
X55509515Y8334529D01*
X55419780Y8204524D01*
X55363763Y8056819D01*
X55344721Y7900001D01*
X55363763Y7743182D01*
X55419779Y7595478D01*
X55419780Y7595477D01*
X55471574Y7520440D01*
X55491018Y7474805D01*
X55491018Y7425199D01*
X55471574Y7379562D01*
X55419780Y7304526D01*
X55363763Y7156819D01*
X55344721Y7000000D01*
X49000500Y7000000D01*
X49000500Y8431519D01*
X49000500Y8492710D01*
X48966429Y8674973D01*
X48899448Y8847872D01*
X48801837Y9005519D01*
X48801836Y9005520D01*
X48801835Y9005522D01*
X48676921Y9142546D01*
X48528951Y9254287D01*
X48362969Y9336937D01*
X48184631Y9387678D01*
X48000000Y9404786D01*
X47815368Y9387678D01*
X47637030Y9336937D01*
X47471048Y9254287D01*
X47323078Y9142546D01*
X47198164Y9005522D01*
X47100551Y8847871D01*
X47033571Y8674974D01*
X47033571Y8674973D01*
X47003237Y8512697D01*
X46999500Y8492708D01*
X46999500Y1507292D01*
X47033571Y1325027D01*
X47100551Y1152130D01*
X47198164Y994479D01*
X47323078Y857455D01*
X47471048Y745714D01*
X47492564Y735000D01*
X47541495Y691215D01*
X47561207Y628582D01*
X47546174Y564665D01*
X47500610Y517385D01*
X47437292Y500000D01*
X36562708Y500000D01*
X36499390Y517385D01*
X36453826Y564665D01*
X36438793Y628582D01*
X36458505Y691215D01*
X36507436Y735000D01*
X36515436Y738984D01*
X36528952Y745714D01*
X36676920Y857454D01*
X36801837Y994481D01*
X36899448Y1152128D01*
X36966429Y1325027D01*
X37000500Y1507290D01*
X37000500Y1600000D01*
X37000500Y1657583D01*
X37000500Y2200000D01*
X44594721Y2200000D01*
X44613763Y2043182D01*
X44669780Y1895477D01*
X44759515Y1765472D01*
X44759516Y1765471D01*
X44759517Y1765470D01*
X44877760Y1660717D01*
X45017635Y1587304D01*
X45171015Y1549500D01*
X45328985Y1549500D01*
X45482365Y1587304D01*
X45622240Y1660717D01*
X45740483Y1765470D01*
X45830220Y1895477D01*
X45886237Y2043182D01*
X45905278Y2200000D01*
X45886237Y2356818D01*
X45830220Y2504523D01*
X45740483Y2634530D01*
X45622240Y2739283D01*
X45608994Y2746236D01*
X45482364Y2812697D01*
X45328985Y2850500D01*
X45171015Y2850500D01*
X45017635Y2812697D01*
X44877761Y2739284D01*
X44759515Y2634529D01*
X44669780Y2504524D01*
X44613763Y2356819D01*
X44594721Y2200000D01*
X37000500Y2200000D01*
X37000500Y8400000D01*
X39044721Y8400000D01*
X39063763Y8243182D01*
X39119780Y8095477D01*
X39209515Y7965472D01*
X39209516Y7965471D01*
X39209517Y7965470D01*
X39327760Y7860717D01*
X39467635Y7787304D01*
X39621015Y7749500D01*
X39778985Y7749500D01*
X39932365Y7787304D01*
X40072240Y7860717D01*
X40190483Y7965470D01*
X40280220Y8095477D01*
X40336237Y8243182D01*
X40355278Y8400000D01*
X40336237Y8556818D01*
X40280220Y8704523D01*
X40190483Y8834530D01*
X40072240Y8939283D01*
X40058994Y8946236D01*
X39932364Y9012697D01*
X39778985Y9050500D01*
X39621015Y9050500D01*
X39467635Y9012697D01*
X39327761Y8939284D01*
X39209515Y8834529D01*
X39119780Y8704524D01*
X39063763Y8556819D01*
X39044721Y8400000D01*
X37000500Y8400000D01*
X37000500Y8431519D01*
X37000500Y8492710D01*
X36966429Y8674973D01*
X36899448Y8847872D01*
X36801837Y9005519D01*
X36801836Y9005520D01*
X36801835Y9005522D01*
X36676921Y9142546D01*
X36528951Y9254287D01*
X36362969Y9336937D01*
X36184631Y9387678D01*
X36000000Y9404786D01*
X35815368Y9387678D01*
X35637030Y9336937D01*
X35471048Y9254287D01*
X35323078Y9142546D01*
X35198164Y9005522D01*
X35100551Y8847871D01*
X35033571Y8674974D01*
X35033571Y8674973D01*
X35003237Y8512697D01*
X34999500Y8492708D01*
X34999500Y1507292D01*
X35033571Y1325027D01*
X35100551Y1152130D01*
X35198164Y994479D01*
X35323078Y857455D01*
X35471048Y745714D01*
X35492564Y735000D01*
X35541495Y691215D01*
X35561207Y628582D01*
X35546174Y564665D01*
X35500610Y517385D01*
X35437292Y500000D01*
X5449896Y500000D01*
X5389680Y515602D01*
X5344618Y558483D01*
X5326049Y617852D01*
X5338646Y678767D01*
X5379240Y725900D01*
X5407815Y745714D01*
X5561049Y851964D01*
X5839846Y1094768D01*
X6090240Y1366769D01*
X6309192Y1664663D01*
X6494044Y1984837D01*
X6642552Y2323402D01*
X6752915Y2676250D01*
X6823791Y3039097D01*
X6854321Y3407539D01*
X6844134Y3777103D01*
X6793354Y4143303D01*
X6790122Y4156066D01*
X14345668Y4156066D01*
X14347919Y4143303D01*
X14376135Y3983289D01*
X14410070Y3904618D01*
X14445623Y3822196D01*
X14550390Y3681470D01*
X14684783Y3568700D01*
X14684784Y3568700D01*
X14684786Y3568698D01*
X14841567Y3489960D01*
X14841568Y3489960D01*
X14841570Y3489959D01*
X15012277Y3449500D01*
X15012279Y3449500D01*
X15143704Y3449500D01*
X15143709Y3449500D01*
X15274255Y3464759D01*
X15439117Y3524763D01*
X15585696Y3621170D01*
X15706092Y3748782D01*
X15793812Y3900719D01*
X15844130Y4068790D01*
X15849213Y4156066D01*
X22345668Y4156066D01*
X22347919Y4143303D01*
X22376135Y3983289D01*
X22410070Y3904618D01*
X22445623Y3822196D01*
X22550390Y3681470D01*
X22684783Y3568700D01*
X22684784Y3568700D01*
X22684786Y3568698D01*
X22841567Y3489960D01*
X22841568Y3489960D01*
X22841570Y3489959D01*
X23012277Y3449500D01*
X23012279Y3449500D01*
X23143704Y3449500D01*
X23143709Y3449500D01*
X23274255Y3464759D01*
X23439117Y3524763D01*
X23585696Y3621170D01*
X23706092Y3748782D01*
X23793812Y3900719D01*
X23844130Y4068790D01*
X23854331Y4243935D01*
X23823865Y4416711D01*
X23754377Y4577804D01*
X23649610Y4718530D01*
X23649609Y4718531D01*
X23515216Y4831301D01*
X23358429Y4910042D01*
X23187723Y4950500D01*
X23187721Y4950500D01*
X23056291Y4950500D01*
X22974699Y4940964D01*
X22925742Y4935241D01*
X22760883Y4875238D01*
X22614303Y4778830D01*
X22493908Y4651220D01*
X22406188Y4499282D01*
X22406188Y4499281D01*
X22355870Y4331210D01*
X22355869Y4331208D01*
X22355870Y4331208D01*
X22345668Y4156066D01*
X15849213Y4156066D01*
X15854331Y4243935D01*
X15823865Y4416711D01*
X15754377Y4577804D01*
X15649610Y4718530D01*
X15649609Y4718531D01*
X15515216Y4831301D01*
X15358429Y4910042D01*
X15187723Y4950500D01*
X15187721Y4950500D01*
X15056291Y4950500D01*
X14974699Y4940964D01*
X14925742Y4935241D01*
X14760883Y4875238D01*
X14614303Y4778830D01*
X14493908Y4651220D01*
X14406188Y4499282D01*
X14406188Y4499281D01*
X14355870Y4331210D01*
X14355869Y4331208D01*
X14355870Y4331208D01*
X14345668Y4156066D01*
X6790122Y4156066D01*
X6702597Y4501695D01*
X6594921Y4789284D01*
X6572967Y4847921D01*
X6565490Y4862696D01*
X6406031Y5177797D01*
X6203821Y5487302D01*
X5968791Y5772683D01*
X5703794Y6030476D01*
X5412045Y6257554D01*
X5200966Y6387304D01*
X5097081Y6451162D01*
X4762743Y6608939D01*
X4413072Y6728982D01*
X4052308Y6809831D01*
X3684855Y6850500D01*
X3684852Y6850500D01*
X3407651Y6850500D01*
X3176989Y6837775D01*
X3130856Y6835229D01*
X2766190Y6774377D01*
X2410441Y6673781D01*
X2067910Y6534657D01*
X1742762Y6358696D01*
X1438952Y6148037D01*
X1160157Y5905236D01*
X909758Y5633230D01*
X723915Y5380381D01*
X676301Y5341388D01*
X615805Y5330089D01*
X557327Y5349268D01*
X515272Y5394200D01*
X500000Y5453818D01*
X500000Y11000000D01*
X37595214Y11000000D01*
X37612322Y10815369D01*
X37663063Y10637031D01*
X37745713Y10471049D01*
X37857454Y10323079D01*
X37994478Y10198165D01*
X37994480Y10198164D01*
X37994481Y10198163D01*
X38152128Y10100552D01*
X38325027Y10033571D01*
X38507290Y9999500D01*
X38568481Y9999500D01*
X38600000Y9999500D01*
X38657583Y9999500D01*
X45342417Y9999500D01*
X45431519Y9999500D01*
X45492708Y9999500D01*
X45492710Y9999500D01*
X45674973Y10033571D01*
X45847872Y10100552D01*
X46005519Y10198163D01*
X46142546Y10323080D01*
X46254286Y10471048D01*
X46336935Y10637029D01*
X46387678Y10815371D01*
X46404786Y11000000D01*
X46387678Y11184629D01*
X46379056Y11214929D01*
X46336936Y11362970D01*
X46254286Y11528952D01*
X46142545Y11676922D01*
X46005521Y11801836D01*
X45847870Y11899449D01*
X45674973Y11966429D01*
X45645529Y11971933D01*
X45492710Y12000500D01*
X45431519Y12000500D01*
X38657583Y12000500D01*
X38600000Y12000500D01*
X38507290Y12000500D01*
X38385781Y11977787D01*
X38325026Y11966429D01*
X38152129Y11899449D01*
X37994478Y11801836D01*
X37857454Y11676922D01*
X37745713Y11528952D01*
X37663063Y11362970D01*
X37612322Y11184632D01*
X37595214Y11000000D01*
X500000Y11000000D01*
X500000Y12600000D01*
X858973Y12600000D01*
X864738Y12537782D01*
X923062Y12332792D01*
X1018058Y12142012D01*
X1146497Y11971933D01*
X1304003Y11828346D01*
X1485201Y11716154D01*
X1683939Y11639163D01*
X1850000Y11608121D01*
X1850000Y12600000D01*
X2150000Y12600000D01*
X2150000Y11608120D01*
X2316060Y11639163D01*
X2514798Y11716154D01*
X2695996Y11828346D01*
X2853502Y11971933D01*
X2981941Y12142012D01*
X3076937Y12332792D01*
X3135261Y12537782D01*
X3141027Y12600000D01*
X2150000Y12600000D01*
X1850000Y12600000D01*
X858973Y12600000D01*
X500000Y12600000D01*
X500000Y15290000D01*
X794357Y15290000D01*
X814885Y15068463D01*
X875769Y14854474D01*
X974941Y14655312D01*
X1109019Y14477763D01*
X1273437Y14327876D01*
X1462595Y14210755D01*
X1462597Y14210755D01*
X1462599Y14210753D01*
X1670060Y14130382D01*
X1745921Y14116201D01*
X1806672Y14085950D01*
X1842400Y14028247D01*
X1842401Y13960379D01*
X1806673Y13902676D01*
X1745920Y13872424D01*
X1683938Y13860838D01*
X1485201Y13783847D01*
X1304003Y13671655D01*
X1146497Y13528068D01*
X1018058Y13357989D01*
X923062Y13167209D01*
X864738Y12962219D01*
X858972Y12900001D01*
X858973Y12900000D01*
X3141027Y12900000D01*
X3141027Y12900001D01*
X3135261Y12962219D01*
X3076937Y13167209D01*
X2981941Y13357989D01*
X2853502Y13528068D01*
X2695996Y13671655D01*
X2514798Y13783847D01*
X2316060Y13860838D01*
X2254080Y13872424D01*
X2193326Y13902676D01*
X2157599Y13960379D01*
X2157599Y14028247D01*
X2193327Y14085950D01*
X2254077Y14116201D01*
X2329940Y14130382D01*
X2537401Y14210753D01*
X2726562Y14327876D01*
X2890981Y14477764D01*
X3025058Y14655311D01*
X3045381Y14696127D01*
X3070103Y14745772D01*
X3115826Y14795927D01*
X3181103Y14814500D01*
X4075541Y14814500D01*
X4101899Y14811667D01*
X4105729Y14810833D01*
X4152575Y14814185D01*
X4161422Y14814500D01*
X4174011Y14814500D01*
X4186485Y14816294D01*
X4195269Y14817239D01*
X4242115Y14820589D01*
X4244488Y14821475D01*
X4245778Y14821955D01*
X4271465Y14828512D01*
X4275342Y14829069D01*
X4318072Y14848585D01*
X4326207Y14851955D01*
X4370226Y14868371D01*
X4373361Y14870719D01*
X4396153Y14884243D01*
X4399718Y14885870D01*
X4435203Y14916620D01*
X4442084Y14922165D01*
X4452180Y14929721D01*
X4452184Y14929725D01*
X4461083Y14938624D01*
X4467566Y14944660D01*
X4503052Y14975408D01*
X4503052Y14975409D01*
X4503055Y14975411D01*
X4505173Y14978708D01*
X4521803Y14999346D01*
X6722457Y17200000D01*
X11044721Y17200000D01*
X11063763Y17043182D01*
X11119780Y16895477D01*
X11209515Y16765472D01*
X11209516Y16765471D01*
X11209517Y16765470D01*
X11327760Y16660717D01*
X11467635Y16587304D01*
X11621015Y16549500D01*
X11778985Y16549500D01*
X11932365Y16587304D01*
X12072240Y16660717D01*
X12190483Y16765470D01*
X12248830Y16850000D01*
X14194721Y16850000D01*
X14213763Y16693182D01*
X14269780Y16545477D01*
X14359515Y16415472D01*
X14359516Y16415471D01*
X14359517Y16415470D01*
X14477760Y16310717D01*
X14617635Y16237304D01*
X14771015Y16199500D01*
X14776679Y16199500D01*
X14824132Y16190061D01*
X14864360Y16163181D01*
X17216838Y13810704D01*
X17240644Y13777307D01*
X17252253Y13737971D01*
X17263763Y13643182D01*
X17319780Y13495477D01*
X17409515Y13365472D01*
X17409516Y13365471D01*
X17409517Y13365470D01*
X17527760Y13260717D01*
X17667635Y13187304D01*
X17821015Y13149500D01*
X17978985Y13149500D01*
X18132365Y13187304D01*
X18272240Y13260717D01*
X18390483Y13365470D01*
X18480220Y13495477D01*
X18536237Y13643182D01*
X18555278Y13800000D01*
X18536237Y13956818D01*
X18480220Y14104523D01*
X18390483Y14234530D01*
X18272240Y14339283D01*
X18258994Y14346236D01*
X18132364Y14412697D01*
X17978985Y14450500D01*
X17973320Y14450500D01*
X17925867Y14459939D01*
X17885639Y14486819D01*
X15533160Y16839299D01*
X15509354Y16872697D01*
X15497745Y16912034D01*
X15486237Y17006818D01*
X15430220Y17154523D01*
X15340483Y17284530D01*
X15222240Y17389283D01*
X15166178Y17418707D01*
X15082364Y17462697D01*
X14928985Y17500500D01*
X14771015Y17500500D01*
X14617635Y17462697D01*
X14477761Y17389284D01*
X14359515Y17284529D01*
X14269780Y17154524D01*
X14213763Y17006819D01*
X14194721Y16850000D01*
X12248830Y16850000D01*
X12280220Y16895477D01*
X12336237Y17043182D01*
X12355278Y17200000D01*
X12336237Y17356818D01*
X12280220Y17504523D01*
X12190483Y17634530D01*
X12072240Y17739283D01*
X12010706Y17771579D01*
X11932364Y17812697D01*
X11778985Y17850500D01*
X11621015Y17850500D01*
X11467635Y17812697D01*
X11327761Y17739284D01*
X11209515Y17634529D01*
X11119780Y17504524D01*
X11063763Y17356819D01*
X11044721Y17200000D01*
X6722457Y17200000D01*
X12460639Y22938181D01*
X12500868Y22965061D01*
X12548321Y22974500D01*
X13554599Y22974500D01*
X13612225Y22960297D01*
X13656649Y22920940D01*
X13677695Y22865447D01*
X13670541Y22806529D01*
X13613763Y22656819D01*
X13594721Y22500000D01*
X13613763Y22343182D01*
X13669780Y22195477D01*
X13759515Y22065472D01*
X13759516Y22065471D01*
X13759517Y22065470D01*
X13877760Y21960717D01*
X14017634Y21887305D01*
X14017635Y21887304D01*
X14171015Y21849500D01*
X14278978Y21849500D01*
X14345252Y21830304D01*
X14391006Y21778658D01*
X14402074Y21710554D01*
X14394721Y21650001D01*
X14413763Y21493182D01*
X14469780Y21345477D01*
X14559515Y21215472D01*
X14559516Y21215471D01*
X14559517Y21215470D01*
X14677760Y21110717D01*
X14817635Y21037304D01*
X14971015Y20999500D01*
X15128985Y20999500D01*
X15282365Y21037304D01*
X15422240Y21110717D01*
X15445187Y21131047D01*
X15459039Y21143317D01*
X15497294Y21166442D01*
X15541264Y21174500D01*
X18536311Y21174500D01*
X18597506Y21158348D01*
X18642759Y21114099D01*
X18660280Y21053282D01*
X18645505Y20991740D01*
X18602283Y20945506D01*
X18497735Y20879815D01*
X18370185Y20752265D01*
X18274212Y20599524D01*
X18274211Y20599522D01*
X18224175Y20456528D01*
X18214631Y20429252D01*
X18194434Y20250000D01*
X18214631Y20070749D01*
X18214631Y20070747D01*
X18214632Y20070745D01*
X18274211Y19900478D01*
X18274212Y19900477D01*
X18370185Y19747736D01*
X18497735Y19620186D01*
X18497737Y19620185D01*
X18497738Y19620184D01*
X18650478Y19524211D01*
X18820745Y19464632D01*
X19000000Y19444435D01*
X19179255Y19464632D01*
X19349522Y19524211D01*
X19502262Y19620184D01*
X19629816Y19747738D01*
X19725789Y19900478D01*
X19785368Y20070745D01*
X19805565Y20250000D01*
X19785368Y20429255D01*
X19772540Y20465913D01*
X19767128Y20526389D01*
X19791078Y20582186D01*
X19838647Y20619923D01*
X19898425Y20630551D01*
X19944725Y20627240D01*
X19953511Y20626295D01*
X19965989Y20624500D01*
X19978587Y20624500D01*
X19987433Y20624185D01*
X20034270Y20620834D01*
X20034270Y20620835D01*
X20034271Y20620834D01*
X20038096Y20621666D01*
X20064454Y20624500D01*
X22303427Y20624500D01*
X22361053Y20610296D01*
X22405477Y20570940D01*
X22426523Y20515446D01*
X22419369Y20456528D01*
X22385653Y20407684D01*
X22359517Y20384531D01*
X22269780Y20254524D01*
X22213763Y20106819D01*
X22194721Y19950000D01*
X22213763Y19793182D01*
X22269780Y19645477D01*
X22359515Y19515472D01*
X22359516Y19515471D01*
X22359517Y19515470D01*
X22477760Y19410717D01*
X22617635Y19337304D01*
X22771015Y19299500D01*
X22928985Y19299500D01*
X23082365Y19337304D01*
X23222240Y19410717D01*
X23340483Y19515470D01*
X23430220Y19645477D01*
X23486237Y19793182D01*
X23505278Y19950000D01*
X23486237Y20106818D01*
X23430220Y20254523D01*
X23340483Y20384530D01*
X23314346Y20407685D01*
X23280631Y20456528D01*
X23273477Y20515446D01*
X23294523Y20570940D01*
X23338947Y20610296D01*
X23396573Y20624500D01*
X50058736Y20624500D01*
X50102706Y20616442D01*
X50140961Y20593317D01*
X50153526Y20582186D01*
X50177760Y20560717D01*
X50317635Y20487304D01*
X50471015Y20449500D01*
X50628985Y20449500D01*
X50782365Y20487304D01*
X50922240Y20560717D01*
X51040483Y20665470D01*
X51130220Y20795477D01*
X51186237Y20943182D01*
X51205278Y21100000D01*
X51196847Y21169433D01*
X51204001Y21228347D01*
X51237715Y21277192D01*
X51290267Y21304774D01*
X51349617Y21304774D01*
X51371015Y21299500D01*
X51528985Y21299500D01*
X51682365Y21337304D01*
X51822240Y21410717D01*
X51940483Y21515470D01*
X52030220Y21645477D01*
X52086237Y21793182D01*
X52105278Y21950000D01*
X52086237Y22106818D01*
X52030220Y22254523D01*
X51940483Y22384530D01*
X51822240Y22489283D01*
X51801821Y22500000D01*
X51682364Y22562697D01*
X51528985Y22600500D01*
X51371015Y22600500D01*
X51217635Y22562697D01*
X51077758Y22489282D01*
X51040961Y22456683D01*
X51002706Y22433558D01*
X50958736Y22425500D01*
X50274057Y22425500D01*
X50207783Y22444697D01*
X50162029Y22496342D01*
X50150961Y22564447D01*
X50155278Y22600001D01*
X50148379Y22656819D01*
X50136237Y22756818D01*
X50080220Y22904523D01*
X49990483Y23034530D01*
X49872240Y23139283D01*
X49858994Y23146235D01*
X49732364Y23212697D01*
X49578985Y23250500D01*
X49421015Y23250500D01*
X49267635Y23212697D01*
X49127758Y23139282D01*
X49090961Y23106683D01*
X49052706Y23083558D01*
X49008736Y23075500D01*
X24583326Y23075500D01*
X24525700Y23089703D01*
X24481276Y23129060D01*
X24460230Y23184553D01*
X24467384Y23243471D01*
X24470050Y23250500D01*
X24486237Y23293182D01*
X24505278Y23450000D01*
X24486237Y23606818D01*
X24430220Y23754523D01*
X24340483Y23884530D01*
X24222240Y23989283D01*
X24202773Y23999500D01*
X24082364Y24062697D01*
X23928985Y24100500D01*
X23771015Y24100500D01*
X23758879Y24100500D01*
X23692605Y24119696D01*
X23646851Y24171342D01*
X23635783Y24239447D01*
X23636564Y24245871D01*
X23655278Y24400000D01*
X23636237Y24556818D01*
X23636236Y24556819D01*
X23634422Y24571764D01*
X23635236Y24571863D01*
X23630690Y24621867D01*
X23659843Y24681744D01*
X23715768Y24717904D01*
X23782334Y24719916D01*
X23840341Y24687200D01*
X24168193Y24359348D01*
X24184825Y24338709D01*
X24186945Y24335411D01*
X24222451Y24304646D01*
X24228914Y24298627D01*
X24237815Y24289725D01*
X24237818Y24289723D01*
X24237820Y24289721D01*
X24247916Y24282163D01*
X24254787Y24276626D01*
X24290282Y24245870D01*
X24293842Y24244244D01*
X24316633Y24230723D01*
X24319774Y24228371D01*
X24363772Y24211961D01*
X24371944Y24208576D01*
X24414658Y24189069D01*
X24418522Y24188514D01*
X24444220Y24181955D01*
X24447885Y24180588D01*
X24494730Y24177238D01*
X24503511Y24176295D01*
X24515989Y24174500D01*
X24528574Y24174500D01*
X24537420Y24174184D01*
X24584271Y24170833D01*
X24588101Y24171667D01*
X24614459Y24174500D01*
X36558736Y24174500D01*
X36602706Y24166442D01*
X36640961Y24143317D01*
X36667625Y24119696D01*
X36677760Y24110717D01*
X36817635Y24037304D01*
X36971015Y23999500D01*
X37128985Y23999500D01*
X37282365Y24037304D01*
X37422240Y24110717D01*
X37540483Y24215470D01*
X37630220Y24345477D01*
X37686237Y24493182D01*
X37705278Y24650000D01*
X37686237Y24806818D01*
X37630220Y24954523D01*
X37540483Y25084530D01*
X37422240Y25189283D01*
X37401817Y25200002D01*
X37282364Y25262697D01*
X37128985Y25300500D01*
X36971015Y25300500D01*
X36817635Y25262697D01*
X36677758Y25189282D01*
X36640961Y25156683D01*
X36602706Y25133558D01*
X36558736Y25125500D01*
X24798321Y25125500D01*
X24750868Y25134939D01*
X24710640Y25161819D01*
X24281808Y25590651D01*
X24265174Y25611292D01*
X24263055Y25614589D01*
X24227565Y25645341D01*
X24221086Y25651373D01*
X24212180Y25660279D01*
X24202093Y25667830D01*
X24195214Y25673373D01*
X24159718Y25704130D01*
X24159716Y25704131D01*
X24156150Y25705760D01*
X24133369Y25719278D01*
X24130231Y25721627D01*
X24110302Y25729060D01*
X24086219Y25738043D01*
X24078045Y25741429D01*
X24069181Y25745477D01*
X24059451Y25749921D01*
X24035343Y25760931D01*
X24034654Y25761030D01*
X24031458Y25761490D01*
X24005781Y25768044D01*
X24002115Y25769412D01*
X23955275Y25772763D01*
X23946491Y25773707D01*
X23934012Y25775500D01*
X23934011Y25775500D01*
X23921422Y25775500D01*
X23912575Y25775816D01*
X23865729Y25779167D01*
X23865728Y25779167D01*
X23861900Y25778334D01*
X23835541Y25775500D01*
X16341264Y25775500D01*
X16297294Y25783558D01*
X16259039Y25806683D01*
X16222241Y25839282D01*
X16222240Y25839283D01*
X16130979Y25887181D01*
X16082364Y25912697D01*
X15928985Y25950500D01*
X15771015Y25950500D01*
X15617635Y25912697D01*
X15477761Y25839284D01*
X15359515Y25734529D01*
X15269780Y25604524D01*
X15213763Y25456819D01*
X15194721Y25300000D01*
X15213763Y25143182D01*
X15251578Y25043471D01*
X15258732Y24984553D01*
X15237686Y24929060D01*
X15193262Y24889703D01*
X15135636Y24875500D01*
X11464459Y24875500D01*
X11438100Y24878334D01*
X11434271Y24879167D01*
X11387425Y24875816D01*
X11378578Y24875500D01*
X11365988Y24875500D01*
X11353509Y24873707D01*
X11344725Y24872763D01*
X11297883Y24869411D01*
X11294212Y24868042D01*
X11268535Y24861489D01*
X11264657Y24860932D01*
X11221944Y24841426D01*
X11213770Y24838040D01*
X11169773Y24821630D01*
X11166630Y24819277D01*
X11143857Y24805765D01*
X11140284Y24804133D01*
X11104800Y24773387D01*
X11097921Y24767842D01*
X11087818Y24760278D01*
X11078898Y24751359D01*
X11072429Y24745337D01*
X11036944Y24714589D01*
X11034825Y24711291D01*
X11018194Y24690655D01*
X4669360Y18341819D01*
X4629132Y18314939D01*
X4581679Y18305500D01*
X3181103Y18305500D01*
X3115826Y18324073D01*
X3070103Y18374228D01*
X3025058Y18464689D01*
X2890980Y18642238D01*
X2726562Y18792125D01*
X2537404Y18909246D01*
X2524249Y18914342D01*
X2484156Y18929875D01*
X2429998Y18970773D01*
X2405481Y19034059D01*
X2417952Y19100772D01*
X2463674Y19150927D01*
X2528952Y19169500D01*
X2883263Y19169500D01*
X2917326Y19174464D01*
X2951393Y19179427D01*
X3056483Y19230802D01*
X3139198Y19313517D01*
X3190573Y19418607D01*
X3200500Y19486740D01*
X3200500Y21253260D01*
X3190573Y21321393D01*
X3139198Y21426483D01*
X3139197Y21426484D01*
X3139197Y21426485D01*
X3056484Y21509198D01*
X3002712Y21535485D01*
X2951393Y21560573D01*
X2951391Y21560574D01*
X2951390Y21560574D01*
X2883263Y21570500D01*
X2883260Y21570500D01*
X1116740Y21570500D01*
X1116737Y21570500D01*
X1048609Y21560574D01*
X943515Y21509198D01*
X860802Y21426485D01*
X809426Y21321391D01*
X799500Y21253263D01*
X799500Y19486737D01*
X809426Y19418610D01*
X809426Y19418609D01*
X809427Y19418607D01*
X834515Y19367288D01*
X860802Y19313516D01*
X943515Y19230803D01*
X943516Y19230803D01*
X943517Y19230802D01*
X1048607Y19179427D01*
X1075860Y19175457D01*
X1116737Y19169500D01*
X1471048Y19169500D01*
X1536326Y19150927D01*
X1582048Y19100772D01*
X1594519Y19034059D01*
X1570002Y18970773D01*
X1515843Y18929875D01*
X1490626Y18920106D01*
X1462595Y18909246D01*
X1273437Y18792125D01*
X1109019Y18642238D01*
X974941Y18464689D01*
X875769Y18265527D01*
X814885Y18051538D01*
X794357Y17830001D01*
X794357Y17830000D01*
X799770Y17771579D01*
X814885Y17608463D01*
X875769Y17394474D01*
X974941Y17195312D01*
X1109019Y17017763D01*
X1273437Y16867876D01*
X1462595Y16750755D01*
X1462597Y16750755D01*
X1462599Y16750753D01*
X1656526Y16675625D01*
X1704893Y16641832D01*
X1732167Y16589505D01*
X1732167Y16530498D01*
X1704894Y16478171D01*
X1656523Y16444375D01*
X1462598Y16369248D01*
X1273437Y16252125D01*
X1109019Y16102238D01*
X974941Y15924689D01*
X875769Y15725527D01*
X814885Y15511538D01*
X794357Y15290000D01*
X500000Y15290000D01*
X500000Y25600000D01*
X858973Y25600000D01*
X864738Y25537782D01*
X923062Y25332792D01*
X1018058Y25142012D01*
X1146497Y24971933D01*
X1304003Y24828346D01*
X1485201Y24716154D01*
X1683939Y24639163D01*
X1850000Y24608121D01*
X1850000Y25600000D01*
X2150000Y25600000D01*
X2150000Y24608120D01*
X2316060Y24639163D01*
X2514798Y24716154D01*
X2695996Y24828346D01*
X2853502Y24971933D01*
X2981941Y25142012D01*
X3076937Y25332792D01*
X3135261Y25537782D01*
X3141027Y25600000D01*
X2150000Y25600000D01*
X1850000Y25600000D01*
X858973Y25600000D01*
X500000Y25600000D01*
X500000Y28290000D01*
X794357Y28290000D01*
X814885Y28068463D01*
X875769Y27854474D01*
X974941Y27655312D01*
X1109019Y27477763D01*
X1273437Y27327876D01*
X1462595Y27210755D01*
X1462597Y27210755D01*
X1462599Y27210753D01*
X1670060Y27130382D01*
X1745921Y27116201D01*
X1806672Y27085950D01*
X1842400Y27028247D01*
X1842401Y26960379D01*
X1806673Y26902676D01*
X1745920Y26872424D01*
X1683938Y26860838D01*
X1485201Y26783847D01*
X1304003Y26671655D01*
X1146497Y26528068D01*
X1018058Y26357989D01*
X923062Y26167209D01*
X864738Y25962219D01*
X858972Y25900001D01*
X858973Y25900000D01*
X3141027Y25900000D01*
X3141027Y25900001D01*
X3135261Y25962219D01*
X3076937Y26167209D01*
X2981941Y26357989D01*
X2853502Y26528068D01*
X2695996Y26671655D01*
X2514798Y26783847D01*
X2316060Y26860838D01*
X2254080Y26872424D01*
X2193326Y26902676D01*
X2157599Y26960379D01*
X2157599Y27028247D01*
X2193327Y27085950D01*
X2254077Y27116201D01*
X2329940Y27130382D01*
X2537401Y27210753D01*
X2726562Y27327876D01*
X2751379Y27350500D01*
X2890980Y27477763D01*
X2904251Y27495337D01*
X3025058Y27655311D01*
X3124229Y27854472D01*
X3127121Y27864634D01*
X3148516Y27939831D01*
X3185115Y28068464D01*
X3205643Y28290000D01*
X3185115Y28511536D01*
X3127091Y28715470D01*
X3124230Y28725527D01*
X3025058Y28924689D01*
X2890980Y29102238D01*
X2726562Y29252125D01*
X2537404Y29369246D01*
X2495672Y29385413D01*
X2343474Y29444375D01*
X2295106Y29478169D01*
X2267832Y29530496D01*
X2267832Y29589504D01*
X2295106Y29641831D01*
X2343474Y29675626D01*
X2537401Y29750753D01*
X2726562Y29867876D01*
X2890981Y30017764D01*
X3025058Y30195311D01*
X3056945Y30259348D01*
X3070103Y30285772D01*
X3115826Y30335927D01*
X3181103Y30354500D01*
X5237290Y30354500D01*
X5294916Y30340296D01*
X5339340Y30300940D01*
X5360386Y30245446D01*
X5353232Y30186528D01*
X5319518Y30137686D01*
X5309004Y30128371D01*
X5259515Y30084529D01*
X5169780Y29954524D01*
X5113763Y29806819D01*
X5094721Y29650001D01*
X5113763Y29493182D01*
X5169780Y29345477D01*
X5259515Y29215472D01*
X5259516Y29215471D01*
X5259517Y29215470D01*
X5377760Y29110717D01*
X5517635Y29037304D01*
X5671015Y28999500D01*
X5676679Y28999500D01*
X5724132Y28990061D01*
X5764360Y28963181D01*
X7418193Y27309348D01*
X7434825Y27288709D01*
X7436945Y27285411D01*
X7472451Y27254646D01*
X7478914Y27248627D01*
X7487815Y27239725D01*
X7487818Y27239723D01*
X7487820Y27239721D01*
X7497916Y27232163D01*
X7504787Y27226626D01*
X7540282Y27195870D01*
X7543842Y27194244D01*
X7566633Y27180723D01*
X7569774Y27178371D01*
X7613772Y27161961D01*
X7621944Y27158576D01*
X7664658Y27139069D01*
X7668522Y27138514D01*
X7694220Y27131955D01*
X7697885Y27130588D01*
X7744730Y27127238D01*
X7753511Y27126295D01*
X7765989Y27124500D01*
X7778574Y27124500D01*
X7787420Y27124184D01*
X7834271Y27120833D01*
X7838101Y27121667D01*
X7864459Y27124500D01*
X17508736Y27124500D01*
X17552706Y27116442D01*
X17590961Y27093317D01*
X17599277Y27085950D01*
X17627760Y27060717D01*
X17767635Y26987304D01*
X17921015Y26949500D01*
X18078985Y26949500D01*
X18232365Y26987304D01*
X18372240Y27060717D01*
X18426360Y27108664D01*
X18488694Y27138241D01*
X18557188Y27129925D01*
X18610635Y27086288D01*
X18659517Y27015470D01*
X18777760Y26910717D01*
X18917635Y26837304D01*
X19071015Y26799500D01*
X19228985Y26799500D01*
X19382365Y26837304D01*
X19522240Y26910717D01*
X19553241Y26938181D01*
X19559039Y26943317D01*
X19597294Y26966442D01*
X19641264Y26974500D01*
X23985636Y26974500D01*
X24043262Y26960297D01*
X24087686Y26920940D01*
X24108732Y26865447D01*
X24101578Y26806529D01*
X24063763Y26706819D01*
X24044721Y26550001D01*
X24063763Y26393182D01*
X24119780Y26245477D01*
X24209515Y26115472D01*
X24209516Y26115471D01*
X24209517Y26115470D01*
X24327760Y26010717D01*
X24467635Y25937304D01*
X24621015Y25899500D01*
X24778985Y25899500D01*
X24932365Y25937304D01*
X25072240Y26010717D01*
X25190483Y26115470D01*
X25280220Y26245477D01*
X25336237Y26393182D01*
X25355278Y26550000D01*
X25336237Y26706818D01*
X25307024Y26783847D01*
X25298422Y26806529D01*
X25291268Y26865447D01*
X25312314Y26920940D01*
X25356738Y26960297D01*
X25414364Y26974500D01*
X28151679Y26974500D01*
X28199132Y26965061D01*
X28239360Y26938181D01*
X28593193Y26584348D01*
X28609825Y26563709D01*
X28611945Y26560411D01*
X28647451Y26529646D01*
X28653914Y26523627D01*
X28662815Y26514725D01*
X28662818Y26514723D01*
X28662820Y26514721D01*
X28672916Y26507163D01*
X28679787Y26501626D01*
X28715282Y26470870D01*
X28718842Y26469244D01*
X28741633Y26455723D01*
X28744774Y26453371D01*
X28788772Y26436961D01*
X28796944Y26433576D01*
X28839658Y26414069D01*
X28843522Y26413514D01*
X28869220Y26406955D01*
X28872885Y26405588D01*
X28919730Y26402238D01*
X28928511Y26401295D01*
X28940989Y26399500D01*
X28953574Y26399500D01*
X28962420Y26399184D01*
X29009271Y26395833D01*
X29013101Y26396667D01*
X29039459Y26399500D01*
X46357193Y26399500D01*
X46414819Y26385296D01*
X46459243Y26345940D01*
X46480289Y26290446D01*
X46473135Y26231531D01*
X46468073Y26218182D01*
X46463763Y26206817D01*
X46444721Y26050000D01*
X46463763Y25893182D01*
X46519780Y25745477D01*
X46609515Y25615472D01*
X46609516Y25615471D01*
X46609517Y25615470D01*
X46727760Y25510717D01*
X46867635Y25437304D01*
X47021015Y25399500D01*
X47178984Y25399500D01*
X47178985Y25399500D01*
X47251926Y25417478D01*
X47311273Y25417478D01*
X47363825Y25389897D01*
X47397540Y25341053D01*
X47404694Y25282135D01*
X47394721Y25200002D01*
X47413763Y25043182D01*
X47469780Y24895477D01*
X47559515Y24765472D01*
X47559516Y24765471D01*
X47559517Y24765470D01*
X47677760Y24660717D01*
X47817635Y24587304D01*
X47971015Y24549500D01*
X48128985Y24549500D01*
X48282365Y24587304D01*
X48422240Y24660717D01*
X48451867Y24686964D01*
X48459039Y24693317D01*
X48497294Y24716442D01*
X48541264Y24724500D01*
X60135541Y24724500D01*
X60161899Y24721667D01*
X60165729Y24720833D01*
X60212575Y24724185D01*
X60221422Y24724500D01*
X60234011Y24724500D01*
X60246485Y24726294D01*
X60255269Y24727239D01*
X60302115Y24730589D01*
X60304488Y24731475D01*
X60305778Y24731955D01*
X60331465Y24738512D01*
X60335342Y24739069D01*
X60378072Y24758585D01*
X60386207Y24761955D01*
X60430226Y24778371D01*
X60433361Y24780719D01*
X60456153Y24794243D01*
X60459718Y24795870D01*
X60495203Y24826620D01*
X60502084Y24832165D01*
X60512180Y24839721D01*
X60521083Y24848626D01*
X60527547Y24854645D01*
X60563055Y24885411D01*
X60565172Y24888708D01*
X60581801Y24909345D01*
X60760641Y25088184D01*
X60800868Y25115061D01*
X60848320Y25124500D01*
X61401679Y25124500D01*
X61449132Y25115061D01*
X61489360Y25088181D01*
X61743190Y24834352D01*
X61759822Y24813714D01*
X61761945Y24810411D01*
X61796220Y24780712D01*
X61797447Y24779649D01*
X61803928Y24773614D01*
X61812818Y24764723D01*
X61822905Y24757172D01*
X61829776Y24751635D01*
X61865282Y24720870D01*
X61868838Y24719246D01*
X61891641Y24705716D01*
X61894771Y24703373D01*
X61894772Y24703373D01*
X61894773Y24703372D01*
X61921732Y24693317D01*
X61938765Y24686964D01*
X61946932Y24683582D01*
X61989658Y24664069D01*
X61993534Y24663512D01*
X62019216Y24656958D01*
X62022885Y24655589D01*
X62069719Y24652240D01*
X62078511Y24651295D01*
X62090989Y24649500D01*
X62103587Y24649500D01*
X62112433Y24649185D01*
X62159270Y24645834D01*
X62159270Y24645835D01*
X62159271Y24645834D01*
X62163096Y24646666D01*
X62189454Y24649500D01*
X65383736Y24649500D01*
X65427706Y24641442D01*
X65465961Y24618317D01*
X65493435Y24593978D01*
X65502760Y24585717D01*
X65642635Y24512304D01*
X65796015Y24474500D01*
X65953985Y24474500D01*
X66107365Y24512304D01*
X66247240Y24585717D01*
X66365483Y24690470D01*
X66455220Y24820477D01*
X66511237Y24968182D01*
X66530278Y25125000D01*
X66511237Y25281818D01*
X66455220Y25429523D01*
X66455220Y25429524D01*
X66396318Y25514857D01*
X66365483Y25559530D01*
X66365482Y25559531D01*
X66357642Y25570889D01*
X66336596Y25626384D01*
X66343751Y25685303D01*
X66377469Y25734148D01*
X66430022Y25761727D01*
X66432365Y25762304D01*
X66572240Y25835717D01*
X66690483Y25940470D01*
X66780220Y26070477D01*
X66836237Y26218182D01*
X66855278Y26375000D01*
X66836237Y26531818D01*
X66780220Y26679523D01*
X66697406Y26799500D01*
X66690484Y26809529D01*
X66659132Y26837304D01*
X66572240Y26914283D01*
X66516921Y26943317D01*
X66432364Y26987697D01*
X66278985Y27025500D01*
X66121015Y27025500D01*
X65967635Y26987697D01*
X65827758Y26914282D01*
X65790961Y26881683D01*
X65752706Y26858558D01*
X65708736Y26850500D01*
X61773321Y26850500D01*
X61725868Y26859939D01*
X61685640Y26886819D01*
X61131808Y27440651D01*
X61115174Y27461292D01*
X61113055Y27464589D01*
X61077565Y27495341D01*
X61071086Y27501373D01*
X61062180Y27510279D01*
X61052093Y27517830D01*
X61045214Y27523373D01*
X61009718Y27554130D01*
X61009716Y27554131D01*
X61006150Y27555760D01*
X60983369Y27569278D01*
X60980231Y27571627D01*
X60936223Y27588041D01*
X60928045Y27591429D01*
X60885343Y27610931D01*
X60884654Y27611030D01*
X60881458Y27611490D01*
X60855781Y27618044D01*
X60852115Y27619412D01*
X60805275Y27622763D01*
X60796491Y27623707D01*
X60784012Y27625500D01*
X60784011Y27625500D01*
X60771422Y27625500D01*
X60762575Y27625816D01*
X60715729Y27629167D01*
X60715728Y27629167D01*
X60711900Y27628334D01*
X60685541Y27625500D01*
X59789459Y27625500D01*
X59763100Y27628334D01*
X59759271Y27629167D01*
X59712425Y27625816D01*
X59703578Y27625500D01*
X59690988Y27625500D01*
X59678509Y27623707D01*
X59669725Y27622763D01*
X59622883Y27619411D01*
X59619212Y27618042D01*
X59593535Y27611489D01*
X59589657Y27610932D01*
X59546944Y27591426D01*
X59538770Y27588040D01*
X59494773Y27571630D01*
X59491630Y27569277D01*
X59468857Y27555765D01*
X59465284Y27554133D01*
X59429800Y27523387D01*
X59422921Y27517842D01*
X59412818Y27510278D01*
X59403898Y27501359D01*
X59397429Y27495337D01*
X59361944Y27464589D01*
X59359823Y27461288D01*
X59343193Y27440654D01*
X58464360Y26561819D01*
X58424132Y26534939D01*
X58376679Y26525500D01*
X52733326Y26525500D01*
X52675700Y26539703D01*
X52631276Y26579060D01*
X52610230Y26634553D01*
X52617384Y26693471D01*
X52622446Y26706819D01*
X52636237Y26743182D01*
X52655278Y26900000D01*
X52636237Y27056818D01*
X52580220Y27204523D01*
X52490483Y27334530D01*
X52372240Y27439283D01*
X52324024Y27464589D01*
X52232364Y27512697D01*
X52078985Y27550500D01*
X51921015Y27550500D01*
X51767635Y27512697D01*
X51627758Y27439282D01*
X51562743Y27381684D01*
X51524487Y27358558D01*
X51480517Y27350500D01*
X29223321Y27350500D01*
X29175868Y27359939D01*
X29135640Y27386819D01*
X28781808Y27740651D01*
X28765174Y27761292D01*
X28753417Y27779586D01*
X28755185Y27780723D01*
X28737711Y27805510D01*
X28730069Y27864634D01*
X28750902Y27920490D01*
X28795394Y27960169D01*
X28853261Y27974500D01*
X57185541Y27974500D01*
X57211899Y27971667D01*
X57215729Y27970833D01*
X57262575Y27974185D01*
X57271422Y27974500D01*
X57284011Y27974500D01*
X57296485Y27976294D01*
X57305269Y27977239D01*
X57352115Y27980589D01*
X57354488Y27981475D01*
X57355778Y27981955D01*
X57381465Y27988512D01*
X57385342Y27989069D01*
X57428072Y28008585D01*
X57436207Y28011955D01*
X57480226Y28028371D01*
X57483361Y28030719D01*
X57506153Y28044243D01*
X57509718Y28045870D01*
X57545203Y28076620D01*
X57552084Y28082165D01*
X57562180Y28089721D01*
X57566950Y28094491D01*
X57571083Y28098624D01*
X57577566Y28104660D01*
X57613052Y28135408D01*
X57613052Y28135409D01*
X57613055Y28135411D01*
X57615173Y28138708D01*
X57631806Y28159348D01*
X59690654Y30218197D01*
X59711292Y30234827D01*
X59714589Y30236945D01*
X59716116Y30238707D01*
X59745340Y30272434D01*
X59751376Y30278917D01*
X59760275Y30287816D01*
X59760275Y30287817D01*
X59760279Y30287820D01*
X59767835Y30297916D01*
X59773387Y30304804D01*
X59804130Y30340282D01*
X59805757Y30343847D01*
X59819281Y30366639D01*
X59821629Y30369774D01*
X59838045Y30413793D01*
X59841415Y30421928D01*
X59860931Y30464658D01*
X59861488Y30468535D01*
X59868045Y30494222D01*
X59868525Y30495512D01*
X59869411Y30497885D01*
X59872761Y30544731D01*
X59873707Y30553522D01*
X59875500Y30565989D01*
X59875500Y30578578D01*
X59875816Y30587425D01*
X59880439Y30652055D01*
X59882385Y30651916D01*
X59884943Y30693840D01*
X59923615Y30749021D01*
X59985435Y30775831D01*
X60052149Y30766352D01*
X60104053Y30723386D01*
X60109517Y30715470D01*
X60227760Y30610717D01*
X60367635Y30537304D01*
X60521015Y30499500D01*
X60678985Y30499500D01*
X60832365Y30537304D01*
X60972240Y30610717D01*
X61090483Y30715470D01*
X61180220Y30845477D01*
X61236237Y30993182D01*
X61255278Y31150000D01*
X61236237Y31306818D01*
X61180220Y31454523D01*
X61098451Y31572987D01*
X61090484Y31584529D01*
X61090483Y31584530D01*
X60972240Y31689283D01*
X60958994Y31696235D01*
X60832364Y31762697D01*
X60678985Y31800500D01*
X60521015Y31800500D01*
X60367635Y31762697D01*
X60227761Y31689284D01*
X60227759Y31689283D01*
X60227760Y31689283D01*
X60109517Y31584530D01*
X60101548Y31572986D01*
X60054455Y31532271D01*
X59993509Y31519573D01*
X59934072Y31538094D01*
X59891128Y31583166D01*
X59875500Y31643428D01*
X59875500Y33255124D01*
X59881115Y33292014D01*
X59897450Y33325564D01*
X59945708Y33395477D01*
X59980220Y33445477D01*
X60036237Y33593182D01*
X60055278Y33750000D01*
X60052875Y33769791D01*
X60062895Y33835628D01*
X60105531Y33886787D01*
X60168485Y33908511D01*
X60233594Y33894534D01*
X60342635Y33837304D01*
X60496015Y33799500D01*
X60653985Y33799500D01*
X60807365Y33837304D01*
X60947240Y33910717D01*
X61065483Y34015470D01*
X61155220Y34145477D01*
X61211237Y34293182D01*
X61230278Y34450000D01*
X61216618Y34562500D01*
X66732315Y34562500D01*
X66751003Y34384696D01*
X66806249Y34214665D01*
X66895640Y34059835D01*
X67015271Y33926973D01*
X67159903Y33821890D01*
X67323235Y33749170D01*
X67498107Y33712000D01*
X67498109Y33712000D01*
X67676891Y33712000D01*
X67676893Y33712000D01*
X67851764Y33749170D01*
X67851765Y33749171D01*
X67851767Y33749171D01*
X68015093Y33821888D01*
X68159730Y33926974D01*
X68279359Y34059835D01*
X68368750Y34214665D01*
X68423997Y34384697D01*
X68442685Y34562500D01*
X68423997Y34740303D01*
X68368750Y34910335D01*
X68368750Y34910336D01*
X68279359Y35065166D01*
X68181398Y35173961D01*
X68159730Y35198026D01*
X68159729Y35198027D01*
X68159728Y35198028D01*
X68015096Y35303111D01*
X67851764Y35375831D01*
X67676893Y35413000D01*
X67676891Y35413000D01*
X67498109Y35413000D01*
X67498107Y35413000D01*
X67323235Y35375831D01*
X67159908Y35303113D01*
X67015268Y35198026D01*
X66895640Y35065166D01*
X66806249Y34910336D01*
X66751003Y34740305D01*
X66732315Y34562500D01*
X61216618Y34562500D01*
X61211237Y34606818D01*
X61155220Y34754523D01*
X61065483Y34884530D01*
X60947240Y34989283D01*
X60913830Y35006818D01*
X60807364Y35062697D01*
X60653985Y35100500D01*
X60648321Y35100500D01*
X60600868Y35109939D01*
X60560640Y35136819D01*
X60406808Y35290651D01*
X60390174Y35311292D01*
X60388055Y35314589D01*
X60352565Y35345341D01*
X60346086Y35351373D01*
X60337180Y35360279D01*
X60327093Y35367830D01*
X60320214Y35373373D01*
X60284718Y35404130D01*
X60284716Y35404131D01*
X60281150Y35405760D01*
X60258369Y35419278D01*
X60255231Y35421627D01*
X60211223Y35438041D01*
X60203045Y35441429D01*
X60194181Y35445477D01*
X60190941Y35446957D01*
X60160343Y35460931D01*
X60159654Y35461030D01*
X60156458Y35461490D01*
X60130781Y35468044D01*
X60127115Y35469412D01*
X60080275Y35472763D01*
X60071491Y35473707D01*
X60059012Y35475500D01*
X60059011Y35475500D01*
X60046422Y35475500D01*
X60037575Y35475816D01*
X59990729Y35479167D01*
X59990728Y35479167D01*
X59986900Y35478334D01*
X59960541Y35475500D01*
X56498320Y35475500D01*
X56450867Y35484939D01*
X56410639Y35511819D01*
X56333160Y35589298D01*
X56309354Y35622696D01*
X56297745Y35662033D01*
X56286237Y35756818D01*
X56230220Y35904523D01*
X56173081Y35987304D01*
X56140484Y36034529D01*
X56121487Y36051359D01*
X56022240Y36139283D01*
X55988830Y36156818D01*
X55882364Y36212697D01*
X55728985Y36250500D01*
X55571015Y36250500D01*
X55417635Y36212697D01*
X55277758Y36139282D01*
X55240961Y36106683D01*
X55202706Y36083558D01*
X55158736Y36075500D01*
X50814459Y36075500D01*
X50788100Y36078334D01*
X50784271Y36079167D01*
X50737425Y36075816D01*
X50728578Y36075500D01*
X50715988Y36075500D01*
X50703509Y36073707D01*
X50694725Y36072763D01*
X50647883Y36069411D01*
X50644212Y36068042D01*
X50618535Y36061489D01*
X50614657Y36060932D01*
X50571944Y36041426D01*
X50563770Y36038040D01*
X50519773Y36021630D01*
X50516630Y36019277D01*
X50493857Y36005765D01*
X50490284Y36004133D01*
X50454800Y35973387D01*
X50447921Y35967842D01*
X50437818Y35960278D01*
X50428898Y35951359D01*
X50422429Y35945337D01*
X50386944Y35914589D01*
X50384823Y35911288D01*
X50368193Y35890654D01*
X49839360Y35361819D01*
X49799132Y35334939D01*
X49751679Y35325500D01*
X49664364Y35325500D01*
X49606738Y35339703D01*
X49562314Y35379060D01*
X49541268Y35434553D01*
X49548422Y35493471D01*
X49557477Y35517351D01*
X49586237Y35593182D01*
X49605278Y35750000D01*
X49586237Y35906818D01*
X49530220Y36054523D01*
X49485991Y36118600D01*
X49464369Y36180054D01*
X49476886Y36243992D01*
X49520089Y36292758D01*
X49582052Y36312891D01*
X49645669Y36298832D01*
X49667633Y36287304D01*
X49821015Y36249500D01*
X49978985Y36249500D01*
X50132365Y36287304D01*
X50272240Y36360717D01*
X50390483Y36465470D01*
X50480220Y36595477D01*
X50491417Y36625000D01*
X66969815Y36625000D01*
X66988503Y36447196D01*
X67043749Y36277165D01*
X67133140Y36122335D01*
X67252771Y35989473D01*
X67397403Y35884390D01*
X67397406Y35884389D01*
X67397407Y35884388D01*
X67459331Y35856818D01*
X67560735Y35811670D01*
X67735607Y35774500D01*
X67735609Y35774500D01*
X67914391Y35774500D01*
X67914393Y35774500D01*
X68089264Y35811670D01*
X68089265Y35811671D01*
X68089267Y35811671D01*
X68252593Y35884388D01*
X68261218Y35890654D01*
X68336481Y35945337D01*
X68397230Y35989474D01*
X68516859Y36122335D01*
X68606250Y36277165D01*
X68661497Y36447197D01*
X68680185Y36625000D01*
X68661497Y36802803D01*
X68624889Y36915470D01*
X68606250Y36972836D01*
X68516859Y37127666D01*
X68397228Y37260528D01*
X68252596Y37365611D01*
X68089264Y37438331D01*
X67914393Y37475500D01*
X67914391Y37475500D01*
X67735609Y37475500D01*
X67735607Y37475500D01*
X67560735Y37438331D01*
X67397408Y37365613D01*
X67252768Y37260526D01*
X67133140Y37127666D01*
X67043749Y36972836D01*
X66988503Y36802805D01*
X66969815Y36625000D01*
X50491417Y36625000D01*
X50536237Y36743182D01*
X50555278Y36900000D01*
X50536237Y37056818D01*
X50480220Y37204523D01*
X50390483Y37334530D01*
X50272240Y37439283D01*
X50227629Y37462697D01*
X50132364Y37512697D01*
X49978985Y37550500D01*
X49821015Y37550500D01*
X49667635Y37512697D01*
X49527761Y37439284D01*
X49527759Y37439283D01*
X49527760Y37439283D01*
X49515228Y37428182D01*
X49476977Y37405058D01*
X49433006Y37397000D01*
X33516767Y37397000D01*
X33490408Y37399834D01*
X33485820Y37400833D01*
X33436657Y37397316D01*
X33427811Y37397000D01*
X33414450Y37397000D01*
X33401223Y37395099D01*
X33392431Y37394154D01*
X33343265Y37390637D01*
X33338863Y37388995D01*
X33313189Y37382442D01*
X33308539Y37381774D01*
X33263709Y37361301D01*
X33255538Y37357916D01*
X33209361Y37340692D01*
X33205596Y37337873D01*
X33182822Y37324361D01*
X33178541Y37322406D01*
X33141280Y37290120D01*
X33134394Y37284571D01*
X33123703Y37276568D01*
X33114249Y37267114D01*
X33107778Y37261090D01*
X33070528Y37228813D01*
X33067988Y37224859D01*
X33051357Y37204223D01*
X31230455Y35383319D01*
X31190227Y35356439D01*
X31142774Y35347000D01*
X31141480Y35347000D01*
X31083854Y35361203D01*
X31039430Y35400560D01*
X31018384Y35456053D01*
X31025538Y35514971D01*
X31036237Y35543182D01*
X31055278Y35700000D01*
X31036237Y35856818D01*
X30992028Y35973387D01*
X30980220Y36004524D01*
X30917860Y36094868D01*
X30890483Y36134530D01*
X30890482Y36134531D01*
X30889165Y36136439D01*
X30867315Y36201906D01*
X30883848Y36268914D01*
X30913742Y36297605D01*
X30910970Y36300734D01*
X30922236Y36310716D01*
X30922240Y36310717D01*
X31040483Y36415470D01*
X31130220Y36545477D01*
X31186237Y36693182D01*
X31205278Y36850000D01*
X31186237Y37006818D01*
X31130220Y37154523D01*
X31057052Y37260526D01*
X31040484Y37284529D01*
X31040437Y37284571D01*
X30922240Y37389283D01*
X30902137Y37399834D01*
X30782364Y37462697D01*
X30628985Y37500500D01*
X30471015Y37500500D01*
X30317635Y37462697D01*
X30177761Y37389284D01*
X30059515Y37284529D01*
X29969780Y37154524D01*
X29913763Y37006819D01*
X29894721Y36850001D01*
X29913763Y36693182D01*
X29969780Y36545477D01*
X30060834Y36413562D01*
X30082683Y36348120D01*
X30066176Y36281130D01*
X30036259Y36252390D01*
X30039028Y36249265D01*
X29990961Y36206683D01*
X29952706Y36183558D01*
X29908736Y36175500D01*
X29464458Y36175500D01*
X29438099Y36178334D01*
X29434270Y36179167D01*
X29387425Y36175816D01*
X29378578Y36175500D01*
X29365988Y36175500D01*
X29353509Y36173707D01*
X29344725Y36172763D01*
X29297883Y36169411D01*
X29294212Y36168042D01*
X29268535Y36161489D01*
X29264657Y36160932D01*
X29221944Y36141426D01*
X29213770Y36138040D01*
X29169773Y36121630D01*
X29166630Y36119277D01*
X29143857Y36105765D01*
X29140284Y36104133D01*
X29104800Y36073387D01*
X29097921Y36067842D01*
X29087818Y36060278D01*
X29078898Y36051359D01*
X29072429Y36045337D01*
X29036944Y36014589D01*
X29034823Y36011288D01*
X29018193Y35990654D01*
X28339360Y35311819D01*
X28299132Y35284939D01*
X28251679Y35275500D01*
X18814459Y35275500D01*
X18788100Y35278334D01*
X18784271Y35279167D01*
X18784270Y35279167D01*
X18737421Y35275816D01*
X18728574Y35275500D01*
X18715989Y35275500D01*
X18703520Y35273708D01*
X18694728Y35272763D01*
X18647886Y35269412D01*
X18644210Y35268041D01*
X18618540Y35261490D01*
X18614658Y35260931D01*
X18571947Y35241426D01*
X18563784Y35238045D01*
X18519772Y35221630D01*
X18516630Y35219277D01*
X18493857Y35205765D01*
X18490284Y35204133D01*
X18454800Y35173387D01*
X18447921Y35167842D01*
X18437818Y35160278D01*
X18428898Y35151359D01*
X18422429Y35145337D01*
X18386944Y35114589D01*
X18384825Y35111291D01*
X18368194Y35090655D01*
X14654009Y31376470D01*
X14594181Y31343320D01*
X14525879Y31346934D01*
X14469883Y31386213D01*
X14443232Y31449205D01*
X14436237Y31506818D01*
X14380220Y31654523D01*
X14290483Y31784530D01*
X14172240Y31889283D01*
X14134202Y31909247D01*
X14032364Y31962697D01*
X13878985Y32000500D01*
X13721015Y32000500D01*
X13567635Y31962697D01*
X13427761Y31889284D01*
X13309515Y31784529D01*
X13219780Y31654524D01*
X13163763Y31506819D01*
X13146004Y31360566D01*
X13127131Y31308329D01*
X13087348Y31269572D01*
X13034636Y31252069D01*
X12979573Y31259332D01*
X12956221Y31268042D01*
X12948045Y31271429D01*
X12905343Y31290931D01*
X12904654Y31291030D01*
X12901458Y31291490D01*
X12875781Y31298044D01*
X12872115Y31299412D01*
X12825275Y31302763D01*
X12816491Y31303707D01*
X12804012Y31305500D01*
X12804011Y31305500D01*
X12791422Y31305500D01*
X12782575Y31305816D01*
X12735729Y31309167D01*
X12735728Y31309167D01*
X12731900Y31308334D01*
X12705541Y31305500D01*
X3181103Y31305500D01*
X3115826Y31324073D01*
X3070103Y31374228D01*
X3025058Y31464689D01*
X2890980Y31642238D01*
X2726562Y31792125D01*
X2537404Y31909246D01*
X2524249Y31914342D01*
X2484156Y31929875D01*
X2429998Y31970773D01*
X2405481Y32034059D01*
X2417952Y32100772D01*
X2463674Y32150927D01*
X2528952Y32169500D01*
X2883263Y32169500D01*
X2917326Y32174464D01*
X2951393Y32179427D01*
X3056483Y32230802D01*
X3139198Y32313517D01*
X3190573Y32418607D01*
X3196491Y32459227D01*
X3200500Y32486737D01*
X3200500Y34253263D01*
X3191840Y34312697D01*
X3190573Y34321393D01*
X3139198Y34426483D01*
X3139197Y34426484D01*
X3139197Y34426485D01*
X3056484Y34509198D01*
X2995380Y34539069D01*
X2951393Y34560573D01*
X2951391Y34560574D01*
X2951390Y34560574D01*
X2883263Y34570500D01*
X2883260Y34570500D01*
X1116740Y34570500D01*
X1116737Y34570500D01*
X1048609Y34560574D01*
X943515Y34509198D01*
X860802Y34426485D01*
X809426Y34321391D01*
X799500Y34253263D01*
X799500Y32486737D01*
X809426Y32418610D01*
X860802Y32313516D01*
X943515Y32230803D01*
X943516Y32230803D01*
X943517Y32230802D01*
X1048607Y32179427D01*
X1075860Y32175457D01*
X1116737Y32169500D01*
X1471048Y32169500D01*
X1536326Y32150927D01*
X1582048Y32100772D01*
X1594519Y32034059D01*
X1570002Y31970773D01*
X1515843Y31929875D01*
X1490626Y31920106D01*
X1462595Y31909246D01*
X1273437Y31792125D01*
X1109019Y31642238D01*
X974941Y31464689D01*
X875769Y31265527D01*
X814885Y31051538D01*
X794357Y30830000D01*
X814885Y30608463D01*
X875769Y30394474D01*
X974941Y30195312D01*
X1109019Y30017763D01*
X1273437Y29867876D01*
X1382254Y29800500D01*
X1462599Y29750753D01*
X1656523Y29675627D01*
X1704893Y29641831D01*
X1732167Y29589504D01*
X1732167Y29530496D01*
X1704893Y29478169D01*
X1656523Y29444374D01*
X1566122Y29409352D01*
X1462596Y29369246D01*
X1273437Y29252125D01*
X1109019Y29102238D01*
X974941Y28924689D01*
X875769Y28725527D01*
X814885Y28511538D01*
X794357Y28290000D01*
X500000Y28290000D01*
X500000Y36000001D01*
X14044721Y36000001D01*
X14063763Y35843182D01*
X14119780Y35695477D01*
X14209515Y35565472D01*
X14209516Y35565471D01*
X14209517Y35565470D01*
X14327760Y35460717D01*
X14467635Y35387304D01*
X14621015Y35349500D01*
X14778985Y35349500D01*
X14932365Y35387304D01*
X15072240Y35460717D01*
X15190483Y35565470D01*
X15280220Y35695477D01*
X15336237Y35843182D01*
X15355278Y36000000D01*
X15336237Y36156818D01*
X15280220Y36304523D01*
X15190483Y36434530D01*
X15072240Y36539283D01*
X14965173Y36595477D01*
X14956553Y36600001D01*
X27382221Y36600001D01*
X27401263Y36443182D01*
X27457280Y36295477D01*
X27547015Y36165472D01*
X27547016Y36165471D01*
X27547017Y36165470D01*
X27665260Y36060717D01*
X27805135Y35987304D01*
X27958515Y35949500D01*
X28116485Y35949500D01*
X28269865Y35987304D01*
X28409740Y36060717D01*
X28527983Y36165470D01*
X28617720Y36295477D01*
X28673737Y36443182D01*
X28692778Y36600000D01*
X28673737Y36756818D01*
X28617720Y36904523D01*
X28547111Y37006818D01*
X28527984Y37034529D01*
X28526992Y37035408D01*
X28409740Y37139283D01*
X28380701Y37154524D01*
X28269864Y37212697D01*
X28116485Y37250500D01*
X27958515Y37250500D01*
X27805135Y37212697D01*
X27665261Y37139284D01*
X27547015Y37034529D01*
X27457280Y36904524D01*
X27401263Y36756819D01*
X27382221Y36600001D01*
X14956553Y36600001D01*
X14932364Y36612697D01*
X14778985Y36650500D01*
X14621015Y36650500D01*
X14467635Y36612697D01*
X14327761Y36539284D01*
X14209515Y36434529D01*
X14119780Y36304524D01*
X14063763Y36156819D01*
X14044721Y36000001D01*
X500000Y36000001D01*
X500000Y37350001D01*
X3144721Y37350001D01*
X3163763Y37193182D01*
X3219780Y37045477D01*
X3309515Y36915472D01*
X3309516Y36915471D01*
X3309517Y36915470D01*
X3427760Y36810717D01*
X3567635Y36737304D01*
X3721015Y36699500D01*
X3878985Y36699500D01*
X4032365Y36737304D01*
X4172240Y36810717D01*
X4195187Y36831047D01*
X4209039Y36843317D01*
X4247294Y36866442D01*
X4291264Y36874500D01*
X6185541Y36874500D01*
X6211899Y36871667D01*
X6215729Y36870833D01*
X6262575Y36874185D01*
X6271422Y36874500D01*
X6284011Y36874500D01*
X6296485Y36876294D01*
X6305269Y36877239D01*
X6352115Y36880589D01*
X6354488Y36881475D01*
X6355778Y36881955D01*
X6381465Y36888512D01*
X6385342Y36889069D01*
X6428072Y36908585D01*
X6436207Y36911955D01*
X6480226Y36928371D01*
X6483361Y36930719D01*
X6506153Y36944243D01*
X6509718Y36945870D01*
X6545203Y36976620D01*
X6552084Y36982165D01*
X6562180Y36989721D01*
X6562184Y36989725D01*
X6571083Y36998624D01*
X6577566Y37004660D01*
X6613052Y37035408D01*
X6613052Y37035409D01*
X6613055Y37035411D01*
X6615173Y37038708D01*
X6631803Y37059346D01*
X7302458Y37730001D01*
X52549721Y37730001D01*
X52568763Y37573182D01*
X52624780Y37425477D01*
X52714515Y37295472D01*
X52714516Y37295471D01*
X52714517Y37295470D01*
X52832760Y37190717D01*
X52972635Y37117304D01*
X53126015Y37079500D01*
X53283985Y37079500D01*
X53437365Y37117304D01*
X53577240Y37190717D01*
X53695483Y37295470D01*
X53785220Y37425477D01*
X53841237Y37573182D01*
X53860278Y37730000D01*
X53841237Y37886818D01*
X53785220Y38034523D01*
X53695483Y38164530D01*
X53577240Y38269283D01*
X53530966Y38293570D01*
X53437364Y38342697D01*
X53283985Y38380500D01*
X53126015Y38380500D01*
X52972635Y38342697D01*
X52832761Y38269284D01*
X52714515Y38164529D01*
X52624780Y38034524D01*
X52568763Y37886819D01*
X52549721Y37730001D01*
X7302458Y37730001D01*
X7610639Y38038182D01*
X7650867Y38065061D01*
X7698320Y38074500D01*
X23835541Y38074500D01*
X23861899Y38071667D01*
X23865729Y38070833D01*
X23912575Y38074185D01*
X23921422Y38074500D01*
X23934011Y38074500D01*
X23946485Y38076294D01*
X23955269Y38077239D01*
X24002115Y38080589D01*
X24004488Y38081475D01*
X24005778Y38081955D01*
X24031465Y38088512D01*
X24035342Y38089069D01*
X24078072Y38108585D01*
X24086207Y38111955D01*
X24130226Y38128371D01*
X24133361Y38130719D01*
X24156153Y38144243D01*
X24159718Y38145870D01*
X24195203Y38176620D01*
X24202084Y38182165D01*
X24212180Y38189721D01*
X24213231Y38190772D01*
X24221083Y38198624D01*
X24227566Y38204660D01*
X24263052Y38235408D01*
X24263052Y38235409D01*
X24263055Y38235411D01*
X24265173Y38238708D01*
X24281803Y38259346D01*
X24585639Y38563182D01*
X24625867Y38590061D01*
X24673320Y38599500D01*
X24678985Y38599500D01*
X24832365Y38637304D01*
X24972240Y38710717D01*
X25090483Y38815470D01*
X25180220Y38945477D01*
X25236237Y39093182D01*
X25255278Y39250000D01*
X25236237Y39406818D01*
X25180220Y39554523D01*
X25095944Y39676619D01*
X25090484Y39684529D01*
X25067773Y39704649D01*
X24972240Y39789283D01*
X24924676Y39814247D01*
X24832364Y39862697D01*
X24678985Y39900500D01*
X24521015Y39900500D01*
X24367635Y39862697D01*
X24227761Y39789284D01*
X24109515Y39684529D01*
X24019780Y39554524D01*
X23963763Y39406819D01*
X23952253Y39312031D01*
X23940644Y39272695D01*
X23916838Y39239298D01*
X23739360Y39061819D01*
X23699132Y39034939D01*
X23651679Y39025500D01*
X7514454Y39025500D01*
X7488096Y39028334D01*
X7484271Y39029167D01*
X7437434Y39025816D01*
X7428587Y39025500D01*
X7415986Y39025500D01*
X7403519Y39023708D01*
X7394725Y39022762D01*
X7347885Y39019412D01*
X7345006Y39018338D01*
X7344212Y39018042D01*
X7318536Y39011489D01*
X7314658Y39010932D01*
X7271943Y38991425D01*
X7263771Y38988039D01*
X7219770Y38971627D01*
X7216637Y38969281D01*
X7193849Y38955760D01*
X7190284Y38954132D01*
X7154785Y38923373D01*
X7147902Y38917826D01*
X7137817Y38910276D01*
X7128905Y38901365D01*
X7122436Y38895343D01*
X7089793Y38867057D01*
X7087944Y38866146D01*
X7084823Y38861289D01*
X7068192Y38840652D01*
X6484333Y38256793D01*
X6471375Y38249001D01*
X6464086Y38236546D01*
X6089360Y37861819D01*
X6049132Y37834939D01*
X6001679Y37825500D01*
X4291264Y37825500D01*
X4247294Y37833558D01*
X4209039Y37856683D01*
X4172241Y37889282D01*
X4172240Y37889283D01*
X4102302Y37925990D01*
X4032364Y37962697D01*
X3878985Y38000500D01*
X3721015Y38000500D01*
X3567635Y37962697D01*
X3427761Y37889284D01*
X3309515Y37784529D01*
X3219780Y37654524D01*
X3163763Y37506819D01*
X3144721Y37350001D01*
X500000Y37350001D01*
X500000Y38735001D01*
X794357Y38735001D01*
X814885Y38513463D01*
X875769Y38299474D01*
X974941Y38100312D01*
X1109019Y37922763D01*
X1273437Y37772876D01*
X1462595Y37655755D01*
X1462597Y37655755D01*
X1462599Y37655753D01*
X1670060Y37575382D01*
X1888757Y37534500D01*
X2111241Y37534500D01*
X2111243Y37534500D01*
X2329940Y37575382D01*
X2537401Y37655753D01*
X2726562Y37772876D01*
X2890981Y37922764D01*
X3025058Y38100311D01*
X3057035Y38164529D01*
X3070103Y38190772D01*
X3115826Y38240927D01*
X3181103Y38259500D01*
X5870541Y38259500D01*
X5896899Y38256667D01*
X5900729Y38255833D01*
X5947575Y38259185D01*
X5956422Y38259500D01*
X5969011Y38259500D01*
X5981485Y38261294D01*
X5990269Y38262239D01*
X6037115Y38265589D01*
X6039488Y38266475D01*
X6040778Y38266955D01*
X6066465Y38273512D01*
X6070342Y38274069D01*
X6113072Y38293585D01*
X6121207Y38296955D01*
X6165226Y38313371D01*
X6168361Y38315719D01*
X6191153Y38329243D01*
X6194718Y38330870D01*
X6230203Y38361620D01*
X6237084Y38367165D01*
X6247180Y38374721D01*
X6252959Y38380500D01*
X6256083Y38383624D01*
X6262564Y38389659D01*
X6264847Y38391638D01*
X6295204Y38417942D01*
X6297052Y38418853D01*
X6298051Y38420408D01*
X6298055Y38420411D01*
X6300175Y38423711D01*
X6316803Y38444346D01*
X6900671Y39028213D01*
X6913621Y39036001D01*
X6920907Y39048449D01*
X7360639Y39488181D01*
X7400868Y39515061D01*
X7448321Y39524500D01*
X8558736Y39524500D01*
X8602706Y39516442D01*
X8640961Y39493317D01*
X8646759Y39488181D01*
X8677760Y39460717D01*
X8817635Y39387304D01*
X8971015Y39349500D01*
X9128985Y39349500D01*
X9282365Y39387304D01*
X9422240Y39460717D01*
X9540483Y39565470D01*
X9630220Y39695477D01*
X9686237Y39843182D01*
X9697689Y39937501D01*
X17344721Y39937501D01*
X17363763Y39780682D01*
X17419780Y39632977D01*
X17509515Y39502972D01*
X17509516Y39502971D01*
X17509517Y39502970D01*
X17627760Y39398217D01*
X17767635Y39324804D01*
X17921015Y39287000D01*
X18078985Y39287000D01*
X18232365Y39324804D01*
X18372240Y39398217D01*
X18490483Y39502970D01*
X18580220Y39632977D01*
X18636237Y39780682D01*
X18655278Y39937500D01*
X18636237Y40094318D01*
X18580220Y40242023D01*
X18520619Y40328371D01*
X18490484Y40372029D01*
X18460461Y40398627D01*
X18372240Y40476783D01*
X18253158Y40539283D01*
X18232364Y40550197D01*
X18078985Y40588000D01*
X17921015Y40588000D01*
X17767635Y40550197D01*
X17627761Y40476784D01*
X17509515Y40372029D01*
X17419780Y40242024D01*
X17363763Y40094319D01*
X17344721Y39937501D01*
X9697689Y39937501D01*
X9705278Y40000000D01*
X9686237Y40156818D01*
X9630220Y40304523D01*
X9561467Y40404130D01*
X9540484Y40434529D01*
X9540483Y40434530D01*
X9422240Y40539283D01*
X9415672Y40542730D01*
X9392945Y40554659D01*
X9348522Y40594016D01*
X9327477Y40649510D01*
X9334632Y40708427D01*
X9368347Y40757270D01*
X9372234Y40760715D01*
X9372240Y40760717D01*
X9490483Y40865470D01*
X9580220Y40995477D01*
X9636237Y41143182D01*
X9655278Y41300000D01*
X9636237Y41456818D01*
X9580220Y41604523D01*
X9580219Y41604524D01*
X9579459Y41606529D01*
X9572305Y41665447D01*
X9593351Y41720940D01*
X9637775Y41760297D01*
X9695401Y41774500D01*
X16138085Y41774500D01*
X16204359Y41755304D01*
X16250113Y41703658D01*
X16261181Y41635553D01*
X16244721Y41500001D01*
X16263763Y41343182D01*
X16319780Y41195477D01*
X16409515Y41065472D01*
X16409516Y41065471D01*
X16409517Y41065470D01*
X16527760Y40960717D01*
X16667635Y40887304D01*
X16821015Y40849500D01*
X16978985Y40849500D01*
X17132365Y40887304D01*
X17272240Y40960717D01*
X17295187Y40981047D01*
X17309039Y40993317D01*
X17347294Y41016442D01*
X17391264Y41024500D01*
X19708736Y41024500D01*
X19752706Y41016442D01*
X19790961Y40993317D01*
X19818435Y40968978D01*
X19827760Y40960717D01*
X19967635Y40887304D01*
X20121015Y40849500D01*
X20126679Y40849500D01*
X20174132Y40840061D01*
X20214360Y40813181D01*
X20568193Y40459348D01*
X20584825Y40438709D01*
X20586945Y40435411D01*
X20622451Y40404646D01*
X20628914Y40398627D01*
X20637815Y40389725D01*
X20637818Y40389723D01*
X20637820Y40389721D01*
X20647916Y40382163D01*
X20654787Y40376626D01*
X20690282Y40345870D01*
X20693842Y40344244D01*
X20716635Y40330721D01*
X20719774Y40328371D01*
X20763759Y40311966D01*
X20771938Y40308578D01*
X20814653Y40289071D01*
X20814658Y40289069D01*
X20818535Y40288512D01*
X20844215Y40281958D01*
X20847885Y40280589D01*
X20894732Y40277239D01*
X20903514Y40276294D01*
X20915989Y40274500D01*
X20928578Y40274500D01*
X20937424Y40274185D01*
X20984271Y40270833D01*
X20988100Y40271667D01*
X21014459Y40274500D01*
X30251679Y40274500D01*
X30299132Y40265061D01*
X30339360Y40238181D01*
X30818190Y39759352D01*
X30834822Y39738714D01*
X30836945Y39735411D01*
X30872447Y39704649D01*
X30878928Y39698614D01*
X30887818Y39689723D01*
X30897905Y39682172D01*
X30904776Y39676635D01*
X30940282Y39645870D01*
X30943838Y39644246D01*
X30966641Y39630716D01*
X30969771Y39628373D01*
X30969772Y39628373D01*
X30969773Y39628372D01*
X31001439Y39616562D01*
X31013765Y39611964D01*
X31021932Y39608582D01*
X31064658Y39589069D01*
X31068534Y39588512D01*
X31094216Y39581958D01*
X31097885Y39580589D01*
X31144719Y39577240D01*
X31153511Y39576295D01*
X31165989Y39574500D01*
X31178587Y39574500D01*
X31187433Y39574185D01*
X31234270Y39570834D01*
X31234270Y39570835D01*
X31234271Y39570834D01*
X31238096Y39571666D01*
X31264454Y39574500D01*
X47558736Y39574500D01*
X47602706Y39566442D01*
X47640961Y39543317D01*
X47662202Y39524500D01*
X47677760Y39510717D01*
X47817635Y39437304D01*
X47971015Y39399500D01*
X48128985Y39399500D01*
X48282365Y39437304D01*
X48422240Y39510717D01*
X48540483Y39615470D01*
X48630220Y39745477D01*
X48686237Y39893182D01*
X48705278Y40050000D01*
X48686237Y40206818D01*
X48630220Y40354523D01*
X48572112Y40438707D01*
X48540484Y40484529D01*
X48515477Y40506683D01*
X48422240Y40589283D01*
X48408994Y40596235D01*
X48282364Y40662697D01*
X48128985Y40700500D01*
X47971015Y40700500D01*
X47971013Y40700500D01*
X47904332Y40684066D01*
X47844982Y40684067D01*
X47792430Y40711649D01*
X47758716Y40760494D01*
X47751563Y40819408D01*
X47755278Y40850000D01*
X47741618Y40962501D01*
X50907221Y40962501D01*
X50926263Y40805682D01*
X50982280Y40657977D01*
X51072015Y40527972D01*
X51072016Y40527971D01*
X51072017Y40527970D01*
X51190260Y40423217D01*
X51330135Y40349804D01*
X51483515Y40312000D01*
X51641485Y40312000D01*
X51794865Y40349804D01*
X51934740Y40423217D01*
X52052983Y40527970D01*
X52142720Y40657977D01*
X52198737Y40805682D01*
X52217778Y40962500D01*
X52198737Y41119318D01*
X52142720Y41267023D01*
X52090151Y41343182D01*
X52052984Y41397029D01*
X52052983Y41397030D01*
X52049631Y41400000D01*
X80894721Y41400000D01*
X80913763Y41243182D01*
X80969780Y41095477D01*
X81059515Y40965472D01*
X81059516Y40965471D01*
X81059517Y40965470D01*
X81177760Y40860717D01*
X81317635Y40787304D01*
X81471015Y40749500D01*
X81628985Y40749500D01*
X81782365Y40787304D01*
X81922240Y40860717D01*
X82040483Y40965470D01*
X82130220Y41095477D01*
X82186237Y41243182D01*
X82205278Y41400000D01*
X82186237Y41556818D01*
X82130220Y41704523D01*
X82040483Y41834530D01*
X81922240Y41939283D01*
X81908994Y41946236D01*
X81782364Y42012697D01*
X81628985Y42050500D01*
X81471015Y42050500D01*
X81317635Y42012697D01*
X81177761Y41939284D01*
X81059515Y41834529D01*
X80969780Y41704524D01*
X80913763Y41556819D01*
X80894721Y41400000D01*
X52049631Y41400000D01*
X51934740Y41501783D01*
X51900877Y41519556D01*
X51794864Y41575197D01*
X51641485Y41613000D01*
X51483515Y41613000D01*
X51330135Y41575197D01*
X51190261Y41501784D01*
X51072015Y41397029D01*
X50982280Y41267024D01*
X50926263Y41119319D01*
X50907221Y40962501D01*
X47741618Y40962501D01*
X47736237Y41006818D01*
X47680220Y41154523D01*
X47602567Y41267023D01*
X47590484Y41284529D01*
X47573021Y41300000D01*
X47472240Y41389283D01*
X47332365Y41462696D01*
X47332364Y41462697D01*
X47332363Y41462697D01*
X47261742Y41480103D01*
X47209189Y41507684D01*
X47175474Y41556529D01*
X47168320Y41615446D01*
X47189366Y41670940D01*
X47233790Y41710296D01*
X47291416Y41724500D01*
X48308736Y41724500D01*
X48352706Y41716442D01*
X48390961Y41693317D01*
X48416220Y41670940D01*
X48427760Y41660717D01*
X48567635Y41587304D01*
X48721015Y41549500D01*
X48878985Y41549500D01*
X49032365Y41587304D01*
X49172240Y41660717D01*
X49290483Y41765470D01*
X49380220Y41895477D01*
X49436237Y42043182D01*
X49455278Y42200000D01*
X49436237Y42356818D01*
X49380220Y42504523D01*
X49290483Y42634530D01*
X49172240Y42739283D01*
X49153461Y42749139D01*
X49032364Y42812697D01*
X48878985Y42850500D01*
X48721015Y42850500D01*
X48567635Y42812697D01*
X48427758Y42739282D01*
X48390961Y42706683D01*
X48352706Y42683558D01*
X48308736Y42675500D01*
X23091264Y42675500D01*
X23047294Y42683558D01*
X23009039Y42706683D01*
X22972241Y42739282D01*
X22972240Y42739283D01*
X22876976Y42789282D01*
X22832364Y42812697D01*
X22678985Y42850500D01*
X22521015Y42850500D01*
X22367635Y42812697D01*
X22227761Y42739284D01*
X22109515Y42634529D01*
X22019780Y42504524D01*
X21963763Y42356819D01*
X21948035Y42227291D01*
X21920990Y42163815D01*
X21864206Y42124620D01*
X21795265Y42121841D01*
X21678986Y42150500D01*
X21678985Y42150500D01*
X21673321Y42150500D01*
X21625868Y42159939D01*
X21585640Y42186819D01*
X20822458Y42950001D01*
X83994721Y42950001D01*
X84013763Y42793182D01*
X84069780Y42645477D01*
X84159515Y42515472D01*
X84159516Y42515471D01*
X84159517Y42515470D01*
X84277760Y42410717D01*
X84417635Y42337304D01*
X84571015Y42299500D01*
X84728985Y42299500D01*
X84882365Y42337304D01*
X85022240Y42410717D01*
X85140483Y42515470D01*
X85230220Y42645477D01*
X85286237Y42793182D01*
X85305278Y42950000D01*
X85286237Y43106818D01*
X85230220Y43254523D01*
X85153638Y43365472D01*
X85140484Y43384529D01*
X85123021Y43400000D01*
X85022240Y43489283D01*
X85002773Y43499500D01*
X84882364Y43562697D01*
X84728985Y43600500D01*
X84571015Y43600500D01*
X84417635Y43562697D01*
X84277761Y43489284D01*
X84159515Y43384529D01*
X84069780Y43254524D01*
X84013763Y43106819D01*
X83994721Y42950001D01*
X20822458Y42950001D01*
X20811819Y42960640D01*
X20784939Y43000868D01*
X20775500Y43048321D01*
X20775500Y43635541D01*
X20778334Y43661900D01*
X20779167Y43665729D01*
X20775815Y43712576D01*
X20775500Y43721422D01*
X20775500Y43734011D01*
X20773707Y43746479D01*
X20772761Y43755268D01*
X20769411Y43802115D01*
X20768042Y43805785D01*
X20761488Y43831465D01*
X20760931Y43835342D01*
X20760929Y43835347D01*
X20741422Y43878062D01*
X20738034Y43886241D01*
X20721629Y43930226D01*
X20719279Y43933365D01*
X20705756Y43956158D01*
X20704130Y43959718D01*
X20673374Y43995213D01*
X20667837Y44002084D01*
X20660279Y44012180D01*
X20660277Y44012182D01*
X20660275Y44012185D01*
X20651373Y44021086D01*
X20645354Y44027549D01*
X20614589Y44063055D01*
X20611291Y44065175D01*
X20590652Y44081807D01*
X20231808Y44440651D01*
X20215174Y44461292D01*
X20213055Y44464589D01*
X20177565Y44495341D01*
X20171086Y44501373D01*
X20162180Y44510279D01*
X20152093Y44517830D01*
X20145214Y44523373D01*
X20109718Y44554130D01*
X20109716Y44554131D01*
X20106150Y44555760D01*
X20083369Y44569278D01*
X20080231Y44571627D01*
X20045636Y44584530D01*
X20036219Y44588043D01*
X20028045Y44591429D01*
X19985343Y44610931D01*
X19984654Y44611030D01*
X19981458Y44611490D01*
X19955781Y44618044D01*
X19952115Y44619412D01*
X19905275Y44622763D01*
X19896491Y44623707D01*
X19884012Y44625500D01*
X19884011Y44625500D01*
X19871422Y44625500D01*
X19862575Y44625816D01*
X19815729Y44629167D01*
X19815728Y44629167D01*
X19811900Y44628334D01*
X19785541Y44625500D01*
X16291264Y44625500D01*
X16247294Y44633558D01*
X16209039Y44656683D01*
X16172241Y44689282D01*
X16172240Y44689283D01*
X16102302Y44725990D01*
X16032364Y44762697D01*
X15878985Y44800500D01*
X15721015Y44800500D01*
X15567635Y44762697D01*
X15427761Y44689284D01*
X15309515Y44584529D01*
X15219780Y44454524D01*
X15163763Y44306819D01*
X15144721Y44150001D01*
X15163763Y43993182D01*
X15219780Y43845477D01*
X15309515Y43715472D01*
X15309516Y43715471D01*
X15309517Y43715470D01*
X15427760Y43610717D01*
X15567635Y43537304D01*
X15721015Y43499500D01*
X15878985Y43499500D01*
X16032365Y43537304D01*
X16172240Y43610717D01*
X16200261Y43635541D01*
X16209039Y43643317D01*
X16247294Y43666442D01*
X16291264Y43674500D01*
X18588085Y43674500D01*
X18654359Y43655304D01*
X18700113Y43603658D01*
X18711181Y43535553D01*
X18694721Y43400001D01*
X18713763Y43243182D01*
X18769780Y43095477D01*
X18860834Y42963562D01*
X18882683Y42898120D01*
X18866176Y42831130D01*
X18836259Y42802390D01*
X18839028Y42799265D01*
X18790961Y42756683D01*
X18752706Y42733558D01*
X18708736Y42725500D01*
X8341264Y42725500D01*
X8297294Y42733558D01*
X8259039Y42756683D01*
X8222241Y42789282D01*
X8222240Y42789283D01*
X8136524Y42834271D01*
X8082364Y42862697D01*
X7928985Y42900500D01*
X7771015Y42900500D01*
X7617635Y42862697D01*
X7477761Y42789284D01*
X7359515Y42684529D01*
X7269780Y42554524D01*
X7213763Y42406819D01*
X7194721Y42250000D01*
X7213763Y42093182D01*
X7269780Y41945477D01*
X7270149Y41944942D01*
X7271828Y41940075D01*
X7275119Y41931399D01*
X7274857Y41931300D01*
X7291875Y41881989D01*
X7277898Y41816876D01*
X7232252Y41768383D01*
X7168101Y41750500D01*
X3181103Y41750500D01*
X3115826Y41769073D01*
X3070103Y41819228D01*
X3025058Y41909689D01*
X2890980Y42087238D01*
X2726562Y42237125D01*
X2537404Y42354246D01*
X2502007Y42367959D01*
X2343474Y42429375D01*
X2295106Y42463169D01*
X2267832Y42515496D01*
X2267832Y42574504D01*
X2295106Y42626831D01*
X2343474Y42660626D01*
X2537401Y42735753D01*
X2726562Y42852876D01*
X2890981Y43002764D01*
X3025058Y43180311D01*
X3056364Y43243182D01*
X3062633Y43255771D01*
X3108355Y43305927D01*
X3173633Y43324500D01*
X8758736Y43324500D01*
X8802706Y43316442D01*
X8840961Y43293317D01*
X8868435Y43268978D01*
X8877760Y43260717D01*
X9017635Y43187304D01*
X9171015Y43149500D01*
X9328985Y43149500D01*
X9482365Y43187304D01*
X9622240Y43260717D01*
X9740483Y43365470D01*
X9830220Y43495477D01*
X9886237Y43643182D01*
X9905278Y43800000D01*
X11194721Y43800000D01*
X11213763Y43643182D01*
X11269780Y43495477D01*
X11359515Y43365472D01*
X11359516Y43365471D01*
X11359517Y43365470D01*
X11477760Y43260717D01*
X11617635Y43187304D01*
X11771015Y43149500D01*
X11928985Y43149500D01*
X12082365Y43187304D01*
X12222240Y43260717D01*
X12340483Y43365470D01*
X12430220Y43495477D01*
X12486237Y43643182D01*
X12505278Y43800000D01*
X12486237Y43956818D01*
X12430220Y44104523D01*
X12340483Y44234530D01*
X12222240Y44339283D01*
X12208994Y44346236D01*
X12082364Y44412697D01*
X11928985Y44450500D01*
X11771015Y44450500D01*
X11617635Y44412697D01*
X11477761Y44339284D01*
X11359515Y44234529D01*
X11269780Y44104524D01*
X11213763Y43956819D01*
X11194721Y43800000D01*
X9905278Y43800000D01*
X9886237Y43956818D01*
X9830220Y44104523D01*
X9740483Y44234530D01*
X9622240Y44339283D01*
X9608994Y44346236D01*
X9482364Y44412697D01*
X9328985Y44450500D01*
X9171015Y44450500D01*
X9017635Y44412697D01*
X8877758Y44339282D01*
X8840961Y44306683D01*
X8802706Y44283558D01*
X8758736Y44275500D01*
X3188572Y44275500D01*
X3123295Y44294073D01*
X3077572Y44344228D01*
X3025058Y44449689D01*
X2890980Y44627238D01*
X2726562Y44777125D01*
X2537404Y44894246D01*
X2502007Y44907959D01*
X2343474Y44969375D01*
X2295106Y45003169D01*
X2267832Y45055496D01*
X2267832Y45114504D01*
X2295106Y45166831D01*
X2343474Y45200626D01*
X2537401Y45275753D01*
X2726562Y45392876D01*
X2890981Y45542764D01*
X2960635Y45635001D01*
X10914721Y45635001D01*
X10933763Y45478182D01*
X10989780Y45330477D01*
X11079515Y45200472D01*
X11079516Y45200471D01*
X11079517Y45200470D01*
X11197760Y45095717D01*
X11337635Y45022304D01*
X11491015Y44984500D01*
X11648985Y44984500D01*
X11802365Y45022304D01*
X11942240Y45095717D01*
X12060483Y45200470D01*
X12150220Y45330477D01*
X12206237Y45478182D01*
X12225278Y45635000D01*
X12206237Y45791818D01*
X12150220Y45939523D01*
X12105351Y46004527D01*
X12060484Y46069529D01*
X12060483Y46069530D01*
X11942240Y46174283D01*
X11896705Y46198182D01*
X11802364Y46247697D01*
X11648985Y46285500D01*
X11491015Y46285500D01*
X11337635Y46247697D01*
X11197761Y46174284D01*
X11079515Y46069529D01*
X10989780Y45939524D01*
X10933763Y45791819D01*
X10914721Y45635001D01*
X2960635Y45635001D01*
X3025058Y45720311D01*
X3045381Y45761127D01*
X3070103Y45810772D01*
X3115826Y45860927D01*
X3181103Y45879500D01*
X9158736Y45879500D01*
X9202706Y45871442D01*
X9240961Y45848317D01*
X9268435Y45823978D01*
X9277760Y45815717D01*
X9417635Y45742304D01*
X9571015Y45704500D01*
X9728985Y45704500D01*
X9882365Y45742304D01*
X10022240Y45815717D01*
X10140483Y45920470D01*
X10230220Y46050477D01*
X10286237Y46198182D01*
X10305278Y46355000D01*
X10286237Y46511818D01*
X10230220Y46659523D01*
X10140483Y46789530D01*
X10022240Y46894283D01*
X10008994Y46901236D01*
X9882364Y46967697D01*
X9728985Y47005500D01*
X9571015Y47005500D01*
X9417635Y46967697D01*
X9277758Y46894282D01*
X9240961Y46861683D01*
X9202706Y46838558D01*
X9158736Y46830500D01*
X3181103Y46830500D01*
X3115826Y46849073D01*
X3070103Y46899228D01*
X3025058Y46989689D01*
X2890980Y47167238D01*
X2726562Y47317125D01*
X2537404Y47434246D01*
X2502007Y47447959D01*
X2343474Y47509375D01*
X2295106Y47543169D01*
X2267832Y47595496D01*
X2267832Y47654504D01*
X2295106Y47706831D01*
X2343474Y47740626D01*
X2537401Y47815753D01*
X2726562Y47932876D01*
X2890981Y48082764D01*
X3025058Y48260311D01*
X3124229Y48459472D01*
X3137701Y48506819D01*
X3147116Y48539915D01*
X3185115Y48673464D01*
X3200315Y48837500D01*
X72882221Y48837500D01*
X72901263Y48680682D01*
X72957280Y48532977D01*
X73047015Y48402972D01*
X73047016Y48402971D01*
X73047017Y48402970D01*
X73165260Y48298217D01*
X73305135Y48224804D01*
X73458515Y48187000D01*
X73616485Y48187000D01*
X73769865Y48224804D01*
X73909740Y48298217D01*
X74027983Y48402970D01*
X74117720Y48532977D01*
X74173737Y48680682D01*
X74192778Y48837500D01*
X74173737Y48994318D01*
X74117720Y49142023D01*
X74032672Y49265237D01*
X74027984Y49272029D01*
X74027983Y49272030D01*
X73909740Y49376783D01*
X73895513Y49384250D01*
X73769864Y49450197D01*
X73616485Y49488000D01*
X73458515Y49488000D01*
X73305135Y49450197D01*
X73165261Y49376784D01*
X73047015Y49272029D01*
X72957280Y49142024D01*
X72901263Y48994319D01*
X72882221Y48837500D01*
X3200315Y48837500D01*
X3205643Y48895000D01*
X3185115Y49116536D01*
X3158880Y49208741D01*
X3124230Y49330527D01*
X3025058Y49529689D01*
X2890980Y49707238D01*
X2726562Y49857125D01*
X2537404Y49974246D01*
X2502007Y49987959D01*
X2343474Y50049375D01*
X2295106Y50083169D01*
X2267832Y50135496D01*
X2267832Y50194504D01*
X2295106Y50246831D01*
X2343474Y50280626D01*
X2537401Y50355753D01*
X2726562Y50472876D01*
X2890981Y50622764D01*
X3025058Y50800311D01*
X3124229Y50999472D01*
X3143730Y51068009D01*
X3161367Y51130000D01*
X3161367Y51130001D01*
X31844721Y51130001D01*
X31863763Y50973182D01*
X31919780Y50825477D01*
X32009515Y50695472D01*
X32009516Y50695471D01*
X32009517Y50695470D01*
X32127760Y50590717D01*
X32267635Y50517304D01*
X32421015Y50479500D01*
X32578985Y50479500D01*
X32732365Y50517304D01*
X32872240Y50590717D01*
X32990483Y50695470D01*
X33080220Y50825477D01*
X33136237Y50973182D01*
X33155278Y51130000D01*
X33136237Y51286818D01*
X33080220Y51434523D01*
X32990483Y51564530D01*
X32872240Y51669283D01*
X32858994Y51676235D01*
X32732364Y51742697D01*
X32578985Y51780500D01*
X32421015Y51780500D01*
X32267635Y51742697D01*
X32127761Y51669284D01*
X32009515Y51564529D01*
X31919780Y51434524D01*
X31863763Y51286819D01*
X31844721Y51130001D01*
X3161367Y51130001D01*
X3185115Y51213464D01*
X3205643Y51435000D01*
X3185115Y51656536D01*
X3149844Y51780500D01*
X3124230Y51870527D01*
X3025058Y52069689D01*
X2890980Y52247238D01*
X2726562Y52397125D01*
X2537404Y52514246D01*
X2329935Y52594620D01*
X2254079Y52608800D01*
X2193326Y52639052D01*
X2157598Y52696755D01*
X2157599Y52764623D01*
X2193328Y52822326D01*
X2254081Y52852577D01*
X2316060Y52864163D01*
X2514798Y52941154D01*
X2695996Y53053346D01*
X2853502Y53196933D01*
X2981941Y53367012D01*
X3076937Y53557792D01*
X3135261Y53762782D01*
X3141027Y53825000D01*
X858973Y53825000D01*
X864738Y53762782D01*
X923062Y53557792D01*
X1018058Y53367012D01*
X1146497Y53196933D01*
X1304003Y53053346D01*
X1485201Y52941154D01*
X1683939Y52864163D01*
X1745918Y52852577D01*
X1806672Y52822326D01*
X1842400Y52764623D01*
X1842401Y52696755D01*
X1806673Y52639052D01*
X1745920Y52608800D01*
X1670064Y52594620D01*
X1462595Y52514246D01*
X1273437Y52397125D01*
X1109019Y52247238D01*
X974941Y52069689D01*
X875769Y51870527D01*
X814885Y51656538D01*
X794357Y51435000D01*
X814885Y51213463D01*
X875769Y50999474D01*
X974941Y50800312D01*
X1109019Y50622763D01*
X1273437Y50472876D01*
X1427209Y50377666D01*
X1462599Y50355753D01*
X1656523Y50280627D01*
X1704893Y50246831D01*
X1732167Y50194504D01*
X1732167Y50135496D01*
X1704893Y50083169D01*
X1656523Y50049374D01*
X1525346Y49998556D01*
X1462596Y49974246D01*
X1273437Y49857125D01*
X1109019Y49707238D01*
X974941Y49529689D01*
X875769Y49330527D01*
X814885Y49116538D01*
X794357Y48895000D01*
X814885Y48673463D01*
X875769Y48459474D01*
X974941Y48260312D01*
X1109019Y48082763D01*
X1273437Y47932876D01*
X1427209Y47837666D01*
X1462599Y47815753D01*
X1656523Y47740627D01*
X1704893Y47706831D01*
X1732167Y47654504D01*
X1732167Y47595496D01*
X1704893Y47543169D01*
X1656523Y47509374D01*
X1525346Y47458556D01*
X1462596Y47434246D01*
X1273437Y47317125D01*
X1109019Y47167238D01*
X974941Y46989689D01*
X875769Y46790527D01*
X814885Y46576538D01*
X794357Y46355001D01*
X814885Y46133463D01*
X875769Y45919474D01*
X974941Y45720312D01*
X1109019Y45542763D01*
X1273437Y45392876D01*
X1374216Y45330477D01*
X1462599Y45275753D01*
X1656523Y45200627D01*
X1704893Y45166831D01*
X1732167Y45114504D01*
X1732167Y45055496D01*
X1704893Y45003169D01*
X1656523Y44969374D01*
X1525346Y44918556D01*
X1462596Y44894246D01*
X1273437Y44777125D01*
X1109019Y44627238D01*
X974941Y44449689D01*
X875769Y44250527D01*
X814885Y44036538D01*
X794357Y43815000D01*
X814885Y43593463D01*
X875769Y43379474D01*
X974941Y43180312D01*
X1109019Y43002763D01*
X1273437Y42852876D01*
X1376146Y42789282D01*
X1462599Y42735753D01*
X1656523Y42660627D01*
X1704893Y42626831D01*
X1732167Y42574504D01*
X1732167Y42515496D01*
X1704893Y42463169D01*
X1656523Y42429374D01*
X1525346Y42378556D01*
X1462596Y42354246D01*
X1273437Y42237125D01*
X1109019Y42087238D01*
X974941Y41909689D01*
X875769Y41710527D01*
X814885Y41496538D01*
X794357Y41275000D01*
X814885Y41053463D01*
X875769Y40839474D01*
X974941Y40640312D01*
X1109019Y40462763D01*
X1273437Y40312876D01*
X1341338Y40270834D01*
X1462599Y40195753D01*
X1656523Y40120627D01*
X1704893Y40086831D01*
X1732167Y40034504D01*
X1732167Y39975496D01*
X1704893Y39923169D01*
X1656523Y39889374D01*
X1587663Y39862697D01*
X1462596Y39814246D01*
X1273437Y39697125D01*
X1109019Y39547238D01*
X974941Y39369689D01*
X875769Y39170527D01*
X814885Y38956538D01*
X794357Y38735001D01*
X500000Y38735001D01*
X500000Y55631737D01*
X799500Y55631737D01*
X809426Y55563610D01*
X860802Y55458516D01*
X943515Y55375803D01*
X943516Y55375803D01*
X943517Y55375802D01*
X1048607Y55324427D01*
X1075860Y55320457D01*
X1116737Y55314500D01*
X1610843Y55314500D01*
X1676121Y55295927D01*
X1721843Y55245771D01*
X1734314Y55179059D01*
X1709797Y55115773D01*
X1655637Y55074873D01*
X1485201Y55008847D01*
X1304003Y54896655D01*
X1146497Y54753068D01*
X1018058Y54582989D01*
X923062Y54392209D01*
X864738Y54187219D01*
X858972Y54125001D01*
X858973Y54125000D01*
X3141027Y54125000D01*
X3141027Y54125001D01*
X3135261Y54187219D01*
X3076937Y54392209D01*
X2981941Y54582989D01*
X2853502Y54753068D01*
X2695996Y54896655D01*
X2514798Y55008847D01*
X2344363Y55074873D01*
X2290203Y55115773D01*
X2265686Y55179059D01*
X2278157Y55245771D01*
X2323879Y55295927D01*
X2389157Y55314500D01*
X2883263Y55314500D01*
X2917326Y55319464D01*
X2951393Y55324427D01*
X3056483Y55375802D01*
X3139198Y55458517D01*
X3190573Y55563607D01*
X3200500Y55631740D01*
X3200500Y57398260D01*
X3200063Y57401258D01*
X3190573Y57466391D01*
X3190573Y57466393D01*
X3139198Y57571483D01*
X3139197Y57571484D01*
X3139197Y57571485D01*
X3056484Y57654198D01*
X3002712Y57680485D01*
X2951393Y57705573D01*
X2951391Y57705574D01*
X2951390Y57705574D01*
X2883263Y57715500D01*
X2883260Y57715500D01*
X1116740Y57715500D01*
X1116737Y57715500D01*
X1048609Y57705574D01*
X943515Y57654198D01*
X860802Y57571485D01*
X809426Y57466391D01*
X799500Y57398263D01*
X799500Y55631737D01*
X500000Y55631737D01*
X500000Y58100000D01*
X14144721Y58100000D01*
X14163763Y57943182D01*
X14219780Y57795477D01*
X14309515Y57665472D01*
X14309516Y57665471D01*
X14309517Y57665470D01*
X14427760Y57560717D01*
X14567635Y57487304D01*
X14721015Y57449500D01*
X14878985Y57449500D01*
X15032365Y57487304D01*
X15172240Y57560717D01*
X15201217Y57586388D01*
X15209039Y57593317D01*
X15247294Y57616442D01*
X15291264Y57624500D01*
X23047711Y57624500D01*
X23105336Y57610297D01*
X23149760Y57570942D01*
X23170807Y57515449D01*
X23165504Y57471773D01*
X23165578Y57471764D01*
X23163763Y57456819D01*
X23163763Y57456818D01*
X23162124Y57443317D01*
X23144721Y57300000D01*
X23163763Y57143182D01*
X23219780Y56995477D01*
X23309515Y56865472D01*
X23309516Y56865471D01*
X23309517Y56865470D01*
X23427760Y56760717D01*
X23567635Y56687304D01*
X23721015Y56649500D01*
X23878985Y56649500D01*
X24032365Y56687304D01*
X24172240Y56760717D01*
X24290483Y56865470D01*
X24380220Y56995477D01*
X24436237Y57143182D01*
X24455278Y57300000D01*
X24436237Y57456818D01*
X24436236Y57456819D01*
X24434422Y57471764D01*
X24434495Y57471773D01*
X24429193Y57515449D01*
X24450240Y57570942D01*
X24494664Y57610297D01*
X24552289Y57624500D01*
X38558736Y57624500D01*
X38602706Y57616442D01*
X38640961Y57593317D01*
X38666218Y57570942D01*
X38677760Y57560717D01*
X38817635Y57487304D01*
X38971015Y57449500D01*
X39128985Y57449500D01*
X39282365Y57487304D01*
X39422240Y57560717D01*
X39540483Y57665470D01*
X39630220Y57795477D01*
X39658957Y57871252D01*
X39694083Y57921326D01*
X39748874Y57948518D01*
X39809997Y57946209D01*
X39862580Y57914961D01*
X40118193Y57659348D01*
X40134825Y57638709D01*
X40136945Y57635411D01*
X40172451Y57604646D01*
X40178914Y57598627D01*
X40187815Y57589725D01*
X40187818Y57589723D01*
X40187820Y57589721D01*
X40197916Y57582163D01*
X40204787Y57576626D01*
X40240282Y57545870D01*
X40243842Y57544244D01*
X40266635Y57530721D01*
X40269774Y57528371D01*
X40313759Y57511966D01*
X40321938Y57508578D01*
X40364653Y57489071D01*
X40364658Y57489069D01*
X40368535Y57488512D01*
X40394213Y57481959D01*
X40397885Y57480589D01*
X40444719Y57477240D01*
X40453511Y57476295D01*
X40465989Y57474500D01*
X40478587Y57474500D01*
X40487433Y57474185D01*
X40534270Y57470834D01*
X40534270Y57470835D01*
X40534271Y57470834D01*
X40538096Y57471666D01*
X40564454Y57474500D01*
X51258736Y57474500D01*
X51302706Y57466442D01*
X51340961Y57443317D01*
X51368435Y57418978D01*
X51377760Y57410717D01*
X51517635Y57337304D01*
X51671015Y57299500D01*
X51828985Y57299500D01*
X51982365Y57337304D01*
X52122240Y57410717D01*
X52240483Y57515470D01*
X52330220Y57645477D01*
X52386237Y57793182D01*
X52405278Y57950000D01*
X52386237Y58106818D01*
X52330220Y58254523D01*
X52330219Y58254524D01*
X52329459Y58256529D01*
X52322305Y58315447D01*
X52343351Y58370940D01*
X52387775Y58410297D01*
X52445401Y58424500D01*
X54348126Y58424500D01*
X54395579Y58415061D01*
X54435807Y58388181D01*
X56393231Y56430757D01*
X56405012Y56417125D01*
X56418698Y56398742D01*
X56455255Y56368066D01*
X56463229Y56360759D01*
X56466874Y56357114D01*
X56490313Y56338581D01*
X56493108Y56336304D01*
X56549803Y56288732D01*
X56565131Y56278967D01*
X56566535Y56278312D01*
X56566537Y56278311D01*
X56632255Y56247667D01*
X56635354Y56246167D01*
X56700175Y56213612D01*
X56700179Y56213612D01*
X56701563Y56212916D01*
X56718726Y56206951D01*
X56720237Y56206639D01*
X56720244Y56206636D01*
X56791299Y56191965D01*
X56794646Y56191223D01*
X56865201Y56174500D01*
X56865206Y56174500D01*
X56866712Y56174143D01*
X56884786Y56172296D01*
X56886333Y56172341D01*
X56886338Y56172340D01*
X56956940Y56174395D01*
X56958782Y56174448D01*
X56962388Y56174500D01*
X65348126Y56174500D01*
X65395579Y56165061D01*
X65435807Y56138181D01*
X67258181Y54315807D01*
X67285061Y54275579D01*
X67294500Y54228126D01*
X67294500Y53523999D01*
X67306613Y53431992D01*
X67323228Y53369985D01*
X67358740Y53284250D01*
X67415236Y53210624D01*
X67460623Y53165237D01*
X67534249Y53108741D01*
X67607780Y53078284D01*
X67619989Y53073227D01*
X67681989Y53056614D01*
X67743329Y53048539D01*
X67773999Y53044500D01*
X67774000Y53044500D01*
X68976000Y53044500D01*
X68976001Y53044500D01*
X68999002Y53047529D01*
X69068011Y53056614D01*
X69130011Y53073227D01*
X69215750Y53108741D01*
X69215749Y53108741D01*
X69295824Y53170184D01*
X69296494Y53169311D01*
X69327549Y53190061D01*
X69375002Y53199500D01*
X70799903Y53199500D01*
X70847356Y53190061D01*
X70887584Y53163181D01*
X71791799Y52258966D01*
X71802494Y52246771D01*
X71821717Y52221718D01*
X71947159Y52125464D01*
X72093238Y52064956D01*
X72218698Y52048439D01*
X72249999Y52044318D01*
X72249999Y52044319D01*
X72250000Y52044318D01*
X72281302Y52048440D01*
X72297487Y52049500D01*
X76299903Y52049500D01*
X76347356Y52040061D01*
X76387584Y52013181D01*
X78091802Y50308962D01*
X78102497Y50296767D01*
X78118906Y50275382D01*
X78121718Y50271718D01*
X78153212Y50247552D01*
X78153214Y50247550D01*
X78247159Y50175464D01*
X78393238Y50114956D01*
X78518698Y50098439D01*
X78549999Y50094318D01*
X78549999Y50094319D01*
X78550000Y50094318D01*
X78581302Y50098440D01*
X78597487Y50099500D01*
X82620500Y50099500D01*
X82682500Y50082887D01*
X82727887Y50037500D01*
X82744500Y49975500D01*
X82744500Y49623999D01*
X82756613Y49531992D01*
X82773228Y49469985D01*
X82808740Y49384250D01*
X82865236Y49310624D01*
X82910623Y49265237D01*
X82984249Y49208741D01*
X83069984Y49173229D01*
X83069989Y49173227D01*
X83131989Y49156614D01*
X83193329Y49148539D01*
X83223999Y49144500D01*
X84260948Y49144500D01*
X84323811Y49127384D01*
X84369320Y49080762D01*
X84384912Y49017504D01*
X84366282Y48955073D01*
X84318574Y48910704D01*
X84277762Y48889285D01*
X84159515Y48784529D01*
X84069780Y48654524D01*
X84013763Y48506819D01*
X83994721Y48350001D01*
X84013763Y48193182D01*
X84069780Y48045477D01*
X84159515Y47915472D01*
X84159516Y47915471D01*
X84159517Y47915470D01*
X84277760Y47810717D01*
X84417635Y47737304D01*
X84571015Y47699500D01*
X84728985Y47699500D01*
X84882365Y47737304D01*
X85022240Y47810717D01*
X85140483Y47915470D01*
X85230220Y48045477D01*
X85286237Y48193182D01*
X85305278Y48350000D01*
X85286237Y48506818D01*
X85230220Y48654523D01*
X85140483Y48784530D01*
X85022240Y48889283D01*
X84981426Y48910704D01*
X84882364Y48962697D01*
X84726186Y49001190D01*
X84666648Y49035464D01*
X84634492Y49096172D01*
X84639589Y49164681D01*
X84680373Y49219962D01*
X84739376Y49265237D01*
X84784763Y49310624D01*
X84841259Y49384250D01*
X84876773Y49469989D01*
X84893386Y49531989D01*
X84905500Y49624000D01*
X84905500Y50200000D01*
X89994721Y50200000D01*
X90013763Y50043182D01*
X90069780Y49895477D01*
X90159515Y49765472D01*
X90159516Y49765471D01*
X90159517Y49765470D01*
X90277760Y49660717D01*
X90417635Y49587304D01*
X90571015Y49549500D01*
X90728985Y49549500D01*
X90882365Y49587304D01*
X91022240Y49660717D01*
X91140483Y49765470D01*
X91230220Y49895477D01*
X91286237Y50043182D01*
X91305278Y50200000D01*
X91286237Y50356818D01*
X91230220Y50504523D01*
X91148605Y50622763D01*
X91140484Y50634529D01*
X91071695Y50695470D01*
X91022240Y50739283D01*
X91008994Y50746235D01*
X90882364Y50812697D01*
X90728985Y50850500D01*
X90571015Y50850500D01*
X90417635Y50812697D01*
X90277761Y50739284D01*
X90159515Y50634529D01*
X90069780Y50504524D01*
X90013763Y50356819D01*
X89994721Y50200000D01*
X84905500Y50200000D01*
X84905500Y50976000D01*
X84893386Y51068011D01*
X84876773Y51130011D01*
X84876771Y51130016D01*
X84841259Y51215751D01*
X84784763Y51289377D01*
X84739376Y51334764D01*
X84665750Y51391260D01*
X84580015Y51426772D01*
X84518008Y51443387D01*
X84426001Y51455500D01*
X84426000Y51455500D01*
X83224000Y51455500D01*
X83223999Y51455500D01*
X83131991Y51443387D01*
X83069984Y51426772D01*
X82984249Y51391260D01*
X82904176Y51329816D01*
X82903505Y51330690D01*
X82872451Y51309939D01*
X82824998Y51300500D01*
X78850098Y51300500D01*
X78802645Y51309939D01*
X78762417Y51336819D01*
X77058199Y53041036D01*
X77047503Y53053232D01*
X77028281Y53078284D01*
X76902840Y53174537D01*
X76756762Y53235044D01*
X76639361Y53250500D01*
X76634780Y53251103D01*
X76600000Y53255683D01*
X76572163Y53252018D01*
X76568697Y53251561D01*
X76552513Y53250500D01*
X72550097Y53250500D01*
X72502644Y53259939D01*
X72462416Y53286819D01*
X71558199Y54191036D01*
X71547503Y54203232D01*
X71528281Y54228284D01*
X71402840Y54324537D01*
X71256762Y54385044D01*
X71139361Y54400500D01*
X71134780Y54401103D01*
X71100000Y54405683D01*
X71072163Y54402018D01*
X71068697Y54401561D01*
X71052513Y54400500D01*
X69579500Y54400500D01*
X69517500Y54417113D01*
X69472113Y54462500D01*
X69455500Y54524500D01*
X69455500Y54876001D01*
X69443386Y54968009D01*
X69443386Y54968011D01*
X69426773Y55030011D01*
X69391259Y55115750D01*
X69391259Y55115751D01*
X69334763Y55189377D01*
X69289376Y55234764D01*
X69215750Y55291260D01*
X69130015Y55326772D01*
X69068008Y55343387D01*
X68976001Y55355500D01*
X68976000Y55355500D01*
X68321874Y55355500D01*
X68274421Y55364939D01*
X68234193Y55391819D01*
X66256769Y57369242D01*
X66244985Y57382878D01*
X66231302Y57401259D01*
X66194745Y57431933D01*
X66186769Y57439242D01*
X66183126Y57442885D01*
X66159679Y57461425D01*
X66156884Y57463702D01*
X66100202Y57511265D01*
X66084867Y57521034D01*
X66083463Y57521689D01*
X66017843Y57552288D01*
X66014598Y57553859D01*
X65948445Y57587082D01*
X65931275Y57593050D01*
X65858810Y57608014D01*
X65855294Y57608794D01*
X65783290Y57625858D01*
X65765214Y57627705D01*
X65763662Y57627660D01*
X65702706Y57625887D01*
X65691218Y57625552D01*
X65687612Y57625500D01*
X57301874Y57625500D01*
X57254421Y57634939D01*
X57214193Y57661819D01*
X55256769Y59619242D01*
X55244985Y59632878D01*
X55231302Y59651259D01*
X55194745Y59681933D01*
X55186769Y59689242D01*
X55183126Y59692885D01*
X55159679Y59711425D01*
X55156884Y59713702D01*
X55100202Y59761265D01*
X55084867Y59771034D01*
X55083463Y59771689D01*
X55017843Y59802288D01*
X55014598Y59803859D01*
X54948445Y59837082D01*
X54931275Y59843050D01*
X54858810Y59858014D01*
X54855294Y59858794D01*
X54783290Y59875858D01*
X54765214Y59877705D01*
X54763662Y59877660D01*
X54702706Y59875887D01*
X54691218Y59875552D01*
X54687612Y59875500D01*
X51301874Y59875500D01*
X51254421Y59884939D01*
X51214193Y59911819D01*
X50461819Y60664192D01*
X50434939Y60704420D01*
X50425500Y60751873D01*
X50425500Y68525000D01*
X94657501Y68525000D01*
X94657501Y67955205D01*
X94660409Y67930127D01*
X94705713Y67827521D01*
X94785019Y67748215D01*
X94887625Y67702910D01*
X94912708Y67700001D01*
X97257499Y67700001D01*
X97257500Y67700002D01*
X97257500Y68525000D01*
X94657501Y68525000D01*
X50425500Y68525000D01*
X50425500Y68825000D01*
X94657500Y68825000D01*
X97257500Y68825000D01*
X97257500Y69650000D01*
X94912704Y69650000D01*
X94887626Y69647091D01*
X94785020Y69601787D01*
X94705714Y69522481D01*
X94660409Y69419875D01*
X94657500Y69394792D01*
X94657500Y68825000D01*
X50425500Y68825000D01*
X50425500Y71398126D01*
X50434939Y71445579D01*
X50461819Y71485807D01*
X53151012Y74175000D01*
X94657501Y74175000D01*
X94657501Y73605205D01*
X94660409Y73580127D01*
X94705713Y73477521D01*
X94785019Y73398215D01*
X94887625Y73352910D01*
X94912708Y73350001D01*
X97257499Y73350001D01*
X97257500Y73350002D01*
X97257500Y74175000D01*
X94657501Y74175000D01*
X53151012Y74175000D01*
X53451012Y74475000D01*
X94657500Y74475000D01*
X97257500Y74475000D01*
X97257500Y75300000D01*
X94912704Y75300000D01*
X94887626Y75297091D01*
X94785020Y75251787D01*
X94705714Y75172481D01*
X94660409Y75069875D01*
X94657500Y75044792D01*
X94657500Y74475000D01*
X53451012Y74475000D01*
X59514193Y80538181D01*
X59554421Y80565061D01*
X59601874Y80574500D01*
X64262575Y80574500D01*
X64314979Y80562882D01*
X64357564Y80530206D01*
X64382348Y80482597D01*
X64385324Y80471490D01*
X64385728Y80469985D01*
X64421240Y80384250D01*
X64477736Y80310624D01*
X64523123Y80265237D01*
X64596749Y80208741D01*
X64632724Y80193840D01*
X64682489Y80173227D01*
X64744489Y80156614D01*
X64805829Y80148539D01*
X64836499Y80144500D01*
X64836500Y80144500D01*
X66038500Y80144500D01*
X66038501Y80144500D01*
X66064370Y80147906D01*
X66130511Y80156614D01*
X66192511Y80173227D01*
X66278250Y80208741D01*
X66351876Y80265237D01*
X66397263Y80310624D01*
X66453759Y80384250D01*
X66489273Y80469989D01*
X66505886Y80531989D01*
X66518000Y80624000D01*
X66518000Y81516355D01*
X66520562Y81541430D01*
X66531248Y81593182D01*
X66540159Y81636337D01*
X66535226Y81805863D01*
X66522225Y81854384D01*
X66518000Y81886477D01*
X66518000Y81976001D01*
X66511421Y82025972D01*
X66505886Y82068011D01*
X66489273Y82130011D01*
X66453759Y82215750D01*
X66453759Y82215751D01*
X66397263Y82289377D01*
X66351876Y82334764D01*
X66278250Y82391260D01*
X66192515Y82426772D01*
X66130508Y82443387D01*
X66038501Y82455500D01*
X66038500Y82455500D01*
X64836500Y82455500D01*
X64836499Y82455500D01*
X64744491Y82443387D01*
X64682484Y82426772D01*
X64596749Y82391260D01*
X64523123Y82334764D01*
X64477736Y82289377D01*
X64421240Y82215751D01*
X64385728Y82130016D01*
X64385727Y82130011D01*
X64382348Y82117404D01*
X64357564Y82069794D01*
X64314979Y82037118D01*
X64262575Y82025500D01*
X59311894Y82025500D01*
X59293924Y82026809D01*
X59282450Y82028490D01*
X59271245Y82030131D01*
X59271244Y82030131D01*
X59223709Y82025972D01*
X59212902Y82025500D01*
X59207743Y82025500D01*
X59178048Y82022030D01*
X59174465Y82021664D01*
X59100755Y82015215D01*
X59083005Y82011280D01*
X59013484Y81985977D01*
X59010080Y81984794D01*
X58939834Y81961517D01*
X58923476Y81953597D01*
X58861633Y81912923D01*
X58858593Y81910987D01*
X58795644Y81872160D01*
X58781537Y81860668D01*
X58730747Y81806835D01*
X58728236Y81804250D01*
X49230760Y72306773D01*
X49217132Y72294995D01*
X49198742Y72281303D01*
X49168064Y72244744D01*
X49160768Y72236781D01*
X49157116Y72233129D01*
X49138584Y72209692D01*
X49136310Y72206900D01*
X49088738Y72150205D01*
X49078961Y72134859D01*
X49047699Y72067818D01*
X49046129Y72064574D01*
X49012919Y71998446D01*
X49006947Y71981262D01*
X48991985Y71908811D01*
X48991206Y71905296D01*
X48974142Y71833292D01*
X48972295Y71815215D01*
X48974448Y71741218D01*
X48974500Y71737612D01*
X48974500Y68287056D01*
X48955834Y68221629D01*
X48905456Y68175899D01*
X48838532Y68163635D01*
X48775212Y68188528D01*
X48734558Y68243085D01*
X48730220Y68254524D01*
X48640484Y68384529D01*
X48534768Y68478184D01*
X48522240Y68489283D01*
X48454188Y68525000D01*
X48382364Y68562697D01*
X48228985Y68600500D01*
X48071015Y68600500D01*
X47917635Y68562697D01*
X47777761Y68489284D01*
X47777759Y68489283D01*
X47777760Y68489283D01*
X47765228Y68478182D01*
X47726977Y68455058D01*
X47683006Y68447000D01*
X41316994Y68447000D01*
X41273023Y68455058D01*
X41234771Y68478182D01*
X41222240Y68489283D01*
X41154188Y68525000D01*
X41082364Y68562697D01*
X40928985Y68600500D01*
X40771015Y68600500D01*
X40617635Y68562697D01*
X40477761Y68489284D01*
X40359515Y68384529D01*
X40269780Y68254524D01*
X40213763Y68106819D01*
X40194721Y67950000D01*
X40213763Y67793182D01*
X40269780Y67645477D01*
X40359515Y67515472D01*
X40359516Y67515471D01*
X40359517Y67515470D01*
X40477760Y67410717D01*
X40617635Y67337304D01*
X40771015Y67299500D01*
X40928985Y67299500D01*
X41082365Y67337304D01*
X41222240Y67410717D01*
X41234771Y67421819D01*
X41273023Y67444942D01*
X41316994Y67453000D01*
X47683006Y67453000D01*
X47726977Y67444942D01*
X47765228Y67421819D01*
X47777760Y67410717D01*
X47917635Y67337304D01*
X48071015Y67299500D01*
X48228985Y67299500D01*
X48382365Y67337304D01*
X48522240Y67410717D01*
X48640483Y67515470D01*
X48730220Y67645477D01*
X48734557Y67656915D01*
X48775212Y67711472D01*
X48838532Y67736365D01*
X48905456Y67724101D01*
X48955834Y67678371D01*
X48974500Y67612944D01*
X48974500Y60461887D01*
X48973191Y60443917D01*
X48969870Y60421244D01*
X48974028Y60373716D01*
X48974500Y60362909D01*
X48974500Y60357745D01*
X48977971Y60328044D01*
X48978337Y60324459D01*
X48984785Y60250755D01*
X48988721Y60233000D01*
X49014018Y60163496D01*
X49015202Y60160092D01*
X49038481Y60089840D01*
X49046405Y60073474D01*
X49087051Y60011673D01*
X49088987Y60008634D01*
X49127845Y59945638D01*
X49139327Y59931544D01*
X49140450Y59930485D01*
X49140451Y59930483D01*
X49160234Y59911819D01*
X49193147Y59880767D01*
X49195734Y59878254D01*
X50393231Y58680757D01*
X50405012Y58667125D01*
X50417362Y58650536D01*
X50418699Y58648741D01*
X50423768Y58644487D01*
X50459032Y58595949D01*
X50467381Y58536536D01*
X50446860Y58480159D01*
X50402274Y58440014D01*
X50344060Y58425500D01*
X40748321Y58425500D01*
X40700868Y58434939D01*
X40660640Y58461819D01*
X39831808Y59290651D01*
X39815174Y59311292D01*
X39813055Y59314589D01*
X39777565Y59345341D01*
X39771086Y59351373D01*
X39762180Y59360279D01*
X39752093Y59367830D01*
X39745214Y59373373D01*
X39709718Y59404130D01*
X39709716Y59404131D01*
X39706150Y59405760D01*
X39683369Y59419278D01*
X39680231Y59421627D01*
X39645636Y59434530D01*
X39636219Y59438043D01*
X39628045Y59441429D01*
X39585343Y59460931D01*
X39584654Y59461030D01*
X39581458Y59461490D01*
X39555781Y59468044D01*
X39552115Y59469412D01*
X39505275Y59472763D01*
X39496491Y59473707D01*
X39484012Y59475500D01*
X39484011Y59475500D01*
X39471422Y59475500D01*
X39462575Y59475816D01*
X39415729Y59479167D01*
X39415728Y59479167D01*
X39411900Y59478334D01*
X39385541Y59475500D01*
X16191264Y59475500D01*
X16147294Y59483558D01*
X16109039Y59506683D01*
X16072241Y59539282D01*
X16072240Y59539283D01*
X16002302Y59575990D01*
X15932364Y59612697D01*
X15778985Y59650500D01*
X15621015Y59650500D01*
X15467635Y59612697D01*
X15327761Y59539284D01*
X15209515Y59434529D01*
X15119780Y59304524D01*
X15063763Y59156819D01*
X15044721Y59000000D01*
X15059410Y58879027D01*
X15052256Y58820110D01*
X15018541Y58771266D01*
X14965990Y58743684D01*
X14906640Y58743684D01*
X14878985Y58750500D01*
X14721015Y58750500D01*
X14567635Y58712697D01*
X14427761Y58639284D01*
X14309515Y58534529D01*
X14219780Y58404524D01*
X14163763Y58256819D01*
X14144721Y58100000D01*
X500000Y58100000D01*
X500000Y61650000D01*
X794357Y61650000D01*
X814885Y61428463D01*
X875769Y61214474D01*
X974941Y61015312D01*
X1109019Y60837763D01*
X1273437Y60687876D01*
X1462595Y60570755D01*
X1462597Y60570755D01*
X1462599Y60570753D01*
X1670060Y60490382D01*
X1888757Y60449500D01*
X2111241Y60449500D01*
X2111243Y60449500D01*
X2329940Y60490382D01*
X2537401Y60570753D01*
X2726562Y60687876D01*
X2890981Y60837764D01*
X3025058Y61015311D01*
X3124229Y61214472D01*
X3185115Y61428464D01*
X3205643Y61650000D01*
X3185115Y61871536D01*
X3162227Y61951979D01*
X3124230Y62085527D01*
X3025058Y62284689D01*
X2890980Y62462238D01*
X2726562Y62612125D01*
X2545878Y62723999D01*
X36694500Y62723999D01*
X36706613Y62631992D01*
X36723228Y62569985D01*
X36758740Y62484250D01*
X36815236Y62410624D01*
X36860623Y62365237D01*
X36934249Y62308741D01*
X36992317Y62284689D01*
X37019989Y62273227D01*
X37081989Y62256614D01*
X37143329Y62248539D01*
X37173999Y62244500D01*
X37174000Y62244500D01*
X44776000Y62244500D01*
X44776001Y62244500D01*
X44799002Y62247529D01*
X44868011Y62256614D01*
X44930011Y62273227D01*
X45015750Y62308741D01*
X45089376Y62365237D01*
X45134763Y62410624D01*
X45191259Y62484250D01*
X45226773Y62569989D01*
X45243386Y62631989D01*
X45255500Y62724000D01*
X45255500Y64176000D01*
X45253126Y64194028D01*
X45243386Y64268009D01*
X45243386Y64268011D01*
X45226773Y64330011D01*
X45216595Y64354583D01*
X45191259Y64415751D01*
X45134763Y64489377D01*
X45089376Y64534764D01*
X45015750Y64591260D01*
X44930015Y64626772D01*
X44868008Y64643387D01*
X44776001Y64655500D01*
X44776000Y64655500D01*
X37174000Y64655500D01*
X37173999Y64655500D01*
X37081991Y64643387D01*
X37019984Y64626772D01*
X36934249Y64591260D01*
X36860623Y64534764D01*
X36815236Y64489377D01*
X36758740Y64415751D01*
X36723228Y64330016D01*
X36706613Y64268009D01*
X36694500Y64176001D01*
X36694500Y62723999D01*
X2545878Y62723999D01*
X2537404Y62729246D01*
X2524249Y62734342D01*
X2484156Y62749875D01*
X2429998Y62790773D01*
X2405481Y62854059D01*
X2417952Y62920772D01*
X2463674Y62970927D01*
X2528952Y62989500D01*
X2883263Y62989500D01*
X2917326Y62994464D01*
X2951393Y62999427D01*
X3056483Y63050802D01*
X3139198Y63133517D01*
X3190573Y63238607D01*
X3200500Y63306740D01*
X3200500Y64920001D01*
X7194815Y64920001D01*
X7213503Y64742196D01*
X7268749Y64572165D01*
X7358140Y64417335D01*
X7477771Y64284473D01*
X7622403Y64179390D01*
X7622406Y64179389D01*
X7622407Y64179388D01*
X7630017Y64176000D01*
X7785735Y64106670D01*
X7960607Y64069500D01*
X7960609Y64069500D01*
X8139391Y64069500D01*
X8139393Y64069500D01*
X8314264Y64106670D01*
X8314265Y64106671D01*
X8314267Y64106671D01*
X8477593Y64179388D01*
X8477594Y64179389D01*
X8487457Y64183780D01*
X8537892Y64194500D01*
X12108113Y64194500D01*
X12126083Y64193191D01*
X12127745Y64192948D01*
X12148756Y64189870D01*
X12196283Y64194028D01*
X12207091Y64194500D01*
X12212253Y64194500D01*
X12212256Y64194500D01*
X12242010Y64197979D01*
X12245497Y64198335D01*
X12302949Y64203360D01*
X12319253Y64204786D01*
X12336985Y64208718D01*
X12338444Y64209250D01*
X12338451Y64209250D01*
X12406562Y64234042D01*
X12409895Y64235200D01*
X12478697Y64257997D01*
X12478696Y64257997D01*
X12480170Y64258485D01*
X12496520Y64266402D01*
X12497816Y64267255D01*
X12497820Y64267256D01*
X12558369Y64307081D01*
X12561352Y64308980D01*
X12623044Y64347032D01*
X12623044Y64347033D01*
X12624368Y64347849D01*
X12638442Y64359314D01*
X12639510Y64360447D01*
X12639517Y64360451D01*
X12689300Y64413220D01*
X12691712Y64415702D01*
X13864192Y65588181D01*
X13904421Y65615061D01*
X13951874Y65624500D01*
X33448126Y65624500D01*
X33495579Y65615061D01*
X33535807Y65588181D01*
X34298089Y64825899D01*
X34328339Y64776536D01*
X34368749Y64652165D01*
X34458140Y64497335D01*
X34577771Y64364473D01*
X34722403Y64259390D01*
X34722406Y64259389D01*
X34722407Y64259388D01*
X34776699Y64235216D01*
X34885735Y64186670D01*
X35060607Y64149500D01*
X35060609Y64149500D01*
X35239391Y64149500D01*
X35239393Y64149500D01*
X35414264Y64186670D01*
X35414265Y64186671D01*
X35414267Y64186671D01*
X35577593Y64259388D01*
X35589462Y64268011D01*
X35698223Y64347032D01*
X35722230Y64364474D01*
X35841859Y64497335D01*
X35931250Y64652165D01*
X35986497Y64822197D01*
X36005185Y65000000D01*
X35986497Y65177803D01*
X35931250Y65347835D01*
X35931250Y65347836D01*
X35841859Y65502666D01*
X35722228Y65635528D01*
X35577596Y65740611D01*
X35414267Y65813329D01*
X35384681Y65819618D01*
X35351297Y65831936D01*
X35322785Y65853227D01*
X34356771Y66819240D01*
X34344988Y66832875D01*
X34331303Y66851258D01*
X34294745Y66881933D01*
X34286769Y66889242D01*
X34283126Y66892885D01*
X34259679Y66911425D01*
X34256884Y66913702D01*
X34200202Y66961265D01*
X34184867Y66971034D01*
X34183463Y66971689D01*
X34117843Y67002288D01*
X34114598Y67003859D01*
X34048445Y67037082D01*
X34031275Y67043050D01*
X33958810Y67058014D01*
X33955294Y67058794D01*
X33883290Y67075858D01*
X33865214Y67077705D01*
X33863662Y67077660D01*
X33805653Y67075972D01*
X33791218Y67075552D01*
X33787612Y67075500D01*
X13661887Y67075500D01*
X13643917Y67076809D01*
X13631287Y67078659D01*
X13621244Y67080130D01*
X13621243Y67080130D01*
X13573716Y67075972D01*
X13562909Y67075500D01*
X13557744Y67075500D01*
X13528041Y67072029D01*
X13524457Y67071663D01*
X13450758Y67065215D01*
X13433000Y67061279D01*
X13363478Y67035975D01*
X13360074Y67034792D01*
X13289845Y67011520D01*
X13273466Y67003590D01*
X13211665Y66962945D01*
X13208629Y66961012D01*
X13145645Y66922161D01*
X13131537Y66910668D01*
X13080746Y66856834D01*
X13078235Y66854249D01*
X11905808Y65681819D01*
X11865580Y65654939D01*
X11818127Y65645500D01*
X8537892Y65645500D01*
X8487457Y65656220D01*
X8477593Y65660612D01*
X8429961Y65681819D01*
X8314264Y65733331D01*
X8139393Y65770500D01*
X8139391Y65770500D01*
X7960609Y65770500D01*
X7960607Y65770500D01*
X7785735Y65733331D01*
X7622408Y65660613D01*
X7477768Y65555526D01*
X7358140Y65422666D01*
X7268749Y65267836D01*
X7213503Y65097805D01*
X7194815Y64920001D01*
X3200500Y64920001D01*
X3200500Y65073260D01*
X3190573Y65141393D01*
X3139198Y65246483D01*
X3139197Y65246484D01*
X3139197Y65246485D01*
X3056484Y65329198D01*
X3002712Y65355485D01*
X2951393Y65380573D01*
X2951391Y65380574D01*
X2951390Y65380574D01*
X2883263Y65390500D01*
X2883260Y65390500D01*
X1116740Y65390500D01*
X1116737Y65390500D01*
X1048609Y65380574D01*
X943515Y65329198D01*
X860802Y65246485D01*
X809426Y65141391D01*
X799500Y65073263D01*
X799500Y63306737D01*
X809426Y63238610D01*
X860802Y63133516D01*
X943515Y63050803D01*
X943516Y63050803D01*
X943517Y63050802D01*
X1048607Y62999427D01*
X1075860Y62995457D01*
X1116737Y62989500D01*
X1471048Y62989500D01*
X1536326Y62970927D01*
X1582048Y62920772D01*
X1594519Y62854059D01*
X1570002Y62790773D01*
X1515843Y62749875D01*
X1490626Y62740106D01*
X1462595Y62729246D01*
X1273437Y62612125D01*
X1109019Y62462238D01*
X974941Y62284689D01*
X875769Y62085527D01*
X814885Y61871538D01*
X794357Y61650000D01*
X500000Y61650000D01*
X500000Y68650000D01*
X22544357Y68650000D01*
X22564885Y68428463D01*
X22625769Y68214474D01*
X22724941Y68015312D01*
X22859019Y67837763D01*
X23023437Y67687876D01*
X23212595Y67570755D01*
X23212597Y67570755D01*
X23212599Y67570753D01*
X23420060Y67490382D01*
X23638757Y67449500D01*
X23861241Y67449500D01*
X23861243Y67449500D01*
X24079940Y67490382D01*
X24287401Y67570753D01*
X24476562Y67687876D01*
X24640981Y67837764D01*
X24775058Y68015311D01*
X24795381Y68056127D01*
X24820103Y68105772D01*
X24865826Y68155927D01*
X24931103Y68174500D01*
X30573041Y68174500D01*
X30599399Y68171667D01*
X30603229Y68170833D01*
X30650075Y68174185D01*
X30658922Y68174500D01*
X30671511Y68174500D01*
X30683985Y68176294D01*
X30692769Y68177239D01*
X30739615Y68180589D01*
X30741988Y68181475D01*
X30743278Y68181955D01*
X30768965Y68188512D01*
X30772842Y68189069D01*
X30815572Y68208585D01*
X30823707Y68211955D01*
X30867726Y68228371D01*
X30870861Y68230719D01*
X30893653Y68244243D01*
X30897218Y68245870D01*
X30932703Y68276620D01*
X30939584Y68282165D01*
X30949680Y68289721D01*
X30949684Y68289725D01*
X30958583Y68298624D01*
X30965066Y68304660D01*
X31000552Y68335408D01*
X31000552Y68335409D01*
X31000555Y68335411D01*
X31002673Y68338708D01*
X31019303Y68359346D01*
X32473139Y69813181D01*
X32513368Y69840061D01*
X32560821Y69849500D01*
X32566485Y69849500D01*
X32719865Y69887304D01*
X32859740Y69960717D01*
X32977983Y70065470D01*
X33067720Y70195477D01*
X33123737Y70343182D01*
X33142778Y70500000D01*
X33123737Y70656818D01*
X33067720Y70804523D01*
X32977983Y70934530D01*
X32859740Y71039283D01*
X32846494Y71046235D01*
X32719864Y71112697D01*
X32566485Y71150500D01*
X32408515Y71150500D01*
X32255135Y71112697D01*
X32115261Y71039284D01*
X31997015Y70934529D01*
X31907280Y70804524D01*
X31851263Y70656819D01*
X31839753Y70562032D01*
X31828144Y70522696D01*
X31804338Y70489299D01*
X30476860Y69161819D01*
X30436632Y69134939D01*
X30389179Y69125500D01*
X24931103Y69125500D01*
X24865826Y69144073D01*
X24820103Y69194228D01*
X24775058Y69284689D01*
X24640980Y69462238D01*
X24476562Y69612125D01*
X24287403Y69729246D01*
X24287401Y69729247D01*
X24103798Y69800376D01*
X24049640Y69841274D01*
X24025123Y69904560D01*
X24037594Y69971273D01*
X24083316Y70021428D01*
X24148594Y70040001D01*
X24644795Y70040001D01*
X24669873Y70042910D01*
X24772479Y70088214D01*
X24851785Y70167520D01*
X24897090Y70270126D01*
X24900000Y70295208D01*
X24900000Y71040000D01*
X22600001Y71040000D01*
X22600001Y70295205D01*
X22602909Y70270127D01*
X22648213Y70167521D01*
X22727519Y70088215D01*
X22830125Y70042910D01*
X22855208Y70040001D01*
X23351404Y70040001D01*
X23416681Y70021428D01*
X23462404Y69971273D01*
X23474875Y69904560D01*
X23450358Y69841275D01*
X23396198Y69800375D01*
X23212600Y69729249D01*
X23023437Y69612125D01*
X22859019Y69462238D01*
X22724941Y69284689D01*
X22625769Y69085527D01*
X22564885Y68871538D01*
X22544357Y68650000D01*
X500000Y68650000D01*
X500000Y70000001D01*
X12244721Y70000001D01*
X12263763Y69843182D01*
X12319780Y69695477D01*
X12409515Y69565472D01*
X12409516Y69565471D01*
X12409517Y69565470D01*
X12527760Y69460717D01*
X12667635Y69387304D01*
X12821015Y69349500D01*
X12978985Y69349500D01*
X13132365Y69387304D01*
X13272240Y69460717D01*
X13295187Y69481047D01*
X13309039Y69493317D01*
X13347294Y69516442D01*
X13391264Y69524500D01*
X15135541Y69524500D01*
X15161899Y69521667D01*
X15165729Y69520833D01*
X15212575Y69524185D01*
X15221422Y69524500D01*
X15234011Y69524500D01*
X15246485Y69526294D01*
X15255269Y69527239D01*
X15302115Y69530589D01*
X15304488Y69531475D01*
X15305778Y69531955D01*
X15331465Y69538512D01*
X15335342Y69539069D01*
X15378072Y69558585D01*
X15386207Y69561955D01*
X15430226Y69578371D01*
X15433361Y69580719D01*
X15456153Y69594243D01*
X15459718Y69595870D01*
X15495203Y69626620D01*
X15502084Y69632165D01*
X15512180Y69639721D01*
X15512184Y69639725D01*
X15521083Y69648624D01*
X15527566Y69654660D01*
X15550107Y69674193D01*
X15563055Y69685411D01*
X15565171Y69688706D01*
X15581807Y69709349D01*
X15660642Y69788182D01*
X15700870Y69815061D01*
X15748322Y69824500D01*
X17058736Y69824500D01*
X17102706Y69816442D01*
X17140961Y69793317D01*
X17162766Y69774000D01*
X17177760Y69760717D01*
X17317635Y69687304D01*
X17471015Y69649500D01*
X17628985Y69649500D01*
X17782365Y69687304D01*
X17922240Y69760717D01*
X18040483Y69865470D01*
X18130220Y69995477D01*
X18186237Y70143182D01*
X18205278Y70300000D01*
X18186237Y70456818D01*
X18130220Y70604523D01*
X18061467Y70704130D01*
X18040484Y70734529D01*
X17997326Y70772763D01*
X17922240Y70839283D01*
X17830745Y70887304D01*
X17782364Y70912697D01*
X17628985Y70950500D01*
X17471015Y70950500D01*
X17317635Y70912697D01*
X17177758Y70839282D01*
X17140961Y70806683D01*
X17102706Y70783558D01*
X17058736Y70775500D01*
X15564459Y70775500D01*
X15538100Y70778334D01*
X15534271Y70779167D01*
X15487425Y70775816D01*
X15478578Y70775500D01*
X15465988Y70775500D01*
X15453509Y70773707D01*
X15444725Y70772763D01*
X15397883Y70769411D01*
X15394212Y70768042D01*
X15368535Y70761489D01*
X15364657Y70760932D01*
X15321944Y70741426D01*
X15313770Y70738040D01*
X15269773Y70721630D01*
X15266630Y70719277D01*
X15243857Y70705765D01*
X15240284Y70704133D01*
X15204800Y70673387D01*
X15197921Y70667842D01*
X15187818Y70660278D01*
X15178898Y70651359D01*
X15172429Y70645337D01*
X15136943Y70614588D01*
X15134825Y70611292D01*
X15118196Y70590658D01*
X15039360Y70511820D01*
X14999131Y70484939D01*
X14951678Y70475500D01*
X13391264Y70475500D01*
X13347294Y70483558D01*
X13309039Y70506683D01*
X13272241Y70539282D01*
X13272240Y70539283D01*
X13202302Y70575990D01*
X13132364Y70612697D01*
X12978985Y70650500D01*
X12821015Y70650500D01*
X12667635Y70612697D01*
X12527761Y70539284D01*
X12409515Y70434529D01*
X12319780Y70304524D01*
X12263763Y70156819D01*
X12244721Y70000001D01*
X500000Y70000001D01*
X500000Y71340000D01*
X22600000Y71340000D01*
X23600000Y71340000D01*
X23600000Y72339999D01*
X22855205Y72339999D01*
X22830126Y72337091D01*
X22727520Y72291787D01*
X22648214Y72212481D01*
X22602909Y72109875D01*
X22600000Y72084792D01*
X22600000Y71340000D01*
X500000Y71340000D01*
X500000Y73390000D01*
X2739754Y73390000D01*
X2773364Y73210199D01*
X2853702Y73002822D01*
X2970778Y72813738D01*
X3120600Y72649391D01*
X3298077Y72515366D01*
X3497152Y72416239D01*
X3711054Y72355379D01*
X3877019Y72340000D01*
X4682500Y72340000D01*
X4682500Y73390000D01*
X4982500Y73390000D01*
X4982500Y72340000D01*
X5787981Y72340000D01*
X23900000Y72340000D01*
X23900000Y71340000D01*
X24899999Y71340000D01*
X24899999Y71500001D01*
X25544721Y71500001D01*
X25563763Y71343182D01*
X25619780Y71195477D01*
X25709515Y71065472D01*
X25709516Y71065471D01*
X25709517Y71065470D01*
X25827760Y70960717D01*
X25967635Y70887304D01*
X26121015Y70849500D01*
X26278985Y70849500D01*
X26432365Y70887304D01*
X26572240Y70960717D01*
X26595187Y70981047D01*
X26609039Y70993317D01*
X26647294Y71016442D01*
X26691264Y71024500D01*
X28258736Y71024500D01*
X28302706Y71016442D01*
X28340961Y70993317D01*
X28368435Y70968978D01*
X28377760Y70960717D01*
X28517635Y70887304D01*
X28671015Y70849500D01*
X28828985Y70849500D01*
X28982365Y70887304D01*
X29122240Y70960717D01*
X29240483Y71065470D01*
X29330220Y71195477D01*
X29386237Y71343182D01*
X29405278Y71500000D01*
X29386237Y71656818D01*
X29330220Y71804523D01*
X29259451Y71907050D01*
X29240484Y71934529D01*
X29240483Y71934530D01*
X29122240Y72039283D01*
X29035531Y72084792D01*
X28982364Y72112697D01*
X28828985Y72150500D01*
X28671015Y72150500D01*
X28517635Y72112697D01*
X28377758Y72039282D01*
X28340961Y72006683D01*
X28302706Y71983558D01*
X28258736Y71975500D01*
X26691264Y71975500D01*
X26647294Y71983558D01*
X26609039Y72006683D01*
X26572241Y72039282D01*
X26572240Y72039283D01*
X26485525Y72084795D01*
X26432364Y72112697D01*
X26278985Y72150500D01*
X26121015Y72150500D01*
X25967635Y72112697D01*
X25827761Y72039284D01*
X25709515Y71934529D01*
X25619780Y71804524D01*
X25563763Y71656819D01*
X25544721Y71500001D01*
X24899999Y71500001D01*
X24899999Y72084795D01*
X24897090Y72109874D01*
X24851786Y72212480D01*
X24772480Y72291786D01*
X24669874Y72337091D01*
X24644792Y72340000D01*
X23900000Y72340000D01*
X5787981Y72340000D01*
X5953945Y72355379D01*
X6167847Y72416239D01*
X6366922Y72515366D01*
X6544399Y72649391D01*
X6694221Y72813738D01*
X6811297Y73002822D01*
X6891635Y73210199D01*
X6925246Y73390000D01*
X4982500Y73390000D01*
X4682500Y73390000D01*
X2739754Y73390000D01*
X500000Y73390000D01*
X500000Y73690000D01*
X2739754Y73690000D01*
X4682500Y73690000D01*
X4682500Y74740000D01*
X4982500Y74740000D01*
X4982500Y73690000D01*
X6925246Y73690000D01*
X6891635Y73869802D01*
X6811297Y74077179D01*
X6694221Y74266263D01*
X6544399Y74430610D01*
X6366922Y74564635D01*
X6167847Y74663762D01*
X6157391Y74666737D01*
X44859500Y74666737D01*
X44869426Y74598610D01*
X44920802Y74493516D01*
X45003515Y74410803D01*
X45003516Y74410803D01*
X45003517Y74410802D01*
X45108607Y74359427D01*
X45135860Y74355457D01*
X45176737Y74349500D01*
X45176740Y74349500D01*
X46943260Y74349500D01*
X46943263Y74349500D01*
X46977326Y74354464D01*
X47011393Y74359427D01*
X47116483Y74410802D01*
X47199198Y74493517D01*
X47250573Y74598607D01*
X47255536Y74632674D01*
X47260500Y74666737D01*
X47260500Y75019579D01*
X47277885Y75082897D01*
X47325165Y75128461D01*
X47389082Y75143494D01*
X47451715Y75123782D01*
X47495500Y75074851D01*
X47574941Y74915312D01*
X47709019Y74737763D01*
X47873437Y74587876D01*
X48062595Y74470755D01*
X48062597Y74470755D01*
X48062599Y74470753D01*
X48270060Y74390382D01*
X48488757Y74349500D01*
X48711241Y74349500D01*
X48711243Y74349500D01*
X48929940Y74390382D01*
X49137401Y74470753D01*
X49326562Y74587876D01*
X49490981Y74737764D01*
X49625058Y74915311D01*
X49724229Y75114472D01*
X49728210Y75128461D01*
X49747116Y75194915D01*
X49785115Y75328464D01*
X49805643Y75550000D01*
X49785115Y75771536D01*
X49734480Y75949500D01*
X49724230Y75985527D01*
X49625058Y76184689D01*
X49490980Y76362238D01*
X49326562Y76512125D01*
X49137404Y76629246D01*
X49056369Y76660639D01*
X48929940Y76709618D01*
X48711243Y76750500D01*
X48488757Y76750500D01*
X48270060Y76709619D01*
X48270060Y76709618D01*
X48062595Y76629246D01*
X47873437Y76512125D01*
X47709019Y76362238D01*
X47574941Y76184689D01*
X47495500Y76025149D01*
X47451715Y75976218D01*
X47389082Y75956506D01*
X47325165Y75971539D01*
X47277885Y76017103D01*
X47260500Y76080421D01*
X47260500Y76433263D01*
X47250573Y76501391D01*
X47250573Y76501393D01*
X47199198Y76606483D01*
X47199197Y76606484D01*
X47199197Y76606485D01*
X47116484Y76689198D01*
X47062712Y76715485D01*
X47011393Y76740573D01*
X47011391Y76740574D01*
X47011390Y76740574D01*
X46943263Y76750500D01*
X46943260Y76750500D01*
X45176740Y76750500D01*
X45176737Y76750500D01*
X45108609Y76740574D01*
X45003515Y76689198D01*
X44920802Y76606485D01*
X44869426Y76501391D01*
X44859500Y76433263D01*
X44859500Y74666737D01*
X6157391Y74666737D01*
X5953945Y74724622D01*
X5787981Y74740000D01*
X4982500Y74740000D01*
X4682500Y74740000D01*
X3877019Y74740000D01*
X3711054Y74724622D01*
X3497152Y74663762D01*
X3298077Y74564635D01*
X3120600Y74430610D01*
X2970778Y74266263D01*
X2853702Y74077179D01*
X2773364Y73869802D01*
X2739754Y73690000D01*
X500000Y73690000D01*
X500000Y76660638D01*
X2682000Y76660638D01*
X2697455Y76543240D01*
X2757964Y76397159D01*
X2854217Y76271718D01*
X2967637Y76184689D01*
X2979659Y76175464D01*
X3125738Y76114956D01*
X3243139Y76099500D01*
X6421860Y76099501D01*
X6421862Y76099501D01*
X6480561Y76107229D01*
X6539262Y76114956D01*
X6685341Y76175464D01*
X6810782Y76271718D01*
X6907036Y76397159D01*
X6967544Y76543238D01*
X6975017Y76600000D01*
X34482221Y76600000D01*
X34501263Y76443182D01*
X34557280Y76295477D01*
X34647015Y76165472D01*
X34647016Y76165471D01*
X34647017Y76165470D01*
X34765260Y76060717D01*
X34905135Y75987304D01*
X35058515Y75949500D01*
X35216485Y75949500D01*
X35369865Y75987304D01*
X35509740Y76060717D01*
X35555275Y76101058D01*
X35607825Y76128638D01*
X35667175Y76128638D01*
X35719724Y76101058D01*
X35765260Y76060717D01*
X35905135Y75987304D01*
X36058515Y75949500D01*
X36216485Y75949500D01*
X36369865Y75987304D01*
X36509740Y76060717D01*
X36555275Y76101058D01*
X36607825Y76128638D01*
X36667175Y76128638D01*
X36719724Y76101058D01*
X36765260Y76060717D01*
X36905135Y75987304D01*
X37058515Y75949500D01*
X37216485Y75949500D01*
X37369865Y75987304D01*
X37509740Y76060717D01*
X37555275Y76101058D01*
X37607825Y76128638D01*
X37667175Y76128638D01*
X37719724Y76101058D01*
X37765260Y76060717D01*
X37905135Y75987304D01*
X38058515Y75949500D01*
X38216485Y75949500D01*
X38369865Y75987304D01*
X38509740Y76060717D01*
X38555275Y76101058D01*
X38607825Y76128638D01*
X38667175Y76128638D01*
X38719724Y76101058D01*
X38765260Y76060717D01*
X38905135Y75987304D01*
X39058515Y75949500D01*
X39216485Y75949500D01*
X39369865Y75987304D01*
X39509740Y76060717D01*
X39627983Y76165470D01*
X39717720Y76295477D01*
X39773737Y76443182D01*
X39792778Y76600000D01*
X39773737Y76756818D01*
X39717720Y76904523D01*
X39648670Y77004560D01*
X39629226Y77050197D01*
X39629226Y77099803D01*
X39648670Y77145440D01*
X39663941Y77167566D01*
X39717720Y77245477D01*
X39773737Y77393182D01*
X39792778Y77550000D01*
X39773737Y77706818D01*
X39717720Y77854523D01*
X39672851Y77919527D01*
X39627984Y77984529D01*
X39610297Y78000198D01*
X39509740Y78089283D01*
X39496494Y78096236D01*
X39369864Y78162697D01*
X39216485Y78200500D01*
X39058515Y78200500D01*
X38905135Y78162697D01*
X38765258Y78089282D01*
X38719726Y78048944D01*
X38667175Y78021363D01*
X38607825Y78021363D01*
X38555274Y78048944D01*
X38509741Y78089282D01*
X38509740Y78089283D01*
X38439802Y78125990D01*
X38369864Y78162697D01*
X38216485Y78200500D01*
X38058515Y78200500D01*
X37905135Y78162697D01*
X37765258Y78089282D01*
X37719726Y78048944D01*
X37667175Y78021363D01*
X37607825Y78021363D01*
X37555274Y78048944D01*
X37509741Y78089282D01*
X37509740Y78089283D01*
X37439802Y78125990D01*
X37369864Y78162697D01*
X37216485Y78200500D01*
X37058515Y78200500D01*
X36905135Y78162697D01*
X36765258Y78089282D01*
X36719726Y78048944D01*
X36667175Y78021363D01*
X36607825Y78021363D01*
X36555274Y78048944D01*
X36509741Y78089282D01*
X36509740Y78089283D01*
X36439802Y78125990D01*
X36369864Y78162697D01*
X36216485Y78200500D01*
X36058515Y78200500D01*
X36058514Y78200500D01*
X35914076Y78164901D01*
X35847510Y78166913D01*
X35791586Y78203072D01*
X35762433Y78262948D01*
X35768461Y78329271D01*
X35773737Y78343182D01*
X35792778Y78500000D01*
X35773737Y78656818D01*
X35717720Y78804523D01*
X35627983Y78934530D01*
X35509740Y79039283D01*
X35489319Y79050001D01*
X35369864Y79112697D01*
X35216485Y79150500D01*
X35058515Y79150500D01*
X34905135Y79112697D01*
X34765261Y79039284D01*
X34647015Y78934529D01*
X34557280Y78804524D01*
X34501263Y78656819D01*
X34482221Y78500000D01*
X34501263Y78343182D01*
X34557279Y78195477D01*
X34626330Y78095441D01*
X34645774Y78049805D01*
X34645774Y78000198D01*
X34626330Y77954562D01*
X34557280Y77854526D01*
X34501263Y77706819D01*
X34482221Y77550001D01*
X34501263Y77393182D01*
X34557279Y77245477D01*
X34626330Y77145441D01*
X34645774Y77099805D01*
X34645774Y77050198D01*
X34626330Y77004562D01*
X34557280Y76904526D01*
X34501263Y76756819D01*
X34482221Y76600000D01*
X6975017Y76600000D01*
X6983000Y76660639D01*
X6982999Y78039360D01*
X6981737Y78048944D01*
X6967544Y78156761D01*
X6967544Y78156762D01*
X6907036Y78302841D01*
X6876081Y78343182D01*
X6810782Y78428283D01*
X6685340Y78524537D01*
X6539262Y78585044D01*
X6421862Y78600500D01*
X3243137Y78600500D01*
X3125739Y78585045D01*
X2979658Y78524536D01*
X2854217Y78428283D01*
X2757963Y78302841D01*
X2697456Y78156763D01*
X2682000Y78039363D01*
X2682000Y76660638D01*
X500000Y76660638D01*
X500000Y79850000D01*
X25544721Y79850000D01*
X25563763Y79693182D01*
X25619780Y79545477D01*
X25709515Y79415472D01*
X25709516Y79415471D01*
X25709517Y79415470D01*
X25827760Y79310717D01*
X25967635Y79237304D01*
X26121015Y79199500D01*
X26278985Y79199500D01*
X26432365Y79237304D01*
X26572240Y79310717D01*
X26690483Y79415470D01*
X26780220Y79545477D01*
X26836237Y79693182D01*
X26847745Y79787970D01*
X26859354Y79827305D01*
X26883157Y79860700D01*
X27090654Y80068197D01*
X27111292Y80084827D01*
X27114589Y80086945D01*
X27125468Y80099500D01*
X27145340Y80122434D01*
X27151376Y80128917D01*
X27160275Y80137816D01*
X27160275Y80137817D01*
X27160279Y80137820D01*
X27167835Y80147916D01*
X27173387Y80154804D01*
X27204130Y80190282D01*
X27205757Y80193847D01*
X27219281Y80216639D01*
X27221629Y80219774D01*
X27238045Y80263793D01*
X27241415Y80271928D01*
X27260931Y80314658D01*
X27261488Y80318535D01*
X27268045Y80344222D01*
X27268525Y80345512D01*
X27269411Y80347885D01*
X27272761Y80394731D01*
X27273707Y80403522D01*
X27275500Y80415989D01*
X27275500Y80428578D01*
X27275816Y80437425D01*
X27276392Y80445477D01*
X27279167Y80484271D01*
X27278333Y80488101D01*
X27275500Y80514459D01*
X27275500Y81251679D01*
X27284939Y81299132D01*
X27311819Y81339360D01*
X27421332Y81448873D01*
X27773674Y81801216D01*
X27826254Y81832462D01*
X27887377Y81834771D01*
X27942168Y81807580D01*
X27977293Y81757505D01*
X28019780Y81645477D01*
X28096718Y81534012D01*
X28102550Y81525564D01*
X28118885Y81492014D01*
X28124500Y81455124D01*
X28124500Y79544876D01*
X28118885Y79507986D01*
X28102550Y79474436D01*
X28019779Y79354524D01*
X27963763Y79206819D01*
X27944721Y79050001D01*
X27963763Y78893182D01*
X28019780Y78745477D01*
X28109515Y78615472D01*
X28109516Y78615471D01*
X28109517Y78615470D01*
X28227760Y78510717D01*
X28367635Y78437304D01*
X28521015Y78399500D01*
X28678985Y78399500D01*
X28832365Y78437304D01*
X28972240Y78510717D01*
X29090483Y78615470D01*
X29180220Y78745477D01*
X29236237Y78893182D01*
X29255278Y79050000D01*
X29237065Y79200001D01*
X49454721Y79200001D01*
X49473763Y79043182D01*
X49529780Y78895477D01*
X49619515Y78765472D01*
X49619516Y78765471D01*
X49619517Y78765470D01*
X49737760Y78660717D01*
X49877635Y78587304D01*
X50031015Y78549500D01*
X50188985Y78549500D01*
X50342365Y78587304D01*
X50482240Y78660717D01*
X50600483Y78765470D01*
X50690220Y78895477D01*
X50746237Y79043182D01*
X50765278Y79200000D01*
X50746237Y79356818D01*
X50690220Y79504523D01*
X50600483Y79634530D01*
X50482240Y79739283D01*
X50389482Y79787967D01*
X50342364Y79812697D01*
X50188985Y79850500D01*
X50031015Y79850500D01*
X49877635Y79812697D01*
X49737761Y79739284D01*
X49619515Y79634529D01*
X49529780Y79504524D01*
X49473763Y79356819D01*
X49454721Y79200001D01*
X29237065Y79200001D01*
X29236237Y79206818D01*
X29180220Y79354523D01*
X29180220Y79354524D01*
X29097450Y79474436D01*
X29081115Y79507986D01*
X29075500Y79544876D01*
X29075500Y81455124D01*
X29081115Y81492014D01*
X29097450Y81525564D01*
X29103282Y81534012D01*
X29180220Y81645477D01*
X29236237Y81793182D01*
X29255278Y81950000D01*
X29236237Y82106818D01*
X29180220Y82254523D01*
X29090483Y82384530D01*
X29064346Y82407685D01*
X29030631Y82456528D01*
X29023477Y82515446D01*
X29044523Y82570940D01*
X29088947Y82610296D01*
X29146573Y82624500D01*
X31460541Y82624500D01*
X31486899Y82621667D01*
X31490729Y82620833D01*
X31537575Y82624185D01*
X31546422Y82624500D01*
X31559011Y82624500D01*
X31571485Y82626294D01*
X31580269Y82627239D01*
X31627115Y82630589D01*
X31629488Y82631475D01*
X31630778Y82631955D01*
X31656465Y82638512D01*
X31660342Y82639069D01*
X31703072Y82658585D01*
X31711207Y82661955D01*
X31755226Y82678371D01*
X31758361Y82680719D01*
X31781153Y82694243D01*
X31784718Y82695870D01*
X31820203Y82726620D01*
X31827084Y82732165D01*
X31837180Y82739721D01*
X31837184Y82739725D01*
X31846083Y82748624D01*
X31852566Y82754660D01*
X31888052Y82785408D01*
X31888052Y82785409D01*
X31888055Y82785411D01*
X31890173Y82788708D01*
X31906803Y82809346D01*
X32347459Y83250001D01*
X61244721Y83250001D01*
X61263763Y83093182D01*
X61319780Y82945477D01*
X61409515Y82815472D01*
X61409516Y82815471D01*
X61409517Y82815470D01*
X61527760Y82710717D01*
X61667635Y82637304D01*
X61821015Y82599500D01*
X61978985Y82599500D01*
X62132365Y82637304D01*
X62242375Y82695043D01*
X62300000Y82709246D01*
X62357624Y82695043D01*
X62467635Y82637304D01*
X62621015Y82599500D01*
X62778985Y82599500D01*
X62932365Y82637304D01*
X63042375Y82695043D01*
X63100000Y82709246D01*
X63157624Y82695043D01*
X63267635Y82637304D01*
X63421015Y82599500D01*
X63578985Y82599500D01*
X63732365Y82637304D01*
X63872240Y82710717D01*
X63990483Y82815470D01*
X64080220Y82945477D01*
X64136237Y83093182D01*
X64155278Y83250000D01*
X64136237Y83406818D01*
X64080220Y83554523D01*
X63990483Y83684530D01*
X63872240Y83789283D01*
X63858994Y83796236D01*
X63732364Y83862697D01*
X63578985Y83900500D01*
X63477093Y83900500D01*
X63410820Y83919696D01*
X63365066Y83971341D01*
X63353997Y84039445D01*
X63355278Y84049999D01*
X63352299Y84074532D01*
X63336237Y84206818D01*
X63280220Y84354523D01*
X63190483Y84484530D01*
X63072240Y84589283D01*
X63040770Y84605800D01*
X62932364Y84662697D01*
X62778985Y84700500D01*
X62621015Y84700500D01*
X62467633Y84662697D01*
X62357626Y84604959D01*
X62300000Y84590755D01*
X62242374Y84604959D01*
X62132366Y84662697D01*
X61978985Y84700500D01*
X61821015Y84700500D01*
X61667635Y84662697D01*
X61527761Y84589284D01*
X61409515Y84484529D01*
X61319780Y84354524D01*
X61263763Y84206819D01*
X61244721Y84050000D01*
X61263763Y83893182D01*
X61303166Y83789283D01*
X61319780Y83745477D01*
X61321872Y83742446D01*
X61337062Y83720440D01*
X61356505Y83674805D01*
X61356506Y83625200D01*
X61337064Y83579565D01*
X61319780Y83554524D01*
X61263763Y83406819D01*
X61244721Y83250001D01*
X32347459Y83250001D01*
X32423139Y83325681D01*
X32463368Y83352561D01*
X32510821Y83362000D01*
X32516485Y83362000D01*
X32669865Y83399804D01*
X32809740Y83473217D01*
X32927983Y83577970D01*
X33017720Y83707977D01*
X33073737Y83855682D01*
X33092778Y84012500D01*
X33073737Y84169318D01*
X33017720Y84317023D01*
X32927983Y84447030D01*
X32809740Y84551783D01*
X32735486Y84590755D01*
X32669864Y84625197D01*
X32516485Y84663000D01*
X32358515Y84663000D01*
X32205135Y84625197D01*
X32065261Y84551784D01*
X31947015Y84447029D01*
X31857280Y84317024D01*
X31801263Y84169319D01*
X31789753Y84074532D01*
X31778144Y84035196D01*
X31754338Y84001799D01*
X31364360Y83611819D01*
X31324132Y83584939D01*
X31276679Y83575500D01*
X28464459Y83575500D01*
X28438100Y83578334D01*
X28434271Y83579167D01*
X28434270Y83579167D01*
X28387421Y83575816D01*
X28378574Y83575500D01*
X28365989Y83575500D01*
X28353520Y83573708D01*
X28344728Y83572763D01*
X28297886Y83569412D01*
X28294210Y83568041D01*
X28268540Y83561490D01*
X28264658Y83560931D01*
X28221947Y83541426D01*
X28213784Y83538045D01*
X28169772Y83521630D01*
X28166630Y83519277D01*
X28143857Y83505765D01*
X28140284Y83504133D01*
X28104800Y83473387D01*
X28097921Y83467842D01*
X28087818Y83460278D01*
X28078898Y83451359D01*
X28072429Y83445337D01*
X28036944Y83414589D01*
X28034825Y83411291D01*
X28018194Y83390655D01*
X26509345Y81881806D01*
X26488709Y81865175D01*
X26485411Y81863056D01*
X26454663Y81827571D01*
X26448641Y81821102D01*
X26439722Y81812182D01*
X26432158Y81802079D01*
X26426613Y81795200D01*
X26395867Y81759716D01*
X26394235Y81756143D01*
X26380723Y81733370D01*
X26378370Y81730227D01*
X26361960Y81686230D01*
X26358574Y81678056D01*
X26339068Y81635343D01*
X26338511Y81631465D01*
X26331958Y81605788D01*
X26330589Y81602117D01*
X26327237Y81555275D01*
X26326293Y81546491D01*
X26324500Y81534012D01*
X26324500Y81521422D01*
X26324184Y81512575D01*
X26320833Y81465729D01*
X26321666Y81461900D01*
X26324500Y81435541D01*
X26324500Y80698321D01*
X26315061Y80650868D01*
X26288181Y80610640D01*
X26214360Y80536819D01*
X26174132Y80509939D01*
X26126679Y80500500D01*
X26121015Y80500500D01*
X25967635Y80462697D01*
X25827761Y80389284D01*
X25709515Y80284529D01*
X25619780Y80154524D01*
X25563763Y80006819D01*
X25544721Y79850000D01*
X500000Y79850000D01*
X500000Y81750000D01*
X22544721Y81750000D01*
X22563763Y81593182D01*
X22619780Y81445477D01*
X22709515Y81315472D01*
X22709516Y81315471D01*
X22709517Y81315470D01*
X22827760Y81210717D01*
X22967634Y81137305D01*
X22967635Y81137304D01*
X23121015Y81099500D01*
X23294041Y81099500D01*
X23294041Y81099014D01*
X23345436Y81097462D01*
X23401362Y81061305D01*
X23430516Y81001430D01*
X23424491Y80935107D01*
X23413763Y80906819D01*
X23394721Y80750001D01*
X23413763Y80593182D01*
X23469780Y80445477D01*
X23559515Y80315472D01*
X23559516Y80315471D01*
X23559517Y80315470D01*
X23677760Y80210717D01*
X23817635Y80137304D01*
X23971015Y80099500D01*
X24128985Y80099500D01*
X24282365Y80137304D01*
X24417378Y80208166D01*
X24475000Y80222368D01*
X24532621Y80208166D01*
X24667635Y80137304D01*
X24821015Y80099500D01*
X24978985Y80099500D01*
X25132365Y80137304D01*
X25272240Y80210717D01*
X25390483Y80315470D01*
X25480220Y80445477D01*
X25536237Y80593182D01*
X25555278Y80750000D01*
X25536237Y80906818D01*
X25480220Y81054523D01*
X25480219Y81054526D01*
X25393914Y81179562D01*
X25374470Y81225198D01*
X25374470Y81274804D01*
X25393914Y81320441D01*
X25406973Y81339360D01*
X25480220Y81445477D01*
X25536237Y81593182D01*
X25555278Y81750000D01*
X25536237Y81906818D01*
X25480220Y82054523D01*
X25393913Y82179561D01*
X25374469Y82225198D01*
X25374469Y82274805D01*
X25393909Y82320435D01*
X25480220Y82445477D01*
X25536237Y82593182D01*
X25555278Y82750000D01*
X25536237Y82906818D01*
X25480220Y83054523D01*
X25435351Y83119527D01*
X25390484Y83184529D01*
X25384117Y83190170D01*
X25272240Y83289283D01*
X25258994Y83296236D01*
X25132364Y83362697D01*
X24978985Y83400500D01*
X24821015Y83400500D01*
X24667633Y83362697D01*
X24532626Y83291838D01*
X24475000Y83277634D01*
X24417374Y83291838D01*
X24282366Y83362697D01*
X24128985Y83400500D01*
X23971015Y83400500D01*
X23817635Y83362697D01*
X23677761Y83289284D01*
X23559515Y83184529D01*
X23469780Y83054524D01*
X23413763Y82906819D01*
X23394721Y82750001D01*
X23408191Y82639070D01*
X23413763Y82593182D01*
X23424491Y82564895D01*
X23430517Y82498574D01*
X23401365Y82438699D01*
X23345442Y82402541D01*
X23294041Y82400986D01*
X23294041Y82400500D01*
X23121015Y82400500D01*
X22967635Y82362697D01*
X22827761Y82289284D01*
X22709515Y82184529D01*
X22619780Y82054524D01*
X22563763Y81906819D01*
X22544721Y81750000D01*
X500000Y81750000D01*
X500000Y84549524D01*
X515936Y84610336D01*
X559648Y84655518D01*
X619900Y84673456D01*
X681206Y84659540D01*
X727808Y84617346D01*
X796174Y84512704D01*
X796179Y84512698D01*
X1031209Y84227317D01*
X1296206Y83969524D01*
X1587955Y83742446D01*
X1893671Y83554523D01*
X1902918Y83548839D01*
X2187401Y83414589D01*
X2237258Y83391061D01*
X2321910Y83362000D01*
X2586927Y83271019D01*
X2947691Y83190170D01*
X3315145Y83149500D01*
X3315148Y83149500D01*
X3592344Y83149500D01*
X3592349Y83149500D01*
X3869143Y83164771D01*
X4233805Y83225623D01*
X4589560Y83326220D01*
X4932089Y83465344D01*
X5257234Y83641303D01*
X5561049Y83851964D01*
X5839846Y84094768D01*
X6090240Y84366769D01*
X6253788Y84589283D01*
X6309193Y84664664D01*
X6494043Y84984836D01*
X6494044Y84984837D01*
X6642552Y85323402D01*
X6687384Y85466737D01*
X48909500Y85466737D01*
X48919426Y85398610D01*
X48970802Y85293516D01*
X49053515Y85210803D01*
X49053516Y85210803D01*
X49053517Y85210802D01*
X49158607Y85159427D01*
X49185860Y85155457D01*
X49226737Y85149500D01*
X49226740Y85149500D01*
X50993260Y85149500D01*
X50993263Y85149500D01*
X51027326Y85154464D01*
X51061393Y85159427D01*
X51166483Y85210802D01*
X51249198Y85293517D01*
X51300573Y85398607D01*
X51310500Y85466740D01*
X51310500Y85819579D01*
X51327885Y85882897D01*
X51375165Y85928461D01*
X51439082Y85943494D01*
X51501715Y85923782D01*
X51545500Y85874851D01*
X51624941Y85715312D01*
X51759019Y85537763D01*
X51923437Y85387876D01*
X52112595Y85270755D01*
X52112597Y85270755D01*
X52112599Y85270753D01*
X52320060Y85190382D01*
X52538757Y85149500D01*
X52761241Y85149500D01*
X52761243Y85149500D01*
X52979940Y85190382D01*
X53187401Y85270753D01*
X53376562Y85387876D01*
X53540981Y85537764D01*
X53675058Y85715311D01*
X53774229Y85914472D01*
X53778210Y85928461D01*
X53825702Y86095382D01*
X53835115Y86128464D01*
X53855643Y86350000D01*
X53835115Y86571536D01*
X53804160Y86680331D01*
X53774230Y86785527D01*
X53675058Y86984689D01*
X53540980Y87162238D01*
X53376562Y87312125D01*
X53187404Y87429246D01*
X53126174Y87452967D01*
X52979940Y87509618D01*
X52761243Y87550500D01*
X52538757Y87550500D01*
X52320059Y87509618D01*
X52320060Y87509618D01*
X52112595Y87429246D01*
X51923437Y87312125D01*
X51759019Y87162238D01*
X51624941Y86984689D01*
X51545500Y86825149D01*
X51501715Y86776218D01*
X51439082Y86756506D01*
X51375165Y86771539D01*
X51327885Y86817103D01*
X51310500Y86880421D01*
X51310500Y87233263D01*
X51300573Y87301391D01*
X51300573Y87301393D01*
X51249198Y87406483D01*
X51249197Y87406484D01*
X51249197Y87406485D01*
X51166484Y87489198D01*
X51112712Y87515485D01*
X51061393Y87540573D01*
X51061391Y87540574D01*
X51061390Y87540574D01*
X50993263Y87550500D01*
X50993260Y87550500D01*
X49226740Y87550500D01*
X49226737Y87550500D01*
X49158609Y87540574D01*
X49053515Y87489198D01*
X48970802Y87406485D01*
X48919426Y87301391D01*
X48909500Y87233263D01*
X48909500Y85466737D01*
X6687384Y85466737D01*
X6752915Y85676250D01*
X6823791Y86039097D01*
X6854321Y86407539D01*
X6844134Y86777103D01*
X6793354Y87143303D01*
X6702597Y87501695D01*
X6613048Y87740869D01*
X6572967Y87847921D01*
X6456950Y88077177D01*
X6406031Y88177797D01*
X6203821Y88487302D01*
X5968791Y88772683D01*
X5703794Y89030476D01*
X5412045Y89257554D01*
X5391206Y89270364D01*
X5347416Y89316383D01*
X5332161Y89378050D01*
X5349447Y89439180D01*
X5394737Y89483727D01*
X5456144Y89500000D01*
X94550104Y89500000D01*
X94610320Y89484398D01*
G37*
%TD.AperFunction*%
%TD*%
%TA.AperFunction,Conductor*%
%TO.N,V-5P0*%
G36*
X66100500Y82083387D02*
G01*
X66145887Y82038000D01*
X66162500Y81976000D01*
X66162500Y80624000D01*
X66145887Y80562000D01*
X66100500Y80516613D01*
X66038500Y80500000D01*
X64836500Y80500000D01*
X64774500Y80516613D01*
X64729113Y80562000D01*
X64712500Y80624000D01*
X64712500Y81976000D01*
X64729113Y82038000D01*
X64774500Y82083387D01*
X64836500Y82100000D01*
X66038500Y82100000D01*
X66100500Y82083387D01*
G37*
%TD.AperFunction*%
%TD*%
%TA.AperFunction,Conductor*%
%TO.N,+5V*%
G36*
X44838000Y64283387D02*
G01*
X44883387Y64238000D01*
X44900000Y64176000D01*
X44900000Y62724000D01*
X44883387Y62662000D01*
X44838000Y62616613D01*
X44776000Y62600000D01*
X37174000Y62600000D01*
X37112000Y62616613D01*
X37066613Y62662000D01*
X37050000Y62724000D01*
X37050000Y64176000D01*
X37066613Y64238000D01*
X37112000Y64283387D01*
X37174000Y64300000D01*
X44776000Y64300000D01*
X44838000Y64283387D01*
G37*
%TD.AperFunction*%
%TD*%
%TA.AperFunction,Conductor*%
%TO.N,V-5P0*%
G36*
X69038000Y54983387D02*
G01*
X69083387Y54938000D01*
X69100000Y54876000D01*
X69100000Y53524000D01*
X69083387Y53462000D01*
X69038000Y53416613D01*
X68976000Y53400000D01*
X67774000Y53400000D01*
X67712000Y53416613D01*
X67666613Y53462000D01*
X67650000Y53524000D01*
X67650000Y54876000D01*
X67666613Y54938000D01*
X67712000Y54983387D01*
X67774000Y55000000D01*
X68976000Y55000000D01*
X69038000Y54983387D01*
G37*
%TD.AperFunction*%
%TD*%
%TA.AperFunction,Conductor*%
%TO.N,V-5P0*%
G36*
X84488000Y51083387D02*
G01*
X84533387Y51038000D01*
X84550000Y50976000D01*
X84550000Y49624000D01*
X84533387Y49562000D01*
X84488000Y49516613D01*
X84426000Y49500000D01*
X83224000Y49500000D01*
X83162000Y49516613D01*
X83116613Y49562000D01*
X83100000Y49624000D01*
X83100000Y50976000D01*
X83116613Y51038000D01*
X83162000Y51083387D01*
X83224000Y51100000D01*
X84426000Y51100000D01*
X84488000Y51083387D01*
G37*
%TD.AperFunction*%
%TD*%
M02*
