%TF.GenerationSoftware,KiCad,Pcbnew,7.0.1*%
%TF.CreationDate,2023-06-24T00:20:47-07:00*%
%TF.ProjectId,Weather_Balloon_Payload_HW,57656174-6865-4725-9f42-616c6c6f6f6e,rev?*%
%TF.SameCoordinates,PX68e7780PY8583b00*%
%TF.FileFunction,Profile,NP*%
%FSLAX46Y46*%
G04 Gerber Fmt 4.6, Leading zero omitted, Abs format (unit mm)*
G04 Created by KiCad (PCBNEW 7.0.1) date 2023-06-24 00:20:47*
%MOMM*%
%LPD*%
G01*
G04 APERTURE LIST*
%TA.AperFunction,Profile*%
%ADD10C,0.100000*%
%TD*%
G04 APERTURE END LIST*
D10*
X38600000Y11600000D02*
G75*
G03*
X38600000Y10400000I0J-600000D01*
G01*
X96500000Y0D02*
G75*
G03*
X100000000Y3500000I0J3500000D01*
G01*
X0Y3500000D02*
G75*
G03*
X3500000Y0I3500000J0D01*
G01*
X38600000Y11600000D02*
X45400000Y11600000D01*
X48600000Y8400000D02*
X48600000Y1600000D01*
X3500000Y90000000D02*
G75*
G03*
X0Y86500000I0J-3500000D01*
G01*
X47400000Y1600000D02*
G75*
G03*
X48600000Y1600000I600000J0D01*
G01*
X35400000Y1600000D02*
X35400000Y8400000D01*
X36600000Y8400000D02*
X36600000Y1600000D01*
X96500000Y0D02*
X3500000Y0D01*
X0Y3500000D02*
X0Y86500000D01*
X100000000Y86500000D02*
G75*
G03*
X96500000Y90000000I-3500000J0D01*
G01*
X36600000Y8400000D02*
G75*
G03*
X35400000Y8400000I-600000J0D01*
G01*
X45400000Y10400000D02*
X38600000Y10400000D01*
X47400000Y1600000D02*
X47400000Y8400000D01*
X45400000Y10400000D02*
G75*
G03*
X45400000Y11600000I0J600000D01*
G01*
X35400000Y1600000D02*
G75*
G03*
X36600000Y1600000I600000J0D01*
G01*
X3500000Y90000000D02*
X96500000Y90000000D01*
X48600000Y8400000D02*
G75*
G03*
X47400000Y8400000I-600000J0D01*
G01*
X100000000Y86500000D02*
X100000000Y3500000D01*
M02*
