M48
; DRILL file {KiCad 7.0.1} date Sat Jun 24 00:20:55 2023
; FORMAT={-:-/ absolute / metric / decimal}
; #@! TF.CreationDate,2023-06-24T00:20:55-07:00
; #@! TF.GenerationSoftware,Kicad,Pcbnew,7.0.1
; #@! TF.FileFunction,Plated,1,4,PTH
FMAT,2
METRIC
; #@! TA.AperFunction,Plated,PTH,ViaDrill
T1C0.300
; #@! TA.AperFunction,Plated,PTH,ViaDrill
T2C0.500
; #@! TA.AperFunction,Plated,PTH,ComponentDrill
T3C1.000
; #@! TA.AperFunction,Plated,PTH,ComponentDrill
T4C1.200
%
G90
G05
T1
X3.8Y37.35
X5.75Y29.65
X7.85Y42.25
X8.8Y37.5
X9.0Y41.3
X9.05Y40.0
X9.25Y43.8
X9.65Y46.355
X9.8Y29.15
X10.5Y32.1
X11.15Y40.65
X11.43Y66.15
X11.57Y45.635
X11.7Y17.2
X11.85Y43.8
X12.3Y59.65
X12.8Y76.0
X12.9Y70.0
X13.05Y35.2
X13.13Y68.5
X13.5Y76.0
X13.65Y72.35
X13.8Y32.3
X13.8Y31.35
X14.2Y76.0
X14.25Y22.5
X14.7Y36.0
X14.73Y62.2
X14.8Y58.1
X14.85Y16.85
X14.95Y73.6
X15.05Y21.65
X15.5Y37.6
X15.7Y59.0
X15.8Y44.15
X15.85Y25.3
X16.8Y16.35
X16.9Y77.65
X16.9Y41.5
X17.05Y17.7
X17.23Y64.0
X17.45Y17.0
X17.55Y70.3
X17.9Y13.8
X18.0Y39.938
X18.0Y27.6
X18.45Y32.5
X18.65Y64.0
X18.8Y75.05
X18.8Y74.35
X18.95Y39.887
X19.15Y27.45
X19.2Y76.85
X19.2Y42.25
X19.35Y43.4
X19.4Y33.0
X19.55Y51.33
X20.2Y41.5
X20.5Y76.85
X20.6Y30.4
X20.8Y36.15
X21.1Y22.6
X21.6Y41.5
X21.6Y30.4
X22.0Y76.8
X22.2Y49.542
X22.6Y42.2
X22.7Y76.8
X22.85Y19.95
X23.0Y24.4
X23.2Y81.75
X23.4Y76.8
X23.6Y74.15
X23.75Y26.6
X23.8Y57.3
X23.85Y23.45
X24.05Y82.75
X24.05Y81.75
X24.05Y80.75
X24.6Y39.25
X24.7Y26.55
X24.9Y82.75
X24.9Y81.75
X24.9Y80.75
X26.2Y79.85
X26.2Y71.5
X27.1Y56.6
X27.15Y54.4
X27.35Y83.55
X27.987Y35.65
X28.037Y36.6
X28.15Y55.53
X28.6Y81.95
X28.6Y79.05
X28.65Y30.2
X28.75Y71.5
X28.95Y69.5
X29.3Y54.43
X29.35Y39.6
X30.05Y70.85
X30.072Y65.25
X30.072Y64.5
X30.072Y63.75
X30.072Y63.0
X30.087Y84.5
X30.087Y78.75
X30.087Y78.0
X30.087Y77.25
X30.087Y76.5
X30.4Y35.7
X30.4Y34.85
X30.4Y33.95
X30.55Y36.85
X30.8Y70.95
X30.837Y84.6
X31.25Y46.3
X31.25Y43.7
X31.55Y70.95
X31.587Y84.6
X31.7Y52.73
X32.438Y84.013
X32.487Y70.5
X32.5Y51.13
X32.637Y82.2
X32.637Y68.8
X33.35Y38.95
X34.237Y87.3
X34.237Y85.3
X34.237Y73.75
X34.237Y71.75
X34.95Y88.3
X35.137Y78.5
X35.137Y77.55
X35.137Y76.6
X35.4Y33.95
X36.137Y77.55
X36.137Y76.6
X36.85Y46.75
X37.05Y24.65
X37.137Y77.55
X37.137Y76.6
X37.4Y63.85
X37.4Y63.0
X37.5Y39.05
X37.67Y27.5
X37.688Y87.3
X37.737Y73.75
X37.77Y32.5
X37.77Y30.0
X38.137Y77.55
X38.137Y76.6
X38.2Y47.6
X38.2Y45.85
X38.25Y63.85
X38.25Y63.0
X38.637Y88.1
X38.688Y74.55
X38.9Y53.55
X39.0Y50.35
X39.05Y58.1
X39.1Y63.85
X39.1Y63.0
X39.137Y77.55
X39.137Y76.6
X39.45Y56.0
X39.587Y87.3
X39.637Y73.75
X39.7Y8.4
X40.2Y56.0
X40.35Y6.4
X40.45Y2.2
X40.6Y50.35
X40.75Y59.4
X40.85Y67.95
X41.15Y56.8
X41.5Y59.4
X41.65Y3.5
X41.65Y0.9
X42.0Y56.0
X42.2Y53.55
X42.25Y59.4
X42.85Y63.9
X42.85Y63.05
X43.7Y63.9
X43.7Y63.05
X44.05Y53.55
X44.4Y3.8
X44.5Y56.0
X44.55Y63.05
X44.75Y61.7
X44.75Y60.95
X44.75Y60.2
X45.2Y56.0
X45.25Y2.2
X46.0Y71.4
X46.15Y48.0
X46.25Y56.8
X47.1Y56.0
X47.1Y40.85
X47.1Y26.05
X47.2Y53.5
X48.05Y40.05
X48.05Y25.2
X48.15Y67.95
X48.8Y42.2
X48.85Y48.0
X48.95Y35.75
X49.05Y53.55
X49.5Y22.6
X49.55Y56.0
X49.7Y63.3
X49.7Y62.333
X49.7Y61.367
X49.7Y60.4
X49.9Y36.9
X50.11Y79.2
X50.25Y56.0
X50.55Y21.1
X50.7Y47.6
X50.7Y45.85
X50.975Y34.65
X51.05Y67.85
X51.3Y56.8
X51.45Y21.95
X51.562Y40.962
X51.605Y37.0
X51.75Y57.95
X52.0Y48.45
X52.0Y26.9
X52.0Y26.9
X52.05Y46.7
X52.1Y50.1
X52.15Y56.0
X52.3Y53.65
X53.205Y37.73
X53.5Y56.25
X53.5Y48.45
X53.9Y70.1
X53.9Y67.9
X53.902Y65.71
X54.05Y50.1
X54.4Y73.0
X54.4Y71.25
X54.4Y63.7
X54.4Y60.7
X54.4Y57.7
X54.65Y55.1
X55.189Y51.339
X55.4Y48.6
X55.575Y39.362
X55.65Y35.6
X55.8Y33.7
X56.0Y72.1
X56.0Y64.85
X56.0Y62.4
X56.0Y59.4
X56.0Y56.4
X56.0Y29.3
X56.0Y7.9
X56.0Y7.0
X56.1Y1.95
X56.25Y76.4
X56.5Y73.95
X56.5Y70.1
X56.5Y67.9
X56.5Y65.7
X56.7Y82.25
X56.725Y39.362
X56.739Y52.889
X56.85Y1.95
X56.9Y7.9
X56.9Y7.0
X56.95Y31.3
X57.039Y49.489
X57.35Y73.2
X57.425Y36.612
X57.8Y13.4
X57.85Y7.9
X57.85Y7.0
X58.2Y73.95
X58.2Y46.75
X58.2Y33.7
X58.2Y31.3
X58.289Y54.439
X58.45Y76.4
X58.539Y50.989
X59.3Y14.4
X59.4Y85.5
X59.4Y33.75
X59.55Y48.55
X59.95Y62.35
X59.95Y60.15
X59.952Y57.96
X60.1Y79.75
X60.1Y55.55
X60.139Y52.589
X60.175Y46.212
X60.275Y26.375
X60.45Y63.85
X60.575Y34.45
X60.6Y31.15
X60.75Y65.7
X60.85Y54.0
X60.9Y73.1
X60.925Y43.413
X60.925Y41.312
X61.0Y79.75
X61.15Y50.2
X61.15Y24.85
X61.5Y48.3
X61.9Y84.05
X61.9Y83.25
X61.95Y78.263
X61.95Y77.362
X61.95Y76.513
X61.95Y75.662
X61.95Y23.85
X62.05Y63.65
X62.05Y55.85
X62.4Y66.8
X62.5Y65.1
X62.55Y62.35
X62.55Y60.15
X62.55Y57.95
X62.6Y33.163
X62.7Y84.05
X62.7Y83.25
X62.7Y77.812
X62.7Y76.946
X62.7Y76.079
X62.7Y75.212
X62.75Y51.7
X62.8Y78.662
X62.925Y46.112
X63.35Y50.1
X63.5Y83.25
X63.5Y77.562
X63.5Y76.312
X63.5Y75.062
X63.55Y78.362
X63.725Y39.462
X63.775Y41.712
X63.85Y33.212
X63.9Y22.6
X64.05Y79.013
X64.05Y76.912
X64.05Y75.662
X64.05Y74.412
X64.05Y72.912
X64.55Y78.362
X64.6Y77.562
X64.6Y76.312
X64.6Y75.062
X64.8Y51.75
X64.875Y39.462
X64.925Y49.462
X65.062Y81.7
X65.062Y80.9
X65.3Y78.662
X65.4Y77.812
X65.4Y76.946
X65.4Y76.079
X65.4Y75.212
X65.8Y64.35
X65.812Y81.7
X65.812Y80.9
X65.875Y25.125
X66.05Y50.15
X66.075Y79.362
X66.15Y78.263
X66.15Y77.362
X66.15Y76.513
X66.15Y75.662
X66.2Y26.375
X66.65Y63.6
X66.9Y77.962
X67.2Y5.7
X67.3Y6.8
X67.3Y4.6
X67.5Y64.35
X67.8Y51.75
X68.0Y54.6
X68.0Y53.8
X68.75Y54.6
X68.75Y53.8
X68.8Y3.6
X69.05Y50.15
X69.075Y46.312
X70.25Y45.65
X70.25Y5.7
X70.3Y6.8
X70.35Y4.35
X70.75Y65.1
X70.8Y51.75
X70.85Y81.05
X70.95Y4.95
X71.75Y81.05
X71.85Y66.4
X72.0Y47.95
X72.05Y50.15
X72.6Y7.2
X72.6Y4.25
X73.15Y57.6
X73.537Y48.837
X73.75Y81.1
X73.8Y51.75
X73.9Y56.2
X74.4Y60.3
X74.4Y59.433
X74.4Y58.567
X74.4Y57.7
X74.5Y56.85
X74.65Y81.1
X75.0Y50.4
X75.2Y60.45
X75.2Y59.2
X75.2Y57.95
X75.25Y57.15
X75.75Y62.6
X75.75Y61.1
X75.75Y59.85
X75.75Y58.6
X75.75Y56.5
X75.8Y82.0
X75.8Y81.1
X75.8Y80.25
X75.8Y79.4
X75.85Y53.55
X76.1Y51.5
X76.25Y57.15
X76.3Y60.45
X76.3Y59.2
X76.3Y57.95
X76.55Y81.55
X76.55Y80.683
X76.55Y79.817
X76.55Y78.95
X76.65Y82.4
X77.0Y56.85
X77.1Y60.3
X77.1Y59.433
X77.1Y58.567
X77.1Y57.7
X77.35Y81.3
X77.35Y80.05
X77.35Y78.8
X77.4Y82.1
X77.4Y48.45
X77.55Y46.3
X77.6Y55.3
X77.8Y53.2
X77.9Y82.75
X77.9Y80.65
X77.9Y79.4
X77.9Y78.15
X77.9Y76.65
X78.3Y88.9
X78.35Y49.5
X78.35Y47.4
X78.4Y82.1
X78.45Y81.3
X78.45Y80.05
X78.45Y78.8
X78.55Y46.3
X79.15Y82.4
X79.25Y81.55
X79.25Y80.683
X79.25Y79.817
X79.25Y78.95
X79.4Y54.8
X79.4Y45.65
X79.95Y43.3
X79.95Y42.2
X80.0Y82.0
X80.0Y81.1
X80.0Y80.25
X80.0Y79.4
X80.3Y82.95
X81.55Y41.4
X82.04Y73.95
X82.04Y73.25
X82.65Y75.15
X82.75Y67.75
X83.25Y65.15
X83.45Y50.7
X83.45Y49.9
X83.95Y65.15
X84.2Y50.7
X84.2Y49.9
X84.4Y67.75
X84.65Y48.35
X84.65Y42.95
X85.55Y65.85
X87.45Y68.25
X88.05Y65.15
X88.6Y53.55
X89.0Y68.25
X89.3Y51.95
X89.8Y56.212
X89.8Y55.346
X89.8Y54.479
X89.8Y53.612
X89.9Y52.762
X90.1Y65.15
X90.6Y68.25
X90.6Y56.362
X90.6Y55.112
X90.6Y53.862
X90.65Y53.062
X90.65Y50.2
X91.15Y58.512
X91.15Y57.012
X91.15Y55.762
X91.15Y54.512
X91.15Y52.412
X91.65Y53.062
X91.7Y56.362
X91.7Y55.112
X91.7Y53.862
X92.35Y67.7
X92.4Y73.05
X92.4Y52.762
X92.5Y56.212
X92.5Y55.346
X92.5Y54.479
X92.5Y53.612
X93.1Y73.05
X93.3Y45.3
X93.3Y43.45
X93.85Y58.3
X93.85Y56.7
X94.1Y67.0
X94.1Y66.35
X94.1Y54.7
X94.1Y52.1
X94.1Y49.3
X94.1Y48.0
X94.45Y74.3
X94.45Y68.7
X94.65Y44.35
X95.3Y46.55
X95.7Y55.75
X95.7Y53.55
X95.7Y50.55
X95.7Y47.55
X97.4Y75.55
X97.4Y73.1
X97.4Y69.95
X97.4Y67.45
T2
X8.05Y64.92
X19.0Y20.25
X35.15Y65.0
X67.587Y34.562
X67.825Y36.625
T3
X2.0Y64.19
X2.0Y61.65
X2.0Y56.515
X2.0Y53.975
X2.0Y51.435
X2.0Y48.895
X2.0Y46.355
X2.0Y43.815
X2.0Y41.275
X2.0Y38.735
X2.0Y33.37
X2.0Y30.83
X2.0Y28.29
X2.0Y25.75
X2.0Y20.37
X2.0Y17.83
X2.0Y15.29
X2.0Y12.75
X23.75Y71.19
X23.75Y68.65
X46.06Y75.55
X48.6Y75.55
X50.11Y86.35
X52.65Y86.35
T4
X4.832Y77.35
X4.832Y73.54
T0
M30
