%TF.GenerationSoftware,KiCad,Pcbnew,7.0.1*%
%TF.CreationDate,2023-06-24T00:45:25-07:00*%
%TF.ProjectId,Weather_Balloon_Payload_HW,57656174-6865-4725-9f42-616c6c6f6f6e,rev?*%
%TF.SameCoordinates,PX68e7780PY8583b00*%
%TF.FileFunction,Paste,Top*%
%TF.FilePolarity,Positive*%
%FSLAX46Y46*%
G04 Gerber Fmt 4.6, Leading zero omitted, Abs format (unit mm)*
G04 Created by KiCad (PCBNEW 7.0.1) date 2023-06-24 00:45:25*
%MOMM*%
%LPD*%
G01*
G04 APERTURE LIST*
G04 Aperture macros list*
%AMRoundRect*
0 Rectangle with rounded corners*
0 $1 Rounding radius*
0 $2 $3 $4 $5 $6 $7 $8 $9 X,Y pos of 4 corners*
0 Add a 4 corners polygon primitive as box body*
4,1,4,$2,$3,$4,$5,$6,$7,$8,$9,$2,$3,0*
0 Add four circle primitives for the rounded corners*
1,1,$1+$1,$2,$3*
1,1,$1+$1,$4,$5*
1,1,$1+$1,$6,$7*
1,1,$1+$1,$8,$9*
0 Add four rect primitives between the rounded corners*
20,1,$1+$1,$2,$3,$4,$5,0*
20,1,$1+$1,$4,$5,$6,$7,0*
20,1,$1+$1,$6,$7,$8,$9,0*
20,1,$1+$1,$8,$9,$2,$3,0*%
%AMFreePoly0*
4,1,9,3.862500,-0.866500,0.737500,-0.866500,0.737500,-0.450000,-0.737500,-0.450000,-0.737500,0.450000,0.737500,0.450000,0.737500,0.866500,3.862500,0.866500,3.862500,-0.866500,3.862500,-0.866500,$1*%
G04 Aperture macros list end*
%ADD10RoundRect,0.200000X-0.200000X-0.275000X0.200000X-0.275000X0.200000X0.275000X-0.200000X0.275000X0*%
%ADD11RoundRect,0.140000X0.140000X0.170000X-0.140000X0.170000X-0.140000X-0.170000X0.140000X-0.170000X0*%
%ADD12RoundRect,0.135000X0.185000X-0.135000X0.185000X0.135000X-0.185000X0.135000X-0.185000X-0.135000X0*%
%ADD13RoundRect,0.150000X-0.150000X0.512500X-0.150000X-0.512500X0.150000X-0.512500X0.150000X0.512500X0*%
%ADD14RoundRect,0.135000X-0.185000X0.135000X-0.185000X-0.135000X0.185000X-0.135000X0.185000X0.135000X0*%
%ADD15RoundRect,0.140000X-0.140000X-0.170000X0.140000X-0.170000X0.140000X0.170000X-0.140000X0.170000X0*%
%ADD16RoundRect,0.140000X-0.170000X0.140000X-0.170000X-0.140000X0.170000X-0.140000X0.170000X0.140000X0*%
%ADD17RoundRect,0.225000X0.250000X-0.225000X0.250000X0.225000X-0.250000X0.225000X-0.250000X-0.225000X0*%
%ADD18RoundRect,0.200000X0.275000X-0.200000X0.275000X0.200000X-0.275000X0.200000X-0.275000X-0.200000X0*%
%ADD19R,3.700000X1.100000*%
%ADD20RoundRect,0.147500X0.147500X0.172500X-0.147500X0.172500X-0.147500X-0.172500X0.147500X-0.172500X0*%
%ADD21RoundRect,0.140000X0.170000X-0.140000X0.170000X0.140000X-0.170000X0.140000X-0.170000X-0.140000X0*%
%ADD22RoundRect,0.135000X0.135000X0.185000X-0.135000X0.185000X-0.135000X-0.185000X0.135000X-0.185000X0*%
%ADD23RoundRect,0.135000X-0.135000X-0.185000X0.135000X-0.185000X0.135000X0.185000X-0.135000X0.185000X0*%
%ADD24RoundRect,0.250000X-0.650000X0.325000X-0.650000X-0.325000X0.650000X-0.325000X0.650000X0.325000X0*%
%ADD25RoundRect,0.250000X0.262500X0.450000X-0.262500X0.450000X-0.262500X-0.450000X0.262500X-0.450000X0*%
%ADD26RoundRect,0.150000X-0.200000X0.150000X-0.200000X-0.150000X0.200000X-0.150000X0.200000X0.150000X0*%
%ADD27RoundRect,0.089000X2.136000X-0.801000X2.136000X0.801000X-2.136000X0.801000X-2.136000X-0.801000X0*%
%ADD28RoundRect,0.250000X0.325000X1.100000X-0.325000X1.100000X-0.325000X-1.100000X0.325000X-1.100000X0*%
%ADD29RoundRect,0.200000X0.200000X0.275000X-0.200000X0.275000X-0.200000X-0.275000X0.200000X-0.275000X0*%
%ADD30RoundRect,0.250000X-0.325000X-0.450000X0.325000X-0.450000X0.325000X0.450000X-0.325000X0.450000X0*%
%ADD31RoundRect,0.076200X0.749300X-0.304800X0.749300X0.304800X-0.749300X0.304800X-0.749300X-0.304800X0*%
%ADD32RoundRect,0.225000X0.225000X0.250000X-0.225000X0.250000X-0.225000X-0.250000X0.225000X-0.250000X0*%
%ADD33RoundRect,0.150000X0.200000X-0.150000X0.200000X0.150000X-0.200000X0.150000X-0.200000X-0.150000X0*%
%ADD34R,0.950000X0.550000*%
%ADD35RoundRect,0.050000X0.100000X-0.712500X0.100000X0.712500X-0.100000X0.712500X-0.100000X-0.712500X0*%
%ADD36RoundRect,0.200000X0.335876X0.053033X0.053033X0.335876X-0.335876X-0.053033X-0.053033X-0.335876X0*%
%ADD37RoundRect,0.225000X0.375000X-0.225000X0.375000X0.225000X-0.375000X0.225000X-0.375000X-0.225000X0*%
%ADD38RoundRect,0.218750X0.256250X-0.218750X0.256250X0.218750X-0.256250X0.218750X-0.256250X-0.218750X0*%
%ADD39RoundRect,0.000000X-0.280000X-0.730000X0.280000X-0.730000X0.280000X0.730000X-0.280000X0.730000X0*%
%ADD40RoundRect,0.000000X-0.255000X-0.730000X0.255000X-0.730000X0.255000X0.730000X-0.255000X0.730000X0*%
%ADD41RoundRect,0.000000X-0.480000X-0.680000X0.480000X-0.680000X0.480000X0.680000X-0.480000X0.680000X0*%
%ADD42RoundRect,0.000000X-0.530000X-1.030000X0.530000X-1.030000X0.530000X1.030000X-0.530000X1.030000X0*%
%ADD43RoundRect,0.005000X-0.725000X-0.675000X0.725000X-0.675000X0.725000X0.675000X-0.725000X0.675000X0*%
%ADD44RoundRect,0.225000X-0.250000X0.225000X-0.250000X-0.225000X0.250000X-0.225000X0.250000X0.225000X0*%
%ADD45RoundRect,0.035000X-0.662500X-0.075000X0.662500X-0.075000X0.662500X0.075000X-0.662500X0.075000X0*%
%ADD46RoundRect,0.035000X-0.075000X-0.662500X0.075000X-0.662500X0.075000X0.662500X-0.075000X0.662500X0*%
%ADD47R,5.200000X1.270000*%
%ADD48R,4.900000X1.350000*%
%ADD49RoundRect,0.150000X-0.512500X-0.150000X0.512500X-0.150000X0.512500X0.150000X-0.512500X0.150000X0*%
%ADD50RoundRect,0.140000X-0.021213X0.219203X-0.219203X0.021213X0.021213X-0.219203X0.219203X-0.021213X0*%
%ADD51RoundRect,0.050000X-0.100000X0.637500X-0.100000X-0.637500X0.100000X-0.637500X0.100000X0.637500X0*%
%ADD52R,2.350000X3.500000*%
%ADD53RoundRect,0.250000X0.250000X0.475000X-0.250000X0.475000X-0.250000X-0.475000X0.250000X-0.475000X0*%
%ADD54RoundRect,0.225000X-0.225000X-0.250000X0.225000X-0.250000X0.225000X0.250000X-0.225000X0.250000X0*%
%ADD55RoundRect,0.200000X-0.275000X0.200000X-0.275000X-0.200000X0.275000X-0.200000X0.275000X0.200000X0*%
%ADD56RoundRect,0.540000X-2.825000X0.540000X-2.825000X-0.540000X2.825000X-0.540000X2.825000X0.540000X0*%
%ADD57RoundRect,0.200000X-0.300000X-0.200000X0.300000X-0.200000X0.300000X0.200000X-0.300000X0.200000X0*%
%ADD58RoundRect,0.250000X0.650000X-0.325000X0.650000X0.325000X-0.650000X0.325000X-0.650000X-0.325000X0*%
%ADD59RoundRect,0.218750X-0.218750X-0.256250X0.218750X-0.256250X0.218750X0.256250X-0.218750X0.256250X0*%
%ADD60RoundRect,0.147500X-0.172500X0.147500X-0.172500X-0.147500X0.172500X-0.147500X0.172500X0.147500X0*%
%ADD61RoundRect,0.175000X-0.725000X-0.175000X0.725000X-0.175000X0.725000X0.175000X-0.725000X0.175000X0*%
%ADD62RoundRect,0.200000X-0.700000X-0.200000X0.700000X-0.200000X0.700000X0.200000X-0.700000X0.200000X0*%
%ADD63R,0.900000X1.300000*%
%ADD64FreePoly0,90.000000*%
%ADD65RoundRect,0.250000X0.325000X0.650000X-0.325000X0.650000X-0.325000X-0.650000X0.325000X-0.650000X0*%
%ADD66RoundRect,0.255000X-1.270000X0.255000X-1.270000X-0.255000X1.270000X-0.255000X1.270000X0.255000X0*%
%ADD67RoundRect,0.050000X-0.100000X0.712500X-0.100000X-0.712500X0.100000X-0.712500X0.100000X0.712500X0*%
%ADD68RoundRect,0.076200X-0.749300X0.304800X-0.749300X-0.304800X0.749300X-0.304800X0.749300X0.304800X0*%
%ADD69FreePoly0,270.000000*%
%ADD70RoundRect,0.250001X0.849999X-0.462499X0.849999X0.462499X-0.849999X0.462499X-0.849999X-0.462499X0*%
%ADD71RoundRect,0.250000X-0.312500X-1.450000X0.312500X-1.450000X0.312500X1.450000X-0.312500X1.450000X0*%
%ADD72R,1.200000X1.400000*%
%ADD73RoundRect,0.250000X0.475000X-0.250000X0.475000X0.250000X-0.475000X0.250000X-0.475000X-0.250000X0*%
%ADD74RoundRect,0.250001X-0.849999X0.462499X-0.849999X-0.462499X0.849999X-0.462499X0.849999X0.462499X0*%
%ADD75RoundRect,0.015000X-0.410000X-0.210000X0.410000X-0.210000X0.410000X0.210000X-0.410000X0.210000X0*%
%ADD76RoundRect,0.045000X-0.580000X-0.280000X0.580000X-0.280000X0.580000X0.280000X-0.580000X0.280000X0*%
%ADD77RoundRect,0.200000X0.300000X0.200000X-0.300000X0.200000X-0.300000X-0.200000X0.300000X-0.200000X0*%
%ADD78RoundRect,0.200000X0.200000X-0.300000X0.200000X0.300000X-0.200000X0.300000X-0.200000X-0.300000X0*%
%ADD79RoundRect,0.015000X0.210000X-0.410000X0.210000X0.410000X-0.210000X0.410000X-0.210000X-0.410000X0*%
%ADD80RoundRect,0.045000X0.280000X-0.580000X0.280000X0.580000X-0.280000X0.580000X-0.280000X-0.580000X0*%
%ADD81RoundRect,0.218750X-0.256250X0.218750X-0.256250X-0.218750X0.256250X-0.218750X0.256250X0.218750X0*%
%ADD82RoundRect,0.015000X-0.141421X-0.438406X0.438406X0.141421X0.141421X0.438406X-0.438406X-0.141421X0*%
%ADD83RoundRect,0.045000X-0.212132X-0.608112X0.608112X0.212132X0.212132X0.608112X-0.608112X-0.212132X0*%
%ADD84RoundRect,0.147500X0.172500X-0.147500X0.172500X0.147500X-0.172500X0.147500X-0.172500X-0.147500X0*%
%ADD85RoundRect,0.015000X-0.210000X0.410000X-0.210000X-0.410000X0.210000X-0.410000X0.210000X0.410000X0*%
%ADD86RoundRect,0.045000X-0.280000X0.580000X-0.280000X-0.580000X0.280000X-0.580000X0.280000X0.580000X0*%
G04 APERTURE END LIST*
D10*
%TO.C,R33*%
X64650000Y34562500D03*
X66300000Y34562500D03*
%TD*%
D11*
%TO.C,C59*%
X53205000Y37000000D03*
X52245000Y37000000D03*
%TD*%
D12*
%TO.C,R58*%
X43050000Y64780000D03*
X43050000Y65800000D03*
%TD*%
D13*
%TO.C,U15*%
X30250000Y53417500D03*
X29300000Y53417500D03*
X28350000Y53417500D03*
X28350000Y51142500D03*
X30250000Y51142500D03*
%TD*%
D14*
%TO.C,R40*%
X64925000Y45722500D03*
X64925000Y44702500D03*
%TD*%
D15*
%TO.C,C7*%
X27350000Y69500000D03*
X28310000Y69500000D03*
%TD*%
D16*
%TO.C,C42*%
X79350000Y61600000D03*
X79350000Y60640000D03*
%TD*%
D17*
%TO.C,C50*%
X64925000Y47112500D03*
X64925000Y48662500D03*
%TD*%
D18*
%TO.C,R48*%
X66650000Y64350000D03*
X66650000Y66000000D03*
%TD*%
D19*
%TO.C,L2*%
X37587500Y68100000D03*
X37587500Y65100000D03*
%TD*%
D20*
%TO.C,D11*%
X37190000Y26950000D03*
X36220000Y26950000D03*
%TD*%
D21*
%TO.C,C60*%
X31700000Y51130000D03*
X31700000Y52090000D03*
%TD*%
D22*
%TO.C,R69*%
X34770000Y29450000D03*
X33750000Y29450000D03*
%TD*%
D23*
%TO.C,R53*%
X24680000Y57300000D03*
X25700000Y57300000D03*
%TD*%
D24*
%TO.C,C29*%
X60500000Y83625000D03*
X60500000Y80675000D03*
%TD*%
D25*
%TO.C,R56*%
X68500000Y81300000D03*
X66675000Y81300000D03*
%TD*%
D26*
%TO.C,D7*%
X45250000Y49300000D03*
X45250000Y50700000D03*
%TD*%
D27*
%TO.C,L15*%
X89000000Y66700000D03*
X89000000Y71500000D03*
%TD*%
D28*
%TO.C,C11*%
X33987500Y64100000D03*
X31037500Y64100000D03*
%TD*%
D29*
%TO.C,R35*%
X54075000Y40962500D03*
X52425000Y40962500D03*
%TD*%
D12*
%TO.C,R57*%
X77300000Y85800000D03*
X77300000Y86820000D03*
%TD*%
D30*
%TO.C,L6*%
X78350000Y48450000D03*
X80400000Y48450000D03*
%TD*%
D24*
%TO.C,C82*%
X74200000Y84950000D03*
X74200000Y82000000D03*
%TD*%
%TO.C,C12*%
X22700000Y80700000D03*
X22700000Y77750000D03*
%TD*%
D31*
%TO.C,T3*%
X41400000Y49270000D03*
X41400000Y48000000D03*
X41400000Y46730000D03*
X38200000Y46730000D03*
X38200000Y49270000D03*
%TD*%
D15*
%TO.C,C27*%
X9390000Y37500000D03*
X10350000Y37500000D03*
%TD*%
D22*
%TO.C,R43*%
X76360000Y44700000D03*
X75340000Y44700000D03*
%TD*%
D15*
%TO.C,C83*%
X83590000Y75000000D03*
X84550000Y75000000D03*
%TD*%
D32*
%TO.C,C74*%
X68500000Y79450000D03*
X66950000Y79450000D03*
%TD*%
D33*
%TO.C,D4*%
X19300000Y68650000D03*
X19300000Y67250000D03*
%TD*%
D22*
%TO.C,R23*%
X11600000Y29150000D03*
X10580000Y29150000D03*
%TD*%
D23*
%TO.C,R17*%
X10090000Y41300000D03*
X11110000Y41300000D03*
%TD*%
D15*
%TO.C,C58*%
X86550000Y44700000D03*
X87510000Y44700000D03*
%TD*%
D34*
%TO.C,U6*%
X62825000Y26375000D03*
X62825000Y25125000D03*
X62825000Y23875000D03*
X62825000Y22625000D03*
X64975000Y22625000D03*
X64975000Y23875000D03*
X64975000Y25125000D03*
X64975000Y26375000D03*
%TD*%
D22*
%TO.C,R68*%
X34770000Y26950000D03*
X33750000Y26950000D03*
%TD*%
D33*
%TO.C,D6*%
X43500000Y50700000D03*
X43500000Y49300000D03*
%TD*%
D16*
%TO.C,C87*%
X83600000Y66700000D03*
X83600000Y65740000D03*
%TD*%
D22*
%TO.C,R4*%
X29760000Y72750000D03*
X28740000Y72750000D03*
%TD*%
D35*
%TO.C,U3*%
X16250000Y74975000D03*
X16900000Y74975000D03*
X17550000Y74975000D03*
X18200000Y74975000D03*
X18200000Y79200000D03*
X17550000Y79200000D03*
X16900000Y79200000D03*
X16250000Y79200000D03*
%TD*%
D22*
%TO.C,R66*%
X22220000Y19950000D03*
X21200000Y19950000D03*
%TD*%
D16*
%TO.C,C16*%
X16530000Y65050000D03*
X16530000Y64090000D03*
%TD*%
D36*
%TO.C,R50*%
X33916726Y54343274D03*
X32750000Y55510000D03*
%TD*%
D16*
%TO.C,C66*%
X39800000Y52630000D03*
X39800000Y51670000D03*
%TD*%
D21*
%TO.C,C20*%
X61150000Y25440000D03*
X61150000Y26400000D03*
%TD*%
%TO.C,C47*%
X64875000Y37862500D03*
X64875000Y38822500D03*
%TD*%
D16*
%TO.C,C45*%
X71550000Y64330000D03*
X71550000Y63370000D03*
%TD*%
D20*
%TO.C,D12*%
X37205000Y29450000D03*
X36235000Y29450000D03*
%TD*%
D11*
%TO.C,C86*%
X83590000Y73600000D03*
X82630000Y73600000D03*
%TD*%
D12*
%TO.C,R13*%
X19300000Y65050000D03*
X19300000Y66070000D03*
%TD*%
D23*
%TO.C,R18*%
X10100000Y40000000D03*
X11120000Y40000000D03*
%TD*%
D21*
%TO.C,C6*%
X27350000Y81950000D03*
X27350000Y82910000D03*
%TD*%
D12*
%TO.C,R21*%
X21600000Y42400000D03*
X21600000Y43420000D03*
%TD*%
D13*
%TO.C,U2*%
X35187500Y72737500D03*
X34237500Y72737500D03*
X33287500Y72737500D03*
X33287500Y70462500D03*
X34237500Y70462500D03*
X35187500Y70462500D03*
%TD*%
D15*
%TO.C,C30*%
X64640000Y87700000D03*
X65600000Y87700000D03*
%TD*%
D37*
%TO.C,D1*%
X38637500Y84000000D03*
X38637500Y87300000D03*
%TD*%
D10*
%TO.C,R34*%
X80900000Y55850000D03*
X82550000Y55850000D03*
%TD*%
D16*
%TO.C,C24*%
X27300000Y36600000D03*
X27300000Y35640000D03*
%TD*%
D14*
%TO.C,R6*%
X24900000Y79150000D03*
X24900000Y78130000D03*
%TD*%
D23*
%TO.C,R20*%
X40430000Y8400000D03*
X41450000Y8400000D03*
%TD*%
D16*
%TO.C,C36*%
X94900000Y57500000D03*
X94900000Y56540000D03*
%TD*%
D14*
%TO.C,R44*%
X84650000Y47620000D03*
X84650000Y46600000D03*
%TD*%
D11*
%TO.C,C64*%
X18910000Y51330000D03*
X17950000Y51330000D03*
%TD*%
D38*
%TO.C,L10*%
X51300000Y54450000D03*
X51300000Y56025000D03*
%TD*%
D16*
%TO.C,C61*%
X35000000Y51910000D03*
X35000000Y50950000D03*
%TD*%
D21*
%TO.C,C34*%
X62000000Y33602500D03*
X62000000Y34562500D03*
%TD*%
D15*
%TO.C,C78*%
X45740000Y67450000D03*
X46700000Y67450000D03*
%TD*%
D39*
%TO.C,J9*%
X22300000Y15200000D03*
X21200000Y15200000D03*
X20100000Y15200000D03*
X19000000Y15200000D03*
X17900000Y15200000D03*
X16800000Y15200000D03*
X15700000Y15200000D03*
X14600000Y15200000D03*
D40*
X13500000Y15200000D03*
D41*
X12250000Y14200000D03*
D42*
X12300000Y4600000D03*
D43*
X26900000Y14200000D03*
D42*
X27800000Y4600000D03*
%TD*%
D44*
%TO.C,C76*%
X72150000Y75450000D03*
X72150000Y73900000D03*
%TD*%
D14*
%TO.C,R9*%
X16250000Y73020000D03*
X16250000Y72000000D03*
%TD*%
D45*
%TO.C,U8*%
X17187500Y36000000D03*
X17187500Y35500000D03*
X17187500Y35000000D03*
X17187500Y34500000D03*
X17187500Y34000000D03*
X17187500Y33500000D03*
X17187500Y33000000D03*
X17187500Y32500000D03*
X17187500Y32000000D03*
X17187500Y31500000D03*
X17187500Y31000000D03*
X17187500Y30500000D03*
D46*
X18600000Y29087500D03*
X19100000Y29087500D03*
X19600000Y29087500D03*
X20100000Y29087500D03*
X20600000Y29087500D03*
X21100000Y29087500D03*
X21600000Y29087500D03*
X22100000Y29087500D03*
X22600000Y29087500D03*
X23100000Y29087500D03*
X23600000Y29087500D03*
X24100000Y29087500D03*
D45*
X25512500Y30500000D03*
X25512500Y31000000D03*
X25512500Y31500000D03*
X25512500Y32000000D03*
X25512500Y32500000D03*
X25512500Y33000000D03*
X25512500Y33500000D03*
X25512500Y34000000D03*
X25512500Y34500000D03*
X25512500Y35000000D03*
X25512500Y35500000D03*
X25512500Y36000000D03*
D46*
X24100000Y37412500D03*
X23600000Y37412500D03*
X23100000Y37412500D03*
X22600000Y37412500D03*
X22100000Y37412500D03*
X21600000Y37412500D03*
X21100000Y37412500D03*
X20600000Y37412500D03*
X20100000Y37412500D03*
X19600000Y37412500D03*
X19100000Y37412500D03*
X18600000Y37412500D03*
%TD*%
D47*
%TO.C,J8*%
X97157500Y71500000D03*
D48*
X97407500Y68675000D03*
X97407500Y74325000D03*
%TD*%
D16*
%TO.C,C14*%
X13650000Y73950000D03*
X13650000Y72990000D03*
%TD*%
D49*
%TO.C,U14*%
X52025000Y35600000D03*
X52025000Y34650000D03*
X52025000Y33700000D03*
X54300000Y33700000D03*
X54300000Y34650000D03*
X54300000Y35600000D03*
%TD*%
D23*
%TO.C,R5*%
X30880000Y72750000D03*
X31900000Y72750000D03*
%TD*%
D50*
%TO.C,C73*%
X53539411Y55139411D03*
X52860589Y54460589D03*
%TD*%
D11*
%TO.C,C56*%
X81550000Y42200000D03*
X80590000Y42200000D03*
%TD*%
D15*
%TO.C,C57*%
X86550000Y46600000D03*
X87510000Y46600000D03*
%TD*%
D51*
%TO.C,U9*%
X62525000Y42362500D03*
X61875000Y42362500D03*
X61225000Y42362500D03*
X60575000Y42362500D03*
X59925000Y42362500D03*
X59275000Y42362500D03*
X58625000Y42362500D03*
X57975000Y42362500D03*
X57975000Y36637500D03*
X58625000Y36637500D03*
X59275000Y36637500D03*
X59925000Y36637500D03*
X60575000Y36637500D03*
X61225000Y36637500D03*
X61875000Y36637500D03*
X62525000Y36637500D03*
%TD*%
D23*
%TO.C,R67*%
X12480000Y17200000D03*
X13500000Y17200000D03*
%TD*%
D18*
%TO.C,R62*%
X55200000Y73950000D03*
X55200000Y75600000D03*
%TD*%
D21*
%TO.C,C49*%
X63525000Y44712500D03*
X63525000Y45672500D03*
%TD*%
D25*
%TO.C,R41*%
X71550000Y54200000D03*
X69725000Y54200000D03*
%TD*%
D21*
%TO.C,C54*%
X78750000Y44700000D03*
X78750000Y45660000D03*
%TD*%
D14*
%TO.C,R24*%
X56700000Y83950000D03*
X56700000Y82930000D03*
%TD*%
D25*
%TO.C,R37*%
X86950000Y50300000D03*
X85125000Y50300000D03*
%TD*%
D21*
%TO.C,C26*%
X14500000Y31350000D03*
X14500000Y32310000D03*
%TD*%
D10*
%TO.C,R36*%
X66175000Y37862500D03*
X67825000Y37862500D03*
%TD*%
D12*
%TO.C,R28*%
X58200000Y31880000D03*
X58200000Y32900000D03*
%TD*%
D21*
%TO.C,C5*%
X36687500Y84400000D03*
X36687500Y85360000D03*
%TD*%
D19*
%TO.C,L1*%
X37587500Y81600000D03*
X37587500Y78600000D03*
%TD*%
D52*
%TO.C,L3*%
X13225000Y84900000D03*
X19275000Y84900000D03*
%TD*%
D49*
%TO.C,U12*%
X71262500Y46600000D03*
X71262500Y45650000D03*
X71262500Y44700000D03*
X73537500Y44700000D03*
X73537500Y46600000D03*
%TD*%
D21*
%TO.C,C65*%
X22200000Y50182500D03*
X22200000Y51142500D03*
%TD*%
D28*
%TO.C,C2*%
X33937500Y77650000D03*
X30987500Y77650000D03*
%TD*%
D53*
%TO.C,C84*%
X19000000Y18750000D03*
X17100000Y18750000D03*
%TD*%
D54*
%TO.C,C43*%
X71550000Y56200000D03*
X73100000Y56200000D03*
%TD*%
D21*
%TO.C,C70*%
X49850000Y54450000D03*
X49850000Y55410000D03*
%TD*%
D12*
%TO.C,R65*%
X46750000Y69950000D03*
X46750000Y70970000D03*
%TD*%
D29*
%TO.C,R49*%
X65000000Y66000000D03*
X63350000Y66000000D03*
%TD*%
D23*
%TO.C,R16*%
X10090000Y43800000D03*
X11110000Y43800000D03*
%TD*%
D18*
%TO.C,R64*%
X57350000Y73950000D03*
X57350000Y75600000D03*
%TD*%
D55*
%TO.C,R63*%
X59500000Y75600000D03*
X59500000Y73950000D03*
%TD*%
D14*
%TO.C,R30*%
X59400000Y32900000D03*
X59400000Y31880000D03*
%TD*%
D24*
%TO.C,C31*%
X71300000Y84950000D03*
X71300000Y82000000D03*
%TD*%
D21*
%TO.C,C53*%
X77550000Y44700000D03*
X77550000Y45660000D03*
%TD*%
D56*
%TO.C,L13*%
X84550000Y85020000D03*
X84550000Y77650000D03*
%TD*%
D12*
%TO.C,R22*%
X20200000Y42400000D03*
X20200000Y43420000D03*
%TD*%
D57*
%TO.C,Q4*%
X44680000Y65810000D03*
X44680000Y63910000D03*
X46680000Y64860000D03*
%TD*%
D58*
%TO.C,C19*%
X56500000Y2875000D03*
X56500000Y5825000D03*
%TD*%
D59*
%TO.C,L12*%
X72150000Y77650000D03*
X73725000Y77650000D03*
%TD*%
D15*
%TO.C,C75*%
X67540000Y77962500D03*
X68500000Y77962500D03*
%TD*%
D14*
%TO.C,R31*%
X60600000Y32900000D03*
X60600000Y31880000D03*
%TD*%
D38*
%TO.C,L9*%
X46250000Y54450000D03*
X46250000Y56025000D03*
%TD*%
D21*
%TO.C,C10*%
X36737500Y70800000D03*
X36737500Y71760000D03*
%TD*%
D60*
%TO.C,D10*%
X50300000Y67820000D03*
X50300000Y66850000D03*
%TD*%
D61*
%TO.C,U5*%
X59300000Y13400000D03*
D62*
X59300000Y12300000D03*
X59300000Y11200000D03*
X59300000Y10100000D03*
X59300000Y9000000D03*
X59300000Y7900000D03*
X59300000Y6800000D03*
X59300000Y5700000D03*
D61*
X59300000Y4600000D03*
X68800000Y4600000D03*
D62*
X68800000Y5700000D03*
X68800000Y6800000D03*
X68800000Y7900000D03*
X68800000Y9000000D03*
X68800000Y10100000D03*
X68800000Y11200000D03*
X68800000Y12300000D03*
D61*
X68800000Y13400000D03*
%TD*%
D24*
%TO.C,C18*%
X13500000Y79850000D03*
X13500000Y76900000D03*
%TD*%
D21*
%TO.C,C51*%
X69075000Y44712500D03*
X69075000Y45672500D03*
%TD*%
D15*
%TO.C,C55*%
X80590000Y43300000D03*
X81550000Y43300000D03*
%TD*%
D20*
%TO.C,D13*%
X37205000Y32000000D03*
X36235000Y32000000D03*
%TD*%
D12*
%TO.C,R71*%
X48150000Y68930000D03*
X48150000Y69950000D03*
%TD*%
D21*
%TO.C,C89*%
X19850000Y76940000D03*
X19850000Y77900000D03*
%TD*%
D15*
%TO.C,C88*%
X28400000Y47980000D03*
X29360000Y47980000D03*
%TD*%
D10*
%TO.C,R39*%
X80900000Y57500000D03*
X82550000Y57500000D03*
%TD*%
D12*
%TO.C,R45*%
X84650000Y43680000D03*
X84650000Y44700000D03*
%TD*%
D22*
%TO.C,R55*%
X29370000Y49180000D03*
X28350000Y49180000D03*
%TD*%
D14*
%TO.C,R52*%
X17950000Y50130000D03*
X17950000Y49110000D03*
%TD*%
D54*
%TO.C,C39*%
X86950000Y52100000D03*
X88500000Y52100000D03*
%TD*%
D63*
%TO.C,U16*%
X62550000Y73925000D03*
D64*
X64050000Y74012500D03*
D63*
X65550000Y73925000D03*
%TD*%
D22*
%TO.C,R2*%
X31850000Y86300000D03*
X30830000Y86300000D03*
%TD*%
D23*
%TO.C,R14*%
X55580000Y11200000D03*
X56600000Y11200000D03*
%TD*%
D16*
%TO.C,C21*%
X44400000Y3160000D03*
X44400000Y2200000D03*
%TD*%
D65*
%TO.C,C79*%
X48600000Y60950000D03*
X45650000Y60950000D03*
%TD*%
D21*
%TO.C,C32*%
X59025000Y44632500D03*
X59025000Y45592500D03*
%TD*%
%TO.C,C67*%
X39800000Y54450000D03*
X39800000Y55410000D03*
%TD*%
D66*
%TO.C,L14*%
X83590000Y71900000D03*
X83590000Y69100000D03*
%TD*%
D21*
%TO.C,C81*%
X79700000Y83270000D03*
X79700000Y84230000D03*
%TD*%
D37*
%TO.C,D2*%
X38687500Y70450000D03*
X38687500Y73750000D03*
%TD*%
D12*
%TO.C,R29*%
X56950000Y31880000D03*
X56950000Y32900000D03*
%TD*%
D15*
%TO.C,C80*%
X76400000Y75800000D03*
X77360000Y75800000D03*
%TD*%
D11*
%TO.C,C52*%
X73550000Y47950000D03*
X72590000Y47950000D03*
%TD*%
D16*
%TO.C,C46*%
X55575000Y40962500D03*
X55575000Y40002500D03*
%TD*%
D12*
%TO.C,R10*%
X11900000Y69980000D03*
X11900000Y71000000D03*
%TD*%
D16*
%TO.C,C37*%
X63725000Y38822500D03*
X63725000Y37862500D03*
%TD*%
D67*
%TO.C,U18*%
X42975000Y6412500D03*
X42325000Y6412500D03*
X41675000Y6412500D03*
X41025000Y6412500D03*
X41025000Y2187500D03*
X41675000Y2187500D03*
X42325000Y2187500D03*
X42975000Y2187500D03*
%TD*%
D12*
%TO.C,R25*%
X61950000Y84980000D03*
X61950000Y86000000D03*
%TD*%
D68*
%TO.C,T1*%
X90100000Y44380000D03*
X90100000Y45650000D03*
X90100000Y46920000D03*
X93300000Y46920000D03*
X93300000Y44380000D03*
%TD*%
D63*
%TO.C,U10*%
X92650000Y57500000D03*
D69*
X91150000Y57412500D03*
D63*
X89650000Y57500000D03*
%TD*%
D14*
%TO.C,R12*%
X16530000Y67170000D03*
X16530000Y66150000D03*
%TD*%
D15*
%TO.C,C90*%
X70950000Y7200000D03*
X71910000Y7200000D03*
%TD*%
D21*
%TO.C,C69*%
X44850000Y54450000D03*
X44850000Y55410000D03*
%TD*%
D70*
%TO.C,L4*%
X86980000Y55187500D03*
X86980000Y57512500D03*
%TD*%
D63*
%TO.C,U11*%
X77250000Y61600000D03*
D69*
X75750000Y61512500D03*
D63*
X74250000Y61600000D03*
%TD*%
D18*
%TO.C,R46*%
X91700000Y48550000D03*
X91700000Y50200000D03*
%TD*%
D71*
%TO.C,L7*%
X17925000Y54080000D03*
X22200000Y54080000D03*
%TD*%
D12*
%TO.C,R7*%
X24900000Y75750000D03*
X24900000Y76770000D03*
%TD*%
D57*
%TO.C,Q2*%
X63600000Y86000000D03*
X63600000Y84100000D03*
X65600000Y85050000D03*
%TD*%
D21*
%TO.C,C13*%
X14950000Y72000000D03*
X14950000Y72960000D03*
%TD*%
D70*
%TO.C,L5*%
X71550000Y59275000D03*
X71550000Y61600000D03*
%TD*%
D11*
%TO.C,C17*%
X14730000Y68500000D03*
X13770000Y68500000D03*
%TD*%
D72*
%TO.C,Y1*%
X10350000Y35700000D03*
X10350000Y33500000D03*
X12050000Y33500000D03*
X12050000Y35700000D03*
%TD*%
D58*
%TO.C,C1*%
X30987500Y80700000D03*
X30987500Y83650000D03*
%TD*%
D22*
%TO.C,R42*%
X67945000Y44712500D03*
X66925000Y44712500D03*
%TD*%
D11*
%TO.C,C4*%
X34217500Y82200000D03*
X33257500Y82200000D03*
%TD*%
%TO.C,C44*%
X72510000Y57600000D03*
X71550000Y57600000D03*
%TD*%
D12*
%TO.C,R27*%
X43050000Y67450000D03*
X43050000Y68470000D03*
%TD*%
%TO.C,R11*%
X17930000Y64030000D03*
X17930000Y65050000D03*
%TD*%
D23*
%TO.C,R1*%
X33300000Y74600000D03*
X34320000Y74600000D03*
%TD*%
D14*
%TO.C,R32*%
X63775000Y43362500D03*
X63775000Y42342500D03*
%TD*%
D38*
%TO.C,L8*%
X41150000Y54450000D03*
X41150000Y56025000D03*
%TD*%
D23*
%TO.C,R54*%
X25700000Y56050000D03*
X26720000Y56050000D03*
%TD*%
D49*
%TO.C,U4*%
X12442500Y67100000D03*
X12442500Y66150000D03*
X12442500Y65200000D03*
X14717500Y65200000D03*
X14717500Y66150000D03*
X14717500Y67100000D03*
%TD*%
D15*
%TO.C,C71*%
X70950000Y4250000D03*
X71910000Y4250000D03*
%TD*%
D16*
%TO.C,C38*%
X63200000Y34562500D03*
X63200000Y33602500D03*
%TD*%
D22*
%TO.C,R19*%
X11570000Y46355000D03*
X10550000Y46355000D03*
%TD*%
D18*
%TO.C,R38*%
X79350000Y55850000D03*
X79350000Y57500000D03*
%TD*%
D68*
%TO.C,T2*%
X47500000Y46730000D03*
X47500000Y48000000D03*
X47500000Y49270000D03*
X50700000Y49270000D03*
X50700000Y46730000D03*
%TD*%
D11*
%TO.C,C9*%
X34237500Y68800000D03*
X33277500Y68800000D03*
%TD*%
D15*
%TO.C,C28*%
X11090000Y31700000D03*
X12050000Y31700000D03*
%TD*%
D22*
%TO.C,R26*%
X61960000Y87500000D03*
X60940000Y87500000D03*
%TD*%
%TO.C,R61*%
X79400000Y75800000D03*
X78380000Y75800000D03*
%TD*%
D49*
%TO.C,U13*%
X80400000Y46600000D03*
X80400000Y45650000D03*
X80400000Y44700000D03*
X82675000Y44700000D03*
X82675000Y45650000D03*
X82675000Y46600000D03*
%TD*%
D63*
%TO.C,U17*%
X76400000Y77650000D03*
D64*
X77900000Y77737500D03*
D63*
X79400000Y77650000D03*
%TD*%
D15*
%TO.C,C41*%
X83990000Y57500000D03*
X84950000Y57500000D03*
%TD*%
D73*
%TO.C,C3*%
X29350000Y36850000D03*
X29350000Y38750000D03*
%TD*%
D26*
%TO.C,D8*%
X45250000Y46050000D03*
X45250000Y47450000D03*
%TD*%
D37*
%TO.C,D3*%
X22700000Y82900000D03*
X22700000Y86200000D03*
%TD*%
D59*
%TO.C,FB2*%
X27350000Y67100000D03*
X28925000Y67100000D03*
%TD*%
D22*
%TO.C,R51*%
X26760000Y51142500D03*
X25740000Y51142500D03*
%TD*%
D74*
%TO.C,L11*%
X68500000Y76225000D03*
X68500000Y73900000D03*
%TD*%
D16*
%TO.C,C15*%
X14730000Y63800000D03*
X14730000Y62840000D03*
%TD*%
D12*
%TO.C,R72*%
X54950000Y82930000D03*
X54950000Y83950000D03*
%TD*%
D75*
%TO.C,J11*%
X29750000Y45000000D03*
X32750000Y45000000D03*
D76*
X30150000Y46300000D03*
X30150000Y43700000D03*
X32350000Y46300000D03*
X32350000Y43700000D03*
%TD*%
D77*
%TO.C,Q3*%
X45050000Y69950000D03*
X45050000Y71850000D03*
X43050000Y70900000D03*
%TD*%
D29*
%TO.C,R47*%
X69950000Y66000000D03*
X68300000Y66000000D03*
%TD*%
D14*
%TO.C,R60*%
X9350000Y64920000D03*
X9350000Y63900000D03*
%TD*%
%TO.C,R8*%
X23600000Y75750000D03*
X23600000Y74730000D03*
%TD*%
D78*
%TO.C,Q1*%
X56700000Y85500000D03*
X58600000Y85500000D03*
X57650000Y87500000D03*
%TD*%
D79*
%TO.C,J7*%
X55200000Y66400000D03*
X55200000Y69400000D03*
D80*
X53900000Y66800000D03*
X56500000Y66800000D03*
X53900000Y69000000D03*
X56500000Y69000000D03*
%TD*%
D20*
%TO.C,D5*%
X78270000Y88200000D03*
X77300000Y88200000D03*
%TD*%
D11*
%TO.C,C91*%
X93460000Y66700000D03*
X92500000Y66700000D03*
%TD*%
D24*
%TO.C,C77*%
X41500000Y63250000D03*
X41500000Y60300000D03*
%TD*%
D77*
%TO.C,Q5*%
X11350000Y58050000D03*
X11350000Y59950000D03*
X9350000Y59000000D03*
%TD*%
D21*
%TO.C,C33*%
X60175000Y44612500D03*
X60175000Y45572500D03*
%TD*%
D13*
%TO.C,U1*%
X35187500Y86287500D03*
X34237500Y86287500D03*
X33287500Y86287500D03*
X33287500Y84012500D03*
X34237500Y84012500D03*
X35187500Y84012500D03*
%TD*%
D11*
%TO.C,C23*%
X24700000Y27300000D03*
X23740000Y27300000D03*
%TD*%
D12*
%TO.C,R73*%
X12900000Y58050000D03*
X12900000Y59070000D03*
%TD*%
D23*
%TO.C,R3*%
X33300000Y88300000D03*
X34320000Y88300000D03*
%TD*%
D21*
%TO.C,C35*%
X56725000Y40002500D03*
X56725000Y40962500D03*
%TD*%
D15*
%TO.C,C25*%
X18000000Y39150000D03*
X18960000Y39150000D03*
%TD*%
D21*
%TO.C,C48*%
X62325000Y44712500D03*
X62325000Y45672500D03*
%TD*%
D59*
%TO.C,FB1*%
X27350000Y80600000D03*
X28925000Y80600000D03*
%TD*%
D81*
%TO.C,FB4*%
X48500000Y64850000D03*
X48500000Y63275000D03*
%TD*%
D12*
%TO.C,R59*%
X50300000Y64600000D03*
X50300000Y65620000D03*
%TD*%
D82*
%TO.C,J5*%
X56589340Y50889340D03*
X58710660Y53010660D03*
D83*
X55952944Y52091421D03*
X57791421Y50252944D03*
X57508579Y53647056D03*
X59347056Y51808579D03*
%TD*%
D11*
%TO.C,C72*%
X48580000Y54450000D03*
X47620000Y54450000D03*
%TD*%
D33*
%TO.C,D9*%
X43500000Y47450000D03*
X43500000Y46050000D03*
%TD*%
D11*
%TO.C,C68*%
X43630000Y54450000D03*
X42670000Y54450000D03*
%TD*%
D21*
%TO.C,C22*%
X15500000Y36000000D03*
X15500000Y36960000D03*
%TD*%
D23*
%TO.C,R15*%
X55590000Y12300000D03*
X56610000Y12300000D03*
%TD*%
D16*
%TO.C,C92*%
X92750000Y72460000D03*
X92750000Y71500000D03*
%TD*%
D11*
%TO.C,C63*%
X26660000Y54900000D03*
X25700000Y54900000D03*
%TD*%
D22*
%TO.C,R70*%
X34770000Y32000000D03*
X33750000Y32000000D03*
%TD*%
D11*
%TO.C,C85*%
X19000000Y17000000D03*
X18040000Y17000000D03*
%TD*%
%TO.C,C40*%
X87940000Y53562500D03*
X86980000Y53562500D03*
%TD*%
D84*
%TO.C,D14*%
X9350000Y61650000D03*
X9350000Y62620000D03*
%TD*%
D59*
%TO.C,FB3*%
X67562500Y85050000D03*
X69137500Y85050000D03*
%TD*%
D79*
%TO.C,J12*%
X35400000Y36100000D03*
X35400000Y39100000D03*
D80*
X34100000Y36500000D03*
X36700000Y36500000D03*
X34100000Y38700000D03*
X36700000Y38700000D03*
%TD*%
D58*
%TO.C,C8*%
X31000000Y67100000D03*
X31000000Y70050000D03*
%TD*%
D85*
%TO.C,J6*%
X61250000Y61650000D03*
X61250000Y58650000D03*
D86*
X62550000Y61250000D03*
X59950000Y61250000D03*
X62550000Y59050000D03*
X59950000Y59050000D03*
%TD*%
D15*
%TO.C,C62*%
X23470000Y51142500D03*
X24430000Y51142500D03*
%TD*%
M02*
