%TF.GenerationSoftware,KiCad,Pcbnew,7.0.1*%
%TF.CreationDate,2023-07-17T06:27:02-07:00*%
%TF.ProjectId,Antenna_Impedance_Match,416e7465-6e6e-4615-9f49-6d706564616e,rev?*%
%TF.SameCoordinates,Original*%
%TF.FileFunction,Copper,L1,Top*%
%TF.FilePolarity,Positive*%
%FSLAX46Y46*%
G04 Gerber Fmt 4.6, Leading zero omitted, Abs format (unit mm)*
G04 Created by KiCad (PCBNEW 7.0.1) date 2023-07-17 06:27:02*
%MOMM*%
%LPD*%
G01*
G04 APERTURE LIST*
G04 Aperture macros list*
%AMRoundRect*
0 Rectangle with rounded corners*
0 $1 Rounding radius*
0 $2 $3 $4 $5 $6 $7 $8 $9 X,Y pos of 4 corners*
0 Add a 4 corners polygon primitive as box body*
4,1,4,$2,$3,$4,$5,$6,$7,$8,$9,$2,$3,0*
0 Add four circle primitives for the rounded corners*
1,1,$1+$1,$2,$3*
1,1,$1+$1,$4,$5*
1,1,$1+$1,$6,$7*
1,1,$1+$1,$8,$9*
0 Add four rect primitives between the rounded corners*
20,1,$1+$1,$2,$3,$4,$5,0*
20,1,$1+$1,$4,$5,$6,$7,0*
20,1,$1+$1,$6,$7,$8,$9,0*
20,1,$1+$1,$8,$9,$2,$3,0*%
G04 Aperture macros list end*
%TA.AperFunction,SMDPad,CuDef*%
%ADD10RoundRect,0.250000X0.475000X-0.250000X0.475000X0.250000X-0.475000X0.250000X-0.475000X-0.250000X0*%
%TD*%
%TA.AperFunction,SMDPad,CuDef*%
%ADD11R,5.200000X1.270000*%
%TD*%
%TA.AperFunction,SMDPad,CuDef*%
%ADD12R,4.900000X1.350000*%
%TD*%
%TA.AperFunction,SMDPad,CuDef*%
%ADD13RoundRect,0.089000X-0.801000X-2.136000X0.801000X-2.136000X0.801000X2.136000X-0.801000X2.136000X0*%
%TD*%
%TA.AperFunction,ComponentPad*%
%ADD14C,2.600000*%
%TD*%
%TA.AperFunction,ViaPad*%
%ADD15C,0.800000*%
%TD*%
%TA.AperFunction,Conductor*%
%ADD16C,0.250000*%
%TD*%
G04 APERTURE END LIST*
D10*
%TO.P,C2,1*%
%TO.N,GND*%
X144500000Y-81900000D03*
%TO.P,C2,2*%
%TO.N,/RF_75_SE*%
X144500000Y-80000000D03*
%TD*%
D11*
%TO.P,J1,1,In*%
%TO.N,/RF_50_SE*%
X127842500Y-80000000D03*
D12*
%TO.P,J1,2,Ext*%
%TO.N,GND*%
X127592500Y-77175000D03*
X127592500Y-82825000D03*
%TD*%
D13*
%TO.P,L1,1,1*%
%TO.N,/RF_50_SE*%
X136350000Y-80000000D03*
%TO.P,L1,2,2*%
%TO.N,/RF_75_SE*%
X141150000Y-80000000D03*
%TD*%
D14*
%TO.P,TP2,1,1*%
%TO.N,GND*%
X153100000Y-81905000D03*
X153100000Y-78095000D03*
%TD*%
D10*
%TO.P,C1,1*%
%TO.N,GND*%
X133300000Y-81900000D03*
%TO.P,C1,2*%
%TO.N,/RF_50_SE*%
X133300000Y-80000000D03*
%TD*%
D15*
%TO.N,GND*%
X149400000Y-78300000D03*
X125950000Y-75800000D03*
X127600000Y-81550000D03*
X147900000Y-78300000D03*
X137900000Y-77400000D03*
X139600000Y-82600000D03*
X150500000Y-81000000D03*
X144900000Y-78700000D03*
X130366666Y-81550000D03*
X134700000Y-77600000D03*
X130625000Y-78450000D03*
X127600000Y-75850000D03*
X143100000Y-81900000D03*
X146400000Y-78500000D03*
X143400000Y-78700000D03*
X127600000Y-84150000D03*
X145900000Y-81900000D03*
X130700000Y-77150000D03*
X136200000Y-77000000D03*
X134700000Y-81900000D03*
X141400000Y-83000000D03*
X137900000Y-82600000D03*
X133650000Y-78450000D03*
X139600000Y-77400000D03*
X141200000Y-77000000D03*
X126050000Y-84200000D03*
X149200000Y-81600000D03*
X151600000Y-76600000D03*
X131750000Y-81550000D03*
X133300000Y-83000000D03*
X151800000Y-80000000D03*
X130700000Y-82800000D03*
X127600000Y-78450000D03*
X129112500Y-78450000D03*
X147500000Y-81600000D03*
X151600000Y-83400000D03*
X150600000Y-79200000D03*
X154100000Y-80000000D03*
X132137500Y-78450000D03*
X128983333Y-81550000D03*
X142700000Y-77400000D03*
X144500000Y-83000000D03*
X136300000Y-83000000D03*
%TD*%
D16*
%TO.N,GND*%
X125650000Y-75900000D02*
X125650000Y-76800000D01*
X127592500Y-82825000D02*
X125975000Y-82825000D01*
X125975000Y-82825000D02*
X125650000Y-83150000D01*
X125650000Y-83150000D02*
X125650000Y-84050000D01*
X125650000Y-77600000D02*
X125650000Y-78500000D01*
X125650000Y-81600000D02*
X125650000Y-82500000D01*
%TD*%
%TA.AperFunction,Conductor*%
%TO.N,/RF_75_SE*%
G36*
X147200000Y-80300000D02*
G01*
X140424000Y-80300000D01*
X140362000Y-80283387D01*
X140316613Y-80238000D01*
X140300000Y-80176000D01*
X140300000Y-79724000D01*
X140316613Y-79662000D01*
X140362000Y-79616613D01*
X140424000Y-79600000D01*
X146800000Y-79600000D01*
X147200000Y-79600000D01*
X147200000Y-80300000D01*
G37*
%TD.AperFunction*%
%TD*%
%TA.AperFunction,Conductor*%
%TO.N,/RF_50_SE*%
G36*
X136938000Y-79216613D02*
G01*
X136983387Y-79262000D01*
X137000000Y-79324000D01*
X137000000Y-80676000D01*
X136983387Y-80738000D01*
X136938000Y-80783387D01*
X136876000Y-80800000D01*
X125624000Y-80800000D01*
X125562000Y-80783387D01*
X125516613Y-80738000D01*
X125500000Y-80676000D01*
X125500000Y-79324000D01*
X125516613Y-79262000D01*
X125562000Y-79216613D01*
X125624000Y-79200000D01*
X136876000Y-79200000D01*
X136938000Y-79216613D01*
G37*
%TD.AperFunction*%
%TD*%
%TA.AperFunction,Conductor*%
%TO.N,/RF_75_SE*%
G36*
X149459640Y-79101527D02*
G01*
X149496361Y-79107342D01*
X149538756Y-79114057D01*
X149575651Y-79126044D01*
X149638228Y-79157929D01*
X149669613Y-79180732D01*
X149719267Y-79230386D01*
X149742071Y-79261772D01*
X149773954Y-79324346D01*
X149785942Y-79361243D01*
X149798473Y-79440359D01*
X149800000Y-79459757D01*
X149800000Y-80440243D01*
X149798473Y-80459642D01*
X149785942Y-80538757D01*
X149773954Y-80575653D01*
X149742071Y-80638227D01*
X149719267Y-80669613D01*
X149669613Y-80719267D01*
X149638227Y-80742071D01*
X149575653Y-80773954D01*
X149538757Y-80785942D01*
X149476308Y-80795833D01*
X149459640Y-80798473D01*
X149440243Y-80800000D01*
X147062211Y-80800000D01*
X147038020Y-80797617D01*
X147023189Y-80794667D01*
X146978518Y-80785781D01*
X146933822Y-80767267D01*
X146893727Y-80740477D01*
X146859522Y-80706272D01*
X146832730Y-80666175D01*
X146814218Y-80621480D01*
X146802383Y-80561980D01*
X146800000Y-80537789D01*
X146800000Y-80300000D01*
X146800000Y-79362211D01*
X146802381Y-79338028D01*
X146814219Y-79278514D01*
X146832729Y-79233826D01*
X146859524Y-79193724D01*
X146893724Y-79159524D01*
X146933826Y-79132729D01*
X146978514Y-79114219D01*
X147038028Y-79102381D01*
X147062211Y-79100000D01*
X149440243Y-79100000D01*
X149459640Y-79101527D01*
G37*
%TD.AperFunction*%
%TD*%
%TA.AperFunction,Conductor*%
%TO.N,GND*%
G36*
X154438000Y-73516613D02*
G01*
X154483387Y-73562000D01*
X154500000Y-73624000D01*
X154500000Y-77011429D01*
X154485587Y-77069452D01*
X154445700Y-77113986D01*
X154389609Y-77134680D01*
X154362143Y-77130991D01*
X154313408Y-77129076D01*
X153347487Y-78095000D01*
X153347487Y-78095001D01*
X154313408Y-79060922D01*
X154362131Y-79059008D01*
X154389611Y-79055318D01*
X154445700Y-79076012D01*
X154485588Y-79120547D01*
X154500000Y-79178569D01*
X154500000Y-80821429D01*
X154485587Y-80879452D01*
X154445700Y-80923986D01*
X154389609Y-80944680D01*
X154362143Y-80940991D01*
X154313408Y-80939076D01*
X153347487Y-81905000D01*
X153347487Y-81905001D01*
X154313408Y-82870922D01*
X154362131Y-82869008D01*
X154389611Y-82865318D01*
X154445700Y-82886012D01*
X154485588Y-82930547D01*
X154500000Y-82988569D01*
X154500000Y-86376000D01*
X154483387Y-86438000D01*
X154438000Y-86483387D01*
X154376000Y-86500000D01*
X125624000Y-86500000D01*
X125562000Y-86483387D01*
X125516613Y-86438000D01*
X125500000Y-86376000D01*
X125500000Y-83874000D01*
X125516613Y-83812000D01*
X125562000Y-83766613D01*
X125624000Y-83750000D01*
X127417500Y-83750000D01*
X127417500Y-83000000D01*
X127767500Y-83000000D01*
X127767500Y-83750000D01*
X130067125Y-83750000D01*
X130140043Y-83735495D01*
X130222739Y-83680239D01*
X130277995Y-83597543D01*
X130292500Y-83524625D01*
X130292500Y-83118408D01*
X152134076Y-83118408D01*
X152186117Y-83162854D01*
X152394137Y-83290329D01*
X152619542Y-83383696D01*
X152856775Y-83440650D01*
X153099999Y-83459792D01*
X153343224Y-83440650D01*
X153580457Y-83383696D01*
X153805862Y-83290329D01*
X154013882Y-83162854D01*
X154065922Y-83118408D01*
X153100000Y-82152487D01*
X152134076Y-83118408D01*
X130292500Y-83118408D01*
X130292500Y-83000000D01*
X127767500Y-83000000D01*
X127417500Y-83000000D01*
X127417500Y-81900000D01*
X127767500Y-81900000D01*
X127767500Y-82650000D01*
X130292500Y-82650000D01*
X130292500Y-82125375D01*
X130282479Y-82075000D01*
X132325000Y-82075000D01*
X132325000Y-82197824D01*
X132331402Y-82257375D01*
X132381647Y-82392089D01*
X132467811Y-82507188D01*
X132582910Y-82593352D01*
X132717624Y-82643597D01*
X132777176Y-82650000D01*
X133125000Y-82650000D01*
X133125000Y-82075000D01*
X133475000Y-82075000D01*
X133475000Y-82650000D01*
X133822824Y-82650000D01*
X133882375Y-82643597D01*
X134017089Y-82593352D01*
X134132188Y-82507188D01*
X134218352Y-82392089D01*
X134268597Y-82257375D01*
X134275000Y-82197824D01*
X134275000Y-82075000D01*
X133475000Y-82075000D01*
X133125000Y-82075000D01*
X132325000Y-82075000D01*
X130282479Y-82075000D01*
X130277995Y-82052456D01*
X130222739Y-81969760D01*
X130140043Y-81914504D01*
X130067125Y-81900000D01*
X127767500Y-81900000D01*
X127417500Y-81900000D01*
X125624000Y-81900000D01*
X125562000Y-81883387D01*
X125516613Y-81838000D01*
X125500000Y-81776000D01*
X125500000Y-81279500D01*
X125516613Y-81217500D01*
X125562000Y-81172113D01*
X125624000Y-81155500D01*
X132322880Y-81155500D01*
X132388047Y-81174005D01*
X132433764Y-81223996D01*
X132446386Y-81290553D01*
X132422147Y-81353811D01*
X132381647Y-81407911D01*
X132331402Y-81542624D01*
X132325000Y-81602176D01*
X132325000Y-81725000D01*
X134275000Y-81725000D01*
X134275000Y-81602176D01*
X134268597Y-81542624D01*
X134218352Y-81407911D01*
X134177853Y-81353811D01*
X134153614Y-81290553D01*
X134166236Y-81223996D01*
X134211953Y-81174005D01*
X134277120Y-81155500D01*
X134985501Y-81155500D01*
X135047501Y-81172113D01*
X135092888Y-81217500D01*
X135109501Y-81279500D01*
X135109501Y-82188932D01*
X135112285Y-82218631D01*
X135156043Y-82343684D01*
X135234715Y-82450284D01*
X135279981Y-82483690D01*
X135341316Y-82528957D01*
X135466369Y-82572715D01*
X135496067Y-82575500D01*
X137203932Y-82575499D01*
X137233631Y-82572715D01*
X137358684Y-82528957D01*
X137465284Y-82450284D01*
X137543957Y-82343684D01*
X137565176Y-82283042D01*
X137591319Y-82239659D01*
X137632630Y-82210346D01*
X137682217Y-82200000D01*
X139817783Y-82200000D01*
X139867370Y-82210346D01*
X139908681Y-82239659D01*
X139934823Y-82283042D01*
X139956043Y-82343684D01*
X140034715Y-82450284D01*
X140079981Y-82483690D01*
X140141316Y-82528957D01*
X140266369Y-82572715D01*
X140296067Y-82575500D01*
X142003932Y-82575499D01*
X142033631Y-82572715D01*
X142158684Y-82528957D01*
X142265284Y-82450284D01*
X142343957Y-82343684D01*
X142365176Y-82283042D01*
X142391319Y-82239659D01*
X142432630Y-82210346D01*
X142482217Y-82200000D01*
X142600000Y-82200000D01*
X142600000Y-82075000D01*
X143525000Y-82075000D01*
X143525000Y-82197824D01*
X143531402Y-82257375D01*
X143581647Y-82392089D01*
X143667811Y-82507188D01*
X143782910Y-82593352D01*
X143917624Y-82643597D01*
X143977176Y-82650000D01*
X144325000Y-82650000D01*
X144325000Y-82075000D01*
X144675000Y-82075000D01*
X144675000Y-82650000D01*
X145022824Y-82650000D01*
X145082375Y-82643597D01*
X145217089Y-82593352D01*
X145332188Y-82507188D01*
X145418352Y-82392089D01*
X145468597Y-82257375D01*
X145475000Y-82197824D01*
X145475000Y-82075000D01*
X144675000Y-82075000D01*
X144325000Y-82075000D01*
X143525000Y-82075000D01*
X142600000Y-82075000D01*
X142600000Y-81904999D01*
X151545207Y-81904999D01*
X151564349Y-82148224D01*
X151621303Y-82385457D01*
X151714670Y-82610862D01*
X151842147Y-82818885D01*
X151886589Y-82870922D01*
X152852513Y-81905001D01*
X152852513Y-81905000D01*
X151886590Y-80939077D01*
X151886589Y-80939077D01*
X151842146Y-80991114D01*
X151714670Y-81199137D01*
X151621303Y-81424542D01*
X151564349Y-81661775D01*
X151545207Y-81904999D01*
X142600000Y-81904999D01*
X142600000Y-81725000D01*
X143525000Y-81725000D01*
X144325000Y-81725000D01*
X144325000Y-81150000D01*
X144675000Y-81150000D01*
X144675000Y-81725000D01*
X145475000Y-81725000D01*
X145475000Y-81602176D01*
X145468597Y-81542624D01*
X145418352Y-81407910D01*
X145332188Y-81292811D01*
X145217089Y-81206647D01*
X145082375Y-81156402D01*
X145022824Y-81150000D01*
X144675000Y-81150000D01*
X144325000Y-81150000D01*
X143977176Y-81150000D01*
X143917624Y-81156402D01*
X143782910Y-81206647D01*
X143667811Y-81292811D01*
X143581647Y-81407910D01*
X143531402Y-81542624D01*
X143525000Y-81602176D01*
X143525000Y-81725000D01*
X142600000Y-81725000D01*
X142600000Y-80924000D01*
X142616613Y-80862000D01*
X142662000Y-80816613D01*
X142724000Y-80800000D01*
X143758969Y-80800000D01*
X143806421Y-80809439D01*
X143823741Y-80816613D01*
X143868238Y-80835044D01*
X143985639Y-80850500D01*
X145014360Y-80850499D01*
X145014362Y-80850499D01*
X145082849Y-80841483D01*
X145131762Y-80835044D01*
X145193578Y-80809438D01*
X145241031Y-80800000D01*
X146428783Y-80800000D01*
X146492537Y-80817645D01*
X146532400Y-80859521D01*
X146533758Y-80858615D01*
X146563931Y-80903773D01*
X146608146Y-80957649D01*
X146642349Y-80991851D01*
X146696222Y-81036065D01*
X146696225Y-81036067D01*
X146736320Y-81062857D01*
X146797776Y-81095705D01*
X146842472Y-81114219D01*
X146874853Y-81124042D01*
X146909164Y-81134451D01*
X146968648Y-81146283D01*
X146968651Y-81146283D01*
X146968664Y-81146286D01*
X147003169Y-81151405D01*
X147027360Y-81153788D01*
X147062211Y-81155500D01*
X149440243Y-81155500D01*
X149440255Y-81155500D01*
X149461168Y-81154677D01*
X149468143Y-81154404D01*
X149487540Y-81152877D01*
X149515253Y-81149596D01*
X149594370Y-81137065D01*
X149648611Y-81124043D01*
X149685507Y-81112055D01*
X149726974Y-81094878D01*
X149737039Y-81090710D01*
X149737040Y-81090709D01*
X149737046Y-81090707D01*
X149799620Y-81058824D01*
X149847189Y-81029673D01*
X149878575Y-81006869D01*
X149920989Y-80970643D01*
X149970643Y-80920989D01*
X150006869Y-80878575D01*
X150029673Y-80847189D01*
X150058824Y-80799620D01*
X150090707Y-80737046D01*
X150090978Y-80736393D01*
X150109535Y-80691590D01*
X152134077Y-80691590D01*
X153100000Y-81657513D01*
X153100001Y-81657513D01*
X154065922Y-80691589D01*
X154013885Y-80647147D01*
X153805862Y-80519670D01*
X153580457Y-80426303D01*
X153343224Y-80369349D01*
X153099999Y-80350207D01*
X152856775Y-80369349D01*
X152619542Y-80426303D01*
X152394137Y-80519670D01*
X152186114Y-80647146D01*
X152134077Y-80691589D01*
X152134077Y-80691590D01*
X150109535Y-80691590D01*
X150112055Y-80685507D01*
X150124043Y-80648611D01*
X150137065Y-80594371D01*
X150149596Y-80515256D01*
X150152877Y-80487539D01*
X150154404Y-80468140D01*
X150155500Y-80440243D01*
X150155500Y-79459757D01*
X150154404Y-79431859D01*
X150152877Y-79412461D01*
X150149596Y-79384745D01*
X150137505Y-79308408D01*
X152134076Y-79308408D01*
X152186117Y-79352854D01*
X152394137Y-79480329D01*
X152619542Y-79573696D01*
X152856775Y-79630650D01*
X153100000Y-79649792D01*
X153343224Y-79630650D01*
X153580457Y-79573696D01*
X153805862Y-79480329D01*
X154013882Y-79352854D01*
X154065922Y-79308408D01*
X153100000Y-78342487D01*
X152134076Y-79308408D01*
X150137505Y-79308408D01*
X150137065Y-79305629D01*
X150124044Y-79251392D01*
X150112056Y-79214495D01*
X150090707Y-79162953D01*
X150058824Y-79100379D01*
X150029673Y-79052810D01*
X150029670Y-79052805D01*
X150006870Y-79021425D01*
X149970640Y-78979006D01*
X149920992Y-78929358D01*
X149896160Y-78908149D01*
X149878573Y-78893128D01*
X149847188Y-78870325D01*
X149799623Y-78841177D01*
X149799620Y-78841175D01*
X149799616Y-78841173D01*
X149737050Y-78809293D01*
X149685500Y-78787941D01*
X149648596Y-78775951D01*
X149594364Y-78762932D01*
X149515253Y-78750403D01*
X149487540Y-78747123D01*
X149468136Y-78745595D01*
X149440255Y-78744500D01*
X149440243Y-78744500D01*
X147062211Y-78744500D01*
X147027378Y-78746211D01*
X147027376Y-78746211D01*
X147027359Y-78746212D01*
X147003205Y-78748590D01*
X146971057Y-78753358D01*
X146968674Y-78753712D01*
X146944935Y-78758433D01*
X146909152Y-78765551D01*
X146842475Y-78785777D01*
X146797789Y-78804286D01*
X146788424Y-78809292D01*
X146736322Y-78837141D01*
X146736319Y-78837142D01*
X146736319Y-78837143D01*
X146696216Y-78863938D01*
X146642345Y-78908149D01*
X146608149Y-78942345D01*
X146563938Y-78996216D01*
X146533757Y-79041387D01*
X146532399Y-79040479D01*
X146492535Y-79082356D01*
X146428782Y-79100000D01*
X142724000Y-79100000D01*
X142662000Y-79083387D01*
X142616613Y-79038000D01*
X142600000Y-78976000D01*
X142600000Y-78095000D01*
X151545207Y-78095000D01*
X151564349Y-78338224D01*
X151621303Y-78575457D01*
X151714670Y-78800862D01*
X151842147Y-79008885D01*
X151886589Y-79060922D01*
X152852513Y-78095001D01*
X152852513Y-78095000D01*
X151886590Y-77129077D01*
X151886589Y-77129077D01*
X151842146Y-77181114D01*
X151714670Y-77389137D01*
X151621303Y-77614542D01*
X151564349Y-77851775D01*
X151545207Y-78095000D01*
X142600000Y-78095000D01*
X142600000Y-77800000D01*
X142482217Y-77800000D01*
X142432630Y-77789654D01*
X142391319Y-77760341D01*
X142365176Y-77716957D01*
X142343957Y-77656316D01*
X142313127Y-77614542D01*
X142265284Y-77549715D01*
X142203949Y-77504449D01*
X142158684Y-77471043D01*
X142033631Y-77427285D01*
X142033630Y-77427284D01*
X142033628Y-77427284D01*
X142003935Y-77424500D01*
X140296070Y-77424500D01*
X140269442Y-77426996D01*
X140266369Y-77427285D01*
X140203842Y-77449163D01*
X140141315Y-77471043D01*
X140034715Y-77549715D01*
X139956043Y-77656315D01*
X139956042Y-77656316D01*
X139956043Y-77656316D01*
X139934823Y-77716957D01*
X139908681Y-77760341D01*
X139867370Y-77789654D01*
X139817783Y-77800000D01*
X137682217Y-77800000D01*
X137632630Y-77789654D01*
X137591319Y-77760341D01*
X137565176Y-77716957D01*
X137543957Y-77656316D01*
X137513127Y-77614542D01*
X137465284Y-77549715D01*
X137403949Y-77504449D01*
X137358684Y-77471043D01*
X137233631Y-77427285D01*
X137233630Y-77427284D01*
X137233628Y-77427284D01*
X137203935Y-77424500D01*
X135496070Y-77424500D01*
X135469442Y-77426996D01*
X135466369Y-77427285D01*
X135403842Y-77449163D01*
X135341315Y-77471043D01*
X135234715Y-77549715D01*
X135156043Y-77656316D01*
X135112284Y-77781371D01*
X135109500Y-77811064D01*
X135109500Y-78720500D01*
X135092887Y-78782500D01*
X135047500Y-78827887D01*
X134985500Y-78844500D01*
X125624000Y-78844500D01*
X125562000Y-78827887D01*
X125516613Y-78782500D01*
X125500000Y-78720500D01*
X125500000Y-78224000D01*
X125516613Y-78162000D01*
X125562000Y-78116613D01*
X125624000Y-78100000D01*
X127417500Y-78100000D01*
X127417500Y-77350000D01*
X127767500Y-77350000D01*
X127767500Y-78100000D01*
X130067125Y-78100000D01*
X130140043Y-78085495D01*
X130222739Y-78030239D01*
X130277995Y-77947543D01*
X130292500Y-77874625D01*
X130292500Y-77350000D01*
X127767500Y-77350000D01*
X127417500Y-77350000D01*
X127417500Y-76250000D01*
X127767500Y-76250000D01*
X127767500Y-77000000D01*
X130292500Y-77000000D01*
X130292500Y-76881590D01*
X152134077Y-76881590D01*
X153100000Y-77847513D01*
X153100001Y-77847513D01*
X154065922Y-76881589D01*
X154013885Y-76837147D01*
X153805862Y-76709670D01*
X153580457Y-76616303D01*
X153343224Y-76559349D01*
X153100000Y-76540207D01*
X152856775Y-76559349D01*
X152619542Y-76616303D01*
X152394137Y-76709670D01*
X152186114Y-76837146D01*
X152134077Y-76881589D01*
X152134077Y-76881590D01*
X130292500Y-76881590D01*
X130292500Y-76475375D01*
X130277995Y-76402456D01*
X130222739Y-76319760D01*
X130140043Y-76264504D01*
X130067125Y-76250000D01*
X127767500Y-76250000D01*
X127417500Y-76250000D01*
X125624000Y-76250000D01*
X125562000Y-76233387D01*
X125516613Y-76188000D01*
X125500000Y-76126000D01*
X125500000Y-73624000D01*
X125516613Y-73562000D01*
X125562000Y-73516613D01*
X125624000Y-73500000D01*
X154376000Y-73500000D01*
X154438000Y-73516613D01*
G37*
%TD.AperFunction*%
%TD*%
M02*
