%TF.GenerationSoftware,KiCad,Pcbnew,7.0.1*%
%TF.CreationDate,2023-07-17T06:27:02-07:00*%
%TF.ProjectId,Antenna_Impedance_Match,416e7465-6e6e-4615-9f49-6d706564616e,rev?*%
%TF.SameCoordinates,Original*%
%TF.FileFunction,Copper,L2,Bot*%
%TF.FilePolarity,Positive*%
%FSLAX46Y46*%
G04 Gerber Fmt 4.6, Leading zero omitted, Abs format (unit mm)*
G04 Created by KiCad (PCBNEW 7.0.1) date 2023-07-17 06:27:02*
%MOMM*%
%LPD*%
G01*
G04 APERTURE LIST*
%TA.AperFunction,SMDPad,CuDef*%
%ADD10R,4.900000X1.350000*%
%TD*%
%TA.AperFunction,ComponentPad*%
%ADD11C,2.600000*%
%TD*%
%TA.AperFunction,ViaPad*%
%ADD12C,0.800000*%
%TD*%
%TA.AperFunction,Conductor*%
%ADD13C,0.250000*%
%TD*%
G04 APERTURE END LIST*
D10*
%TO.P,J1,2,Ext*%
%TO.N,GND*%
X127592500Y-77175000D03*
X127592500Y-82825000D03*
%TD*%
D11*
%TO.P,TP2,1,1*%
%TO.N,GND*%
X153100000Y-81905000D03*
X153100000Y-78095000D03*
%TD*%
D12*
%TO.N,GND*%
X149400000Y-78300000D03*
X125950000Y-75800000D03*
X127600000Y-81550000D03*
X147900000Y-78300000D03*
X137900000Y-77400000D03*
X139600000Y-82600000D03*
X150500000Y-81000000D03*
X144900000Y-78700000D03*
X130366666Y-81550000D03*
X134700000Y-77600000D03*
X130625000Y-78450000D03*
X127600000Y-75850000D03*
X143100000Y-81900000D03*
X146400000Y-78500000D03*
X143400000Y-78700000D03*
X127600000Y-84150000D03*
X145900000Y-81900000D03*
X130700000Y-77150000D03*
X136200000Y-77000000D03*
X134700000Y-81900000D03*
X141400000Y-83000000D03*
X137900000Y-82600000D03*
X133650000Y-78450000D03*
X139600000Y-77400000D03*
X141200000Y-77000000D03*
X126050000Y-84200000D03*
X149200000Y-81600000D03*
X151600000Y-76600000D03*
X131750000Y-81550000D03*
X133300000Y-83000000D03*
X151800000Y-80000000D03*
X130700000Y-82800000D03*
X127600000Y-78450000D03*
X129112500Y-78450000D03*
X147500000Y-81600000D03*
X151600000Y-83400000D03*
X150600000Y-79200000D03*
X154100000Y-80000000D03*
X132137500Y-78450000D03*
X128983333Y-81550000D03*
X142700000Y-77400000D03*
X144500000Y-83000000D03*
X136300000Y-83000000D03*
%TD*%
D13*
%TO.N,GND*%
X125650000Y-81600000D02*
X125650000Y-82500000D01*
X125650000Y-77600000D02*
X125650000Y-78500000D01*
X125650000Y-75900000D02*
X125650000Y-76800000D01*
X125650000Y-83150000D02*
X125650000Y-84050000D01*
%TD*%
%TA.AperFunction,Conductor*%
%TO.N,GND*%
G36*
X154438000Y-73516613D02*
G01*
X154483387Y-73562000D01*
X154500000Y-73624000D01*
X154500000Y-77011429D01*
X154485587Y-77069452D01*
X154445700Y-77113986D01*
X154389609Y-77134680D01*
X154362143Y-77130991D01*
X154313408Y-77129076D01*
X153347487Y-78095000D01*
X153347487Y-78095001D01*
X154313408Y-79060922D01*
X154362131Y-79059008D01*
X154389611Y-79055318D01*
X154445700Y-79076012D01*
X154485588Y-79120547D01*
X154500000Y-79178569D01*
X154500000Y-80821429D01*
X154485587Y-80879452D01*
X154445700Y-80923986D01*
X154389609Y-80944680D01*
X154362143Y-80940991D01*
X154313408Y-80939076D01*
X153347487Y-81905000D01*
X153347487Y-81905001D01*
X154313408Y-82870922D01*
X154362131Y-82869008D01*
X154389611Y-82865318D01*
X154445700Y-82886012D01*
X154485588Y-82930547D01*
X154500000Y-82988569D01*
X154500000Y-86376000D01*
X154483387Y-86438000D01*
X154438000Y-86483387D01*
X154376000Y-86500000D01*
X125624000Y-86500000D01*
X125562000Y-86483387D01*
X125516613Y-86438000D01*
X125500000Y-86376000D01*
X125500000Y-83874000D01*
X125516613Y-83812000D01*
X125562000Y-83766613D01*
X125624000Y-83750000D01*
X127417500Y-83750000D01*
X127417500Y-83000000D01*
X127767500Y-83000000D01*
X127767500Y-83750000D01*
X130067125Y-83750000D01*
X130140043Y-83735495D01*
X130222739Y-83680239D01*
X130277995Y-83597543D01*
X130292500Y-83524625D01*
X130292500Y-83118408D01*
X152134076Y-83118408D01*
X152186117Y-83162854D01*
X152394137Y-83290329D01*
X152619542Y-83383696D01*
X152856775Y-83440650D01*
X153099999Y-83459792D01*
X153343224Y-83440650D01*
X153580457Y-83383696D01*
X153805862Y-83290329D01*
X154013882Y-83162854D01*
X154065922Y-83118408D01*
X153100000Y-82152487D01*
X152134076Y-83118408D01*
X130292500Y-83118408D01*
X130292500Y-83000000D01*
X127767500Y-83000000D01*
X127417500Y-83000000D01*
X127417500Y-81900000D01*
X127767500Y-81900000D01*
X127767500Y-82650000D01*
X130292500Y-82650000D01*
X130292500Y-82125375D01*
X130277995Y-82052456D01*
X130222739Y-81969760D01*
X130140043Y-81914504D01*
X130092257Y-81904999D01*
X151545207Y-81904999D01*
X151564349Y-82148224D01*
X151621303Y-82385457D01*
X151714670Y-82610862D01*
X151842147Y-82818885D01*
X151886589Y-82870922D01*
X152852513Y-81905001D01*
X152852513Y-81905000D01*
X151886590Y-80939077D01*
X151886589Y-80939077D01*
X151842146Y-80991114D01*
X151714670Y-81199137D01*
X151621303Y-81424542D01*
X151564349Y-81661775D01*
X151545207Y-81904999D01*
X130092257Y-81904999D01*
X130067125Y-81900000D01*
X127767500Y-81900000D01*
X127417500Y-81900000D01*
X125624000Y-81900000D01*
X125562000Y-81883387D01*
X125516613Y-81838000D01*
X125500000Y-81776000D01*
X125500000Y-80691590D01*
X152134077Y-80691590D01*
X153100000Y-81657513D01*
X153100001Y-81657513D01*
X154065922Y-80691589D01*
X154013885Y-80647147D01*
X153805862Y-80519670D01*
X153580457Y-80426303D01*
X153343224Y-80369349D01*
X153099999Y-80350207D01*
X152856775Y-80369349D01*
X152619542Y-80426303D01*
X152394137Y-80519670D01*
X152186114Y-80647146D01*
X152134077Y-80691589D01*
X152134077Y-80691590D01*
X125500000Y-80691590D01*
X125500000Y-79308408D01*
X152134076Y-79308408D01*
X152186117Y-79352854D01*
X152394137Y-79480329D01*
X152619542Y-79573696D01*
X152856775Y-79630650D01*
X153100000Y-79649792D01*
X153343224Y-79630650D01*
X153580457Y-79573696D01*
X153805862Y-79480329D01*
X154013882Y-79352854D01*
X154065922Y-79308408D01*
X153100000Y-78342487D01*
X152134076Y-79308408D01*
X125500000Y-79308408D01*
X125500000Y-78224000D01*
X125516613Y-78162000D01*
X125562000Y-78116613D01*
X125624000Y-78100000D01*
X127417500Y-78100000D01*
X127417500Y-77350000D01*
X127767500Y-77350000D01*
X127767500Y-78100000D01*
X130067125Y-78100000D01*
X130092260Y-78095000D01*
X151545207Y-78095000D01*
X151564349Y-78338224D01*
X151621303Y-78575457D01*
X151714670Y-78800862D01*
X151842147Y-79008885D01*
X151886589Y-79060922D01*
X152852513Y-78095001D01*
X152852513Y-78095000D01*
X151886590Y-77129077D01*
X151886589Y-77129077D01*
X151842146Y-77181114D01*
X151714670Y-77389137D01*
X151621303Y-77614542D01*
X151564349Y-77851775D01*
X151545207Y-78095000D01*
X130092260Y-78095000D01*
X130140043Y-78085495D01*
X130222739Y-78030239D01*
X130277995Y-77947543D01*
X130292500Y-77874625D01*
X130292500Y-77350000D01*
X127767500Y-77350000D01*
X127417500Y-77350000D01*
X127417500Y-76250000D01*
X127767500Y-76250000D01*
X127767500Y-77000000D01*
X130292500Y-77000000D01*
X130292500Y-76881590D01*
X152134077Y-76881590D01*
X153100000Y-77847513D01*
X153100001Y-77847513D01*
X154065922Y-76881589D01*
X154013885Y-76837147D01*
X153805862Y-76709670D01*
X153580457Y-76616303D01*
X153343224Y-76559349D01*
X153100000Y-76540207D01*
X152856775Y-76559349D01*
X152619542Y-76616303D01*
X152394137Y-76709670D01*
X152186114Y-76837146D01*
X152134077Y-76881589D01*
X152134077Y-76881590D01*
X130292500Y-76881590D01*
X130292500Y-76475375D01*
X130277995Y-76402456D01*
X130222739Y-76319760D01*
X130140043Y-76264504D01*
X130067125Y-76250000D01*
X127767500Y-76250000D01*
X127417500Y-76250000D01*
X125624000Y-76250000D01*
X125562000Y-76233387D01*
X125516613Y-76188000D01*
X125500000Y-76126000D01*
X125500000Y-73624000D01*
X125516613Y-73562000D01*
X125562000Y-73516613D01*
X125624000Y-73500000D01*
X154376000Y-73500000D01*
X154438000Y-73516613D01*
G37*
%TD.AperFunction*%
%TD*%
M02*
