M48
; DRILL file {KiCad 7.0.1} date Mon Jul 17 06:27:07 2023
; FORMAT={-:-/ absolute / metric / decimal}
; #@! TF.CreationDate,2023-07-17T06:27:07-07:00
; #@! TF.GenerationSoftware,Kicad,Pcbnew,7.0.1
; #@! TF.FileFunction,Plated,1,2,PTH
FMAT,2
METRIC
; #@! TA.AperFunction,Plated,PTH,ViaDrill
T1C0.400
; #@! TA.AperFunction,Plated,PTH,ComponentDrill
T2C1.300
%
G90
G05
T1
X125.95Y-75.8
X126.05Y-84.2
X127.6Y-75.85
X127.6Y-78.45
X127.6Y-81.55
X127.6Y-84.15
X128.983Y-81.55
X129.112Y-78.45
X130.367Y-81.55
X130.625Y-78.45
X130.7Y-77.15
X130.7Y-82.8
X131.75Y-81.55
X132.137Y-78.45
X133.3Y-83.0
X133.65Y-78.45
X134.7Y-77.6
X134.7Y-81.9
X136.2Y-77.0
X136.3Y-83.0
X137.9Y-77.4
X137.9Y-82.6
X139.6Y-77.4
X139.6Y-82.6
X141.2Y-77.0
X141.4Y-83.0
X142.7Y-77.4
X143.1Y-81.9
X143.4Y-78.7
X144.5Y-83.0
X144.9Y-78.7
X145.9Y-81.9
X146.4Y-78.5
X147.5Y-81.6
X147.9Y-78.3
X149.2Y-81.6
X149.4Y-78.3
X150.5Y-81.0
X150.6Y-79.2
X151.6Y-76.6
X151.6Y-83.4
X151.8Y-80.0
X154.1Y-80.0
T2
X153.1Y-78.095
X153.1Y-81.905
T0
M30
