%TF.GenerationSoftware,KiCad,Pcbnew,7.0.1*%
%TF.CreationDate,2023-07-29T01:53:36-07:00*%
%TF.ProjectId,FET_Amplifier_HW,4645545f-416d-4706-9c69-666965725f48,rev?*%
%TF.SameCoordinates,PX4b571c0PY5a995c0*%
%TF.FileFunction,Soldermask,Bot*%
%TF.FilePolarity,Negative*%
%FSLAX46Y46*%
G04 Gerber Fmt 4.6, Leading zero omitted, Abs format (unit mm)*
G04 Created by KiCad (PCBNEW 7.0.1) date 2023-07-29 01:53:36*
%MOMM*%
%LPD*%
G01*
G04 APERTURE LIST*
G04 Aperture macros list*
%AMRoundRect*
0 Rectangle with rounded corners*
0 $1 Rounding radius*
0 $2 $3 $4 $5 $6 $7 $8 $9 X,Y pos of 4 corners*
0 Add a 4 corners polygon primitive as box body*
4,1,4,$2,$3,$4,$5,$6,$7,$8,$9,$2,$3,0*
0 Add four circle primitives for the rounded corners*
1,1,$1+$1,$2,$3*
1,1,$1+$1,$4,$5*
1,1,$1+$1,$6,$7*
1,1,$1+$1,$8,$9*
0 Add four rect primitives between the rounded corners*
20,1,$1+$1,$2,$3,$4,$5,0*
20,1,$1+$1,$4,$5,$6,$7,0*
20,1,$1+$1,$6,$7,$8,$9,0*
20,1,$1+$1,$8,$9,$2,$3,0*%
G04 Aperture macros list end*
%ADD10C,0.150000*%
%ADD11R,4.900000X1.350000*%
%ADD12R,1.700000X1.700000*%
%ADD13O,1.700000X1.700000*%
%ADD14C,0.800000*%
%ADD15C,5.400000*%
%ADD16RoundRect,0.250000X-0.750000X0.600000X-0.750000X-0.600000X0.750000X-0.600000X0.750000X0.600000X0*%
%ADD17O,2.000000X1.700000*%
G04 APERTURE END LIST*
D10*
X47800000Y10500000D02*
X43300000Y10500000D01*
X43300000Y18600000D01*
X47800000Y18600000D01*
X47800000Y10500000D01*
G36*
X47800000Y10500000D02*
G01*
X43300000Y10500000D01*
X43300000Y18600000D01*
X47800000Y18600000D01*
X47800000Y10500000D01*
G37*
D11*
%TO.C,J1*%
X2550000Y17325000D03*
X2550000Y11675000D03*
%TD*%
D12*
%TO.C,J2*%
X1900000Y26475000D03*
D13*
X1900000Y23935000D03*
%TD*%
D14*
%TO.C,H4*%
X975000Y3000000D03*
X1568109Y4431891D03*
X1568109Y1568109D03*
X3000000Y5025000D03*
D15*
X3000000Y3000000D03*
D14*
X3000000Y975000D03*
X4431891Y4431891D03*
X4431891Y1568109D03*
X5025000Y3000000D03*
%TD*%
%TO.C,H1*%
X975000Y44500000D03*
X1568109Y45931891D03*
X1568109Y43068109D03*
X3000000Y46525000D03*
D15*
X3000000Y44500000D03*
D14*
X3000000Y42475000D03*
X4431891Y45931891D03*
X4431891Y43068109D03*
X5025000Y44500000D03*
%TD*%
D11*
%TO.C,J5*%
X82500000Y11675000D03*
X82500000Y17325000D03*
%TD*%
D16*
%TO.C,J3*%
X4050000Y37900000D03*
D17*
X4050000Y35400000D03*
%TD*%
D14*
%TO.C,H3*%
X79975000Y3000000D03*
X80568109Y4431891D03*
X80568109Y1568109D03*
X82000000Y5025000D03*
D15*
X82000000Y3000000D03*
D14*
X82000000Y975000D03*
X83431891Y4431891D03*
X83431891Y1568109D03*
X84025000Y3000000D03*
%TD*%
%TO.C,H2*%
X79975000Y44500000D03*
X80568109Y45931891D03*
X80568109Y43068109D03*
X82000000Y46525000D03*
D15*
X82000000Y44500000D03*
D14*
X82000000Y42475000D03*
X83431891Y45931891D03*
X83431891Y43068109D03*
X84025000Y44500000D03*
%TD*%
M02*
