M48
; DRILL file {KiCad 7.0.1} date Sat Jul 29 01:53:43 2023
; FORMAT={-:-/ absolute / metric / decimal}
; #@! TF.CreationDate,2023-07-29T01:53:43-07:00
; #@! TF.GenerationSoftware,Kicad,Pcbnew,7.0.1
; #@! TF.FileFunction,Plated,1,4,PTH
FMAT,2
METRIC
; #@! TA.AperFunction,Plated,PTH,ViaDrill
T1C0.300
; #@! TA.AperFunction,Plated,PTH,ViaDrill
T2C0.400
; #@! TA.AperFunction,Plated,PTH,ComponentDrill
T3C0.500
; #@! TA.AperFunction,Plated,PTH,ComponentDrill
T4C1.000
; #@! TA.AperFunction,Plated,PTH,ComponentDrill
T5C2.700
%
G90
G05
T1
X2.5Y18.55
X2.5Y15.8
X2.5Y13.2
X2.5Y10.4
X3.85Y15.8
X3.85Y13.2
X5.2Y15.8
X5.2Y13.2
X5.55Y17.3
X5.55Y11.7
X6.5Y15.35
X6.5Y13.65
X7.45Y31.8
X7.55Y11.15
X8.8Y15.35
X8.8Y13.65
X9.0Y40.65
X9.85Y24.8
X10.9Y34.9
X10.9Y33.15
X11.2Y8.7
X12.65Y5.9
X14.1Y11.2
X14.1Y10.2
X14.1Y9.2
X14.1Y8.2
X14.2Y29.05
X14.85Y10.45
X14.85Y9.25
X14.85Y8.05
X15.35Y11.25
X15.35Y9.85
X15.35Y8.65
X15.35Y7.45
X15.35Y5.85
X15.85Y10.45
X15.85Y9.25
X15.85Y8.05
X16.6Y11.2
X16.6Y10.2
X16.6Y9.2
X16.6Y8.2
X17.35Y12.65
X17.95Y5.95
X18.1Y11.15
X18.72Y32.75
X21.45Y6.05
X21.5Y37.75
X21.52Y31.35
X23.05Y31.65
X23.95Y5.85
X24.7Y5.25
X25.4Y5.85
X25.7Y7.9
X25.95Y42.75
X25.97Y32.8
X25.97Y31.75
X26.02Y33.9
X26.05Y35.7
X26.97Y33.9
X26.97Y32.8
X26.97Y31.75
X27.0Y35.7
X27.0Y29.9
X27.9Y35.7
X28.15Y7.9
X28.5Y5.85
X28.55Y19.9
X29.05Y45.25
X29.1Y37.8
X29.25Y5.25
X29.95Y5.85
X30.0Y45.25
X30.0Y9.1
X30.1Y10.8
X30.35Y14.5
X30.9Y45.25
X31.12Y36.3
X31.4Y5.85
X31.62Y37.15
X31.7Y15.3
X31.87Y36.3
X31.95Y10.8
X31.95Y9.3
X32.1Y6.75
X32.6Y10.05
X32.67Y33.55
X32.7Y26.9
X33.0Y15.8
X33.0Y13.2
X33.62Y35.8
X34.42Y35.8
X35.2Y15.8
X35.2Y13.2
X37.4Y15.85
X37.45Y13.05
X37.532Y11.032
X38.15Y16.6
X38.25Y12.25
X38.3Y17.7
X39.0Y11.5
X39.35Y27.95
X40.15Y11.0
X40.5Y18.2
X41.0Y20.3
X41.05Y33.2
X41.45Y22.1
X41.65Y18.2
X43.7Y18.1
X43.7Y17.1
X43.7Y16.1
X43.7Y15.1
X43.7Y14.1
X43.7Y13.1
X43.7Y12.1
X43.7Y11.1
X44.625Y18.1
X44.625Y17.1
X44.625Y16.1
X44.625Y15.1
X44.625Y14.1
X44.625Y13.1
X44.625Y12.1
X44.625Y11.1
X45.0Y19.7
X45.0Y18.9
X45.0Y10.4
X45.0Y9.6
X45.55Y18.1
X45.55Y17.1
X45.55Y16.1
X45.55Y15.1
X45.55Y14.1
X45.55Y13.1
X45.55Y12.1
X45.55Y11.1
X46.0Y19.7
X46.0Y18.9
X46.0Y10.4
X46.0Y9.6
X46.45Y39.8
X46.475Y18.1
X46.475Y17.1
X46.475Y16.1
X46.475Y15.1
X46.475Y14.1
X46.475Y13.1
X46.475Y12.1
X46.475Y11.1
X47.35Y39.8
X47.4Y18.1
X47.4Y17.1
X47.4Y16.1
X47.4Y15.1
X47.4Y14.1
X47.4Y13.1
X47.4Y12.1
X47.4Y11.1
X48.2Y39.8
X50.1Y39.75
X51.0Y39.75
X51.85Y39.75
X52.5Y9.6
X57.675Y37.0
X58.3Y5.25
X58.3Y4.15
X58.35Y3.0
X58.525Y37.0
X58.95Y6.1
X59.375Y37.0
X59.5Y2.65
X59.75Y10.0
X59.9Y22.2
X60.2Y6.2
X60.8Y21.8
X61.1Y2.65
X61.125Y37.0
X61.275Y10.0
X61.5Y6.2
X61.55Y13.55
X61.85Y21.8
X62.025Y37.0
X62.1Y20.1
X62.1Y19.15
X62.1Y18.3
X62.75Y2.65
X62.8Y10.0
X62.85Y6.2
X62.9Y22.15
X62.925Y37.0
X63.4Y13.55
X63.775Y37.0
X64.15Y6.2
X64.325Y10.0
X64.45Y2.65
X64.625Y38.0
X65.25Y13.55
X65.525Y38.4
X65.7Y6.2
X65.85Y10.0
X66.4Y13.2
X66.45Y12.05
X66.45Y10.95
X66.5Y2.2
X66.525Y38.45
X66.525Y37.7
X66.65Y7.05
X67.25Y15.05
X67.25Y13.95
X67.3Y12.8
X67.4Y1.35
X67.5Y8.0
X67.85Y16.0
X68.3Y2.2
X68.45Y12.45
X69.05Y8.55
X69.15Y16.0
X69.35Y3.7
X70.05Y12.45
X70.45Y16.0
X70.6Y5.0
X70.65Y8.55
X71.2Y23.4
X71.7Y12.45
X71.8Y16.0
X72.1Y23.4
X72.25Y8.6
X72.462Y5.0
X72.95Y23.4
X73.1Y16.0
X73.4Y12.45
X73.55Y8.6
X74.325Y5.0
X74.4Y16.0
X75.1Y8.7
X75.2Y12.9
X75.6Y10.0
X75.7Y16.0
X76.188Y5.0
X77.0Y16.0
X77.0Y13.0
X77.0Y10.3
X78.05Y5.05
X78.3Y16.0
X78.3Y13.0
X78.4Y10.0
X78.986Y8.085
X79.0Y6.45
X79.4Y17.3
X79.4Y11.7
X79.6Y16.0
X79.6Y13.0
X80.9Y16.0
X80.9Y13.0
X82.25Y16.0
X82.25Y13.0
X82.5Y18.65
X82.5Y10.35
X83.55Y16.0
X83.55Y13.0
T2
X7.5Y28.6
X8.0Y27.85
X8.9Y27.85
X9.3Y28.65
X18.2Y22.65
X19.05Y23.6
X19.25Y18.1
X19.25Y17.2
X20.2Y18.1
X20.2Y17.2
X30.25Y20.4
X31.65Y20.4
X35.77Y28.45
X36.65Y20.3
X37.97Y28.5
X40.72Y28.0
X41.8Y10.8
X42.084Y28.0
X42.5Y20.0
X42.5Y9.2
X42.5Y7.7
X43.449Y28.0
X43.8Y22.3
X43.8Y20.7
X43.8Y19.2
X43.8Y9.9
X43.8Y8.4
X43.8Y6.9
X44.65Y21.45
X44.65Y7.65
X44.813Y28.0
X45.5Y22.3
X45.5Y20.7
X45.5Y8.4
X45.5Y6.9
X46.177Y28.0
X46.35Y21.45
X46.35Y7.65
X47.2Y22.3
X47.2Y20.7
X47.2Y19.2
X47.2Y9.9
X47.2Y8.4
X47.2Y6.9
X47.541Y28.0
X48.3Y34.5
X48.3Y33.35
X48.5Y21.5
X48.5Y20.0
X48.5Y9.2
X48.5Y7.7
X48.906Y28.0
X49.1Y10.8
X49.55Y34.5
X49.55Y33.35
X49.9Y18.75
X50.27Y28.0
X50.8Y34.5
X50.8Y33.35
X50.8Y10.8
X51.95Y18.75
X52.05Y34.5
X52.05Y33.35
X53.4Y34.5
X53.4Y33.35
X53.5Y10.8
X54.35Y18.75
X54.9Y11.9
X56.5Y12.9
X56.55Y18.75
X56.8Y41.45
X56.8Y40.5
X57.7Y41.45
X57.7Y40.5
X57.7Y31.65
X58.25Y12.9
X58.25Y11.2
X58.6Y18.75
X58.787Y31.65
X59.4Y17.4
X59.4Y16.1
X59.875Y31.65
X60.962Y31.65
X61.0Y15.15
X62.05Y31.65
X66.8Y28.45
X68.05Y28.45
X69.3Y28.45
X70.55Y28.45
X71.8Y28.45
X73.05Y28.45
T3
X0.975Y44.5
X0.975Y3.0
X1.568Y45.932
X1.568Y43.068
X1.568Y4.432
X1.568Y1.568
X3.0Y46.525
X3.0Y42.475
X3.0Y5.025
X3.0Y0.975
X4.432Y45.932
X4.432Y43.068
X4.432Y4.432
X4.432Y1.568
X5.025Y44.5
X5.025Y3.0
X79.975Y44.5
X79.975Y3.0
X80.568Y45.932
X80.568Y43.068
X80.568Y4.432
X80.568Y1.568
X82.0Y46.525
X82.0Y42.475
X82.0Y5.025
X82.0Y0.975
X83.432Y45.932
X83.432Y43.068
X83.432Y4.432
X83.432Y1.568
X84.025Y44.5
X84.025Y3.0
T4
X1.9Y26.475
X1.9Y23.935
X4.05Y37.9
X4.05Y35.4
T5
X3.0Y44.5
X3.0Y3.0
X82.0Y44.5
X82.0Y3.0
T0
M30
