%TF.GenerationSoftware,KiCad,Pcbnew,7.0.1*%
%TF.CreationDate,2023-07-29T01:53:36-07:00*%
%TF.ProjectId,FET_Amplifier_HW,4645545f-416d-4706-9c69-666965725f48,rev?*%
%TF.SameCoordinates,PX4b571c0PY5a995c0*%
%TF.FileFunction,Copper,L1,Top*%
%TF.FilePolarity,Positive*%
%FSLAX46Y46*%
G04 Gerber Fmt 4.6, Leading zero omitted, Abs format (unit mm)*
G04 Created by KiCad (PCBNEW 7.0.1) date 2023-07-29 01:53:36*
%MOMM*%
%LPD*%
G01*
G04 APERTURE LIST*
G04 Aperture macros list*
%AMRoundRect*
0 Rectangle with rounded corners*
0 $1 Rounding radius*
0 $2 $3 $4 $5 $6 $7 $8 $9 X,Y pos of 4 corners*
0 Add a 4 corners polygon primitive as box body*
4,1,4,$2,$3,$4,$5,$6,$7,$8,$9,$2,$3,0*
0 Add four circle primitives for the rounded corners*
1,1,$1+$1,$2,$3*
1,1,$1+$1,$4,$5*
1,1,$1+$1,$6,$7*
1,1,$1+$1,$8,$9*
0 Add four rect primitives between the rounded corners*
20,1,$1+$1,$2,$3,$4,$5,0*
20,1,$1+$1,$4,$5,$6,$7,0*
20,1,$1+$1,$6,$7,$8,$9,0*
20,1,$1+$1,$8,$9,$2,$3,0*%
%AMFreePoly0*
4,1,9,3.862500,-0.866500,0.737500,-0.866500,0.737500,-0.450000,-0.737500,-0.450000,-0.737500,0.450000,0.737500,0.450000,0.737500,0.866500,3.862500,0.866500,3.862500,-0.866500,3.862500,-0.866500,$1*%
G04 Aperture macros list end*
%TA.AperFunction,SMDPad,CuDef*%
%ADD10RoundRect,0.225000X0.250000X-0.225000X0.250000X0.225000X-0.250000X0.225000X-0.250000X-0.225000X0*%
%TD*%
%TA.AperFunction,SMDPad,CuDef*%
%ADD11C,1.000000*%
%TD*%
%TA.AperFunction,SMDPad,CuDef*%
%ADD12RoundRect,0.250000X0.850000X-0.375000X0.850000X0.375000X-0.850000X0.375000X-0.850000X-0.375000X0*%
%TD*%
%TA.AperFunction,SMDPad,CuDef*%
%ADD13RoundRect,0.225000X0.225000X0.250000X-0.225000X0.250000X-0.225000X-0.250000X0.225000X-0.250000X0*%
%TD*%
%TA.AperFunction,SMDPad,CuDef*%
%ADD14RoundRect,0.135000X-0.185000X0.135000X-0.185000X-0.135000X0.185000X-0.135000X0.185000X0.135000X0*%
%TD*%
%TA.AperFunction,SMDPad,CuDef*%
%ADD15RoundRect,0.218750X-0.218750X-0.256250X0.218750X-0.256250X0.218750X0.256250X-0.218750X0.256250X0*%
%TD*%
%TA.AperFunction,SMDPad,CuDef*%
%ADD16RoundRect,0.250000X-1.100000X0.325000X-1.100000X-0.325000X1.100000X-0.325000X1.100000X0.325000X0*%
%TD*%
%TA.AperFunction,SMDPad,CuDef*%
%ADD17RoundRect,0.200000X0.200000X0.275000X-0.200000X0.275000X-0.200000X-0.275000X0.200000X-0.275000X0*%
%TD*%
%TA.AperFunction,SMDPad,CuDef*%
%ADD18RoundRect,0.135000X0.135000X0.185000X-0.135000X0.185000X-0.135000X-0.185000X0.135000X-0.185000X0*%
%TD*%
%TA.AperFunction,SMDPad,CuDef*%
%ADD19RoundRect,0.250000X1.100000X-0.325000X1.100000X0.325000X-1.100000X0.325000X-1.100000X-0.325000X0*%
%TD*%
%TA.AperFunction,SMDPad,CuDef*%
%ADD20RoundRect,0.200000X-0.300000X-0.200000X0.300000X-0.200000X0.300000X0.200000X-0.300000X0.200000X0*%
%TD*%
%TA.AperFunction,SMDPad,CuDef*%
%ADD21RoundRect,0.200000X0.275000X-0.200000X0.275000X0.200000X-0.275000X0.200000X-0.275000X-0.200000X0*%
%TD*%
%TA.AperFunction,SMDPad,CuDef*%
%ADD22RoundRect,0.150000X0.150000X-0.512500X0.150000X0.512500X-0.150000X0.512500X-0.150000X-0.512500X0*%
%TD*%
%TA.AperFunction,SMDPad,CuDef*%
%ADD23RoundRect,0.140000X-0.170000X0.140000X-0.170000X-0.140000X0.170000X-0.140000X0.170000X0.140000X0*%
%TD*%
%TA.AperFunction,SMDPad,CuDef*%
%ADD24RoundRect,0.150000X-0.150000X0.512500X-0.150000X-0.512500X0.150000X-0.512500X0.150000X0.512500X0*%
%TD*%
%TA.AperFunction,SMDPad,CuDef*%
%ADD25RoundRect,0.140000X0.140000X0.170000X-0.140000X0.170000X-0.140000X-0.170000X0.140000X-0.170000X0*%
%TD*%
%TA.AperFunction,SMDPad,CuDef*%
%ADD26R,1.300000X1.300000*%
%TD*%
%TA.AperFunction,SMDPad,CuDef*%
%ADD27R,1.300000X2.000000*%
%TD*%
%TA.AperFunction,SMDPad,CuDef*%
%ADD28R,0.900000X1.300000*%
%TD*%
%TA.AperFunction,SMDPad,CuDef*%
%ADD29FreePoly0,90.000000*%
%TD*%
%TA.AperFunction,SMDPad,CuDef*%
%ADD30R,5.200000X1.270000*%
%TD*%
%TA.AperFunction,SMDPad,CuDef*%
%ADD31R,4.900000X1.350000*%
%TD*%
%TA.AperFunction,SMDPad,CuDef*%
%ADD32RoundRect,0.135000X0.185000X-0.135000X0.185000X0.135000X-0.185000X0.135000X-0.185000X-0.135000X0*%
%TD*%
%TA.AperFunction,SMDPad,CuDef*%
%ADD33RoundRect,0.200000X-0.275000X0.200000X-0.275000X-0.200000X0.275000X-0.200000X0.275000X0.200000X0*%
%TD*%
%TA.AperFunction,SMDPad,CuDef*%
%ADD34RoundRect,0.218750X0.256250X-0.218750X0.256250X0.218750X-0.256250X0.218750X-0.256250X-0.218750X0*%
%TD*%
%TA.AperFunction,SMDPad,CuDef*%
%ADD35RoundRect,0.140000X0.170000X-0.140000X0.170000X0.140000X-0.170000X0.140000X-0.170000X-0.140000X0*%
%TD*%
%TA.AperFunction,SMDPad,CuDef*%
%ADD36RoundRect,0.250000X0.650000X-1.000000X0.650000X1.000000X-0.650000X1.000000X-0.650000X-1.000000X0*%
%TD*%
%TA.AperFunction,SMDPad,CuDef*%
%ADD37RoundRect,0.100000X0.400000X-2.900000X0.400000X2.900000X-0.400000X2.900000X-0.400000X-2.900000X0*%
%TD*%
%TA.AperFunction,SMDPad,CuDef*%
%ADD38R,2.000000X1.500000*%
%TD*%
%TA.AperFunction,SMDPad,CuDef*%
%ADD39R,4.500000X8.000000*%
%TD*%
%TA.AperFunction,SMDPad,CuDef*%
%ADD40RoundRect,0.140000X-0.140000X-0.170000X0.140000X-0.170000X0.140000X0.170000X-0.140000X0.170000X0*%
%TD*%
%TA.AperFunction,ComponentPad*%
%ADD41R,1.700000X1.700000*%
%TD*%
%TA.AperFunction,ComponentPad*%
%ADD42O,1.700000X1.700000*%
%TD*%
%TA.AperFunction,SMDPad,CuDef*%
%ADD43R,2.350000X3.500000*%
%TD*%
%TA.AperFunction,SMDPad,CuDef*%
%ADD44RoundRect,0.200000X-0.200000X0.300000X-0.200000X-0.300000X0.200000X-0.300000X0.200000X0.300000X0*%
%TD*%
%TA.AperFunction,SMDPad,CuDef*%
%ADD45RoundRect,0.250000X0.475000X-0.250000X0.475000X0.250000X-0.475000X0.250000X-0.475000X-0.250000X0*%
%TD*%
%TA.AperFunction,ComponentPad*%
%ADD46C,0.800000*%
%TD*%
%TA.AperFunction,ComponentPad*%
%ADD47C,5.400000*%
%TD*%
%TA.AperFunction,SMDPad,CuDef*%
%ADD48RoundRect,0.250001X-0.849999X0.462499X-0.849999X-0.462499X0.849999X-0.462499X0.849999X0.462499X0*%
%TD*%
%TA.AperFunction,SMDPad,CuDef*%
%ADD49RoundRect,0.135000X-0.135000X-0.185000X0.135000X-0.185000X0.135000X0.185000X-0.135000X0.185000X0*%
%TD*%
%TA.AperFunction,SMDPad,CuDef*%
%ADD50C,0.250000*%
%TD*%
%TA.AperFunction,SMDPad,CuDef*%
%ADD51RoundRect,0.250000X-0.450000X0.262500X-0.450000X-0.262500X0.450000X-0.262500X0.450000X0.262500X0*%
%TD*%
%TA.AperFunction,SMDPad,CuDef*%
%ADD52RoundRect,0.540000X-2.825000X0.540000X-2.825000X-0.540000X2.825000X-0.540000X2.825000X0.540000X0*%
%TD*%
%TA.AperFunction,ComponentPad*%
%ADD53RoundRect,0.250000X-0.750000X0.600000X-0.750000X-0.600000X0.750000X-0.600000X0.750000X0.600000X0*%
%TD*%
%TA.AperFunction,ComponentPad*%
%ADD54O,2.000000X1.700000*%
%TD*%
%TA.AperFunction,SMDPad,CuDef*%
%ADD55RoundRect,0.250000X0.450000X-0.262500X0.450000X0.262500X-0.450000X0.262500X-0.450000X-0.262500X0*%
%TD*%
%TA.AperFunction,SMDPad,CuDef*%
%ADD56RoundRect,0.250000X-0.325000X-1.100000X0.325000X-1.100000X0.325000X1.100000X-0.325000X1.100000X0*%
%TD*%
%TA.AperFunction,SMDPad,CuDef*%
%ADD57RoundRect,0.225000X-0.250000X0.225000X-0.250000X-0.225000X0.250000X-0.225000X0.250000X0.225000X0*%
%TD*%
%TA.AperFunction,SMDPad,CuDef*%
%ADD58RoundRect,0.540000X2.825000X-0.540000X2.825000X0.540000X-2.825000X0.540000X-2.825000X-0.540000X0*%
%TD*%
%TA.AperFunction,SMDPad,CuDef*%
%ADD59R,3.700000X1.100000*%
%TD*%
%TA.AperFunction,SMDPad,CuDef*%
%ADD60RoundRect,0.200000X-0.200000X-0.275000X0.200000X-0.275000X0.200000X0.275000X-0.200000X0.275000X0*%
%TD*%
%TA.AperFunction,SMDPad,CuDef*%
%ADD61RoundRect,0.090000X-0.410000X-0.210000X0.410000X-0.210000X0.410000X0.210000X-0.410000X0.210000X0*%
%TD*%
%TA.AperFunction,SMDPad,CuDef*%
%ADD62RoundRect,0.120000X-0.580000X-0.280000X0.580000X-0.280000X0.580000X0.280000X-0.580000X0.280000X0*%
%TD*%
%TA.AperFunction,SMDPad,CuDef*%
%ADD63RoundRect,0.100000X-0.625000X-0.100000X0.625000X-0.100000X0.625000X0.100000X-0.625000X0.100000X0*%
%TD*%
%TA.AperFunction,SMDPad,CuDef*%
%ADD64R,1.650000X2.850000*%
%TD*%
%TA.AperFunction,ViaPad*%
%ADD65C,0.600000*%
%TD*%
%TA.AperFunction,ViaPad*%
%ADD66C,0.800000*%
%TD*%
%TA.AperFunction,Conductor*%
%ADD67C,0.250000*%
%TD*%
%TA.AperFunction,Conductor*%
%ADD68C,0.500000*%
%TD*%
%TA.AperFunction,Conductor*%
%ADD69C,0.350000*%
%TD*%
G04 APERTURE END LIST*
%TA.AperFunction,EtchedComponent*%
%TO.C,NT1*%
G36*
X70250000Y33600000D02*
G01*
X70000000Y33600000D01*
X70000000Y34350000D01*
X70250000Y34350000D01*
X70250000Y33600000D01*
G37*
%TD.AperFunction*%
%TD*%
D10*
%TO.P,C18,1*%
%TO.N,/Power Conversion/BOOST_VCOMP*%
X22450000Y36350000D03*
%TO.P,C18,2*%
%TO.N,GND*%
X22450000Y37900000D03*
%TD*%
D11*
%TO.P,TP10,1,1*%
%TO.N,V-5P0*%
X57700000Y29700000D03*
%TD*%
D12*
%TO.P,L5,1,1*%
%TO.N,/OUT_FILT_2*%
X77000000Y7000000D03*
%TO.P,L5,2,2*%
%TO.N,GND*%
X77000000Y9150000D03*
%TD*%
D13*
%TO.P,C11,1*%
%TO.N,/OUT_FILT_1*%
X59700000Y14200000D03*
%TO.P,C11,2*%
%TO.N,/FET_DRAIN*%
X58150000Y14200000D03*
%TD*%
D14*
%TO.P,R16,1*%
%TO.N,/Power Conversion/BOOST_FB*%
X19420000Y33800000D03*
%TO.P,R16,2*%
%TO.N,GND*%
X19420000Y32780000D03*
%TD*%
D15*
%TO.P,FB1,1,1*%
%TO.N,/BIAS*%
X33375000Y22100000D03*
%TO.P,FB1,2,2*%
%TO.N,/BIAS_FILT*%
X34950000Y22100000D03*
%TD*%
D16*
%TO.P,C26,1*%
%TO.N,BOOST_VOUT*%
X41670000Y31950000D03*
%TO.P,C26,2*%
%TO.N,GND*%
X41670000Y29000000D03*
%TD*%
D11*
%TO.P,TP8,1,1*%
%TO.N,GND*%
X41450000Y22100000D03*
%TD*%
%TO.P,TP12,1,1*%
%TO.N,GND*%
X52500000Y9600000D03*
%TD*%
D14*
%TO.P,R5,1*%
%TO.N,/Power Conversion/VIN_EXT*%
X12550000Y37310000D03*
%TO.P,R5,2*%
%TO.N,/Power Conversion/PROT_VDD*%
X12550000Y36290000D03*
%TD*%
D17*
%TO.P,R17,1*%
%TO.N,/Power Conversion/BOOST_CS*%
X34870000Y30850000D03*
%TO.P,R17,2*%
%TO.N,/Power Conversion/BOOST_ISNS*%
X33220000Y30850000D03*
%TD*%
D18*
%TO.P,R8,1*%
%TO.N,/Power Conversion/VIN_SW_G*%
X14600000Y41600000D03*
%TO.P,R8,2*%
%TO.N,/Power Conversion/VIN_SW_NFET_D*%
X13580000Y41600000D03*
%TD*%
D19*
%TO.P,C34,1*%
%TO.N,V-5P0*%
X58475000Y33000000D03*
%TO.P,C34,2*%
%TO.N,GND*%
X58475000Y35950000D03*
%TD*%
%TO.P,C10,1*%
%TO.N,GND*%
X72100000Y24350000D03*
%TO.P,C10,2*%
%TO.N,BOOST_VOUT*%
X72100000Y27300000D03*
%TD*%
D14*
%TO.P,R11,1*%
%TO.N,/Power Conversion/BOOST_EN*%
X9850000Y26450000D03*
%TO.P,R11,2*%
%TO.N,GND*%
X9850000Y25430000D03*
%TD*%
D20*
%TO.P,Q4,1,G*%
%TO.N,/Power Conversion/VIN_SW_G*%
X16350000Y39870000D03*
%TO.P,Q4,2,S*%
%TO.N,/Power Conversion/VIN_EXT*%
X16350000Y37970000D03*
%TO.P,Q4,3,D*%
%TO.N,/Power Conversion/BOOST_VIN*%
X18350000Y38920000D03*
%TD*%
D21*
%TO.P,R1,1*%
%TO.N,/FET_GATE*%
X39400000Y17175000D03*
%TO.P,R1,2*%
%TO.N,/BIAS_FILT*%
X39400000Y18825000D03*
%TD*%
D22*
%TO.P,U1,1,DO*%
%TO.N,/Power Conversion/PROT_DO*%
X11600000Y30900000D03*
%TO.P,U1,2,VM*%
%TO.N,/Power Conversion/PROT_VM*%
X12550000Y30900000D03*
%TO.P,U1,3,CO*%
%TO.N,/Power Conversion/PROT_CO*%
X13500000Y30900000D03*
%TO.P,U1,4,NC*%
%TO.N,unconnected-(U1-NC-Pad4)*%
X13500000Y33175000D03*
%TO.P,U1,5,VDD*%
%TO.N,/Power Conversion/PROT_VDD*%
X12550000Y33175000D03*
%TO.P,U1,6,VSS*%
%TO.N,/Power Conversion/BATT_GND*%
X11600000Y33175000D03*
%TD*%
D23*
%TO.P,C17,1*%
%TO.N,/Power Conversion/BOOST_SS*%
X20820000Y32300000D03*
%TO.P,C17,2*%
%TO.N,GND*%
X20820000Y31340000D03*
%TD*%
D24*
%TO.P,U3,1,FB*%
%TO.N,/Power Conversion/BUCK_FB*%
X69025000Y40350000D03*
%TO.P,U3,2,EN*%
%TO.N,/Power Conversion/BOOST_EN*%
X68075000Y40350000D03*
%TO.P,U3,3,IN*%
%TO.N,/Power Conversion/BUCK_VIN*%
X67125000Y40350000D03*
%TO.P,U3,4,GND*%
%TO.N,GND*%
X67125000Y38075000D03*
%TO.P,U3,5,SW*%
%TO.N,/Power Conversion/BUCK_SW*%
X68075000Y38075000D03*
%TO.P,U3,6,BST*%
%TO.N,/Power Conversion/BUCK_BST*%
X69025000Y38075000D03*
%TD*%
D25*
%TO.P,C40,1*%
%TO.N,/RF_IN*%
X23210000Y6850000D03*
%TO.P,C40,2*%
%TO.N,/RF_AMP_OUT*%
X22250000Y6850000D03*
%TD*%
D21*
%TO.P,R2,1*%
%TO.N,/IN_FILT_FINAL*%
X30980000Y11600000D03*
%TO.P,R2,2*%
%TO.N,/COAX_TP_IN*%
X30980000Y13250000D03*
%TD*%
D11*
%TO.P,TP7,1,1*%
%TO.N,/C_DAMP*%
X68100000Y20100000D03*
%TD*%
%TO.P,TP5,1,1*%
%TO.N,BOOST_VOUT*%
X53400000Y34500000D03*
%TD*%
D23*
%TO.P,C8,1*%
%TO.N,/FET_PWR_FILT*%
X60650000Y23500000D03*
%TO.P,C8,2*%
%TO.N,GND*%
X60650000Y22540000D03*
%TD*%
D26*
%TO.P,RV1,1,1*%
%TO.N,GND*%
X20200000Y23250000D03*
D27*
%TO.P,RV1,2,2*%
%TO.N,/BIAS*%
X25700000Y22100000D03*
D26*
%TO.P,RV1,3,3*%
%TO.N,/V-VCC_BIAS*%
X20200000Y20950000D03*
%TD*%
D11*
%TO.P,TP4,1,1*%
%TO.N,/FET_PWR_FILT*%
X63850000Y25000000D03*
%TD*%
D28*
%TO.P,U4,1*%
%TO.N,/RF_AMP_IN*%
X13850000Y6850000D03*
D29*
%TO.P,U4,2,GND*%
%TO.N,GND*%
X15350000Y6937500D03*
D28*
%TO.P,U4,3*%
%TO.N,/RF_AMP_OUT*%
X16850000Y6850000D03*
%TD*%
D23*
%TO.P,C31,1*%
%TO.N,/BIAS*%
X31650000Y22100000D03*
%TO.P,C31,2*%
%TO.N,GND*%
X31650000Y21140000D03*
%TD*%
D11*
%TO.P,TP13,1,1*%
%TO.N,GND*%
X37532233Y11032233D03*
%TD*%
D30*
%TO.P,J1,1,In*%
%TO.N,/RF_IN_EXT*%
X2800000Y14500000D03*
D31*
%TO.P,J1,2,Ext*%
%TO.N,GND*%
X2550000Y17325000D03*
X2550000Y11675000D03*
%TD*%
D32*
%TO.P,R7,1*%
%TO.N,/Power Conversion/VIN_EXT*%
X14600000Y38850000D03*
%TO.P,R7,2*%
%TO.N,/Power Conversion/VIN_SW_G*%
X14600000Y39870000D03*
%TD*%
D23*
%TO.P,C6,1*%
%TO.N,/BIAS_FILT*%
X36650000Y22100000D03*
%TO.P,C6,2*%
%TO.N,GND*%
X36650000Y21140000D03*
%TD*%
D33*
%TO.P,R12,1*%
%TO.N,/TEE_ATTN_IN*%
X10000000Y14500000D03*
%TO.P,R12,2*%
%TO.N,/TEE_ATTN*%
X10000000Y12850000D03*
%TD*%
D15*
%TO.P,FB4,1,1*%
%TO.N,BOOST_VOUT*%
X58750000Y40950000D03*
%TO.P,FB4,2,2*%
%TO.N,/Power Conversion/BUCK_VIN*%
X60325000Y40950000D03*
%TD*%
D34*
%TO.P,FB3,1,1*%
%TO.N,/FET_PWR_FILT*%
X68500000Y25600000D03*
%TO.P,FB3,2,2*%
%TO.N,BOOST_VOUT*%
X68500000Y27175000D03*
%TD*%
D11*
%TO.P,TP2,1,1*%
%TO.N,/BIAS_FILT*%
X38550000Y22100000D03*
%TD*%
D35*
%TO.P,C19,1*%
%TO.N,/Power Conversion/VC_RC*%
X21020000Y36100000D03*
%TO.P,C19,2*%
%TO.N,GND*%
X21020000Y37060000D03*
%TD*%
D36*
%TO.P,D1,1,K*%
%TO.N,BOOST_VOUT*%
X43320000Y35250000D03*
%TO.P,D1,2,A*%
%TO.N,/Power Conversion/BOOST_SW*%
X43320000Y39250000D03*
%TD*%
D37*
%TO.P,Q1,1,D*%
%TO.N,/FET_DRAIN*%
X49300000Y14550000D03*
%TO.P,Q1,2,G*%
%TO.N,/FET_GATE*%
X41700000Y14550000D03*
D38*
%TO.P,Q1,3,S*%
%TO.N,GND*%
X45500000Y9800000D03*
D39*
X45550000Y14550000D03*
D38*
X45500000Y19300000D03*
%TD*%
D40*
%TO.P,C5,1*%
%TO.N,/BIAS_FILT*%
X39400000Y20300000D03*
%TO.P,C5,2*%
%TO.N,GND*%
X40360000Y20300000D03*
%TD*%
D41*
%TO.P,J2,1,Pin_1*%
%TO.N,/Power Conversion/BOOST_EN*%
X1900000Y26475000D03*
D42*
%TO.P,J2,2,Pin_2*%
%TO.N,GND*%
X1900000Y23935000D03*
%TD*%
D21*
%TO.P,R19,1*%
%TO.N,/V-VCC_BIAS*%
X16250000Y23650000D03*
%TO.P,R19,2*%
%TO.N,BOOST_VOUT*%
X16250000Y25300000D03*
%TD*%
D43*
%TO.P,L7,1,1*%
%TO.N,/Power Conversion/BOOST_VIN*%
X33520000Y40250000D03*
%TO.P,L7,2,2*%
%TO.N,/Power Conversion/BOOST_SW*%
X39570000Y40250000D03*
%TD*%
D44*
%TO.P,Q2,1,G*%
%TO.N,/Power Conversion/PROT_DO*%
X9350000Y30900000D03*
%TO.P,Q2,2,S*%
%TO.N,/Power Conversion/BATT_GND*%
X7450000Y30900000D03*
%TO.P,Q2,3,D*%
%TO.N,GND*%
X8400000Y28900000D03*
%TD*%
D45*
%TO.P,C22,1*%
%TO.N,/Power Conversion/BOOST_DRV*%
X31420000Y33550000D03*
%TO.P,C22,2*%
%TO.N,GND*%
X31420000Y35450000D03*
%TD*%
D11*
%TO.P,TP1,1,1*%
%TO.N,/BIAS*%
X28550000Y22100000D03*
%TD*%
D46*
%TO.P,H4,1,1*%
%TO.N,GND*%
X975000Y3000000D03*
X1568109Y4431891D03*
X1568109Y1568109D03*
X3000000Y5025000D03*
D47*
X3000000Y3000000D03*
D46*
X3000000Y975000D03*
X4431891Y4431891D03*
X4431891Y1568109D03*
X5025000Y3000000D03*
%TD*%
D48*
%TO.P,L9,1,1*%
%TO.N,Net-(C38-Pad1)*%
X19700000Y9175000D03*
%TO.P,L9,2,2*%
%TO.N,/RF_AMP_OUT*%
X19700000Y6850000D03*
%TD*%
D11*
%TO.P,TP9,1,1*%
%TO.N,/V-VCC_BIAS*%
X16250000Y20950000D03*
%TD*%
D40*
%TO.P,C4,1*%
%TO.N,/IN_FILT_FINAL*%
X30980000Y10050000D03*
%TO.P,C4,2*%
%TO.N,GND*%
X31940000Y10050000D03*
%TD*%
D35*
%TO.P,C41,1*%
%TO.N,/RF_AMP_IN*%
X11700000Y6840000D03*
%TO.P,C41,2*%
%TO.N,/TEE_OUT*%
X11700000Y7800000D03*
%TD*%
D25*
%TO.P,C16,1*%
%TO.N,/Power Conversion/BOOST_VIN*%
X17310000Y41600000D03*
%TO.P,C16,2*%
%TO.N,/Power Conversion/VIN_SW_G*%
X16350000Y41600000D03*
%TD*%
D33*
%TO.P,R21,1*%
%TO.N,BOOST_VOUT*%
X52070000Y31800000D03*
%TO.P,R21,2*%
%TO.N,/Power Conversion/BOOST_DRV*%
X52070000Y30150000D03*
%TD*%
D23*
%TO.P,C37,1*%
%TO.N,/Power Conversion/BUCK_VIN*%
X65525000Y39950000D03*
%TO.P,C37,2*%
%TO.N,GND*%
X65525000Y38990000D03*
%TD*%
D18*
%TO.P,R20,1*%
%TO.N,/Power Conversion/BOOST_FB*%
X19420000Y34900000D03*
%TO.P,R20,2*%
%TO.N,BOOST_VOUT*%
X18400000Y34900000D03*
%TD*%
D40*
%TO.P,C39,1*%
%TO.N,GND*%
X18740000Y11150000D03*
%TO.P,C39,2*%
%TO.N,Net-(C38-Pad1)*%
X19700000Y11150000D03*
%TD*%
D34*
%TO.P,L2,1,1*%
%TO.N,/IN_FILT_LC*%
X30980000Y6875000D03*
%TO.P,L2,2,2*%
%TO.N,/IN_FILT_FINAL*%
X30980000Y8450000D03*
%TD*%
D49*
%TO.P,R6,1*%
%TO.N,/Power Conversion/PROT_VM*%
X12550000Y29050000D03*
%TO.P,R6,2*%
%TO.N,GND*%
X13570000Y29050000D03*
%TD*%
D50*
%TO.P,NT1,1,1*%
%TO.N,/Power Conversion/BUCK_FB*%
X70125000Y34350000D03*
%TO.P,NT1,2,2*%
%TO.N,V-5P0*%
X70125000Y33600000D03*
%TD*%
D51*
%TO.P,R4,1*%
%TO.N,/FET_PWR_FILT*%
X66100000Y23750000D03*
%TO.P,R4,2*%
%TO.N,/C_DAMP*%
X66100000Y21925000D03*
%TD*%
D46*
%TO.P,H1,1,1*%
%TO.N,GND*%
X975000Y44500000D03*
X1568109Y45931891D03*
X1568109Y43068109D03*
X3000000Y46525000D03*
D47*
X3000000Y44500000D03*
D46*
X3000000Y42475000D03*
X4431891Y45931891D03*
X4431891Y43068109D03*
X5025000Y44500000D03*
%TD*%
D25*
%TO.P,C1,1*%
%TO.N,/TEE_ATTN_IN*%
X8110000Y14500000D03*
%TO.P,C1,2*%
%TO.N,/RF_IN_EXT*%
X7150000Y14500000D03*
%TD*%
D15*
%TO.P,L1,1,1*%
%TO.N,/RF_IN*%
X26105000Y6850000D03*
%TO.P,L1,2,2*%
%TO.N,/IN_FILT_LC*%
X27680000Y6850000D03*
%TD*%
D20*
%TO.P,Q5,1,G*%
%TO.N,/Power Conversion/BOOST_GATE*%
X36870000Y34500000D03*
%TO.P,Q5,2,S*%
%TO.N,/Power Conversion/BOOST_CS*%
X36870000Y32600000D03*
%TO.P,Q5,3,D*%
%TO.N,/Power Conversion/BOOST_SW*%
X38870000Y33550000D03*
%TD*%
D30*
%TO.P,J5,1,In*%
%TO.N,/RF_OUT_EXT*%
X82250000Y14500000D03*
D31*
%TO.P,J5,2,Ext*%
%TO.N,GND*%
X82500000Y11675000D03*
X82500000Y17325000D03*
%TD*%
D32*
%TO.P,R9,1*%
%TO.N,GND*%
X22220000Y31330000D03*
%TO.P,R9,2*%
%TO.N,/Power Conversion/BOOST_RT*%
X22220000Y32350000D03*
%TD*%
D52*
%TO.P,L4,1,1*%
%TO.N,/OUT_FILT_1*%
X62400000Y11800000D03*
%TO.P,L4,2,2*%
%TO.N,/OUT_FILT_2*%
X62400000Y4430000D03*
%TD*%
D45*
%TO.P,C21,1*%
%TO.N,/Power Conversion/INTVCC*%
X34070000Y33100000D03*
%TO.P,C21,2*%
%TO.N,GND*%
X34070000Y35000000D03*
%TD*%
D16*
%TO.P,C29,1*%
%TO.N,BOOST_VOUT*%
X49320000Y31950000D03*
%TO.P,C29,2*%
%TO.N,GND*%
X49320000Y29000000D03*
%TD*%
D19*
%TO.P,C32,1*%
%TO.N,BOOST_VOUT*%
X50970000Y35900000D03*
%TO.P,C32,2*%
%TO.N,GND*%
X50970000Y38850000D03*
%TD*%
D53*
%TO.P,J3,1,Pin_1*%
%TO.N,/Power Conversion/VIN_EXT*%
X4050000Y37900000D03*
D54*
%TO.P,J3,2,Pin_2*%
%TO.N,/Power Conversion/BATT_GND*%
X4050000Y35400000D03*
%TD*%
D55*
%TO.P,R18,1*%
%TO.N,GND*%
X36870000Y29025000D03*
%TO.P,R18,2*%
%TO.N,/Power Conversion/BOOST_CS*%
X36870000Y30850000D03*
%TD*%
D25*
%TO.P,C20,1*%
%TO.N,GND*%
X30980000Y37150000D03*
%TO.P,C20,2*%
%TO.N,/Power Conversion/BOOST_VIN*%
X30020000Y37150000D03*
%TD*%
D16*
%TO.P,C27,1*%
%TO.N,BOOST_VOUT*%
X45470000Y31950000D03*
%TO.P,C27,2*%
%TO.N,GND*%
X45470000Y29000000D03*
%TD*%
D56*
%TO.P,C14,1*%
%TO.N,GND*%
X63000000Y19150000D03*
%TO.P,C14,2*%
%TO.N,/C_DAMP*%
X65950000Y19150000D03*
%TD*%
D19*
%TO.P,C28,1*%
%TO.N,BOOST_VOUT*%
X47370000Y35900000D03*
%TO.P,C28,2*%
%TO.N,GND*%
X47370000Y38850000D03*
%TD*%
%TO.P,C36,1*%
%TO.N,GND*%
X62925000Y38000000D03*
%TO.P,C36,2*%
%TO.N,/Power Conversion/BUCK_VIN*%
X62925000Y40950000D03*
%TD*%
D35*
%TO.P,C30,1*%
%TO.N,/V-VCC_BIAS*%
X18200000Y20950000D03*
%TO.P,C30,2*%
%TO.N,GND*%
X18200000Y21910000D03*
%TD*%
D46*
%TO.P,H3,1,1*%
%TO.N,GND*%
X79975000Y3000000D03*
X80568109Y4431891D03*
X80568109Y1568109D03*
X82000000Y5025000D03*
D47*
X82000000Y3000000D03*
D46*
X82000000Y975000D03*
X83431891Y4431891D03*
X83431891Y1568109D03*
X84025000Y3000000D03*
%TD*%
D33*
%TO.P,R10,1*%
%TO.N,/V-VCC_BIAS*%
X16250000Y18850000D03*
%TO.P,R10,2*%
%TO.N,V-5P0*%
X16250000Y17200000D03*
%TD*%
D19*
%TO.P,C25,1*%
%TO.N,/Power Conversion/BOOST_VIN*%
X30000000Y41400000D03*
%TO.P,C25,2*%
%TO.N,GND*%
X30000000Y44350000D03*
%TD*%
D57*
%TO.P,C12,1*%
%TO.N,/OUT_FILT_2*%
X67400000Y3750000D03*
%TO.P,C12,2*%
%TO.N,GND*%
X67400000Y2200000D03*
%TD*%
D51*
%TO.P,R3,1*%
%TO.N,/FET_PWR_FILT*%
X68300000Y23750000D03*
%TO.P,R3,2*%
%TO.N,/C_DAMP*%
X68300000Y21925000D03*
%TD*%
D40*
%TO.P,C15,1*%
%TO.N,/Power Conversion/BATT_GND*%
X11590000Y34900000D03*
%TO.P,C15,2*%
%TO.N,/Power Conversion/PROT_VDD*%
X12550000Y34900000D03*
%TD*%
D58*
%TO.P,L6,1,1*%
%TO.N,/OUT_FILT_2*%
X71300000Y6830000D03*
%TO.P,L6,2,2*%
%TO.N,/OUT_FILT_3*%
X71300000Y14200000D03*
%TD*%
D33*
%TO.P,R14,1*%
%TO.N,/TEE_ATTN*%
X10000000Y9450000D03*
%TO.P,R14,2*%
%TO.N,/TEE_OUT*%
X10000000Y7800000D03*
%TD*%
D23*
%TO.P,C9,1*%
%TO.N,/FET_PWR_FILT*%
X62100000Y23500000D03*
%TO.P,C9,2*%
%TO.N,GND*%
X62100000Y22540000D03*
%TD*%
D40*
%TO.P,C33,1*%
%TO.N,/Power Conversion/BUCK_SW*%
X68075000Y36350000D03*
%TO.P,C33,2*%
%TO.N,/Power Conversion/BUCK_BST*%
X69035000Y36350000D03*
%TD*%
D13*
%TO.P,C13,1*%
%TO.N,/RF_OUT_EXT*%
X77575000Y14500000D03*
%TO.P,C13,2*%
%TO.N,/OUT_FILT_3*%
X76025000Y14500000D03*
%TD*%
D59*
%TO.P,L8,1,1*%
%TO.N,/Power Conversion/BUCK_SW*%
X66475000Y34800000D03*
%TO.P,L8,2,2*%
%TO.N,V-5P0*%
X66475000Y31800000D03*
%TD*%
D20*
%TO.P,Q3,1,G*%
%TO.N,/Power Conversion/BOOST_EN*%
X9900000Y42550000D03*
%TO.P,Q3,2,S*%
%TO.N,GND*%
X9900000Y40650000D03*
%TO.P,Q3,3,D*%
%TO.N,/Power Conversion/VIN_SW_NFET_D*%
X11900000Y41600000D03*
%TD*%
D11*
%TO.P,TP6,1,1*%
%TO.N,/FET_DRAIN*%
X52500000Y12100000D03*
%TD*%
%TO.P,TP11,1,1*%
%TO.N,GND*%
X28550000Y19900000D03*
%TD*%
D60*
%TO.P,R13,1*%
%TO.N,GND*%
X8350000Y11150000D03*
%TO.P,R13,2*%
%TO.N,/TEE_ATTN*%
X10000000Y11150000D03*
%TD*%
D25*
%TO.P,C24,1*%
%TO.N,/Power Conversion/BOOST_ISNS*%
X28620000Y29900000D03*
%TO.P,C24,2*%
%TO.N,GND*%
X27660000Y29900000D03*
%TD*%
D19*
%TO.P,C35,1*%
%TO.N,V-5P0*%
X62025000Y33000000D03*
%TO.P,C35,2*%
%TO.N,GND*%
X62025000Y35950000D03*
%TD*%
D34*
%TO.P,FB2,1,1*%
%TO.N,/FET_PWR_FILT*%
X66800000Y25600000D03*
%TO.P,FB2,2,2*%
%TO.N,BOOST_VOUT*%
X66800000Y27175000D03*
%TD*%
D23*
%TO.P,C3,1*%
%TO.N,/IN_FILT_LC*%
X29230000Y6850000D03*
%TO.P,C3,2*%
%TO.N,GND*%
X29230000Y5890000D03*
%TD*%
%TO.P,C7,1*%
%TO.N,/BIAS*%
X30250000Y22100000D03*
%TO.P,C7,2*%
%TO.N,GND*%
X30250000Y21140000D03*
%TD*%
D13*
%TO.P,C38,1*%
%TO.N,Net-(C38-Pad1)*%
X19700000Y12650000D03*
%TO.P,C38,2*%
%TO.N,GND*%
X18150000Y12650000D03*
%TD*%
D52*
%TO.P,L3,1,1*%
%TO.N,/FET_PWR_FILT*%
X55250000Y24320000D03*
%TO.P,L3,2,2*%
%TO.N,/FET_DRAIN*%
X55250000Y16950000D03*
%TD*%
D49*
%TO.P,R15,1*%
%TO.N,/Power Conversion/VC_RC*%
X21200000Y34900000D03*
%TO.P,R15,2*%
%TO.N,/Power Conversion/BOOST_VCOMP*%
X22220000Y34900000D03*
%TD*%
D23*
%TO.P,C2,1*%
%TO.N,/RF_IN*%
X24680000Y6850000D03*
%TO.P,C2,2*%
%TO.N,GND*%
X24680000Y5890000D03*
%TD*%
D46*
%TO.P,H2,1,1*%
%TO.N,GND*%
X79975000Y44500000D03*
X80568109Y45931891D03*
X80568109Y43068109D03*
X82000000Y46525000D03*
D47*
X82000000Y44500000D03*
D46*
X82000000Y42475000D03*
X83431891Y45931891D03*
X83431891Y43068109D03*
X84025000Y44500000D03*
%TD*%
D11*
%TO.P,TP3,1,1*%
%TO.N,/FET_GATE*%
X39300000Y12800000D03*
%TD*%
D16*
%TO.P,C23,1*%
%TO.N,/Power Conversion/BOOST_VIN*%
X27000000Y39500000D03*
%TO.P,C23,2*%
%TO.N,GND*%
X27000000Y36550000D03*
%TD*%
D61*
%TO.P,J4,1,IN*%
%TO.N,/COAX_TP_IN*%
X33700000Y14500000D03*
%TO.P,J4,2,OUT*%
%TO.N,/FET_GATE*%
X36700000Y14500000D03*
D62*
%TO.P,J4,3,GND*%
%TO.N,GND*%
X34100000Y15800000D03*
X34100000Y13200000D03*
X36300000Y15800000D03*
X36300000Y13200000D03*
%TD*%
D55*
%TO.P,R22,1*%
%TO.N,Net-(C38-Pad1)*%
X19700000Y14400000D03*
%TO.P,R22,2*%
%TO.N,V-5P0*%
X19700000Y16225000D03*
%TD*%
D63*
%TO.P,U2,1,VC*%
%TO.N,/Power Conversion/BOOST_VCOMP*%
X24320000Y34450000D03*
%TO.P,U2,2,FBX*%
%TO.N,/Power Conversion/BOOST_FB*%
X24320000Y33800000D03*
%TO.P,U2,3,SS*%
%TO.N,/Power Conversion/BOOST_SS*%
X24320000Y33150000D03*
%TO.P,U2,4,RT*%
%TO.N,/Power Conversion/BOOST_RT*%
X24320000Y32500000D03*
%TO.P,U2,5,SYNC*%
%TO.N,GND*%
X24320000Y31850000D03*
%TO.P,U2,6,~{PGOOD}*%
%TO.N,/Power Conversion/BOOST_PG*%
X24320000Y31200000D03*
%TO.P,U2,7,SENSE*%
%TO.N,/Power Conversion/BOOST_ISNS*%
X28620000Y31200000D03*
%TO.P,U2,8,GATE*%
%TO.N,/Power Conversion/BOOST_GATE*%
X28620000Y31850000D03*
%TO.P,U2,9,INTVCC*%
%TO.N,/Power Conversion/INTVCC*%
X28620000Y32500000D03*
%TO.P,U2,10,DRIVE*%
%TO.N,/Power Conversion/BOOST_DRV*%
X28620000Y33150000D03*
%TO.P,U2,11,VIN*%
%TO.N,/Power Conversion/BOOST_VIN*%
X28620000Y33800000D03*
%TO.P,U2,12,EN/UVLO*%
%TO.N,/Power Conversion/BOOST_EN*%
X28620000Y34450000D03*
D64*
%TO.P,U2,13,GND*%
%TO.N,GND*%
X26470000Y32825000D03*
%TD*%
D65*
%TO.N,GND*%
X5550000Y17300000D03*
X2500000Y18550000D03*
X2500000Y10400000D03*
X8800000Y15350000D03*
X8800000Y13650000D03*
X6500000Y13650000D03*
X6500000Y15350000D03*
X5200000Y15800000D03*
X3850000Y15800000D03*
X2500000Y15800000D03*
X3850000Y13200000D03*
X5200000Y13200000D03*
X5550000Y11700000D03*
X2500000Y13200000D03*
X12650000Y5900000D03*
X11200000Y8700000D03*
X17950000Y5950000D03*
X21450000Y6050000D03*
X28150000Y7900000D03*
X25700000Y7900000D03*
X32100000Y6750000D03*
X31400000Y5850000D03*
X30000000Y9100000D03*
X30100000Y10800000D03*
X30350000Y14500000D03*
X31700000Y15300000D03*
%TO.N,BOOST_VOUT*%
X41050000Y33200000D03*
X39350000Y27950000D03*
%TO.N,GND*%
X52500000Y9600000D03*
X28550000Y19900000D03*
X33000000Y15800000D03*
X33000000Y13200000D03*
%TO.N,/Power Conversion/BOOST_EN*%
X25950000Y42750000D03*
X29100000Y37800000D03*
D66*
%TO.N,GND*%
X46350000Y21450000D03*
X44650000Y21450000D03*
X46350000Y7650000D03*
X44650000Y7650000D03*
X61000000Y15150000D03*
X58250000Y11200000D03*
D65*
X59750000Y10000000D03*
X65250000Y13550000D03*
X61275000Y10000000D03*
X62800000Y10000000D03*
X61550000Y13550000D03*
X66450000Y12050000D03*
X65850000Y10000000D03*
X66400000Y13200000D03*
X63400000Y13550000D03*
X66450000Y10950000D03*
X64325000Y10000000D03*
X78986440Y8085375D03*
X79000000Y6450000D03*
X78050000Y5050000D03*
X76187500Y5000000D03*
X74325000Y5000000D03*
X72462500Y5000000D03*
X68300000Y2200000D03*
X67400000Y1350000D03*
X66500000Y2200000D03*
X70600000Y5000000D03*
X69350000Y3700000D03*
X75100000Y8700000D03*
X73550000Y8600000D03*
X72250000Y8600000D03*
X70650000Y8550000D03*
X69050000Y8550000D03*
X67500000Y8000000D03*
X66650000Y7050000D03*
X65700000Y6200000D03*
X58300000Y4150000D03*
X58350000Y3000000D03*
X58300000Y5250000D03*
X61100000Y2650000D03*
X58950000Y6100000D03*
X60200000Y6200000D03*
X61500000Y6200000D03*
X59500000Y2650000D03*
X62750000Y2650000D03*
X64450000Y2650000D03*
X62850000Y6200000D03*
X64150000Y6200000D03*
X23950000Y5850000D03*
X24700000Y5250000D03*
X25400000Y5850000D03*
X28500000Y5850000D03*
X29250000Y5250000D03*
X29950000Y5850000D03*
X31950000Y9300000D03*
X32600000Y10050000D03*
X31950000Y10800000D03*
X75200000Y12900000D03*
X73400000Y12450000D03*
X71700000Y12450000D03*
X70050000Y12450000D03*
X68450000Y12450000D03*
X67300000Y12800000D03*
X67250000Y13950000D03*
X67250000Y15050000D03*
X67850000Y16000000D03*
X69150000Y16000000D03*
X70450000Y16000000D03*
X30900000Y45250000D03*
X29050000Y45250000D03*
X30000000Y45250000D03*
X51000000Y39750000D03*
X31120000Y36300000D03*
D66*
X56550000Y18750000D03*
X51950000Y18750000D03*
D65*
X71200000Y23400000D03*
D66*
X45500000Y22300000D03*
D65*
X44625000Y11100000D03*
X57675000Y37000000D03*
X75700000Y16000000D03*
D66*
X54350000Y18750000D03*
D65*
X45550000Y14100000D03*
X46475000Y16100000D03*
X14850000Y8050000D03*
X15850000Y8050000D03*
X62900000Y22150000D03*
D66*
X47200000Y20700000D03*
X49100000Y10800000D03*
D65*
X47400000Y12100000D03*
X82500000Y18650000D03*
X72100000Y23400000D03*
X43700000Y17100000D03*
X58525000Y37000000D03*
X47400000Y14100000D03*
X77000000Y10300000D03*
D66*
X59400000Y17400000D03*
D65*
X33620000Y35800000D03*
D66*
X53500000Y10800000D03*
D65*
X45550000Y13100000D03*
X46475000Y11100000D03*
X77000000Y16000000D03*
X45550000Y15100000D03*
X46475000Y15100000D03*
X45550000Y11100000D03*
D66*
X48500000Y7700000D03*
D65*
X45550000Y16100000D03*
X18100000Y11150000D03*
X34420000Y35800000D03*
X44625000Y12100000D03*
D66*
X46177140Y28000000D03*
D65*
X44625000Y16100000D03*
X64625000Y38000000D03*
D66*
X48905710Y28000000D03*
D65*
X45550000Y17100000D03*
X26050000Y35700000D03*
D66*
X48500000Y21500000D03*
D65*
X26020000Y33900000D03*
D66*
X49900000Y18750000D03*
D65*
X82500000Y10350000D03*
X14850000Y9250000D03*
D66*
X58250000Y12900000D03*
D65*
X21500000Y37750000D03*
D66*
X19050000Y23600000D03*
X43800000Y8400000D03*
X41800000Y10800000D03*
D65*
X14850000Y10450000D03*
X78300000Y16000000D03*
X73100000Y16000000D03*
X46000000Y18900000D03*
X45000000Y18900000D03*
X78400000Y10000000D03*
D66*
X43800000Y9900000D03*
D65*
X38150000Y16600000D03*
X16600000Y8200000D03*
X44625000Y18100000D03*
X47400000Y15100000D03*
X15350000Y9850000D03*
X37532233Y11032233D03*
X27000000Y35700000D03*
D66*
X48500000Y20000000D03*
D65*
X44625000Y17100000D03*
X14100000Y11200000D03*
X40150000Y11000000D03*
X46475000Y13100000D03*
D66*
X47541425Y28000000D03*
D65*
X63775000Y37000000D03*
X46450000Y39800000D03*
X15350000Y7450000D03*
X46000000Y10400000D03*
X44625000Y14100000D03*
D66*
X47200000Y6900000D03*
D65*
X61850000Y21800000D03*
X14100000Y10200000D03*
X82250000Y13000000D03*
X78300000Y13000000D03*
X45000000Y19700000D03*
X79400000Y17300000D03*
D66*
X42084285Y28000000D03*
D65*
X83550000Y16000000D03*
X43700000Y14100000D03*
D66*
X36650000Y20300000D03*
D65*
X44625000Y15100000D03*
X82250000Y16000000D03*
X16600000Y11200000D03*
D66*
X35770000Y28450000D03*
D65*
X61125000Y37000000D03*
X31620000Y37150000D03*
D66*
X47200000Y8400000D03*
D65*
X27000000Y29900000D03*
X15350000Y5850000D03*
X66525000Y38450000D03*
X31870000Y36300000D03*
X38300000Y17700000D03*
X62025000Y37000000D03*
X46475000Y12100000D03*
X66525000Y37700000D03*
D66*
X42500000Y9200000D03*
D65*
X25970000Y32800000D03*
X15850000Y10450000D03*
X62100000Y19150000D03*
X9000000Y40650000D03*
X79600000Y16000000D03*
X45550000Y18100000D03*
D66*
X43800000Y22300000D03*
D65*
X44625000Y13100000D03*
X41450000Y22100000D03*
X80900000Y13000000D03*
D66*
X7500000Y28600000D03*
X8000000Y27850000D03*
D65*
X26970000Y31750000D03*
X35200000Y13200000D03*
X47350000Y39800000D03*
X14100000Y9200000D03*
X16600000Y10200000D03*
X48200000Y39800000D03*
X27900000Y35700000D03*
X62100000Y20100000D03*
X7550000Y11150000D03*
D66*
X44812855Y28000000D03*
D65*
X47400000Y13100000D03*
X45000000Y9600000D03*
X41000000Y20300000D03*
X47400000Y18100000D03*
X62100000Y18300000D03*
D66*
X45500000Y20700000D03*
D65*
X71800000Y16000000D03*
X51850000Y39750000D03*
X43700000Y12100000D03*
D66*
X43800000Y20700000D03*
D65*
X25970000Y31750000D03*
D66*
X56500000Y12900000D03*
D65*
X59375000Y37000000D03*
X16600000Y9200000D03*
D66*
X31650000Y20400000D03*
X54900000Y11900000D03*
D65*
X65525000Y38400000D03*
X72950000Y23400000D03*
X15850000Y9250000D03*
D66*
X37970000Y28500000D03*
X9300000Y28650000D03*
X43800000Y19200000D03*
D65*
X75600000Y10000000D03*
D66*
X47200000Y9900000D03*
X18200000Y22650000D03*
D65*
X46475000Y17100000D03*
D66*
X50270000Y28000000D03*
X30250000Y20400000D03*
X47200000Y22300000D03*
D65*
X45550000Y12100000D03*
X46475000Y14100000D03*
D66*
X40720000Y28000000D03*
D65*
X23050000Y31650000D03*
X83550000Y13000000D03*
X43700000Y13100000D03*
X43700000Y11100000D03*
D66*
X47200000Y19200000D03*
D65*
X47400000Y16100000D03*
X15350000Y8650000D03*
X18720000Y32750000D03*
X17350000Y12650000D03*
D66*
X42500000Y7700000D03*
X8900000Y27850000D03*
X45500000Y6900000D03*
D65*
X26970000Y32800000D03*
X50100000Y39750000D03*
D66*
X58600000Y18750000D03*
D65*
X21520000Y31350000D03*
X43700000Y15100000D03*
X45000000Y10400000D03*
X46000000Y19700000D03*
X46000000Y9600000D03*
X14100000Y8200000D03*
X15350000Y11250000D03*
X26970000Y33900000D03*
X80900000Y16000000D03*
D66*
X48500000Y9200000D03*
D65*
X37450000Y13050000D03*
X62925000Y37000000D03*
X79400000Y11700000D03*
X9850000Y24800000D03*
D66*
X42500000Y20000000D03*
D65*
X39000000Y11500000D03*
X38250000Y12250000D03*
X43700000Y16100000D03*
D66*
X50800000Y10800000D03*
D65*
X43700000Y18100000D03*
X46475000Y18100000D03*
X79600000Y13000000D03*
X40500000Y18200000D03*
X74400000Y16000000D03*
X47400000Y17100000D03*
D66*
X45500000Y8400000D03*
X43800000Y6900000D03*
D65*
X47400000Y11100000D03*
X60800000Y21800000D03*
X14200000Y29050000D03*
X37400000Y15850000D03*
D66*
X59400000Y16100000D03*
D65*
X77000000Y13000000D03*
X59900000Y22200000D03*
D66*
X43448570Y28000000D03*
D65*
X35200000Y15800000D03*
X41650000Y18200000D03*
D66*
%TO.N,BOOST_VOUT*%
X56800000Y41450000D03*
X50800000Y34500000D03*
X50800000Y33350000D03*
X52050000Y33350000D03*
X49550000Y34500000D03*
X71800000Y28450000D03*
X56800000Y40500000D03*
X68050000Y28450000D03*
X66800000Y28450000D03*
X57700000Y41450000D03*
X73050000Y28450000D03*
X48300000Y33350000D03*
X49550000Y33350000D03*
X53400000Y33350000D03*
X70550000Y28450000D03*
X57700000Y40500000D03*
X69300000Y28450000D03*
X48300000Y34500000D03*
X53400000Y34500000D03*
X52050000Y34500000D03*
D65*
%TO.N,/Power Conversion/BATT_GND*%
X10900000Y34900000D03*
X7450000Y31800000D03*
X10900000Y33150000D03*
%TO.N,/Power Conversion/BOOST_DRV*%
X32700000Y26900000D03*
X32670000Y33550000D03*
D66*
%TO.N,V-5P0*%
X19250000Y18100000D03*
X62050000Y31650000D03*
X58787500Y31650000D03*
X60962500Y31650000D03*
X59875000Y31650000D03*
X57700000Y31650000D03*
X20200000Y17200000D03*
X20200000Y18100000D03*
X19250000Y17200000D03*
%TD*%
D67*
%TO.N,/Power Conversion/BOOST_VCOMP*%
X22220000Y35420000D02*
X22450000Y35650000D01*
X22450000Y35650000D02*
X22450000Y36350000D01*
X22220000Y34900000D02*
X22220000Y35420000D01*
D68*
%TO.N,V-5P0*%
X57700000Y29700000D02*
X57700000Y31650000D01*
D67*
%TO.N,BOOST_VOUT*%
X33400000Y27900000D02*
X18850000Y27900000D01*
X33700000Y27600000D02*
X33400000Y27900000D01*
X39000000Y27600000D02*
X33700000Y27600000D01*
X39350000Y27950000D02*
X39000000Y27600000D01*
X17750000Y34250000D02*
X18400000Y34900000D01*
X17750000Y29000000D02*
X17750000Y34250000D01*
X18850000Y27900000D02*
X17750000Y29000000D01*
X16250000Y25300000D02*
X18850000Y27900000D01*
X41670000Y31950000D02*
X40850000Y31950000D01*
D69*
%TO.N,V-5P0*%
X16250000Y17200000D02*
X19250000Y17200000D01*
%TO.N,/V-VCC_BIAS*%
X16250000Y18850000D02*
X16250000Y20950000D01*
X16250000Y20950000D02*
X16250000Y23650000D01*
D67*
%TO.N,/Power Conversion/BOOST_EN*%
X68100000Y40375000D02*
X68075000Y40350000D01*
X33450000Y44300000D02*
X66050000Y44300000D01*
X66050000Y44300000D02*
X68100000Y42250000D01*
X68100000Y42250000D02*
X68100000Y40375000D01*
X31900000Y42750000D02*
X33450000Y44300000D01*
X25950000Y42750000D02*
X31900000Y42750000D01*
X10950000Y42550000D02*
X9900000Y42550000D01*
X11150000Y42750000D02*
X10950000Y42550000D01*
X25950000Y42750000D02*
X11150000Y42750000D01*
X29150000Y34450000D02*
X28620000Y34450000D01*
X29400000Y35150000D02*
X29400000Y34700000D01*
X29100000Y35450000D02*
X29400000Y35150000D01*
X29400000Y34700000D02*
X29150000Y34450000D01*
X29100000Y37800000D02*
X29100000Y35450000D01*
%TO.N,/Power Conversion/VIN_SW_G*%
X16350000Y41600000D02*
X16350000Y39870000D01*
X14600000Y41600000D02*
X16350000Y41600000D01*
X14600000Y41600000D02*
X14600000Y39870000D01*
%TO.N,/Power Conversion/VIN_SW_NFET_D*%
X11900000Y41600000D02*
X13580000Y41600000D01*
%TO.N,/Power Conversion/BOOST_EN*%
X2650000Y39950000D02*
X5400000Y39950000D01*
X5400000Y39950000D02*
X8000000Y42550000D01*
X8000000Y42550000D02*
X9900000Y42550000D01*
X1900000Y39200000D02*
X2650000Y39950000D01*
X1900000Y26475000D02*
X1900000Y39200000D01*
D68*
%TO.N,/Power Conversion/PROT_VDD*%
X12550000Y34900000D02*
X12550000Y36290000D01*
X12550000Y33175000D02*
X12550000Y34900000D01*
D67*
%TO.N,/Power Conversion/PROT_VM*%
X12550000Y30900000D02*
X12550000Y29050000D01*
%TO.N,/Power Conversion/PROT_DO*%
X9350000Y30900000D02*
X11600000Y30900000D01*
%TO.N,/Power Conversion/BOOST_EN*%
X9825000Y26475000D02*
X9850000Y26450000D01*
X1900000Y26475000D02*
X9825000Y26475000D01*
D69*
%TO.N,/COAX_TP_IN*%
X31500000Y14500000D02*
X33700000Y14500000D01*
X30980000Y13980000D02*
X31500000Y14500000D01*
X30980000Y13250000D02*
X30980000Y13980000D01*
%TO.N,/IN_FILT_FINAL*%
X30980000Y10050000D02*
X30980000Y11600000D01*
X30980000Y8450000D02*
X30980000Y10050000D01*
%TO.N,/IN_FILT_LC*%
X29230000Y6850000D02*
X30955000Y6850000D01*
X30955000Y6850000D02*
X30980000Y6875000D01*
X27680000Y6850000D02*
X29230000Y6850000D01*
%TO.N,/RF_IN*%
X24680000Y6850000D02*
X26105000Y6850000D01*
X23210000Y6850000D02*
X24680000Y6850000D01*
%TO.N,/RF_AMP_IN*%
X13840000Y6840000D02*
X13850000Y6850000D01*
X11700000Y6840000D02*
X13840000Y6840000D01*
%TO.N,/TEE_OUT*%
X10000000Y7800000D02*
X11700000Y7800000D01*
%TO.N,/TEE_ATTN*%
X10000000Y12850000D02*
X10000000Y9450000D01*
%TO.N,/TEE_ATTN_IN*%
X8110000Y14500000D02*
X10000000Y14500000D01*
%TO.N,/RF_AMP_OUT*%
X16850000Y6850000D02*
X22250000Y6850000D01*
%TO.N,Net-(C38-Pad1)*%
X19700000Y9175000D02*
X19700000Y11150000D01*
X19700000Y11150000D02*
X19700000Y12650000D01*
D68*
X19700000Y14400000D02*
X19700000Y12650000D01*
D69*
%TO.N,/Power Conversion/BOOST_VIN*%
X30020000Y37150000D02*
X30020000Y38880000D01*
D67*
%TO.N,V-5P0*%
X69200000Y31800000D02*
X66475000Y31800000D01*
X70125000Y32725000D02*
X69200000Y31800000D01*
X70125000Y33600000D02*
X70125000Y32725000D01*
%TO.N,/Power Conversion/BUCK_FB*%
X70125000Y39875000D02*
X70125000Y34350000D01*
X69025000Y40350000D02*
X69650000Y40350000D01*
X69650000Y40350000D02*
X70125000Y39875000D01*
D69*
%TO.N,/Power Conversion/BUCK_BST*%
X69035000Y38065000D02*
X69025000Y38075000D01*
X69035000Y36350000D02*
X69035000Y38065000D01*
%TO.N,/RF_IN_EXT*%
X2750000Y14500000D02*
X7150000Y14500000D01*
D68*
%TO.N,/BIAS_FILT*%
X39400000Y21250000D02*
X38550000Y22100000D01*
X39400000Y18825000D02*
X39400000Y20300000D01*
X36650000Y22100000D02*
X34950000Y22100000D01*
X38550000Y22100000D02*
X36650000Y22100000D01*
X39400000Y20300000D02*
X39400000Y21250000D01*
%TO.N,/BIAS*%
X33375000Y22100000D02*
X28550000Y22100000D01*
X28550000Y22100000D02*
X25700000Y22100000D01*
D67*
%TO.N,/Power Conversion/BOOST_VIN*%
X28620000Y33800000D02*
X29620000Y33800000D01*
X29620000Y33800000D02*
X30020000Y34200000D01*
X30020000Y34200000D02*
X30020000Y37150000D01*
%TO.N,/Power Conversion/BOOST_SS*%
X21670000Y33150000D02*
X24320000Y33150000D01*
X20820000Y32300000D02*
X21670000Y33150000D01*
%TO.N,/Power Conversion/BOOST_VCOMP*%
X23300000Y34450000D02*
X22850000Y34900000D01*
X24320000Y34450000D02*
X23300000Y34450000D01*
X22850000Y34900000D02*
X22220000Y34900000D01*
%TO.N,/Power Conversion/VC_RC*%
X21200000Y35400000D02*
X21020000Y35580000D01*
X21020000Y35580000D02*
X21020000Y36100000D01*
X21200000Y34900000D02*
X21200000Y35400000D01*
%TO.N,/Power Conversion/INTVCC*%
X33220000Y32500000D02*
X33820000Y33100000D01*
X33820000Y33100000D02*
X34070000Y33100000D01*
X28620000Y32500000D02*
X33220000Y32500000D01*
%TO.N,/Power Conversion/BOOST_DRV*%
X29920000Y33150000D02*
X30320000Y33550000D01*
X28620000Y33150000D02*
X29920000Y33150000D01*
D69*
X52070000Y28100000D02*
X52070000Y30150000D01*
X31420000Y33550000D02*
X32670000Y33550000D01*
D67*
X30320000Y33550000D02*
X31420000Y33550000D01*
D69*
X50870000Y26900000D02*
X52070000Y28100000D01*
X32700000Y26900000D02*
X50870000Y26900000D01*
D67*
%TO.N,/Power Conversion/BOOST_ISNS*%
X30720000Y31200000D02*
X31070000Y30850000D01*
X28620000Y31200000D02*
X30720000Y31200000D01*
X28620000Y31200000D02*
X28620000Y29900000D01*
X31070000Y30850000D02*
X33220000Y30850000D01*
D69*
%TO.N,/V-VCC_BIAS*%
X20200000Y20950000D02*
X18200000Y20950000D01*
X18200000Y20950000D02*
X16250000Y20950000D01*
D67*
%TO.N,/Power Conversion/BOOST_GATE*%
X35520000Y33300000D02*
X35520000Y32350000D01*
X36720000Y34500000D02*
X35520000Y33300000D01*
X35020000Y31850000D02*
X28620000Y31850000D01*
X35520000Y32350000D02*
X35020000Y31850000D01*
X36870000Y34500000D02*
X36720000Y34500000D01*
%TO.N,/Power Conversion/BOOST_CS*%
X34870000Y30850000D02*
X36870000Y30850000D01*
%TO.N,/Power Conversion/BOOST_RT*%
X22220000Y32350000D02*
X23050000Y32350000D01*
X23200000Y32500000D02*
X24320000Y32500000D01*
X23050000Y32350000D02*
X23200000Y32500000D01*
%TO.N,/Power Conversion/BOOST_FB*%
X19420000Y33800000D02*
X19420000Y34900000D01*
X24320000Y33800000D02*
X19420000Y33800000D01*
%TD*%
%TA.AperFunction,Conductor*%
%TO.N,/RF_OUT_EXT*%
G36*
X84538000Y15283387D02*
G01*
X84583387Y15238000D01*
X84600000Y15176000D01*
X84600000Y13824000D01*
X84583387Y13762000D01*
X84538000Y13716613D01*
X84476000Y13700000D01*
X77274000Y13700000D01*
X77212000Y13716613D01*
X77166613Y13762000D01*
X77150000Y13824000D01*
X77150000Y15176000D01*
X77166613Y15238000D01*
X77212000Y15283387D01*
X77274000Y15300000D01*
X84476000Y15300000D01*
X84538000Y15283387D01*
G37*
%TD.AperFunction*%
%TD*%
%TA.AperFunction,Conductor*%
%TO.N,/Power Conversion/BUCK_SW*%
G36*
X68263000Y38733387D02*
G01*
X68308387Y38688000D01*
X68325000Y38626000D01*
X68325000Y34374000D01*
X68308387Y34312000D01*
X68263000Y34266613D01*
X68201000Y34250000D01*
X64749000Y34250000D01*
X64687000Y34266613D01*
X64641613Y34312000D01*
X64625000Y34374000D01*
X64625000Y35548638D01*
X64634439Y35596091D01*
X64661319Y35636319D01*
X65038681Y36013681D01*
X65078909Y36040561D01*
X65126362Y36050000D01*
X66825000Y36050000D01*
X67825000Y37050000D01*
X67825000Y38626000D01*
X67841613Y38688000D01*
X67887000Y38733387D01*
X67949000Y38750000D01*
X68201000Y38750000D01*
X68263000Y38733387D01*
G37*
%TD.AperFunction*%
%TD*%
%TA.AperFunction,Conductor*%
%TO.N,V-5P0*%
G36*
X63496091Y33590561D02*
G01*
X63536319Y33563681D01*
X64600000Y32500000D01*
X68226000Y32500000D01*
X68288000Y32483387D01*
X68333387Y32438000D01*
X68350000Y32376000D01*
X68350000Y31224000D01*
X68333387Y31162000D01*
X68288000Y31116613D01*
X68226000Y31100000D01*
X57274000Y31100000D01*
X57212000Y31116613D01*
X57166613Y31162000D01*
X57150000Y31224000D01*
X57150000Y33476000D01*
X57166613Y33538000D01*
X57212000Y33583387D01*
X57274000Y33600000D01*
X63448638Y33600000D01*
X63496091Y33590561D01*
G37*
%TD.AperFunction*%
%TD*%
%TA.AperFunction,Conductor*%
%TO.N,/C_DAMP*%
G36*
X68938000Y22433387D02*
G01*
X68983387Y22388000D01*
X69000000Y22326000D01*
X69000000Y20301362D01*
X68990561Y20253909D01*
X68963681Y20213681D01*
X66586319Y17836319D01*
X66546091Y17809439D01*
X66498638Y17800000D01*
X65524000Y17800000D01*
X65462000Y17816613D01*
X65416613Y17862000D01*
X65400000Y17924000D01*
X65400000Y22326000D01*
X65416613Y22388000D01*
X65462000Y22433387D01*
X65524000Y22450000D01*
X68876000Y22450000D01*
X68938000Y22433387D01*
G37*
%TD.AperFunction*%
%TD*%
%TA.AperFunction,Conductor*%
%TO.N,V-5P0*%
G36*
X20638000Y18533387D02*
G01*
X20683387Y18488000D01*
X20700000Y18426000D01*
X20700000Y16101362D01*
X20690561Y16053909D01*
X20663681Y16013681D01*
X20386319Y15736319D01*
X20346091Y15709439D01*
X20298638Y15700000D01*
X19101362Y15700000D01*
X19053909Y15709439D01*
X19013681Y15736319D01*
X18786319Y15963681D01*
X18759439Y16003909D01*
X18750000Y16051362D01*
X18750000Y18426000D01*
X18766613Y18488000D01*
X18812000Y18533387D01*
X18874000Y18550000D01*
X20576000Y18550000D01*
X20638000Y18533387D01*
G37*
%TD.AperFunction*%
%TD*%
%TA.AperFunction,Conductor*%
%TO.N,/OUT_FILT_1*%
G36*
X60046091Y14690561D02*
G01*
X60086319Y14663681D01*
X60763681Y13986319D01*
X60790561Y13946091D01*
X60800000Y13898638D01*
X60800000Y12300000D01*
X65526000Y12300000D01*
X65588000Y12283387D01*
X65633387Y12238000D01*
X65650000Y12176000D01*
X65650000Y10824000D01*
X65633387Y10762000D01*
X65588000Y10716613D01*
X65526000Y10700000D01*
X59374000Y10700000D01*
X59312000Y10716613D01*
X59266613Y10762000D01*
X59250000Y10824000D01*
X59250000Y14576000D01*
X59266613Y14638000D01*
X59312000Y14683387D01*
X59374000Y14700000D01*
X59998638Y14700000D01*
X60046091Y14690561D01*
G37*
%TD.AperFunction*%
%TD*%
%TA.AperFunction,Conductor*%
%TO.N,/FET_GATE*%
G36*
X42138000Y17583387D02*
G01*
X42183387Y17538000D01*
X42200000Y17476000D01*
X42200000Y11724000D01*
X42183387Y11662000D01*
X42138000Y11616613D01*
X42076000Y11600000D01*
X39851362Y11600000D01*
X39803909Y11609439D01*
X39763681Y11636319D01*
X37300000Y14100000D01*
X36324000Y14100000D01*
X36262000Y14116613D01*
X36216613Y14162000D01*
X36200000Y14224000D01*
X36200000Y14776000D01*
X36216613Y14838000D01*
X36262000Y14883387D01*
X36324000Y14900000D01*
X37300000Y14900000D01*
X38900000Y16500000D01*
X38900000Y17476000D01*
X38916613Y17538000D01*
X38962000Y17583387D01*
X39024000Y17600000D01*
X42076000Y17600000D01*
X42138000Y17583387D01*
G37*
%TD.AperFunction*%
%TD*%
%TA.AperFunction,Conductor*%
%TO.N,/Power Conversion/BOOST_VIN*%
G36*
X34638000Y41983387D02*
G01*
X34683387Y41938000D01*
X34700000Y41876000D01*
X34700000Y38624000D01*
X34683387Y38562000D01*
X34638000Y38516613D01*
X34576000Y38500000D01*
X23116880Y38500000D01*
X23077356Y38506468D01*
X23041957Y38525194D01*
X22959975Y38587364D01*
X22959972Y38587366D01*
X22959971Y38587366D01*
X22825590Y38640360D01*
X22741148Y38650500D01*
X22741144Y38650500D01*
X22158856Y38650500D01*
X22158852Y38650500D01*
X22074409Y38640360D01*
X21940028Y38587366D01*
X21940025Y38587365D01*
X21940025Y38587364D01*
X21858042Y38525194D01*
X21822644Y38506468D01*
X21783120Y38500000D01*
X18024000Y38500000D01*
X17962000Y38516613D01*
X17916613Y38562000D01*
X17900000Y38624000D01*
X17900000Y40399999D01*
X17899999Y40400001D01*
X17086319Y41213681D01*
X17059439Y41253909D01*
X17050000Y41301362D01*
X17050000Y41848638D01*
X17059439Y41896091D01*
X17086319Y41936319D01*
X17113681Y41963681D01*
X17153909Y41990561D01*
X17201362Y42000000D01*
X34576000Y42000000D01*
X34638000Y41983387D01*
G37*
%TD.AperFunction*%
%TD*%
%TA.AperFunction,Conductor*%
%TO.N,/Power Conversion/VIN_EXT*%
G36*
X15145226Y39090568D02*
G01*
X15185446Y39063706D01*
X15848921Y38400601D01*
X16476064Y38400225D01*
X16726075Y38400074D01*
X16788043Y38383436D01*
X16833400Y38338052D01*
X16850000Y38276074D01*
X16850000Y37174000D01*
X16833387Y37112000D01*
X16788000Y37066613D01*
X16726000Y37050000D01*
X3174000Y37050000D01*
X3112000Y37066613D01*
X3066613Y37112000D01*
X3050000Y37174000D01*
X3050000Y38626000D01*
X3066613Y38688000D01*
X3112000Y38733387D01*
X3174000Y38750000D01*
X6300000Y38750000D01*
X6613681Y39063682D01*
X6653909Y39090561D01*
X6701362Y39100000D01*
X15097789Y39100000D01*
X15145226Y39090568D01*
G37*
%TD.AperFunction*%
%TD*%
%TA.AperFunction,Conductor*%
%TO.N,/OUT_FILT_2*%
G36*
X78038000Y7683387D02*
G01*
X78083387Y7638000D01*
X78100000Y7576000D01*
X78100000Y6024000D01*
X78083387Y5962000D01*
X78038000Y5916613D01*
X77976000Y5900000D01*
X70399999Y5900000D01*
X67836319Y3336319D01*
X67796091Y3309439D01*
X67748638Y3300000D01*
X59224000Y3300000D01*
X59162000Y3316613D01*
X59116613Y3362000D01*
X59100000Y3424000D01*
X59100000Y5376000D01*
X59116613Y5438000D01*
X59162000Y5483387D01*
X59224000Y5500000D01*
X66100000Y5500000D01*
X68263681Y7663682D01*
X68303909Y7690561D01*
X68351362Y7700000D01*
X77976000Y7700000D01*
X78038000Y7683387D01*
G37*
%TD.AperFunction*%
%TD*%
%TA.AperFunction,Conductor*%
%TO.N,/OUT_FILT_3*%
G36*
X76388000Y15283387D02*
G01*
X76433387Y15238000D01*
X76450000Y15176000D01*
X76450000Y13824000D01*
X76433387Y13762000D01*
X76388000Y13716613D01*
X76326000Y13700000D01*
X74999999Y13700000D01*
X74436319Y13136319D01*
X74396091Y13109439D01*
X74348638Y13100000D01*
X68624000Y13100000D01*
X68562000Y13116613D01*
X68516613Y13162000D01*
X68500000Y13224000D01*
X68500000Y15176000D01*
X68516613Y15238000D01*
X68562000Y15283387D01*
X68624000Y15300000D01*
X76326000Y15300000D01*
X76388000Y15283387D01*
G37*
%TD.AperFunction*%
%TD*%
%TA.AperFunction,Conductor*%
%TO.N,BOOST_VOUT*%
G36*
X58846091Y41940561D02*
G01*
X58886319Y41913681D01*
X59163681Y41636319D01*
X59190561Y41596091D01*
X59200000Y41548638D01*
X59200000Y40351362D01*
X59190561Y40303909D01*
X59163681Y40263681D01*
X58936319Y40036319D01*
X58896091Y40009439D01*
X58848638Y40000000D01*
X56474000Y40000000D01*
X56412000Y40016613D01*
X56366613Y40062000D01*
X56350000Y40124000D01*
X56350000Y41826000D01*
X56366613Y41888000D01*
X56412000Y41933387D01*
X56474000Y41950000D01*
X58798638Y41950000D01*
X58846091Y41940561D01*
G37*
%TD.AperFunction*%
%TD*%
%TA.AperFunction,Conductor*%
%TO.N,BOOST_VOUT*%
G36*
X73488000Y28883387D02*
G01*
X73533387Y28838000D01*
X73550000Y28776000D01*
X73550000Y26874000D01*
X73533387Y26812000D01*
X73488000Y26766613D01*
X73426000Y26750000D01*
X66424000Y26750000D01*
X66362000Y26766613D01*
X66316613Y26812000D01*
X66300000Y26874000D01*
X66300000Y28776000D01*
X66316613Y28838000D01*
X66362000Y28883387D01*
X66424000Y28900000D01*
X73426000Y28900000D01*
X73488000Y28883387D01*
G37*
%TD.AperFunction*%
%TD*%
%TA.AperFunction,Conductor*%
%TO.N,/FET_PWR_FILT*%
G36*
X68988000Y26033387D02*
G01*
X69033387Y25988000D01*
X69050000Y25926000D01*
X69050000Y23374000D01*
X69033387Y23312000D01*
X68988000Y23266613D01*
X68926000Y23250000D01*
X52024000Y23250000D01*
X51962000Y23266613D01*
X51916613Y23312000D01*
X51900000Y23374000D01*
X51900000Y25198638D01*
X51909439Y25246091D01*
X51936319Y25286319D01*
X52663681Y26013681D01*
X52703909Y26040561D01*
X52751362Y26050000D01*
X68926000Y26050000D01*
X68988000Y26033387D01*
G37*
%TD.AperFunction*%
%TD*%
%TA.AperFunction,Conductor*%
%TO.N,BOOST_VOUT*%
G36*
X53908000Y36483387D02*
G01*
X53953387Y36438000D01*
X53970000Y36376000D01*
X53970000Y31474000D01*
X53953387Y31412000D01*
X53908000Y31366613D01*
X53846000Y31350000D01*
X40444000Y31350000D01*
X40382000Y31366613D01*
X40336613Y31412000D01*
X40320000Y31474000D01*
X40320000Y33198638D01*
X40329439Y33246091D01*
X40356319Y33286319D01*
X40356319Y33286320D01*
X41370000Y34300000D01*
X41370000Y35348638D01*
X41379439Y35396091D01*
X41406319Y35436319D01*
X42433681Y36463681D01*
X42473909Y36490561D01*
X42521362Y36500000D01*
X53846000Y36500000D01*
X53908000Y36483387D01*
G37*
%TD.AperFunction*%
%TD*%
%TA.AperFunction,Conductor*%
%TO.N,/Power Conversion/BOOST_CS*%
G36*
X37266091Y32990561D02*
G01*
X37306319Y32963681D01*
X37633681Y32636319D01*
X37660561Y32596091D01*
X37670000Y32548638D01*
X37670000Y30551362D01*
X37660561Y30503909D01*
X37633681Y30463681D01*
X37556319Y30386319D01*
X37516091Y30359439D01*
X37468638Y30350000D01*
X36271362Y30350000D01*
X36223909Y30359439D01*
X36183681Y30386319D01*
X36106319Y30463681D01*
X36079439Y30503909D01*
X36070000Y30551362D01*
X36070000Y32548638D01*
X36079439Y32596091D01*
X36106319Y32636319D01*
X36433681Y32963681D01*
X36473909Y32990561D01*
X36521362Y33000000D01*
X37218638Y33000000D01*
X37266091Y32990561D01*
G37*
%TD.AperFunction*%
%TD*%
%TA.AperFunction,Conductor*%
%TO.N,/Power Conversion/BATT_GND*%
G36*
X10796091Y36240561D02*
G01*
X10836319Y36213681D01*
X11863681Y35186319D01*
X11890561Y35146091D01*
X11900000Y35098638D01*
X11900000Y32624000D01*
X11883387Y32562000D01*
X11838000Y32516613D01*
X11776000Y32500000D01*
X9149999Y32500000D01*
X8150000Y31500001D01*
X8150000Y30851362D01*
X8140561Y30803909D01*
X8113681Y30763681D01*
X7786319Y30436319D01*
X7746091Y30409439D01*
X7698638Y30400000D01*
X7201362Y30400000D01*
X7153909Y30409439D01*
X7113681Y30436319D01*
X3136319Y34413681D01*
X3109439Y34453909D01*
X3100000Y34501362D01*
X3100000Y35248638D01*
X3109439Y35296091D01*
X3136319Y35336319D01*
X4013681Y36213681D01*
X4053909Y36240561D01*
X4101362Y36250000D01*
X10748638Y36250000D01*
X10796091Y36240561D01*
G37*
%TD.AperFunction*%
%TD*%
%TA.AperFunction,Conductor*%
%TO.N,/Power Conversion/BOOST_SW*%
G36*
X42766091Y41990561D02*
G01*
X42806319Y41963681D01*
X44183681Y40586319D01*
X44210561Y40546091D01*
X44220000Y40498638D01*
X44220000Y38124000D01*
X44203387Y38062000D01*
X44158000Y38016613D01*
X44096000Y38000000D01*
X42419999Y38000000D01*
X40770000Y36350001D01*
X40770000Y34701362D01*
X40760561Y34653909D01*
X40733681Y34613681D01*
X39306319Y33186319D01*
X39266091Y33159439D01*
X39218638Y33150000D01*
X38494000Y33150000D01*
X38432000Y33166613D01*
X38386613Y33212000D01*
X38370000Y33274000D01*
X38370000Y41876000D01*
X38386613Y41938000D01*
X38432000Y41983387D01*
X38494000Y42000000D01*
X42718638Y42000000D01*
X42766091Y41990561D01*
G37*
%TD.AperFunction*%
%TD*%
%TA.AperFunction,Conductor*%
%TO.N,/FET_DRAIN*%
G36*
X58538000Y18033387D02*
G01*
X58583387Y17988000D01*
X58600000Y17926000D01*
X58600000Y13724000D01*
X58583387Y13662000D01*
X58538000Y13616613D01*
X58476000Y13600000D01*
X55599999Y13600000D01*
X53536319Y11536319D01*
X53496091Y11509439D01*
X53448638Y11500000D01*
X48924000Y11500000D01*
X48862000Y11516613D01*
X48816613Y11562000D01*
X48800000Y11624000D01*
X48800000Y17548638D01*
X48809439Y17596091D01*
X48836319Y17636319D01*
X49213681Y18013681D01*
X49253909Y18040561D01*
X49301362Y18050000D01*
X58476000Y18050000D01*
X58538000Y18033387D01*
G37*
%TD.AperFunction*%
%TD*%
%TA.AperFunction,Conductor*%
%TO.N,GND*%
G36*
X81996091Y46990561D02*
G01*
X82036319Y46963681D01*
X84463681Y44536319D01*
X84490561Y44496091D01*
X84500000Y44448638D01*
X84500000Y18374000D01*
X84483387Y18312000D01*
X84438000Y18266613D01*
X84376000Y18250000D01*
X82650000Y18250000D01*
X82650000Y16400000D01*
X84376000Y16400000D01*
X84438000Y16383387D01*
X84483387Y16338000D01*
X84500000Y16276000D01*
X84500000Y15729500D01*
X84483387Y15667500D01*
X84438000Y15622113D01*
X84376000Y15605500D01*
X77273999Y15605500D01*
X77220193Y15598416D01*
X77201362Y15600271D01*
X77201362Y15600000D01*
X76398638Y15600000D01*
X76398638Y15600270D01*
X76379806Y15598417D01*
X76351658Y15602122D01*
X76326001Y15605500D01*
X76326000Y15605500D01*
X68624000Y15605500D01*
X68623999Y15605500D01*
X68597643Y15602030D01*
X68544930Y15595090D01*
X68506240Y15584724D01*
X68474154Y15580500D01*
X68401916Y15580500D01*
X68360865Y15577717D01*
X68183446Y15533595D01*
X68019662Y15452365D01*
X67877172Y15337828D01*
X67762635Y15195338D01*
X67681405Y15031554D01*
X67637283Y14854137D01*
X67634500Y14813083D01*
X67634500Y13586917D01*
X67637283Y13545866D01*
X67681405Y13368447D01*
X67705878Y13319102D01*
X67762634Y13204664D01*
X67877172Y13062172D01*
X68019664Y12947634D01*
X68183448Y12866405D01*
X68360863Y12822284D01*
X68401917Y12819500D01*
X68474154Y12819501D01*
X68506248Y12815276D01*
X68544930Y12804910D01*
X68614800Y12795712D01*
X68623999Y12794500D01*
X68624000Y12794500D01*
X74348638Y12794500D01*
X74408238Y12800370D01*
X74455691Y12809809D01*
X74513002Y12827194D01*
X74565820Y12855427D01*
X74606048Y12882307D01*
X74652340Y12920298D01*
X75090222Y13358182D01*
X75130450Y13385061D01*
X75177903Y13394500D01*
X76325998Y13394500D01*
X76326000Y13394500D01*
X76379810Y13401585D01*
X76398638Y13399730D01*
X76398638Y13400000D01*
X77201362Y13400000D01*
X77201362Y13399729D01*
X77220189Y13401585D01*
X77274000Y13394500D01*
X77274002Y13394500D01*
X84376000Y13394500D01*
X84438000Y13377887D01*
X84483387Y13332500D01*
X84500000Y13270500D01*
X84500000Y12724000D01*
X84483387Y12662000D01*
X84438000Y12616613D01*
X84376000Y12600000D01*
X82650000Y12600000D01*
X82650000Y10750000D01*
X84376000Y10750000D01*
X84438000Y10733387D01*
X84483387Y10688000D01*
X84500000Y10626000D01*
X84500000Y3051362D01*
X84490561Y3003909D01*
X84463681Y2963681D01*
X82036319Y536319D01*
X81996091Y509439D01*
X81948638Y500000D01*
X3051362Y500000D01*
X3003909Y509439D01*
X2963681Y536319D01*
X536319Y2963681D01*
X509439Y3003909D01*
X500000Y3051362D01*
X500000Y3816917D01*
X58734500Y3816917D01*
X58737283Y3775866D01*
X58781405Y3598449D01*
X58781589Y3598078D01*
X58783085Y3591694D01*
X58784660Y3585361D01*
X58784574Y3585340D01*
X58794500Y3542984D01*
X58794500Y3423999D01*
X58804909Y3344934D01*
X58821524Y3282925D01*
X58852040Y3209253D01*
X58900596Y3145974D01*
X58945973Y3100597D01*
X58945977Y3100594D01*
X58945979Y3100592D01*
X59009250Y3052042D01*
X59009251Y3052042D01*
X59009252Y3052041D01*
X59082924Y3021525D01*
X59082927Y3021525D01*
X59082930Y3021523D01*
X59144930Y3004910D01*
X59204232Y2997103D01*
X59223999Y2994500D01*
X59224000Y2994500D01*
X67748638Y2994500D01*
X67808238Y3000370D01*
X67855691Y3009809D01*
X67913002Y3027194D01*
X67965820Y3055427D01*
X68006048Y3082307D01*
X68052340Y3120298D01*
X70345222Y5413183D01*
X70385450Y5440062D01*
X70432903Y5449501D01*
X74198084Y5449501D01*
X74214504Y5450615D01*
X74239137Y5452284D01*
X74416552Y5496405D01*
X74580336Y5577634D01*
X74580336Y5577635D01*
X74588308Y5581588D01*
X74643403Y5594500D01*
X77976001Y5594500D01*
X77991813Y5596582D01*
X78055070Y5604910D01*
X78117070Y5621523D01*
X78190750Y5652042D01*
X78254021Y5700592D01*
X78299408Y5745979D01*
X78347958Y5809250D01*
X78378477Y5882930D01*
X78395090Y5944930D01*
X78405500Y6024000D01*
X78405500Y7576000D01*
X78395090Y7655070D01*
X78378477Y7717070D01*
X78376426Y7722021D01*
X78347959Y7790748D01*
X78347958Y7790749D01*
X78347958Y7790750D01*
X78299408Y7854021D01*
X78299406Y7854023D01*
X78299403Y7854027D01*
X78254026Y7899404D01*
X78190747Y7947960D01*
X78117075Y7978476D01*
X78055066Y7995091D01*
X77976001Y8005500D01*
X77976000Y8005500D01*
X74719620Y8005500D01*
X74678439Y8012538D01*
X74641933Y8032853D01*
X74580337Y8082365D01*
X74580336Y8082366D01*
X74497782Y8123309D01*
X74416553Y8163595D01*
X74239136Y8207717D01*
X74200866Y8210312D01*
X74198082Y8210500D01*
X68401916Y8210500D01*
X68360865Y8207717D01*
X68183446Y8163595D01*
X68019662Y8082365D01*
X67877172Y7967828D01*
X67762635Y7825338D01*
X67681405Y7661554D01*
X67640691Y7497837D01*
X67608037Y7440082D01*
X66009777Y5841819D01*
X65969549Y5814939D01*
X65922096Y5805500D01*
X65363236Y5805500D01*
X65350063Y5807114D01*
X65350054Y5806976D01*
X65307267Y5809878D01*
X65298082Y5810500D01*
X59501916Y5810500D01*
X59449944Y5806976D01*
X59449934Y5807113D01*
X59436765Y5805500D01*
X59223999Y5805500D01*
X59144933Y5795091D01*
X59082924Y5778476D01*
X59009252Y5747960D01*
X58945973Y5699404D01*
X58900596Y5654027D01*
X58852040Y5590748D01*
X58821524Y5517076D01*
X58804909Y5455067D01*
X58794500Y5376001D01*
X58794500Y5317016D01*
X58784574Y5274661D01*
X58784660Y5274639D01*
X58783085Y5268308D01*
X58781589Y5261922D01*
X58781405Y5261552D01*
X58737283Y5084137D01*
X58734500Y5043083D01*
X58734500Y3816917D01*
X500000Y3816917D01*
X500000Y7552131D01*
X9224500Y7552131D01*
X9230909Y7492516D01*
X9243891Y7457711D01*
X9281204Y7357669D01*
X9367454Y7242454D01*
X9482669Y7156204D01*
X9617517Y7105909D01*
X9677127Y7099500D01*
X10322872Y7099501D01*
X10382483Y7105909D01*
X10517331Y7156204D01*
X10632546Y7242454D01*
X10656767Y7274810D01*
X10700530Y7311384D01*
X10756035Y7324500D01*
X11009094Y7324500D01*
X11066008Y7310667D01*
X11110223Y7272255D01*
X11131876Y7217834D01*
X11126136Y7159546D01*
X11092289Y7062817D01*
X11089500Y7033070D01*
X11089500Y6646930D01*
X11092289Y6617184D01*
X11136148Y6491843D01*
X11215000Y6385001D01*
X11270012Y6344401D01*
X11321843Y6306148D01*
X11447181Y6262290D01*
X11457098Y6261361D01*
X11476930Y6259500D01*
X11476934Y6259500D01*
X11923066Y6259500D01*
X11923070Y6259500D01*
X11940067Y6261095D01*
X11952819Y6262290D01*
X12078157Y6306148D01*
X12124389Y6340270D01*
X12159266Y6358287D01*
X12198025Y6364500D01*
X12975501Y6364500D01*
X13037501Y6347887D01*
X13082888Y6302500D01*
X13099501Y6240500D01*
X13099501Y6155133D01*
X13102414Y6130012D01*
X13102414Y6130010D01*
X13102415Y6130009D01*
X13108973Y6115157D01*
X13147795Y6027233D01*
X13227232Y5947796D01*
X13227233Y5947796D01*
X13227235Y5947794D01*
X13330009Y5902415D01*
X13355135Y5899500D01*
X14344864Y5899501D01*
X14344867Y5899501D01*
X14357427Y5900959D01*
X14369991Y5902415D01*
X14472765Y5947794D01*
X14552206Y6027235D01*
X14597585Y6130009D01*
X14600500Y6155133D01*
X16099500Y6155133D01*
X16102414Y6130012D01*
X16102414Y6130010D01*
X16102415Y6130009D01*
X16108973Y6115157D01*
X16147795Y6027233D01*
X16227232Y5947796D01*
X16227233Y5947796D01*
X16227235Y5947794D01*
X16330009Y5902415D01*
X16355135Y5899500D01*
X17344864Y5899501D01*
X17344867Y5899501D01*
X17357427Y5900959D01*
X17369991Y5902415D01*
X17472765Y5947794D01*
X17552206Y6027235D01*
X17597585Y6130009D01*
X17600500Y6155135D01*
X17600500Y6250500D01*
X17617113Y6312500D01*
X17662500Y6357887D01*
X17724500Y6374500D01*
X18185886Y6374500D01*
X18243560Y6360271D01*
X18287998Y6320850D01*
X18309001Y6265286D01*
X18310124Y6255936D01*
X18365639Y6115158D01*
X18365640Y6115157D01*
X18457077Y5994578D01*
X18518769Y5947796D01*
X18577658Y5903139D01*
X18718436Y5847624D01*
X18718439Y5847623D01*
X18766774Y5841819D01*
X18806901Y5837000D01*
X20593098Y5837001D01*
X20681564Y5847624D01*
X20822342Y5903139D01*
X20942922Y5994578D01*
X21034361Y6115158D01*
X21089876Y6255936D01*
X21090998Y6265285D01*
X21112002Y6320850D01*
X21156440Y6360271D01*
X21214114Y6374500D01*
X21741327Y6374500D01*
X21780086Y6368287D01*
X21814961Y6350270D01*
X21901842Y6286148D01*
X21941447Y6272290D01*
X22027181Y6242290D01*
X22037098Y6241361D01*
X22056930Y6239500D01*
X22056934Y6239500D01*
X22443066Y6239500D01*
X22443070Y6239500D01*
X22460067Y6241095D01*
X22472819Y6242290D01*
X22598157Y6286148D01*
X22656366Y6329109D01*
X22703916Y6350565D01*
X22756084Y6350565D01*
X22803633Y6329109D01*
X22861843Y6286148D01*
X22987181Y6242290D01*
X22997098Y6241361D01*
X23016930Y6239500D01*
X23016934Y6239500D01*
X23403066Y6239500D01*
X23403070Y6239500D01*
X23420067Y6241095D01*
X23432819Y6242290D01*
X23558157Y6286148D01*
X23645039Y6350271D01*
X23679914Y6368287D01*
X23718673Y6374500D01*
X24181975Y6374500D01*
X24220734Y6368287D01*
X24255609Y6350270D01*
X24269159Y6340270D01*
X24301843Y6316148D01*
X24427181Y6272290D01*
X24437098Y6271361D01*
X24456930Y6269500D01*
X24456934Y6269500D01*
X24903066Y6269500D01*
X24903070Y6269500D01*
X24920067Y6271095D01*
X24932819Y6272290D01*
X25058157Y6316148D01*
X25104389Y6350270D01*
X25139266Y6368287D01*
X25178025Y6374500D01*
X25339258Y6374500D01*
X25394418Y6361556D01*
X25438062Y6325425D01*
X25515632Y6223133D01*
X25546949Y6199385D01*
X25629368Y6136885D01*
X25695760Y6110704D01*
X25762153Y6084521D01*
X25845595Y6074500D01*
X25845598Y6074500D01*
X26364402Y6074500D01*
X26364405Y6074500D01*
X26447846Y6084521D01*
X26447845Y6084521D01*
X26580632Y6136885D01*
X26694367Y6223133D01*
X26780615Y6336868D01*
X26780615Y6336869D01*
X26790913Y6350448D01*
X26792234Y6349446D01*
X26811005Y6376040D01*
X26863140Y6403055D01*
X26921860Y6403055D01*
X26973995Y6376040D01*
X26992765Y6349446D01*
X26994087Y6350448D01*
X27090632Y6223133D01*
X27121949Y6199385D01*
X27204368Y6136885D01*
X27270760Y6110704D01*
X27337153Y6084521D01*
X27420595Y6074500D01*
X27420598Y6074500D01*
X27939402Y6074500D01*
X27939405Y6074500D01*
X28022846Y6084521D01*
X28022845Y6084521D01*
X28155632Y6136885D01*
X28269367Y6223133D01*
X28269366Y6223133D01*
X28346938Y6325425D01*
X28390582Y6361556D01*
X28445742Y6374500D01*
X28731975Y6374500D01*
X28770734Y6368287D01*
X28805609Y6350270D01*
X28819159Y6340270D01*
X28851843Y6316148D01*
X28977181Y6272290D01*
X28987098Y6271361D01*
X29006930Y6269500D01*
X29006934Y6269500D01*
X29453066Y6269500D01*
X29453070Y6269500D01*
X29470067Y6271095D01*
X29482819Y6272290D01*
X29608157Y6316148D01*
X29654389Y6350270D01*
X29689266Y6368287D01*
X29728025Y6374500D01*
X30224153Y6374500D01*
X30279313Y6361556D01*
X30322957Y6325425D01*
X30353132Y6285633D01*
X30392293Y6255937D01*
X30466868Y6199385D01*
X30533260Y6173204D01*
X30599653Y6147021D01*
X30683095Y6137000D01*
X30683098Y6137000D01*
X31276902Y6137000D01*
X31276905Y6137000D01*
X31360346Y6147021D01*
X31360346Y6147022D01*
X31493132Y6199385D01*
X31606867Y6285633D01*
X31693115Y6399368D01*
X31745479Y6532154D01*
X31755500Y6615598D01*
X31755500Y7134402D01*
X31752480Y7159546D01*
X31745479Y7217847D01*
X31706969Y7315500D01*
X31693115Y7350632D01*
X31629352Y7434716D01*
X31606867Y7464368D01*
X31479552Y7560913D01*
X31480554Y7562235D01*
X31453960Y7581005D01*
X31426945Y7633140D01*
X31426945Y7691860D01*
X31453960Y7743995D01*
X31480554Y7762766D01*
X31479552Y7764087D01*
X31606867Y7860633D01*
X31608662Y7863000D01*
X31693115Y7974368D01*
X31745479Y8107154D01*
X31752257Y8163595D01*
X31755500Y8190595D01*
X31755500Y8709405D01*
X31745479Y8792847D01*
X31693115Y8925631D01*
X31693115Y8925632D01*
X31649990Y8982500D01*
X31606867Y9039368D01*
X31504575Y9116938D01*
X31468444Y9160582D01*
X31455500Y9215742D01*
X31455500Y9551975D01*
X31461713Y9590734D01*
X31479730Y9625609D01*
X31487817Y9636567D01*
X31513852Y9671843D01*
X31557710Y9797181D01*
X31560500Y9826934D01*
X31560500Y10273066D01*
X31557710Y10302819D01*
X31513852Y10428157D01*
X31479730Y10474391D01*
X31461713Y10509266D01*
X31455500Y10548025D01*
X31455500Y10862820D01*
X31468616Y10918324D01*
X31505187Y10962086D01*
X31612546Y11042454D01*
X31698796Y11157669D01*
X31749091Y11292517D01*
X31755500Y11352127D01*
X31755499Y11847872D01*
X31749091Y11907483D01*
X31698796Y12042331D01*
X31612546Y12157546D01*
X31497331Y12243796D01*
X31362483Y12294091D01*
X31302873Y12300500D01*
X31302869Y12300500D01*
X30657130Y12300500D01*
X30597515Y12294091D01*
X30462669Y12243796D01*
X30347454Y12157546D01*
X30261204Y12042332D01*
X30210909Y11907484D01*
X30204500Y11847870D01*
X30204500Y11352131D01*
X30210909Y11292516D01*
X30226953Y11249501D01*
X30261204Y11157669D01*
X30347454Y11042454D01*
X30454812Y10962086D01*
X30491384Y10918324D01*
X30504500Y10862820D01*
X30504500Y10548025D01*
X30498287Y10509266D01*
X30480270Y10474391D01*
X30446148Y10428158D01*
X30402289Y10302817D01*
X30399500Y10273070D01*
X30399500Y9826930D01*
X30402289Y9797184D01*
X30446148Y9671843D01*
X30480270Y9625609D01*
X30498287Y9590734D01*
X30504500Y9551975D01*
X30504500Y9215742D01*
X30491556Y9160582D01*
X30455425Y9116938D01*
X30353132Y9039368D01*
X30266884Y8925631D01*
X30214520Y8792847D01*
X30204500Y8709405D01*
X30204500Y8190595D01*
X30214520Y8107154D01*
X30265265Y7978476D01*
X30266885Y7974368D01*
X30296264Y7935626D01*
X30353132Y7860633D01*
X30480448Y7764087D01*
X30479446Y7762766D01*
X30506041Y7743993D01*
X30533054Y7691859D01*
X30533054Y7633141D01*
X30506041Y7581007D01*
X30479446Y7562235D01*
X30480448Y7560913D01*
X30353132Y7464368D01*
X30285041Y7374575D01*
X30241397Y7338444D01*
X30186237Y7325500D01*
X29728025Y7325500D01*
X29689266Y7331713D01*
X29654391Y7349730D01*
X29608157Y7383852D01*
X29597732Y7387500D01*
X29482819Y7427710D01*
X29482818Y7427711D01*
X29482816Y7427711D01*
X29453070Y7430500D01*
X29453066Y7430500D01*
X29006934Y7430500D01*
X29006930Y7430500D01*
X28977183Y7427711D01*
X28851842Y7383852D01*
X28805609Y7349730D01*
X28770734Y7331713D01*
X28731975Y7325500D01*
X28445742Y7325500D01*
X28390582Y7338444D01*
X28346938Y7374575D01*
X28269367Y7476868D01*
X28194374Y7533736D01*
X28155632Y7563115D01*
X28155630Y7563116D01*
X28022846Y7615480D01*
X27939405Y7625500D01*
X27939402Y7625500D01*
X27420598Y7625500D01*
X27420595Y7625500D01*
X27337153Y7615480D01*
X27204369Y7563116D01*
X27090632Y7476868D01*
X26994087Y7349552D01*
X26992765Y7350554D01*
X26973993Y7323959D01*
X26921859Y7296946D01*
X26863141Y7296946D01*
X26811007Y7323959D01*
X26792234Y7350554D01*
X26790913Y7349552D01*
X26694367Y7476868D01*
X26619374Y7533736D01*
X26580632Y7563115D01*
X26580630Y7563116D01*
X26447846Y7615480D01*
X26364405Y7625500D01*
X26364402Y7625500D01*
X25845598Y7625500D01*
X25845595Y7625500D01*
X25762153Y7615480D01*
X25629369Y7563116D01*
X25515632Y7476868D01*
X25438062Y7374575D01*
X25394418Y7338444D01*
X25339258Y7325500D01*
X25178025Y7325500D01*
X25139266Y7331713D01*
X25104391Y7349730D01*
X25058157Y7383852D01*
X25047732Y7387500D01*
X24932819Y7427710D01*
X24932818Y7427711D01*
X24932816Y7427711D01*
X24903070Y7430500D01*
X24903066Y7430500D01*
X24456934Y7430500D01*
X24456930Y7430500D01*
X24427183Y7427711D01*
X24301842Y7383852D01*
X24255609Y7349730D01*
X24220734Y7331713D01*
X24181975Y7325500D01*
X23718673Y7325500D01*
X23679914Y7331713D01*
X23645039Y7349730D01*
X23558157Y7413853D01*
X23432816Y7457711D01*
X23403070Y7460500D01*
X23403066Y7460500D01*
X23016934Y7460500D01*
X23016930Y7460500D01*
X22987183Y7457711D01*
X22861842Y7413853D01*
X22803633Y7370892D01*
X22756083Y7349437D01*
X22703917Y7349437D01*
X22656367Y7370892D01*
X22598157Y7413853D01*
X22472816Y7457711D01*
X22443070Y7460500D01*
X22443066Y7460500D01*
X22056934Y7460500D01*
X22056930Y7460500D01*
X22027183Y7457711D01*
X21901842Y7413853D01*
X21814961Y7349730D01*
X21780086Y7331713D01*
X21741327Y7325500D01*
X21214114Y7325500D01*
X21156440Y7339729D01*
X21112002Y7379150D01*
X21090998Y7434715D01*
X21089876Y7444064D01*
X21034361Y7584842D01*
X20976190Y7661552D01*
X20942922Y7705423D01*
X20830403Y7790748D01*
X20822342Y7796861D01*
X20739421Y7829561D01*
X20681560Y7852378D01*
X20593102Y7863000D01*
X18806906Y7863000D01*
X18732135Y7854021D01*
X18718436Y7852376D01*
X18577658Y7796861D01*
X18577657Y7796861D01*
X18577656Y7796860D01*
X18457077Y7705423D01*
X18365640Y7584844D01*
X18365639Y7584843D01*
X18365639Y7584842D01*
X18349875Y7544867D01*
X18312268Y7449500D01*
X18310124Y7444064D01*
X18309001Y7434716D01*
X18287998Y7379150D01*
X18243560Y7339729D01*
X18185886Y7325500D01*
X17724499Y7325500D01*
X17662499Y7342113D01*
X17617112Y7387500D01*
X17600499Y7449500D01*
X17600499Y7544867D01*
X17597585Y7569989D01*
X17597585Y7569991D01*
X17552206Y7672765D01*
X17552204Y7672767D01*
X17552204Y7672768D01*
X17472767Y7752205D01*
X17472765Y7752206D01*
X17369991Y7797585D01*
X17344865Y7800500D01*
X17344863Y7800500D01*
X16355132Y7800500D01*
X16330011Y7797586D01*
X16227232Y7752205D01*
X16147795Y7672768D01*
X16102415Y7569991D01*
X16099500Y7544864D01*
X16099500Y6155133D01*
X14600500Y6155133D01*
X14600500Y6155135D01*
X14600499Y7544864D01*
X14599656Y7552131D01*
X14597585Y7569989D01*
X14597585Y7569991D01*
X14552206Y7672765D01*
X14552204Y7672767D01*
X14552204Y7672768D01*
X14472767Y7752205D01*
X14472765Y7752206D01*
X14369991Y7797585D01*
X14344865Y7800500D01*
X14344863Y7800500D01*
X13355132Y7800500D01*
X13330011Y7797586D01*
X13227232Y7752205D01*
X13147795Y7672768D01*
X13102415Y7569991D01*
X13099500Y7544864D01*
X13099500Y7439500D01*
X13082887Y7377500D01*
X13037500Y7332113D01*
X12975500Y7315500D01*
X12390906Y7315500D01*
X12333992Y7329333D01*
X12289777Y7367745D01*
X12268124Y7422166D01*
X12273864Y7480454D01*
X12284801Y7511713D01*
X12307710Y7577181D01*
X12310500Y7606934D01*
X12310500Y7993066D01*
X12310310Y7995090D01*
X12307710Y8022817D01*
X12307710Y8022819D01*
X12263852Y8148157D01*
X12232529Y8190598D01*
X12184999Y8255000D01*
X12078157Y8333852D01*
X11952816Y8377711D01*
X11923070Y8380500D01*
X11923066Y8380500D01*
X11476934Y8380500D01*
X11476930Y8380500D01*
X11447183Y8377711D01*
X11321842Y8333852D01*
X11275609Y8299730D01*
X11240734Y8281713D01*
X11201975Y8275500D01*
X10756035Y8275500D01*
X10700530Y8288616D01*
X10656768Y8325190D01*
X10632547Y8357545D01*
X10517331Y8443796D01*
X10382483Y8494091D01*
X10322873Y8500500D01*
X10322869Y8500500D01*
X9677130Y8500500D01*
X9617515Y8494091D01*
X9482669Y8443796D01*
X9367454Y8357546D01*
X9281204Y8242332D01*
X9230909Y8107484D01*
X9224500Y8047870D01*
X9224500Y7552131D01*
X500000Y7552131D01*
X500000Y9202131D01*
X9224500Y9202131D01*
X9228967Y9160582D01*
X9230909Y9142517D01*
X9281204Y9007669D01*
X9367454Y8892454D01*
X9482669Y8806204D01*
X9617517Y8755909D01*
X9677127Y8749500D01*
X10322872Y8749501D01*
X10382483Y8755909D01*
X10517331Y8806204D01*
X10632546Y8892454D01*
X10718796Y9007669D01*
X10769091Y9142517D01*
X10775500Y9202127D01*
X10775499Y9697872D01*
X10769091Y9757483D01*
X10718796Y9892331D01*
X10632546Y10007546D01*
X10525187Y10087915D01*
X10488616Y10131676D01*
X10475500Y10187180D01*
X10475500Y10393965D01*
X10488616Y10449470D01*
X10525190Y10493232D01*
X10535028Y10500597D01*
X10557546Y10517454D01*
X10643796Y10632669D01*
X10694091Y10767517D01*
X10700500Y10827127D01*
X10700499Y11472872D01*
X10694091Y11532483D01*
X10643796Y11667331D01*
X10557546Y11782546D01*
X10557544Y11782547D01*
X10557544Y11782548D01*
X10525190Y11806768D01*
X10488616Y11850530D01*
X10475500Y11906035D01*
X10475500Y12112820D01*
X10488616Y12168324D01*
X10525187Y12212086D01*
X10632546Y12292454D01*
X10718796Y12407669D01*
X10769091Y12542517D01*
X10775500Y12602127D01*
X10775499Y13097872D01*
X10769091Y13157483D01*
X10718796Y13292331D01*
X10632546Y13407546D01*
X10517331Y13493796D01*
X10382483Y13544091D01*
X10322873Y13550500D01*
X10322869Y13550500D01*
X9677130Y13550500D01*
X9617515Y13544091D01*
X9482669Y13493796D01*
X9367454Y13407546D01*
X9281204Y13292332D01*
X9230909Y13157484D01*
X9224500Y13097870D01*
X9224500Y12602131D01*
X9229469Y12555910D01*
X9230909Y12542517D01*
X9281204Y12407669D01*
X9367454Y12292454D01*
X9474812Y12212086D01*
X9511384Y12168324D01*
X9524500Y12112820D01*
X9524500Y11906035D01*
X9511384Y11850530D01*
X9474810Y11806768D01*
X9442455Y11782548D01*
X9356204Y11667332D01*
X9305909Y11532485D01*
X9305909Y11532483D01*
X9300582Y11482930D01*
X9299500Y11472870D01*
X9299500Y10827131D01*
X9305909Y10767516D01*
X9321540Y10725609D01*
X9356204Y10632669D01*
X9421104Y10545974D01*
X9442455Y10517453D01*
X9474810Y10493232D01*
X9511384Y10449470D01*
X9524500Y10393965D01*
X9524500Y10187180D01*
X9511384Y10131676D01*
X9474812Y10087915D01*
X9439134Y10061206D01*
X9367454Y10007547D01*
X9281204Y9892332D01*
X9230909Y9757484D01*
X9224500Y9697870D01*
X9224500Y9202131D01*
X500000Y9202131D01*
X500000Y10626000D01*
X516613Y10688000D01*
X562000Y10733387D01*
X624000Y10750000D01*
X2400000Y10750000D01*
X2400000Y11525000D01*
X2700000Y11525000D01*
X2700000Y10750000D01*
X5024625Y10750000D01*
X5097543Y10764505D01*
X5180239Y10819761D01*
X5235495Y10902457D01*
X5250000Y10975375D01*
X5250000Y11525000D01*
X2700000Y11525000D01*
X2400000Y11525000D01*
X2400000Y12600000D01*
X2700000Y12600000D01*
X2700000Y11825000D01*
X5250000Y11825000D01*
X5250000Y12374625D01*
X5235495Y12447544D01*
X5180239Y12530240D01*
X5097543Y12585496D01*
X5024625Y12600000D01*
X2700000Y12600000D01*
X2400000Y12600000D01*
X624000Y12600000D01*
X562000Y12616613D01*
X516613Y12662000D01*
X500000Y12724000D01*
X500000Y13440500D01*
X516613Y13502500D01*
X562000Y13547887D01*
X624000Y13564500D01*
X5444867Y13564501D01*
X5457427Y13565958D01*
X5469991Y13567415D01*
X5572765Y13612794D01*
X5652206Y13692235D01*
X5697585Y13795009D01*
X5700500Y13820135D01*
X5700500Y13900500D01*
X5717113Y13962500D01*
X5762500Y14007887D01*
X5824500Y14024500D01*
X6641327Y14024500D01*
X6680086Y14018287D01*
X6714961Y14000270D01*
X6801842Y13936148D01*
X6843622Y13921529D01*
X6927181Y13892290D01*
X6937098Y13891360D01*
X6956930Y13889500D01*
X6956934Y13889500D01*
X7343066Y13889500D01*
X7343070Y13889500D01*
X7360067Y13891095D01*
X7372819Y13892290D01*
X7498157Y13936148D01*
X7556368Y13979110D01*
X7603914Y14000564D01*
X7656082Y14000565D01*
X7703633Y13979109D01*
X7761842Y13936148D01*
X7803622Y13921529D01*
X7887181Y13892290D01*
X7897098Y13891360D01*
X7916930Y13889500D01*
X7916934Y13889500D01*
X8303066Y13889500D01*
X8303070Y13889500D01*
X8320067Y13891095D01*
X8332819Y13892290D01*
X8458157Y13936148D01*
X8545039Y14000271D01*
X8579914Y14018287D01*
X8618673Y14024500D01*
X9243965Y14024500D01*
X9299470Y14011384D01*
X9343232Y13974810D01*
X9367452Y13942456D01*
X9367453Y13942456D01*
X9367454Y13942454D01*
X9482669Y13856204D01*
X9617517Y13805909D01*
X9677127Y13799500D01*
X10322872Y13799501D01*
X10382483Y13805909D01*
X10517331Y13856204D01*
X10632546Y13942454D01*
X10718796Y14057669D01*
X10769091Y14192517D01*
X10775500Y14252127D01*
X10775499Y14747872D01*
X10769091Y14807483D01*
X10718796Y14942331D01*
X10632546Y15057546D01*
X10517331Y15143796D01*
X10382483Y15194091D01*
X10322873Y15200500D01*
X10322869Y15200500D01*
X9677130Y15200500D01*
X9617515Y15194091D01*
X9482669Y15143796D01*
X9367452Y15057545D01*
X9343232Y15025190D01*
X9299470Y14988616D01*
X9243965Y14975500D01*
X8618673Y14975500D01*
X8579914Y14981713D01*
X8545039Y14999730D01*
X8538310Y15004696D01*
X8516366Y15020892D01*
X8458157Y15063853D01*
X8332816Y15107711D01*
X8303070Y15110500D01*
X8303066Y15110500D01*
X7916934Y15110500D01*
X7916930Y15110500D01*
X7887183Y15107711D01*
X7761842Y15063853D01*
X7703633Y15020892D01*
X7656083Y14999437D01*
X7603917Y14999437D01*
X7556367Y15020892D01*
X7498157Y15063853D01*
X7372816Y15107711D01*
X7343070Y15110500D01*
X7343066Y15110500D01*
X6956934Y15110500D01*
X6956930Y15110500D01*
X6927183Y15107711D01*
X6801842Y15063853D01*
X6714961Y14999730D01*
X6680086Y14981713D01*
X6641327Y14975500D01*
X5824499Y14975500D01*
X5762499Y14992113D01*
X5717112Y15037500D01*
X5700499Y15099500D01*
X5700499Y15179867D01*
X5697585Y15204989D01*
X5697585Y15204991D01*
X5652206Y15307765D01*
X5652204Y15307767D01*
X5652204Y15307768D01*
X5572767Y15387205D01*
X5572765Y15387206D01*
X5469991Y15432585D01*
X5444865Y15435500D01*
X5444863Y15435500D01*
X5444842Y15435500D01*
X623999Y15435500D01*
X562000Y15452112D01*
X516613Y15497499D01*
X500000Y15559499D01*
X500000Y16276000D01*
X516613Y16338000D01*
X562000Y16383387D01*
X624000Y16400000D01*
X2400000Y16400000D01*
X2400000Y17175000D01*
X2700000Y17175000D01*
X2700000Y16400000D01*
X5024625Y16400000D01*
X5097543Y16414505D01*
X5180239Y16469761D01*
X5235495Y16552457D01*
X5250000Y16625375D01*
X5250000Y16952131D01*
X15474500Y16952131D01*
X15480909Y16892517D01*
X15531204Y16757669D01*
X15617454Y16642454D01*
X15732669Y16556204D01*
X15867517Y16505909D01*
X15927127Y16499500D01*
X16572872Y16499501D01*
X16632483Y16505909D01*
X16767331Y16556204D01*
X16882546Y16642454D01*
X16906767Y16674810D01*
X16950530Y16711384D01*
X17006035Y16724500D01*
X18320500Y16724500D01*
X18382500Y16707887D01*
X18427887Y16662500D01*
X18444500Y16600500D01*
X18444500Y16051362D01*
X18450370Y15991758D01*
X18459806Y15944319D01*
X18459808Y15944310D01*
X18459809Y15944309D01*
X18477194Y15886998D01*
X18505427Y15834180D01*
X18532307Y15793952D01*
X18532308Y15793951D01*
X18570300Y15747657D01*
X18797656Y15520301D01*
X18797660Y15520298D01*
X18843952Y15482307D01*
X18884180Y15455427D01*
X18936998Y15427194D01*
X18994309Y15409809D01*
X19005599Y15407564D01*
X19012868Y15406117D01*
X19069529Y15378515D01*
X19105302Y15326623D01*
X19110944Y15263849D01*
X19084998Y15206410D01*
X19034167Y15169146D01*
X18977658Y15146862D01*
X18857077Y15055423D01*
X18765638Y14934841D01*
X18710123Y14794068D01*
X18699500Y14705599D01*
X18699500Y14094401D01*
X18710123Y14005933D01*
X18765638Y13865160D01*
X18765639Y13865158D01*
X18775586Y13852041D01*
X18857077Y13744578D01*
X18884214Y13724000D01*
X18977658Y13653139D01*
X19024223Y13634776D01*
X19070990Y13616333D01*
X19112178Y13589652D01*
X19139789Y13549083D01*
X19149500Y13500979D01*
X19149500Y13374263D01*
X19136555Y13319102D01*
X19100423Y13275458D01*
X19099924Y13275080D01*
X19099923Y13275079D01*
X19099922Y13275078D01*
X19026090Y13177716D01*
X19012634Y13159972D01*
X18959640Y13025591D01*
X18949500Y12941148D01*
X18949500Y12358852D01*
X18959640Y12274410D01*
X19012634Y12140027D01*
X19012636Y12140025D01*
X19099922Y12024922D01*
X19163604Y11976630D01*
X19175426Y11967665D01*
X19211556Y11924021D01*
X19224500Y11868861D01*
X19224500Y11648025D01*
X19218287Y11609266D01*
X19200270Y11574391D01*
X19166148Y11528158D01*
X19122289Y11402817D01*
X19119500Y11373070D01*
X19119500Y10926930D01*
X19122289Y10897184D01*
X19166148Y10771843D01*
X19200270Y10725609D01*
X19218287Y10690734D01*
X19224500Y10651975D01*
X19224500Y10311999D01*
X19207887Y10249999D01*
X19162500Y10204612D01*
X19100500Y10187999D01*
X18806902Y10187999D01*
X18718436Y10177376D01*
X18577658Y10121861D01*
X18577657Y10121861D01*
X18577656Y10121860D01*
X18457077Y10030423D01*
X18365640Y9909844D01*
X18310122Y9769061D01*
X18299500Y9680603D01*
X18299500Y8669407D01*
X18299501Y8669402D01*
X18310124Y8580936D01*
X18365639Y8440158D01*
X18365640Y8440157D01*
X18457077Y8319578D01*
X18483251Y8299730D01*
X18577658Y8228139D01*
X18718436Y8172624D01*
X18718439Y8172623D01*
X18767249Y8166762D01*
X18806901Y8162000D01*
X20593098Y8162001D01*
X20681564Y8172624D01*
X20822342Y8228139D01*
X20942922Y8319578D01*
X21034361Y8440158D01*
X21089876Y8580936D01*
X21089876Y8580939D01*
X21089877Y8580940D01*
X21094637Y8620588D01*
X21100500Y8669401D01*
X21100499Y9680598D01*
X21089876Y9769064D01*
X21034361Y9909842D01*
X20998765Y9956782D01*
X20942922Y10030423D01*
X20822343Y10121860D01*
X20822342Y10121861D01*
X20739421Y10154561D01*
X20681560Y10177378D01*
X20593102Y10188000D01*
X20593099Y10188000D01*
X20299500Y10188000D01*
X20237500Y10204613D01*
X20192113Y10250000D01*
X20175500Y10312000D01*
X20175500Y10651975D01*
X20181713Y10690734D01*
X20199730Y10725609D01*
X20228436Y10764505D01*
X20233852Y10771843D01*
X20277710Y10897181D01*
X20280500Y10926934D01*
X20280500Y11373066D01*
X20279633Y11382307D01*
X20277710Y11402817D01*
X20277710Y11402819D01*
X20233852Y11528157D01*
X20199730Y11574391D01*
X20181713Y11609266D01*
X20175500Y11648025D01*
X20175500Y11868861D01*
X20188444Y11924021D01*
X20224574Y11967665D01*
X20229662Y11971524D01*
X20300078Y12024922D01*
X20387364Y12140025D01*
X20394274Y12157546D01*
X20440359Y12274410D01*
X20450500Y12358852D01*
X20450500Y12941148D01*
X20443176Y13002131D01*
X30204500Y13002131D01*
X30210909Y12942516D01*
X30211421Y12941144D01*
X30261204Y12807669D01*
X30347454Y12692454D01*
X30462669Y12606204D01*
X30597517Y12555909D01*
X30657127Y12549500D01*
X31302872Y12549501D01*
X31362483Y12555909D01*
X31497331Y12606204D01*
X31612546Y12692454D01*
X31698796Y12807669D01*
X31749091Y12942517D01*
X31755500Y13002127D01*
X31755499Y13497872D01*
X31749091Y13557483D01*
X31698796Y13692331D01*
X31620193Y13797331D01*
X31597178Y13851077D01*
X31601349Y13909398D01*
X31631780Y13959322D01*
X31660641Y13988183D01*
X31700870Y14015061D01*
X31748322Y14024500D01*
X32951887Y14024500D01*
X32999340Y14015061D01*
X33039568Y13988181D01*
X33057607Y13970142D01*
X33057609Y13970141D01*
X33167825Y13913983D01*
X33259265Y13899500D01*
X34140734Y13899501D01*
X34140737Y13899501D01*
X34209314Y13910363D01*
X34232175Y13913983D01*
X34342391Y13970141D01*
X34429859Y14057609D01*
X34486017Y14167825D01*
X34500500Y14259265D01*
X34500499Y14740734D01*
X34500499Y14740738D01*
X34486017Y14832175D01*
X34429859Y14942392D01*
X34342392Y15029859D01*
X34232173Y15086018D01*
X34140737Y15100500D01*
X33259262Y15100500D01*
X33167825Y15086018D01*
X33057608Y15029860D01*
X33039568Y15011819D01*
X32999340Y14984939D01*
X32951887Y14975500D01*
X31564459Y14975500D01*
X31538100Y14978334D01*
X31534271Y14979167D01*
X31487425Y14975816D01*
X31478578Y14975500D01*
X31465988Y14975500D01*
X31453509Y14973707D01*
X31444725Y14972763D01*
X31397883Y14969411D01*
X31394212Y14968042D01*
X31368535Y14961489D01*
X31364657Y14960932D01*
X31321944Y14941426D01*
X31313770Y14938040D01*
X31269773Y14921630D01*
X31266630Y14919277D01*
X31243857Y14905765D01*
X31240284Y14904133D01*
X31204800Y14873387D01*
X31197921Y14867842D01*
X31187818Y14860278D01*
X31178898Y14851359D01*
X31172429Y14845337D01*
X31136944Y14814589D01*
X31134825Y14811291D01*
X31118194Y14790655D01*
X30689345Y14361806D01*
X30668709Y14345175D01*
X30665411Y14343056D01*
X30634663Y14307571D01*
X30628641Y14301102D01*
X30619722Y14292182D01*
X30612158Y14282079D01*
X30606613Y14275200D01*
X30575867Y14239716D01*
X30574235Y14236143D01*
X30560723Y14213370D01*
X30558370Y14210227D01*
X30541960Y14166230D01*
X30538574Y14158056D01*
X30519068Y14115343D01*
X30518511Y14111465D01*
X30511958Y14085788D01*
X30510589Y14082117D01*
X30507237Y14035275D01*
X30506293Y14026491D01*
X30504500Y14014012D01*
X30504500Y14001422D01*
X30504184Y13992569D01*
X30503107Y13977522D01*
X30488254Y13926946D01*
X30453734Y13887109D01*
X30347456Y13807549D01*
X30261204Y13692332D01*
X30210909Y13557485D01*
X30210909Y13557483D01*
X30204793Y13500592D01*
X30204500Y13497870D01*
X30204500Y13002131D01*
X20443176Y13002131D01*
X20440359Y13025591D01*
X20387365Y13159972D01*
X20387364Y13159975D01*
X20300078Y13275078D01*
X20299577Y13275458D01*
X20263445Y13319102D01*
X20250500Y13374263D01*
X20250500Y13500979D01*
X20260211Y13549083D01*
X20287822Y13589652D01*
X20329010Y13616333D01*
X20360209Y13628637D01*
X20422342Y13653139D01*
X20542922Y13744578D01*
X20634361Y13865158D01*
X20689777Y14005682D01*
X20689876Y14005933D01*
X20689876Y14005934D01*
X20689877Y14005936D01*
X20700500Y14094398D01*
X20700500Y14705602D01*
X20689877Y14794064D01*
X20689876Y14794066D01*
X20689876Y14794068D01*
X20655478Y14881293D01*
X20634361Y14934842D01*
X20580779Y15005500D01*
X20542922Y15055423D01*
X20463416Y15115713D01*
X20422342Y15146861D01*
X20422340Y15146862D01*
X20365833Y15169146D01*
X20315001Y15206410D01*
X20289055Y15263849D01*
X20294697Y15326624D01*
X20330470Y15378515D01*
X20387132Y15406117D01*
X20405681Y15409807D01*
X20405681Y15409808D01*
X20405691Y15409809D01*
X20463002Y15427194D01*
X20515820Y15455427D01*
X20556048Y15482307D01*
X20602340Y15520298D01*
X20879702Y15797660D01*
X20917693Y15843952D01*
X20944573Y15884180D01*
X20972806Y15936998D01*
X20990191Y15994309D01*
X20999630Y16041762D01*
X21005500Y16101362D01*
X21005500Y18426000D01*
X20995090Y18505070D01*
X20978477Y18567070D01*
X20974311Y18577127D01*
X20947959Y18640748D01*
X20947958Y18640749D01*
X20947958Y18640750D01*
X20899408Y18704021D01*
X20899406Y18704023D01*
X20899403Y18704027D01*
X20854026Y18749404D01*
X20790747Y18797960D01*
X20717075Y18828476D01*
X20655066Y18845091D01*
X20576001Y18855500D01*
X20576000Y18855500D01*
X18874000Y18855500D01*
X18873999Y18855500D01*
X18794933Y18845091D01*
X18732924Y18828476D01*
X18659252Y18797960D01*
X18595973Y18749404D01*
X18550596Y18704027D01*
X18502040Y18640748D01*
X18471524Y18567076D01*
X18454909Y18505067D01*
X18444500Y18426001D01*
X18444500Y17799500D01*
X18427887Y17737500D01*
X18382500Y17692113D01*
X18320500Y17675500D01*
X17006035Y17675500D01*
X16950530Y17688616D01*
X16906768Y17725190D01*
X16882547Y17757545D01*
X16871494Y17765819D01*
X16767331Y17843796D01*
X16632483Y17894091D01*
X16572873Y17900500D01*
X16572869Y17900500D01*
X15927130Y17900500D01*
X15867515Y17894091D01*
X15732669Y17843796D01*
X15617454Y17757546D01*
X15531204Y17642332D01*
X15480909Y17507484D01*
X15474500Y17447870D01*
X15474500Y16952131D01*
X5250000Y16952131D01*
X5250000Y17175000D01*
X2700000Y17175000D01*
X2400000Y17175000D01*
X2400000Y18250000D01*
X2700000Y18250000D01*
X2700000Y17475000D01*
X5250000Y17475000D01*
X5250000Y18024625D01*
X5235495Y18097544D01*
X5180239Y18180240D01*
X5097543Y18235496D01*
X5024625Y18250000D01*
X2700000Y18250000D01*
X2400000Y18250000D01*
X624000Y18250000D01*
X562000Y18266613D01*
X516613Y18312000D01*
X500000Y18374000D01*
X500000Y20950000D01*
X15444434Y20950000D01*
X15464631Y20770749D01*
X15464631Y20770747D01*
X15464632Y20770745D01*
X15524211Y20600478D01*
X15620184Y20447738D01*
X15738183Y20329739D01*
X15765061Y20289513D01*
X15774500Y20242060D01*
X15774500Y19587180D01*
X15761384Y19531676D01*
X15724812Y19487915D01*
X15689134Y19461206D01*
X15617454Y19407547D01*
X15531204Y19292332D01*
X15480909Y19157484D01*
X15474500Y19097870D01*
X15474500Y18602131D01*
X15480909Y18542517D01*
X15531204Y18407669D01*
X15617454Y18292454D01*
X15732669Y18206204D01*
X15867517Y18155909D01*
X15927127Y18149500D01*
X16572872Y18149501D01*
X16632483Y18155909D01*
X16767331Y18206204D01*
X16882546Y18292454D01*
X16968796Y18407669D01*
X17019091Y18542517D01*
X17025500Y18602127D01*
X17025499Y19097872D01*
X17019091Y19157483D01*
X16968796Y19292331D01*
X16882546Y19407546D01*
X16775187Y19487915D01*
X16738616Y19531676D01*
X16725500Y19587180D01*
X16725500Y20242060D01*
X16734939Y20289513D01*
X16761819Y20329741D01*
X16870259Y20438181D01*
X16910487Y20465061D01*
X16957940Y20474500D01*
X17701975Y20474500D01*
X17740734Y20468287D01*
X17775609Y20450270D01*
X17779040Y20447738D01*
X17821843Y20416148D01*
X17947181Y20372290D01*
X17957098Y20371361D01*
X17976930Y20369500D01*
X17976934Y20369500D01*
X18423066Y20369500D01*
X18423070Y20369500D01*
X18440067Y20371095D01*
X18452819Y20372290D01*
X18578157Y20416148D01*
X18624389Y20450270D01*
X18659266Y20468287D01*
X18698025Y20474500D01*
X19125501Y20474500D01*
X19187501Y20457887D01*
X19232888Y20412500D01*
X19249501Y20350500D01*
X19249501Y20255133D01*
X19252414Y20230012D01*
X19297795Y20127233D01*
X19377232Y20047796D01*
X19377233Y20047796D01*
X19377235Y20047794D01*
X19480009Y20002415D01*
X19505135Y19999500D01*
X20894864Y19999501D01*
X20894867Y19999501D01*
X20907427Y20000958D01*
X20919991Y20002415D01*
X21022765Y20047794D01*
X21102206Y20127235D01*
X21147585Y20230009D01*
X21150500Y20255135D01*
X21150499Y21055133D01*
X24749500Y21055133D01*
X24752414Y21030012D01*
X24752414Y21030010D01*
X24752415Y21030009D01*
X24778641Y20970613D01*
X24797795Y20927233D01*
X24877232Y20847796D01*
X24877233Y20847796D01*
X24877235Y20847794D01*
X24980009Y20802415D01*
X25005135Y20799500D01*
X26394864Y20799501D01*
X26394867Y20799501D01*
X26407427Y20800959D01*
X26419991Y20802415D01*
X26522765Y20847794D01*
X26602206Y20927235D01*
X26647585Y21030009D01*
X26650500Y21055135D01*
X26650500Y21425500D01*
X26667113Y21487500D01*
X26712500Y21532887D01*
X26774500Y21549500D01*
X27917060Y21549500D01*
X27964513Y21540061D01*
X28004742Y21513180D01*
X28047736Y21470185D01*
X28047738Y21470184D01*
X28200478Y21374211D01*
X28370745Y21314632D01*
X28550000Y21294435D01*
X28729255Y21314632D01*
X28899522Y21374211D01*
X29052262Y21470184D01*
X29095258Y21513180D01*
X29135487Y21540061D01*
X29182940Y21549500D01*
X29898352Y21549500D01*
X29939307Y21542541D01*
X29997181Y21522290D01*
X30026930Y21519500D01*
X30026934Y21519500D01*
X30473066Y21519500D01*
X30473070Y21519500D01*
X30496868Y21521733D01*
X30502819Y21522290D01*
X30560692Y21542541D01*
X30601648Y21549500D01*
X31298352Y21549500D01*
X31339307Y21542541D01*
X31397181Y21522290D01*
X31426930Y21519500D01*
X31426934Y21519500D01*
X31873066Y21519500D01*
X31873070Y21519500D01*
X31896868Y21521733D01*
X31902819Y21522290D01*
X31960692Y21542541D01*
X32001648Y21549500D01*
X32666132Y21549500D01*
X32721292Y21536556D01*
X32764936Y21500425D01*
X32785632Y21473133D01*
X32816494Y21449730D01*
X32899368Y21386885D01*
X32965760Y21360704D01*
X33032153Y21334521D01*
X33115595Y21324500D01*
X33115598Y21324500D01*
X33634402Y21324500D01*
X33634405Y21324500D01*
X33717846Y21334521D01*
X33764510Y21352923D01*
X33850632Y21386885D01*
X33964367Y21473133D01*
X34050615Y21586868D01*
X34050615Y21586869D01*
X34060913Y21600448D01*
X34062234Y21599446D01*
X34081005Y21626040D01*
X34133140Y21653055D01*
X34191860Y21653055D01*
X34243995Y21626040D01*
X34262765Y21599446D01*
X34264087Y21600448D01*
X34360632Y21473133D01*
X34391494Y21449730D01*
X34474368Y21386885D01*
X34540760Y21360704D01*
X34607153Y21334521D01*
X34690595Y21324500D01*
X34690598Y21324500D01*
X35209402Y21324500D01*
X35209405Y21324500D01*
X35292846Y21334521D01*
X35339510Y21352923D01*
X35425632Y21386885D01*
X35539367Y21473133D01*
X35539367Y21473134D01*
X35560064Y21500425D01*
X35603708Y21536556D01*
X35658868Y21549500D01*
X36298352Y21549500D01*
X36339307Y21542541D01*
X36397181Y21522290D01*
X36426930Y21519500D01*
X36426934Y21519500D01*
X36873066Y21519500D01*
X36873070Y21519500D01*
X36896868Y21521733D01*
X36902819Y21522290D01*
X36960692Y21542541D01*
X37001648Y21549500D01*
X37917060Y21549500D01*
X37964513Y21540061D01*
X38004742Y21513180D01*
X38047736Y21470185D01*
X38047738Y21470184D01*
X38200478Y21374211D01*
X38370745Y21314632D01*
X38439999Y21306829D01*
X38537358Y21295859D01*
X38577276Y21284359D01*
X38611155Y21260320D01*
X38813181Y21058294D01*
X38840061Y21018066D01*
X38849500Y20970613D01*
X38849500Y20651648D01*
X38842541Y20610693D01*
X38822289Y20552819D01*
X38819500Y20523070D01*
X38819500Y20076930D01*
X38822289Y20047182D01*
X38842541Y19989307D01*
X38849500Y19948352D01*
X38849500Y19506035D01*
X38836384Y19450530D01*
X38799810Y19406768D01*
X38767455Y19382548D01*
X38681204Y19267332D01*
X38630909Y19132484D01*
X38624500Y19072870D01*
X38624500Y18577131D01*
X38630909Y18517516D01*
X38685648Y18370755D01*
X38693654Y18355450D01*
X38700000Y18316290D01*
X38700000Y17795342D01*
X38693419Y17755483D01*
X38674375Y17719855D01*
X38652041Y17690750D01*
X38621524Y17617076D01*
X38604909Y17555067D01*
X38594500Y17476001D01*
X38594500Y16677904D01*
X38585061Y16630451D01*
X38558181Y16590223D01*
X37209777Y15241819D01*
X37169549Y15214939D01*
X37122096Y15205500D01*
X36323999Y15205500D01*
X36244933Y15195091D01*
X36182924Y15178476D01*
X36109252Y15147960D01*
X36045973Y15099404D01*
X36000596Y15054027D01*
X35952040Y14990748D01*
X35921524Y14917076D01*
X35904909Y14855067D01*
X35894500Y14776001D01*
X35894500Y14223999D01*
X35904909Y14144934D01*
X35921524Y14082925D01*
X35952040Y14009253D01*
X35952041Y14009251D01*
X35952042Y14009250D01*
X35991185Y13958238D01*
X36000596Y13945974D01*
X36045973Y13900597D01*
X36045977Y13900594D01*
X36045979Y13900592D01*
X36109250Y13852042D01*
X36109251Y13852042D01*
X36109252Y13852041D01*
X36182924Y13821525D01*
X36182927Y13821525D01*
X36182930Y13821523D01*
X36244930Y13804910D01*
X36302512Y13797329D01*
X36323999Y13794500D01*
X36324000Y13794500D01*
X37122096Y13794500D01*
X37169549Y13785061D01*
X37209777Y13758181D01*
X38660258Y12307700D01*
X38660400Y12307522D01*
X38670183Y12297739D01*
X38670184Y12297738D01*
X38797738Y12170184D01*
X38797740Y12170183D01*
X38807649Y12160274D01*
X38807819Y12160139D01*
X39547656Y11420301D01*
X39547660Y11420298D01*
X39593952Y11382307D01*
X39634180Y11355427D01*
X39686998Y11327194D01*
X39744309Y11309809D01*
X39744315Y11309808D01*
X39744318Y11309807D01*
X39790558Y11300610D01*
X39791762Y11300370D01*
X39851362Y11294500D01*
X41085761Y11294500D01*
X41142055Y11280986D01*
X41174696Y11264354D01*
X41268481Y11249500D01*
X42131518Y11249501D01*
X42225304Y11264354D01*
X42338342Y11321950D01*
X42428050Y11411658D01*
X42485646Y11524696D01*
X42500500Y11618481D01*
X42500500Y11623999D01*
X48494500Y11623999D01*
X48504909Y11544934D01*
X48521524Y11482925D01*
X48552040Y11409253D01*
X48552041Y11409251D01*
X48552042Y11409250D01*
X48600592Y11345979D01*
X48600596Y11345974D01*
X48645973Y11300597D01*
X48645977Y11300594D01*
X48645979Y11300592D01*
X48709250Y11252042D01*
X48709251Y11252042D01*
X48709252Y11252041D01*
X48782924Y11221525D01*
X48782927Y11221525D01*
X48782930Y11221523D01*
X48844930Y11204910D01*
X48904232Y11197103D01*
X48923999Y11194500D01*
X48924000Y11194500D01*
X53448638Y11194500D01*
X53508238Y11200370D01*
X53555691Y11209809D01*
X53613002Y11227194D01*
X53665820Y11255427D01*
X53706048Y11282307D01*
X53752340Y11320298D01*
X55690222Y13258182D01*
X55730450Y13285061D01*
X55777903Y13294500D01*
X58476001Y13294500D01*
X58491814Y13296583D01*
X58555070Y13304910D01*
X58617070Y13321523D01*
X58690750Y13352042D01*
X58745013Y13393681D01*
X58808346Y13418707D01*
X58875344Y13406516D01*
X58925801Y13360784D01*
X58944500Y13295304D01*
X58944500Y12940840D01*
X58937462Y12899659D01*
X58917147Y12863153D01*
X58862634Y12795338D01*
X58781405Y12631554D01*
X58737283Y12454137D01*
X58734500Y12413083D01*
X58734500Y11186917D01*
X58737283Y11145866D01*
X58781405Y10968447D01*
X58816750Y10897181D01*
X58862634Y10804664D01*
X58954213Y10690734D01*
X58972137Y10668436D01*
X58990048Y10638206D01*
X58992342Y10632669D01*
X59002042Y10609250D01*
X59050596Y10545974D01*
X59095973Y10500597D01*
X59095977Y10500594D01*
X59095979Y10500592D01*
X59159250Y10452042D01*
X59159251Y10452042D01*
X59159252Y10452041D01*
X59232924Y10421525D01*
X59232927Y10421525D01*
X59232930Y10421523D01*
X59294930Y10404910D01*
X59354232Y10397103D01*
X59373999Y10394500D01*
X59374000Y10394500D01*
X65526000Y10394500D01*
X65526001Y10394500D01*
X65541814Y10396583D01*
X65605070Y10404910D01*
X65667070Y10421523D01*
X65740750Y10452042D01*
X65804021Y10500592D01*
X65849408Y10545979D01*
X65897958Y10609250D01*
X65928477Y10682930D01*
X65945090Y10744930D01*
X65955500Y10824000D01*
X65955500Y10824002D01*
X65955897Y10827017D01*
X65967746Y10865921D01*
X66018595Y10968448D01*
X66062716Y11145863D01*
X66065500Y11186917D01*
X66065499Y11525000D01*
X79800000Y11525000D01*
X79800000Y10975375D01*
X79814504Y10902457D01*
X79869760Y10819761D01*
X79952456Y10764505D01*
X80025375Y10750000D01*
X82350000Y10750000D01*
X82350000Y11525000D01*
X79800000Y11525000D01*
X66065499Y11525000D01*
X66065499Y11825000D01*
X79800000Y11825000D01*
X82350000Y11825000D01*
X82350000Y12600000D01*
X80025375Y12600000D01*
X79952456Y12585496D01*
X79869760Y12530240D01*
X79814504Y12447544D01*
X79800000Y12374625D01*
X79800000Y11825000D01*
X66065499Y11825000D01*
X66065499Y12413082D01*
X66062716Y12454137D01*
X66018595Y12631552D01*
X65937366Y12795336D01*
X65822828Y12937828D01*
X65680336Y13052366D01*
X65588579Y13097873D01*
X65516553Y13133595D01*
X65339136Y13177717D01*
X65300866Y13180312D01*
X65298083Y13180500D01*
X65298082Y13180500D01*
X65298049Y13180500D01*
X61229499Y13180500D01*
X61167500Y13197112D01*
X61122113Y13242499D01*
X61105500Y13304499D01*
X61105500Y13898638D01*
X61102522Y13928873D01*
X61099630Y13958238D01*
X61095479Y13979108D01*
X61090193Y14005682D01*
X61090192Y14005685D01*
X61090191Y14005691D01*
X61072806Y14063002D01*
X61044573Y14115820D01*
X61017693Y14156048D01*
X60979702Y14202340D01*
X60979699Y14202344D01*
X60302343Y14879700D01*
X60256049Y14917692D01*
X60250157Y14921629D01*
X60215820Y14944573D01*
X60163002Y14972806D01*
X60105691Y14990191D01*
X60105690Y14990192D01*
X60105681Y14990194D01*
X60058242Y14999630D01*
X59998638Y15005500D01*
X59374000Y15005500D01*
X59373999Y15005500D01*
X59294933Y14995091D01*
X59232924Y14978476D01*
X59159252Y14947960D01*
X59104987Y14906320D01*
X59041654Y14881293D01*
X58974656Y14893484D01*
X58924199Y14939216D01*
X58905500Y15004696D01*
X58905500Y16251658D01*
X58909165Y16281585D01*
X58912716Y16295863D01*
X58915500Y16336917D01*
X58915499Y17175000D01*
X79800000Y17175000D01*
X79800000Y16625375D01*
X79814504Y16552457D01*
X79869760Y16469761D01*
X79952456Y16414505D01*
X80025375Y16400000D01*
X82350000Y16400000D01*
X82350000Y17175000D01*
X79800000Y17175000D01*
X58915499Y17175000D01*
X58915499Y17475000D01*
X79800000Y17475000D01*
X82350000Y17475000D01*
X82350000Y18250000D01*
X80025375Y18250000D01*
X79952456Y18235496D01*
X79869760Y18180240D01*
X79814504Y18097544D01*
X79800000Y18024625D01*
X79800000Y17475000D01*
X58915499Y17475000D01*
X58915499Y17563082D01*
X58912716Y17604137D01*
X58909165Y17618416D01*
X58905500Y17648341D01*
X58905500Y17926001D01*
X58895090Y18005067D01*
X58895090Y18005070D01*
X58878477Y18067070D01*
X58865854Y18097544D01*
X58847959Y18140748D01*
X58847958Y18140749D01*
X58847958Y18140750D01*
X58799408Y18204021D01*
X58799406Y18204023D01*
X58799403Y18204027D01*
X58754026Y18249404D01*
X58730193Y18267692D01*
X58690750Y18297958D01*
X58690749Y18297959D01*
X58690747Y18297960D01*
X58617075Y18328476D01*
X58555066Y18345091D01*
X58476001Y18355500D01*
X58476000Y18355500D01*
X49301362Y18355500D01*
X49241757Y18349630D01*
X49194318Y18340194D01*
X49170990Y18333118D01*
X49136998Y18322806D01*
X49136996Y18322806D01*
X49136996Y18322805D01*
X49084181Y18294574D01*
X49043950Y18267692D01*
X48997656Y18229700D01*
X48620300Y17852344D01*
X48582308Y17806050D01*
X48555426Y17765819D01*
X48549123Y17754027D01*
X48527194Y17713002D01*
X48520444Y17690750D01*
X48509806Y17655682D01*
X48500370Y17608243D01*
X48494500Y17548638D01*
X48494500Y11623999D01*
X42500500Y11623999D01*
X42500499Y11677893D01*
X42501560Y11694082D01*
X42505500Y11724003D01*
X42505500Y17476001D01*
X42501049Y17509809D01*
X42495090Y17555070D01*
X42478477Y17617070D01*
X42477919Y17618416D01*
X42447959Y17690748D01*
X42447958Y17690749D01*
X42447958Y17690750D01*
X42399408Y17754021D01*
X42399406Y17754023D01*
X42399403Y17754027D01*
X42354026Y17799404D01*
X42353901Y17799500D01*
X42290750Y17847958D01*
X42290749Y17847959D01*
X42290747Y17847960D01*
X42217075Y17878476D01*
X42155066Y17895091D01*
X42076001Y17905500D01*
X42076000Y17905500D01*
X40224000Y17905500D01*
X40162000Y17922113D01*
X40116613Y17967500D01*
X40100000Y18029500D01*
X40100000Y18316290D01*
X40106346Y18355450D01*
X40114350Y18370752D01*
X40118793Y18382666D01*
X40118796Y18382669D01*
X40169091Y18517517D01*
X40175500Y18577127D01*
X40175499Y19072872D01*
X40169091Y19132483D01*
X40118796Y19267331D01*
X40032546Y19382546D01*
X40032544Y19382547D01*
X40032544Y19382548D01*
X40000190Y19406768D01*
X39963616Y19450530D01*
X39950500Y19506035D01*
X39950500Y19948352D01*
X39957459Y19989307D01*
X39964184Y20008527D01*
X39977710Y20047181D01*
X39980500Y20076934D01*
X39980500Y20523066D01*
X39977710Y20552819D01*
X39957459Y20610693D01*
X39950500Y20651648D01*
X39950500Y21238448D01*
X39950572Y21242681D01*
X39952433Y21297174D01*
X39952763Y21306826D01*
X39952762Y21306827D01*
X39952763Y21306829D01*
X39943034Y21346747D01*
X39940664Y21359216D01*
X39935070Y21399920D01*
X39927919Y21416382D01*
X39921181Y21436422D01*
X39916934Y21453850D01*
X39916934Y21453851D01*
X39896791Y21489676D01*
X39891149Y21501036D01*
X39874780Y21538720D01*
X39863456Y21552640D01*
X39851559Y21570120D01*
X39842765Y21585760D01*
X39813713Y21614812D01*
X39805205Y21624239D01*
X39803740Y21626040D01*
X39779278Y21656108D01*
X39776683Y21657940D01*
X39764615Y21666459D01*
X39748444Y21680081D01*
X39389680Y22038845D01*
X39365641Y22072724D01*
X39354141Y22112642D01*
X39335368Y22279252D01*
X39335368Y22279255D01*
X39275789Y22449522D01*
X39179816Y22602262D01*
X39179815Y22602263D01*
X39179814Y22602265D01*
X39052264Y22729815D01*
X38923423Y22810771D01*
X38899522Y22825789D01*
X38729255Y22885368D01*
X38729253Y22885369D01*
X38729251Y22885369D01*
X38550000Y22905566D01*
X38370748Y22885369D01*
X38370745Y22885369D01*
X38370745Y22885368D01*
X38200478Y22825789D01*
X38200476Y22825789D01*
X38200476Y22825788D01*
X38047736Y22729816D01*
X38004742Y22686820D01*
X37964513Y22659939D01*
X37917060Y22650500D01*
X37001648Y22650500D01*
X36960693Y22657459D01*
X36902818Y22677711D01*
X36873070Y22680500D01*
X36873066Y22680500D01*
X36426934Y22680500D01*
X36426930Y22680500D01*
X36397181Y22677711D01*
X36339307Y22657459D01*
X36298352Y22650500D01*
X35658868Y22650500D01*
X35603708Y22663444D01*
X35560064Y22699575D01*
X35539367Y22726868D01*
X35464374Y22783736D01*
X35425632Y22813115D01*
X35425630Y22813116D01*
X35292846Y22865480D01*
X35209405Y22875500D01*
X35209402Y22875500D01*
X34690598Y22875500D01*
X34690595Y22875500D01*
X34607153Y22865480D01*
X34474369Y22813116D01*
X34360632Y22726868D01*
X34264087Y22599552D01*
X34262765Y22600554D01*
X34243993Y22573959D01*
X34191859Y22546946D01*
X34133141Y22546946D01*
X34081007Y22573959D01*
X34062234Y22600554D01*
X34060913Y22599552D01*
X33964367Y22726868D01*
X33889374Y22783736D01*
X33850632Y22813115D01*
X33850630Y22813116D01*
X33717846Y22865480D01*
X33634405Y22875500D01*
X33634402Y22875500D01*
X33115598Y22875500D01*
X33115595Y22875500D01*
X33032153Y22865480D01*
X32899369Y22813116D01*
X32785632Y22726868D01*
X32764936Y22699575D01*
X32721292Y22663444D01*
X32666132Y22650500D01*
X32001648Y22650500D01*
X31960693Y22657459D01*
X31902818Y22677711D01*
X31873070Y22680500D01*
X31873066Y22680500D01*
X31426934Y22680500D01*
X31426930Y22680500D01*
X31397181Y22677711D01*
X31339307Y22657459D01*
X31298352Y22650500D01*
X30601648Y22650500D01*
X30560693Y22657459D01*
X30502818Y22677711D01*
X30473070Y22680500D01*
X30473066Y22680500D01*
X30026934Y22680500D01*
X30026930Y22680500D01*
X29997181Y22677711D01*
X29939307Y22657459D01*
X29898352Y22650500D01*
X29182940Y22650500D01*
X29135487Y22659939D01*
X29095258Y22686820D01*
X29052263Y22729816D01*
X28923423Y22810771D01*
X28899522Y22825789D01*
X28729255Y22885368D01*
X28729253Y22885369D01*
X28729251Y22885369D01*
X28550000Y22905566D01*
X28370748Y22885369D01*
X28370745Y22885369D01*
X28370745Y22885368D01*
X28200478Y22825789D01*
X28200476Y22825789D01*
X28200476Y22825788D01*
X28047736Y22729816D01*
X28004742Y22686820D01*
X27964513Y22659939D01*
X27917060Y22650500D01*
X26774499Y22650500D01*
X26712499Y22667113D01*
X26667112Y22712500D01*
X26650499Y22774500D01*
X26650499Y23144867D01*
X26647585Y23169989D01*
X26647585Y23169991D01*
X26602206Y23272765D01*
X26602204Y23272767D01*
X26602204Y23272768D01*
X26522767Y23352205D01*
X26473406Y23374000D01*
X26419991Y23397585D01*
X26394865Y23400500D01*
X26394863Y23400500D01*
X25005132Y23400500D01*
X24980011Y23397586D01*
X24877232Y23352205D01*
X24797795Y23272768D01*
X24752415Y23169991D01*
X24749500Y23144864D01*
X24749500Y21055133D01*
X21150499Y21055133D01*
X21150499Y21644864D01*
X21147585Y21669991D01*
X21102206Y21772765D01*
X21102204Y21772767D01*
X21102204Y21772768D01*
X21022767Y21852205D01*
X21022765Y21852206D01*
X20919991Y21897585D01*
X20894865Y21900500D01*
X20894863Y21900500D01*
X19505132Y21900500D01*
X19480011Y21897586D01*
X19377232Y21852205D01*
X19297795Y21772768D01*
X19297793Y21772765D01*
X19297794Y21772765D01*
X19252415Y21669991D01*
X19250805Y21656109D01*
X19249500Y21644864D01*
X19249500Y21549500D01*
X19232887Y21487500D01*
X19187500Y21442113D01*
X19125500Y21425500D01*
X18698025Y21425500D01*
X18659266Y21431713D01*
X18624391Y21449730D01*
X18578157Y21483852D01*
X18452816Y21527711D01*
X18423070Y21530500D01*
X18423066Y21530500D01*
X17976934Y21530500D01*
X17976930Y21530500D01*
X17947183Y21527711D01*
X17821842Y21483852D01*
X17775609Y21449730D01*
X17740734Y21431713D01*
X17701975Y21425500D01*
X16957940Y21425500D01*
X16910487Y21434939D01*
X16870259Y21461819D01*
X16761819Y21570259D01*
X16734939Y21610487D01*
X16725500Y21657940D01*
X16725500Y22912820D01*
X16738616Y22968324D01*
X16775187Y23012086D01*
X16882546Y23092454D01*
X16968796Y23207669D01*
X17019091Y23342517D01*
X17025500Y23402127D01*
X17025499Y23706917D01*
X51584500Y23706917D01*
X51587283Y23665865D01*
X51590835Y23651584D01*
X51594500Y23621659D01*
X51594500Y23373999D01*
X51604909Y23294934D01*
X51621524Y23232925D01*
X51652040Y23159253D01*
X51700596Y23095974D01*
X51745973Y23050597D01*
X51745977Y23050594D01*
X51745979Y23050592D01*
X51809250Y23002042D01*
X51809251Y23002042D01*
X51809252Y23002041D01*
X51882924Y22971525D01*
X51882927Y22971525D01*
X51882930Y22971523D01*
X51944930Y22954910D01*
X52004232Y22947103D01*
X52023999Y22944500D01*
X52024000Y22944500D01*
X52286764Y22944500D01*
X52299936Y22942887D01*
X52299946Y22943024D01*
X52312421Y22942179D01*
X52351917Y22939500D01*
X58148082Y22939501D01*
X58148083Y22939501D01*
X58200056Y22943024D01*
X58200065Y22942888D01*
X58213235Y22944500D01*
X60312641Y22944500D01*
X60353596Y22937541D01*
X60397181Y22922290D01*
X60426930Y22919500D01*
X60426934Y22919500D01*
X60873066Y22919500D01*
X60873070Y22919500D01*
X60896868Y22921732D01*
X60902819Y22922290D01*
X60932392Y22932638D01*
X60946404Y22937541D01*
X60987359Y22944500D01*
X61762641Y22944500D01*
X61803596Y22937541D01*
X61847181Y22922290D01*
X61876930Y22919500D01*
X61876934Y22919500D01*
X62323066Y22919500D01*
X62323070Y22919500D01*
X62346868Y22921732D01*
X62352819Y22922290D01*
X62382392Y22932638D01*
X62396404Y22937541D01*
X62437359Y22944500D01*
X65281065Y22944500D01*
X65345855Y22926227D01*
X65391550Y22876795D01*
X65404683Y22810771D01*
X65381383Y22747614D01*
X65328517Y22705939D01*
X65309252Y22697960D01*
X65245973Y22649404D01*
X65200596Y22604027D01*
X65152040Y22540748D01*
X65121524Y22467076D01*
X65104909Y22405067D01*
X65094500Y22326001D01*
X65094500Y20428909D01*
X65085854Y20383418D01*
X65085123Y20381566D01*
X65074500Y20293099D01*
X65074500Y18006901D01*
X65085123Y17918434D01*
X65094704Y17894140D01*
X65102289Y17864837D01*
X65104909Y17844933D01*
X65121524Y17782925D01*
X65152040Y17709253D01*
X65200596Y17645974D01*
X65245973Y17600597D01*
X65245977Y17600594D01*
X65245979Y17600592D01*
X65309250Y17552042D01*
X65309251Y17552042D01*
X65309252Y17552041D01*
X65382924Y17521525D01*
X65382927Y17521525D01*
X65382930Y17521523D01*
X65444930Y17504910D01*
X65504232Y17497103D01*
X65523999Y17494500D01*
X65524000Y17494500D01*
X66498638Y17494500D01*
X66558238Y17500370D01*
X66605691Y17509809D01*
X66663002Y17527194D01*
X66715820Y17555427D01*
X66756048Y17582307D01*
X66802340Y17620298D01*
X69179702Y19997660D01*
X69217693Y20043952D01*
X69244573Y20084180D01*
X69272806Y20136998D01*
X69290191Y20194309D01*
X69299630Y20241762D01*
X69305500Y20301362D01*
X69305500Y22326000D01*
X69295090Y22405070D01*
X69278477Y22467070D01*
X69247958Y22540750D01*
X69199408Y22604021D01*
X69199406Y22604023D01*
X69199403Y22604027D01*
X69154026Y22649404D01*
X69135729Y22663444D01*
X69090750Y22697958D01*
X69090749Y22697959D01*
X69090747Y22697960D01*
X69017908Y22728130D01*
X68968994Y22764655D01*
X68943436Y22820093D01*
X68947429Y22881009D01*
X68980004Y22932638D01*
X69033265Y22962465D01*
X69067070Y22971523D01*
X69140750Y23002042D01*
X69204021Y23050592D01*
X69249408Y23095979D01*
X69297958Y23159250D01*
X69328477Y23232930D01*
X69345090Y23294930D01*
X69355500Y23374000D01*
X69355500Y25926000D01*
X69345090Y26005070D01*
X69328477Y26067070D01*
X69297958Y26140750D01*
X69249408Y26204021D01*
X69249406Y26204023D01*
X69249403Y26204027D01*
X69220611Y26232819D01*
X69190361Y26282182D01*
X69185819Y26339898D01*
X69207974Y26393385D01*
X69251997Y26430985D01*
X69308292Y26444500D01*
X70821091Y26444500D01*
X70866582Y26435854D01*
X70868436Y26435123D01*
X70956898Y26424500D01*
X73243099Y26424500D01*
X73243102Y26424500D01*
X73331564Y26435123D01*
X73333417Y26435854D01*
X73378909Y26444500D01*
X73426001Y26444500D01*
X73441814Y26446583D01*
X73505070Y26454910D01*
X73567070Y26471523D01*
X73640750Y26502042D01*
X73704021Y26550592D01*
X73749408Y26595979D01*
X73797958Y26659250D01*
X73828477Y26732930D01*
X73845090Y26794930D01*
X73855500Y26874000D01*
X73855500Y28776000D01*
X73854562Y28783121D01*
X73850689Y28812544D01*
X73845090Y28855070D01*
X73828477Y28917070D01*
X73822041Y28932607D01*
X73797959Y28990748D01*
X73797958Y28990749D01*
X73797958Y28990750D01*
X73749408Y29054021D01*
X73749406Y29054023D01*
X73749403Y29054027D01*
X73704026Y29099404D01*
X73640747Y29147960D01*
X73567075Y29178476D01*
X73505066Y29195091D01*
X73426001Y29205500D01*
X73426000Y29205500D01*
X66424000Y29205500D01*
X66423999Y29205500D01*
X66344933Y29195091D01*
X66282924Y29178476D01*
X66209252Y29147960D01*
X66145973Y29099404D01*
X66100596Y29054027D01*
X66052040Y28990748D01*
X66021524Y28917076D01*
X66004909Y28855067D01*
X65994500Y28776001D01*
X65994500Y26873999D01*
X66004909Y26794934D01*
X66021524Y26732925D01*
X66052040Y26659253D01*
X66052041Y26659251D01*
X66052042Y26659250D01*
X66068766Y26637455D01*
X66100596Y26595974D01*
X66129389Y26567181D01*
X66159639Y26517818D01*
X66164181Y26460102D01*
X66142026Y26406615D01*
X66098003Y26369015D01*
X66041708Y26355500D01*
X52751362Y26355500D01*
X52691757Y26349630D01*
X52644318Y26340194D01*
X52620990Y26333118D01*
X52586998Y26322806D01*
X52586996Y26322806D01*
X52586996Y26322805D01*
X52534181Y26294574D01*
X52493950Y26267692D01*
X52447656Y26229700D01*
X51720300Y25502344D01*
X51682308Y25456050D01*
X51655426Y25415819D01*
X51627195Y25363004D01*
X51609806Y25305682D01*
X51600370Y25258243D01*
X51594500Y25198638D01*
X51594500Y25018342D01*
X51590835Y24988415D01*
X51587283Y24974135D01*
X51584500Y24933083D01*
X51584500Y23706917D01*
X17025499Y23706917D01*
X17025499Y23897872D01*
X17019091Y23957483D01*
X16968796Y24092331D01*
X16882546Y24207546D01*
X16767331Y24293796D01*
X16632483Y24344091D01*
X16572873Y24350500D01*
X16572869Y24350500D01*
X15927130Y24350500D01*
X15867515Y24344091D01*
X15732669Y24293796D01*
X15617454Y24207546D01*
X15531204Y24092332D01*
X15480909Y23957484D01*
X15474500Y23897870D01*
X15474500Y23402131D01*
X15480909Y23342517D01*
X15531204Y23207669D01*
X15617454Y23092454D01*
X15724812Y23012086D01*
X15761384Y22968324D01*
X15774500Y22912820D01*
X15774500Y21657940D01*
X15765061Y21610487D01*
X15738183Y21570262D01*
X15707983Y21540061D01*
X15620183Y21452262D01*
X15533705Y21314632D01*
X15524211Y21299522D01*
X15503584Y21240573D01*
X15464631Y21129252D01*
X15444434Y20950000D01*
X500000Y20950000D01*
X500000Y23785000D01*
X809187Y23785000D01*
X814097Y23732009D01*
X869885Y23535932D01*
X960751Y23353447D01*
X1083607Y23190759D01*
X1234259Y23053422D01*
X1407588Y22946101D01*
X1597679Y22872460D01*
X1750000Y22843986D01*
X1750000Y23785000D01*
X2050000Y23785000D01*
X2050000Y22843986D01*
X2202320Y22872460D01*
X2392411Y22946101D01*
X2565740Y23053422D01*
X2716392Y23190759D01*
X2839248Y23353447D01*
X2930114Y23535932D01*
X2985902Y23732009D01*
X2990813Y23785000D01*
X2050000Y23785000D01*
X1750000Y23785000D01*
X809187Y23785000D01*
X500000Y23785000D01*
X500000Y24085001D01*
X809186Y24085001D01*
X809187Y24085000D01*
X1750000Y24085000D01*
X1750000Y25026014D01*
X2050000Y25026014D01*
X2050000Y24085000D01*
X2990813Y24085000D01*
X2990813Y24085001D01*
X2985902Y24137992D01*
X2930114Y24334069D01*
X2839248Y24516554D01*
X2716392Y24679242D01*
X2565740Y24816579D01*
X2392411Y24923900D01*
X2202320Y24997541D01*
X2050000Y25026014D01*
X1750000Y25026014D01*
X1597679Y24997541D01*
X1407588Y24923900D01*
X1234259Y24816579D01*
X1083607Y24679242D01*
X960751Y24516554D01*
X869885Y24334069D01*
X814097Y24137992D01*
X809186Y24085001D01*
X500000Y24085001D01*
X500000Y25052131D01*
X15474500Y25052131D01*
X15480369Y24997541D01*
X15480909Y24992517D01*
X15531204Y24857669D01*
X15617454Y24742454D01*
X15732669Y24656204D01*
X15867517Y24605909D01*
X15927127Y24599500D01*
X16572872Y24599501D01*
X16632483Y24605909D01*
X16767331Y24656204D01*
X16882546Y24742454D01*
X16968796Y24857669D01*
X17019091Y24992517D01*
X17025500Y25052127D01*
X17025499Y25422392D01*
X17034938Y25469844D01*
X17061815Y25510069D01*
X18989928Y27438181D01*
X19030157Y27465061D01*
X19077610Y27474500D01*
X32132468Y27474500D01*
X32197948Y27455801D01*
X32243680Y27405344D01*
X32255871Y27338346D01*
X32230844Y27275014D01*
X32175463Y27202841D01*
X32114956Y27056763D01*
X32094317Y26900001D01*
X32114956Y26743238D01*
X32175463Y26597160D01*
X32271717Y26471718D01*
X32341830Y26417919D01*
X32397159Y26375464D01*
X32543238Y26314956D01*
X32700000Y26294318D01*
X32856762Y26314956D01*
X33002841Y26375464D01*
X33033350Y26398875D01*
X33068979Y26417919D01*
X33108838Y26424500D01*
X50805541Y26424500D01*
X50831899Y26421667D01*
X50835729Y26420833D01*
X50882575Y26424185D01*
X50891422Y26424500D01*
X50904011Y26424500D01*
X50916485Y26426294D01*
X50925269Y26427239D01*
X50972115Y26430589D01*
X50974488Y26431475D01*
X50975778Y26431955D01*
X51001465Y26438512D01*
X51005342Y26439069D01*
X51048072Y26458585D01*
X51056207Y26461955D01*
X51100226Y26478371D01*
X51103361Y26480719D01*
X51126153Y26494243D01*
X51129718Y26495870D01*
X51165203Y26526620D01*
X51172084Y26532165D01*
X51182180Y26539721D01*
X51182184Y26539725D01*
X51191083Y26548624D01*
X51197566Y26554660D01*
X51233052Y26585408D01*
X51233052Y26585409D01*
X51233055Y26585411D01*
X51235173Y26588708D01*
X51251803Y26609346D01*
X52360650Y27718194D01*
X52381286Y27734824D01*
X52384589Y27736945D01*
X52397710Y27752090D01*
X52415346Y27772441D01*
X52421382Y27778924D01*
X52430273Y27787815D01*
X52430273Y27787816D01*
X52430278Y27787820D01*
X52437835Y27797916D01*
X52443373Y27804787D01*
X52474130Y27840282D01*
X52475755Y27843843D01*
X52489284Y27866645D01*
X52491628Y27869774D01*
X52508039Y27913775D01*
X52511423Y27921943D01*
X52530931Y27964658D01*
X52531487Y27968529D01*
X52538044Y27994224D01*
X52539411Y27997885D01*
X52542761Y28044740D01*
X52543703Y28053497D01*
X52545500Y28065989D01*
X52545500Y28078587D01*
X52545816Y28087434D01*
X52547198Y28106762D01*
X52549166Y28134270D01*
X52548334Y28138096D01*
X52545500Y28164454D01*
X52545500Y29412820D01*
X52558616Y29468324D01*
X52595187Y29512086D01*
X52702546Y29592454D01*
X52788796Y29707669D01*
X52839091Y29842517D01*
X52845500Y29902127D01*
X52845499Y30397872D01*
X52839091Y30457483D01*
X52788796Y30592331D01*
X52702546Y30707546D01*
X52587331Y30793796D01*
X52559117Y30804319D01*
X52504257Y30844780D01*
X52479072Y30908126D01*
X52491176Y30975212D01*
X52536910Y31025762D01*
X52602453Y31044500D01*
X53846001Y31044500D01*
X53861813Y31046582D01*
X53925070Y31054910D01*
X53987070Y31071523D01*
X54060750Y31102042D01*
X54124021Y31150592D01*
X54169408Y31195979D01*
X54217958Y31259250D01*
X54248477Y31332930D01*
X54265090Y31394930D01*
X54275500Y31474000D01*
X54275500Y36376000D01*
X54274661Y36382369D01*
X54265090Y36455067D01*
X54265090Y36455070D01*
X54248477Y36517070D01*
X54246101Y36522806D01*
X54217959Y36590748D01*
X54217958Y36590749D01*
X54217958Y36590750D01*
X54169408Y36654021D01*
X54169406Y36654023D01*
X54169403Y36654027D01*
X54124026Y36699404D01*
X54124021Y36699408D01*
X54060750Y36747958D01*
X54060749Y36747959D01*
X54060747Y36747960D01*
X53987075Y36778476D01*
X53925066Y36795091D01*
X53846001Y36805500D01*
X53846000Y36805500D01*
X42521362Y36805500D01*
X42461757Y36799630D01*
X42414318Y36790194D01*
X42390990Y36783118D01*
X42356998Y36772806D01*
X42356996Y36772806D01*
X42356996Y36772805D01*
X42304181Y36744574D01*
X42263950Y36717692D01*
X42217656Y36679700D01*
X41287181Y35749224D01*
X41237818Y35718974D01*
X41180102Y35714432D01*
X41126615Y35736587D01*
X41089015Y35780610D01*
X41075500Y35836905D01*
X41075500Y36172097D01*
X41084939Y36219550D01*
X41111819Y36259778D01*
X42510222Y37658181D01*
X42550450Y37685061D01*
X42597903Y37694500D01*
X44096001Y37694500D01*
X44111813Y37696582D01*
X44175070Y37704910D01*
X44237070Y37721523D01*
X44310750Y37752042D01*
X44374021Y37800592D01*
X44419408Y37845979D01*
X44467958Y37909250D01*
X44498477Y37982930D01*
X44515090Y38044930D01*
X44525500Y38124000D01*
X44525500Y40498638D01*
X44519630Y40558238D01*
X44510191Y40605691D01*
X44492806Y40663002D01*
X44464573Y40715820D01*
X44437693Y40756048D01*
X44399702Y40802340D01*
X44399699Y40802344D01*
X43022343Y42179700D01*
X42976049Y42217692D01*
X42975976Y42217741D01*
X42935820Y42244573D01*
X42883002Y42272806D01*
X42825691Y42290191D01*
X42825690Y42290192D01*
X42825681Y42290194D01*
X42778242Y42299630D01*
X42718638Y42305500D01*
X38494000Y42305500D01*
X38479269Y42303562D01*
X38464066Y42301560D01*
X38447886Y42300500D01*
X38350132Y42300500D01*
X38325011Y42297586D01*
X38222232Y42252205D01*
X38142795Y42172768D01*
X38097415Y42069991D01*
X38094500Y42044864D01*
X38094500Y42044506D01*
X38094150Y42041851D01*
X38093674Y42037744D01*
X38093610Y42037752D01*
X38090275Y42012413D01*
X38074910Y41955070D01*
X38064500Y41876001D01*
X38064500Y33273999D01*
X38074909Y33194934D01*
X38091524Y33132925D01*
X38122040Y33059253D01*
X38122041Y33059251D01*
X38122042Y33059250D01*
X38153327Y33018479D01*
X38170596Y32995974D01*
X38215973Y32950597D01*
X38215977Y32950594D01*
X38215979Y32950592D01*
X38279250Y32902042D01*
X38279251Y32902042D01*
X38279252Y32902041D01*
X38352924Y32871525D01*
X38352927Y32871525D01*
X38352930Y32871523D01*
X38414930Y32854910D01*
X38474232Y32847103D01*
X38493999Y32844500D01*
X38494000Y32844500D01*
X39218638Y32844500D01*
X39278238Y32850370D01*
X39325691Y32859809D01*
X39383002Y32877194D01*
X39435820Y32905427D01*
X39476048Y32932307D01*
X39522340Y32970298D01*
X39632492Y33080450D01*
X39802819Y33250776D01*
X39852182Y33281026D01*
X39909898Y33285568D01*
X39963385Y33263413D01*
X40000985Y33219390D01*
X40014500Y33163095D01*
X40014500Y31473999D01*
X40024909Y31394934D01*
X40041524Y31332925D01*
X40072040Y31259253D01*
X40072041Y31259251D01*
X40072042Y31259250D01*
X40120592Y31195979D01*
X40120596Y31195974D01*
X40165973Y31150597D01*
X40165977Y31150594D01*
X40165979Y31150592D01*
X40229250Y31102042D01*
X40229251Y31102042D01*
X40229252Y31102041D01*
X40302924Y31071525D01*
X40302927Y31071525D01*
X40302930Y31071523D01*
X40364930Y31054910D01*
X40424232Y31047103D01*
X40443999Y31044500D01*
X51537548Y31044500D01*
X51603091Y31025762D01*
X51648825Y30975211D01*
X51660929Y30908125D01*
X51635744Y30844779D01*
X51580882Y30804319D01*
X51554557Y30794500D01*
X51552669Y30793796D01*
X51437454Y30707546D01*
X51351204Y30592332D01*
X51300909Y30457485D01*
X51300909Y30457483D01*
X51296287Y30414488D01*
X51294500Y30397870D01*
X51294500Y29902131D01*
X51296960Y29879252D01*
X51300909Y29842517D01*
X51351204Y29707669D01*
X51437454Y29592454D01*
X51544812Y29512086D01*
X51581384Y29468324D01*
X51594500Y29412820D01*
X51594500Y28348320D01*
X51585061Y28300867D01*
X51558181Y28260639D01*
X50709360Y27411819D01*
X50669132Y27384939D01*
X50621679Y27375500D01*
X39917532Y27375500D01*
X39852052Y27394199D01*
X39806320Y27444656D01*
X39794129Y27511654D01*
X39819156Y27574986D01*
X39827618Y27586016D01*
X39874536Y27647159D01*
X39935044Y27793238D01*
X39955682Y27950000D01*
X39935044Y28106762D01*
X39874536Y28252841D01*
X39839303Y28298758D01*
X39778282Y28378283D01*
X39652840Y28474537D01*
X39506762Y28535044D01*
X39350000Y28555683D01*
X39193237Y28535044D01*
X39047159Y28474537D01*
X38921717Y28378283D01*
X38825463Y28252841D01*
X38788853Y28164454D01*
X38764956Y28106762D01*
X38764955Y28106761D01*
X38763004Y28102048D01*
X38736125Y28061819D01*
X38695896Y28034939D01*
X38648443Y28025500D01*
X33927609Y28025500D01*
X33880156Y28034939D01*
X33839930Y28061817D01*
X33694632Y28207116D01*
X33694630Y28207119D01*
X33677194Y28224554D01*
X33677194Y28224555D01*
X33653220Y28248528D01*
X33631702Y28259492D01*
X33615111Y28269660D01*
X33595582Y28283849D01*
X33572616Y28291311D01*
X33554638Y28298758D01*
X33533128Y28309718D01*
X33533127Y28309719D01*
X33533126Y28309719D01*
X33509270Y28313498D01*
X33490359Y28318038D01*
X33467393Y28325500D01*
X33433488Y28325500D01*
X19077610Y28325500D01*
X19030157Y28334939D01*
X18989929Y28361819D01*
X18211819Y29139929D01*
X18184939Y29180157D01*
X18175500Y29227610D01*
X18175500Y31068486D01*
X23294500Y31068486D01*
X23294501Y31068482D01*
X23309354Y30974696D01*
X23309354Y30974695D01*
X23309355Y30974694D01*
X23366949Y30861658D01*
X23456656Y30771951D01*
X23456658Y30771950D01*
X23569696Y30714354D01*
X23663481Y30699500D01*
X24976518Y30699501D01*
X25070304Y30714354D01*
X25183342Y30771950D01*
X25273050Y30861658D01*
X25330646Y30974696D01*
X25345500Y31068481D01*
X25345499Y31331518D01*
X25330646Y31425304D01*
X25294014Y31497199D01*
X25273050Y31538343D01*
X25183343Y31628050D01*
X25070302Y31685647D01*
X24976521Y31700500D01*
X23663485Y31700500D01*
X23623020Y31694091D01*
X23569696Y31685646D01*
X23569694Y31685646D01*
X23569693Y31685645D01*
X23456657Y31628051D01*
X23366950Y31538344D01*
X23309353Y31425303D01*
X23294500Y31331522D01*
X23294500Y31068486D01*
X18175500Y31068486D01*
X18175500Y34022390D01*
X18184939Y34069843D01*
X18211816Y34110069D01*
X18344931Y34243185D01*
X18385157Y34270062D01*
X18432610Y34279501D01*
X18587455Y34279501D01*
X18587456Y34279501D01*
X18616879Y34282259D01*
X18674121Y34302289D01*
X18690900Y34308160D01*
X18759447Y34312010D01*
X18819536Y34278801D01*
X18852746Y34218712D01*
X18848897Y34150165D01*
X18802258Y34016878D01*
X18799500Y33987460D01*
X18799500Y33612546D01*
X18802258Y33583123D01*
X18845619Y33459205D01*
X18923576Y33353577D01*
X18988460Y33305691D01*
X19029206Y33275619D01*
X19153121Y33232259D01*
X19182543Y33229500D01*
X19657456Y33229501D01*
X19686879Y33232259D01*
X19810794Y33275619D01*
X19911942Y33350271D01*
X19946817Y33368287D01*
X19985576Y33374500D01*
X20993390Y33374500D01*
X21049685Y33360985D01*
X21093708Y33323385D01*
X21115863Y33269898D01*
X21111321Y33212182D01*
X21081071Y33162819D01*
X20835071Y32916819D01*
X20794843Y32889939D01*
X20747390Y32880500D01*
X20596930Y32880500D01*
X20567183Y32877711D01*
X20441842Y32833852D01*
X20335000Y32755000D01*
X20256148Y32648158D01*
X20212289Y32522817D01*
X20209500Y32493070D01*
X20209500Y32106930D01*
X20212289Y32077184D01*
X20256148Y31951843D01*
X20335000Y31845001D01*
X20413736Y31786892D01*
X20441843Y31766148D01*
X20567181Y31722290D01*
X20577098Y31721360D01*
X20596930Y31719500D01*
X20596934Y31719500D01*
X21043066Y31719500D01*
X21043070Y31719500D01*
X21060067Y31721095D01*
X21072819Y31722290D01*
X21198157Y31766148D01*
X21304999Y31845001D01*
X21383852Y31951843D01*
X21407730Y32020084D01*
X21441111Y32070653D01*
X21494472Y32099368D01*
X21555068Y32099369D01*
X21608429Y32070655D01*
X21641812Y32020083D01*
X21645617Y32009207D01*
X21723576Y31903577D01*
X21784452Y31858649D01*
X21829206Y31825619D01*
X21953121Y31782259D01*
X21982543Y31779500D01*
X22457456Y31779501D01*
X22486879Y31782259D01*
X22610794Y31825619D01*
X22711942Y31900271D01*
X22746817Y31918287D01*
X22785576Y31924500D01*
X23117391Y31924500D01*
X23117393Y31924500D01*
X23140363Y31931965D01*
X23159266Y31936503D01*
X23183126Y31940281D01*
X23204647Y31951248D01*
X23222616Y31958691D01*
X23245581Y31966151D01*
X23265111Y31980342D01*
X23281704Y31990511D01*
X23303220Y32001472D01*
X23337996Y32036249D01*
X23381237Y32064331D01*
X23432165Y32072397D01*
X23481971Y32059052D01*
X23516043Y32041692D01*
X23569696Y32014354D01*
X23663481Y31999500D01*
X24976518Y31999501D01*
X25070304Y32014354D01*
X25183342Y32071950D01*
X25273050Y32161658D01*
X25330646Y32274696D01*
X25345500Y32368481D01*
X25345499Y32631518D01*
X25330646Y32725304D01*
X25308530Y32768709D01*
X25295016Y32825002D01*
X25308532Y32881296D01*
X25330646Y32924696D01*
X25345500Y33018481D01*
X25345499Y33281518D01*
X25330646Y33375304D01*
X25308530Y33418709D01*
X25295016Y33475002D01*
X25308532Y33531296D01*
X25330646Y33574696D01*
X25345500Y33668481D01*
X25345499Y33931518D01*
X25330646Y34025304D01*
X25308530Y34068709D01*
X25295016Y34125002D01*
X25308532Y34181296D01*
X25330646Y34224696D01*
X25345500Y34318481D01*
X25345499Y34581518D01*
X25330646Y34675304D01*
X25293670Y34747873D01*
X25273050Y34788343D01*
X25183343Y34878050D01*
X25070302Y34935647D01*
X24976521Y34950500D01*
X23663485Y34950500D01*
X23622736Y34944047D01*
X23569696Y34935646D01*
X23569694Y34935646D01*
X23569694Y34935645D01*
X23548215Y34924701D01*
X23498410Y34911357D01*
X23447484Y34919423D01*
X23404241Y34947506D01*
X23296645Y35055102D01*
X23127194Y35224554D01*
X23116859Y35234889D01*
X23103220Y35248529D01*
X23081703Y35259492D01*
X23065111Y35269660D01*
X23045582Y35283849D01*
X23022616Y35291311D01*
X23004638Y35298758D01*
X22983128Y35309718D01*
X22983127Y35309719D01*
X22983126Y35309719D01*
X22959270Y35313498D01*
X22940359Y35318038D01*
X22922330Y35323896D01*
X22876476Y35350772D01*
X22846086Y35394377D01*
X22836744Y35446700D01*
X22850166Y35498127D01*
X22850936Y35499638D01*
X22859719Y35516874D01*
X22863497Y35540734D01*
X22868037Y35559643D01*
X22874849Y35580604D01*
X22902446Y35627228D01*
X22947285Y35657632D01*
X22959975Y35662636D01*
X23075078Y35749922D01*
X23162364Y35865025D01*
X23166710Y35876044D01*
X23215359Y35999410D01*
X23225500Y36083852D01*
X23225500Y36616148D01*
X23215359Y36700591D01*
X23162365Y36834974D01*
X23075078Y36950079D01*
X22959973Y37037366D01*
X22825590Y37090360D01*
X22741148Y37100500D01*
X22741144Y37100500D01*
X22158856Y37100500D01*
X22158852Y37100500D01*
X22074409Y37090360D01*
X21940026Y37037366D01*
X21824921Y36950079D01*
X21737634Y36834974D01*
X21684640Y36700590D01*
X21679347Y36656516D01*
X21655596Y36597121D01*
X21605402Y36557467D01*
X21542123Y36548107D01*
X21482598Y36571532D01*
X21398157Y36633852D01*
X21340501Y36654027D01*
X21272819Y36677710D01*
X21272818Y36677711D01*
X21272816Y36677711D01*
X21243070Y36680500D01*
X21243066Y36680500D01*
X20796934Y36680500D01*
X20796930Y36680500D01*
X20767183Y36677711D01*
X20641842Y36633852D01*
X20535000Y36555000D01*
X20456148Y36448158D01*
X20412289Y36322817D01*
X20409500Y36293070D01*
X20409500Y35906930D01*
X20412289Y35877184D01*
X20456148Y35751843D01*
X20535000Y35645001D01*
X20544134Y35638260D01*
X20581195Y35594371D01*
X20594500Y35538490D01*
X20594500Y35512607D01*
X20601962Y35489641D01*
X20606502Y35470730D01*
X20610281Y35446874D01*
X20610281Y35446873D01*
X20610282Y35446872D01*
X20621242Y35425362D01*
X20628689Y35407384D01*
X20636151Y35384418D01*
X20646726Y35369863D01*
X20669092Y35315001D01*
X20663451Y35256024D01*
X20632258Y35166879D01*
X20629500Y35137460D01*
X20629500Y34662546D01*
X20632258Y34633123D01*
X20675619Y34509205D01*
X20739143Y34423134D01*
X20762934Y34359923D01*
X20750068Y34293619D01*
X20704360Y34243894D01*
X20639373Y34225500D01*
X19985577Y34225500D01*
X19946811Y34231715D01*
X19911931Y34249739D01*
X19908726Y34252105D01*
X19868714Y34302289D01*
X19859152Y34365755D01*
X19882602Y34425499D01*
X19944381Y34509206D01*
X19987741Y34633121D01*
X19990500Y34662543D01*
X19990499Y35137456D01*
X19987741Y35166879D01*
X19944381Y35290794D01*
X19944380Y35290796D01*
X19866423Y35396424D01*
X19760794Y35474381D01*
X19636877Y35517742D01*
X19607459Y35520500D01*
X19232545Y35520500D01*
X19203122Y35517742D01*
X19079202Y35474380D01*
X18983632Y35403846D01*
X18936082Y35382390D01*
X18883915Y35382390D01*
X18836365Y35403846D01*
X18740794Y35474382D01*
X18616877Y35517742D01*
X18587459Y35520500D01*
X18212545Y35520500D01*
X18183122Y35517742D01*
X18059204Y35474381D01*
X17953576Y35396424D01*
X17875619Y35290795D01*
X17832258Y35166878D01*
X17829500Y35137460D01*
X17829500Y34982611D01*
X17820061Y34935158D01*
X17793181Y34894930D01*
X17479338Y34581087D01*
X17479339Y34581087D01*
X17401470Y34503218D01*
X17390509Y34481706D01*
X17380347Y34465123D01*
X17366151Y34445583D01*
X17358687Y34422613D01*
X17351244Y34404644D01*
X17340280Y34383126D01*
X17336503Y34359277D01*
X17331962Y34340361D01*
X17324500Y34317394D01*
X17324500Y28932607D01*
X17331962Y28909641D01*
X17336502Y28890730D01*
X17340281Y28866874D01*
X17340281Y28866873D01*
X17340282Y28866872D01*
X17351242Y28845362D01*
X17358689Y28827384D01*
X17366151Y28804418D01*
X17380340Y28784889D01*
X17390508Y28768297D01*
X17401471Y28746780D01*
X17425445Y28722807D01*
X18160570Y27987682D01*
X18192664Y27932095D01*
X18192664Y27867907D01*
X18160570Y27812320D01*
X16385069Y26036819D01*
X16344841Y26009939D01*
X16297388Y26000500D01*
X15927130Y26000500D01*
X15867515Y25994091D01*
X15732669Y25943796D01*
X15617454Y25857546D01*
X15531204Y25742332D01*
X15531203Y25742331D01*
X15531204Y25742331D01*
X15480909Y25607483D01*
X15475268Y25555009D01*
X15474500Y25547870D01*
X15474500Y25052131D01*
X500000Y25052131D01*
X500000Y25580133D01*
X749500Y25580133D01*
X752414Y25555012D01*
X752414Y25555010D01*
X752415Y25555009D01*
X797794Y25452235D01*
X797795Y25452233D01*
X877232Y25372796D01*
X877233Y25372796D01*
X877235Y25372794D01*
X980009Y25327415D01*
X1005135Y25324500D01*
X2794864Y25324501D01*
X2794867Y25324501D01*
X2807427Y25325959D01*
X2819991Y25327415D01*
X2922765Y25372794D01*
X3002206Y25452235D01*
X3047585Y25555009D01*
X3050500Y25580135D01*
X3050500Y25925500D01*
X3067113Y25987500D01*
X3112500Y26032887D01*
X3174500Y26049500D01*
X9257086Y26049500D01*
X9312965Y26036195D01*
X9338506Y26014630D01*
X9338540Y26014675D01*
X9353576Y26003578D01*
X9353577Y26003577D01*
X9459206Y25925619D01*
X9583121Y25882259D01*
X9612543Y25879500D01*
X10087456Y25879501D01*
X10116879Y25882259D01*
X10240794Y25925619D01*
X10346423Y26003577D01*
X10424381Y26109206D01*
X10467741Y26233121D01*
X10470500Y26262543D01*
X10470499Y26637456D01*
X10467741Y26666879D01*
X10424381Y26790794D01*
X10424380Y26790796D01*
X10346423Y26896424D01*
X10240794Y26974381D01*
X10116877Y27017742D01*
X10087459Y27020500D01*
X9612545Y27020500D01*
X9583122Y27017742D01*
X9459204Y26974381D01*
X9391931Y26924730D01*
X9357056Y26906713D01*
X9318297Y26900500D01*
X3174499Y26900500D01*
X3112499Y26917113D01*
X3067112Y26962500D01*
X3050499Y27024500D01*
X3050499Y27369867D01*
X3047585Y27394989D01*
X3047585Y27394991D01*
X3002206Y27497765D01*
X3002204Y27497767D01*
X3002204Y27497768D01*
X2922767Y27577205D01*
X2922765Y27577206D01*
X2819991Y27622585D01*
X2794865Y27625500D01*
X2794864Y27625500D01*
X2449500Y27625500D01*
X2387500Y27642113D01*
X2342113Y27687500D01*
X2325500Y27749500D01*
X2325500Y38972390D01*
X2334939Y39019843D01*
X2361819Y39060071D01*
X2789928Y39488181D01*
X2830156Y39515061D01*
X2877609Y39524500D01*
X5467391Y39524500D01*
X5467393Y39524500D01*
X5490363Y39531965D01*
X5509266Y39536503D01*
X5533126Y39540281D01*
X5554647Y39551248D01*
X5572616Y39558691D01*
X5595581Y39566151D01*
X5615111Y39580342D01*
X5631704Y39590511D01*
X5653220Y39601472D01*
X5748528Y39696780D01*
X5748528Y39696781D01*
X8139928Y42088181D01*
X8180157Y42115061D01*
X8227610Y42124500D01*
X9081535Y42124500D01*
X9137039Y42111384D01*
X9180800Y42074813D01*
X9242454Y41992454D01*
X9357669Y41906204D01*
X9492517Y41855909D01*
X9552127Y41849500D01*
X10247872Y41849501D01*
X10307483Y41855909D01*
X10442331Y41906204D01*
X10557546Y41992454D01*
X10619199Y42074813D01*
X10662961Y42111384D01*
X10718465Y42124500D01*
X11008258Y42124500D01*
X11065733Y42110376D01*
X11110114Y42071220D01*
X11131291Y42015953D01*
X11124440Y41957168D01*
X11119493Y41943904D01*
X11105909Y41907484D01*
X11105649Y41905067D01*
X11099981Y41852340D01*
X11099500Y41847870D01*
X11099500Y41352131D01*
X11105909Y41292516D01*
X11116063Y41265293D01*
X11156204Y41157669D01*
X11242454Y41042454D01*
X11357669Y40956204D01*
X11492517Y40905909D01*
X11552127Y40899500D01*
X12247872Y40899501D01*
X12307483Y40905909D01*
X12442331Y40956204D01*
X12557546Y41042454D01*
X12619199Y41124813D01*
X12662961Y41161384D01*
X12718465Y41174500D01*
X13018635Y41174500D01*
X13074516Y41161195D01*
X13118404Y41124135D01*
X13130272Y41108055D01*
X13133577Y41103577D01*
X13239206Y41025619D01*
X13363121Y40982259D01*
X13392543Y40979500D01*
X13767456Y40979501D01*
X13796879Y40982259D01*
X13920794Y41025619D01*
X13976865Y41067002D01*
X14040077Y41090793D01*
X14106381Y41077927D01*
X14156106Y41032220D01*
X14174500Y40967232D01*
X14174500Y40431365D01*
X14161195Y40375484D01*
X14124135Y40331596D01*
X14103577Y40316424D01*
X14025619Y40210795D01*
X13982258Y40086878D01*
X13979500Y40057460D01*
X13979500Y39682546D01*
X13982259Y39653119D01*
X14011185Y39570455D01*
X14016927Y39512166D01*
X13995274Y39457745D01*
X13951058Y39419333D01*
X13894144Y39405500D01*
X6701362Y39405500D01*
X6641759Y39399630D01*
X6594311Y39390192D01*
X6537000Y39372808D01*
X6484183Y39344576D01*
X6443956Y39317698D01*
X6397661Y39279705D01*
X6362804Y39244847D01*
X6209774Y39091817D01*
X6169549Y39064939D01*
X6122096Y39055500D01*
X3173999Y39055500D01*
X3094933Y39045091D01*
X3032924Y39028476D01*
X2959252Y38997960D01*
X2895973Y38949404D01*
X2850596Y38904027D01*
X2802040Y38840748D01*
X2771524Y38767076D01*
X2754909Y38705067D01*
X2744500Y38626001D01*
X2744500Y37173999D01*
X2754909Y37094934D01*
X2771524Y37032925D01*
X2802040Y36959253D01*
X2802041Y36959251D01*
X2802042Y36959250D01*
X2849670Y36897181D01*
X2850596Y36895974D01*
X2895973Y36850597D01*
X2895977Y36850594D01*
X2895979Y36850592D01*
X2959250Y36802042D01*
X2959251Y36802042D01*
X2959252Y36802041D01*
X3032924Y36771525D01*
X3032927Y36771525D01*
X3032930Y36771523D01*
X3094930Y36754910D01*
X3154232Y36747103D01*
X3173999Y36744500D01*
X3174000Y36744500D01*
X3532424Y36744500D01*
X3589398Y36730636D01*
X3633632Y36692144D01*
X3655235Y36637632D01*
X3649375Y36579288D01*
X3617364Y36530160D01*
X3566359Y36501234D01*
X3482609Y36477405D01*
X3291747Y36382369D01*
X3121594Y36253874D01*
X2977947Y36096302D01*
X2865701Y35915018D01*
X2788679Y35716199D01*
X2785047Y35696767D01*
X2749500Y35506610D01*
X2749500Y35293390D01*
X2788679Y35083802D01*
X2788680Y35083799D01*
X2790791Y35072508D01*
X2789514Y35072270D01*
X2794500Y35045598D01*
X2794500Y34501362D01*
X2800370Y34441758D01*
X2809806Y34394319D01*
X2809808Y34394310D01*
X2809809Y34394309D01*
X2827194Y34336998D01*
X2855427Y34284180D01*
X2880656Y34246423D01*
X2882308Y34243951D01*
X2920300Y34197657D01*
X6897656Y30220301D01*
X6897660Y30220298D01*
X6943952Y30182307D01*
X6984180Y30155427D01*
X7036998Y30127194D01*
X7094309Y30109809D01*
X7094315Y30109808D01*
X7094318Y30109807D01*
X7140558Y30100610D01*
X7141762Y30100370D01*
X7201362Y30094500D01*
X7698638Y30094500D01*
X7758238Y30100370D01*
X7805691Y30109809D01*
X7863002Y30127194D01*
X7915820Y30155427D01*
X7956048Y30182307D01*
X8002340Y30220298D01*
X8329702Y30547660D01*
X8367693Y30593952D01*
X8394573Y30634180D01*
X8416144Y30674536D01*
X8460709Y30721807D01*
X8523064Y30740056D01*
X8586088Y30724270D01*
X8632478Y30678783D01*
X8649500Y30616082D01*
X8649500Y30552132D01*
X8655909Y30492516D01*
X8680340Y30427013D01*
X8706204Y30357669D01*
X8792454Y30242454D01*
X8907669Y30156204D01*
X9042517Y30105909D01*
X9102127Y30099500D01*
X9597872Y30099501D01*
X9657483Y30105909D01*
X9792331Y30156204D01*
X9907546Y30242454D01*
X9993796Y30357669D01*
X10007284Y30393835D01*
X10033723Y30436070D01*
X10074653Y30464488D01*
X10123466Y30474500D01*
X10875500Y30474500D01*
X10937500Y30457887D01*
X10982887Y30412500D01*
X10999500Y30350500D01*
X10999500Y30333231D01*
X11002353Y30302804D01*
X11047207Y30174616D01*
X11127849Y30065350D01*
X11237115Y29984708D01*
X11237118Y29984707D01*
X11365301Y29939854D01*
X11377474Y29938713D01*
X11395731Y29937000D01*
X11395734Y29937000D01*
X11804266Y29937000D01*
X11804269Y29937000D01*
X11819482Y29938427D01*
X11834699Y29939854D01*
X11959547Y29983541D01*
X12017834Y29989280D01*
X12072255Y29967627D01*
X12110667Y29923412D01*
X12124500Y29866498D01*
X12124500Y29615576D01*
X12118287Y29576817D01*
X12100270Y29541942D01*
X12025618Y29440795D01*
X11982258Y29316878D01*
X11979500Y29287460D01*
X11979500Y28812546D01*
X11982258Y28783123D01*
X12025619Y28659205D01*
X12103576Y28553577D01*
X12128688Y28535044D01*
X12209206Y28475619D01*
X12333121Y28432259D01*
X12362543Y28429500D01*
X12737456Y28429501D01*
X12766879Y28432259D01*
X12890794Y28475619D01*
X12996423Y28553577D01*
X13074381Y28659206D01*
X13117741Y28783121D01*
X13120500Y28812543D01*
X13120499Y29287456D01*
X13117741Y29316879D01*
X13074381Y29440794D01*
X12999729Y29541943D01*
X12981713Y29576817D01*
X12975500Y29615576D01*
X12975500Y29866498D01*
X12989333Y29923412D01*
X13027745Y29967627D01*
X13082166Y29989280D01*
X13140452Y29983541D01*
X13265301Y29939854D01*
X13277474Y29938713D01*
X13295731Y29937000D01*
X13295734Y29937000D01*
X13704266Y29937000D01*
X13704269Y29937000D01*
X13719482Y29938427D01*
X13734699Y29939854D01*
X13862882Y29984707D01*
X13862882Y29984708D01*
X13862884Y29984708D01*
X13972150Y30065350D01*
X14052792Y30174616D01*
X14062466Y30202262D01*
X14097646Y30302801D01*
X14100447Y30332670D01*
X14100500Y30333231D01*
X14100500Y31466769D01*
X14097646Y31497197D01*
X14097646Y31497199D01*
X14052793Y31625382D01*
X14052792Y31625385D01*
X13972150Y31734651D01*
X13862884Y31815293D01*
X13734696Y31860147D01*
X13704269Y31863000D01*
X13704266Y31863000D01*
X13295734Y31863000D01*
X13295731Y31863000D01*
X13265303Y31860147D01*
X13137117Y31815293D01*
X13098631Y31786890D01*
X13051081Y31765436D01*
X12998915Y31765436D01*
X12951366Y31786892D01*
X12912884Y31815293D01*
X12784696Y31860147D01*
X12754269Y31863000D01*
X12754266Y31863000D01*
X12345734Y31863000D01*
X12345731Y31863000D01*
X12315303Y31860147D01*
X12187117Y31815293D01*
X12148631Y31786890D01*
X12101081Y31765436D01*
X12048915Y31765436D01*
X12001366Y31786892D01*
X11962884Y31815293D01*
X11834696Y31860147D01*
X11804269Y31863000D01*
X11804266Y31863000D01*
X11395734Y31863000D01*
X11395731Y31863000D01*
X11365303Y31860147D01*
X11237115Y31815293D01*
X11127849Y31734651D01*
X11047207Y31625385D01*
X11002353Y31497197D01*
X10999500Y31466769D01*
X10999500Y31449500D01*
X10982887Y31387500D01*
X10937500Y31342113D01*
X10875500Y31325500D01*
X10123466Y31325500D01*
X10074653Y31335512D01*
X10033723Y31363930D01*
X10007284Y31406167D01*
X10006342Y31408692D01*
X9993796Y31442331D01*
X9907546Y31557546D01*
X9792331Y31643796D01*
X9657483Y31694091D01*
X9597873Y31700500D01*
X9597869Y31700500D01*
X9102122Y31700500D01*
X9093514Y31699574D01*
X9033627Y31707969D01*
X8984833Y31743690D01*
X8958735Y31798242D01*
X8961542Y31858649D01*
X8992583Y31910543D01*
X9240222Y32158182D01*
X9280450Y32185061D01*
X9327903Y32194500D01*
X11776001Y32194500D01*
X11791813Y32196582D01*
X11855070Y32204910D01*
X11917070Y32221523D01*
X11990750Y32252042D01*
X12018080Y32273014D01*
X12065970Y32295528D01*
X12118891Y32296024D01*
X12167198Y32274408D01*
X12187116Y32259708D01*
X12187117Y32259708D01*
X12187118Y32259707D01*
X12315301Y32214854D01*
X12327474Y32213713D01*
X12345731Y32212000D01*
X12345734Y32212000D01*
X12754266Y32212000D01*
X12754269Y32212000D01*
X12769482Y32213427D01*
X12784699Y32214854D01*
X12912882Y32259707D01*
X12951366Y32288110D01*
X12998916Y32309566D01*
X13051084Y32309566D01*
X13098633Y32288110D01*
X13137118Y32259707D01*
X13265301Y32214854D01*
X13277474Y32213713D01*
X13295731Y32212000D01*
X13295734Y32212000D01*
X13704266Y32212000D01*
X13704269Y32212000D01*
X13719482Y32213427D01*
X13734699Y32214854D01*
X13862882Y32259707D01*
X13862882Y32259708D01*
X13862884Y32259708D01*
X13972150Y32340350D01*
X14052792Y32449616D01*
X14052793Y32449618D01*
X14097646Y32577801D01*
X14100500Y32608234D01*
X14100500Y33741766D01*
X14100391Y33742923D01*
X14097646Y33772197D01*
X14097646Y33772199D01*
X14052793Y33900382D01*
X14052792Y33900385D01*
X13972150Y34009651D01*
X13862884Y34090293D01*
X13741955Y34132607D01*
X13734699Y34135146D01*
X13734698Y34135147D01*
X13734696Y34135147D01*
X13704269Y34138000D01*
X13704266Y34138000D01*
X13295734Y34138000D01*
X13295731Y34138000D01*
X13257157Y34134383D01*
X13207167Y34129458D01*
X13152745Y34151111D01*
X13114333Y34195327D01*
X13100500Y34252241D01*
X13100500Y34548352D01*
X13107459Y34589307D01*
X13127710Y34647182D01*
X13130500Y34676930D01*
X13130500Y35123070D01*
X13127710Y35152819D01*
X13107459Y35210693D01*
X13100500Y35251648D01*
X13100500Y35876044D01*
X13106713Y35914802D01*
X13124161Y35948579D01*
X13124379Y35949205D01*
X13124381Y35949206D01*
X13167741Y36073121D01*
X13170500Y36102543D01*
X13170499Y36477456D01*
X13167741Y36506879D01*
X13142314Y36579546D01*
X13136574Y36637834D01*
X13158227Y36692255D01*
X13202442Y36730667D01*
X13259356Y36744500D01*
X16726001Y36744500D01*
X16741814Y36746583D01*
X16805070Y36754910D01*
X16867070Y36771523D01*
X16870168Y36772806D01*
X16923966Y36795090D01*
X16940750Y36802042D01*
X17004021Y36850592D01*
X17049408Y36895979D01*
X17097958Y36959250D01*
X17128477Y37032930D01*
X17145090Y37094930D01*
X17155500Y37174000D01*
X17155500Y38276074D01*
X17154750Y38281770D01*
X17145099Y38355113D01*
X17128499Y38417089D01*
X17125082Y38425341D01*
X17098001Y38490749D01*
X17049485Y38554009D01*
X17047392Y38556103D01*
X17004129Y38599393D01*
X16940899Y38647946D01*
X16867268Y38678485D01*
X16805290Y38695125D01*
X16726259Y38705574D01*
X16026787Y38705996D01*
X15979391Y38715443D01*
X15939205Y38742290D01*
X15740949Y38940435D01*
X15631338Y39049985D01*
X15600027Y39102726D01*
X15597825Y39164024D01*
X15625272Y39218879D01*
X15675652Y39253867D01*
X15736638Y39260428D01*
X15793305Y39236957D01*
X15807669Y39226204D01*
X15942517Y39175909D01*
X16002127Y39169500D01*
X16697872Y39169501D01*
X16757483Y39175909D01*
X16892331Y39226204D01*
X17007546Y39312454D01*
X17093796Y39427669D01*
X17144091Y39562517D01*
X17150500Y39622127D01*
X17150499Y40117872D01*
X17144091Y40177483D01*
X17093796Y40312331D01*
X17007546Y40427546D01*
X16892331Y40513796D01*
X16856165Y40527285D01*
X16813930Y40553723D01*
X16785512Y40594653D01*
X16775500Y40643466D01*
X16775500Y40793095D01*
X16789015Y40849390D01*
X16826615Y40893413D01*
X16880102Y40915568D01*
X16937818Y40911026D01*
X16987181Y40880776D01*
X17558180Y40309778D01*
X17585060Y40269550D01*
X17594499Y40222097D01*
X17594499Y39353321D01*
X17586681Y39309988D01*
X17555909Y39227485D01*
X17549500Y39167870D01*
X17549500Y38672131D01*
X17555909Y38612516D01*
X17606204Y38477668D01*
X17636041Y38437812D01*
X17651336Y38410954D01*
X17652042Y38409250D01*
X17693583Y38355113D01*
X17700596Y38345974D01*
X17745973Y38300597D01*
X17745977Y38300594D01*
X17745979Y38300592D01*
X17809250Y38252042D01*
X17809251Y38252042D01*
X17809252Y38252041D01*
X17882924Y38221525D01*
X17882927Y38221525D01*
X17882930Y38221523D01*
X17944930Y38204910D01*
X18004232Y38197103D01*
X18023999Y38194500D01*
X18024000Y38194500D01*
X21783120Y38194500D01*
X21783126Y38194500D01*
X21812722Y38196907D01*
X21832458Y38198510D01*
X21871982Y38204978D01*
X21965500Y38236426D01*
X22000898Y38255152D01*
X22042637Y38281771D01*
X22077582Y38308272D01*
X22107014Y38324821D01*
X22113135Y38327235D01*
X22135035Y38335873D01*
X22165753Y38343635D01*
X22169784Y38344119D01*
X22184545Y38345000D01*
X22715448Y38345000D01*
X22730218Y38344117D01*
X22734244Y38343634D01*
X22764961Y38335873D01*
X22792978Y38324825D01*
X22822414Y38308273D01*
X22857363Y38281770D01*
X22899105Y38255151D01*
X22934504Y38236425D01*
X22965396Y38226037D01*
X23028019Y38204977D01*
X23067542Y38198510D01*
X23116874Y38194500D01*
X23116880Y38194500D01*
X28427851Y38194500D01*
X28486304Y38179858D01*
X28530953Y38139391D01*
X28551254Y38082655D01*
X28542412Y38023048D01*
X28514956Y37956763D01*
X28494317Y37800000D01*
X28514956Y37643238D01*
X28575462Y37497162D01*
X28575463Y37497160D01*
X28575464Y37497159D01*
X28648878Y37401483D01*
X28667919Y37365860D01*
X28674500Y37326001D01*
X28674500Y35382607D01*
X28681962Y35359641D01*
X28686502Y35340730D01*
X28690281Y35316874D01*
X28690281Y35316873D01*
X28690282Y35316872D01*
X28701242Y35295362D01*
X28708689Y35277384D01*
X28716151Y35254418D01*
X28730340Y35234889D01*
X28740508Y35218297D01*
X28751471Y35196780D01*
X28775445Y35172807D01*
X28786071Y35162181D01*
X28816321Y35112818D01*
X28820863Y35055102D01*
X28798708Y35001615D01*
X28754685Y34964015D01*
X28698390Y34950500D01*
X27963485Y34950500D01*
X27916588Y34943073D01*
X27869696Y34935646D01*
X27869694Y34935646D01*
X27869693Y34935645D01*
X27756657Y34878051D01*
X27666950Y34788344D01*
X27609353Y34675303D01*
X27594500Y34581522D01*
X27594500Y34318486D01*
X27606314Y34243894D01*
X27609354Y34224696D01*
X27631468Y34181294D01*
X27644983Y34125002D01*
X27631469Y34068709D01*
X27628992Y34063848D01*
X27609353Y34025303D01*
X27594500Y33931522D01*
X27594500Y33668486D01*
X27608019Y33583123D01*
X27609354Y33574696D01*
X27631468Y33531294D01*
X27644983Y33475002D01*
X27631469Y33418708D01*
X27609353Y33375303D01*
X27594500Y33281522D01*
X27594500Y33018486D01*
X27602131Y32970301D01*
X27609354Y32924696D01*
X27631468Y32881294D01*
X27644983Y32825002D01*
X27631469Y32768708D01*
X27609353Y32725303D01*
X27594500Y32631522D01*
X27594500Y32368486D01*
X27605253Y32300592D01*
X27609354Y32274696D01*
X27631468Y32231294D01*
X27644983Y32175002D01*
X27631469Y32118708D01*
X27609353Y32075303D01*
X27594500Y31981522D01*
X27594500Y31718486D01*
X27594501Y31718482D01*
X27609354Y31624696D01*
X27631468Y31581293D01*
X27644983Y31525002D01*
X27631469Y31468708D01*
X27609353Y31425303D01*
X27594500Y31331522D01*
X27594500Y31068486D01*
X27594501Y31068482D01*
X27609354Y30974696D01*
X27609354Y30974695D01*
X27609355Y30974694D01*
X27666949Y30861658D01*
X27756656Y30771951D01*
X27756658Y30771950D01*
X27869696Y30714354D01*
X27900957Y30709403D01*
X27963479Y30699500D01*
X27963481Y30699500D01*
X28070500Y30699500D01*
X28132500Y30682887D01*
X28177887Y30637500D01*
X28194500Y30575500D01*
X28194500Y30465772D01*
X28188287Y30427013D01*
X28170270Y30392138D01*
X28086148Y30278158D01*
X28042289Y30152817D01*
X28039500Y30123070D01*
X28039500Y29676930D01*
X28042289Y29647184D01*
X28086148Y29521843D01*
X28165000Y29415001D01*
X28243853Y29356806D01*
X28271843Y29336148D01*
X28397181Y29292290D01*
X28407098Y29291361D01*
X28426930Y29289500D01*
X28426934Y29289500D01*
X28813066Y29289500D01*
X28813070Y29289500D01*
X28830067Y29291095D01*
X28842819Y29292290D01*
X28968157Y29336148D01*
X29074999Y29415001D01*
X29153852Y29521843D01*
X29197710Y29647181D01*
X29200500Y29676934D01*
X29200500Y30123066D01*
X29199633Y30132307D01*
X29197710Y30152817D01*
X29197710Y30152819D01*
X29153852Y30278157D01*
X29074999Y30384999D01*
X29074998Y30385000D01*
X29069730Y30392138D01*
X29051713Y30427013D01*
X29045500Y30465772D01*
X29045500Y30575501D01*
X29062113Y30637501D01*
X29107500Y30682888D01*
X29169500Y30699501D01*
X29276514Y30699501D01*
X29276518Y30699501D01*
X29370304Y30714354D01*
X29432095Y30745839D01*
X29461823Y30760985D01*
X29518117Y30774500D01*
X30492390Y30774500D01*
X30539843Y30765061D01*
X30580071Y30738181D01*
X30721471Y30596781D01*
X30721472Y30596780D01*
X30816780Y30501472D01*
X30838288Y30490513D01*
X30854876Y30480348D01*
X30874417Y30466151D01*
X30874418Y30466151D01*
X30874419Y30466150D01*
X30897381Y30458690D01*
X30915362Y30451242D01*
X30925939Y30445853D01*
X30936874Y30440281D01*
X30960724Y30436504D01*
X30979641Y30431962D01*
X31002607Y30424500D01*
X31036512Y30424500D01*
X31137393Y30424500D01*
X32455858Y30424500D01*
X32504670Y30414488D01*
X32545600Y30386071D01*
X32572039Y30343835D01*
X32576204Y30332669D01*
X32662454Y30217454D01*
X32777669Y30131204D01*
X32912517Y30080909D01*
X32972127Y30074500D01*
X33467872Y30074501D01*
X33527483Y30080909D01*
X33662331Y30131204D01*
X33777546Y30217454D01*
X33863796Y30332669D01*
X33914091Y30467517D01*
X33920500Y30527127D01*
X33920499Y31172872D01*
X33914091Y31232483D01*
X33904884Y31257166D01*
X33898033Y31315953D01*
X33919209Y31371220D01*
X33963591Y31410375D01*
X34021066Y31424500D01*
X34068933Y31424500D01*
X34126408Y31410376D01*
X34170789Y31371220D01*
X34191966Y31315954D01*
X34185115Y31257167D01*
X34175909Y31232486D01*
X34169500Y31172870D01*
X34169500Y30527131D01*
X34175909Y30467516D01*
X34196429Y30412500D01*
X34226204Y30332669D01*
X34312454Y30217454D01*
X34427669Y30131204D01*
X34562517Y30080909D01*
X34622127Y30074500D01*
X35117872Y30074501D01*
X35177483Y30080909D01*
X35312331Y30131204D01*
X35427546Y30217454D01*
X35513796Y30332669D01*
X35517961Y30343835D01*
X35544400Y30386071D01*
X35585330Y30414488D01*
X35634142Y30424500D01*
X35702827Y30424500D01*
X35766576Y30406858D01*
X35812184Y30358954D01*
X35825427Y30334180D01*
X35852307Y30293952D01*
X35852308Y30293951D01*
X35890300Y30247657D01*
X35967656Y30170301D01*
X35985780Y30155427D01*
X36013952Y30132307D01*
X36054180Y30105427D01*
X36106998Y30077194D01*
X36164309Y30059809D01*
X36164315Y30059808D01*
X36164318Y30059807D01*
X36210558Y30050610D01*
X36211762Y30050370D01*
X36271362Y30044500D01*
X36307027Y30044500D01*
X36321812Y30043615D01*
X36376895Y30037000D01*
X36376898Y30037000D01*
X37363102Y30037000D01*
X37363105Y30037000D01*
X37418188Y30043615D01*
X37432973Y30044500D01*
X37468638Y30044500D01*
X37528238Y30050370D01*
X37575691Y30059809D01*
X37633002Y30077194D01*
X37685820Y30105427D01*
X37726048Y30132307D01*
X37772340Y30170298D01*
X37849702Y30247660D01*
X37887693Y30293952D01*
X37914573Y30334180D01*
X37942806Y30386998D01*
X37960191Y30444309D01*
X37969630Y30491762D01*
X37975500Y30551362D01*
X37975500Y32548638D01*
X37969630Y32608238D01*
X37961690Y32648157D01*
X37960193Y32655682D01*
X37960192Y32655685D01*
X37960191Y32655691D01*
X37942806Y32713002D01*
X37914573Y32765820D01*
X37887693Y32806048D01*
X37864875Y32833852D01*
X37849699Y32852344D01*
X37522343Y33179700D01*
X37476049Y33217692D01*
X37473508Y33219390D01*
X37435820Y33244573D01*
X37383002Y33272806D01*
X37325691Y33290191D01*
X37325690Y33290192D01*
X37325681Y33290194D01*
X37278242Y33299630D01*
X37218638Y33305500D01*
X36521362Y33305500D01*
X36461764Y33299631D01*
X36437776Y33294859D01*
X36375267Y33298546D01*
X36322529Y33332306D01*
X36293012Y33387530D01*
X36294242Y33450136D01*
X36325905Y33504158D01*
X36584929Y33763182D01*
X36625157Y33790062D01*
X36672610Y33799501D01*
X37217870Y33799501D01*
X37217872Y33799501D01*
X37277483Y33805909D01*
X37412331Y33856204D01*
X37527546Y33942454D01*
X37613796Y34057669D01*
X37664091Y34192517D01*
X37670500Y34252127D01*
X37670499Y34747872D01*
X37664091Y34807483D01*
X37613796Y34942331D01*
X37527546Y35057546D01*
X37412331Y35143796D01*
X37277483Y35194091D01*
X37217873Y35200500D01*
X37217869Y35200500D01*
X36522130Y35200500D01*
X36462515Y35194091D01*
X36327669Y35143796D01*
X36212454Y35057546D01*
X36126204Y34942332D01*
X36075909Y34807484D01*
X36069500Y34747869D01*
X36069500Y34502611D01*
X36060061Y34455158D01*
X36033181Y34414930D01*
X35221017Y33602767D01*
X35159945Y33569337D01*
X35090484Y33574088D01*
X35034532Y33615523D01*
X34937922Y33742923D01*
X34839322Y33817693D01*
X34817342Y33834361D01*
X34817340Y33834362D01*
X34676567Y33889877D01*
X34632333Y33895189D01*
X34588102Y33900500D01*
X33551898Y33900500D01*
X33485551Y33892533D01*
X33463435Y33889877D01*
X33322145Y33834159D01*
X33269836Y33825702D01*
X33218773Y33839852D01*
X33178279Y33874028D01*
X33098282Y33978283D01*
X32972840Y34074537D01*
X32826762Y34135044D01*
X32670000Y34155683D01*
X32535691Y34138000D01*
X32513238Y34135044D01*
X32488992Y34125001D01*
X32463601Y34114484D01*
X32410505Y34105175D01*
X32358475Y34119275D01*
X32317346Y34154121D01*
X32287922Y34192923D01*
X32195575Y34262951D01*
X32167342Y34284361D01*
X32167340Y34284362D01*
X32026567Y34339877D01*
X31982333Y34345189D01*
X31938102Y34350500D01*
X30901898Y34350500D01*
X30863985Y34345948D01*
X30813432Y34339877D01*
X30672661Y34284363D01*
X30672658Y34284362D01*
X30672658Y34284361D01*
X30644423Y34262951D01*
X30581128Y34238301D01*
X30514340Y34250699D01*
X30464106Y34296424D01*
X30445500Y34361755D01*
X30445500Y36584228D01*
X30451713Y36622987D01*
X30469730Y36657862D01*
X30474999Y36665001D01*
X30553852Y36771843D01*
X30597710Y36897181D01*
X30600500Y36926934D01*
X30600500Y37373066D01*
X30597710Y37402819D01*
X30553852Y37528157D01*
X30519730Y37574391D01*
X30501713Y37609266D01*
X30495500Y37648025D01*
X30495500Y38070500D01*
X30512113Y38132500D01*
X30557500Y38177887D01*
X30619500Y38194500D01*
X34576001Y38194500D01*
X34605926Y38198440D01*
X34622112Y38199501D01*
X34739867Y38199501D01*
X34752427Y38200959D01*
X34764991Y38202415D01*
X34867765Y38247794D01*
X34947206Y38327235D01*
X34992585Y38430009D01*
X34995500Y38455135D01*
X34995499Y38539917D01*
X34996560Y38556103D01*
X35005500Y38624001D01*
X35005500Y41876001D01*
X34996560Y41943904D01*
X34995499Y41960090D01*
X34995499Y42044867D01*
X34993750Y42059941D01*
X34992585Y42069991D01*
X34947206Y42172765D01*
X34947204Y42172767D01*
X34947204Y42172768D01*
X34867767Y42252205D01*
X34867765Y42252206D01*
X34764991Y42297585D01*
X34739865Y42300500D01*
X34739864Y42300500D01*
X34622105Y42300500D01*
X34605919Y42301561D01*
X34576001Y42305500D01*
X34576000Y42305500D01*
X32356611Y42305500D01*
X32300316Y42319015D01*
X32256293Y42356615D01*
X32234138Y42410102D01*
X32238680Y42467818D01*
X32268930Y42517181D01*
X32307108Y42555360D01*
X32307110Y42555364D01*
X33589928Y43838181D01*
X33630157Y43865061D01*
X33677610Y43874500D01*
X65822390Y43874500D01*
X65869843Y43865061D01*
X65910071Y43838181D01*
X67638181Y42110071D01*
X67665061Y42069843D01*
X67674500Y42022390D01*
X67674500Y41406905D01*
X67660985Y41350610D01*
X67623385Y41306587D01*
X67569898Y41284432D01*
X67512182Y41288974D01*
X67462819Y41319224D01*
X66752343Y42029700D01*
X66706049Y42067692D01*
X66702830Y42069843D01*
X66665820Y42094573D01*
X66613002Y42122806D01*
X66555691Y42140191D01*
X66555690Y42140192D01*
X66555681Y42140194D01*
X66508242Y42149630D01*
X66448638Y42155500D01*
X60401362Y42155500D01*
X60341757Y42149630D01*
X60294318Y42140194D01*
X60277124Y42134978D01*
X60236998Y42122806D01*
X60236996Y42122806D01*
X60236996Y42122805D01*
X60184181Y42094574D01*
X60143950Y42067692D01*
X60097656Y42029700D01*
X59720297Y41652341D01*
X59700203Y41627856D01*
X59646124Y41589770D01*
X59580159Y41584905D01*
X59521077Y41614645D01*
X59485691Y41670526D01*
X59472806Y41713002D01*
X59444573Y41765820D01*
X59417693Y41806048D01*
X59396446Y41831937D01*
X59379699Y41852344D01*
X59102343Y42129700D01*
X59056049Y42167692D01*
X59048457Y42172765D01*
X59015820Y42194573D01*
X58963002Y42222806D01*
X58905691Y42240191D01*
X58905690Y42240192D01*
X58905681Y42240194D01*
X58858242Y42249630D01*
X58798638Y42255500D01*
X56474000Y42255500D01*
X56473999Y42255500D01*
X56394933Y42245091D01*
X56332924Y42228476D01*
X56259252Y42197960D01*
X56195973Y42149404D01*
X56150596Y42104027D01*
X56102040Y42040748D01*
X56071524Y41967076D01*
X56054909Y41905067D01*
X56044500Y41826001D01*
X56044500Y40123999D01*
X56054909Y40044934D01*
X56071524Y39982925D01*
X56102040Y39909253D01*
X56150596Y39845974D01*
X56195973Y39800597D01*
X56195977Y39800594D01*
X56195979Y39800592D01*
X56259250Y39752042D01*
X56259251Y39752042D01*
X56259252Y39752041D01*
X56332924Y39721525D01*
X56332927Y39721525D01*
X56332930Y39721523D01*
X56394930Y39704910D01*
X56441704Y39698752D01*
X56473999Y39694500D01*
X56474000Y39694500D01*
X58848638Y39694500D01*
X58908238Y39700370D01*
X58955691Y39709809D01*
X59013002Y39727194D01*
X59065820Y39755427D01*
X59106048Y39782307D01*
X59152340Y39820298D01*
X59379702Y40047660D01*
X59417693Y40093952D01*
X59444573Y40134180D01*
X59472806Y40186998D01*
X59490191Y40244309D01*
X59492475Y40255796D01*
X59524283Y40317107D01*
X59583960Y40351891D01*
X59652987Y40349350D01*
X59709946Y40310273D01*
X59720299Y40297658D01*
X60497656Y39520301D01*
X60503689Y39515350D01*
X60543952Y39482307D01*
X60584180Y39455427D01*
X60636998Y39427194D01*
X60694309Y39409809D01*
X60694315Y39409808D01*
X60694318Y39409807D01*
X60740558Y39400610D01*
X60741762Y39400370D01*
X60801362Y39394500D01*
X65187641Y39394500D01*
X65228596Y39387541D01*
X65272181Y39372290D01*
X65301930Y39369500D01*
X65301934Y39369500D01*
X65748066Y39369500D01*
X65748070Y39369500D01*
X65771868Y39371733D01*
X65777819Y39372290D01*
X65806639Y39382375D01*
X65821404Y39387541D01*
X65862359Y39394500D01*
X66855956Y39394500D01*
X66875218Y39391228D01*
X66875222Y39391268D01*
X66920731Y39387000D01*
X66920734Y39387000D01*
X67329266Y39387000D01*
X67329269Y39387000D01*
X67344482Y39388427D01*
X67359699Y39389854D01*
X67487882Y39434707D01*
X67526366Y39463110D01*
X67573916Y39484566D01*
X67626084Y39484566D01*
X67673633Y39463110D01*
X67712118Y39434707D01*
X67840301Y39389854D01*
X67852474Y39388713D01*
X67870731Y39387000D01*
X67870734Y39387000D01*
X68279266Y39387000D01*
X68279269Y39387000D01*
X68294482Y39388427D01*
X68309699Y39389854D01*
X68437882Y39434707D01*
X68476366Y39463110D01*
X68523916Y39484566D01*
X68576084Y39484566D01*
X68623633Y39463110D01*
X68662118Y39434707D01*
X68790301Y39389854D01*
X68802474Y39388713D01*
X68820731Y39387000D01*
X68820734Y39387000D01*
X69229266Y39387000D01*
X69229269Y39387000D01*
X69244482Y39388427D01*
X69259699Y39389854D01*
X69387882Y39434707D01*
X69387882Y39434708D01*
X69387884Y39434708D01*
X69501867Y39518830D01*
X69565078Y39542621D01*
X69631381Y39529754D01*
X69681106Y39484047D01*
X69699500Y39419060D01*
X69699500Y39005940D01*
X69681106Y38940953D01*
X69631381Y38895246D01*
X69565078Y38882379D01*
X69501867Y38906170D01*
X69387884Y38990293D01*
X69259696Y39035147D01*
X69229269Y39038000D01*
X69229266Y39038000D01*
X68820734Y39038000D01*
X68820731Y39038000D01*
X68790303Y39035147D01*
X68662117Y38990293D01*
X68623632Y38961890D01*
X68576082Y38940435D01*
X68523915Y38940435D01*
X68476366Y38961891D01*
X68437882Y38990293D01*
X68417786Y38997325D01*
X68411300Y38999801D01*
X68342070Y39028477D01*
X68280070Y39045090D01*
X68280069Y39045091D01*
X68280066Y39045091D01*
X68201001Y39055500D01*
X68201000Y39055500D01*
X67949000Y39055500D01*
X67948999Y39055500D01*
X67869933Y39045091D01*
X67843728Y39038070D01*
X67807930Y39028477D01*
X67738684Y38999796D01*
X67732206Y38997323D01*
X67712120Y38990295D01*
X67602847Y38909649D01*
X67522207Y38800385D01*
X67477353Y38672197D01*
X67474500Y38641769D01*
X67474500Y37508231D01*
X67477353Y37477804D01*
X67512542Y37377239D01*
X67519500Y37336285D01*
X67519500Y37227904D01*
X67510061Y37180451D01*
X67483181Y37140223D01*
X66734777Y36391819D01*
X66694549Y36364939D01*
X66647096Y36355500D01*
X65126362Y36355500D01*
X65066757Y36349630D01*
X65019318Y36340194D01*
X64995990Y36333118D01*
X64961998Y36322806D01*
X64961996Y36322806D01*
X64961996Y36322805D01*
X64909181Y36294574D01*
X64868950Y36267692D01*
X64822656Y36229700D01*
X64445300Y35852344D01*
X64407308Y35806050D01*
X64380426Y35765819D01*
X64371929Y35749922D01*
X64352194Y35713002D01*
X64344614Y35688014D01*
X64334806Y35655682D01*
X64325370Y35608243D01*
X64319500Y35548638D01*
X64319500Y34373998D01*
X64323439Y34344077D01*
X64324500Y34327894D01*
X64324500Y34205133D01*
X64327414Y34180012D01*
X64327414Y34180010D01*
X64327415Y34180009D01*
X64362582Y34100363D01*
X64372795Y34077233D01*
X64452232Y33997796D01*
X64452233Y33997796D01*
X64452235Y33997794D01*
X64555009Y33952415D01*
X64580135Y33949500D01*
X64702890Y33949501D01*
X64719078Y33948441D01*
X64749000Y33944500D01*
X68201000Y33944500D01*
X68201001Y33944500D01*
X68230926Y33948440D01*
X68247112Y33949501D01*
X68369867Y33949501D01*
X68382427Y33950959D01*
X68394991Y33952415D01*
X68497765Y33997794D01*
X68577206Y34077235D01*
X68622585Y34180009D01*
X68625500Y34205135D01*
X68625499Y34327894D01*
X68626560Y34344080D01*
X68628646Y34359923D01*
X68630500Y34374000D01*
X68630500Y35631101D01*
X68644333Y35688014D01*
X68682744Y35732230D01*
X68737165Y35753883D01*
X68795453Y35748143D01*
X68812181Y35742290D01*
X68841930Y35739500D01*
X68841934Y35739500D01*
X69228066Y35739500D01*
X69228070Y35739500D01*
X69245067Y35741095D01*
X69257819Y35742290D01*
X69383157Y35786148D01*
X69489999Y35865001D01*
X69489998Y35865001D01*
X69501866Y35873759D01*
X69565078Y35897550D01*
X69631381Y35884684D01*
X69681106Y35838976D01*
X69699500Y35773989D01*
X69699500Y34409216D01*
X69695193Y34378342D01*
X69694299Y34350651D01*
X69694195Y34350001D01*
X69697973Y34326152D01*
X69699500Y34306755D01*
X69699500Y33659216D01*
X69695193Y33628342D01*
X69694299Y33600651D01*
X69694195Y33600001D01*
X69697973Y33576152D01*
X69699500Y33556755D01*
X69699500Y32952610D01*
X69690061Y32905157D01*
X69663181Y32864929D01*
X69060071Y32261819D01*
X69019843Y32234939D01*
X68972390Y32225500D01*
X68779500Y32225500D01*
X68717500Y32242113D01*
X68672113Y32287500D01*
X68655500Y32349500D01*
X68655500Y32376001D01*
X68645808Y32449616D01*
X68645090Y32455070D01*
X68628477Y32517070D01*
X68624675Y32526248D01*
X68597959Y32590748D01*
X68597958Y32590749D01*
X68597958Y32590750D01*
X68549408Y32654021D01*
X68549406Y32654023D01*
X68549403Y32654027D01*
X68504026Y32699404D01*
X68486305Y32713002D01*
X68440750Y32747958D01*
X68440749Y32747959D01*
X68440747Y32747960D01*
X68367075Y32778476D01*
X68305066Y32795091D01*
X68226001Y32805500D01*
X68226000Y32805500D01*
X64777904Y32805500D01*
X64730451Y32814939D01*
X64690223Y32841819D01*
X63752343Y33779700D01*
X63706049Y33817692D01*
X63706048Y33817693D01*
X63665820Y33844573D01*
X63613002Y33872806D01*
X63555691Y33890191D01*
X63555690Y33890192D01*
X63555681Y33890194D01*
X63508242Y33899630D01*
X63448638Y33905500D01*
X57274000Y33905500D01*
X57273999Y33905500D01*
X57194933Y33895091D01*
X57132924Y33878476D01*
X57059252Y33847960D01*
X56995973Y33799404D01*
X56950596Y33754027D01*
X56902040Y33690748D01*
X56871524Y33617075D01*
X56854909Y33555068D01*
X56847348Y33497637D01*
X56839765Y33468338D01*
X56835122Y33456564D01*
X56824500Y33368107D01*
X56824500Y33368102D01*
X56824500Y32631898D01*
X56831889Y32570365D01*
X56835123Y32543435D01*
X56835854Y32541582D01*
X56844500Y32496091D01*
X56844500Y31223999D01*
X56854909Y31144934D01*
X56871524Y31082925D01*
X56902040Y31009253D01*
X56902041Y31009251D01*
X56902042Y31009250D01*
X56928558Y30974694D01*
X56950596Y30945974D01*
X56995973Y30900597D01*
X56995977Y30900594D01*
X56995979Y30900592D01*
X57059250Y30852042D01*
X57059251Y30852042D01*
X57059252Y30852041D01*
X57072952Y30846366D01*
X57113181Y30819486D01*
X57140061Y30779258D01*
X57149500Y30731805D01*
X57149500Y30332940D01*
X57140061Y30285487D01*
X57113180Y30245258D01*
X57070184Y30202264D01*
X56974744Y30050371D01*
X56974211Y30049522D01*
X56951532Y29984708D01*
X56914631Y29879252D01*
X56894434Y29700000D01*
X56914631Y29520749D01*
X56914631Y29520747D01*
X56914632Y29520745D01*
X56974211Y29350478D01*
X57010773Y29292290D01*
X57070185Y29197736D01*
X57197735Y29070186D01*
X57197737Y29070185D01*
X57197738Y29070184D01*
X57350478Y28974211D01*
X57520745Y28914632D01*
X57700000Y28894435D01*
X57879255Y28914632D01*
X58049522Y28974211D01*
X58202262Y29070184D01*
X58329816Y29197738D01*
X58425789Y29350478D01*
X58485368Y29520745D01*
X58505565Y29700000D01*
X58485368Y29879255D01*
X58425789Y30049522D01*
X58329816Y30202262D01*
X58329815Y30202264D01*
X58286820Y30245258D01*
X58259939Y30285487D01*
X58250500Y30332940D01*
X58250500Y30670500D01*
X58267113Y30732500D01*
X58312500Y30777887D01*
X58374500Y30794500D01*
X68226001Y30794500D01*
X68241813Y30796582D01*
X68305070Y30804910D01*
X68367070Y30821523D01*
X68440750Y30852042D01*
X68504021Y30900592D01*
X68549408Y30945979D01*
X68597958Y31009250D01*
X68622492Y31068481D01*
X68628475Y31082925D01*
X68628475Y31082926D01*
X68628477Y31082930D01*
X68645090Y31144930D01*
X68655500Y31224000D01*
X68655500Y31250500D01*
X68672113Y31312500D01*
X68717500Y31357887D01*
X68779500Y31374500D01*
X69267391Y31374500D01*
X69267393Y31374500D01*
X69290363Y31381965D01*
X69309266Y31386503D01*
X69333126Y31390281D01*
X69354647Y31401248D01*
X69372616Y31408691D01*
X69395581Y31416151D01*
X69415111Y31430342D01*
X69431704Y31440511D01*
X69453220Y31451472D01*
X69548528Y31546780D01*
X69548528Y31546781D01*
X70449554Y32447806D01*
X70466995Y32465247D01*
X70466995Y32465248D01*
X70473528Y32471780D01*
X70484493Y32493302D01*
X70494656Y32509885D01*
X70508850Y32529420D01*
X70516313Y32552391D01*
X70523751Y32570350D01*
X70534719Y32591874D01*
X70538495Y32615722D01*
X70543036Y32634640D01*
X70550500Y32657607D01*
X70550500Y32792393D01*
X70550500Y33540784D01*
X70554807Y33571663D01*
X70555702Y33599362D01*
X70555804Y33600000D01*
X70552027Y33623847D01*
X70550500Y33643245D01*
X70550500Y34290784D01*
X70554807Y34321663D01*
X70555702Y34349362D01*
X70555804Y34350000D01*
X70552027Y34373847D01*
X70550500Y34393245D01*
X70550500Y39942392D01*
X70543039Y39965352D01*
X70538495Y39984281D01*
X70534719Y40008126D01*
X70523757Y40029639D01*
X70516308Y40047622D01*
X70516296Y40047660D01*
X70508849Y40070581D01*
X70497009Y40086878D01*
X70494654Y40090120D01*
X70484489Y40106708D01*
X70473528Y40128220D01*
X70378220Y40223528D01*
X69927194Y40674554D01*
X69927193Y40674555D01*
X69903220Y40698529D01*
X69881703Y40709492D01*
X69865111Y40719660D01*
X69845582Y40733849D01*
X69822616Y40741311D01*
X69804638Y40748758D01*
X69783128Y40759718D01*
X69783127Y40759719D01*
X69783126Y40759719D01*
X69759270Y40763498D01*
X69740360Y40768038D01*
X69711183Y40777518D01*
X69666528Y40803299D01*
X69636220Y40845013D01*
X69625500Y40895449D01*
X69625500Y40916769D01*
X69622646Y40947197D01*
X69622646Y40947199D01*
X69577793Y41075382D01*
X69577792Y41075385D01*
X69497150Y41184651D01*
X69387884Y41265293D01*
X69259696Y41310147D01*
X69229269Y41313000D01*
X69229266Y41313000D01*
X68820734Y41313000D01*
X68820731Y41313000D01*
X68790303Y41310147D01*
X68690454Y41275208D01*
X68632166Y41269468D01*
X68577745Y41291121D01*
X68539333Y41335336D01*
X68525500Y41392250D01*
X68525500Y42317393D01*
X68518038Y42340359D01*
X68513495Y42359280D01*
X68512407Y42366151D01*
X68509719Y42383126D01*
X68498758Y42404638D01*
X68491310Y42422619D01*
X68483849Y42445583D01*
X68469652Y42465124D01*
X68459487Y42481712D01*
X68448527Y42503221D01*
X66344635Y44607113D01*
X66344633Y44607116D01*
X66327194Y44624554D01*
X66327194Y44624555D01*
X66303220Y44648528D01*
X66286102Y44657250D01*
X66281702Y44659492D01*
X66265111Y44669660D01*
X66245582Y44683849D01*
X66222616Y44691311D01*
X66204638Y44698758D01*
X66183128Y44709718D01*
X66183127Y44709719D01*
X66183126Y44709719D01*
X66159270Y44713498D01*
X66140359Y44718038D01*
X66117393Y44725500D01*
X66083488Y44725500D01*
X33517393Y44725500D01*
X33382607Y44725500D01*
X33382606Y44725500D01*
X33359639Y44718038D01*
X33340723Y44713497D01*
X33316874Y44709720D01*
X33295356Y44698756D01*
X33277387Y44691313D01*
X33254419Y44683850D01*
X33234880Y44669654D01*
X33218293Y44659490D01*
X33196781Y44648530D01*
X33155364Y44607113D01*
X31760071Y43211819D01*
X31719843Y43184939D01*
X31672390Y43175500D01*
X26423999Y43175500D01*
X26384140Y43182081D01*
X26348517Y43201122D01*
X26252841Y43274536D01*
X26252840Y43274537D01*
X26252838Y43274538D01*
X26106762Y43335044D01*
X25950000Y43355683D01*
X25793237Y43335044D01*
X25647161Y43274538D01*
X25621380Y43254756D01*
X25551482Y43201122D01*
X25515860Y43182081D01*
X25476001Y43175500D01*
X11082606Y43175500D01*
X11059633Y43168037D01*
X11040722Y43163497D01*
X11016873Y43159720D01*
X10995362Y43148759D01*
X10977386Y43141313D01*
X10954419Y43133851D01*
X10934881Y43119656D01*
X10918299Y43109494D01*
X10896779Y43098528D01*
X10810071Y43011819D01*
X10769843Y42984939D01*
X10722390Y42975500D01*
X10718465Y42975500D01*
X10662961Y42988616D01*
X10619198Y43025189D01*
X10557546Y43107546D01*
X10442331Y43193796D01*
X10307483Y43244091D01*
X10247873Y43250500D01*
X10247869Y43250500D01*
X9552130Y43250500D01*
X9492515Y43244091D01*
X9357669Y43193796D01*
X9242454Y43107546D01*
X9180802Y43025189D01*
X9137039Y42988616D01*
X9081535Y42975500D01*
X7932606Y42975500D01*
X7909639Y42968038D01*
X7890723Y42963497D01*
X7866874Y42959720D01*
X7845356Y42948756D01*
X7827388Y42941314D01*
X7804420Y42933851D01*
X7784882Y42919656D01*
X7768300Y42909494D01*
X7746780Y42898529D01*
X7705363Y42857112D01*
X5260071Y40411819D01*
X5219843Y40384939D01*
X5172390Y40375500D01*
X2582606Y40375500D01*
X2559639Y40368038D01*
X2540723Y40363497D01*
X2516874Y40359720D01*
X2495356Y40348756D01*
X2477387Y40341313D01*
X2454419Y40333850D01*
X2434884Y40319657D01*
X2418301Y40309495D01*
X2396781Y40298530D01*
X2371711Y40273459D01*
X2301472Y40203220D01*
X2301471Y40203219D01*
X1629339Y39531088D01*
X1629338Y39531087D01*
X1629339Y39531087D01*
X1551470Y39453218D01*
X1540509Y39431706D01*
X1530347Y39415123D01*
X1516151Y39395583D01*
X1508687Y39372613D01*
X1501244Y39354644D01*
X1490280Y39333126D01*
X1486503Y39309277D01*
X1481962Y39290361D01*
X1474500Y39267394D01*
X1474500Y27749499D01*
X1457887Y27687499D01*
X1412500Y27642112D01*
X1350500Y27625499D01*
X1005133Y27625499D01*
X980011Y27622586D01*
X877232Y27577205D01*
X797795Y27497768D01*
X752415Y27394991D01*
X749500Y27369864D01*
X749500Y25580133D01*
X500000Y25580133D01*
X500000Y44448638D01*
X509439Y44496091D01*
X536319Y44536319D01*
X2963681Y46963681D01*
X3003909Y46990561D01*
X3051362Y47000000D01*
X81948638Y47000000D01*
X81996091Y46990561D01*
G37*
%TD.AperFunction*%
%TD*%
%TA.AperFunction,Conductor*%
%TO.N,/Power Conversion/BUCK_VIN*%
G36*
X66496091Y41840561D02*
G01*
X66536319Y41813681D01*
X67363681Y40986319D01*
X67390561Y40946091D01*
X67400000Y40898638D01*
X67400000Y39824000D01*
X67383387Y39762000D01*
X67338000Y39716613D01*
X67276000Y39700000D01*
X60801362Y39700000D01*
X60753909Y39709439D01*
X60713681Y39736319D01*
X59936319Y40513681D01*
X59909439Y40553909D01*
X59900000Y40601362D01*
X59900000Y41348638D01*
X59909439Y41396091D01*
X59936319Y41436319D01*
X60313681Y41813681D01*
X60353909Y41840561D01*
X60401362Y41850000D01*
X66448638Y41850000D01*
X66496091Y41840561D01*
G37*
%TD.AperFunction*%
%TD*%
M02*
