%TF.GenerationSoftware,KiCad,Pcbnew,7.0.1*%
%TF.CreationDate,2023-07-29T01:53:36-07:00*%
%TF.ProjectId,FET_Amplifier_HW,4645545f-416d-4706-9c69-666965725f48,rev?*%
%TF.SameCoordinates,PX4b571c0PY5a995c0*%
%TF.FileFunction,Paste,Top*%
%TF.FilePolarity,Positive*%
%FSLAX46Y46*%
G04 Gerber Fmt 4.6, Leading zero omitted, Abs format (unit mm)*
G04 Created by KiCad (PCBNEW 7.0.1) date 2023-07-29 01:53:36*
%MOMM*%
%LPD*%
G01*
G04 APERTURE LIST*
G04 Aperture macros list*
%AMRoundRect*
0 Rectangle with rounded corners*
0 $1 Rounding radius*
0 $2 $3 $4 $5 $6 $7 $8 $9 X,Y pos of 4 corners*
0 Add a 4 corners polygon primitive as box body*
4,1,4,$2,$3,$4,$5,$6,$7,$8,$9,$2,$3,0*
0 Add four circle primitives for the rounded corners*
1,1,$1+$1,$2,$3*
1,1,$1+$1,$4,$5*
1,1,$1+$1,$6,$7*
1,1,$1+$1,$8,$9*
0 Add four rect primitives between the rounded corners*
20,1,$1+$1,$2,$3,$4,$5,0*
20,1,$1+$1,$4,$5,$6,$7,0*
20,1,$1+$1,$6,$7,$8,$9,0*
20,1,$1+$1,$8,$9,$2,$3,0*%
%AMFreePoly0*
4,1,9,3.862500,-0.866500,0.737500,-0.866500,0.737500,-0.450000,-0.737500,-0.450000,-0.737500,0.450000,0.737500,0.450000,0.737500,0.866500,3.862500,0.866500,3.862500,-0.866500,3.862500,-0.866500,$1*%
G04 Aperture macros list end*
%ADD10C,0.120000*%
%ADD11RoundRect,0.225000X0.250000X-0.225000X0.250000X0.225000X-0.250000X0.225000X-0.250000X-0.225000X0*%
%ADD12RoundRect,0.250000X0.850000X-0.375000X0.850000X0.375000X-0.850000X0.375000X-0.850000X-0.375000X0*%
%ADD13RoundRect,0.225000X0.225000X0.250000X-0.225000X0.250000X-0.225000X-0.250000X0.225000X-0.250000X0*%
%ADD14RoundRect,0.135000X-0.185000X0.135000X-0.185000X-0.135000X0.185000X-0.135000X0.185000X0.135000X0*%
%ADD15RoundRect,0.218750X-0.218750X-0.256250X0.218750X-0.256250X0.218750X0.256250X-0.218750X0.256250X0*%
%ADD16RoundRect,0.250000X-1.100000X0.325000X-1.100000X-0.325000X1.100000X-0.325000X1.100000X0.325000X0*%
%ADD17RoundRect,0.200000X0.200000X0.275000X-0.200000X0.275000X-0.200000X-0.275000X0.200000X-0.275000X0*%
%ADD18RoundRect,0.135000X0.135000X0.185000X-0.135000X0.185000X-0.135000X-0.185000X0.135000X-0.185000X0*%
%ADD19RoundRect,0.250000X1.100000X-0.325000X1.100000X0.325000X-1.100000X0.325000X-1.100000X-0.325000X0*%
%ADD20RoundRect,0.200000X-0.300000X-0.200000X0.300000X-0.200000X0.300000X0.200000X-0.300000X0.200000X0*%
%ADD21RoundRect,0.200000X0.275000X-0.200000X0.275000X0.200000X-0.275000X0.200000X-0.275000X-0.200000X0*%
%ADD22RoundRect,0.150000X0.150000X-0.512500X0.150000X0.512500X-0.150000X0.512500X-0.150000X-0.512500X0*%
%ADD23RoundRect,0.140000X-0.170000X0.140000X-0.170000X-0.140000X0.170000X-0.140000X0.170000X0.140000X0*%
%ADD24RoundRect,0.150000X-0.150000X0.512500X-0.150000X-0.512500X0.150000X-0.512500X0.150000X0.512500X0*%
%ADD25RoundRect,0.140000X0.140000X0.170000X-0.140000X0.170000X-0.140000X-0.170000X0.140000X-0.170000X0*%
%ADD26R,1.300000X1.300000*%
%ADD27R,1.300000X2.000000*%
%ADD28R,0.900000X1.300000*%
%ADD29FreePoly0,90.000000*%
%ADD30RoundRect,0.135000X0.185000X-0.135000X0.185000X0.135000X-0.185000X0.135000X-0.185000X-0.135000X0*%
%ADD31RoundRect,0.200000X-0.275000X0.200000X-0.275000X-0.200000X0.275000X-0.200000X0.275000X0.200000X0*%
%ADD32RoundRect,0.218750X0.256250X-0.218750X0.256250X0.218750X-0.256250X0.218750X-0.256250X-0.218750X0*%
%ADD33RoundRect,0.140000X0.170000X-0.140000X0.170000X0.140000X-0.170000X0.140000X-0.170000X-0.140000X0*%
%ADD34RoundRect,0.250000X0.650000X-1.000000X0.650000X1.000000X-0.650000X1.000000X-0.650000X-1.000000X0*%
%ADD35RoundRect,0.100000X0.400000X-2.900000X0.400000X2.900000X-0.400000X2.900000X-0.400000X-2.900000X0*%
%ADD36R,1.700000X1.200000*%
%ADD37RoundRect,0.140000X-0.140000X-0.170000X0.140000X-0.170000X0.140000X0.170000X-0.140000X0.170000X0*%
%ADD38R,2.350000X3.500000*%
%ADD39RoundRect,0.200000X-0.200000X0.300000X-0.200000X-0.300000X0.200000X-0.300000X0.200000X0.300000X0*%
%ADD40RoundRect,0.250000X0.475000X-0.250000X0.475000X0.250000X-0.475000X0.250000X-0.475000X-0.250000X0*%
%ADD41RoundRect,0.250001X-0.849999X0.462499X-0.849999X-0.462499X0.849999X-0.462499X0.849999X0.462499X0*%
%ADD42RoundRect,0.135000X-0.135000X-0.185000X0.135000X-0.185000X0.135000X0.185000X-0.135000X0.185000X0*%
%ADD43RoundRect,0.250000X-0.450000X0.262500X-0.450000X-0.262500X0.450000X-0.262500X0.450000X0.262500X0*%
%ADD44RoundRect,0.540000X-2.825000X0.540000X-2.825000X-0.540000X2.825000X-0.540000X2.825000X0.540000X0*%
%ADD45RoundRect,0.250000X0.450000X-0.262500X0.450000X0.262500X-0.450000X0.262500X-0.450000X-0.262500X0*%
%ADD46RoundRect,0.250000X-0.325000X-1.100000X0.325000X-1.100000X0.325000X1.100000X-0.325000X1.100000X0*%
%ADD47RoundRect,0.225000X-0.250000X0.225000X-0.250000X-0.225000X0.250000X-0.225000X0.250000X0.225000X0*%
%ADD48RoundRect,0.540000X2.825000X-0.540000X2.825000X0.540000X-2.825000X0.540000X-2.825000X-0.540000X0*%
%ADD49R,3.700000X1.100000*%
%ADD50RoundRect,0.200000X-0.200000X-0.275000X0.200000X-0.275000X0.200000X0.275000X-0.200000X0.275000X0*%
%ADD51RoundRect,0.015000X-0.410000X-0.210000X0.410000X-0.210000X0.410000X0.210000X-0.410000X0.210000X0*%
%ADD52RoundRect,0.045000X-0.580000X-0.280000X0.580000X-0.280000X0.580000X0.280000X-0.580000X0.280000X0*%
%ADD53RoundRect,0.167500X-0.167500X-0.407500X0.167500X-0.407500X0.167500X0.407500X-0.167500X0.407500X0*%
%ADD54RoundRect,0.100000X-0.625000X-0.100000X0.625000X-0.100000X0.625000X0.100000X-0.625000X0.100000X0*%
G04 APERTURE END LIST*
D10*
%TO.C,Q1*%
X43550000Y10800000D02*
X44600000Y10800000D01*
X44600000Y10800000D02*
X44600000Y11900000D01*
X44600000Y11900000D02*
X43550000Y11900000D01*
X43550000Y11900000D02*
X43550000Y10800000D01*
G36*
X43550000Y10800000D02*
G01*
X44600000Y10800000D01*
X44600000Y11900000D01*
X43550000Y11900000D01*
X43550000Y10800000D01*
G37*
X44975000Y10800000D02*
X46025000Y10800000D01*
X46025000Y10800000D02*
X46025000Y11900000D01*
X46025000Y11900000D02*
X44975000Y11900000D01*
X44975000Y11900000D02*
X44975000Y10800000D01*
G36*
X44975000Y10800000D02*
G01*
X46025000Y10800000D01*
X46025000Y11900000D01*
X44975000Y11900000D01*
X44975000Y10800000D01*
G37*
X46450000Y10800000D02*
X47500000Y10800000D01*
X47500000Y10800000D02*
X47500000Y11900000D01*
X47500000Y11900000D02*
X46450000Y11900000D01*
X46450000Y11900000D02*
X46450000Y10800000D01*
G36*
X46450000Y10800000D02*
G01*
X47500000Y10800000D01*
X47500000Y11900000D01*
X46450000Y11900000D01*
X46450000Y10800000D01*
G37*
X43550000Y12400000D02*
X44600000Y12400000D01*
X44600000Y12400000D02*
X44600000Y13500000D01*
X44600000Y13500000D02*
X43550000Y13500000D01*
X43550000Y13500000D02*
X43550000Y12400000D01*
G36*
X43550000Y12400000D02*
G01*
X44600000Y12400000D01*
X44600000Y13500000D01*
X43550000Y13500000D01*
X43550000Y12400000D01*
G37*
X44975000Y12400000D02*
X46025000Y12400000D01*
X46025000Y12400000D02*
X46025000Y13500000D01*
X46025000Y13500000D02*
X44975000Y13500000D01*
X44975000Y13500000D02*
X44975000Y12400000D01*
G36*
X44975000Y12400000D02*
G01*
X46025000Y12400000D01*
X46025000Y13500000D01*
X44975000Y13500000D01*
X44975000Y12400000D01*
G37*
X46450000Y12400000D02*
X47500000Y12400000D01*
X47500000Y12400000D02*
X47500000Y13500000D01*
X47500000Y13500000D02*
X46450000Y13500000D01*
X46450000Y13500000D02*
X46450000Y12400000D01*
G36*
X46450000Y12400000D02*
G01*
X47500000Y12400000D01*
X47500000Y13500000D01*
X46450000Y13500000D01*
X46450000Y12400000D01*
G37*
X43550000Y14000000D02*
X44600000Y14000000D01*
X44600000Y14000000D02*
X44600000Y15100000D01*
X44600000Y15100000D02*
X43550000Y15100000D01*
X43550000Y15100000D02*
X43550000Y14000000D01*
G36*
X43550000Y14000000D02*
G01*
X44600000Y14000000D01*
X44600000Y15100000D01*
X43550000Y15100000D01*
X43550000Y14000000D01*
G37*
X44975000Y14000000D02*
X46025000Y14000000D01*
X46025000Y14000000D02*
X46025000Y15100000D01*
X46025000Y15100000D02*
X44975000Y15100000D01*
X44975000Y15100000D02*
X44975000Y14000000D01*
G36*
X44975000Y14000000D02*
G01*
X46025000Y14000000D01*
X46025000Y15100000D01*
X44975000Y15100000D01*
X44975000Y14000000D01*
G37*
X46450000Y14000000D02*
X47500000Y14000000D01*
X47500000Y14000000D02*
X47500000Y15100000D01*
X47500000Y15100000D02*
X46450000Y15100000D01*
X46450000Y15100000D02*
X46450000Y14000000D01*
G36*
X46450000Y14000000D02*
G01*
X47500000Y14000000D01*
X47500000Y15100000D01*
X46450000Y15100000D01*
X46450000Y14000000D01*
G37*
X44600000Y16700000D02*
X43550000Y16700000D01*
X43550000Y16700000D02*
X43550000Y15600000D01*
X43550000Y15600000D02*
X44600000Y15600000D01*
X44600000Y15600000D02*
X44600000Y16700000D01*
G36*
X44600000Y16700000D02*
G01*
X43550000Y16700000D01*
X43550000Y15600000D01*
X44600000Y15600000D01*
X44600000Y16700000D01*
G37*
X46075000Y16700000D02*
X45025000Y16700000D01*
X45025000Y16700000D02*
X45025000Y15600000D01*
X45025000Y15600000D02*
X46075000Y15600000D01*
X46075000Y15600000D02*
X46075000Y16700000D01*
G36*
X46075000Y16700000D02*
G01*
X45025000Y16700000D01*
X45025000Y15600000D01*
X46075000Y15600000D01*
X46075000Y16700000D01*
G37*
X47500000Y16700000D02*
X46450000Y16700000D01*
X46450000Y16700000D02*
X46450000Y15600000D01*
X46450000Y15600000D02*
X47500000Y15600000D01*
X47500000Y15600000D02*
X47500000Y16700000D01*
G36*
X47500000Y16700000D02*
G01*
X46450000Y16700000D01*
X46450000Y15600000D01*
X47500000Y15600000D01*
X47500000Y16700000D01*
G37*
X44600000Y18300000D02*
X43550000Y18300000D01*
X43550000Y18300000D02*
X43550000Y17200000D01*
X43550000Y17200000D02*
X44600000Y17200000D01*
X44600000Y17200000D02*
X44600000Y18300000D01*
G36*
X44600000Y18300000D02*
G01*
X43550000Y18300000D01*
X43550000Y17200000D01*
X44600000Y17200000D01*
X44600000Y18300000D01*
G37*
X46075000Y18300000D02*
X45025000Y18300000D01*
X45025000Y18300000D02*
X45025000Y17200000D01*
X45025000Y17200000D02*
X46075000Y17200000D01*
X46075000Y17200000D02*
X46075000Y18300000D01*
G36*
X46075000Y18300000D02*
G01*
X45025000Y18300000D01*
X45025000Y17200000D01*
X46075000Y17200000D01*
X46075000Y18300000D01*
G37*
X47500000Y18300000D02*
X46450000Y18300000D01*
X46450000Y18300000D02*
X46450000Y17200000D01*
X46450000Y17200000D02*
X47500000Y17200000D01*
X47500000Y17200000D02*
X47500000Y18300000D01*
G36*
X47500000Y18300000D02*
G01*
X46450000Y18300000D01*
X46450000Y17200000D01*
X47500000Y17200000D01*
X47500000Y18300000D01*
G37*
%TD*%
D11*
%TO.C,C18*%
X22450000Y36350000D03*
X22450000Y37900000D03*
%TD*%
D12*
%TO.C,L5*%
X77000000Y7000000D03*
X77000000Y9150000D03*
%TD*%
D13*
%TO.C,C11*%
X59700000Y14200000D03*
X58150000Y14200000D03*
%TD*%
D14*
%TO.C,R16*%
X19420000Y33800000D03*
X19420000Y32780000D03*
%TD*%
D15*
%TO.C,FB1*%
X33375000Y22100000D03*
X34950000Y22100000D03*
%TD*%
D16*
%TO.C,C26*%
X41670000Y31950000D03*
X41670000Y29000000D03*
%TD*%
D14*
%TO.C,R5*%
X12550000Y37310000D03*
X12550000Y36290000D03*
%TD*%
D17*
%TO.C,R17*%
X34870000Y30850000D03*
X33220000Y30850000D03*
%TD*%
D18*
%TO.C,R8*%
X14600000Y41600000D03*
X13580000Y41600000D03*
%TD*%
D19*
%TO.C,C34*%
X58475000Y33000000D03*
X58475000Y35950000D03*
%TD*%
%TO.C,C10*%
X72100000Y24350000D03*
X72100000Y27300000D03*
%TD*%
D14*
%TO.C,R11*%
X9850000Y26450000D03*
X9850000Y25430000D03*
%TD*%
D20*
%TO.C,Q4*%
X16350000Y39870000D03*
X16350000Y37970000D03*
X18350000Y38920000D03*
%TD*%
D21*
%TO.C,R1*%
X39400000Y17175000D03*
X39400000Y18825000D03*
%TD*%
D22*
%TO.C,U1*%
X11600000Y30900000D03*
X12550000Y30900000D03*
X13500000Y30900000D03*
X13500000Y33175000D03*
X12550000Y33175000D03*
X11600000Y33175000D03*
%TD*%
D23*
%TO.C,C17*%
X20820000Y32300000D03*
X20820000Y31340000D03*
%TD*%
D24*
%TO.C,U3*%
X69025000Y40350000D03*
X68075000Y40350000D03*
X67125000Y40350000D03*
X67125000Y38075000D03*
X68075000Y38075000D03*
X69025000Y38075000D03*
%TD*%
D25*
%TO.C,C40*%
X23210000Y6850000D03*
X22250000Y6850000D03*
%TD*%
D21*
%TO.C,R2*%
X30980000Y11600000D03*
X30980000Y13250000D03*
%TD*%
D23*
%TO.C,C8*%
X60650000Y23500000D03*
X60650000Y22540000D03*
%TD*%
D26*
%TO.C,RV1*%
X20200000Y23250000D03*
D27*
X25700000Y22100000D03*
D26*
X20200000Y20950000D03*
%TD*%
D28*
%TO.C,U4*%
X13850000Y6850000D03*
D29*
X15350000Y6937500D03*
D28*
X16850000Y6850000D03*
%TD*%
D23*
%TO.C,C31*%
X31650000Y22100000D03*
X31650000Y21140000D03*
%TD*%
D30*
%TO.C,R7*%
X14600000Y38850000D03*
X14600000Y39870000D03*
%TD*%
D23*
%TO.C,C6*%
X36650000Y22100000D03*
X36650000Y21140000D03*
%TD*%
D31*
%TO.C,R12*%
X10000000Y14500000D03*
X10000000Y12850000D03*
%TD*%
D15*
%TO.C,FB4*%
X58750000Y40950000D03*
X60325000Y40950000D03*
%TD*%
D32*
%TO.C,FB3*%
X68500000Y25600000D03*
X68500000Y27175000D03*
%TD*%
D33*
%TO.C,C19*%
X21020000Y36100000D03*
X21020000Y37060000D03*
%TD*%
D34*
%TO.C,D1*%
X43320000Y35250000D03*
X43320000Y39250000D03*
%TD*%
D35*
%TO.C,Q1*%
X49300000Y14550000D03*
X41700000Y14550000D03*
D36*
X45500000Y9800000D03*
X45500000Y19300000D03*
%TD*%
D37*
%TO.C,C5*%
X39400000Y20300000D03*
X40360000Y20300000D03*
%TD*%
D21*
%TO.C,R19*%
X16250000Y23650000D03*
X16250000Y25300000D03*
%TD*%
D38*
%TO.C,L7*%
X33520000Y40250000D03*
X39570000Y40250000D03*
%TD*%
D39*
%TO.C,Q2*%
X9350000Y30900000D03*
X7450000Y30900000D03*
X8400000Y28900000D03*
%TD*%
D40*
%TO.C,C22*%
X31420000Y33550000D03*
X31420000Y35450000D03*
%TD*%
D41*
%TO.C,L9*%
X19700000Y9175000D03*
X19700000Y6850000D03*
%TD*%
D37*
%TO.C,C4*%
X30980000Y10050000D03*
X31940000Y10050000D03*
%TD*%
D33*
%TO.C,C41*%
X11700000Y6840000D03*
X11700000Y7800000D03*
%TD*%
D25*
%TO.C,C16*%
X17310000Y41600000D03*
X16350000Y41600000D03*
%TD*%
D31*
%TO.C,R21*%
X52070000Y31800000D03*
X52070000Y30150000D03*
%TD*%
D23*
%TO.C,C37*%
X65525000Y39950000D03*
X65525000Y38990000D03*
%TD*%
D18*
%TO.C,R20*%
X19420000Y34900000D03*
X18400000Y34900000D03*
%TD*%
D37*
%TO.C,C39*%
X18740000Y11150000D03*
X19700000Y11150000D03*
%TD*%
D32*
%TO.C,L2*%
X30980000Y6875000D03*
X30980000Y8450000D03*
%TD*%
D42*
%TO.C,R6*%
X12550000Y29050000D03*
X13570000Y29050000D03*
%TD*%
D43*
%TO.C,R4*%
X66100000Y23750000D03*
X66100000Y21925000D03*
%TD*%
D25*
%TO.C,C1*%
X8110000Y14500000D03*
X7150000Y14500000D03*
%TD*%
D15*
%TO.C,L1*%
X26105000Y6850000D03*
X27680000Y6850000D03*
%TD*%
D20*
%TO.C,Q5*%
X36870000Y34500000D03*
X36870000Y32600000D03*
X38870000Y33550000D03*
%TD*%
D30*
%TO.C,R9*%
X22220000Y31330000D03*
X22220000Y32350000D03*
%TD*%
D44*
%TO.C,L4*%
X62400000Y11800000D03*
X62400000Y4430000D03*
%TD*%
D40*
%TO.C,C21*%
X34070000Y33100000D03*
X34070000Y35000000D03*
%TD*%
D16*
%TO.C,C29*%
X49320000Y31950000D03*
X49320000Y29000000D03*
%TD*%
D19*
%TO.C,C32*%
X50970000Y35900000D03*
X50970000Y38850000D03*
%TD*%
D45*
%TO.C,R18*%
X36870000Y29025000D03*
X36870000Y30850000D03*
%TD*%
D25*
%TO.C,C20*%
X30980000Y37150000D03*
X30020000Y37150000D03*
%TD*%
D16*
%TO.C,C27*%
X45470000Y31950000D03*
X45470000Y29000000D03*
%TD*%
D46*
%TO.C,C14*%
X63000000Y19150000D03*
X65950000Y19150000D03*
%TD*%
D19*
%TO.C,C28*%
X47370000Y35900000D03*
X47370000Y38850000D03*
%TD*%
%TO.C,C36*%
X62925000Y38000000D03*
X62925000Y40950000D03*
%TD*%
D33*
%TO.C,C30*%
X18200000Y20950000D03*
X18200000Y21910000D03*
%TD*%
D31*
%TO.C,R10*%
X16250000Y18850000D03*
X16250000Y17200000D03*
%TD*%
D19*
%TO.C,C25*%
X30000000Y41400000D03*
X30000000Y44350000D03*
%TD*%
D47*
%TO.C,C12*%
X67400000Y3750000D03*
X67400000Y2200000D03*
%TD*%
D43*
%TO.C,R3*%
X68300000Y23750000D03*
X68300000Y21925000D03*
%TD*%
D37*
%TO.C,C15*%
X11590000Y34900000D03*
X12550000Y34900000D03*
%TD*%
D48*
%TO.C,L6*%
X71300000Y6830000D03*
X71300000Y14200000D03*
%TD*%
D31*
%TO.C,R14*%
X10000000Y9450000D03*
X10000000Y7800000D03*
%TD*%
D23*
%TO.C,C9*%
X62100000Y23500000D03*
X62100000Y22540000D03*
%TD*%
D37*
%TO.C,C33*%
X68075000Y36350000D03*
X69035000Y36350000D03*
%TD*%
D13*
%TO.C,C13*%
X77575000Y14500000D03*
X76025000Y14500000D03*
%TD*%
D49*
%TO.C,L8*%
X66475000Y34800000D03*
X66475000Y31800000D03*
%TD*%
D20*
%TO.C,Q3*%
X9900000Y42550000D03*
X9900000Y40650000D03*
X11900000Y41600000D03*
%TD*%
D50*
%TO.C,R13*%
X8350000Y11150000D03*
X10000000Y11150000D03*
%TD*%
D25*
%TO.C,C24*%
X28620000Y29900000D03*
X27660000Y29900000D03*
%TD*%
D19*
%TO.C,C35*%
X62025000Y33000000D03*
X62025000Y35950000D03*
%TD*%
D32*
%TO.C,FB2*%
X66800000Y25600000D03*
X66800000Y27175000D03*
%TD*%
D23*
%TO.C,C3*%
X29230000Y6850000D03*
X29230000Y5890000D03*
%TD*%
%TO.C,C7*%
X30250000Y22100000D03*
X30250000Y21140000D03*
%TD*%
D13*
%TO.C,C38*%
X19700000Y12650000D03*
X18150000Y12650000D03*
%TD*%
D44*
%TO.C,L3*%
X55250000Y24320000D03*
X55250000Y16950000D03*
%TD*%
D42*
%TO.C,R15*%
X21200000Y34900000D03*
X22220000Y34900000D03*
%TD*%
D23*
%TO.C,C2*%
X24680000Y6850000D03*
X24680000Y5890000D03*
%TD*%
D16*
%TO.C,C23*%
X27000000Y39500000D03*
X27000000Y36550000D03*
%TD*%
D51*
%TO.C,J4*%
X33700000Y14500000D03*
X36700000Y14500000D03*
D52*
X34100000Y15800000D03*
X34100000Y13200000D03*
X36300000Y15800000D03*
X36300000Y13200000D03*
%TD*%
D45*
%TO.C,R22*%
X19700000Y14400000D03*
X19700000Y16225000D03*
%TD*%
D53*
%TO.C,U2*%
X26060000Y33535000D03*
X26060000Y32115000D03*
X26880000Y33535000D03*
X26880000Y32115000D03*
D54*
X24320000Y34450000D03*
X24320000Y33800000D03*
X24320000Y33150000D03*
X24320000Y32500000D03*
X24320000Y31850000D03*
X24320000Y31200000D03*
X28620000Y31200000D03*
X28620000Y31850000D03*
X28620000Y32500000D03*
X28620000Y33150000D03*
X28620000Y33800000D03*
X28620000Y34450000D03*
%TD*%
M02*
