%TF.GenerationSoftware,KiCad,Pcbnew,7.0.1*%
%TF.CreationDate,2023-07-29T01:53:36-07:00*%
%TF.ProjectId,FET_Amplifier_HW,4645545f-416d-4706-9c69-666965725f48,rev?*%
%TF.SameCoordinates,PX4b571c0PY5a995c0*%
%TF.FileFunction,Legend,Top*%
%TF.FilePolarity,Positive*%
%FSLAX46Y46*%
G04 Gerber Fmt 4.6, Leading zero omitted, Abs format (unit mm)*
G04 Created by KiCad (PCBNEW 7.0.1) date 2023-07-29 01:53:36*
%MOMM*%
%LPD*%
G01*
G04 APERTURE LIST*
%ADD10C,0.200000*%
%ADD11C,0.300000*%
%ADD12C,0.150000*%
%ADD13C,0.135000*%
%ADD14C,0.120000*%
%ADD15C,0.400000*%
G04 APERTURE END LIST*
D10*
X33400001Y4535000D02*
X33471429Y4606429D01*
X33471429Y4606429D02*
X33614286Y4677858D01*
X33614286Y4677858D02*
X33900001Y4535000D01*
X33900001Y4535000D02*
X34042858Y4606429D01*
X34042858Y4606429D02*
X34114286Y4677858D01*
X34614287Y5320715D02*
X34685715Y5392143D01*
X34685715Y5392143D02*
X34828573Y5463572D01*
X34828573Y5463572D02*
X35185715Y5463572D01*
X35185715Y5463572D02*
X35328573Y5392143D01*
X35328573Y5392143D02*
X35400001Y5320715D01*
X35400001Y5320715D02*
X35471430Y5177858D01*
X35471430Y5177858D02*
X35471430Y5035000D01*
X35471430Y5035000D02*
X35400001Y4820715D01*
X35400001Y4820715D02*
X34542858Y3963572D01*
X34542858Y3963572D02*
X35471430Y3963572D01*
X36328572Y4820715D02*
X36185715Y4892143D01*
X36185715Y4892143D02*
X36114286Y4963572D01*
X36114286Y4963572D02*
X36042858Y5106429D01*
X36042858Y5106429D02*
X36042858Y5177858D01*
X36042858Y5177858D02*
X36114286Y5320715D01*
X36114286Y5320715D02*
X36185715Y5392143D01*
X36185715Y5392143D02*
X36328572Y5463572D01*
X36328572Y5463572D02*
X36614286Y5463572D01*
X36614286Y5463572D02*
X36757144Y5392143D01*
X36757144Y5392143D02*
X36828572Y5320715D01*
X36828572Y5320715D02*
X36900001Y5177858D01*
X36900001Y5177858D02*
X36900001Y5106429D01*
X36900001Y5106429D02*
X36828572Y4963572D01*
X36828572Y4963572D02*
X36757144Y4892143D01*
X36757144Y4892143D02*
X36614286Y4820715D01*
X36614286Y4820715D02*
X36328572Y4820715D01*
X36328572Y4820715D02*
X36185715Y4749286D01*
X36185715Y4749286D02*
X36114286Y4677858D01*
X36114286Y4677858D02*
X36042858Y4535000D01*
X36042858Y4535000D02*
X36042858Y4249286D01*
X36042858Y4249286D02*
X36114286Y4106429D01*
X36114286Y4106429D02*
X36185715Y4035000D01*
X36185715Y4035000D02*
X36328572Y3963572D01*
X36328572Y3963572D02*
X36614286Y3963572D01*
X36614286Y3963572D02*
X36757144Y4035000D01*
X36757144Y4035000D02*
X36828572Y4106429D01*
X36828572Y4106429D02*
X36900001Y4249286D01*
X36900001Y4249286D02*
X36900001Y4535000D01*
X36900001Y4535000D02*
X36828572Y4677858D01*
X36828572Y4677858D02*
X36757144Y4749286D01*
X36757144Y4749286D02*
X36614286Y4820715D01*
X38185715Y3963572D02*
X38185715Y5463572D01*
X38185715Y4035000D02*
X38042857Y3963572D01*
X38042857Y3963572D02*
X37757143Y3963572D01*
X37757143Y3963572D02*
X37614286Y4035000D01*
X37614286Y4035000D02*
X37542857Y4106429D01*
X37542857Y4106429D02*
X37471429Y4249286D01*
X37471429Y4249286D02*
X37471429Y4677858D01*
X37471429Y4677858D02*
X37542857Y4820715D01*
X37542857Y4820715D02*
X37614286Y4892143D01*
X37614286Y4892143D02*
X37757143Y4963572D01*
X37757143Y4963572D02*
X38042857Y4963572D01*
X38042857Y4963572D02*
X38185715Y4892143D01*
X39400000Y4749286D02*
X39614286Y4677858D01*
X39614286Y4677858D02*
X39685715Y4606429D01*
X39685715Y4606429D02*
X39757143Y4463572D01*
X39757143Y4463572D02*
X39757143Y4249286D01*
X39757143Y4249286D02*
X39685715Y4106429D01*
X39685715Y4106429D02*
X39614286Y4035000D01*
X39614286Y4035000D02*
X39471429Y3963572D01*
X39471429Y3963572D02*
X38900000Y3963572D01*
X38900000Y3963572D02*
X38900000Y5463572D01*
X38900000Y5463572D02*
X39400000Y5463572D01*
X39400000Y5463572D02*
X39542858Y5392143D01*
X39542858Y5392143D02*
X39614286Y5320715D01*
X39614286Y5320715D02*
X39685715Y5177858D01*
X39685715Y5177858D02*
X39685715Y5035000D01*
X39685715Y5035000D02*
X39614286Y4892143D01*
X39614286Y4892143D02*
X39542858Y4820715D01*
X39542858Y4820715D02*
X39400000Y4749286D01*
X39400000Y4749286D02*
X38900000Y4749286D01*
X42400000Y3963572D02*
X41900000Y4677858D01*
X41542857Y3963572D02*
X41542857Y5463572D01*
X41542857Y5463572D02*
X42114286Y5463572D01*
X42114286Y5463572D02*
X42257143Y5392143D01*
X42257143Y5392143D02*
X42328572Y5320715D01*
X42328572Y5320715D02*
X42400000Y5177858D01*
X42400000Y5177858D02*
X42400000Y4963572D01*
X42400000Y4963572D02*
X42328572Y4820715D01*
X42328572Y4820715D02*
X42257143Y4749286D01*
X42257143Y4749286D02*
X42114286Y4677858D01*
X42114286Y4677858D02*
X41542857Y4677858D01*
X43542857Y4749286D02*
X43042857Y4749286D01*
X43042857Y3963572D02*
X43042857Y5463572D01*
X43042857Y5463572D02*
X43757143Y5463572D01*
X45471428Y3963572D02*
X45471428Y5463572D01*
X45471428Y5463572D02*
X46042857Y5463572D01*
X46042857Y5463572D02*
X46185714Y5392143D01*
X46185714Y5392143D02*
X46257143Y5320715D01*
X46257143Y5320715D02*
X46328571Y5177858D01*
X46328571Y5177858D02*
X46328571Y4963572D01*
X46328571Y4963572D02*
X46257143Y4820715D01*
X46257143Y4820715D02*
X46185714Y4749286D01*
X46185714Y4749286D02*
X46042857Y4677858D01*
X46042857Y4677858D02*
X45471428Y4677858D01*
X47185714Y3963572D02*
X47042857Y4035000D01*
X47042857Y4035000D02*
X46971428Y4106429D01*
X46971428Y4106429D02*
X46900000Y4249286D01*
X46900000Y4249286D02*
X46900000Y4677858D01*
X46900000Y4677858D02*
X46971428Y4820715D01*
X46971428Y4820715D02*
X47042857Y4892143D01*
X47042857Y4892143D02*
X47185714Y4963572D01*
X47185714Y4963572D02*
X47400000Y4963572D01*
X47400000Y4963572D02*
X47542857Y4892143D01*
X47542857Y4892143D02*
X47614286Y4820715D01*
X47614286Y4820715D02*
X47685714Y4677858D01*
X47685714Y4677858D02*
X47685714Y4249286D01*
X47685714Y4249286D02*
X47614286Y4106429D01*
X47614286Y4106429D02*
X47542857Y4035000D01*
X47542857Y4035000D02*
X47400000Y3963572D01*
X47400000Y3963572D02*
X47185714Y3963572D01*
X48185714Y4963572D02*
X48471429Y3963572D01*
X48471429Y3963572D02*
X48757143Y4677858D01*
X48757143Y4677858D02*
X49042857Y3963572D01*
X49042857Y3963572D02*
X49328571Y4963572D01*
X50471429Y4035000D02*
X50328572Y3963572D01*
X50328572Y3963572D02*
X50042858Y3963572D01*
X50042858Y3963572D02*
X49900000Y4035000D01*
X49900000Y4035000D02*
X49828572Y4177858D01*
X49828572Y4177858D02*
X49828572Y4749286D01*
X49828572Y4749286D02*
X49900000Y4892143D01*
X49900000Y4892143D02*
X50042858Y4963572D01*
X50042858Y4963572D02*
X50328572Y4963572D01*
X50328572Y4963572D02*
X50471429Y4892143D01*
X50471429Y4892143D02*
X50542858Y4749286D01*
X50542858Y4749286D02*
X50542858Y4606429D01*
X50542858Y4606429D02*
X49828572Y4463572D01*
X51185714Y3963572D02*
X51185714Y4963572D01*
X51185714Y4677858D02*
X51257143Y4820715D01*
X51257143Y4820715D02*
X51328572Y4892143D01*
X51328572Y4892143D02*
X51471429Y4963572D01*
X51471429Y4963572D02*
X51614286Y4963572D01*
X53185714Y4392143D02*
X53900000Y4392143D01*
X53042857Y3963572D02*
X53542857Y5463572D01*
X53542857Y5463572D02*
X54042857Y3963572D01*
X54542856Y3963572D02*
X54542856Y4963572D01*
X54542856Y4820715D02*
X54614285Y4892143D01*
X54614285Y4892143D02*
X54757142Y4963572D01*
X54757142Y4963572D02*
X54971428Y4963572D01*
X54971428Y4963572D02*
X55114285Y4892143D01*
X55114285Y4892143D02*
X55185714Y4749286D01*
X55185714Y4749286D02*
X55185714Y3963572D01*
X55185714Y4749286D02*
X55257142Y4892143D01*
X55257142Y4892143D02*
X55399999Y4963572D01*
X55399999Y4963572D02*
X55614285Y4963572D01*
X55614285Y4963572D02*
X55757142Y4892143D01*
X55757142Y4892143D02*
X55828571Y4749286D01*
X55828571Y4749286D02*
X55828571Y3963572D01*
X56542856Y4963572D02*
X56542856Y3463572D01*
X56542856Y4892143D02*
X56685714Y4963572D01*
X56685714Y4963572D02*
X56971428Y4963572D01*
X56971428Y4963572D02*
X57114285Y4892143D01*
X57114285Y4892143D02*
X57185714Y4820715D01*
X57185714Y4820715D02*
X57257142Y4677858D01*
X57257142Y4677858D02*
X57257142Y4249286D01*
X57257142Y4249286D02*
X57185714Y4106429D01*
X57185714Y4106429D02*
X57114285Y4035000D01*
X57114285Y4035000D02*
X56971428Y3963572D01*
X56971428Y3963572D02*
X56685714Y3963572D01*
X56685714Y3963572D02*
X56542856Y4035000D01*
X40614286Y2105000D02*
X40685714Y2176429D01*
X40685714Y2176429D02*
X40828571Y2247858D01*
X40828571Y2247858D02*
X41114286Y2105000D01*
X41114286Y2105000D02*
X41257143Y2176429D01*
X41257143Y2176429D02*
X41328571Y2247858D01*
X42685715Y1533572D02*
X41828572Y1533572D01*
X42257143Y1533572D02*
X42257143Y3033572D01*
X42257143Y3033572D02*
X42114286Y2819286D01*
X42114286Y2819286D02*
X41971429Y2676429D01*
X41971429Y2676429D02*
X41828572Y2605000D01*
X43971429Y2533572D02*
X43971429Y1533572D01*
X43614286Y3105000D02*
X43257143Y2033572D01*
X43257143Y2033572D02*
X44185714Y2033572D01*
X45400000Y3033572D02*
X45114285Y3033572D01*
X45114285Y3033572D02*
X44971428Y2962143D01*
X44971428Y2962143D02*
X44900000Y2890715D01*
X44900000Y2890715D02*
X44757142Y2676429D01*
X44757142Y2676429D02*
X44685714Y2390715D01*
X44685714Y2390715D02*
X44685714Y1819286D01*
X44685714Y1819286D02*
X44757142Y1676429D01*
X44757142Y1676429D02*
X44828571Y1605000D01*
X44828571Y1605000D02*
X44971428Y1533572D01*
X44971428Y1533572D02*
X45257142Y1533572D01*
X45257142Y1533572D02*
X45400000Y1605000D01*
X45400000Y1605000D02*
X45471428Y1676429D01*
X45471428Y1676429D02*
X45542857Y1819286D01*
X45542857Y1819286D02*
X45542857Y2176429D01*
X45542857Y2176429D02*
X45471428Y2319286D01*
X45471428Y2319286D02*
X45400000Y2390715D01*
X45400000Y2390715D02*
X45257142Y2462143D01*
X45257142Y2462143D02*
X44971428Y2462143D01*
X44971428Y2462143D02*
X44828571Y2390715D01*
X44828571Y2390715D02*
X44757142Y2319286D01*
X44757142Y2319286D02*
X44685714Y2176429D01*
X46185713Y1533572D02*
X46185713Y3033572D01*
X46185713Y3033572D02*
X46685713Y1962143D01*
X46685713Y1962143D02*
X47185713Y3033572D01*
X47185713Y3033572D02*
X47185713Y1533572D01*
X47899999Y1533572D02*
X47899999Y3033572D01*
X47899999Y2319286D02*
X48757142Y2319286D01*
X48757142Y1533572D02*
X48757142Y3033572D01*
X49328571Y2533572D02*
X50114286Y2533572D01*
X50114286Y2533572D02*
X49328571Y1533572D01*
X49328571Y1533572D02*
X50114286Y1533572D01*
X3807142Y26601481D02*
X4307142Y26601481D01*
X4521428Y25773862D02*
X3807142Y25773862D01*
X3807142Y25773862D02*
X3807142Y27353862D01*
X3807142Y27353862D02*
X4521428Y27353862D01*
X5164285Y25773862D02*
X5164285Y27353862D01*
X5164285Y27353862D02*
X6021428Y25773862D01*
X6021428Y25773862D02*
X6021428Y27353862D01*
X4592857Y24719024D02*
X4450000Y24794262D01*
X4450000Y24794262D02*
X4235714Y24794262D01*
X4235714Y24794262D02*
X4021428Y24719024D01*
X4021428Y24719024D02*
X3878571Y24568548D01*
X3878571Y24568548D02*
X3807142Y24418072D01*
X3807142Y24418072D02*
X3735714Y24117120D01*
X3735714Y24117120D02*
X3735714Y23891405D01*
X3735714Y23891405D02*
X3807142Y23590453D01*
X3807142Y23590453D02*
X3878571Y23439977D01*
X3878571Y23439977D02*
X4021428Y23289500D01*
X4021428Y23289500D02*
X4235714Y23214262D01*
X4235714Y23214262D02*
X4378571Y23214262D01*
X4378571Y23214262D02*
X4592857Y23289500D01*
X4592857Y23289500D02*
X4664285Y23364739D01*
X4664285Y23364739D02*
X4664285Y23891405D01*
X4664285Y23891405D02*
X4378571Y23891405D01*
X5307142Y23214262D02*
X5307142Y24794262D01*
X5307142Y24794262D02*
X6164285Y23214262D01*
X6164285Y23214262D02*
X6164285Y24794262D01*
X6878571Y23214262D02*
X6878571Y24794262D01*
X6878571Y24794262D02*
X7235714Y24794262D01*
X7235714Y24794262D02*
X7450000Y24719024D01*
X7450000Y24719024D02*
X7592857Y24568548D01*
X7592857Y24568548D02*
X7664286Y24418072D01*
X7664286Y24418072D02*
X7735714Y24117120D01*
X7735714Y24117120D02*
X7735714Y23891405D01*
X7735714Y23891405D02*
X7664286Y23590453D01*
X7664286Y23590453D02*
X7592857Y23439977D01*
X7592857Y23439977D02*
X7450000Y23289500D01*
X7450000Y23289500D02*
X7235714Y23214262D01*
X7235714Y23214262D02*
X6878571Y23214262D01*
D11*
X77507142Y19274762D02*
X77007142Y20227143D01*
X76649999Y19274762D02*
X76649999Y21274762D01*
X76649999Y21274762D02*
X77221428Y21274762D01*
X77221428Y21274762D02*
X77364285Y21179524D01*
X77364285Y21179524D02*
X77435714Y21084286D01*
X77435714Y21084286D02*
X77507142Y20893810D01*
X77507142Y20893810D02*
X77507142Y20608096D01*
X77507142Y20608096D02*
X77435714Y20417620D01*
X77435714Y20417620D02*
X77364285Y20322381D01*
X77364285Y20322381D02*
X77221428Y20227143D01*
X77221428Y20227143D02*
X76649999Y20227143D01*
X78649999Y20322381D02*
X78149999Y20322381D01*
X78149999Y19274762D02*
X78149999Y21274762D01*
X78149999Y21274762D02*
X78864285Y21274762D01*
X80864285Y21274762D02*
X81149999Y21274762D01*
X81149999Y21274762D02*
X81292856Y21179524D01*
X81292856Y21179524D02*
X81435713Y20989048D01*
X81435713Y20989048D02*
X81507142Y20608096D01*
X81507142Y20608096D02*
X81507142Y19941429D01*
X81507142Y19941429D02*
X81435713Y19560477D01*
X81435713Y19560477D02*
X81292856Y19370000D01*
X81292856Y19370000D02*
X81149999Y19274762D01*
X81149999Y19274762D02*
X80864285Y19274762D01*
X80864285Y19274762D02*
X80721428Y19370000D01*
X80721428Y19370000D02*
X80578570Y19560477D01*
X80578570Y19560477D02*
X80507142Y19941429D01*
X80507142Y19941429D02*
X80507142Y20608096D01*
X80507142Y20608096D02*
X80578570Y20989048D01*
X80578570Y20989048D02*
X80721428Y21179524D01*
X80721428Y21179524D02*
X80864285Y21274762D01*
X82149999Y21274762D02*
X82149999Y19655715D01*
X82149999Y19655715D02*
X82221428Y19465239D01*
X82221428Y19465239D02*
X82292857Y19370000D01*
X82292857Y19370000D02*
X82435714Y19274762D01*
X82435714Y19274762D02*
X82721428Y19274762D01*
X82721428Y19274762D02*
X82864285Y19370000D01*
X82864285Y19370000D02*
X82935714Y19465239D01*
X82935714Y19465239D02*
X83007142Y19655715D01*
X83007142Y19655715D02*
X83007142Y21274762D01*
X83507143Y21274762D02*
X84364286Y21274762D01*
X83935714Y19274762D02*
X83935714Y21274762D01*
X1541667Y7774762D02*
X958334Y8727143D01*
X541667Y7774762D02*
X541667Y9774762D01*
X541667Y9774762D02*
X1208334Y9774762D01*
X1208334Y9774762D02*
X1375001Y9679524D01*
X1375001Y9679524D02*
X1458334Y9584286D01*
X1458334Y9584286D02*
X1541667Y9393810D01*
X1541667Y9393810D02*
X1541667Y9108096D01*
X1541667Y9108096D02*
X1458334Y8917620D01*
X1458334Y8917620D02*
X1375001Y8822381D01*
X1375001Y8822381D02*
X1208334Y8727143D01*
X1208334Y8727143D02*
X541667Y8727143D01*
X2875001Y8822381D02*
X2291667Y8822381D01*
X2291667Y7774762D02*
X2291667Y9774762D01*
X2291667Y9774762D02*
X3125001Y9774762D01*
X5125000Y7774762D02*
X5125000Y9774762D01*
X5958333Y7774762D02*
X5958333Y9774762D01*
X5958333Y9774762D02*
X6958333Y7774762D01*
X6958333Y7774762D02*
X6958333Y9774762D01*
D10*
X7907142Y37976481D02*
X8121428Y37901243D01*
X8121428Y37901243D02*
X8192857Y37826005D01*
X8192857Y37826005D02*
X8264285Y37675529D01*
X8264285Y37675529D02*
X8264285Y37449815D01*
X8264285Y37449815D02*
X8192857Y37299339D01*
X8192857Y37299339D02*
X8121428Y37224100D01*
X8121428Y37224100D02*
X7978571Y37148862D01*
X7978571Y37148862D02*
X7407142Y37148862D01*
X7407142Y37148862D02*
X7407142Y38728862D01*
X7407142Y38728862D02*
X7907142Y38728862D01*
X7907142Y38728862D02*
X8050000Y38653624D01*
X8050000Y38653624D02*
X8121428Y38578386D01*
X8121428Y38578386D02*
X8192857Y38427910D01*
X8192857Y38427910D02*
X8192857Y38277434D01*
X8192857Y38277434D02*
X8121428Y38126958D01*
X8121428Y38126958D02*
X8050000Y38051720D01*
X8050000Y38051720D02*
X7907142Y37976481D01*
X7907142Y37976481D02*
X7407142Y37976481D01*
X8907142Y37750767D02*
X10050000Y37750767D01*
X9478571Y37148862D02*
X9478571Y38352672D01*
X7907142Y35416881D02*
X8121428Y35341643D01*
X8121428Y35341643D02*
X8192857Y35266405D01*
X8192857Y35266405D02*
X8264285Y35115929D01*
X8264285Y35115929D02*
X8264285Y34890215D01*
X8264285Y34890215D02*
X8192857Y34739739D01*
X8192857Y34739739D02*
X8121428Y34664500D01*
X8121428Y34664500D02*
X7978571Y34589262D01*
X7978571Y34589262D02*
X7407142Y34589262D01*
X7407142Y34589262D02*
X7407142Y36169262D01*
X7407142Y36169262D02*
X7907142Y36169262D01*
X7907142Y36169262D02*
X8050000Y36094024D01*
X8050000Y36094024D02*
X8121428Y36018786D01*
X8121428Y36018786D02*
X8192857Y35868310D01*
X8192857Y35868310D02*
X8192857Y35717834D01*
X8192857Y35717834D02*
X8121428Y35567358D01*
X8121428Y35567358D02*
X8050000Y35492120D01*
X8050000Y35492120D02*
X7907142Y35416881D01*
X7907142Y35416881D02*
X7407142Y35416881D01*
X8907142Y35191167D02*
X10050000Y35191167D01*
D12*
%TO.C,C18*%
X22867380Y39257143D02*
X22915000Y39209524D01*
X22915000Y39209524D02*
X22962619Y39066667D01*
X22962619Y39066667D02*
X22962619Y38971429D01*
X22962619Y38971429D02*
X22915000Y38828572D01*
X22915000Y38828572D02*
X22819761Y38733334D01*
X22819761Y38733334D02*
X22724523Y38685715D01*
X22724523Y38685715D02*
X22534047Y38638096D01*
X22534047Y38638096D02*
X22391190Y38638096D01*
X22391190Y38638096D02*
X22200714Y38685715D01*
X22200714Y38685715D02*
X22105476Y38733334D01*
X22105476Y38733334D02*
X22010238Y38828572D01*
X22010238Y38828572D02*
X21962619Y38971429D01*
X21962619Y38971429D02*
X21962619Y39066667D01*
X21962619Y39066667D02*
X22010238Y39209524D01*
X22010238Y39209524D02*
X22057857Y39257143D01*
X22962619Y40209524D02*
X22962619Y39638096D01*
X22962619Y39923810D02*
X21962619Y39923810D01*
X21962619Y39923810D02*
X22105476Y39828572D01*
X22105476Y39828572D02*
X22200714Y39733334D01*
X22200714Y39733334D02*
X22248333Y39638096D01*
X22391190Y40780953D02*
X22343571Y40685715D01*
X22343571Y40685715D02*
X22295952Y40638096D01*
X22295952Y40638096D02*
X22200714Y40590477D01*
X22200714Y40590477D02*
X22153095Y40590477D01*
X22153095Y40590477D02*
X22057857Y40638096D01*
X22057857Y40638096D02*
X22010238Y40685715D01*
X22010238Y40685715D02*
X21962619Y40780953D01*
X21962619Y40780953D02*
X21962619Y40971429D01*
X21962619Y40971429D02*
X22010238Y41066667D01*
X22010238Y41066667D02*
X22057857Y41114286D01*
X22057857Y41114286D02*
X22153095Y41161905D01*
X22153095Y41161905D02*
X22200714Y41161905D01*
X22200714Y41161905D02*
X22295952Y41114286D01*
X22295952Y41114286D02*
X22343571Y41066667D01*
X22343571Y41066667D02*
X22391190Y40971429D01*
X22391190Y40971429D02*
X22391190Y40780953D01*
X22391190Y40780953D02*
X22438809Y40685715D01*
X22438809Y40685715D02*
X22486428Y40638096D01*
X22486428Y40638096D02*
X22581666Y40590477D01*
X22581666Y40590477D02*
X22772142Y40590477D01*
X22772142Y40590477D02*
X22867380Y40638096D01*
X22867380Y40638096D02*
X22915000Y40685715D01*
X22915000Y40685715D02*
X22962619Y40780953D01*
X22962619Y40780953D02*
X22962619Y40971429D01*
X22962619Y40971429D02*
X22915000Y41066667D01*
X22915000Y41066667D02*
X22867380Y41114286D01*
X22867380Y41114286D02*
X22772142Y41161905D01*
X22772142Y41161905D02*
X22581666Y41161905D01*
X22581666Y41161905D02*
X22486428Y41114286D01*
X22486428Y41114286D02*
X22438809Y41066667D01*
X22438809Y41066667D02*
X22391190Y40971429D01*
D13*
%TO.C,L5*%
X77370095Y5166667D02*
X77370095Y4785715D01*
X77370095Y4785715D02*
X76570095Y4785715D01*
X76570095Y5814286D02*
X76570095Y5433334D01*
X76570095Y5433334D02*
X76951047Y5395238D01*
X76951047Y5395238D02*
X76912952Y5433334D01*
X76912952Y5433334D02*
X76874857Y5509524D01*
X76874857Y5509524D02*
X76874857Y5700000D01*
X76874857Y5700000D02*
X76912952Y5776191D01*
X76912952Y5776191D02*
X76951047Y5814286D01*
X76951047Y5814286D02*
X77027238Y5852381D01*
X77027238Y5852381D02*
X77217714Y5852381D01*
X77217714Y5852381D02*
X77293904Y5814286D01*
X77293904Y5814286D02*
X77332000Y5776191D01*
X77332000Y5776191D02*
X77370095Y5700000D01*
X77370095Y5700000D02*
X77370095Y5509524D01*
X77370095Y5509524D02*
X77332000Y5433334D01*
X77332000Y5433334D02*
X77293904Y5395238D01*
%TO.C,C11*%
X55835714Y13956096D02*
X55797618Y13918000D01*
X55797618Y13918000D02*
X55683333Y13879905D01*
X55683333Y13879905D02*
X55607142Y13879905D01*
X55607142Y13879905D02*
X55492856Y13918000D01*
X55492856Y13918000D02*
X55416666Y13994191D01*
X55416666Y13994191D02*
X55378571Y14070381D01*
X55378571Y14070381D02*
X55340475Y14222762D01*
X55340475Y14222762D02*
X55340475Y14337048D01*
X55340475Y14337048D02*
X55378571Y14489429D01*
X55378571Y14489429D02*
X55416666Y14565620D01*
X55416666Y14565620D02*
X55492856Y14641810D01*
X55492856Y14641810D02*
X55607142Y14679905D01*
X55607142Y14679905D02*
X55683333Y14679905D01*
X55683333Y14679905D02*
X55797618Y14641810D01*
X55797618Y14641810D02*
X55835714Y14603715D01*
X56597618Y13879905D02*
X56140475Y13879905D01*
X56369047Y13879905D02*
X56369047Y14679905D01*
X56369047Y14679905D02*
X56292856Y14565620D01*
X56292856Y14565620D02*
X56216666Y14489429D01*
X56216666Y14489429D02*
X56140475Y14451334D01*
X57359523Y13879905D02*
X56902380Y13879905D01*
X57130952Y13879905D02*
X57130952Y14679905D01*
X57130952Y14679905D02*
X57054761Y14565620D01*
X57054761Y14565620D02*
X56978571Y14489429D01*
X56978571Y14489429D02*
X56902380Y14451334D01*
%TO.C,R16*%
X19790095Y30735715D02*
X19409142Y30469048D01*
X19790095Y30278572D02*
X18990095Y30278572D01*
X18990095Y30278572D02*
X18990095Y30583334D01*
X18990095Y30583334D02*
X19028190Y30659524D01*
X19028190Y30659524D02*
X19066285Y30697619D01*
X19066285Y30697619D02*
X19142476Y30735715D01*
X19142476Y30735715D02*
X19256761Y30735715D01*
X19256761Y30735715D02*
X19332952Y30697619D01*
X19332952Y30697619D02*
X19371047Y30659524D01*
X19371047Y30659524D02*
X19409142Y30583334D01*
X19409142Y30583334D02*
X19409142Y30278572D01*
X19790095Y31497619D02*
X19790095Y31040476D01*
X19790095Y31269048D02*
X18990095Y31269048D01*
X18990095Y31269048D02*
X19104380Y31192857D01*
X19104380Y31192857D02*
X19180571Y31116667D01*
X19180571Y31116667D02*
X19218666Y31040476D01*
X18990095Y32183334D02*
X18990095Y32030953D01*
X18990095Y32030953D02*
X19028190Y31954762D01*
X19028190Y31954762D02*
X19066285Y31916667D01*
X19066285Y31916667D02*
X19180571Y31840477D01*
X19180571Y31840477D02*
X19332952Y31802381D01*
X19332952Y31802381D02*
X19637714Y31802381D01*
X19637714Y31802381D02*
X19713904Y31840477D01*
X19713904Y31840477D02*
X19752000Y31878572D01*
X19752000Y31878572D02*
X19790095Y31954762D01*
X19790095Y31954762D02*
X19790095Y32107143D01*
X19790095Y32107143D02*
X19752000Y32183334D01*
X19752000Y32183334D02*
X19713904Y32221429D01*
X19713904Y32221429D02*
X19637714Y32259524D01*
X19637714Y32259524D02*
X19447238Y32259524D01*
X19447238Y32259524D02*
X19371047Y32221429D01*
X19371047Y32221429D02*
X19332952Y32183334D01*
X19332952Y32183334D02*
X19294857Y32107143D01*
X19294857Y32107143D02*
X19294857Y31954762D01*
X19294857Y31954762D02*
X19332952Y31878572D01*
X19332952Y31878572D02*
X19371047Y31840477D01*
X19371047Y31840477D02*
X19447238Y31802381D01*
%TO.C,FB1*%
X33483333Y23298953D02*
X33216667Y23298953D01*
X33216667Y22879905D02*
X33216667Y23679905D01*
X33216667Y23679905D02*
X33597619Y23679905D01*
X34169047Y23298953D02*
X34283333Y23260858D01*
X34283333Y23260858D02*
X34321428Y23222762D01*
X34321428Y23222762D02*
X34359524Y23146572D01*
X34359524Y23146572D02*
X34359524Y23032286D01*
X34359524Y23032286D02*
X34321428Y22956096D01*
X34321428Y22956096D02*
X34283333Y22918000D01*
X34283333Y22918000D02*
X34207143Y22879905D01*
X34207143Y22879905D02*
X33902381Y22879905D01*
X33902381Y22879905D02*
X33902381Y23679905D01*
X33902381Y23679905D02*
X34169047Y23679905D01*
X34169047Y23679905D02*
X34245238Y23641810D01*
X34245238Y23641810D02*
X34283333Y23603715D01*
X34283333Y23603715D02*
X34321428Y23527524D01*
X34321428Y23527524D02*
X34321428Y23451334D01*
X34321428Y23451334D02*
X34283333Y23375143D01*
X34283333Y23375143D02*
X34245238Y23337048D01*
X34245238Y23337048D02*
X34169047Y23298953D01*
X34169047Y23298953D02*
X33902381Y23298953D01*
X35121428Y22879905D02*
X34664285Y22879905D01*
X34892857Y22879905D02*
X34892857Y23679905D01*
X34892857Y23679905D02*
X34816666Y23565620D01*
X34816666Y23565620D02*
X34740476Y23489429D01*
X34740476Y23489429D02*
X34664285Y23451334D01*
%TO.C,C26*%
X39963904Y29935715D02*
X40002000Y29897619D01*
X40002000Y29897619D02*
X40040095Y29783334D01*
X40040095Y29783334D02*
X40040095Y29707143D01*
X40040095Y29707143D02*
X40002000Y29592857D01*
X40002000Y29592857D02*
X39925809Y29516667D01*
X39925809Y29516667D02*
X39849619Y29478572D01*
X39849619Y29478572D02*
X39697238Y29440476D01*
X39697238Y29440476D02*
X39582952Y29440476D01*
X39582952Y29440476D02*
X39430571Y29478572D01*
X39430571Y29478572D02*
X39354380Y29516667D01*
X39354380Y29516667D02*
X39278190Y29592857D01*
X39278190Y29592857D02*
X39240095Y29707143D01*
X39240095Y29707143D02*
X39240095Y29783334D01*
X39240095Y29783334D02*
X39278190Y29897619D01*
X39278190Y29897619D02*
X39316285Y29935715D01*
X39316285Y30240476D02*
X39278190Y30278572D01*
X39278190Y30278572D02*
X39240095Y30354762D01*
X39240095Y30354762D02*
X39240095Y30545238D01*
X39240095Y30545238D02*
X39278190Y30621429D01*
X39278190Y30621429D02*
X39316285Y30659524D01*
X39316285Y30659524D02*
X39392476Y30697619D01*
X39392476Y30697619D02*
X39468666Y30697619D01*
X39468666Y30697619D02*
X39582952Y30659524D01*
X39582952Y30659524D02*
X40040095Y30202381D01*
X40040095Y30202381D02*
X40040095Y30697619D01*
X39240095Y31383334D02*
X39240095Y31230953D01*
X39240095Y31230953D02*
X39278190Y31154762D01*
X39278190Y31154762D02*
X39316285Y31116667D01*
X39316285Y31116667D02*
X39430571Y31040477D01*
X39430571Y31040477D02*
X39582952Y31002381D01*
X39582952Y31002381D02*
X39887714Y31002381D01*
X39887714Y31002381D02*
X39963904Y31040477D01*
X39963904Y31040477D02*
X40002000Y31078572D01*
X40002000Y31078572D02*
X40040095Y31154762D01*
X40040095Y31154762D02*
X40040095Y31307143D01*
X40040095Y31307143D02*
X40002000Y31383334D01*
X40002000Y31383334D02*
X39963904Y31421429D01*
X39963904Y31421429D02*
X39887714Y31459524D01*
X39887714Y31459524D02*
X39697238Y31459524D01*
X39697238Y31459524D02*
X39621047Y31421429D01*
X39621047Y31421429D02*
X39582952Y31383334D01*
X39582952Y31383334D02*
X39544857Y31307143D01*
X39544857Y31307143D02*
X39544857Y31154762D01*
X39544857Y31154762D02*
X39582952Y31078572D01*
X39582952Y31078572D02*
X39621047Y31040477D01*
X39621047Y31040477D02*
X39697238Y31002381D01*
%TO.C,R5*%
X14090095Y36666668D02*
X13709142Y36400001D01*
X14090095Y36209525D02*
X13290095Y36209525D01*
X13290095Y36209525D02*
X13290095Y36514287D01*
X13290095Y36514287D02*
X13328190Y36590477D01*
X13328190Y36590477D02*
X13366285Y36628572D01*
X13366285Y36628572D02*
X13442476Y36666668D01*
X13442476Y36666668D02*
X13556761Y36666668D01*
X13556761Y36666668D02*
X13632952Y36628572D01*
X13632952Y36628572D02*
X13671047Y36590477D01*
X13671047Y36590477D02*
X13709142Y36514287D01*
X13709142Y36514287D02*
X13709142Y36209525D01*
X13290095Y37390477D02*
X13290095Y37009525D01*
X13290095Y37009525D02*
X13671047Y36971429D01*
X13671047Y36971429D02*
X13632952Y37009525D01*
X13632952Y37009525D02*
X13594857Y37085715D01*
X13594857Y37085715D02*
X13594857Y37276191D01*
X13594857Y37276191D02*
X13632952Y37352382D01*
X13632952Y37352382D02*
X13671047Y37390477D01*
X13671047Y37390477D02*
X13747238Y37428572D01*
X13747238Y37428572D02*
X13937714Y37428572D01*
X13937714Y37428572D02*
X14013904Y37390477D01*
X14013904Y37390477D02*
X14052000Y37352382D01*
X14052000Y37352382D02*
X14090095Y37276191D01*
X14090095Y37276191D02*
X14090095Y37085715D01*
X14090095Y37085715D02*
X14052000Y37009525D01*
X14052000Y37009525D02*
X14013904Y36971429D01*
%TO.C,R17*%
X33505714Y29179905D02*
X33239047Y29560858D01*
X33048571Y29179905D02*
X33048571Y29979905D01*
X33048571Y29979905D02*
X33353333Y29979905D01*
X33353333Y29979905D02*
X33429523Y29941810D01*
X33429523Y29941810D02*
X33467618Y29903715D01*
X33467618Y29903715D02*
X33505714Y29827524D01*
X33505714Y29827524D02*
X33505714Y29713239D01*
X33505714Y29713239D02*
X33467618Y29637048D01*
X33467618Y29637048D02*
X33429523Y29598953D01*
X33429523Y29598953D02*
X33353333Y29560858D01*
X33353333Y29560858D02*
X33048571Y29560858D01*
X34267618Y29179905D02*
X33810475Y29179905D01*
X34039047Y29179905D02*
X34039047Y29979905D01*
X34039047Y29979905D02*
X33962856Y29865620D01*
X33962856Y29865620D02*
X33886666Y29789429D01*
X33886666Y29789429D02*
X33810475Y29751334D01*
X34534285Y29979905D02*
X35067619Y29979905D01*
X35067619Y29979905D02*
X34724761Y29179905D01*
%TO.C,R8*%
X14056667Y42379905D02*
X13790000Y42760858D01*
X13599524Y42379905D02*
X13599524Y43179905D01*
X13599524Y43179905D02*
X13904286Y43179905D01*
X13904286Y43179905D02*
X13980476Y43141810D01*
X13980476Y43141810D02*
X14018571Y43103715D01*
X14018571Y43103715D02*
X14056667Y43027524D01*
X14056667Y43027524D02*
X14056667Y42913239D01*
X14056667Y42913239D02*
X14018571Y42837048D01*
X14018571Y42837048D02*
X13980476Y42798953D01*
X13980476Y42798953D02*
X13904286Y42760858D01*
X13904286Y42760858D02*
X13599524Y42760858D01*
X14513809Y42837048D02*
X14437619Y42875143D01*
X14437619Y42875143D02*
X14399524Y42913239D01*
X14399524Y42913239D02*
X14361428Y42989429D01*
X14361428Y42989429D02*
X14361428Y43027524D01*
X14361428Y43027524D02*
X14399524Y43103715D01*
X14399524Y43103715D02*
X14437619Y43141810D01*
X14437619Y43141810D02*
X14513809Y43179905D01*
X14513809Y43179905D02*
X14666190Y43179905D01*
X14666190Y43179905D02*
X14742381Y43141810D01*
X14742381Y43141810D02*
X14780476Y43103715D01*
X14780476Y43103715D02*
X14818571Y43027524D01*
X14818571Y43027524D02*
X14818571Y42989429D01*
X14818571Y42989429D02*
X14780476Y42913239D01*
X14780476Y42913239D02*
X14742381Y42875143D01*
X14742381Y42875143D02*
X14666190Y42837048D01*
X14666190Y42837048D02*
X14513809Y42837048D01*
X14513809Y42837048D02*
X14437619Y42798953D01*
X14437619Y42798953D02*
X14399524Y42760858D01*
X14399524Y42760858D02*
X14361428Y42684667D01*
X14361428Y42684667D02*
X14361428Y42532286D01*
X14361428Y42532286D02*
X14399524Y42456096D01*
X14399524Y42456096D02*
X14437619Y42418000D01*
X14437619Y42418000D02*
X14513809Y42379905D01*
X14513809Y42379905D02*
X14666190Y42379905D01*
X14666190Y42379905D02*
X14742381Y42418000D01*
X14742381Y42418000D02*
X14780476Y42456096D01*
X14780476Y42456096D02*
X14818571Y42532286D01*
X14818571Y42532286D02*
X14818571Y42684667D01*
X14818571Y42684667D02*
X14780476Y42760858D01*
X14780476Y42760858D02*
X14742381Y42798953D01*
X14742381Y42798953D02*
X14666190Y42837048D01*
%TO.C,C34*%
X56668904Y33985715D02*
X56707000Y33947619D01*
X56707000Y33947619D02*
X56745095Y33833334D01*
X56745095Y33833334D02*
X56745095Y33757143D01*
X56745095Y33757143D02*
X56707000Y33642857D01*
X56707000Y33642857D02*
X56630809Y33566667D01*
X56630809Y33566667D02*
X56554619Y33528572D01*
X56554619Y33528572D02*
X56402238Y33490476D01*
X56402238Y33490476D02*
X56287952Y33490476D01*
X56287952Y33490476D02*
X56135571Y33528572D01*
X56135571Y33528572D02*
X56059380Y33566667D01*
X56059380Y33566667D02*
X55983190Y33642857D01*
X55983190Y33642857D02*
X55945095Y33757143D01*
X55945095Y33757143D02*
X55945095Y33833334D01*
X55945095Y33833334D02*
X55983190Y33947619D01*
X55983190Y33947619D02*
X56021285Y33985715D01*
X55945095Y34252381D02*
X55945095Y34747619D01*
X55945095Y34747619D02*
X56249857Y34480953D01*
X56249857Y34480953D02*
X56249857Y34595238D01*
X56249857Y34595238D02*
X56287952Y34671429D01*
X56287952Y34671429D02*
X56326047Y34709524D01*
X56326047Y34709524D02*
X56402238Y34747619D01*
X56402238Y34747619D02*
X56592714Y34747619D01*
X56592714Y34747619D02*
X56668904Y34709524D01*
X56668904Y34709524D02*
X56707000Y34671429D01*
X56707000Y34671429D02*
X56745095Y34595238D01*
X56745095Y34595238D02*
X56745095Y34366667D01*
X56745095Y34366667D02*
X56707000Y34290476D01*
X56707000Y34290476D02*
X56668904Y34252381D01*
X56211761Y35433334D02*
X56745095Y35433334D01*
X55907000Y35242858D02*
X56478428Y35052381D01*
X56478428Y35052381D02*
X56478428Y35547620D01*
%TO.C,C10*%
X74493904Y25285715D02*
X74532000Y25247619D01*
X74532000Y25247619D02*
X74570095Y25133334D01*
X74570095Y25133334D02*
X74570095Y25057143D01*
X74570095Y25057143D02*
X74532000Y24942857D01*
X74532000Y24942857D02*
X74455809Y24866667D01*
X74455809Y24866667D02*
X74379619Y24828572D01*
X74379619Y24828572D02*
X74227238Y24790476D01*
X74227238Y24790476D02*
X74112952Y24790476D01*
X74112952Y24790476D02*
X73960571Y24828572D01*
X73960571Y24828572D02*
X73884380Y24866667D01*
X73884380Y24866667D02*
X73808190Y24942857D01*
X73808190Y24942857D02*
X73770095Y25057143D01*
X73770095Y25057143D02*
X73770095Y25133334D01*
X73770095Y25133334D02*
X73808190Y25247619D01*
X73808190Y25247619D02*
X73846285Y25285715D01*
X74570095Y26047619D02*
X74570095Y25590476D01*
X74570095Y25819048D02*
X73770095Y25819048D01*
X73770095Y25819048D02*
X73884380Y25742857D01*
X73884380Y25742857D02*
X73960571Y25666667D01*
X73960571Y25666667D02*
X73998666Y25590476D01*
X73770095Y26542858D02*
X73770095Y26619048D01*
X73770095Y26619048D02*
X73808190Y26695239D01*
X73808190Y26695239D02*
X73846285Y26733334D01*
X73846285Y26733334D02*
X73922476Y26771429D01*
X73922476Y26771429D02*
X74074857Y26809524D01*
X74074857Y26809524D02*
X74265333Y26809524D01*
X74265333Y26809524D02*
X74417714Y26771429D01*
X74417714Y26771429D02*
X74493904Y26733334D01*
X74493904Y26733334D02*
X74532000Y26695239D01*
X74532000Y26695239D02*
X74570095Y26619048D01*
X74570095Y26619048D02*
X74570095Y26542858D01*
X74570095Y26542858D02*
X74532000Y26466667D01*
X74532000Y26466667D02*
X74493904Y26428572D01*
X74493904Y26428572D02*
X74417714Y26390477D01*
X74417714Y26390477D02*
X74265333Y26352381D01*
X74265333Y26352381D02*
X74074857Y26352381D01*
X74074857Y26352381D02*
X73922476Y26390477D01*
X73922476Y26390477D02*
X73846285Y26428572D01*
X73846285Y26428572D02*
X73808190Y26466667D01*
X73808190Y26466667D02*
X73770095Y26542858D01*
%TO.C,R11*%
X11370095Y25435715D02*
X10989142Y25169048D01*
X11370095Y24978572D02*
X10570095Y24978572D01*
X10570095Y24978572D02*
X10570095Y25283334D01*
X10570095Y25283334D02*
X10608190Y25359524D01*
X10608190Y25359524D02*
X10646285Y25397619D01*
X10646285Y25397619D02*
X10722476Y25435715D01*
X10722476Y25435715D02*
X10836761Y25435715D01*
X10836761Y25435715D02*
X10912952Y25397619D01*
X10912952Y25397619D02*
X10951047Y25359524D01*
X10951047Y25359524D02*
X10989142Y25283334D01*
X10989142Y25283334D02*
X10989142Y24978572D01*
X11370095Y26197619D02*
X11370095Y25740476D01*
X11370095Y25969048D02*
X10570095Y25969048D01*
X10570095Y25969048D02*
X10684380Y25892857D01*
X10684380Y25892857D02*
X10760571Y25816667D01*
X10760571Y25816667D02*
X10798666Y25740476D01*
X11370095Y26959524D02*
X11370095Y26502381D01*
X11370095Y26730953D02*
X10570095Y26730953D01*
X10570095Y26730953D02*
X10684380Y26654762D01*
X10684380Y26654762D02*
X10760571Y26578572D01*
X10760571Y26578572D02*
X10798666Y26502381D01*
%TO.C,Q4*%
X18973809Y39703715D02*
X18897619Y39741810D01*
X18897619Y39741810D02*
X18821428Y39818000D01*
X18821428Y39818000D02*
X18707142Y39932286D01*
X18707142Y39932286D02*
X18630952Y39970381D01*
X18630952Y39970381D02*
X18554761Y39970381D01*
X18592857Y39779905D02*
X18516666Y39818000D01*
X18516666Y39818000D02*
X18440476Y39894191D01*
X18440476Y39894191D02*
X18402380Y40046572D01*
X18402380Y40046572D02*
X18402380Y40313239D01*
X18402380Y40313239D02*
X18440476Y40465620D01*
X18440476Y40465620D02*
X18516666Y40541810D01*
X18516666Y40541810D02*
X18592857Y40579905D01*
X18592857Y40579905D02*
X18745238Y40579905D01*
X18745238Y40579905D02*
X18821428Y40541810D01*
X18821428Y40541810D02*
X18897619Y40465620D01*
X18897619Y40465620D02*
X18935714Y40313239D01*
X18935714Y40313239D02*
X18935714Y40046572D01*
X18935714Y40046572D02*
X18897619Y39894191D01*
X18897619Y39894191D02*
X18821428Y39818000D01*
X18821428Y39818000D02*
X18745238Y39779905D01*
X18745238Y39779905D02*
X18592857Y39779905D01*
X19621428Y40313239D02*
X19621428Y39779905D01*
X19430952Y40618000D02*
X19240475Y40046572D01*
X19240475Y40046572D02*
X19735714Y40046572D01*
%TO.C,R1*%
X39770095Y15766668D02*
X39389142Y15500001D01*
X39770095Y15309525D02*
X38970095Y15309525D01*
X38970095Y15309525D02*
X38970095Y15614287D01*
X38970095Y15614287D02*
X39008190Y15690477D01*
X39008190Y15690477D02*
X39046285Y15728572D01*
X39046285Y15728572D02*
X39122476Y15766668D01*
X39122476Y15766668D02*
X39236761Y15766668D01*
X39236761Y15766668D02*
X39312952Y15728572D01*
X39312952Y15728572D02*
X39351047Y15690477D01*
X39351047Y15690477D02*
X39389142Y15614287D01*
X39389142Y15614287D02*
X39389142Y15309525D01*
X39770095Y16528572D02*
X39770095Y16071429D01*
X39770095Y16300001D02*
X38970095Y16300001D01*
X38970095Y16300001D02*
X39084380Y16223810D01*
X39084380Y16223810D02*
X39160571Y16147620D01*
X39160571Y16147620D02*
X39198666Y16071429D01*
%TO.C,U1*%
X10870095Y28640477D02*
X11517714Y28640477D01*
X11517714Y28640477D02*
X11593904Y28678572D01*
X11593904Y28678572D02*
X11632000Y28716667D01*
X11632000Y28716667D02*
X11670095Y28792858D01*
X11670095Y28792858D02*
X11670095Y28945239D01*
X11670095Y28945239D02*
X11632000Y29021429D01*
X11632000Y29021429D02*
X11593904Y29059524D01*
X11593904Y29059524D02*
X11517714Y29097620D01*
X11517714Y29097620D02*
X10870095Y29097620D01*
X11670095Y29897619D02*
X11670095Y29440476D01*
X11670095Y29669048D02*
X10870095Y29669048D01*
X10870095Y29669048D02*
X10984380Y29592857D01*
X10984380Y29592857D02*
X11060571Y29516667D01*
X11060571Y29516667D02*
X11098666Y29440476D01*
%TO.C,C17*%
X21113904Y29385715D02*
X21152000Y29347619D01*
X21152000Y29347619D02*
X21190095Y29233334D01*
X21190095Y29233334D02*
X21190095Y29157143D01*
X21190095Y29157143D02*
X21152000Y29042857D01*
X21152000Y29042857D02*
X21075809Y28966667D01*
X21075809Y28966667D02*
X20999619Y28928572D01*
X20999619Y28928572D02*
X20847238Y28890476D01*
X20847238Y28890476D02*
X20732952Y28890476D01*
X20732952Y28890476D02*
X20580571Y28928572D01*
X20580571Y28928572D02*
X20504380Y28966667D01*
X20504380Y28966667D02*
X20428190Y29042857D01*
X20428190Y29042857D02*
X20390095Y29157143D01*
X20390095Y29157143D02*
X20390095Y29233334D01*
X20390095Y29233334D02*
X20428190Y29347619D01*
X20428190Y29347619D02*
X20466285Y29385715D01*
X21190095Y30147619D02*
X21190095Y29690476D01*
X21190095Y29919048D02*
X20390095Y29919048D01*
X20390095Y29919048D02*
X20504380Y29842857D01*
X20504380Y29842857D02*
X20580571Y29766667D01*
X20580571Y29766667D02*
X20618666Y29690476D01*
X20390095Y30414286D02*
X20390095Y30947620D01*
X20390095Y30947620D02*
X21190095Y30604762D01*
%TO.C,U3*%
X70045095Y38602977D02*
X70692714Y38602977D01*
X70692714Y38602977D02*
X70768904Y38641072D01*
X70768904Y38641072D02*
X70807000Y38679167D01*
X70807000Y38679167D02*
X70845095Y38755358D01*
X70845095Y38755358D02*
X70845095Y38907739D01*
X70845095Y38907739D02*
X70807000Y38983929D01*
X70807000Y38983929D02*
X70768904Y39022024D01*
X70768904Y39022024D02*
X70692714Y39060120D01*
X70692714Y39060120D02*
X70045095Y39060120D01*
X70045095Y39364881D02*
X70045095Y39860119D01*
X70045095Y39860119D02*
X70349857Y39593453D01*
X70349857Y39593453D02*
X70349857Y39707738D01*
X70349857Y39707738D02*
X70387952Y39783929D01*
X70387952Y39783929D02*
X70426047Y39822024D01*
X70426047Y39822024D02*
X70502238Y39860119D01*
X70502238Y39860119D02*
X70692714Y39860119D01*
X70692714Y39860119D02*
X70768904Y39822024D01*
X70768904Y39822024D02*
X70807000Y39783929D01*
X70807000Y39783929D02*
X70845095Y39707738D01*
X70845095Y39707738D02*
X70845095Y39479167D01*
X70845095Y39479167D02*
X70807000Y39402976D01*
X70807000Y39402976D02*
X70768904Y39364881D01*
%TO.C,C40*%
X22215714Y7556096D02*
X22177618Y7518000D01*
X22177618Y7518000D02*
X22063333Y7479905D01*
X22063333Y7479905D02*
X21987142Y7479905D01*
X21987142Y7479905D02*
X21872856Y7518000D01*
X21872856Y7518000D02*
X21796666Y7594191D01*
X21796666Y7594191D02*
X21758571Y7670381D01*
X21758571Y7670381D02*
X21720475Y7822762D01*
X21720475Y7822762D02*
X21720475Y7937048D01*
X21720475Y7937048D02*
X21758571Y8089429D01*
X21758571Y8089429D02*
X21796666Y8165620D01*
X21796666Y8165620D02*
X21872856Y8241810D01*
X21872856Y8241810D02*
X21987142Y8279905D01*
X21987142Y8279905D02*
X22063333Y8279905D01*
X22063333Y8279905D02*
X22177618Y8241810D01*
X22177618Y8241810D02*
X22215714Y8203715D01*
X22901428Y8013239D02*
X22901428Y7479905D01*
X22710952Y8318000D02*
X22520475Y7746572D01*
X22520475Y7746572D02*
X23015714Y7746572D01*
X23472857Y8279905D02*
X23549047Y8279905D01*
X23549047Y8279905D02*
X23625238Y8241810D01*
X23625238Y8241810D02*
X23663333Y8203715D01*
X23663333Y8203715D02*
X23701428Y8127524D01*
X23701428Y8127524D02*
X23739523Y7975143D01*
X23739523Y7975143D02*
X23739523Y7784667D01*
X23739523Y7784667D02*
X23701428Y7632286D01*
X23701428Y7632286D02*
X23663333Y7556096D01*
X23663333Y7556096D02*
X23625238Y7518000D01*
X23625238Y7518000D02*
X23549047Y7479905D01*
X23549047Y7479905D02*
X23472857Y7479905D01*
X23472857Y7479905D02*
X23396666Y7518000D01*
X23396666Y7518000D02*
X23358571Y7556096D01*
X23358571Y7556096D02*
X23320476Y7632286D01*
X23320476Y7632286D02*
X23282380Y7784667D01*
X23282380Y7784667D02*
X23282380Y7975143D01*
X23282380Y7975143D02*
X23320476Y8127524D01*
X23320476Y8127524D02*
X23358571Y8203715D01*
X23358571Y8203715D02*
X23396666Y8241810D01*
X23396666Y8241810D02*
X23472857Y8279905D01*
%TO.C,R2*%
X30050095Y12304168D02*
X29669142Y12037501D01*
X30050095Y11847025D02*
X29250095Y11847025D01*
X29250095Y11847025D02*
X29250095Y12151787D01*
X29250095Y12151787D02*
X29288190Y12227977D01*
X29288190Y12227977D02*
X29326285Y12266072D01*
X29326285Y12266072D02*
X29402476Y12304168D01*
X29402476Y12304168D02*
X29516761Y12304168D01*
X29516761Y12304168D02*
X29592952Y12266072D01*
X29592952Y12266072D02*
X29631047Y12227977D01*
X29631047Y12227977D02*
X29669142Y12151787D01*
X29669142Y12151787D02*
X29669142Y11847025D01*
X29326285Y12608929D02*
X29288190Y12647025D01*
X29288190Y12647025D02*
X29250095Y12723215D01*
X29250095Y12723215D02*
X29250095Y12913691D01*
X29250095Y12913691D02*
X29288190Y12989882D01*
X29288190Y12989882D02*
X29326285Y13027977D01*
X29326285Y13027977D02*
X29402476Y13066072D01*
X29402476Y13066072D02*
X29478666Y13066072D01*
X29478666Y13066072D02*
X29592952Y13027977D01*
X29592952Y13027977D02*
X30050095Y12570834D01*
X30050095Y12570834D02*
X30050095Y13066072D01*
%TO.C,C8*%
X60943904Y24466668D02*
X60982000Y24428572D01*
X60982000Y24428572D02*
X61020095Y24314287D01*
X61020095Y24314287D02*
X61020095Y24238096D01*
X61020095Y24238096D02*
X60982000Y24123810D01*
X60982000Y24123810D02*
X60905809Y24047620D01*
X60905809Y24047620D02*
X60829619Y24009525D01*
X60829619Y24009525D02*
X60677238Y23971429D01*
X60677238Y23971429D02*
X60562952Y23971429D01*
X60562952Y23971429D02*
X60410571Y24009525D01*
X60410571Y24009525D02*
X60334380Y24047620D01*
X60334380Y24047620D02*
X60258190Y24123810D01*
X60258190Y24123810D02*
X60220095Y24238096D01*
X60220095Y24238096D02*
X60220095Y24314287D01*
X60220095Y24314287D02*
X60258190Y24428572D01*
X60258190Y24428572D02*
X60296285Y24466668D01*
X60562952Y24923810D02*
X60524857Y24847620D01*
X60524857Y24847620D02*
X60486761Y24809525D01*
X60486761Y24809525D02*
X60410571Y24771429D01*
X60410571Y24771429D02*
X60372476Y24771429D01*
X60372476Y24771429D02*
X60296285Y24809525D01*
X60296285Y24809525D02*
X60258190Y24847620D01*
X60258190Y24847620D02*
X60220095Y24923810D01*
X60220095Y24923810D02*
X60220095Y25076191D01*
X60220095Y25076191D02*
X60258190Y25152382D01*
X60258190Y25152382D02*
X60296285Y25190477D01*
X60296285Y25190477D02*
X60372476Y25228572D01*
X60372476Y25228572D02*
X60410571Y25228572D01*
X60410571Y25228572D02*
X60486761Y25190477D01*
X60486761Y25190477D02*
X60524857Y25152382D01*
X60524857Y25152382D02*
X60562952Y25076191D01*
X60562952Y25076191D02*
X60562952Y24923810D01*
X60562952Y24923810D02*
X60601047Y24847620D01*
X60601047Y24847620D02*
X60639142Y24809525D01*
X60639142Y24809525D02*
X60715333Y24771429D01*
X60715333Y24771429D02*
X60867714Y24771429D01*
X60867714Y24771429D02*
X60943904Y24809525D01*
X60943904Y24809525D02*
X60982000Y24847620D01*
X60982000Y24847620D02*
X61020095Y24923810D01*
X61020095Y24923810D02*
X61020095Y25076191D01*
X61020095Y25076191D02*
X60982000Y25152382D01*
X60982000Y25152382D02*
X60943904Y25190477D01*
X60943904Y25190477D02*
X60867714Y25228572D01*
X60867714Y25228572D02*
X60715333Y25228572D01*
X60715333Y25228572D02*
X60639142Y25190477D01*
X60639142Y25190477D02*
X60601047Y25152382D01*
X60601047Y25152382D02*
X60562952Y25076191D01*
%TO.C,RV1*%
X22423810Y18629905D02*
X22157143Y19010858D01*
X21966667Y18629905D02*
X21966667Y19429905D01*
X21966667Y19429905D02*
X22271429Y19429905D01*
X22271429Y19429905D02*
X22347619Y19391810D01*
X22347619Y19391810D02*
X22385714Y19353715D01*
X22385714Y19353715D02*
X22423810Y19277524D01*
X22423810Y19277524D02*
X22423810Y19163239D01*
X22423810Y19163239D02*
X22385714Y19087048D01*
X22385714Y19087048D02*
X22347619Y19048953D01*
X22347619Y19048953D02*
X22271429Y19010858D01*
X22271429Y19010858D02*
X21966667Y19010858D01*
X22652381Y19429905D02*
X22919048Y18629905D01*
X22919048Y18629905D02*
X23185714Y19429905D01*
X23871428Y18629905D02*
X23414285Y18629905D01*
X23642857Y18629905D02*
X23642857Y19429905D01*
X23642857Y19429905D02*
X23566666Y19315620D01*
X23566666Y19315620D02*
X23490476Y19239429D01*
X23490476Y19239429D02*
X23414285Y19201334D01*
%TO.C,U4*%
X13220095Y4540477D02*
X13867714Y4540477D01*
X13867714Y4540477D02*
X13943904Y4578572D01*
X13943904Y4578572D02*
X13982000Y4616667D01*
X13982000Y4616667D02*
X14020095Y4692858D01*
X14020095Y4692858D02*
X14020095Y4845239D01*
X14020095Y4845239D02*
X13982000Y4921429D01*
X13982000Y4921429D02*
X13943904Y4959524D01*
X13943904Y4959524D02*
X13867714Y4997620D01*
X13867714Y4997620D02*
X13220095Y4997620D01*
X13486761Y5721429D02*
X14020095Y5721429D01*
X13182000Y5530953D02*
X13753428Y5340476D01*
X13753428Y5340476D02*
X13753428Y5835715D01*
%TO.C,C31*%
X31943904Y23135715D02*
X31982000Y23097619D01*
X31982000Y23097619D02*
X32020095Y22983334D01*
X32020095Y22983334D02*
X32020095Y22907143D01*
X32020095Y22907143D02*
X31982000Y22792857D01*
X31982000Y22792857D02*
X31905809Y22716667D01*
X31905809Y22716667D02*
X31829619Y22678572D01*
X31829619Y22678572D02*
X31677238Y22640476D01*
X31677238Y22640476D02*
X31562952Y22640476D01*
X31562952Y22640476D02*
X31410571Y22678572D01*
X31410571Y22678572D02*
X31334380Y22716667D01*
X31334380Y22716667D02*
X31258190Y22792857D01*
X31258190Y22792857D02*
X31220095Y22907143D01*
X31220095Y22907143D02*
X31220095Y22983334D01*
X31220095Y22983334D02*
X31258190Y23097619D01*
X31258190Y23097619D02*
X31296285Y23135715D01*
X31220095Y23402381D02*
X31220095Y23897619D01*
X31220095Y23897619D02*
X31524857Y23630953D01*
X31524857Y23630953D02*
X31524857Y23745238D01*
X31524857Y23745238D02*
X31562952Y23821429D01*
X31562952Y23821429D02*
X31601047Y23859524D01*
X31601047Y23859524D02*
X31677238Y23897619D01*
X31677238Y23897619D02*
X31867714Y23897619D01*
X31867714Y23897619D02*
X31943904Y23859524D01*
X31943904Y23859524D02*
X31982000Y23821429D01*
X31982000Y23821429D02*
X32020095Y23745238D01*
X32020095Y23745238D02*
X32020095Y23516667D01*
X32020095Y23516667D02*
X31982000Y23440476D01*
X31982000Y23440476D02*
X31943904Y23402381D01*
X32020095Y24659524D02*
X32020095Y24202381D01*
X32020095Y24430953D02*
X31220095Y24430953D01*
X31220095Y24430953D02*
X31334380Y24354762D01*
X31334380Y24354762D02*
X31410571Y24278572D01*
X31410571Y24278572D02*
X31448666Y24202381D01*
%TO.C,J1*%
X633333Y19529905D02*
X633333Y18958477D01*
X633333Y18958477D02*
X595238Y18844191D01*
X595238Y18844191D02*
X519047Y18768000D01*
X519047Y18768000D02*
X404762Y18729905D01*
X404762Y18729905D02*
X328571Y18729905D01*
X1433333Y18729905D02*
X976190Y18729905D01*
X1204762Y18729905D02*
X1204762Y19529905D01*
X1204762Y19529905D02*
X1128571Y19415620D01*
X1128571Y19415620D02*
X1052381Y19339429D01*
X1052381Y19339429D02*
X976190Y19301334D01*
%TO.C,R7*%
X13800095Y39226668D02*
X13419142Y38960001D01*
X13800095Y38769525D02*
X13000095Y38769525D01*
X13000095Y38769525D02*
X13000095Y39074287D01*
X13000095Y39074287D02*
X13038190Y39150477D01*
X13038190Y39150477D02*
X13076285Y39188572D01*
X13076285Y39188572D02*
X13152476Y39226668D01*
X13152476Y39226668D02*
X13266761Y39226668D01*
X13266761Y39226668D02*
X13342952Y39188572D01*
X13342952Y39188572D02*
X13381047Y39150477D01*
X13381047Y39150477D02*
X13419142Y39074287D01*
X13419142Y39074287D02*
X13419142Y38769525D01*
X13000095Y39493334D02*
X13000095Y40026668D01*
X13000095Y40026668D02*
X13800095Y39683810D01*
%TO.C,C6*%
X36943904Y23166668D02*
X36982000Y23128572D01*
X36982000Y23128572D02*
X37020095Y23014287D01*
X37020095Y23014287D02*
X37020095Y22938096D01*
X37020095Y22938096D02*
X36982000Y22823810D01*
X36982000Y22823810D02*
X36905809Y22747620D01*
X36905809Y22747620D02*
X36829619Y22709525D01*
X36829619Y22709525D02*
X36677238Y22671429D01*
X36677238Y22671429D02*
X36562952Y22671429D01*
X36562952Y22671429D02*
X36410571Y22709525D01*
X36410571Y22709525D02*
X36334380Y22747620D01*
X36334380Y22747620D02*
X36258190Y22823810D01*
X36258190Y22823810D02*
X36220095Y22938096D01*
X36220095Y22938096D02*
X36220095Y23014287D01*
X36220095Y23014287D02*
X36258190Y23128572D01*
X36258190Y23128572D02*
X36296285Y23166668D01*
X36220095Y23852382D02*
X36220095Y23700001D01*
X36220095Y23700001D02*
X36258190Y23623810D01*
X36258190Y23623810D02*
X36296285Y23585715D01*
X36296285Y23585715D02*
X36410571Y23509525D01*
X36410571Y23509525D02*
X36562952Y23471429D01*
X36562952Y23471429D02*
X36867714Y23471429D01*
X36867714Y23471429D02*
X36943904Y23509525D01*
X36943904Y23509525D02*
X36982000Y23547620D01*
X36982000Y23547620D02*
X37020095Y23623810D01*
X37020095Y23623810D02*
X37020095Y23776191D01*
X37020095Y23776191D02*
X36982000Y23852382D01*
X36982000Y23852382D02*
X36943904Y23890477D01*
X36943904Y23890477D02*
X36867714Y23928572D01*
X36867714Y23928572D02*
X36677238Y23928572D01*
X36677238Y23928572D02*
X36601047Y23890477D01*
X36601047Y23890477D02*
X36562952Y23852382D01*
X36562952Y23852382D02*
X36524857Y23776191D01*
X36524857Y23776191D02*
X36524857Y23623810D01*
X36524857Y23623810D02*
X36562952Y23547620D01*
X36562952Y23547620D02*
X36601047Y23509525D01*
X36601047Y23509525D02*
X36677238Y23471429D01*
%TO.C,R12*%
X10370095Y15685715D02*
X9989142Y15419048D01*
X10370095Y15228572D02*
X9570095Y15228572D01*
X9570095Y15228572D02*
X9570095Y15533334D01*
X9570095Y15533334D02*
X9608190Y15609524D01*
X9608190Y15609524D02*
X9646285Y15647619D01*
X9646285Y15647619D02*
X9722476Y15685715D01*
X9722476Y15685715D02*
X9836761Y15685715D01*
X9836761Y15685715D02*
X9912952Y15647619D01*
X9912952Y15647619D02*
X9951047Y15609524D01*
X9951047Y15609524D02*
X9989142Y15533334D01*
X9989142Y15533334D02*
X9989142Y15228572D01*
X10370095Y16447619D02*
X10370095Y15990476D01*
X10370095Y16219048D02*
X9570095Y16219048D01*
X9570095Y16219048D02*
X9684380Y16142857D01*
X9684380Y16142857D02*
X9760571Y16066667D01*
X9760571Y16066667D02*
X9798666Y15990476D01*
X9646285Y16752381D02*
X9608190Y16790477D01*
X9608190Y16790477D02*
X9570095Y16866667D01*
X9570095Y16866667D02*
X9570095Y17057143D01*
X9570095Y17057143D02*
X9608190Y17133334D01*
X9608190Y17133334D02*
X9646285Y17171429D01*
X9646285Y17171429D02*
X9722476Y17209524D01*
X9722476Y17209524D02*
X9798666Y17209524D01*
X9798666Y17209524D02*
X9912952Y17171429D01*
X9912952Y17171429D02*
X10370095Y16714286D01*
X10370095Y16714286D02*
X10370095Y17209524D01*
%TO.C,FB4*%
X58870833Y42428953D02*
X58604167Y42428953D01*
X58604167Y42009905D02*
X58604167Y42809905D01*
X58604167Y42809905D02*
X58985119Y42809905D01*
X59556547Y42428953D02*
X59670833Y42390858D01*
X59670833Y42390858D02*
X59708928Y42352762D01*
X59708928Y42352762D02*
X59747024Y42276572D01*
X59747024Y42276572D02*
X59747024Y42162286D01*
X59747024Y42162286D02*
X59708928Y42086096D01*
X59708928Y42086096D02*
X59670833Y42048000D01*
X59670833Y42048000D02*
X59594643Y42009905D01*
X59594643Y42009905D02*
X59289881Y42009905D01*
X59289881Y42009905D02*
X59289881Y42809905D01*
X59289881Y42809905D02*
X59556547Y42809905D01*
X59556547Y42809905D02*
X59632738Y42771810D01*
X59632738Y42771810D02*
X59670833Y42733715D01*
X59670833Y42733715D02*
X59708928Y42657524D01*
X59708928Y42657524D02*
X59708928Y42581334D01*
X59708928Y42581334D02*
X59670833Y42505143D01*
X59670833Y42505143D02*
X59632738Y42467048D01*
X59632738Y42467048D02*
X59556547Y42428953D01*
X59556547Y42428953D02*
X59289881Y42428953D01*
X60432738Y42543239D02*
X60432738Y42009905D01*
X60242262Y42848000D02*
X60051785Y42276572D01*
X60051785Y42276572D02*
X60547024Y42276572D01*
%TO.C,FB3*%
X69701047Y25733334D02*
X69701047Y25466668D01*
X70120095Y25466668D02*
X69320095Y25466668D01*
X69320095Y25466668D02*
X69320095Y25847620D01*
X69701047Y26419048D02*
X69739142Y26533334D01*
X69739142Y26533334D02*
X69777238Y26571429D01*
X69777238Y26571429D02*
X69853428Y26609525D01*
X69853428Y26609525D02*
X69967714Y26609525D01*
X69967714Y26609525D02*
X70043904Y26571429D01*
X70043904Y26571429D02*
X70082000Y26533334D01*
X70082000Y26533334D02*
X70120095Y26457144D01*
X70120095Y26457144D02*
X70120095Y26152382D01*
X70120095Y26152382D02*
X69320095Y26152382D01*
X69320095Y26152382D02*
X69320095Y26419048D01*
X69320095Y26419048D02*
X69358190Y26495239D01*
X69358190Y26495239D02*
X69396285Y26533334D01*
X69396285Y26533334D02*
X69472476Y26571429D01*
X69472476Y26571429D02*
X69548666Y26571429D01*
X69548666Y26571429D02*
X69624857Y26533334D01*
X69624857Y26533334D02*
X69662952Y26495239D01*
X69662952Y26495239D02*
X69701047Y26419048D01*
X69701047Y26419048D02*
X69701047Y26152382D01*
X69320095Y26876191D02*
X69320095Y27371429D01*
X69320095Y27371429D02*
X69624857Y27104763D01*
X69624857Y27104763D02*
X69624857Y27219048D01*
X69624857Y27219048D02*
X69662952Y27295239D01*
X69662952Y27295239D02*
X69701047Y27333334D01*
X69701047Y27333334D02*
X69777238Y27371429D01*
X69777238Y27371429D02*
X69967714Y27371429D01*
X69967714Y27371429D02*
X70043904Y27333334D01*
X70043904Y27333334D02*
X70082000Y27295239D01*
X70082000Y27295239D02*
X70120095Y27219048D01*
X70120095Y27219048D02*
X70120095Y26990477D01*
X70120095Y26990477D02*
X70082000Y26914286D01*
X70082000Y26914286D02*
X70043904Y26876191D01*
%TO.C,C19*%
X20293904Y36135715D02*
X20332000Y36097619D01*
X20332000Y36097619D02*
X20370095Y35983334D01*
X20370095Y35983334D02*
X20370095Y35907143D01*
X20370095Y35907143D02*
X20332000Y35792857D01*
X20332000Y35792857D02*
X20255809Y35716667D01*
X20255809Y35716667D02*
X20179619Y35678572D01*
X20179619Y35678572D02*
X20027238Y35640476D01*
X20027238Y35640476D02*
X19912952Y35640476D01*
X19912952Y35640476D02*
X19760571Y35678572D01*
X19760571Y35678572D02*
X19684380Y35716667D01*
X19684380Y35716667D02*
X19608190Y35792857D01*
X19608190Y35792857D02*
X19570095Y35907143D01*
X19570095Y35907143D02*
X19570095Y35983334D01*
X19570095Y35983334D02*
X19608190Y36097619D01*
X19608190Y36097619D02*
X19646285Y36135715D01*
X20370095Y36897619D02*
X20370095Y36440476D01*
X20370095Y36669048D02*
X19570095Y36669048D01*
X19570095Y36669048D02*
X19684380Y36592857D01*
X19684380Y36592857D02*
X19760571Y36516667D01*
X19760571Y36516667D02*
X19798666Y36440476D01*
X20370095Y37278572D02*
X20370095Y37430953D01*
X20370095Y37430953D02*
X20332000Y37507143D01*
X20332000Y37507143D02*
X20293904Y37545239D01*
X20293904Y37545239D02*
X20179619Y37621429D01*
X20179619Y37621429D02*
X20027238Y37659524D01*
X20027238Y37659524D02*
X19722476Y37659524D01*
X19722476Y37659524D02*
X19646285Y37621429D01*
X19646285Y37621429D02*
X19608190Y37583334D01*
X19608190Y37583334D02*
X19570095Y37507143D01*
X19570095Y37507143D02*
X19570095Y37354762D01*
X19570095Y37354762D02*
X19608190Y37278572D01*
X19608190Y37278572D02*
X19646285Y37240477D01*
X19646285Y37240477D02*
X19722476Y37202381D01*
X19722476Y37202381D02*
X19912952Y37202381D01*
X19912952Y37202381D02*
X19989142Y37240477D01*
X19989142Y37240477D02*
X20027238Y37278572D01*
X20027238Y37278572D02*
X20065333Y37354762D01*
X20065333Y37354762D02*
X20065333Y37507143D01*
X20065333Y37507143D02*
X20027238Y37583334D01*
X20027238Y37583334D02*
X19989142Y37621429D01*
X19989142Y37621429D02*
X19912952Y37659524D01*
%TO.C,D1*%
X43740095Y40909525D02*
X42940095Y40909525D01*
X42940095Y40909525D02*
X42940095Y41100001D01*
X42940095Y41100001D02*
X42978190Y41214287D01*
X42978190Y41214287D02*
X43054380Y41290477D01*
X43054380Y41290477D02*
X43130571Y41328572D01*
X43130571Y41328572D02*
X43282952Y41366668D01*
X43282952Y41366668D02*
X43397238Y41366668D01*
X43397238Y41366668D02*
X43549619Y41328572D01*
X43549619Y41328572D02*
X43625809Y41290477D01*
X43625809Y41290477D02*
X43702000Y41214287D01*
X43702000Y41214287D02*
X43740095Y41100001D01*
X43740095Y41100001D02*
X43740095Y40909525D01*
X43740095Y42128572D02*
X43740095Y41671429D01*
X43740095Y41900001D02*
X42940095Y41900001D01*
X42940095Y41900001D02*
X43054380Y41823810D01*
X43054380Y41823810D02*
X43130571Y41747620D01*
X43130571Y41747620D02*
X43168666Y41671429D01*
%TO.C,Q1*%
X49846285Y19723810D02*
X49808190Y19647620D01*
X49808190Y19647620D02*
X49732000Y19571429D01*
X49732000Y19571429D02*
X49617714Y19457143D01*
X49617714Y19457143D02*
X49579619Y19380953D01*
X49579619Y19380953D02*
X49579619Y19304762D01*
X49770095Y19342858D02*
X49732000Y19266667D01*
X49732000Y19266667D02*
X49655809Y19190477D01*
X49655809Y19190477D02*
X49503428Y19152381D01*
X49503428Y19152381D02*
X49236761Y19152381D01*
X49236761Y19152381D02*
X49084380Y19190477D01*
X49084380Y19190477D02*
X49008190Y19266667D01*
X49008190Y19266667D02*
X48970095Y19342858D01*
X48970095Y19342858D02*
X48970095Y19495239D01*
X48970095Y19495239D02*
X49008190Y19571429D01*
X49008190Y19571429D02*
X49084380Y19647620D01*
X49084380Y19647620D02*
X49236761Y19685715D01*
X49236761Y19685715D02*
X49503428Y19685715D01*
X49503428Y19685715D02*
X49655809Y19647620D01*
X49655809Y19647620D02*
X49732000Y19571429D01*
X49732000Y19571429D02*
X49770095Y19495239D01*
X49770095Y19495239D02*
X49770095Y19342858D01*
X49770095Y20447619D02*
X49770095Y19990476D01*
X49770095Y20219048D02*
X48970095Y20219048D01*
X48970095Y20219048D02*
X49084380Y20142857D01*
X49084380Y20142857D02*
X49160571Y20066667D01*
X49160571Y20066667D02*
X49198666Y19990476D01*
%TO.C,C5*%
X38046667Y20006096D02*
X38008571Y19968000D01*
X38008571Y19968000D02*
X37894286Y19929905D01*
X37894286Y19929905D02*
X37818095Y19929905D01*
X37818095Y19929905D02*
X37703809Y19968000D01*
X37703809Y19968000D02*
X37627619Y20044191D01*
X37627619Y20044191D02*
X37589524Y20120381D01*
X37589524Y20120381D02*
X37551428Y20272762D01*
X37551428Y20272762D02*
X37551428Y20387048D01*
X37551428Y20387048D02*
X37589524Y20539429D01*
X37589524Y20539429D02*
X37627619Y20615620D01*
X37627619Y20615620D02*
X37703809Y20691810D01*
X37703809Y20691810D02*
X37818095Y20729905D01*
X37818095Y20729905D02*
X37894286Y20729905D01*
X37894286Y20729905D02*
X38008571Y20691810D01*
X38008571Y20691810D02*
X38046667Y20653715D01*
X38770476Y20729905D02*
X38389524Y20729905D01*
X38389524Y20729905D02*
X38351428Y20348953D01*
X38351428Y20348953D02*
X38389524Y20387048D01*
X38389524Y20387048D02*
X38465714Y20425143D01*
X38465714Y20425143D02*
X38656190Y20425143D01*
X38656190Y20425143D02*
X38732381Y20387048D01*
X38732381Y20387048D02*
X38770476Y20348953D01*
X38770476Y20348953D02*
X38808571Y20272762D01*
X38808571Y20272762D02*
X38808571Y20082286D01*
X38808571Y20082286D02*
X38770476Y20006096D01*
X38770476Y20006096D02*
X38732381Y19968000D01*
X38732381Y19968000D02*
X38656190Y19929905D01*
X38656190Y19929905D02*
X38465714Y19929905D01*
X38465714Y19929905D02*
X38389524Y19968000D01*
X38389524Y19968000D02*
X38351428Y20006096D01*
%TO.C,J2*%
X1633333Y29234905D02*
X1633333Y28663477D01*
X1633333Y28663477D02*
X1595238Y28549191D01*
X1595238Y28549191D02*
X1519047Y28473000D01*
X1519047Y28473000D02*
X1404762Y28434905D01*
X1404762Y28434905D02*
X1328571Y28434905D01*
X1976190Y29158715D02*
X2014286Y29196810D01*
X2014286Y29196810D02*
X2090476Y29234905D01*
X2090476Y29234905D02*
X2280952Y29234905D01*
X2280952Y29234905D02*
X2357143Y29196810D01*
X2357143Y29196810D02*
X2395238Y29158715D01*
X2395238Y29158715D02*
X2433333Y29082524D01*
X2433333Y29082524D02*
X2433333Y29006334D01*
X2433333Y29006334D02*
X2395238Y28892048D01*
X2395238Y28892048D02*
X1938095Y28434905D01*
X1938095Y28434905D02*
X2433333Y28434905D01*
%TO.C,R19*%
X15370095Y23935715D02*
X14989142Y23669048D01*
X15370095Y23478572D02*
X14570095Y23478572D01*
X14570095Y23478572D02*
X14570095Y23783334D01*
X14570095Y23783334D02*
X14608190Y23859524D01*
X14608190Y23859524D02*
X14646285Y23897619D01*
X14646285Y23897619D02*
X14722476Y23935715D01*
X14722476Y23935715D02*
X14836761Y23935715D01*
X14836761Y23935715D02*
X14912952Y23897619D01*
X14912952Y23897619D02*
X14951047Y23859524D01*
X14951047Y23859524D02*
X14989142Y23783334D01*
X14989142Y23783334D02*
X14989142Y23478572D01*
X15370095Y24697619D02*
X15370095Y24240476D01*
X15370095Y24469048D02*
X14570095Y24469048D01*
X14570095Y24469048D02*
X14684380Y24392857D01*
X14684380Y24392857D02*
X14760571Y24316667D01*
X14760571Y24316667D02*
X14798666Y24240476D01*
X15370095Y25078572D02*
X15370095Y25230953D01*
X15370095Y25230953D02*
X15332000Y25307143D01*
X15332000Y25307143D02*
X15293904Y25345239D01*
X15293904Y25345239D02*
X15179619Y25421429D01*
X15179619Y25421429D02*
X15027238Y25459524D01*
X15027238Y25459524D02*
X14722476Y25459524D01*
X14722476Y25459524D02*
X14646285Y25421429D01*
X14646285Y25421429D02*
X14608190Y25383334D01*
X14608190Y25383334D02*
X14570095Y25307143D01*
X14570095Y25307143D02*
X14570095Y25154762D01*
X14570095Y25154762D02*
X14608190Y25078572D01*
X14608190Y25078572D02*
X14646285Y25040477D01*
X14646285Y25040477D02*
X14722476Y25002381D01*
X14722476Y25002381D02*
X14912952Y25002381D01*
X14912952Y25002381D02*
X14989142Y25040477D01*
X14989142Y25040477D02*
X15027238Y25078572D01*
X15027238Y25078572D02*
X15065333Y25154762D01*
X15065333Y25154762D02*
X15065333Y25307143D01*
X15065333Y25307143D02*
X15027238Y25383334D01*
X15027238Y25383334D02*
X14989142Y25421429D01*
X14989142Y25421429D02*
X14912952Y25459524D01*
%TO.C,L7*%
X36411666Y44179905D02*
X36030714Y44179905D01*
X36030714Y44179905D02*
X36030714Y44979905D01*
X36602142Y44979905D02*
X37135476Y44979905D01*
X37135476Y44979905D02*
X36792618Y44179905D01*
%TO.C,Q2*%
X9796285Y32323810D02*
X9758190Y32247620D01*
X9758190Y32247620D02*
X9682000Y32171429D01*
X9682000Y32171429D02*
X9567714Y32057143D01*
X9567714Y32057143D02*
X9529619Y31980953D01*
X9529619Y31980953D02*
X9529619Y31904762D01*
X9720095Y31942858D02*
X9682000Y31866667D01*
X9682000Y31866667D02*
X9605809Y31790477D01*
X9605809Y31790477D02*
X9453428Y31752381D01*
X9453428Y31752381D02*
X9186761Y31752381D01*
X9186761Y31752381D02*
X9034380Y31790477D01*
X9034380Y31790477D02*
X8958190Y31866667D01*
X8958190Y31866667D02*
X8920095Y31942858D01*
X8920095Y31942858D02*
X8920095Y32095239D01*
X8920095Y32095239D02*
X8958190Y32171429D01*
X8958190Y32171429D02*
X9034380Y32247620D01*
X9034380Y32247620D02*
X9186761Y32285715D01*
X9186761Y32285715D02*
X9453428Y32285715D01*
X9453428Y32285715D02*
X9605809Y32247620D01*
X9605809Y32247620D02*
X9682000Y32171429D01*
X9682000Y32171429D02*
X9720095Y32095239D01*
X9720095Y32095239D02*
X9720095Y31942858D01*
X8996285Y32590476D02*
X8958190Y32628572D01*
X8958190Y32628572D02*
X8920095Y32704762D01*
X8920095Y32704762D02*
X8920095Y32895238D01*
X8920095Y32895238D02*
X8958190Y32971429D01*
X8958190Y32971429D02*
X8996285Y33009524D01*
X8996285Y33009524D02*
X9072476Y33047619D01*
X9072476Y33047619D02*
X9148666Y33047619D01*
X9148666Y33047619D02*
X9262952Y33009524D01*
X9262952Y33009524D02*
X9720095Y32552381D01*
X9720095Y32552381D02*
X9720095Y33047619D01*
%TO.C,C22*%
X31663904Y31135715D02*
X31702000Y31097619D01*
X31702000Y31097619D02*
X31740095Y30983334D01*
X31740095Y30983334D02*
X31740095Y30907143D01*
X31740095Y30907143D02*
X31702000Y30792857D01*
X31702000Y30792857D02*
X31625809Y30716667D01*
X31625809Y30716667D02*
X31549619Y30678572D01*
X31549619Y30678572D02*
X31397238Y30640476D01*
X31397238Y30640476D02*
X31282952Y30640476D01*
X31282952Y30640476D02*
X31130571Y30678572D01*
X31130571Y30678572D02*
X31054380Y30716667D01*
X31054380Y30716667D02*
X30978190Y30792857D01*
X30978190Y30792857D02*
X30940095Y30907143D01*
X30940095Y30907143D02*
X30940095Y30983334D01*
X30940095Y30983334D02*
X30978190Y31097619D01*
X30978190Y31097619D02*
X31016285Y31135715D01*
X31016285Y31440476D02*
X30978190Y31478572D01*
X30978190Y31478572D02*
X30940095Y31554762D01*
X30940095Y31554762D02*
X30940095Y31745238D01*
X30940095Y31745238D02*
X30978190Y31821429D01*
X30978190Y31821429D02*
X31016285Y31859524D01*
X31016285Y31859524D02*
X31092476Y31897619D01*
X31092476Y31897619D02*
X31168666Y31897619D01*
X31168666Y31897619D02*
X31282952Y31859524D01*
X31282952Y31859524D02*
X31740095Y31402381D01*
X31740095Y31402381D02*
X31740095Y31897619D01*
X31016285Y32202381D02*
X30978190Y32240477D01*
X30978190Y32240477D02*
X30940095Y32316667D01*
X30940095Y32316667D02*
X30940095Y32507143D01*
X30940095Y32507143D02*
X30978190Y32583334D01*
X30978190Y32583334D02*
X31016285Y32621429D01*
X31016285Y32621429D02*
X31092476Y32659524D01*
X31092476Y32659524D02*
X31168666Y32659524D01*
X31168666Y32659524D02*
X31282952Y32621429D01*
X31282952Y32621429D02*
X31740095Y32164286D01*
X31740095Y32164286D02*
X31740095Y32659524D01*
%TO.C,L9*%
X20020095Y5041667D02*
X20020095Y4660715D01*
X20020095Y4660715D02*
X19220095Y4660715D01*
X20020095Y5346429D02*
X20020095Y5498810D01*
X20020095Y5498810D02*
X19982000Y5575000D01*
X19982000Y5575000D02*
X19943904Y5613096D01*
X19943904Y5613096D02*
X19829619Y5689286D01*
X19829619Y5689286D02*
X19677238Y5727381D01*
X19677238Y5727381D02*
X19372476Y5727381D01*
X19372476Y5727381D02*
X19296285Y5689286D01*
X19296285Y5689286D02*
X19258190Y5651191D01*
X19258190Y5651191D02*
X19220095Y5575000D01*
X19220095Y5575000D02*
X19220095Y5422619D01*
X19220095Y5422619D02*
X19258190Y5346429D01*
X19258190Y5346429D02*
X19296285Y5308334D01*
X19296285Y5308334D02*
X19372476Y5270238D01*
X19372476Y5270238D02*
X19562952Y5270238D01*
X19562952Y5270238D02*
X19639142Y5308334D01*
X19639142Y5308334D02*
X19677238Y5346429D01*
X19677238Y5346429D02*
X19715333Y5422619D01*
X19715333Y5422619D02*
X19715333Y5575000D01*
X19715333Y5575000D02*
X19677238Y5651191D01*
X19677238Y5651191D02*
X19639142Y5689286D01*
X19639142Y5689286D02*
X19562952Y5727381D01*
%TO.C,C4*%
X29726667Y9556096D02*
X29688571Y9518000D01*
X29688571Y9518000D02*
X29574286Y9479905D01*
X29574286Y9479905D02*
X29498095Y9479905D01*
X29498095Y9479905D02*
X29383809Y9518000D01*
X29383809Y9518000D02*
X29307619Y9594191D01*
X29307619Y9594191D02*
X29269524Y9670381D01*
X29269524Y9670381D02*
X29231428Y9822762D01*
X29231428Y9822762D02*
X29231428Y9937048D01*
X29231428Y9937048D02*
X29269524Y10089429D01*
X29269524Y10089429D02*
X29307619Y10165620D01*
X29307619Y10165620D02*
X29383809Y10241810D01*
X29383809Y10241810D02*
X29498095Y10279905D01*
X29498095Y10279905D02*
X29574286Y10279905D01*
X29574286Y10279905D02*
X29688571Y10241810D01*
X29688571Y10241810D02*
X29726667Y10203715D01*
X30412381Y10013239D02*
X30412381Y9479905D01*
X30221905Y10318000D02*
X30031428Y9746572D01*
X30031428Y9746572D02*
X30526667Y9746572D01*
%TO.C,C41*%
X11943904Y4685715D02*
X11982000Y4647619D01*
X11982000Y4647619D02*
X12020095Y4533334D01*
X12020095Y4533334D02*
X12020095Y4457143D01*
X12020095Y4457143D02*
X11982000Y4342857D01*
X11982000Y4342857D02*
X11905809Y4266667D01*
X11905809Y4266667D02*
X11829619Y4228572D01*
X11829619Y4228572D02*
X11677238Y4190476D01*
X11677238Y4190476D02*
X11562952Y4190476D01*
X11562952Y4190476D02*
X11410571Y4228572D01*
X11410571Y4228572D02*
X11334380Y4266667D01*
X11334380Y4266667D02*
X11258190Y4342857D01*
X11258190Y4342857D02*
X11220095Y4457143D01*
X11220095Y4457143D02*
X11220095Y4533334D01*
X11220095Y4533334D02*
X11258190Y4647619D01*
X11258190Y4647619D02*
X11296285Y4685715D01*
X11486761Y5371429D02*
X12020095Y5371429D01*
X11182000Y5180953D02*
X11753428Y4990476D01*
X11753428Y4990476D02*
X11753428Y5485715D01*
X12020095Y6209524D02*
X12020095Y5752381D01*
X12020095Y5980953D02*
X11220095Y5980953D01*
X11220095Y5980953D02*
X11334380Y5904762D01*
X11334380Y5904762D02*
X11410571Y5828572D01*
X11410571Y5828572D02*
X11448666Y5752381D01*
%TO.C,C16*%
X18435714Y41356096D02*
X18397618Y41318000D01*
X18397618Y41318000D02*
X18283333Y41279905D01*
X18283333Y41279905D02*
X18207142Y41279905D01*
X18207142Y41279905D02*
X18092856Y41318000D01*
X18092856Y41318000D02*
X18016666Y41394191D01*
X18016666Y41394191D02*
X17978571Y41470381D01*
X17978571Y41470381D02*
X17940475Y41622762D01*
X17940475Y41622762D02*
X17940475Y41737048D01*
X17940475Y41737048D02*
X17978571Y41889429D01*
X17978571Y41889429D02*
X18016666Y41965620D01*
X18016666Y41965620D02*
X18092856Y42041810D01*
X18092856Y42041810D02*
X18207142Y42079905D01*
X18207142Y42079905D02*
X18283333Y42079905D01*
X18283333Y42079905D02*
X18397618Y42041810D01*
X18397618Y42041810D02*
X18435714Y42003715D01*
X19197618Y41279905D02*
X18740475Y41279905D01*
X18969047Y41279905D02*
X18969047Y42079905D01*
X18969047Y42079905D02*
X18892856Y41965620D01*
X18892856Y41965620D02*
X18816666Y41889429D01*
X18816666Y41889429D02*
X18740475Y41851334D01*
X19883333Y42079905D02*
X19730952Y42079905D01*
X19730952Y42079905D02*
X19654761Y42041810D01*
X19654761Y42041810D02*
X19616666Y42003715D01*
X19616666Y42003715D02*
X19540476Y41889429D01*
X19540476Y41889429D02*
X19502380Y41737048D01*
X19502380Y41737048D02*
X19502380Y41432286D01*
X19502380Y41432286D02*
X19540476Y41356096D01*
X19540476Y41356096D02*
X19578571Y41318000D01*
X19578571Y41318000D02*
X19654761Y41279905D01*
X19654761Y41279905D02*
X19807142Y41279905D01*
X19807142Y41279905D02*
X19883333Y41318000D01*
X19883333Y41318000D02*
X19921428Y41356096D01*
X19921428Y41356096D02*
X19959523Y41432286D01*
X19959523Y41432286D02*
X19959523Y41622762D01*
X19959523Y41622762D02*
X19921428Y41698953D01*
X19921428Y41698953D02*
X19883333Y41737048D01*
X19883333Y41737048D02*
X19807142Y41775143D01*
X19807142Y41775143D02*
X19654761Y41775143D01*
X19654761Y41775143D02*
X19578571Y41737048D01*
X19578571Y41737048D02*
X19540476Y41698953D01*
X19540476Y41698953D02*
X19502380Y41622762D01*
%TO.C,R21*%
X53770095Y30460715D02*
X53389142Y30194048D01*
X53770095Y30003572D02*
X52970095Y30003572D01*
X52970095Y30003572D02*
X52970095Y30308334D01*
X52970095Y30308334D02*
X53008190Y30384524D01*
X53008190Y30384524D02*
X53046285Y30422619D01*
X53046285Y30422619D02*
X53122476Y30460715D01*
X53122476Y30460715D02*
X53236761Y30460715D01*
X53236761Y30460715D02*
X53312952Y30422619D01*
X53312952Y30422619D02*
X53351047Y30384524D01*
X53351047Y30384524D02*
X53389142Y30308334D01*
X53389142Y30308334D02*
X53389142Y30003572D01*
X53046285Y30765476D02*
X53008190Y30803572D01*
X53008190Y30803572D02*
X52970095Y30879762D01*
X52970095Y30879762D02*
X52970095Y31070238D01*
X52970095Y31070238D02*
X53008190Y31146429D01*
X53008190Y31146429D02*
X53046285Y31184524D01*
X53046285Y31184524D02*
X53122476Y31222619D01*
X53122476Y31222619D02*
X53198666Y31222619D01*
X53198666Y31222619D02*
X53312952Y31184524D01*
X53312952Y31184524D02*
X53770095Y30727381D01*
X53770095Y30727381D02*
X53770095Y31222619D01*
X53770095Y31984524D02*
X53770095Y31527381D01*
X53770095Y31755953D02*
X52970095Y31755953D01*
X52970095Y31755953D02*
X53084380Y31679762D01*
X53084380Y31679762D02*
X53160571Y31603572D01*
X53160571Y31603572D02*
X53198666Y31527381D01*
%TO.C,C37*%
X65768904Y40935715D02*
X65807000Y40897619D01*
X65807000Y40897619D02*
X65845095Y40783334D01*
X65845095Y40783334D02*
X65845095Y40707143D01*
X65845095Y40707143D02*
X65807000Y40592857D01*
X65807000Y40592857D02*
X65730809Y40516667D01*
X65730809Y40516667D02*
X65654619Y40478572D01*
X65654619Y40478572D02*
X65502238Y40440476D01*
X65502238Y40440476D02*
X65387952Y40440476D01*
X65387952Y40440476D02*
X65235571Y40478572D01*
X65235571Y40478572D02*
X65159380Y40516667D01*
X65159380Y40516667D02*
X65083190Y40592857D01*
X65083190Y40592857D02*
X65045095Y40707143D01*
X65045095Y40707143D02*
X65045095Y40783334D01*
X65045095Y40783334D02*
X65083190Y40897619D01*
X65083190Y40897619D02*
X65121285Y40935715D01*
X65045095Y41202381D02*
X65045095Y41697619D01*
X65045095Y41697619D02*
X65349857Y41430953D01*
X65349857Y41430953D02*
X65349857Y41545238D01*
X65349857Y41545238D02*
X65387952Y41621429D01*
X65387952Y41621429D02*
X65426047Y41659524D01*
X65426047Y41659524D02*
X65502238Y41697619D01*
X65502238Y41697619D02*
X65692714Y41697619D01*
X65692714Y41697619D02*
X65768904Y41659524D01*
X65768904Y41659524D02*
X65807000Y41621429D01*
X65807000Y41621429D02*
X65845095Y41545238D01*
X65845095Y41545238D02*
X65845095Y41316667D01*
X65845095Y41316667D02*
X65807000Y41240476D01*
X65807000Y41240476D02*
X65768904Y41202381D01*
X65045095Y41964286D02*
X65045095Y42497620D01*
X65045095Y42497620D02*
X65845095Y42154762D01*
%TO.C,R20*%
X16405714Y34529905D02*
X16139047Y34910858D01*
X15948571Y34529905D02*
X15948571Y35329905D01*
X15948571Y35329905D02*
X16253333Y35329905D01*
X16253333Y35329905D02*
X16329523Y35291810D01*
X16329523Y35291810D02*
X16367618Y35253715D01*
X16367618Y35253715D02*
X16405714Y35177524D01*
X16405714Y35177524D02*
X16405714Y35063239D01*
X16405714Y35063239D02*
X16367618Y34987048D01*
X16367618Y34987048D02*
X16329523Y34948953D01*
X16329523Y34948953D02*
X16253333Y34910858D01*
X16253333Y34910858D02*
X15948571Y34910858D01*
X16710475Y35253715D02*
X16748571Y35291810D01*
X16748571Y35291810D02*
X16824761Y35329905D01*
X16824761Y35329905D02*
X17015237Y35329905D01*
X17015237Y35329905D02*
X17091428Y35291810D01*
X17091428Y35291810D02*
X17129523Y35253715D01*
X17129523Y35253715D02*
X17167618Y35177524D01*
X17167618Y35177524D02*
X17167618Y35101334D01*
X17167618Y35101334D02*
X17129523Y34987048D01*
X17129523Y34987048D02*
X16672380Y34529905D01*
X16672380Y34529905D02*
X17167618Y34529905D01*
X17662857Y35329905D02*
X17739047Y35329905D01*
X17739047Y35329905D02*
X17815238Y35291810D01*
X17815238Y35291810D02*
X17853333Y35253715D01*
X17853333Y35253715D02*
X17891428Y35177524D01*
X17891428Y35177524D02*
X17929523Y35025143D01*
X17929523Y35025143D02*
X17929523Y34834667D01*
X17929523Y34834667D02*
X17891428Y34682286D01*
X17891428Y34682286D02*
X17853333Y34606096D01*
X17853333Y34606096D02*
X17815238Y34568000D01*
X17815238Y34568000D02*
X17739047Y34529905D01*
X17739047Y34529905D02*
X17662857Y34529905D01*
X17662857Y34529905D02*
X17586666Y34568000D01*
X17586666Y34568000D02*
X17548571Y34606096D01*
X17548571Y34606096D02*
X17510476Y34682286D01*
X17510476Y34682286D02*
X17472380Y34834667D01*
X17472380Y34834667D02*
X17472380Y35025143D01*
X17472380Y35025143D02*
X17510476Y35177524D01*
X17510476Y35177524D02*
X17548571Y35253715D01*
X17548571Y35253715D02*
X17586666Y35291810D01*
X17586666Y35291810D02*
X17662857Y35329905D01*
%TO.C,C39*%
X20885714Y10856096D02*
X20847618Y10818000D01*
X20847618Y10818000D02*
X20733333Y10779905D01*
X20733333Y10779905D02*
X20657142Y10779905D01*
X20657142Y10779905D02*
X20542856Y10818000D01*
X20542856Y10818000D02*
X20466666Y10894191D01*
X20466666Y10894191D02*
X20428571Y10970381D01*
X20428571Y10970381D02*
X20390475Y11122762D01*
X20390475Y11122762D02*
X20390475Y11237048D01*
X20390475Y11237048D02*
X20428571Y11389429D01*
X20428571Y11389429D02*
X20466666Y11465620D01*
X20466666Y11465620D02*
X20542856Y11541810D01*
X20542856Y11541810D02*
X20657142Y11579905D01*
X20657142Y11579905D02*
X20733333Y11579905D01*
X20733333Y11579905D02*
X20847618Y11541810D01*
X20847618Y11541810D02*
X20885714Y11503715D01*
X21152380Y11579905D02*
X21647618Y11579905D01*
X21647618Y11579905D02*
X21380952Y11275143D01*
X21380952Y11275143D02*
X21495237Y11275143D01*
X21495237Y11275143D02*
X21571428Y11237048D01*
X21571428Y11237048D02*
X21609523Y11198953D01*
X21609523Y11198953D02*
X21647618Y11122762D01*
X21647618Y11122762D02*
X21647618Y10932286D01*
X21647618Y10932286D02*
X21609523Y10856096D01*
X21609523Y10856096D02*
X21571428Y10818000D01*
X21571428Y10818000D02*
X21495237Y10779905D01*
X21495237Y10779905D02*
X21266666Y10779905D01*
X21266666Y10779905D02*
X21190475Y10818000D01*
X21190475Y10818000D02*
X21152380Y10856096D01*
X22028571Y10779905D02*
X22180952Y10779905D01*
X22180952Y10779905D02*
X22257142Y10818000D01*
X22257142Y10818000D02*
X22295238Y10856096D01*
X22295238Y10856096D02*
X22371428Y10970381D01*
X22371428Y10970381D02*
X22409523Y11122762D01*
X22409523Y11122762D02*
X22409523Y11427524D01*
X22409523Y11427524D02*
X22371428Y11503715D01*
X22371428Y11503715D02*
X22333333Y11541810D01*
X22333333Y11541810D02*
X22257142Y11579905D01*
X22257142Y11579905D02*
X22104761Y11579905D01*
X22104761Y11579905D02*
X22028571Y11541810D01*
X22028571Y11541810D02*
X21990476Y11503715D01*
X21990476Y11503715D02*
X21952380Y11427524D01*
X21952380Y11427524D02*
X21952380Y11237048D01*
X21952380Y11237048D02*
X21990476Y11160858D01*
X21990476Y11160858D02*
X22028571Y11122762D01*
X22028571Y11122762D02*
X22104761Y11084667D01*
X22104761Y11084667D02*
X22257142Y11084667D01*
X22257142Y11084667D02*
X22333333Y11122762D01*
X22333333Y11122762D02*
X22371428Y11160858D01*
X22371428Y11160858D02*
X22409523Y11237048D01*
%TO.C,L2*%
X32650095Y7516667D02*
X32650095Y7135715D01*
X32650095Y7135715D02*
X31850095Y7135715D01*
X31926285Y7745238D02*
X31888190Y7783334D01*
X31888190Y7783334D02*
X31850095Y7859524D01*
X31850095Y7859524D02*
X31850095Y8050000D01*
X31850095Y8050000D02*
X31888190Y8126191D01*
X31888190Y8126191D02*
X31926285Y8164286D01*
X31926285Y8164286D02*
X32002476Y8202381D01*
X32002476Y8202381D02*
X32078666Y8202381D01*
X32078666Y8202381D02*
X32192952Y8164286D01*
X32192952Y8164286D02*
X32650095Y7707143D01*
X32650095Y7707143D02*
X32650095Y8202381D01*
%TO.C,R6*%
X13066667Y27629905D02*
X12800000Y28010858D01*
X12609524Y27629905D02*
X12609524Y28429905D01*
X12609524Y28429905D02*
X12914286Y28429905D01*
X12914286Y28429905D02*
X12990476Y28391810D01*
X12990476Y28391810D02*
X13028571Y28353715D01*
X13028571Y28353715D02*
X13066667Y28277524D01*
X13066667Y28277524D02*
X13066667Y28163239D01*
X13066667Y28163239D02*
X13028571Y28087048D01*
X13028571Y28087048D02*
X12990476Y28048953D01*
X12990476Y28048953D02*
X12914286Y28010858D01*
X12914286Y28010858D02*
X12609524Y28010858D01*
X13752381Y28429905D02*
X13600000Y28429905D01*
X13600000Y28429905D02*
X13523809Y28391810D01*
X13523809Y28391810D02*
X13485714Y28353715D01*
X13485714Y28353715D02*
X13409524Y28239429D01*
X13409524Y28239429D02*
X13371428Y28087048D01*
X13371428Y28087048D02*
X13371428Y27782286D01*
X13371428Y27782286D02*
X13409524Y27706096D01*
X13409524Y27706096D02*
X13447619Y27668000D01*
X13447619Y27668000D02*
X13523809Y27629905D01*
X13523809Y27629905D02*
X13676190Y27629905D01*
X13676190Y27629905D02*
X13752381Y27668000D01*
X13752381Y27668000D02*
X13790476Y27706096D01*
X13790476Y27706096D02*
X13828571Y27782286D01*
X13828571Y27782286D02*
X13828571Y27972762D01*
X13828571Y27972762D02*
X13790476Y28048953D01*
X13790476Y28048953D02*
X13752381Y28087048D01*
X13752381Y28087048D02*
X13676190Y28125143D01*
X13676190Y28125143D02*
X13523809Y28125143D01*
X13523809Y28125143D02*
X13447619Y28087048D01*
X13447619Y28087048D02*
X13409524Y28048953D01*
X13409524Y28048953D02*
X13371428Y27972762D01*
%TO.C,R4*%
X65120095Y22716668D02*
X64739142Y22450001D01*
X65120095Y22259525D02*
X64320095Y22259525D01*
X64320095Y22259525D02*
X64320095Y22564287D01*
X64320095Y22564287D02*
X64358190Y22640477D01*
X64358190Y22640477D02*
X64396285Y22678572D01*
X64396285Y22678572D02*
X64472476Y22716668D01*
X64472476Y22716668D02*
X64586761Y22716668D01*
X64586761Y22716668D02*
X64662952Y22678572D01*
X64662952Y22678572D02*
X64701047Y22640477D01*
X64701047Y22640477D02*
X64739142Y22564287D01*
X64739142Y22564287D02*
X64739142Y22259525D01*
X64586761Y23402382D02*
X65120095Y23402382D01*
X64282000Y23211906D02*
X64853428Y23021429D01*
X64853428Y23021429D02*
X64853428Y23516668D01*
%TO.C,C1*%
X7466667Y15306096D02*
X7428571Y15268000D01*
X7428571Y15268000D02*
X7314286Y15229905D01*
X7314286Y15229905D02*
X7238095Y15229905D01*
X7238095Y15229905D02*
X7123809Y15268000D01*
X7123809Y15268000D02*
X7047619Y15344191D01*
X7047619Y15344191D02*
X7009524Y15420381D01*
X7009524Y15420381D02*
X6971428Y15572762D01*
X6971428Y15572762D02*
X6971428Y15687048D01*
X6971428Y15687048D02*
X7009524Y15839429D01*
X7009524Y15839429D02*
X7047619Y15915620D01*
X7047619Y15915620D02*
X7123809Y15991810D01*
X7123809Y15991810D02*
X7238095Y16029905D01*
X7238095Y16029905D02*
X7314286Y16029905D01*
X7314286Y16029905D02*
X7428571Y15991810D01*
X7428571Y15991810D02*
X7466667Y15953715D01*
X8228571Y15229905D02*
X7771428Y15229905D01*
X8000000Y15229905D02*
X8000000Y16029905D01*
X8000000Y16029905D02*
X7923809Y15915620D01*
X7923809Y15915620D02*
X7847619Y15839429D01*
X7847619Y15839429D02*
X7771428Y15801334D01*
%TO.C,L1*%
X26771666Y7879905D02*
X26390714Y7879905D01*
X26390714Y7879905D02*
X26390714Y8679905D01*
X27457380Y7879905D02*
X27000237Y7879905D01*
X27228809Y7879905D02*
X27228809Y8679905D01*
X27228809Y8679905D02*
X27152618Y8565620D01*
X27152618Y8565620D02*
X27076428Y8489429D01*
X27076428Y8489429D02*
X27000237Y8451334D01*
%TO.C,Q5*%
X39393809Y34353715D02*
X39317619Y34391810D01*
X39317619Y34391810D02*
X39241428Y34468000D01*
X39241428Y34468000D02*
X39127142Y34582286D01*
X39127142Y34582286D02*
X39050952Y34620381D01*
X39050952Y34620381D02*
X38974761Y34620381D01*
X39012857Y34429905D02*
X38936666Y34468000D01*
X38936666Y34468000D02*
X38860476Y34544191D01*
X38860476Y34544191D02*
X38822380Y34696572D01*
X38822380Y34696572D02*
X38822380Y34963239D01*
X38822380Y34963239D02*
X38860476Y35115620D01*
X38860476Y35115620D02*
X38936666Y35191810D01*
X38936666Y35191810D02*
X39012857Y35229905D01*
X39012857Y35229905D02*
X39165238Y35229905D01*
X39165238Y35229905D02*
X39241428Y35191810D01*
X39241428Y35191810D02*
X39317619Y35115620D01*
X39317619Y35115620D02*
X39355714Y34963239D01*
X39355714Y34963239D02*
X39355714Y34696572D01*
X39355714Y34696572D02*
X39317619Y34544191D01*
X39317619Y34544191D02*
X39241428Y34468000D01*
X39241428Y34468000D02*
X39165238Y34429905D01*
X39165238Y34429905D02*
X39012857Y34429905D01*
X40079523Y35229905D02*
X39698571Y35229905D01*
X39698571Y35229905D02*
X39660475Y34848953D01*
X39660475Y34848953D02*
X39698571Y34887048D01*
X39698571Y34887048D02*
X39774761Y34925143D01*
X39774761Y34925143D02*
X39965237Y34925143D01*
X39965237Y34925143D02*
X40041428Y34887048D01*
X40041428Y34887048D02*
X40079523Y34848953D01*
X40079523Y34848953D02*
X40117618Y34772762D01*
X40117618Y34772762D02*
X40117618Y34582286D01*
X40117618Y34582286D02*
X40079523Y34506096D01*
X40079523Y34506096D02*
X40041428Y34468000D01*
X40041428Y34468000D02*
X39965237Y34429905D01*
X39965237Y34429905D02*
X39774761Y34429905D01*
X39774761Y34429905D02*
X39698571Y34468000D01*
X39698571Y34468000D02*
X39660475Y34506096D01*
%TO.C,J5*%
X83833333Y10229905D02*
X83833333Y9658477D01*
X83833333Y9658477D02*
X83795238Y9544191D01*
X83795238Y9544191D02*
X83719047Y9468000D01*
X83719047Y9468000D02*
X83604762Y9429905D01*
X83604762Y9429905D02*
X83528571Y9429905D01*
X84595238Y10229905D02*
X84214286Y10229905D01*
X84214286Y10229905D02*
X84176190Y9848953D01*
X84176190Y9848953D02*
X84214286Y9887048D01*
X84214286Y9887048D02*
X84290476Y9925143D01*
X84290476Y9925143D02*
X84480952Y9925143D01*
X84480952Y9925143D02*
X84557143Y9887048D01*
X84557143Y9887048D02*
X84595238Y9848953D01*
X84595238Y9848953D02*
X84633333Y9772762D01*
X84633333Y9772762D02*
X84633333Y9582286D01*
X84633333Y9582286D02*
X84595238Y9506096D01*
X84595238Y9506096D02*
X84557143Y9468000D01*
X84557143Y9468000D02*
X84480952Y9429905D01*
X84480952Y9429905D02*
X84290476Y9429905D01*
X84290476Y9429905D02*
X84214286Y9468000D01*
X84214286Y9468000D02*
X84176190Y9506096D01*
%TO.C,R9*%
X22690095Y30016668D02*
X22309142Y29750001D01*
X22690095Y29559525D02*
X21890095Y29559525D01*
X21890095Y29559525D02*
X21890095Y29864287D01*
X21890095Y29864287D02*
X21928190Y29940477D01*
X21928190Y29940477D02*
X21966285Y29978572D01*
X21966285Y29978572D02*
X22042476Y30016668D01*
X22042476Y30016668D02*
X22156761Y30016668D01*
X22156761Y30016668D02*
X22232952Y29978572D01*
X22232952Y29978572D02*
X22271047Y29940477D01*
X22271047Y29940477D02*
X22309142Y29864287D01*
X22309142Y29864287D02*
X22309142Y29559525D01*
X22690095Y30397620D02*
X22690095Y30550001D01*
X22690095Y30550001D02*
X22652000Y30626191D01*
X22652000Y30626191D02*
X22613904Y30664287D01*
X22613904Y30664287D02*
X22499619Y30740477D01*
X22499619Y30740477D02*
X22347238Y30778572D01*
X22347238Y30778572D02*
X22042476Y30778572D01*
X22042476Y30778572D02*
X21966285Y30740477D01*
X21966285Y30740477D02*
X21928190Y30702382D01*
X21928190Y30702382D02*
X21890095Y30626191D01*
X21890095Y30626191D02*
X21890095Y30473810D01*
X21890095Y30473810D02*
X21928190Y30397620D01*
X21928190Y30397620D02*
X21966285Y30359525D01*
X21966285Y30359525D02*
X22042476Y30321429D01*
X22042476Y30321429D02*
X22232952Y30321429D01*
X22232952Y30321429D02*
X22309142Y30359525D01*
X22309142Y30359525D02*
X22347238Y30397620D01*
X22347238Y30397620D02*
X22385333Y30473810D01*
X22385333Y30473810D02*
X22385333Y30626191D01*
X22385333Y30626191D02*
X22347238Y30702382D01*
X22347238Y30702382D02*
X22309142Y30740477D01*
X22309142Y30740477D02*
X22232952Y30778572D01*
%TO.C,L4*%
X62820095Y13816667D02*
X62820095Y13435715D01*
X62820095Y13435715D02*
X62020095Y13435715D01*
X62286761Y14426191D02*
X62820095Y14426191D01*
X61982000Y14235715D02*
X62553428Y14045238D01*
X62553428Y14045238D02*
X62553428Y14540477D01*
%TO.C,C21*%
X35913904Y33585715D02*
X35952000Y33547619D01*
X35952000Y33547619D02*
X35990095Y33433334D01*
X35990095Y33433334D02*
X35990095Y33357143D01*
X35990095Y33357143D02*
X35952000Y33242857D01*
X35952000Y33242857D02*
X35875809Y33166667D01*
X35875809Y33166667D02*
X35799619Y33128572D01*
X35799619Y33128572D02*
X35647238Y33090476D01*
X35647238Y33090476D02*
X35532952Y33090476D01*
X35532952Y33090476D02*
X35380571Y33128572D01*
X35380571Y33128572D02*
X35304380Y33166667D01*
X35304380Y33166667D02*
X35228190Y33242857D01*
X35228190Y33242857D02*
X35190095Y33357143D01*
X35190095Y33357143D02*
X35190095Y33433334D01*
X35190095Y33433334D02*
X35228190Y33547619D01*
X35228190Y33547619D02*
X35266285Y33585715D01*
X35266285Y33890476D02*
X35228190Y33928572D01*
X35228190Y33928572D02*
X35190095Y34004762D01*
X35190095Y34004762D02*
X35190095Y34195238D01*
X35190095Y34195238D02*
X35228190Y34271429D01*
X35228190Y34271429D02*
X35266285Y34309524D01*
X35266285Y34309524D02*
X35342476Y34347619D01*
X35342476Y34347619D02*
X35418666Y34347619D01*
X35418666Y34347619D02*
X35532952Y34309524D01*
X35532952Y34309524D02*
X35990095Y33852381D01*
X35990095Y33852381D02*
X35990095Y34347619D01*
X35990095Y35109524D02*
X35990095Y34652381D01*
X35990095Y34880953D02*
X35190095Y34880953D01*
X35190095Y34880953D02*
X35304380Y34804762D01*
X35304380Y34804762D02*
X35380571Y34728572D01*
X35380571Y34728572D02*
X35418666Y34652381D01*
%TO.C,C29*%
X49893904Y26235715D02*
X49932000Y26197619D01*
X49932000Y26197619D02*
X49970095Y26083334D01*
X49970095Y26083334D02*
X49970095Y26007143D01*
X49970095Y26007143D02*
X49932000Y25892857D01*
X49932000Y25892857D02*
X49855809Y25816667D01*
X49855809Y25816667D02*
X49779619Y25778572D01*
X49779619Y25778572D02*
X49627238Y25740476D01*
X49627238Y25740476D02*
X49512952Y25740476D01*
X49512952Y25740476D02*
X49360571Y25778572D01*
X49360571Y25778572D02*
X49284380Y25816667D01*
X49284380Y25816667D02*
X49208190Y25892857D01*
X49208190Y25892857D02*
X49170095Y26007143D01*
X49170095Y26007143D02*
X49170095Y26083334D01*
X49170095Y26083334D02*
X49208190Y26197619D01*
X49208190Y26197619D02*
X49246285Y26235715D01*
X49246285Y26540476D02*
X49208190Y26578572D01*
X49208190Y26578572D02*
X49170095Y26654762D01*
X49170095Y26654762D02*
X49170095Y26845238D01*
X49170095Y26845238D02*
X49208190Y26921429D01*
X49208190Y26921429D02*
X49246285Y26959524D01*
X49246285Y26959524D02*
X49322476Y26997619D01*
X49322476Y26997619D02*
X49398666Y26997619D01*
X49398666Y26997619D02*
X49512952Y26959524D01*
X49512952Y26959524D02*
X49970095Y26502381D01*
X49970095Y26502381D02*
X49970095Y26997619D01*
X49970095Y27378572D02*
X49970095Y27530953D01*
X49970095Y27530953D02*
X49932000Y27607143D01*
X49932000Y27607143D02*
X49893904Y27645239D01*
X49893904Y27645239D02*
X49779619Y27721429D01*
X49779619Y27721429D02*
X49627238Y27759524D01*
X49627238Y27759524D02*
X49322476Y27759524D01*
X49322476Y27759524D02*
X49246285Y27721429D01*
X49246285Y27721429D02*
X49208190Y27683334D01*
X49208190Y27683334D02*
X49170095Y27607143D01*
X49170095Y27607143D02*
X49170095Y27454762D01*
X49170095Y27454762D02*
X49208190Y27378572D01*
X49208190Y27378572D02*
X49246285Y27340477D01*
X49246285Y27340477D02*
X49322476Y27302381D01*
X49322476Y27302381D02*
X49512952Y27302381D01*
X49512952Y27302381D02*
X49589142Y27340477D01*
X49589142Y27340477D02*
X49627238Y27378572D01*
X49627238Y27378572D02*
X49665333Y27454762D01*
X49665333Y27454762D02*
X49665333Y27607143D01*
X49665333Y27607143D02*
X49627238Y27683334D01*
X49627238Y27683334D02*
X49589142Y27721429D01*
X49589142Y27721429D02*
X49512952Y27759524D01*
%TO.C,C32*%
X53443904Y37785715D02*
X53482000Y37747619D01*
X53482000Y37747619D02*
X53520095Y37633334D01*
X53520095Y37633334D02*
X53520095Y37557143D01*
X53520095Y37557143D02*
X53482000Y37442857D01*
X53482000Y37442857D02*
X53405809Y37366667D01*
X53405809Y37366667D02*
X53329619Y37328572D01*
X53329619Y37328572D02*
X53177238Y37290476D01*
X53177238Y37290476D02*
X53062952Y37290476D01*
X53062952Y37290476D02*
X52910571Y37328572D01*
X52910571Y37328572D02*
X52834380Y37366667D01*
X52834380Y37366667D02*
X52758190Y37442857D01*
X52758190Y37442857D02*
X52720095Y37557143D01*
X52720095Y37557143D02*
X52720095Y37633334D01*
X52720095Y37633334D02*
X52758190Y37747619D01*
X52758190Y37747619D02*
X52796285Y37785715D01*
X52720095Y38052381D02*
X52720095Y38547619D01*
X52720095Y38547619D02*
X53024857Y38280953D01*
X53024857Y38280953D02*
X53024857Y38395238D01*
X53024857Y38395238D02*
X53062952Y38471429D01*
X53062952Y38471429D02*
X53101047Y38509524D01*
X53101047Y38509524D02*
X53177238Y38547619D01*
X53177238Y38547619D02*
X53367714Y38547619D01*
X53367714Y38547619D02*
X53443904Y38509524D01*
X53443904Y38509524D02*
X53482000Y38471429D01*
X53482000Y38471429D02*
X53520095Y38395238D01*
X53520095Y38395238D02*
X53520095Y38166667D01*
X53520095Y38166667D02*
X53482000Y38090476D01*
X53482000Y38090476D02*
X53443904Y38052381D01*
X52796285Y38852381D02*
X52758190Y38890477D01*
X52758190Y38890477D02*
X52720095Y38966667D01*
X52720095Y38966667D02*
X52720095Y39157143D01*
X52720095Y39157143D02*
X52758190Y39233334D01*
X52758190Y39233334D02*
X52796285Y39271429D01*
X52796285Y39271429D02*
X52872476Y39309524D01*
X52872476Y39309524D02*
X52948666Y39309524D01*
X52948666Y39309524D02*
X53062952Y39271429D01*
X53062952Y39271429D02*
X53520095Y38814286D01*
X53520095Y38814286D02*
X53520095Y39309524D01*
%TO.C,J3*%
X5683333Y41879905D02*
X5683333Y41308477D01*
X5683333Y41308477D02*
X5645238Y41194191D01*
X5645238Y41194191D02*
X5569047Y41118000D01*
X5569047Y41118000D02*
X5454762Y41079905D01*
X5454762Y41079905D02*
X5378571Y41079905D01*
X5988095Y41879905D02*
X6483333Y41879905D01*
X6483333Y41879905D02*
X6216667Y41575143D01*
X6216667Y41575143D02*
X6330952Y41575143D01*
X6330952Y41575143D02*
X6407143Y41537048D01*
X6407143Y41537048D02*
X6445238Y41498953D01*
X6445238Y41498953D02*
X6483333Y41422762D01*
X6483333Y41422762D02*
X6483333Y41232286D01*
X6483333Y41232286D02*
X6445238Y41156096D01*
X6445238Y41156096D02*
X6407143Y41118000D01*
X6407143Y41118000D02*
X6330952Y41079905D01*
X6330952Y41079905D02*
X6102381Y41079905D01*
X6102381Y41079905D02*
X6026190Y41118000D01*
X6026190Y41118000D02*
X5988095Y41156096D01*
%TO.C,R18*%
X38640095Y29485715D02*
X38259142Y29219048D01*
X38640095Y29028572D02*
X37840095Y29028572D01*
X37840095Y29028572D02*
X37840095Y29333334D01*
X37840095Y29333334D02*
X37878190Y29409524D01*
X37878190Y29409524D02*
X37916285Y29447619D01*
X37916285Y29447619D02*
X37992476Y29485715D01*
X37992476Y29485715D02*
X38106761Y29485715D01*
X38106761Y29485715D02*
X38182952Y29447619D01*
X38182952Y29447619D02*
X38221047Y29409524D01*
X38221047Y29409524D02*
X38259142Y29333334D01*
X38259142Y29333334D02*
X38259142Y29028572D01*
X38640095Y30247619D02*
X38640095Y29790476D01*
X38640095Y30019048D02*
X37840095Y30019048D01*
X37840095Y30019048D02*
X37954380Y29942857D01*
X37954380Y29942857D02*
X38030571Y29866667D01*
X38030571Y29866667D02*
X38068666Y29790476D01*
X38182952Y30704762D02*
X38144857Y30628572D01*
X38144857Y30628572D02*
X38106761Y30590477D01*
X38106761Y30590477D02*
X38030571Y30552381D01*
X38030571Y30552381D02*
X37992476Y30552381D01*
X37992476Y30552381D02*
X37916285Y30590477D01*
X37916285Y30590477D02*
X37878190Y30628572D01*
X37878190Y30628572D02*
X37840095Y30704762D01*
X37840095Y30704762D02*
X37840095Y30857143D01*
X37840095Y30857143D02*
X37878190Y30933334D01*
X37878190Y30933334D02*
X37916285Y30971429D01*
X37916285Y30971429D02*
X37992476Y31009524D01*
X37992476Y31009524D02*
X38030571Y31009524D01*
X38030571Y31009524D02*
X38106761Y30971429D01*
X38106761Y30971429D02*
X38144857Y30933334D01*
X38144857Y30933334D02*
X38182952Y30857143D01*
X38182952Y30857143D02*
X38182952Y30704762D01*
X38182952Y30704762D02*
X38221047Y30628572D01*
X38221047Y30628572D02*
X38259142Y30590477D01*
X38259142Y30590477D02*
X38335333Y30552381D01*
X38335333Y30552381D02*
X38487714Y30552381D01*
X38487714Y30552381D02*
X38563904Y30590477D01*
X38563904Y30590477D02*
X38602000Y30628572D01*
X38602000Y30628572D02*
X38640095Y30704762D01*
X38640095Y30704762D02*
X38640095Y30857143D01*
X38640095Y30857143D02*
X38602000Y30933334D01*
X38602000Y30933334D02*
X38563904Y30971429D01*
X38563904Y30971429D02*
X38487714Y31009524D01*
X38487714Y31009524D02*
X38335333Y31009524D01*
X38335333Y31009524D02*
X38259142Y30971429D01*
X38259142Y30971429D02*
X38221047Y30933334D01*
X38221047Y30933334D02*
X38182952Y30857143D01*
%TO.C,C20*%
X30055714Y37906096D02*
X30017618Y37868000D01*
X30017618Y37868000D02*
X29903333Y37829905D01*
X29903333Y37829905D02*
X29827142Y37829905D01*
X29827142Y37829905D02*
X29712856Y37868000D01*
X29712856Y37868000D02*
X29636666Y37944191D01*
X29636666Y37944191D02*
X29598571Y38020381D01*
X29598571Y38020381D02*
X29560475Y38172762D01*
X29560475Y38172762D02*
X29560475Y38287048D01*
X29560475Y38287048D02*
X29598571Y38439429D01*
X29598571Y38439429D02*
X29636666Y38515620D01*
X29636666Y38515620D02*
X29712856Y38591810D01*
X29712856Y38591810D02*
X29827142Y38629905D01*
X29827142Y38629905D02*
X29903333Y38629905D01*
X29903333Y38629905D02*
X30017618Y38591810D01*
X30017618Y38591810D02*
X30055714Y38553715D01*
X30360475Y38553715D02*
X30398571Y38591810D01*
X30398571Y38591810D02*
X30474761Y38629905D01*
X30474761Y38629905D02*
X30665237Y38629905D01*
X30665237Y38629905D02*
X30741428Y38591810D01*
X30741428Y38591810D02*
X30779523Y38553715D01*
X30779523Y38553715D02*
X30817618Y38477524D01*
X30817618Y38477524D02*
X30817618Y38401334D01*
X30817618Y38401334D02*
X30779523Y38287048D01*
X30779523Y38287048D02*
X30322380Y37829905D01*
X30322380Y37829905D02*
X30817618Y37829905D01*
X31312857Y38629905D02*
X31389047Y38629905D01*
X31389047Y38629905D02*
X31465238Y38591810D01*
X31465238Y38591810D02*
X31503333Y38553715D01*
X31503333Y38553715D02*
X31541428Y38477524D01*
X31541428Y38477524D02*
X31579523Y38325143D01*
X31579523Y38325143D02*
X31579523Y38134667D01*
X31579523Y38134667D02*
X31541428Y37982286D01*
X31541428Y37982286D02*
X31503333Y37906096D01*
X31503333Y37906096D02*
X31465238Y37868000D01*
X31465238Y37868000D02*
X31389047Y37829905D01*
X31389047Y37829905D02*
X31312857Y37829905D01*
X31312857Y37829905D02*
X31236666Y37868000D01*
X31236666Y37868000D02*
X31198571Y37906096D01*
X31198571Y37906096D02*
X31160476Y37982286D01*
X31160476Y37982286D02*
X31122380Y38134667D01*
X31122380Y38134667D02*
X31122380Y38325143D01*
X31122380Y38325143D02*
X31160476Y38477524D01*
X31160476Y38477524D02*
X31198571Y38553715D01*
X31198571Y38553715D02*
X31236666Y38591810D01*
X31236666Y38591810D02*
X31312857Y38629905D01*
%TO.C,C27*%
X46013904Y33285715D02*
X46052000Y33247619D01*
X46052000Y33247619D02*
X46090095Y33133334D01*
X46090095Y33133334D02*
X46090095Y33057143D01*
X46090095Y33057143D02*
X46052000Y32942857D01*
X46052000Y32942857D02*
X45975809Y32866667D01*
X45975809Y32866667D02*
X45899619Y32828572D01*
X45899619Y32828572D02*
X45747238Y32790476D01*
X45747238Y32790476D02*
X45632952Y32790476D01*
X45632952Y32790476D02*
X45480571Y32828572D01*
X45480571Y32828572D02*
X45404380Y32866667D01*
X45404380Y32866667D02*
X45328190Y32942857D01*
X45328190Y32942857D02*
X45290095Y33057143D01*
X45290095Y33057143D02*
X45290095Y33133334D01*
X45290095Y33133334D02*
X45328190Y33247619D01*
X45328190Y33247619D02*
X45366285Y33285715D01*
X45366285Y33590476D02*
X45328190Y33628572D01*
X45328190Y33628572D02*
X45290095Y33704762D01*
X45290095Y33704762D02*
X45290095Y33895238D01*
X45290095Y33895238D02*
X45328190Y33971429D01*
X45328190Y33971429D02*
X45366285Y34009524D01*
X45366285Y34009524D02*
X45442476Y34047619D01*
X45442476Y34047619D02*
X45518666Y34047619D01*
X45518666Y34047619D02*
X45632952Y34009524D01*
X45632952Y34009524D02*
X46090095Y33552381D01*
X46090095Y33552381D02*
X46090095Y34047619D01*
X45290095Y34314286D02*
X45290095Y34847620D01*
X45290095Y34847620D02*
X46090095Y34504762D01*
%TO.C,C14*%
X63935714Y16806096D02*
X63897618Y16768000D01*
X63897618Y16768000D02*
X63783333Y16729905D01*
X63783333Y16729905D02*
X63707142Y16729905D01*
X63707142Y16729905D02*
X63592856Y16768000D01*
X63592856Y16768000D02*
X63516666Y16844191D01*
X63516666Y16844191D02*
X63478571Y16920381D01*
X63478571Y16920381D02*
X63440475Y17072762D01*
X63440475Y17072762D02*
X63440475Y17187048D01*
X63440475Y17187048D02*
X63478571Y17339429D01*
X63478571Y17339429D02*
X63516666Y17415620D01*
X63516666Y17415620D02*
X63592856Y17491810D01*
X63592856Y17491810D02*
X63707142Y17529905D01*
X63707142Y17529905D02*
X63783333Y17529905D01*
X63783333Y17529905D02*
X63897618Y17491810D01*
X63897618Y17491810D02*
X63935714Y17453715D01*
X64697618Y16729905D02*
X64240475Y16729905D01*
X64469047Y16729905D02*
X64469047Y17529905D01*
X64469047Y17529905D02*
X64392856Y17415620D01*
X64392856Y17415620D02*
X64316666Y17339429D01*
X64316666Y17339429D02*
X64240475Y17301334D01*
X65383333Y17263239D02*
X65383333Y16729905D01*
X65192857Y17568000D02*
X65002380Y16996572D01*
X65002380Y16996572D02*
X65497619Y16996572D01*
%TO.C,C28*%
X47563904Y33535715D02*
X47602000Y33497619D01*
X47602000Y33497619D02*
X47640095Y33383334D01*
X47640095Y33383334D02*
X47640095Y33307143D01*
X47640095Y33307143D02*
X47602000Y33192857D01*
X47602000Y33192857D02*
X47525809Y33116667D01*
X47525809Y33116667D02*
X47449619Y33078572D01*
X47449619Y33078572D02*
X47297238Y33040476D01*
X47297238Y33040476D02*
X47182952Y33040476D01*
X47182952Y33040476D02*
X47030571Y33078572D01*
X47030571Y33078572D02*
X46954380Y33116667D01*
X46954380Y33116667D02*
X46878190Y33192857D01*
X46878190Y33192857D02*
X46840095Y33307143D01*
X46840095Y33307143D02*
X46840095Y33383334D01*
X46840095Y33383334D02*
X46878190Y33497619D01*
X46878190Y33497619D02*
X46916285Y33535715D01*
X46916285Y33840476D02*
X46878190Y33878572D01*
X46878190Y33878572D02*
X46840095Y33954762D01*
X46840095Y33954762D02*
X46840095Y34145238D01*
X46840095Y34145238D02*
X46878190Y34221429D01*
X46878190Y34221429D02*
X46916285Y34259524D01*
X46916285Y34259524D02*
X46992476Y34297619D01*
X46992476Y34297619D02*
X47068666Y34297619D01*
X47068666Y34297619D02*
X47182952Y34259524D01*
X47182952Y34259524D02*
X47640095Y33802381D01*
X47640095Y33802381D02*
X47640095Y34297619D01*
X47182952Y34754762D02*
X47144857Y34678572D01*
X47144857Y34678572D02*
X47106761Y34640477D01*
X47106761Y34640477D02*
X47030571Y34602381D01*
X47030571Y34602381D02*
X46992476Y34602381D01*
X46992476Y34602381D02*
X46916285Y34640477D01*
X46916285Y34640477D02*
X46878190Y34678572D01*
X46878190Y34678572D02*
X46840095Y34754762D01*
X46840095Y34754762D02*
X46840095Y34907143D01*
X46840095Y34907143D02*
X46878190Y34983334D01*
X46878190Y34983334D02*
X46916285Y35021429D01*
X46916285Y35021429D02*
X46992476Y35059524D01*
X46992476Y35059524D02*
X47030571Y35059524D01*
X47030571Y35059524D02*
X47106761Y35021429D01*
X47106761Y35021429D02*
X47144857Y34983334D01*
X47144857Y34983334D02*
X47182952Y34907143D01*
X47182952Y34907143D02*
X47182952Y34754762D01*
X47182952Y34754762D02*
X47221047Y34678572D01*
X47221047Y34678572D02*
X47259142Y34640477D01*
X47259142Y34640477D02*
X47335333Y34602381D01*
X47335333Y34602381D02*
X47487714Y34602381D01*
X47487714Y34602381D02*
X47563904Y34640477D01*
X47563904Y34640477D02*
X47602000Y34678572D01*
X47602000Y34678572D02*
X47640095Y34754762D01*
X47640095Y34754762D02*
X47640095Y34907143D01*
X47640095Y34907143D02*
X47602000Y34983334D01*
X47602000Y34983334D02*
X47563904Y35021429D01*
X47563904Y35021429D02*
X47487714Y35059524D01*
X47487714Y35059524D02*
X47335333Y35059524D01*
X47335333Y35059524D02*
X47259142Y35021429D01*
X47259142Y35021429D02*
X47221047Y34983334D01*
X47221047Y34983334D02*
X47182952Y34907143D01*
%TO.C,C36*%
X63218904Y42285715D02*
X63257000Y42247619D01*
X63257000Y42247619D02*
X63295095Y42133334D01*
X63295095Y42133334D02*
X63295095Y42057143D01*
X63295095Y42057143D02*
X63257000Y41942857D01*
X63257000Y41942857D02*
X63180809Y41866667D01*
X63180809Y41866667D02*
X63104619Y41828572D01*
X63104619Y41828572D02*
X62952238Y41790476D01*
X62952238Y41790476D02*
X62837952Y41790476D01*
X62837952Y41790476D02*
X62685571Y41828572D01*
X62685571Y41828572D02*
X62609380Y41866667D01*
X62609380Y41866667D02*
X62533190Y41942857D01*
X62533190Y41942857D02*
X62495095Y42057143D01*
X62495095Y42057143D02*
X62495095Y42133334D01*
X62495095Y42133334D02*
X62533190Y42247619D01*
X62533190Y42247619D02*
X62571285Y42285715D01*
X62495095Y42552381D02*
X62495095Y43047619D01*
X62495095Y43047619D02*
X62799857Y42780953D01*
X62799857Y42780953D02*
X62799857Y42895238D01*
X62799857Y42895238D02*
X62837952Y42971429D01*
X62837952Y42971429D02*
X62876047Y43009524D01*
X62876047Y43009524D02*
X62952238Y43047619D01*
X62952238Y43047619D02*
X63142714Y43047619D01*
X63142714Y43047619D02*
X63218904Y43009524D01*
X63218904Y43009524D02*
X63257000Y42971429D01*
X63257000Y42971429D02*
X63295095Y42895238D01*
X63295095Y42895238D02*
X63295095Y42666667D01*
X63295095Y42666667D02*
X63257000Y42590476D01*
X63257000Y42590476D02*
X63218904Y42552381D01*
X62495095Y43733334D02*
X62495095Y43580953D01*
X62495095Y43580953D02*
X62533190Y43504762D01*
X62533190Y43504762D02*
X62571285Y43466667D01*
X62571285Y43466667D02*
X62685571Y43390477D01*
X62685571Y43390477D02*
X62837952Y43352381D01*
X62837952Y43352381D02*
X63142714Y43352381D01*
X63142714Y43352381D02*
X63218904Y43390477D01*
X63218904Y43390477D02*
X63257000Y43428572D01*
X63257000Y43428572D02*
X63295095Y43504762D01*
X63295095Y43504762D02*
X63295095Y43657143D01*
X63295095Y43657143D02*
X63257000Y43733334D01*
X63257000Y43733334D02*
X63218904Y43771429D01*
X63218904Y43771429D02*
X63142714Y43809524D01*
X63142714Y43809524D02*
X62952238Y43809524D01*
X62952238Y43809524D02*
X62876047Y43771429D01*
X62876047Y43771429D02*
X62837952Y43733334D01*
X62837952Y43733334D02*
X62799857Y43657143D01*
X62799857Y43657143D02*
X62799857Y43504762D01*
X62799857Y43504762D02*
X62837952Y43428572D01*
X62837952Y43428572D02*
X62876047Y43390477D01*
X62876047Y43390477D02*
X62952238Y43352381D01*
%TO.C,C30*%
X18493904Y18885715D02*
X18532000Y18847619D01*
X18532000Y18847619D02*
X18570095Y18733334D01*
X18570095Y18733334D02*
X18570095Y18657143D01*
X18570095Y18657143D02*
X18532000Y18542857D01*
X18532000Y18542857D02*
X18455809Y18466667D01*
X18455809Y18466667D02*
X18379619Y18428572D01*
X18379619Y18428572D02*
X18227238Y18390476D01*
X18227238Y18390476D02*
X18112952Y18390476D01*
X18112952Y18390476D02*
X17960571Y18428572D01*
X17960571Y18428572D02*
X17884380Y18466667D01*
X17884380Y18466667D02*
X17808190Y18542857D01*
X17808190Y18542857D02*
X17770095Y18657143D01*
X17770095Y18657143D02*
X17770095Y18733334D01*
X17770095Y18733334D02*
X17808190Y18847619D01*
X17808190Y18847619D02*
X17846285Y18885715D01*
X17770095Y19152381D02*
X17770095Y19647619D01*
X17770095Y19647619D02*
X18074857Y19380953D01*
X18074857Y19380953D02*
X18074857Y19495238D01*
X18074857Y19495238D02*
X18112952Y19571429D01*
X18112952Y19571429D02*
X18151047Y19609524D01*
X18151047Y19609524D02*
X18227238Y19647619D01*
X18227238Y19647619D02*
X18417714Y19647619D01*
X18417714Y19647619D02*
X18493904Y19609524D01*
X18493904Y19609524D02*
X18532000Y19571429D01*
X18532000Y19571429D02*
X18570095Y19495238D01*
X18570095Y19495238D02*
X18570095Y19266667D01*
X18570095Y19266667D02*
X18532000Y19190476D01*
X18532000Y19190476D02*
X18493904Y19152381D01*
X17770095Y20142858D02*
X17770095Y20219048D01*
X17770095Y20219048D02*
X17808190Y20295239D01*
X17808190Y20295239D02*
X17846285Y20333334D01*
X17846285Y20333334D02*
X17922476Y20371429D01*
X17922476Y20371429D02*
X18074857Y20409524D01*
X18074857Y20409524D02*
X18265333Y20409524D01*
X18265333Y20409524D02*
X18417714Y20371429D01*
X18417714Y20371429D02*
X18493904Y20333334D01*
X18493904Y20333334D02*
X18532000Y20295239D01*
X18532000Y20295239D02*
X18570095Y20219048D01*
X18570095Y20219048D02*
X18570095Y20142858D01*
X18570095Y20142858D02*
X18532000Y20066667D01*
X18532000Y20066667D02*
X18493904Y20028572D01*
X18493904Y20028572D02*
X18417714Y19990477D01*
X18417714Y19990477D02*
X18265333Y19952381D01*
X18265333Y19952381D02*
X18074857Y19952381D01*
X18074857Y19952381D02*
X17922476Y19990477D01*
X17922476Y19990477D02*
X17846285Y20028572D01*
X17846285Y20028572D02*
X17808190Y20066667D01*
X17808190Y20066667D02*
X17770095Y20142858D01*
%TO.C,R10*%
X15320095Y17535715D02*
X14939142Y17269048D01*
X15320095Y17078572D02*
X14520095Y17078572D01*
X14520095Y17078572D02*
X14520095Y17383334D01*
X14520095Y17383334D02*
X14558190Y17459524D01*
X14558190Y17459524D02*
X14596285Y17497619D01*
X14596285Y17497619D02*
X14672476Y17535715D01*
X14672476Y17535715D02*
X14786761Y17535715D01*
X14786761Y17535715D02*
X14862952Y17497619D01*
X14862952Y17497619D02*
X14901047Y17459524D01*
X14901047Y17459524D02*
X14939142Y17383334D01*
X14939142Y17383334D02*
X14939142Y17078572D01*
X15320095Y18297619D02*
X15320095Y17840476D01*
X15320095Y18069048D02*
X14520095Y18069048D01*
X14520095Y18069048D02*
X14634380Y17992857D01*
X14634380Y17992857D02*
X14710571Y17916667D01*
X14710571Y17916667D02*
X14748666Y17840476D01*
X14520095Y18792858D02*
X14520095Y18869048D01*
X14520095Y18869048D02*
X14558190Y18945239D01*
X14558190Y18945239D02*
X14596285Y18983334D01*
X14596285Y18983334D02*
X14672476Y19021429D01*
X14672476Y19021429D02*
X14824857Y19059524D01*
X14824857Y19059524D02*
X15015333Y19059524D01*
X15015333Y19059524D02*
X15167714Y19021429D01*
X15167714Y19021429D02*
X15243904Y18983334D01*
X15243904Y18983334D02*
X15282000Y18945239D01*
X15282000Y18945239D02*
X15320095Y18869048D01*
X15320095Y18869048D02*
X15320095Y18792858D01*
X15320095Y18792858D02*
X15282000Y18716667D01*
X15282000Y18716667D02*
X15243904Y18678572D01*
X15243904Y18678572D02*
X15167714Y18640477D01*
X15167714Y18640477D02*
X15015333Y18602381D01*
X15015333Y18602381D02*
X14824857Y18602381D01*
X14824857Y18602381D02*
X14672476Y18640477D01*
X14672476Y18640477D02*
X14596285Y18678572D01*
X14596285Y18678572D02*
X14558190Y18716667D01*
X14558190Y18716667D02*
X14520095Y18792858D01*
%TO.C,C25*%
X28043904Y42285715D02*
X28082000Y42247619D01*
X28082000Y42247619D02*
X28120095Y42133334D01*
X28120095Y42133334D02*
X28120095Y42057143D01*
X28120095Y42057143D02*
X28082000Y41942857D01*
X28082000Y41942857D02*
X28005809Y41866667D01*
X28005809Y41866667D02*
X27929619Y41828572D01*
X27929619Y41828572D02*
X27777238Y41790476D01*
X27777238Y41790476D02*
X27662952Y41790476D01*
X27662952Y41790476D02*
X27510571Y41828572D01*
X27510571Y41828572D02*
X27434380Y41866667D01*
X27434380Y41866667D02*
X27358190Y41942857D01*
X27358190Y41942857D02*
X27320095Y42057143D01*
X27320095Y42057143D02*
X27320095Y42133334D01*
X27320095Y42133334D02*
X27358190Y42247619D01*
X27358190Y42247619D02*
X27396285Y42285715D01*
X27396285Y42590476D02*
X27358190Y42628572D01*
X27358190Y42628572D02*
X27320095Y42704762D01*
X27320095Y42704762D02*
X27320095Y42895238D01*
X27320095Y42895238D02*
X27358190Y42971429D01*
X27358190Y42971429D02*
X27396285Y43009524D01*
X27396285Y43009524D02*
X27472476Y43047619D01*
X27472476Y43047619D02*
X27548666Y43047619D01*
X27548666Y43047619D02*
X27662952Y43009524D01*
X27662952Y43009524D02*
X28120095Y42552381D01*
X28120095Y42552381D02*
X28120095Y43047619D01*
X27320095Y43771429D02*
X27320095Y43390477D01*
X27320095Y43390477D02*
X27701047Y43352381D01*
X27701047Y43352381D02*
X27662952Y43390477D01*
X27662952Y43390477D02*
X27624857Y43466667D01*
X27624857Y43466667D02*
X27624857Y43657143D01*
X27624857Y43657143D02*
X27662952Y43733334D01*
X27662952Y43733334D02*
X27701047Y43771429D01*
X27701047Y43771429D02*
X27777238Y43809524D01*
X27777238Y43809524D02*
X27967714Y43809524D01*
X27967714Y43809524D02*
X28043904Y43771429D01*
X28043904Y43771429D02*
X28082000Y43733334D01*
X28082000Y43733334D02*
X28120095Y43657143D01*
X28120095Y43657143D02*
X28120095Y43466667D01*
X28120095Y43466667D02*
X28082000Y43390477D01*
X28082000Y43390477D02*
X28043904Y43352381D01*
%TO.C,C12*%
X67243904Y4935715D02*
X67282000Y4897619D01*
X67282000Y4897619D02*
X67320095Y4783334D01*
X67320095Y4783334D02*
X67320095Y4707143D01*
X67320095Y4707143D02*
X67282000Y4592857D01*
X67282000Y4592857D02*
X67205809Y4516667D01*
X67205809Y4516667D02*
X67129619Y4478572D01*
X67129619Y4478572D02*
X66977238Y4440476D01*
X66977238Y4440476D02*
X66862952Y4440476D01*
X66862952Y4440476D02*
X66710571Y4478572D01*
X66710571Y4478572D02*
X66634380Y4516667D01*
X66634380Y4516667D02*
X66558190Y4592857D01*
X66558190Y4592857D02*
X66520095Y4707143D01*
X66520095Y4707143D02*
X66520095Y4783334D01*
X66520095Y4783334D02*
X66558190Y4897619D01*
X66558190Y4897619D02*
X66596285Y4935715D01*
X67320095Y5697619D02*
X67320095Y5240476D01*
X67320095Y5469048D02*
X66520095Y5469048D01*
X66520095Y5469048D02*
X66634380Y5392857D01*
X66634380Y5392857D02*
X66710571Y5316667D01*
X66710571Y5316667D02*
X66748666Y5240476D01*
X66596285Y6002381D02*
X66558190Y6040477D01*
X66558190Y6040477D02*
X66520095Y6116667D01*
X66520095Y6116667D02*
X66520095Y6307143D01*
X66520095Y6307143D02*
X66558190Y6383334D01*
X66558190Y6383334D02*
X66596285Y6421429D01*
X66596285Y6421429D02*
X66672476Y6459524D01*
X66672476Y6459524D02*
X66748666Y6459524D01*
X66748666Y6459524D02*
X66862952Y6421429D01*
X66862952Y6421429D02*
X67320095Y5964286D01*
X67320095Y5964286D02*
X67320095Y6459524D01*
%TO.C,R3*%
X70170095Y22666668D02*
X69789142Y22400001D01*
X70170095Y22209525D02*
X69370095Y22209525D01*
X69370095Y22209525D02*
X69370095Y22514287D01*
X69370095Y22514287D02*
X69408190Y22590477D01*
X69408190Y22590477D02*
X69446285Y22628572D01*
X69446285Y22628572D02*
X69522476Y22666668D01*
X69522476Y22666668D02*
X69636761Y22666668D01*
X69636761Y22666668D02*
X69712952Y22628572D01*
X69712952Y22628572D02*
X69751047Y22590477D01*
X69751047Y22590477D02*
X69789142Y22514287D01*
X69789142Y22514287D02*
X69789142Y22209525D01*
X69370095Y22933334D02*
X69370095Y23428572D01*
X69370095Y23428572D02*
X69674857Y23161906D01*
X69674857Y23161906D02*
X69674857Y23276191D01*
X69674857Y23276191D02*
X69712952Y23352382D01*
X69712952Y23352382D02*
X69751047Y23390477D01*
X69751047Y23390477D02*
X69827238Y23428572D01*
X69827238Y23428572D02*
X70017714Y23428572D01*
X70017714Y23428572D02*
X70093904Y23390477D01*
X70093904Y23390477D02*
X70132000Y23352382D01*
X70132000Y23352382D02*
X70170095Y23276191D01*
X70170095Y23276191D02*
X70170095Y23047620D01*
X70170095Y23047620D02*
X70132000Y22971429D01*
X70132000Y22971429D02*
X70093904Y22933334D01*
%TO.C,C15*%
X13635714Y34606096D02*
X13597618Y34568000D01*
X13597618Y34568000D02*
X13483333Y34529905D01*
X13483333Y34529905D02*
X13407142Y34529905D01*
X13407142Y34529905D02*
X13292856Y34568000D01*
X13292856Y34568000D02*
X13216666Y34644191D01*
X13216666Y34644191D02*
X13178571Y34720381D01*
X13178571Y34720381D02*
X13140475Y34872762D01*
X13140475Y34872762D02*
X13140475Y34987048D01*
X13140475Y34987048D02*
X13178571Y35139429D01*
X13178571Y35139429D02*
X13216666Y35215620D01*
X13216666Y35215620D02*
X13292856Y35291810D01*
X13292856Y35291810D02*
X13407142Y35329905D01*
X13407142Y35329905D02*
X13483333Y35329905D01*
X13483333Y35329905D02*
X13597618Y35291810D01*
X13597618Y35291810D02*
X13635714Y35253715D01*
X14397618Y34529905D02*
X13940475Y34529905D01*
X14169047Y34529905D02*
X14169047Y35329905D01*
X14169047Y35329905D02*
X14092856Y35215620D01*
X14092856Y35215620D02*
X14016666Y35139429D01*
X14016666Y35139429D02*
X13940475Y35101334D01*
X15121428Y35329905D02*
X14740476Y35329905D01*
X14740476Y35329905D02*
X14702380Y34948953D01*
X14702380Y34948953D02*
X14740476Y34987048D01*
X14740476Y34987048D02*
X14816666Y35025143D01*
X14816666Y35025143D02*
X15007142Y35025143D01*
X15007142Y35025143D02*
X15083333Y34987048D01*
X15083333Y34987048D02*
X15121428Y34948953D01*
X15121428Y34948953D02*
X15159523Y34872762D01*
X15159523Y34872762D02*
X15159523Y34682286D01*
X15159523Y34682286D02*
X15121428Y34606096D01*
X15121428Y34606096D02*
X15083333Y34568000D01*
X15083333Y34568000D02*
X15007142Y34529905D01*
X15007142Y34529905D02*
X14816666Y34529905D01*
X14816666Y34529905D02*
X14740476Y34568000D01*
X14740476Y34568000D02*
X14702380Y34606096D01*
%TO.C,L6*%
X71670095Y17166667D02*
X71670095Y16785715D01*
X71670095Y16785715D02*
X70870095Y16785715D01*
X70870095Y17776191D02*
X70870095Y17623810D01*
X70870095Y17623810D02*
X70908190Y17547619D01*
X70908190Y17547619D02*
X70946285Y17509524D01*
X70946285Y17509524D02*
X71060571Y17433334D01*
X71060571Y17433334D02*
X71212952Y17395238D01*
X71212952Y17395238D02*
X71517714Y17395238D01*
X71517714Y17395238D02*
X71593904Y17433334D01*
X71593904Y17433334D02*
X71632000Y17471429D01*
X71632000Y17471429D02*
X71670095Y17547619D01*
X71670095Y17547619D02*
X71670095Y17700000D01*
X71670095Y17700000D02*
X71632000Y17776191D01*
X71632000Y17776191D02*
X71593904Y17814286D01*
X71593904Y17814286D02*
X71517714Y17852381D01*
X71517714Y17852381D02*
X71327238Y17852381D01*
X71327238Y17852381D02*
X71251047Y17814286D01*
X71251047Y17814286D02*
X71212952Y17776191D01*
X71212952Y17776191D02*
X71174857Y17700000D01*
X71174857Y17700000D02*
X71174857Y17547619D01*
X71174857Y17547619D02*
X71212952Y17471429D01*
X71212952Y17471429D02*
X71251047Y17433334D01*
X71251047Y17433334D02*
X71327238Y17395238D01*
%TO.C,R14*%
X10220095Y5435715D02*
X9839142Y5169048D01*
X10220095Y4978572D02*
X9420095Y4978572D01*
X9420095Y4978572D02*
X9420095Y5283334D01*
X9420095Y5283334D02*
X9458190Y5359524D01*
X9458190Y5359524D02*
X9496285Y5397619D01*
X9496285Y5397619D02*
X9572476Y5435715D01*
X9572476Y5435715D02*
X9686761Y5435715D01*
X9686761Y5435715D02*
X9762952Y5397619D01*
X9762952Y5397619D02*
X9801047Y5359524D01*
X9801047Y5359524D02*
X9839142Y5283334D01*
X9839142Y5283334D02*
X9839142Y4978572D01*
X10220095Y6197619D02*
X10220095Y5740476D01*
X10220095Y5969048D02*
X9420095Y5969048D01*
X9420095Y5969048D02*
X9534380Y5892857D01*
X9534380Y5892857D02*
X9610571Y5816667D01*
X9610571Y5816667D02*
X9648666Y5740476D01*
X9686761Y6883334D02*
X10220095Y6883334D01*
X9382000Y6692858D02*
X9953428Y6502381D01*
X9953428Y6502381D02*
X9953428Y6997620D01*
%TO.C,C9*%
X62443904Y24516668D02*
X62482000Y24478572D01*
X62482000Y24478572D02*
X62520095Y24364287D01*
X62520095Y24364287D02*
X62520095Y24288096D01*
X62520095Y24288096D02*
X62482000Y24173810D01*
X62482000Y24173810D02*
X62405809Y24097620D01*
X62405809Y24097620D02*
X62329619Y24059525D01*
X62329619Y24059525D02*
X62177238Y24021429D01*
X62177238Y24021429D02*
X62062952Y24021429D01*
X62062952Y24021429D02*
X61910571Y24059525D01*
X61910571Y24059525D02*
X61834380Y24097620D01*
X61834380Y24097620D02*
X61758190Y24173810D01*
X61758190Y24173810D02*
X61720095Y24288096D01*
X61720095Y24288096D02*
X61720095Y24364287D01*
X61720095Y24364287D02*
X61758190Y24478572D01*
X61758190Y24478572D02*
X61796285Y24516668D01*
X62520095Y24897620D02*
X62520095Y25050001D01*
X62520095Y25050001D02*
X62482000Y25126191D01*
X62482000Y25126191D02*
X62443904Y25164287D01*
X62443904Y25164287D02*
X62329619Y25240477D01*
X62329619Y25240477D02*
X62177238Y25278572D01*
X62177238Y25278572D02*
X61872476Y25278572D01*
X61872476Y25278572D02*
X61796285Y25240477D01*
X61796285Y25240477D02*
X61758190Y25202382D01*
X61758190Y25202382D02*
X61720095Y25126191D01*
X61720095Y25126191D02*
X61720095Y24973810D01*
X61720095Y24973810D02*
X61758190Y24897620D01*
X61758190Y24897620D02*
X61796285Y24859525D01*
X61796285Y24859525D02*
X61872476Y24821429D01*
X61872476Y24821429D02*
X62062952Y24821429D01*
X62062952Y24821429D02*
X62139142Y24859525D01*
X62139142Y24859525D02*
X62177238Y24897620D01*
X62177238Y24897620D02*
X62215333Y24973810D01*
X62215333Y24973810D02*
X62215333Y25126191D01*
X62215333Y25126191D02*
X62177238Y25202382D01*
X62177238Y25202382D02*
X62139142Y25240477D01*
X62139142Y25240477D02*
X62062952Y25278572D01*
%TO.C,C33*%
X70210714Y36056096D02*
X70172618Y36018000D01*
X70172618Y36018000D02*
X70058333Y35979905D01*
X70058333Y35979905D02*
X69982142Y35979905D01*
X69982142Y35979905D02*
X69867856Y36018000D01*
X69867856Y36018000D02*
X69791666Y36094191D01*
X69791666Y36094191D02*
X69753571Y36170381D01*
X69753571Y36170381D02*
X69715475Y36322762D01*
X69715475Y36322762D02*
X69715475Y36437048D01*
X69715475Y36437048D02*
X69753571Y36589429D01*
X69753571Y36589429D02*
X69791666Y36665620D01*
X69791666Y36665620D02*
X69867856Y36741810D01*
X69867856Y36741810D02*
X69982142Y36779905D01*
X69982142Y36779905D02*
X70058333Y36779905D01*
X70058333Y36779905D02*
X70172618Y36741810D01*
X70172618Y36741810D02*
X70210714Y36703715D01*
X70477380Y36779905D02*
X70972618Y36779905D01*
X70972618Y36779905D02*
X70705952Y36475143D01*
X70705952Y36475143D02*
X70820237Y36475143D01*
X70820237Y36475143D02*
X70896428Y36437048D01*
X70896428Y36437048D02*
X70934523Y36398953D01*
X70934523Y36398953D02*
X70972618Y36322762D01*
X70972618Y36322762D02*
X70972618Y36132286D01*
X70972618Y36132286D02*
X70934523Y36056096D01*
X70934523Y36056096D02*
X70896428Y36018000D01*
X70896428Y36018000D02*
X70820237Y35979905D01*
X70820237Y35979905D02*
X70591666Y35979905D01*
X70591666Y35979905D02*
X70515475Y36018000D01*
X70515475Y36018000D02*
X70477380Y36056096D01*
X71239285Y36779905D02*
X71734523Y36779905D01*
X71734523Y36779905D02*
X71467857Y36475143D01*
X71467857Y36475143D02*
X71582142Y36475143D01*
X71582142Y36475143D02*
X71658333Y36437048D01*
X71658333Y36437048D02*
X71696428Y36398953D01*
X71696428Y36398953D02*
X71734523Y36322762D01*
X71734523Y36322762D02*
X71734523Y36132286D01*
X71734523Y36132286D02*
X71696428Y36056096D01*
X71696428Y36056096D02*
X71658333Y36018000D01*
X71658333Y36018000D02*
X71582142Y35979905D01*
X71582142Y35979905D02*
X71353571Y35979905D01*
X71353571Y35979905D02*
X71277380Y36018000D01*
X71277380Y36018000D02*
X71239285Y36056096D01*
%TO.C,C13*%
X76285714Y11856096D02*
X76247618Y11818000D01*
X76247618Y11818000D02*
X76133333Y11779905D01*
X76133333Y11779905D02*
X76057142Y11779905D01*
X76057142Y11779905D02*
X75942856Y11818000D01*
X75942856Y11818000D02*
X75866666Y11894191D01*
X75866666Y11894191D02*
X75828571Y11970381D01*
X75828571Y11970381D02*
X75790475Y12122762D01*
X75790475Y12122762D02*
X75790475Y12237048D01*
X75790475Y12237048D02*
X75828571Y12389429D01*
X75828571Y12389429D02*
X75866666Y12465620D01*
X75866666Y12465620D02*
X75942856Y12541810D01*
X75942856Y12541810D02*
X76057142Y12579905D01*
X76057142Y12579905D02*
X76133333Y12579905D01*
X76133333Y12579905D02*
X76247618Y12541810D01*
X76247618Y12541810D02*
X76285714Y12503715D01*
X77047618Y11779905D02*
X76590475Y11779905D01*
X76819047Y11779905D02*
X76819047Y12579905D01*
X76819047Y12579905D02*
X76742856Y12465620D01*
X76742856Y12465620D02*
X76666666Y12389429D01*
X76666666Y12389429D02*
X76590475Y12351334D01*
X77314285Y12579905D02*
X77809523Y12579905D01*
X77809523Y12579905D02*
X77542857Y12275143D01*
X77542857Y12275143D02*
X77657142Y12275143D01*
X77657142Y12275143D02*
X77733333Y12237048D01*
X77733333Y12237048D02*
X77771428Y12198953D01*
X77771428Y12198953D02*
X77809523Y12122762D01*
X77809523Y12122762D02*
X77809523Y11932286D01*
X77809523Y11932286D02*
X77771428Y11856096D01*
X77771428Y11856096D02*
X77733333Y11818000D01*
X77733333Y11818000D02*
X77657142Y11779905D01*
X77657142Y11779905D02*
X77428571Y11779905D01*
X77428571Y11779905D02*
X77352380Y11818000D01*
X77352380Y11818000D02*
X77314285Y11856096D01*
%TO.C,L8*%
X66745095Y30216667D02*
X66745095Y29835715D01*
X66745095Y29835715D02*
X65945095Y29835715D01*
X66287952Y30597619D02*
X66249857Y30521429D01*
X66249857Y30521429D02*
X66211761Y30483334D01*
X66211761Y30483334D02*
X66135571Y30445238D01*
X66135571Y30445238D02*
X66097476Y30445238D01*
X66097476Y30445238D02*
X66021285Y30483334D01*
X66021285Y30483334D02*
X65983190Y30521429D01*
X65983190Y30521429D02*
X65945095Y30597619D01*
X65945095Y30597619D02*
X65945095Y30750000D01*
X65945095Y30750000D02*
X65983190Y30826191D01*
X65983190Y30826191D02*
X66021285Y30864286D01*
X66021285Y30864286D02*
X66097476Y30902381D01*
X66097476Y30902381D02*
X66135571Y30902381D01*
X66135571Y30902381D02*
X66211761Y30864286D01*
X66211761Y30864286D02*
X66249857Y30826191D01*
X66249857Y30826191D02*
X66287952Y30750000D01*
X66287952Y30750000D02*
X66287952Y30597619D01*
X66287952Y30597619D02*
X66326047Y30521429D01*
X66326047Y30521429D02*
X66364142Y30483334D01*
X66364142Y30483334D02*
X66440333Y30445238D01*
X66440333Y30445238D02*
X66592714Y30445238D01*
X66592714Y30445238D02*
X66668904Y30483334D01*
X66668904Y30483334D02*
X66707000Y30521429D01*
X66707000Y30521429D02*
X66745095Y30597619D01*
X66745095Y30597619D02*
X66745095Y30750000D01*
X66745095Y30750000D02*
X66707000Y30826191D01*
X66707000Y30826191D02*
X66668904Y30864286D01*
X66668904Y30864286D02*
X66592714Y30902381D01*
X66592714Y30902381D02*
X66440333Y30902381D01*
X66440333Y30902381D02*
X66364142Y30864286D01*
X66364142Y30864286D02*
X66326047Y30826191D01*
X66326047Y30826191D02*
X66287952Y30750000D01*
%TO.C,Q3*%
X10823809Y43503715D02*
X10747619Y43541810D01*
X10747619Y43541810D02*
X10671428Y43618000D01*
X10671428Y43618000D02*
X10557142Y43732286D01*
X10557142Y43732286D02*
X10480952Y43770381D01*
X10480952Y43770381D02*
X10404761Y43770381D01*
X10442857Y43579905D02*
X10366666Y43618000D01*
X10366666Y43618000D02*
X10290476Y43694191D01*
X10290476Y43694191D02*
X10252380Y43846572D01*
X10252380Y43846572D02*
X10252380Y44113239D01*
X10252380Y44113239D02*
X10290476Y44265620D01*
X10290476Y44265620D02*
X10366666Y44341810D01*
X10366666Y44341810D02*
X10442857Y44379905D01*
X10442857Y44379905D02*
X10595238Y44379905D01*
X10595238Y44379905D02*
X10671428Y44341810D01*
X10671428Y44341810D02*
X10747619Y44265620D01*
X10747619Y44265620D02*
X10785714Y44113239D01*
X10785714Y44113239D02*
X10785714Y43846572D01*
X10785714Y43846572D02*
X10747619Y43694191D01*
X10747619Y43694191D02*
X10671428Y43618000D01*
X10671428Y43618000D02*
X10595238Y43579905D01*
X10595238Y43579905D02*
X10442857Y43579905D01*
X11052380Y44379905D02*
X11547618Y44379905D01*
X11547618Y44379905D02*
X11280952Y44075143D01*
X11280952Y44075143D02*
X11395237Y44075143D01*
X11395237Y44075143D02*
X11471428Y44037048D01*
X11471428Y44037048D02*
X11509523Y43998953D01*
X11509523Y43998953D02*
X11547618Y43922762D01*
X11547618Y43922762D02*
X11547618Y43732286D01*
X11547618Y43732286D02*
X11509523Y43656096D01*
X11509523Y43656096D02*
X11471428Y43618000D01*
X11471428Y43618000D02*
X11395237Y43579905D01*
X11395237Y43579905D02*
X11166666Y43579905D01*
X11166666Y43579905D02*
X11090475Y43618000D01*
X11090475Y43618000D02*
X11052380Y43656096D01*
%TO.C,R13*%
X11285714Y10779905D02*
X11019047Y11160858D01*
X10828571Y10779905D02*
X10828571Y11579905D01*
X10828571Y11579905D02*
X11133333Y11579905D01*
X11133333Y11579905D02*
X11209523Y11541810D01*
X11209523Y11541810D02*
X11247618Y11503715D01*
X11247618Y11503715D02*
X11285714Y11427524D01*
X11285714Y11427524D02*
X11285714Y11313239D01*
X11285714Y11313239D02*
X11247618Y11237048D01*
X11247618Y11237048D02*
X11209523Y11198953D01*
X11209523Y11198953D02*
X11133333Y11160858D01*
X11133333Y11160858D02*
X10828571Y11160858D01*
X12047618Y10779905D02*
X11590475Y10779905D01*
X11819047Y10779905D02*
X11819047Y11579905D01*
X11819047Y11579905D02*
X11742856Y11465620D01*
X11742856Y11465620D02*
X11666666Y11389429D01*
X11666666Y11389429D02*
X11590475Y11351334D01*
X12314285Y11579905D02*
X12809523Y11579905D01*
X12809523Y11579905D02*
X12542857Y11275143D01*
X12542857Y11275143D02*
X12657142Y11275143D01*
X12657142Y11275143D02*
X12733333Y11237048D01*
X12733333Y11237048D02*
X12771428Y11198953D01*
X12771428Y11198953D02*
X12809523Y11122762D01*
X12809523Y11122762D02*
X12809523Y10932286D01*
X12809523Y10932286D02*
X12771428Y10856096D01*
X12771428Y10856096D02*
X12733333Y10818000D01*
X12733333Y10818000D02*
X12657142Y10779905D01*
X12657142Y10779905D02*
X12428571Y10779905D01*
X12428571Y10779905D02*
X12352380Y10818000D01*
X12352380Y10818000D02*
X12314285Y10856096D01*
%TO.C,C24*%
X27605714Y28456096D02*
X27567618Y28418000D01*
X27567618Y28418000D02*
X27453333Y28379905D01*
X27453333Y28379905D02*
X27377142Y28379905D01*
X27377142Y28379905D02*
X27262856Y28418000D01*
X27262856Y28418000D02*
X27186666Y28494191D01*
X27186666Y28494191D02*
X27148571Y28570381D01*
X27148571Y28570381D02*
X27110475Y28722762D01*
X27110475Y28722762D02*
X27110475Y28837048D01*
X27110475Y28837048D02*
X27148571Y28989429D01*
X27148571Y28989429D02*
X27186666Y29065620D01*
X27186666Y29065620D02*
X27262856Y29141810D01*
X27262856Y29141810D02*
X27377142Y29179905D01*
X27377142Y29179905D02*
X27453333Y29179905D01*
X27453333Y29179905D02*
X27567618Y29141810D01*
X27567618Y29141810D02*
X27605714Y29103715D01*
X27910475Y29103715D02*
X27948571Y29141810D01*
X27948571Y29141810D02*
X28024761Y29179905D01*
X28024761Y29179905D02*
X28215237Y29179905D01*
X28215237Y29179905D02*
X28291428Y29141810D01*
X28291428Y29141810D02*
X28329523Y29103715D01*
X28329523Y29103715D02*
X28367618Y29027524D01*
X28367618Y29027524D02*
X28367618Y28951334D01*
X28367618Y28951334D02*
X28329523Y28837048D01*
X28329523Y28837048D02*
X27872380Y28379905D01*
X27872380Y28379905D02*
X28367618Y28379905D01*
X29053333Y28913239D02*
X29053333Y28379905D01*
X28862857Y29218000D02*
X28672380Y28646572D01*
X28672380Y28646572D02*
X29167619Y28646572D01*
%TO.C,C35*%
X63293904Y30585715D02*
X63332000Y30547619D01*
X63332000Y30547619D02*
X63370095Y30433334D01*
X63370095Y30433334D02*
X63370095Y30357143D01*
X63370095Y30357143D02*
X63332000Y30242857D01*
X63332000Y30242857D02*
X63255809Y30166667D01*
X63255809Y30166667D02*
X63179619Y30128572D01*
X63179619Y30128572D02*
X63027238Y30090476D01*
X63027238Y30090476D02*
X62912952Y30090476D01*
X62912952Y30090476D02*
X62760571Y30128572D01*
X62760571Y30128572D02*
X62684380Y30166667D01*
X62684380Y30166667D02*
X62608190Y30242857D01*
X62608190Y30242857D02*
X62570095Y30357143D01*
X62570095Y30357143D02*
X62570095Y30433334D01*
X62570095Y30433334D02*
X62608190Y30547619D01*
X62608190Y30547619D02*
X62646285Y30585715D01*
X62570095Y30852381D02*
X62570095Y31347619D01*
X62570095Y31347619D02*
X62874857Y31080953D01*
X62874857Y31080953D02*
X62874857Y31195238D01*
X62874857Y31195238D02*
X62912952Y31271429D01*
X62912952Y31271429D02*
X62951047Y31309524D01*
X62951047Y31309524D02*
X63027238Y31347619D01*
X63027238Y31347619D02*
X63217714Y31347619D01*
X63217714Y31347619D02*
X63293904Y31309524D01*
X63293904Y31309524D02*
X63332000Y31271429D01*
X63332000Y31271429D02*
X63370095Y31195238D01*
X63370095Y31195238D02*
X63370095Y30966667D01*
X63370095Y30966667D02*
X63332000Y30890476D01*
X63332000Y30890476D02*
X63293904Y30852381D01*
X62570095Y32071429D02*
X62570095Y31690477D01*
X62570095Y31690477D02*
X62951047Y31652381D01*
X62951047Y31652381D02*
X62912952Y31690477D01*
X62912952Y31690477D02*
X62874857Y31766667D01*
X62874857Y31766667D02*
X62874857Y31957143D01*
X62874857Y31957143D02*
X62912952Y32033334D01*
X62912952Y32033334D02*
X62951047Y32071429D01*
X62951047Y32071429D02*
X63027238Y32109524D01*
X63027238Y32109524D02*
X63217714Y32109524D01*
X63217714Y32109524D02*
X63293904Y32071429D01*
X63293904Y32071429D02*
X63332000Y32033334D01*
X63332000Y32033334D02*
X63370095Y31957143D01*
X63370095Y31957143D02*
X63370095Y31766667D01*
X63370095Y31766667D02*
X63332000Y31690477D01*
X63332000Y31690477D02*
X63293904Y31652381D01*
%TO.C,FB2*%
X65451047Y25720834D02*
X65451047Y25454168D01*
X65870095Y25454168D02*
X65070095Y25454168D01*
X65070095Y25454168D02*
X65070095Y25835120D01*
X65451047Y26406548D02*
X65489142Y26520834D01*
X65489142Y26520834D02*
X65527238Y26558929D01*
X65527238Y26558929D02*
X65603428Y26597025D01*
X65603428Y26597025D02*
X65717714Y26597025D01*
X65717714Y26597025D02*
X65793904Y26558929D01*
X65793904Y26558929D02*
X65832000Y26520834D01*
X65832000Y26520834D02*
X65870095Y26444644D01*
X65870095Y26444644D02*
X65870095Y26139882D01*
X65870095Y26139882D02*
X65070095Y26139882D01*
X65070095Y26139882D02*
X65070095Y26406548D01*
X65070095Y26406548D02*
X65108190Y26482739D01*
X65108190Y26482739D02*
X65146285Y26520834D01*
X65146285Y26520834D02*
X65222476Y26558929D01*
X65222476Y26558929D02*
X65298666Y26558929D01*
X65298666Y26558929D02*
X65374857Y26520834D01*
X65374857Y26520834D02*
X65412952Y26482739D01*
X65412952Y26482739D02*
X65451047Y26406548D01*
X65451047Y26406548D02*
X65451047Y26139882D01*
X65146285Y26901786D02*
X65108190Y26939882D01*
X65108190Y26939882D02*
X65070095Y27016072D01*
X65070095Y27016072D02*
X65070095Y27206548D01*
X65070095Y27206548D02*
X65108190Y27282739D01*
X65108190Y27282739D02*
X65146285Y27320834D01*
X65146285Y27320834D02*
X65222476Y27358929D01*
X65222476Y27358929D02*
X65298666Y27358929D01*
X65298666Y27358929D02*
X65412952Y27320834D01*
X65412952Y27320834D02*
X65870095Y26863691D01*
X65870095Y26863691D02*
X65870095Y27358929D01*
%TO.C,C3*%
X29623904Y7916668D02*
X29662000Y7878572D01*
X29662000Y7878572D02*
X29700095Y7764287D01*
X29700095Y7764287D02*
X29700095Y7688096D01*
X29700095Y7688096D02*
X29662000Y7573810D01*
X29662000Y7573810D02*
X29585809Y7497620D01*
X29585809Y7497620D02*
X29509619Y7459525D01*
X29509619Y7459525D02*
X29357238Y7421429D01*
X29357238Y7421429D02*
X29242952Y7421429D01*
X29242952Y7421429D02*
X29090571Y7459525D01*
X29090571Y7459525D02*
X29014380Y7497620D01*
X29014380Y7497620D02*
X28938190Y7573810D01*
X28938190Y7573810D02*
X28900095Y7688096D01*
X28900095Y7688096D02*
X28900095Y7764287D01*
X28900095Y7764287D02*
X28938190Y7878572D01*
X28938190Y7878572D02*
X28976285Y7916668D01*
X28900095Y8183334D02*
X28900095Y8678572D01*
X28900095Y8678572D02*
X29204857Y8411906D01*
X29204857Y8411906D02*
X29204857Y8526191D01*
X29204857Y8526191D02*
X29242952Y8602382D01*
X29242952Y8602382D02*
X29281047Y8640477D01*
X29281047Y8640477D02*
X29357238Y8678572D01*
X29357238Y8678572D02*
X29547714Y8678572D01*
X29547714Y8678572D02*
X29623904Y8640477D01*
X29623904Y8640477D02*
X29662000Y8602382D01*
X29662000Y8602382D02*
X29700095Y8526191D01*
X29700095Y8526191D02*
X29700095Y8297620D01*
X29700095Y8297620D02*
X29662000Y8221429D01*
X29662000Y8221429D02*
X29623904Y8183334D01*
%TO.C,C7*%
X30643904Y23186668D02*
X30682000Y23148572D01*
X30682000Y23148572D02*
X30720095Y23034287D01*
X30720095Y23034287D02*
X30720095Y22958096D01*
X30720095Y22958096D02*
X30682000Y22843810D01*
X30682000Y22843810D02*
X30605809Y22767620D01*
X30605809Y22767620D02*
X30529619Y22729525D01*
X30529619Y22729525D02*
X30377238Y22691429D01*
X30377238Y22691429D02*
X30262952Y22691429D01*
X30262952Y22691429D02*
X30110571Y22729525D01*
X30110571Y22729525D02*
X30034380Y22767620D01*
X30034380Y22767620D02*
X29958190Y22843810D01*
X29958190Y22843810D02*
X29920095Y22958096D01*
X29920095Y22958096D02*
X29920095Y23034287D01*
X29920095Y23034287D02*
X29958190Y23148572D01*
X29958190Y23148572D02*
X29996285Y23186668D01*
X29920095Y23453334D02*
X29920095Y23986668D01*
X29920095Y23986668D02*
X30720095Y23643810D01*
%TO.C,C38*%
X20985714Y12356096D02*
X20947618Y12318000D01*
X20947618Y12318000D02*
X20833333Y12279905D01*
X20833333Y12279905D02*
X20757142Y12279905D01*
X20757142Y12279905D02*
X20642856Y12318000D01*
X20642856Y12318000D02*
X20566666Y12394191D01*
X20566666Y12394191D02*
X20528571Y12470381D01*
X20528571Y12470381D02*
X20490475Y12622762D01*
X20490475Y12622762D02*
X20490475Y12737048D01*
X20490475Y12737048D02*
X20528571Y12889429D01*
X20528571Y12889429D02*
X20566666Y12965620D01*
X20566666Y12965620D02*
X20642856Y13041810D01*
X20642856Y13041810D02*
X20757142Y13079905D01*
X20757142Y13079905D02*
X20833333Y13079905D01*
X20833333Y13079905D02*
X20947618Y13041810D01*
X20947618Y13041810D02*
X20985714Y13003715D01*
X21252380Y13079905D02*
X21747618Y13079905D01*
X21747618Y13079905D02*
X21480952Y12775143D01*
X21480952Y12775143D02*
X21595237Y12775143D01*
X21595237Y12775143D02*
X21671428Y12737048D01*
X21671428Y12737048D02*
X21709523Y12698953D01*
X21709523Y12698953D02*
X21747618Y12622762D01*
X21747618Y12622762D02*
X21747618Y12432286D01*
X21747618Y12432286D02*
X21709523Y12356096D01*
X21709523Y12356096D02*
X21671428Y12318000D01*
X21671428Y12318000D02*
X21595237Y12279905D01*
X21595237Y12279905D02*
X21366666Y12279905D01*
X21366666Y12279905D02*
X21290475Y12318000D01*
X21290475Y12318000D02*
X21252380Y12356096D01*
X22204761Y12737048D02*
X22128571Y12775143D01*
X22128571Y12775143D02*
X22090476Y12813239D01*
X22090476Y12813239D02*
X22052380Y12889429D01*
X22052380Y12889429D02*
X22052380Y12927524D01*
X22052380Y12927524D02*
X22090476Y13003715D01*
X22090476Y13003715D02*
X22128571Y13041810D01*
X22128571Y13041810D02*
X22204761Y13079905D01*
X22204761Y13079905D02*
X22357142Y13079905D01*
X22357142Y13079905D02*
X22433333Y13041810D01*
X22433333Y13041810D02*
X22471428Y13003715D01*
X22471428Y13003715D02*
X22509523Y12927524D01*
X22509523Y12927524D02*
X22509523Y12889429D01*
X22509523Y12889429D02*
X22471428Y12813239D01*
X22471428Y12813239D02*
X22433333Y12775143D01*
X22433333Y12775143D02*
X22357142Y12737048D01*
X22357142Y12737048D02*
X22204761Y12737048D01*
X22204761Y12737048D02*
X22128571Y12698953D01*
X22128571Y12698953D02*
X22090476Y12660858D01*
X22090476Y12660858D02*
X22052380Y12584667D01*
X22052380Y12584667D02*
X22052380Y12432286D01*
X22052380Y12432286D02*
X22090476Y12356096D01*
X22090476Y12356096D02*
X22128571Y12318000D01*
X22128571Y12318000D02*
X22204761Y12279905D01*
X22204761Y12279905D02*
X22357142Y12279905D01*
X22357142Y12279905D02*
X22433333Y12318000D01*
X22433333Y12318000D02*
X22471428Y12356096D01*
X22471428Y12356096D02*
X22509523Y12432286D01*
X22509523Y12432286D02*
X22509523Y12584667D01*
X22509523Y12584667D02*
X22471428Y12660858D01*
X22471428Y12660858D02*
X22433333Y12698953D01*
X22433333Y12698953D02*
X22357142Y12737048D01*
%TO.C,L3*%
X58679904Y20768334D02*
X58679904Y21149286D01*
X58679904Y21149286D02*
X59479904Y21149286D01*
X59479904Y20577858D02*
X59479904Y20082620D01*
X59479904Y20082620D02*
X59175142Y20349286D01*
X59175142Y20349286D02*
X59175142Y20235001D01*
X59175142Y20235001D02*
X59137047Y20158810D01*
X59137047Y20158810D02*
X59098952Y20120715D01*
X59098952Y20120715D02*
X59022761Y20082620D01*
X59022761Y20082620D02*
X58832285Y20082620D01*
X58832285Y20082620D02*
X58756095Y20120715D01*
X58756095Y20120715D02*
X58718000Y20158810D01*
X58718000Y20158810D02*
X58679904Y20235001D01*
X58679904Y20235001D02*
X58679904Y20463572D01*
X58679904Y20463572D02*
X58718000Y20539763D01*
X58718000Y20539763D02*
X58756095Y20577858D01*
%TO.C,R15*%
X21155714Y33429905D02*
X20889047Y33810858D01*
X20698571Y33429905D02*
X20698571Y34229905D01*
X20698571Y34229905D02*
X21003333Y34229905D01*
X21003333Y34229905D02*
X21079523Y34191810D01*
X21079523Y34191810D02*
X21117618Y34153715D01*
X21117618Y34153715D02*
X21155714Y34077524D01*
X21155714Y34077524D02*
X21155714Y33963239D01*
X21155714Y33963239D02*
X21117618Y33887048D01*
X21117618Y33887048D02*
X21079523Y33848953D01*
X21079523Y33848953D02*
X21003333Y33810858D01*
X21003333Y33810858D02*
X20698571Y33810858D01*
X21917618Y33429905D02*
X21460475Y33429905D01*
X21689047Y33429905D02*
X21689047Y34229905D01*
X21689047Y34229905D02*
X21612856Y34115620D01*
X21612856Y34115620D02*
X21536666Y34039429D01*
X21536666Y34039429D02*
X21460475Y34001334D01*
X22641428Y34229905D02*
X22260476Y34229905D01*
X22260476Y34229905D02*
X22222380Y33848953D01*
X22222380Y33848953D02*
X22260476Y33887048D01*
X22260476Y33887048D02*
X22336666Y33925143D01*
X22336666Y33925143D02*
X22527142Y33925143D01*
X22527142Y33925143D02*
X22603333Y33887048D01*
X22603333Y33887048D02*
X22641428Y33848953D01*
X22641428Y33848953D02*
X22679523Y33772762D01*
X22679523Y33772762D02*
X22679523Y33582286D01*
X22679523Y33582286D02*
X22641428Y33506096D01*
X22641428Y33506096D02*
X22603333Y33468000D01*
X22603333Y33468000D02*
X22527142Y33429905D01*
X22527142Y33429905D02*
X22336666Y33429905D01*
X22336666Y33429905D02*
X22260476Y33468000D01*
X22260476Y33468000D02*
X22222380Y33506096D01*
%TO.C,C2*%
X24973904Y7916668D02*
X25012000Y7878572D01*
X25012000Y7878572D02*
X25050095Y7764287D01*
X25050095Y7764287D02*
X25050095Y7688096D01*
X25050095Y7688096D02*
X25012000Y7573810D01*
X25012000Y7573810D02*
X24935809Y7497620D01*
X24935809Y7497620D02*
X24859619Y7459525D01*
X24859619Y7459525D02*
X24707238Y7421429D01*
X24707238Y7421429D02*
X24592952Y7421429D01*
X24592952Y7421429D02*
X24440571Y7459525D01*
X24440571Y7459525D02*
X24364380Y7497620D01*
X24364380Y7497620D02*
X24288190Y7573810D01*
X24288190Y7573810D02*
X24250095Y7688096D01*
X24250095Y7688096D02*
X24250095Y7764287D01*
X24250095Y7764287D02*
X24288190Y7878572D01*
X24288190Y7878572D02*
X24326285Y7916668D01*
X24326285Y8221429D02*
X24288190Y8259525D01*
X24288190Y8259525D02*
X24250095Y8335715D01*
X24250095Y8335715D02*
X24250095Y8526191D01*
X24250095Y8526191D02*
X24288190Y8602382D01*
X24288190Y8602382D02*
X24326285Y8640477D01*
X24326285Y8640477D02*
X24402476Y8678572D01*
X24402476Y8678572D02*
X24478666Y8678572D01*
X24478666Y8678572D02*
X24592952Y8640477D01*
X24592952Y8640477D02*
X25050095Y8183334D01*
X25050095Y8183334D02*
X25050095Y8678572D01*
%TO.C,C23*%
X25193904Y37585715D02*
X25232000Y37547619D01*
X25232000Y37547619D02*
X25270095Y37433334D01*
X25270095Y37433334D02*
X25270095Y37357143D01*
X25270095Y37357143D02*
X25232000Y37242857D01*
X25232000Y37242857D02*
X25155809Y37166667D01*
X25155809Y37166667D02*
X25079619Y37128572D01*
X25079619Y37128572D02*
X24927238Y37090476D01*
X24927238Y37090476D02*
X24812952Y37090476D01*
X24812952Y37090476D02*
X24660571Y37128572D01*
X24660571Y37128572D02*
X24584380Y37166667D01*
X24584380Y37166667D02*
X24508190Y37242857D01*
X24508190Y37242857D02*
X24470095Y37357143D01*
X24470095Y37357143D02*
X24470095Y37433334D01*
X24470095Y37433334D02*
X24508190Y37547619D01*
X24508190Y37547619D02*
X24546285Y37585715D01*
X24546285Y37890476D02*
X24508190Y37928572D01*
X24508190Y37928572D02*
X24470095Y38004762D01*
X24470095Y38004762D02*
X24470095Y38195238D01*
X24470095Y38195238D02*
X24508190Y38271429D01*
X24508190Y38271429D02*
X24546285Y38309524D01*
X24546285Y38309524D02*
X24622476Y38347619D01*
X24622476Y38347619D02*
X24698666Y38347619D01*
X24698666Y38347619D02*
X24812952Y38309524D01*
X24812952Y38309524D02*
X25270095Y37852381D01*
X25270095Y37852381D02*
X25270095Y38347619D01*
X24470095Y38614286D02*
X24470095Y39109524D01*
X24470095Y39109524D02*
X24774857Y38842858D01*
X24774857Y38842858D02*
X24774857Y38957143D01*
X24774857Y38957143D02*
X24812952Y39033334D01*
X24812952Y39033334D02*
X24851047Y39071429D01*
X24851047Y39071429D02*
X24927238Y39109524D01*
X24927238Y39109524D02*
X25117714Y39109524D01*
X25117714Y39109524D02*
X25193904Y39071429D01*
X25193904Y39071429D02*
X25232000Y39033334D01*
X25232000Y39033334D02*
X25270095Y38957143D01*
X25270095Y38957143D02*
X25270095Y38728572D01*
X25270095Y38728572D02*
X25232000Y38652381D01*
X25232000Y38652381D02*
X25193904Y38614286D01*
%TO.C,J4*%
X34933333Y17529905D02*
X34933333Y16958477D01*
X34933333Y16958477D02*
X34895238Y16844191D01*
X34895238Y16844191D02*
X34819047Y16768000D01*
X34819047Y16768000D02*
X34704762Y16729905D01*
X34704762Y16729905D02*
X34628571Y16729905D01*
X35657143Y17263239D02*
X35657143Y16729905D01*
X35466667Y17568000D02*
X35276190Y16996572D01*
X35276190Y16996572D02*
X35771429Y16996572D01*
%TO.C,R22*%
X18620095Y14735715D02*
X18239142Y14469048D01*
X18620095Y14278572D02*
X17820095Y14278572D01*
X17820095Y14278572D02*
X17820095Y14583334D01*
X17820095Y14583334D02*
X17858190Y14659524D01*
X17858190Y14659524D02*
X17896285Y14697619D01*
X17896285Y14697619D02*
X17972476Y14735715D01*
X17972476Y14735715D02*
X18086761Y14735715D01*
X18086761Y14735715D02*
X18162952Y14697619D01*
X18162952Y14697619D02*
X18201047Y14659524D01*
X18201047Y14659524D02*
X18239142Y14583334D01*
X18239142Y14583334D02*
X18239142Y14278572D01*
X17896285Y15040476D02*
X17858190Y15078572D01*
X17858190Y15078572D02*
X17820095Y15154762D01*
X17820095Y15154762D02*
X17820095Y15345238D01*
X17820095Y15345238D02*
X17858190Y15421429D01*
X17858190Y15421429D02*
X17896285Y15459524D01*
X17896285Y15459524D02*
X17972476Y15497619D01*
X17972476Y15497619D02*
X18048666Y15497619D01*
X18048666Y15497619D02*
X18162952Y15459524D01*
X18162952Y15459524D02*
X18620095Y15002381D01*
X18620095Y15002381D02*
X18620095Y15497619D01*
X17896285Y15802381D02*
X17858190Y15840477D01*
X17858190Y15840477D02*
X17820095Y15916667D01*
X17820095Y15916667D02*
X17820095Y16107143D01*
X17820095Y16107143D02*
X17858190Y16183334D01*
X17858190Y16183334D02*
X17896285Y16221429D01*
X17896285Y16221429D02*
X17972476Y16259524D01*
X17972476Y16259524D02*
X18048666Y16259524D01*
X18048666Y16259524D02*
X18162952Y16221429D01*
X18162952Y16221429D02*
X18620095Y15764286D01*
X18620095Y15764286D02*
X18620095Y16259524D01*
%TO.C,U2*%
X23840476Y36179905D02*
X23840476Y35532286D01*
X23840476Y35532286D02*
X23878571Y35456096D01*
X23878571Y35456096D02*
X23916666Y35418000D01*
X23916666Y35418000D02*
X23992857Y35379905D01*
X23992857Y35379905D02*
X24145238Y35379905D01*
X24145238Y35379905D02*
X24221428Y35418000D01*
X24221428Y35418000D02*
X24259523Y35456096D01*
X24259523Y35456096D02*
X24297619Y35532286D01*
X24297619Y35532286D02*
X24297619Y36179905D01*
X24640475Y36103715D02*
X24678571Y36141810D01*
X24678571Y36141810D02*
X24754761Y36179905D01*
X24754761Y36179905D02*
X24945237Y36179905D01*
X24945237Y36179905D02*
X25021428Y36141810D01*
X25021428Y36141810D02*
X25059523Y36103715D01*
X25059523Y36103715D02*
X25097618Y36027524D01*
X25097618Y36027524D02*
X25097618Y35951334D01*
X25097618Y35951334D02*
X25059523Y35837048D01*
X25059523Y35837048D02*
X24602380Y35379905D01*
X24602380Y35379905D02*
X25097618Y35379905D01*
D14*
%TO.C,C18*%
X22960000Y36984420D02*
X22960000Y37265580D01*
X21940000Y36984420D02*
X21940000Y37265580D01*
%TO.C,TP10*%
X58400000Y29700000D02*
G75*
G03*
X58400000Y29700000I-700000J0D01*
G01*
%TO.C,L5*%
X75890000Y7813748D02*
X75890000Y8336252D01*
X78110000Y7813748D02*
X78110000Y8336252D01*
%TO.C,C11*%
X59065580Y13690000D02*
X58784420Y13690000D01*
X59065580Y14710000D02*
X58784420Y14710000D01*
%TO.C,R16*%
X19800000Y33443641D02*
X19800000Y33136359D01*
X19040000Y33443641D02*
X19040000Y33136359D01*
%TO.C,FB1*%
X33999721Y22610000D02*
X34325279Y22610000D01*
X33999721Y21590000D02*
X34325279Y21590000D01*
%TO.C,C26*%
X43030000Y31186252D02*
X43030000Y29763748D01*
X40310000Y31186252D02*
X40310000Y29763748D01*
%TO.C,TP8*%
X42150000Y22100000D02*
G75*
G03*
X42150000Y22100000I-700000J0D01*
G01*
%TO.C,TP12*%
X53200000Y9600000D02*
G75*
G03*
X53200000Y9600000I-700000J0D01*
G01*
%TO.C,R5*%
X12930000Y36953641D02*
X12930000Y36646359D01*
X12170000Y36953641D02*
X12170000Y36646359D01*
%TO.C,R17*%
X34282258Y30327500D02*
X33807742Y30327500D01*
X34282258Y31372500D02*
X33807742Y31372500D01*
%TO.C,R8*%
X14243641Y41220000D02*
X13936359Y41220000D01*
X14243641Y41980000D02*
X13936359Y41980000D01*
%TO.C,C34*%
X57115000Y33763748D02*
X57115000Y35186252D01*
X59835000Y33763748D02*
X59835000Y35186252D01*
%TO.C,C10*%
X70740000Y25113748D02*
X70740000Y26536252D01*
X73460000Y25113748D02*
X73460000Y26536252D01*
%TO.C,R11*%
X10230000Y26093641D02*
X10230000Y25786359D01*
X9470000Y26093641D02*
X9470000Y25786359D01*
%TO.C,Q4*%
X16000000Y40480000D02*
X18000000Y40480000D01*
X17350000Y37360000D02*
X16700000Y37360000D01*
X17350000Y37360000D02*
X18000000Y37360000D01*
X18000000Y40480000D02*
X18000000Y39620000D01*
X18000000Y38220000D02*
X18000000Y37360000D01*
%TO.C,R1*%
X38877500Y17762742D02*
X38877500Y18237258D01*
X39922500Y17762742D02*
X39922500Y18237258D01*
%TO.C,U1*%
X10990000Y32037500D02*
X10990000Y30237500D01*
X10990000Y32037500D02*
X10990000Y32837500D01*
X14110000Y32037500D02*
X14110000Y31237500D01*
X14110000Y32037500D02*
X14110000Y32837500D01*
%TO.C,C17*%
X21180000Y31927836D02*
X21180000Y31712164D01*
X20460000Y31927836D02*
X20460000Y31712164D01*
%TO.C,U3*%
X69635000Y39212500D02*
X69635000Y41012500D01*
X69635000Y39212500D02*
X69635000Y38412500D01*
X66515000Y39212500D02*
X66515000Y40012500D01*
X66515000Y39212500D02*
X66515000Y38412500D01*
%TO.C,C40*%
X22837836Y6490000D02*
X22622164Y6490000D01*
X22837836Y7210000D02*
X22622164Y7210000D01*
%TO.C,R2*%
X30457500Y12187742D02*
X30457500Y12662258D01*
X31502500Y12187742D02*
X31502500Y12662258D01*
%TO.C,TP7*%
X68800000Y20100000D02*
G75*
G03*
X68800000Y20100000I-700000J0D01*
G01*
%TO.C,TP5*%
X54100000Y34500000D02*
G75*
G03*
X54100000Y34500000I-700000J0D01*
G01*
%TO.C,C8*%
X61010000Y23127836D02*
X61010000Y22912164D01*
X60290000Y23127836D02*
X60290000Y22912164D01*
%TO.C,RV1*%
X20580000Y19730000D02*
X25320000Y19730000D01*
X20580000Y19730000D02*
X20580000Y20061000D01*
X25320000Y19730000D02*
X25320000Y20860000D01*
X20580000Y21841000D02*
X20580000Y22360000D01*
X25320000Y23340000D02*
X25320000Y24470000D01*
X20580000Y24140000D02*
X20580000Y24470000D01*
X20580000Y24470000D02*
X25320000Y24470000D01*
%TO.C,TP4*%
X64550000Y25000000D02*
G75*
G03*
X64550000Y25000000I-700000J0D01*
G01*
%TO.C,U4*%
X13220000Y6300000D02*
X13220000Y7440000D01*
X12990000Y7440000D02*
X13220000Y7440000D01*
X12990000Y7440000D02*
X12990000Y10160000D01*
X17710000Y7440000D02*
X17480000Y7440000D01*
X12990000Y10160000D02*
X14300000Y10160000D01*
X16400000Y10160000D02*
X17710000Y10160000D01*
X17710000Y10160000D02*
X17710000Y7440000D01*
%TO.C,C31*%
X32010000Y21727836D02*
X32010000Y21512164D01*
X31290000Y21727836D02*
X31290000Y21512164D01*
%TO.C,TP13*%
X38232233Y11032233D02*
G75*
G03*
X38232233Y11032233I-700000J0D01*
G01*
%TO.C,J1*%
X4950000Y16450000D02*
X4950000Y15340000D01*
X200000Y16450000D02*
X200000Y15340000D01*
X6200000Y14750000D02*
X5700000Y14500000D01*
X5700000Y14500000D02*
X6200000Y14250000D01*
X6200000Y14250000D02*
X6200000Y14750000D01*
X4950000Y13660000D02*
X4950000Y12550000D01*
X200000Y13660000D02*
X200000Y12550000D01*
%TO.C,R7*%
X14220000Y39206359D02*
X14220000Y39513641D01*
X14980000Y39206359D02*
X14980000Y39513641D01*
%TO.C,C6*%
X37010000Y21727836D02*
X37010000Y21512164D01*
X36290000Y21727836D02*
X36290000Y21512164D01*
%TO.C,R12*%
X10522500Y13912258D02*
X10522500Y13437742D01*
X9477500Y13912258D02*
X9477500Y13437742D01*
%TO.C,FB4*%
X59374721Y41460000D02*
X59700279Y41460000D01*
X59374721Y40440000D02*
X59700279Y40440000D01*
%TO.C,FB3*%
X67990000Y26224721D02*
X67990000Y26550279D01*
X69010000Y26224721D02*
X69010000Y26550279D01*
%TO.C,TP2*%
X39250000Y22100000D02*
G75*
G03*
X39250000Y22100000I-700000J0D01*
G01*
%TO.C,C19*%
X20660000Y36472164D02*
X20660000Y36687836D01*
X21380000Y36472164D02*
X21380000Y36687836D01*
%TO.C,D1*%
X41670000Y33740000D02*
X44970000Y33740000D01*
X41670000Y33740000D02*
X41670000Y39250000D01*
X44970000Y33740000D02*
X44970000Y39250000D01*
D10*
%TO.C,Q1*%
X42400000Y9750000D02*
X44000000Y9750000D01*
X42400000Y9750000D02*
X42400000Y11250000D01*
X48500000Y9750000D02*
X46900000Y9750000D01*
X48500000Y9750000D02*
X48500000Y11250000D01*
X42400000Y19350000D02*
X42400000Y17850000D01*
X42400000Y19350000D02*
X44000000Y19350000D01*
X46900000Y19350000D02*
X48500000Y19350000D01*
X48500000Y19350000D02*
X48500000Y17850000D01*
D15*
X49600000Y18450000D02*
G75*
G03*
X49600000Y18450000I-200000J0D01*
G01*
D14*
%TO.C,C5*%
X39772164Y20660000D02*
X39987836Y20660000D01*
X39772164Y19940000D02*
X39987836Y19940000D01*
%TO.C,J2*%
X570000Y27805000D02*
X1900000Y27805000D01*
X570000Y26475000D02*
X570000Y27805000D01*
X570000Y25205000D02*
X570000Y22605000D01*
X570000Y25205000D02*
X3230000Y25205000D01*
X570000Y22605000D02*
X3230000Y22605000D01*
X3230000Y25205000D02*
X3230000Y22605000D01*
%TO.C,R19*%
X15727500Y24237742D02*
X15727500Y24712258D01*
X16772500Y24237742D02*
X16772500Y24712258D01*
%TO.C,L7*%
X32785000Y43810000D02*
X32785000Y42260000D01*
X32785000Y43810000D02*
X40305000Y43810000D01*
X32785000Y36690000D02*
X32785000Y38240000D01*
X32785000Y36690000D02*
X40305000Y36690000D01*
X40305000Y43810000D02*
X40305000Y42260000D01*
X40305000Y36690000D02*
X40305000Y38240000D01*
%TO.C,Q2*%
X9960000Y31250000D02*
X9960000Y29250000D01*
X6840000Y29900000D02*
X6840000Y30550000D01*
X6840000Y29900000D02*
X6840000Y29250000D01*
X9960000Y29250000D02*
X9100000Y29250000D01*
X7700000Y29250000D02*
X6840000Y29250000D01*
%TO.C,C22*%
X30685000Y34238748D02*
X30685000Y34761252D01*
X32155000Y34238748D02*
X32155000Y34761252D01*
%TO.C,TP1*%
X29250000Y22100000D02*
G75*
G03*
X29250000Y22100000I-700000J0D01*
G01*
%TO.C,L9*%
X20810000Y8273752D02*
X20810000Y7751248D01*
X18590000Y8273752D02*
X18590000Y7751248D01*
%TO.C,TP9*%
X16950000Y20950000D02*
G75*
G03*
X16950000Y20950000I-700000J0D01*
G01*
%TO.C,C4*%
X31352164Y10410000D02*
X31567836Y10410000D01*
X31352164Y9690000D02*
X31567836Y9690000D01*
%TO.C,C41*%
X11340000Y7212164D02*
X11340000Y7427836D01*
X12060000Y7212164D02*
X12060000Y7427836D01*
%TO.C,C16*%
X16937836Y41240000D02*
X16722164Y41240000D01*
X16937836Y41960000D02*
X16722164Y41960000D01*
%TO.C,R21*%
X52592500Y31212258D02*
X52592500Y30737742D01*
X51547500Y31212258D02*
X51547500Y30737742D01*
%TO.C,C37*%
X65885000Y39577836D02*
X65885000Y39362164D01*
X65165000Y39577836D02*
X65165000Y39362164D01*
%TO.C,R20*%
X19063641Y34520000D02*
X18756359Y34520000D01*
X19063641Y35280000D02*
X18756359Y35280000D01*
%TO.C,C39*%
X19112164Y11510000D02*
X19327836Y11510000D01*
X19112164Y10790000D02*
X19327836Y10790000D01*
%TO.C,L2*%
X30470000Y7499721D02*
X30470000Y7825279D01*
X31490000Y7499721D02*
X31490000Y7825279D01*
%TO.C,R6*%
X12906359Y29430000D02*
X13213641Y29430000D01*
X12906359Y28670000D02*
X13213641Y28670000D01*
%TO.C,R4*%
X66835000Y23064564D02*
X66835000Y22610436D01*
X65365000Y23064564D02*
X65365000Y22610436D01*
%TO.C,C1*%
X7737836Y14140000D02*
X7522164Y14140000D01*
X7737836Y14860000D02*
X7522164Y14860000D01*
%TO.C,L1*%
X26729721Y7360000D02*
X27055279Y7360000D01*
X26729721Y6340000D02*
X27055279Y6340000D01*
%TO.C,Q5*%
X36520000Y35110000D02*
X38520000Y35110000D01*
X37870000Y31990000D02*
X37220000Y31990000D01*
X37870000Y31990000D02*
X38520000Y31990000D01*
X38520000Y35110000D02*
X38520000Y34250000D01*
X38520000Y32850000D02*
X38520000Y31990000D01*
%TO.C,J5*%
X80100000Y12550000D02*
X80100000Y13660000D01*
X84850000Y12550000D02*
X84850000Y13660000D01*
X78850000Y14250000D02*
X79350000Y14500000D01*
X79350000Y14500000D02*
X78850000Y14750000D01*
X78850000Y14750000D02*
X78850000Y14250000D01*
X80100000Y15340000D02*
X80100000Y16450000D01*
X84850000Y15340000D02*
X84850000Y16450000D01*
%TO.C,R9*%
X21840000Y31686359D02*
X21840000Y31993641D01*
X22600000Y31686359D02*
X22600000Y31993641D01*
D10*
%TO.C,L4*%
X65200000Y10115000D02*
X65200000Y6115000D01*
X59600000Y10115000D02*
X59600000Y6115000D01*
X62200000Y9615000D02*
X62200000Y10115000D01*
X62200000Y6115000D02*
X62200000Y6615000D01*
X62200000Y8615000D02*
G75*
G03*
X62200000Y9615000I0J500000D01*
G01*
X62200000Y7615000D02*
G75*
G03*
X62200000Y8615000I0J500000D01*
G01*
X62200000Y6615000D02*
G75*
G03*
X62200000Y7615000I0J500000D01*
G01*
D14*
%TO.C,C21*%
X33335000Y33788748D02*
X33335000Y34311252D01*
X34805000Y33788748D02*
X34805000Y34311252D01*
%TO.C,C29*%
X50680000Y31186252D02*
X50680000Y29763748D01*
X47960000Y31186252D02*
X47960000Y29763748D01*
%TO.C,C32*%
X49610000Y36663748D02*
X49610000Y38086252D01*
X52330000Y36663748D02*
X52330000Y38086252D01*
%TO.C,J3*%
X6800000Y40750000D02*
X5550000Y40750000D01*
X6510000Y40460000D02*
X540000Y40460000D01*
X540000Y40460000D02*
X540000Y32840000D01*
X6500000Y40450000D02*
X5750000Y40450000D01*
X5750000Y40450000D02*
X5750000Y38650000D01*
X4250000Y40450000D02*
X4250000Y39700000D01*
X4250000Y39700000D02*
X1300000Y39700000D01*
X1300000Y39700000D02*
X1300000Y36650000D01*
X6800000Y39500000D02*
X6800000Y40750000D01*
X6500000Y38650000D02*
X6500000Y40450000D01*
X5750000Y38650000D02*
X6500000Y38650000D01*
X6500000Y37150000D02*
X5750000Y37150000D01*
X5750000Y37150000D02*
X5750000Y36150000D01*
X6500000Y36150000D02*
X6500000Y37150000D01*
X5750000Y36150000D02*
X6500000Y36150000D01*
X6500000Y34650000D02*
X5750000Y34650000D01*
X5750000Y34650000D02*
X5750000Y32850000D01*
X4250000Y33600000D02*
X1300000Y33600000D01*
X1300000Y33600000D02*
X1300000Y36650000D01*
X6500000Y32850000D02*
X6500000Y34650000D01*
X5750000Y32850000D02*
X6500000Y32850000D01*
X4250000Y32850000D02*
X4250000Y33600000D01*
X6510000Y32840000D02*
X6510000Y40460000D01*
X540000Y32840000D02*
X6510000Y32840000D01*
%TO.C,R18*%
X36135000Y29710436D02*
X36135000Y30164564D01*
X37605000Y29710436D02*
X37605000Y30164564D01*
%TO.C,C20*%
X30607836Y36790000D02*
X30392164Y36790000D01*
X30607836Y37510000D02*
X30392164Y37510000D01*
%TO.C,C27*%
X46830000Y31186252D02*
X46830000Y29763748D01*
X44110000Y31186252D02*
X44110000Y29763748D01*
%TO.C,C14*%
X63763748Y20510000D02*
X65186252Y20510000D01*
X63763748Y17790000D02*
X65186252Y17790000D01*
%TO.C,C28*%
X46010000Y36663748D02*
X46010000Y38086252D01*
X48730000Y36663748D02*
X48730000Y38086252D01*
%TO.C,C36*%
X61565000Y38763748D02*
X61565000Y40186252D01*
X64285000Y38763748D02*
X64285000Y40186252D01*
%TO.C,C30*%
X17840000Y21322164D02*
X17840000Y21537836D01*
X18560000Y21322164D02*
X18560000Y21537836D01*
%TO.C,R10*%
X16772500Y18262258D02*
X16772500Y17787742D01*
X15727500Y18262258D02*
X15727500Y17787742D01*
%TO.C,C25*%
X28640000Y42163748D02*
X28640000Y43586252D01*
X31360000Y42163748D02*
X31360000Y43586252D01*
%TO.C,C12*%
X67910000Y3115580D02*
X67910000Y2834420D01*
X66890000Y3115580D02*
X66890000Y2834420D01*
%TO.C,R3*%
X69035000Y23064564D02*
X69035000Y22610436D01*
X67565000Y23064564D02*
X67565000Y22610436D01*
%TO.C,C15*%
X11962164Y35260000D02*
X12177836Y35260000D01*
X11962164Y34540000D02*
X12177836Y34540000D01*
D10*
%TO.C,L6*%
X68500000Y8515000D02*
X68500000Y12515000D01*
X74100000Y8515000D02*
X74100000Y12515000D01*
X71500000Y9015000D02*
X71500000Y8515000D01*
X71500000Y12515000D02*
X71500000Y12015000D01*
X71500000Y10015000D02*
G75*
G03*
X71500000Y9015000I0J-500000D01*
G01*
X71500000Y11015000D02*
G75*
G03*
X71500000Y10015000I0J-500000D01*
G01*
X71500000Y12015000D02*
G75*
G03*
X71500000Y11015000I0J-500000D01*
G01*
D14*
%TO.C,R14*%
X10522500Y8862258D02*
X10522500Y8387742D01*
X9477500Y8862258D02*
X9477500Y8387742D01*
%TO.C,C9*%
X62460000Y23127836D02*
X62460000Y22912164D01*
X61740000Y23127836D02*
X61740000Y22912164D01*
%TO.C,C33*%
X68447164Y36710000D02*
X68662836Y36710000D01*
X68447164Y35990000D02*
X68662836Y35990000D01*
%TO.C,C13*%
X76940580Y13990000D02*
X76659420Y13990000D01*
X76940580Y15010000D02*
X76659420Y15010000D01*
%TO.C,L8*%
X68735000Y35560000D02*
X68585000Y35560000D01*
X68735000Y35560000D02*
X68735000Y31040000D01*
X64215000Y35560000D02*
X64365000Y35560000D01*
X64215000Y35560000D02*
X64215000Y31040000D01*
X68735000Y31040000D02*
X68585000Y31040000D01*
X64215000Y31040000D02*
X64365000Y31040000D01*
%TO.C,Q3*%
X9550000Y43160000D02*
X11550000Y43160000D01*
X10900000Y40040000D02*
X10250000Y40040000D01*
X10900000Y40040000D02*
X11550000Y40040000D01*
X11550000Y43160000D02*
X11550000Y42300000D01*
X11550000Y40900000D02*
X11550000Y40040000D01*
%TO.C,TP6*%
X53200000Y12100000D02*
G75*
G03*
X53200000Y12100000I-700000J0D01*
G01*
%TO.C,TP11*%
X29250000Y19900000D02*
G75*
G03*
X29250000Y19900000I-700000J0D01*
G01*
%TO.C,R13*%
X8937742Y11672500D02*
X9412258Y11672500D01*
X8937742Y10627500D02*
X9412258Y10627500D01*
%TO.C,C24*%
X28247836Y29540000D02*
X28032164Y29540000D01*
X28247836Y30260000D02*
X28032164Y30260000D01*
%TO.C,C35*%
X60665000Y33763748D02*
X60665000Y35186252D01*
X63385000Y33763748D02*
X63385000Y35186252D01*
%TO.C,FB2*%
X66290000Y26224721D02*
X66290000Y26550279D01*
X67310000Y26224721D02*
X67310000Y26550279D01*
%TO.C,C3*%
X29590000Y6477836D02*
X29590000Y6262164D01*
X28870000Y6477836D02*
X28870000Y6262164D01*
%TO.C,C7*%
X30610000Y21727836D02*
X30610000Y21512164D01*
X29890000Y21727836D02*
X29890000Y21512164D01*
%TO.C,C38*%
X19065580Y12140000D02*
X18784420Y12140000D01*
X19065580Y13160000D02*
X18784420Y13160000D01*
D10*
%TO.C,L3*%
X58050000Y22635000D02*
X58050000Y18635000D01*
X52450000Y22635000D02*
X52450000Y18635000D01*
X55050000Y22135000D02*
X55050000Y22635000D01*
X55050000Y18635000D02*
X55050000Y19135000D01*
X55050000Y21135000D02*
G75*
G03*
X55050000Y22135000I0J500000D01*
G01*
X55050000Y20135000D02*
G75*
G03*
X55050000Y21135000I0J500000D01*
G01*
X55050000Y19135000D02*
G75*
G03*
X55050000Y20135000I0J500000D01*
G01*
D14*
%TO.C,R15*%
X21556359Y35280000D02*
X21863641Y35280000D01*
X21556359Y34520000D02*
X21863641Y34520000D01*
%TO.C,C2*%
X25040000Y6477836D02*
X25040000Y6262164D01*
X24320000Y6477836D02*
X24320000Y6262164D01*
%TO.C,TP3*%
X40000000Y12800000D02*
G75*
G03*
X40000000Y12800000I-700000J0D01*
G01*
%TO.C,C23*%
X28360000Y38736252D02*
X28360000Y37313748D01*
X25640000Y38736252D02*
X25640000Y37313748D01*
D12*
%TO.C,J4*%
X32500000Y14900000D02*
X32500000Y14100000D01*
X32500000Y14100000D02*
X33100000Y14500000D01*
X33100000Y16500000D02*
X37300000Y16500000D01*
X33100000Y15100000D02*
X33100000Y16500000D01*
X33100000Y14500000D02*
X32500000Y14900000D01*
X33100000Y13900000D02*
X33100000Y12500000D01*
X37300000Y15100000D02*
X37300000Y16500000D01*
X37300000Y13900000D02*
X37300000Y12500000D01*
X37300000Y12500000D02*
X33100000Y12500000D01*
D14*
%TO.C,R22*%
X18965000Y15085436D02*
X18965000Y15539564D01*
X20435000Y15085436D02*
X20435000Y15539564D01*
%TO.C,U2*%
X26470000Y34935000D02*
X23595000Y34935000D01*
X26470000Y34935000D02*
X27970000Y34935000D01*
X26470000Y30715000D02*
X24970000Y30715000D01*
X26470000Y30715000D02*
X27970000Y30715000D01*
%TD*%
M02*
